<svg width="13" height="22" viewBox="0 0 13 22" fill="none" xmlns="http://www.w3.org/2000/svg">
<path d="M3.98546 3V4.69107H3.97092V6.39659C4.1891 6.36768 4.42182 6.35323 4.68363 6.35323C5.10545 6.35323 5.48362 6.39659 5.77453 6.48331C6.06543 6.57003 6.34179 6.70011 6.54543 6.84465C6.76361 7.00364 6.93815 7.17708 7.06906 7.36498C7.19996 7.55287 7.31632 7.75522 7.4036 7.97203L9.03266 7.42279C8.78539 6.77238 8.37813 6.20869 7.82541 5.71727C7.27269 5.22585 6.54543 4.90787 5.68726 4.74888V3.01445H3.98546V3Z" fill="#30C4AE"/>
<path d="M5.6872 19V17.3089V15.5745C5.45447 15.6179 5.22175 15.6323 4.97448 15.6323C4.08722 15.6323 3.34541 15.4733 2.79269 15.1409C2.22542 14.8085 1.8327 14.4182 1.59998 13.9702L0 14.5194C0.290905 15.1843 0.770899 15.7624 1.45453 16.2827C2.13815 16.7886 2.98178 17.121 3.99995 17.2656V19H5.6872Z" fill="#30C4AE"/>
<path d="M6.8655 15.1411C6.82186 15.1701 6.79277 15.1845 6.74913 15.2134V17.1068C6.93822 17.049 7.12731 16.9912 7.28731 16.9045C7.75276 16.6877 8.16002 16.4275 8.48002 16.1095C8.80001 15.7916 9.04728 15.4302 9.20728 15.0255C9.36728 14.6208 9.45455 14.2017 9.45455 13.7536C9.45455 13.2044 9.33819 12.7274 9.12001 12.3372C8.88729 11.9469 8.58184 11.6145 8.18911 11.3254C7.79639 11.0363 7.3164 10.8051 6.77823 10.6027C6.24005 10.4004 5.6437 10.2125 5.0037 10.039C4.01463 9.76442 3.28737 9.4898 2.83646 9.22964C2.37102 8.95502 2.15284 8.57923 2.15284 8.11671C2.15284 7.89991 2.19647 7.69756 2.28374 7.48075C2.37102 7.2784 2.51647 7.09051 2.7201 6.91707C2.77828 6.8737 2.83646 6.83034 2.90919 6.78698V4.90802C2.29829 5.09592 1.77466 5.37053 1.36739 5.76078C0.727403 6.36783 0.392862 7.13387 0.363772 8.04444C0.349226 8.59368 0.436498 9.05619 0.625586 9.43199C0.814674 9.80778 1.07649 10.1402 1.44012 10.4148C1.80375 10.6894 2.22556 10.9207 2.73465 11.1086C3.24373 11.3109 3.811 11.4844 4.43644 11.6723C4.97461 11.8313 5.44006 11.9758 5.83278 12.1059C6.22551 12.236 6.57459 12.395 6.83641 12.554C7.11277 12.7129 7.3164 12.9008 7.44731 13.0887C7.57821 13.2911 7.65094 13.5368 7.65094 13.8114C7.65094 14.1005 7.57821 14.3462 7.44731 14.5775C7.30185 14.7943 7.11277 14.9822 6.8655 15.1411Z" fill="#30C4AE"/>
</svg>
