<svg width="10" height="17" viewBox="0 0 10 17" fill="none" xmlns="http://www.w3.org/2000/svg">
<path d="M7.46973 11.7041C7.46973 11.165 7.2793 10.7109 6.89844 10.3418C6.52344 9.97266 5.8877 9.63867 4.99121 9.33984C3.74316 8.95898 2.83203 8.46387 2.25781 7.85449C1.68945 7.23926 1.40527 6.45996 1.40527 5.5166C1.40527 4.55566 1.68359 3.76758 2.24023 3.15234C2.80273 2.53711 3.57324 2.1709 4.55176 2.05371V0.128906H5.86133V2.0625C6.8457 2.19727 7.61035 2.61035 8.15527 3.30176C8.70605 3.99316 8.98145 4.93945 8.98145 6.14062H7.36426C7.36426 5.31445 7.16797 4.6582 6.77539 4.17188C6.38281 3.68555 5.85254 3.44238 5.18457 3.44238C4.4873 3.44238 3.9541 3.62402 3.58496 3.9873C3.21582 4.34473 3.03125 4.8457 3.03125 5.49023C3.03125 6.08789 3.22461 6.56543 3.61133 6.92285C4.00391 7.27441 4.64551 7.59668 5.53613 7.88965C6.43262 8.17676 7.12988 8.49609 7.62793 8.84766C8.13184 9.19336 8.50098 9.59766 8.73535 10.0605C8.97559 10.5234 9.0957 11.0654 9.0957 11.6865C9.0957 12.6768 8.79688 13.4736 8.19922 14.0771C7.60742 14.6807 6.77539 15.0381 5.70312 15.1494V16.8281H4.40234V15.1494C3.3125 15.0498 2.45703 14.6631 1.83594 13.9893C1.2207 13.3096 0.913086 12.3896 0.913086 11.2295H2.53906C2.53906 12.0439 2.75293 12.6709 3.18066 13.1104C3.6084 13.5498 4.21484 13.7695 5 13.7695C5.76758 13.7695 6.37109 13.585 6.81055 13.2158C7.25 12.8467 7.46973 12.3428 7.46973 11.7041Z" fill="#495352"/>
</svg>
