<svg width="141" height="65" viewBox="0 0 141 65" fill="none" xmlns="http://www.w3.org/2000/svg">
<path d="M25.6192 33.704C26.3659 34.936 27.3739 35.9627 28.6432 36.784C29.9499 37.568 31.4806 37.9973 33.2352 38.072C34.4299 38.1093 35.4939 37.96 36.4272 37.624C37.3979 37.288 38.2192 36.8213 38.8912 36.224C39.5632 35.6267 40.1046 34.9173 40.5152 34.096C40.9259 33.2747 41.1686 32.3973 41.2432 31.464C41.4299 29.2613 40.9072 27.4507 39.6752 26.032C38.4432 24.576 36.6699 23.7733 34.3552 23.624C33.0859 23.5493 32.0966 23.5867 31.3872 23.736C30.6779 23.8853 30.2112 23.9973 29.9872 24.072L27.0192 20.656L36.9872 9.12H23.7712V3.8H44.0992V9.12L34.4112 19.424H34.5232C36.5766 19.424 38.3872 19.7227 39.9552 20.32C41.5606 20.9173 42.8859 21.7573 43.9312 22.84C44.9766 23.9227 45.7419 25.2107 46.2272 26.704C46.7126 28.1973 46.8806 29.84 46.7312 31.632C46.5819 33.4613 46.1339 35.1227 45.3872 36.616C44.6406 38.072 43.6699 39.3227 42.4752 40.368C41.2806 41.376 39.8992 42.16 38.3312 42.72C36.8006 43.2427 35.1579 43.4667 33.4032 43.392C32.1339 43.3547 30.8646 43.168 29.5952 42.832C28.3259 42.496 27.1312 42.0293 26.0112 41.432C24.9286 40.7973 23.9392 40.0507 23.0432 39.192C22.1472 38.3333 21.4192 37.344 20.8592 36.224L25.6192 33.704ZM50.6517 23.456C50.6517 20.656 50.9131 18.0427 51.4357 15.616C51.9584 13.1893 52.7424 11.08 53.7877 9.288C54.8331 7.496 56.1397 6.07733 57.7077 5.032C59.3131 3.98666 61.1797 3.464 63.3077 3.464C65.4357 3.464 67.3024 3.98666 68.9077 5.032C70.5131 6.07733 71.8384 7.496 72.8837 9.288C73.9291 11.08 74.7131 13.1893 75.2357 15.616C75.7584 18.0427 76.0197 20.656 76.0197 23.456C76.0197 26.2187 75.7584 28.8133 75.2357 31.24C74.7131 33.6667 73.9291 35.776 72.8837 37.568C71.8384 39.36 70.5131 40.7787 68.9077 41.824C67.3024 42.8693 65.4357 43.392 63.3077 43.392C61.1797 43.392 59.3131 42.8693 57.7077 41.824C56.1397 40.7787 54.8331 39.36 53.7877 37.568C52.7424 35.776 51.9584 33.6667 51.4357 31.24C50.9131 28.8133 50.6517 26.2187 50.6517 23.456ZM63.3077 38.072C64.6517 38.072 65.7904 37.6427 66.7237 36.784C67.6571 35.888 68.4037 34.7493 68.9637 33.368C69.5611 31.9493 69.9904 30.3813 70.2517 28.664C70.5131 26.9093 70.6437 25.1733 70.6437 23.456C70.6437 21.7387 70.5131 20.0027 70.2517 18.248C69.9904 16.4933 69.5611 14.9253 68.9637 13.544C68.4037 12.1253 67.6571 10.9867 66.7237 10.128C65.7904 9.232 64.6517 8.784 63.3077 8.784C61.9637 8.784 60.8251 9.232 59.8917 10.128C58.9957 10.9867 58.2491 12.1253 57.6517 13.544C57.0544 14.9253 56.6251 16.4933 56.3637 18.248C56.1024 20.0027 55.9717 21.7387 55.9717 23.456C55.9717 25.1733 56.1024 26.9093 56.3637 28.664C56.6251 30.3813 57.0544 31.9493 57.6517 33.368C58.2491 34.7493 58.9957 35.888 59.8917 36.784C60.8251 37.6427 61.9637 38.072 63.3077 38.072ZM79.6174 23.456C79.6174 20.656 79.8787 18.0427 80.4013 15.616C80.924 13.1893 81.708 11.08 82.7533 9.288C83.7987 7.496 85.1054 6.07733 86.6734 5.032C88.2787 3.98666 90.1454 3.464 92.2734 3.464C94.4014 3.464 96.268 3.98666 97.8734 5.032C99.4787 6.07733 100.804 7.496 101.849 9.288C102.895 11.08 103.679 13.1893 104.201 15.616C104.724 18.0427 104.985 20.656 104.985 23.456C104.985 26.2187 104.724 28.8133 104.201 31.24C103.679 33.6667 102.895 35.776 101.849 37.568C100.804 39.36 99.4787 40.7787 97.8734 41.824C96.268 42.8693 94.4014 43.392 92.2734 43.392C90.1454 43.392 88.2787 42.8693 86.6734 41.824C85.1054 40.7787 83.7987 39.36 82.7533 37.568C81.708 35.776 80.924 33.6667 80.4013 31.24C79.8787 28.8133 79.6174 26.2187 79.6174 23.456ZM92.2734 38.072C93.6174 38.072 94.756 37.6427 95.6894 36.784C96.6227 35.888 97.3694 34.7493 97.9294 33.368C98.5267 31.9493 98.956 30.3813 99.2174 28.664C99.4787 26.9093 99.6094 25.1733 99.6094 23.456C99.6094 21.7387 99.4787 20.0027 99.2174 18.248C98.956 16.4933 98.5267 14.9253 97.9294 13.544C97.3694 12.1253 96.6227 10.9867 95.6894 10.128C94.756 9.232 93.6174 8.784 92.2734 8.784C90.9294 8.784 89.7907 9.232 88.8574 10.128C87.9614 10.9867 87.2147 12.1253 86.6174 13.544C86.02 14.9253 85.5907 16.4933 85.3294 18.248C85.068 20.0027 84.9374 21.7387 84.9374 23.456C84.9374 25.1733 85.068 26.9093 85.3294 28.664C85.5907 30.3813 86.02 31.9493 86.6174 33.368C87.2147 34.7493 87.9614 35.888 88.8574 36.784C89.7907 37.6427 90.9294 38.072 92.2734 38.072ZM126.265 17.8H130.117L114.349 43H110.497L126.265 17.8ZM121.657 38.104C121.657 37.384 121.789 36.712 122.053 36.088C122.341 35.464 122.713 34.924 123.169 34.468C123.649 33.988 124.201 33.616 124.825 33.352C125.449 33.064 126.121 32.92 126.841 32.92C127.561 32.92 128.233 33.064 128.857 33.352C129.481 33.616 130.021 33.988 130.477 34.468C130.957 34.924 131.329 35.464 131.593 36.088C131.881 36.712 132.025 37.384 132.025 38.104C132.025 38.824 131.881 39.496 131.593 40.12C131.329 40.744 130.957 41.296 130.477 41.776C130.021 42.232 129.481 42.592 128.857 42.856C128.233 43.12 127.561 43.252 126.841 43.252C126.121 43.252 125.449 43.12 124.825 42.856C124.201 42.592 123.649 42.232 123.169 41.776C122.713 41.296 122.341 40.744 122.053 40.12C121.789 39.496 121.657 38.824 121.657 38.104ZM113.701 17.584C114.421 17.584 115.093 17.716 115.717 17.98C116.341 18.244 116.881 18.616 117.337 19.096C117.817 19.552 118.189 20.092 118.453 20.716C118.717 21.34 118.849 22.012 118.849 22.732C118.849 23.452 118.717 24.124 118.453 24.748C118.189 25.372 117.817 25.924 117.337 26.404C116.881 26.86 116.341 27.232 115.717 27.52C115.093 27.784 114.421 27.916 113.701 27.916C112.981 27.916 112.309 27.784 111.685 27.52C111.061 27.232 110.509 26.86 110.029 26.404C109.573 25.924 109.201 25.372 108.913 24.748C108.649 24.124 108.517 23.452 108.517 22.732C108.517 22.012 108.649 21.34 108.913 20.716C109.201 20.092 109.573 19.552 110.029 19.096C110.509 18.616 111.061 18.244 111.685 17.98C112.309 17.716 112.981 17.584 113.701 17.584ZM126.841 40.444C127.489 40.444 128.041 40.216 128.497 39.76C128.953 39.304 129.181 38.752 129.181 38.104C129.181 37.456 128.953 36.904 128.497 36.448C128.041 35.968 127.489 35.728 126.841 35.728C126.193 35.728 125.629 35.968 125.149 36.448C124.693 36.904 124.465 37.456 124.465 38.104C124.465 38.752 124.693 39.304 125.149 39.76C125.629 40.216 126.193 40.444 126.841 40.444ZM113.701 25.108C114.349 25.108 114.901 24.88 115.357 24.424C115.813 23.944 116.041 23.38 116.041 22.732C116.041 22.084 115.813 21.532 115.357 21.076C114.901 20.62 114.349 20.392 113.701 20.392C113.053 20.392 112.489 20.62 112.009 21.076C111.553 21.532 111.325 22.084 111.325 22.732C111.325 23.38 111.553 23.944 112.009 24.424C112.489 24.88 113.053 25.108 113.701 25.108Z" fill="#5E968D"/>
<path d="M9.61387 11.4922H10.3707L10.3658 13.7236H9.76523V12H4.40391V13.7236H3.80332V11.4922H4.27695C4.63828 11.1146 4.92962 10.5645 5.15098 9.8418C5.37559 9.11589 5.51068 8.32161 5.55625 7.45898L5.6832 4.89062H9.61387V11.4922ZM4.9752 11.4922H9.01328V5.40332H6.25938L6.16172 7.43945C6.1194 8.28581 5.99408 9.06543 5.78574 9.77832C5.58066 10.4912 5.31048 11.0625 4.9752 11.4922ZM16.9281 8.83105C16.9281 9.48535 16.8142 10.0599 16.5863 10.5547C16.3617 11.0495 16.0395 11.4303 15.6195 11.6973C15.1996 11.9642 14.7146 12.0977 14.1645 12.0977C13.3344 12.0977 12.6638 11.8014 12.1527 11.209C11.6417 10.6133 11.3861 9.81087 11.3861 8.80176V8.06934C11.3861 7.42155 11.5001 6.84863 11.7279 6.35059C11.959 5.84928 12.2846 5.46517 12.7045 5.19824C13.1244 4.92806 13.6078 4.79297 14.1547 4.79297C14.7016 4.79297 15.1833 4.9248 15.6 5.18848C16.0199 5.45215 16.3438 5.82487 16.5717 6.30664C16.7995 6.78841 16.9184 7.34668 16.9281 7.98145V8.83105ZM16.3275 8.05957C16.3275 7.20345 16.1339 6.53288 15.7465 6.04785C15.3591 5.56283 14.8285 5.32031 14.1547 5.32031C13.4939 5.32031 12.9665 5.56445 12.5727 6.05273C12.182 6.53776 11.9867 7.21647 11.9867 8.08887V8.83105C11.9867 9.67415 12.182 10.3431 12.5727 10.8379C12.9633 11.3294 13.4939 11.5752 14.1645 11.5752C14.8448 11.5752 15.3754 11.3327 15.7563 10.8477C16.1371 10.3594 16.3275 9.68066 16.3275 8.81152V8.05957Z" fill="#8C9C9A"/>
<path d="M31.7119 54.2197H29.041V59H28.4551V53.7168H31.7119V54.2197ZM39.2197 56.2803C39.2197 55.7725 39.3174 55.3151 39.5127 54.9082C39.7113 54.5013 39.9896 54.1855 40.3477 53.9609C40.709 53.7331 41.1175 53.6191 41.5732 53.6191C42.2764 53.6191 42.846 53.8665 43.2822 54.3613C43.7184 54.8529 43.9365 55.5055 43.9365 56.3193V56.4414C43.9365 56.9525 43.8372 57.4131 43.6387 57.8232C43.4434 58.2301 43.1667 58.5443 42.8086 58.7656C42.4505 58.987 42.042 59.0977 41.583 59.0977C40.8831 59.0977 40.3135 58.8519 39.874 58.3604C39.4378 57.8656 39.2197 57.2113 39.2197 56.3975V56.2803ZM39.8057 56.4414C39.8057 57.0729 39.9684 57.5921 40.2939 57.999C40.6227 58.4027 41.0524 58.6045 41.583 58.6045C42.1104 58.6045 42.5368 58.4027 42.8623 57.999C43.1911 57.5921 43.3555 57.0566 43.3555 56.3926V56.2803C43.3555 55.8766 43.2806 55.5072 43.1309 55.1719C42.9811 54.8366 42.7712 54.5778 42.501 54.3955C42.2308 54.21 41.9215 54.1172 41.5732 54.1172C41.0524 54.1172 40.6276 54.3223 40.2988 54.7324C39.9701 55.1393 39.8057 55.6732 39.8057 56.334V56.4414ZM51.6738 58.5068L51.9326 58.1699C52.3428 57.6133 52.5788 56.7995 52.6406 55.7285L52.7334 53.7168H55.8535V58.5068H56.4004V60.5527H55.8193V59H51.8496V60.5527H51.2881L51.293 58.5068H51.6738ZM52.3477 58.5068H55.2676V54.2637H53.29L53.2266 55.6357C53.168 56.8955 52.875 57.8525 52.3477 58.5068ZM64.2061 56.2803C64.2061 55.7725 64.3037 55.3151 64.499 54.9082C64.6976 54.5013 64.9759 54.1855 65.334 53.9609C65.6953 53.7331 66.1038 53.6191 66.5596 53.6191C67.2627 53.6191 67.8324 53.8665 68.2686 54.3613C68.7048 54.8529 68.9229 55.5055 68.9229 56.3193V56.4414C68.9229 56.9525 68.8236 57.4131 68.625 57.8232C68.4297 58.2301 68.153 58.5443 67.7949 58.7656C67.4368 58.987 67.0283 59.0977 66.5693 59.0977C65.8695 59.0977 65.2998 58.8519 64.8604 58.3604C64.4242 57.8656 64.2061 57.2113 64.2061 56.3975V56.2803ZM64.792 56.4414C64.792 57.0729 64.9548 57.5921 65.2803 57.999C65.609 58.4027 66.0387 58.6045 66.5693 58.6045C67.0967 58.6045 67.5231 58.4027 67.8486 57.999C68.1774 57.5921 68.3418 57.0566 68.3418 56.3926V56.2803C68.3418 55.8766 68.2669 55.5072 68.1172 55.1719C67.9674 54.8366 67.7575 54.5778 67.4873 54.3955C67.2171 54.21 66.9079 54.1172 66.5596 54.1172C66.0387 54.1172 65.6139 54.3223 65.2852 54.7324C64.9564 55.1393 64.792 55.6732 64.792 56.334V56.4414ZM77.1973 59V53.7168H79.1357C79.8063 53.7168 80.3206 53.8372 80.6787 54.0781C81.0368 54.3158 81.2158 54.6657 81.2158 55.1279C81.2158 55.3916 81.1361 55.6276 80.9766 55.8359C80.8171 56.041 80.5843 56.1908 80.2783 56.2852C80.6234 56.3503 80.9001 56.4984 81.1084 56.7295C81.32 56.9606 81.4258 57.2292 81.4258 57.5352C81.4258 58.0007 81.2533 58.362 80.9082 58.6191C80.5664 58.873 80.0814 59 79.4531 59H77.1973ZM77.7783 56.5684V58.5117H79.4727C79.9121 58.5117 80.2507 58.4271 80.4883 58.2578C80.7259 58.0885 80.8447 57.8444 80.8447 57.5254C80.8447 57.2324 80.7259 56.9997 80.4883 56.8271C80.2507 56.6546 79.9121 56.5684 79.4727 56.5684H77.7783ZM77.7783 56.0801H79.2578C80.1758 56.0671 80.6348 55.7546 80.6348 55.1426C80.6348 54.8203 80.5078 54.5859 80.2539 54.4395C80.0033 54.2897 79.6305 54.2148 79.1357 54.2148H77.7783V56.0801ZM90.374 55.6357H91.8975C92.2881 55.6357 92.6299 55.7074 92.9229 55.8506C93.2191 55.9906 93.4421 56.1859 93.5918 56.4365C93.7448 56.6872 93.8213 56.9785 93.8213 57.3105C93.8213 57.8216 93.6455 58.2318 93.2939 58.541C92.9456 58.847 92.4736 59 91.8779 59H89.793V53.7168H90.374V55.6357ZM90.374 56.1338V58.5068H91.8877C92.3076 58.5068 92.6364 58.401 92.874 58.1895C93.1149 57.9779 93.2354 57.6882 93.2354 57.3203C93.2354 56.9688 93.1182 56.6855 92.8838 56.4707C92.6527 56.2526 92.3353 56.1403 91.9316 56.1338H90.374ZM95.6133 59H95.0273V53.7168H95.6133V59ZM105.899 55.8604L107.325 53.7168H108.019L106.227 56.3096L108.097 59H107.408L105.904 56.7637L104.4 59H103.712L105.577 56.3096L103.785 53.7168H104.474L105.899 55.8604Z" fill="#5E968D"/>
</svg>
