<svg width="100" height="66" viewBox="0 0 100 66" fill="none" xmlns="http://www.w3.org/2000/svg">
<g filter="url(#filter0_d)">
<path d="M10.4358 40V34.68C11.5931 33.448 12.8438 32.0853 14.1878 30.592C15.3078 29.3227 16.5958 27.8667 18.0518 26.224C19.5078 24.544 21.0198 22.752 22.5878 20.848C24.2304 18.832 25.3878 17.04 26.0598 15.472C26.7318 13.904 27.0678 12.5227 27.0678 11.328C27.0678 9.90933 26.6944 8.752 25.9478 7.856C25.2011 6.96 24.0624 6.456 22.5318 6.344C20.8518 6.232 19.5264 6.66133 18.5558 7.632C17.6224 8.56533 16.8944 9.77867 16.3718 11.272L10.9398 9.256C11.3878 7.98667 11.9478 6.81067 12.6198 5.728C13.2918 4.64533 14.1131 3.712 15.0838 2.928C16.0918 2.10666 17.2678 1.49067 18.6118 1.08C19.9558 0.631998 21.5051 0.445332 23.2598 0.519998C24.8278 0.594666 26.2091 0.930666 27.4038 1.528C28.6358 2.088 29.6624 2.83466 30.4838 3.768C31.3051 4.664 31.9211 5.728 32.3318 6.96C32.7798 8.15466 33.0038 9.424 33.0038 10.768C33.0038 12.8587 32.5371 15.024 31.6038 17.264C30.7078 19.4667 29.3451 21.6693 27.5158 23.872C26.7691 24.768 25.9664 25.7013 25.1078 26.672C24.2864 27.6053 23.4464 28.5387 22.5878 29.472C21.7664 30.4053 20.9451 31.32 20.1238 32.216C19.3398 33.112 18.5931 33.9333 17.8838 34.68H34.1798V40H10.4358ZM38.3011 33.224L42.8931 30.872C43.6398 32.104 44.6478 33.0933 45.9171 33.84C47.2238 34.5867 48.7544 34.9973 50.5091 35.072C52.8984 35.1093 54.7278 34.4933 55.9971 33.224C57.3038 31.9547 58.0318 30.368 58.1811 28.464C58.3678 26.2613 57.7891 24.4693 56.4451 23.088C55.1384 21.7067 53.3278 20.9413 51.0131 20.792C49.5944 20.7173 48.4184 20.8293 47.4851 21.128C46.5891 21.4267 46.0291 21.6133 45.8051 21.688L40.8771 20.68L44.7971 0.799997H62.4371V6.12H48.7171L46.8131 16.48C47.4104 16.2933 48.1198 16.1253 48.9411 15.976C49.7624 15.7893 50.6024 15.7147 51.4611 15.752C53.5144 15.7893 55.3251 16.1627 56.8931 16.872C58.4984 17.544 59.8238 18.4587 60.8691 19.616C61.9144 20.736 62.6798 22.08 63.1651 23.648C63.6504 25.1787 63.8184 26.84 63.6691 28.632C63.5198 30.4613 63.0904 32.1227 62.3811 33.616C61.6718 35.072 60.7384 36.3227 59.5811 37.368C58.4611 38.376 57.1358 39.16 55.6051 39.72C54.1118 40.2427 52.4691 40.4667 50.6771 40.392C49.4078 40.3547 48.1384 40.168 46.8691 39.832C45.6371 39.496 44.4798 39.0293 43.3971 38.432C42.3144 37.7973 41.3251 37.0507 40.4291 36.192C39.5704 35.3333 38.8611 34.344 38.3011 33.224ZM84.6882 14.8H88.5402L72.7722 40H68.9202L84.6882 14.8ZM80.0802 35.104C80.0802 34.384 80.2122 33.712 80.4762 33.088C80.7642 32.464 81.1362 31.924 81.5922 31.468C82.0722 30.988 82.6242 30.616 83.2482 30.352C83.8722 30.064 84.5442 29.92 85.2642 29.92C85.9842 29.92 86.6562 30.064 87.2802 30.352C87.9042 30.616 88.4442 30.988 88.9002 31.468C89.3802 31.924 89.7522 32.464 90.0162 33.088C90.3042 33.712 90.4482 34.384 90.4482 35.104C90.4482 35.824 90.3042 36.496 90.0162 37.12C89.7522 37.744 89.3802 38.296 88.9002 38.776C88.4442 39.232 87.9042 39.592 87.2802 39.856C86.6562 40.12 85.9842 40.252 85.2642 40.252C84.5442 40.252 83.8722 40.12 83.2482 39.856C82.6242 39.592 82.0722 39.232 81.5922 38.776C81.1362 38.296 80.7642 37.744 80.4762 37.12C80.2122 36.496 80.0802 35.824 80.0802 35.104ZM72.1242 14.584C72.8442 14.584 73.5162 14.716 74.1402 14.98C74.7642 15.244 75.3042 15.616 75.7602 16.096C76.2402 16.552 76.6122 17.092 76.8762 17.716C77.1402 18.34 77.2722 19.012 77.2722 19.732C77.2722 20.452 77.1402 21.124 76.8762 21.748C76.6122 22.372 76.2402 22.924 75.7602 23.404C75.3042 23.86 74.7642 24.232 74.1402 24.52C73.5162 24.784 72.8442 24.916 72.1242 24.916C71.4042 24.916 70.7322 24.784 70.1082 24.52C69.4842 24.232 68.9322 23.86 68.4522 23.404C67.9962 22.924 67.6242 22.372 67.3362 21.748C67.0722 21.124 66.9402 20.452 66.9402 19.732C66.9402 19.012 67.0722 18.34 67.3362 17.716C67.6242 17.092 67.9962 16.552 68.4522 16.096C68.9322 15.616 69.4842 15.244 70.1082 14.98C70.7322 14.716 71.4042 14.584 72.1242 14.584ZM85.2642 37.444C85.9122 37.444 86.4642 37.216 86.9202 36.76C87.3762 36.304 87.6042 35.752 87.6042 35.104C87.6042 34.456 87.3762 33.904 86.9202 33.448C86.4642 32.968 85.9122 32.728 85.2642 32.728C84.6162 32.728 84.0522 32.968 83.5722 33.448C83.1162 33.904 82.8882 34.456 82.8882 35.104C82.8882 35.752 83.1162 36.304 83.5722 36.76C84.0522 37.216 84.6162 37.444 85.2642 37.444ZM72.1242 22.108C72.7722 22.108 73.3242 21.88 73.7802 21.424C74.2362 20.944 74.4642 20.38 74.4642 19.732C74.4642 19.084 74.2362 18.532 73.7802 18.076C73.3242 17.62 72.7722 17.392 72.1242 17.392C71.4762 17.392 70.9122 17.62 70.4322 18.076C69.9762 18.532 69.7482 19.084 69.7482 19.732C69.7482 20.38 69.9762 20.944 70.4322 21.424C70.9122 21.88 71.4762 22.108 72.1242 22.108Z" fill="#5E968D"/>
<path d="M13.7119 51.2197H11.041V56H10.4551V50.7168H13.7119V51.2197ZM21.2197 53.2803C21.2197 52.7725 21.3174 52.3151 21.5127 51.9082C21.7113 51.5013 21.9896 51.1855 22.3477 50.9609C22.709 50.7331 23.1175 50.6191 23.5732 50.6191C24.2764 50.6191 24.846 50.8665 25.2822 51.3613C25.7184 51.8529 25.9365 52.5055 25.9365 53.3193V53.4414C25.9365 53.9525 25.8372 54.4131 25.6387 54.8232C25.4434 55.2301 25.1667 55.5443 24.8086 55.7656C24.4505 55.987 24.042 56.0977 23.583 56.0977C22.8831 56.0977 22.3135 55.8519 21.874 55.3604C21.4378 54.8656 21.2197 54.2113 21.2197 53.3975V53.2803ZM21.8057 53.4414C21.8057 54.0729 21.9684 54.5921 22.2939 54.999C22.6227 55.4027 23.0524 55.6045 23.583 55.6045C24.1104 55.6045 24.5368 55.4027 24.8623 54.999C25.1911 54.5921 25.3555 54.0566 25.3555 53.3926V53.2803C25.3555 52.8766 25.2806 52.5072 25.1309 52.1719C24.9811 51.8366 24.7712 51.5778 24.501 51.3955C24.2308 51.21 23.9215 51.1172 23.5732 51.1172C23.0524 51.1172 22.6276 51.3223 22.2988 51.7324C21.9701 52.1393 21.8057 52.6732 21.8057 53.334V53.4414ZM33.6738 55.5068L33.9326 55.1699C34.3428 54.6133 34.5788 53.7995 34.6406 52.7285L34.7334 50.7168H37.8535V55.5068H38.4004V57.5527H37.8193V56H33.8496V57.5527H33.2881L33.293 55.5068H33.6738ZM34.3477 55.5068H37.2676V51.2637H35.29L35.2266 52.6357C35.168 53.8955 34.875 54.8525 34.3477 55.5068ZM46.2061 53.2803C46.2061 52.7725 46.3037 52.3151 46.499 51.9082C46.6976 51.5013 46.9759 51.1855 47.334 50.9609C47.6953 50.7331 48.1038 50.6191 48.5596 50.6191C49.2627 50.6191 49.8324 50.8665 50.2686 51.3613C50.7048 51.8529 50.9229 52.5055 50.9229 53.3193V53.4414C50.9229 53.9525 50.8236 54.4131 50.625 54.8232C50.4297 55.2301 50.153 55.5443 49.7949 55.7656C49.4368 55.987 49.0283 56.0977 48.5693 56.0977C47.8695 56.0977 47.2998 55.8519 46.8604 55.3604C46.4242 54.8656 46.2061 54.2113 46.2061 53.3975V53.2803ZM46.792 53.4414C46.792 54.0729 46.9548 54.5921 47.2803 54.999C47.609 55.4027 48.0387 55.6045 48.5693 55.6045C49.0967 55.6045 49.5231 55.4027 49.8486 54.999C50.1774 54.5921 50.3418 54.0566 50.3418 53.3926V53.2803C50.3418 52.8766 50.2669 52.5072 50.1172 52.1719C49.9674 51.8366 49.7575 51.5778 49.4873 51.3955C49.2171 51.21 48.9079 51.1172 48.5596 51.1172C48.0387 51.1172 47.6139 51.3223 47.2852 51.7324C46.9564 52.1393 46.792 52.6732 46.792 53.334V53.4414ZM59.1973 56V50.7168H61.1357C61.8063 50.7168 62.3206 50.8372 62.6787 51.0781C63.0368 51.3158 63.2158 51.6657 63.2158 52.1279C63.2158 52.3916 63.1361 52.6276 62.9766 52.8359C62.8171 53.041 62.5843 53.1908 62.2783 53.2852C62.6234 53.3503 62.9001 53.4984 63.1084 53.7295C63.32 53.9606 63.4258 54.2292 63.4258 54.5352C63.4258 55.0007 63.2533 55.362 62.9082 55.6191C62.5664 55.873 62.0814 56 61.4531 56H59.1973ZM59.7783 53.5684V55.5117H61.4727C61.9121 55.5117 62.2507 55.4271 62.4883 55.2578C62.7259 55.0885 62.8447 54.8444 62.8447 54.5254C62.8447 54.2324 62.7259 53.9997 62.4883 53.8271C62.2507 53.6546 61.9121 53.5684 61.4727 53.5684H59.7783ZM59.7783 53.0801H61.2578C62.1758 53.0671 62.6348 52.7546 62.6348 52.1426C62.6348 51.8203 62.5078 51.5859 62.2539 51.4395C62.0033 51.2897 61.6305 51.2148 61.1357 51.2148H59.7783V53.0801ZM72.374 52.6357H73.8975C74.2881 52.6357 74.6299 52.7074 74.9229 52.8506C75.2191 52.9906 75.4421 53.1859 75.5918 53.4365C75.7448 53.6872 75.8213 53.9785 75.8213 54.3105C75.8213 54.8216 75.6455 55.2318 75.2939 55.541C74.9456 55.847 74.4736 56 73.8779 56H71.793V50.7168H72.374V52.6357ZM72.374 53.1338V55.5068H73.8877C74.3076 55.5068 74.6364 55.401 74.874 55.1895C75.1149 54.9779 75.2354 54.6882 75.2354 54.3203C75.2354 53.9688 75.1182 53.6855 74.8838 53.4707C74.6527 53.2526 74.3353 53.1403 73.9316 53.1338H72.374ZM77.6133 56H77.0273V50.7168H77.6133V56ZM87.8994 52.8604L89.3252 50.7168H90.0186L88.2266 53.3096L90.0967 56H89.4082L87.9043 53.7637L86.4004 56H85.7119L87.5771 53.3096L85.7852 50.7168H86.4736L87.8994 52.8604Z" fill="#5E968D"/>
</g>
<defs>
<filter id="filter0_d" x="6.43579" y="0.503998" width="88.0124" height="65.0487" filterUnits="userSpaceOnUse" color-interpolation-filters="sRGB">
<feFlood flood-opacity="0" result="BackgroundImageFix"/>
<feColorMatrix in="SourceAlpha" type="matrix" values="0 0 0 0 0 0 0 0 0 0 0 0 0 0 0 0 0 0 127 0"/>
<feOffset dy="4"/>
<feGaussianBlur stdDeviation="2"/>
<feColorMatrix type="matrix" values="0 0 0 0 0 0 0 0 0 0 0 0 0 0 0 0 0 0 0.25 0"/>
<feBlend mode="normal" in2="BackgroundImageFix" result="effect1_dropShadow"/>
<feBlend mode="normal" in="SourceGraphic" in2="effect1_dropShadow" result="shape"/>
</filter>
</defs>
</svg>
