<svg width="25" height="22" viewBox="0 0 25 22" fill="none" xmlns="http://www.w3.org/2000/svg">
<path d="M7.40745 18.7669H9.2593V13.42H13.8889V11.3486H9.2593V6.19391L7.40745 6.19391V11.3486H2.77783L2.77783 13.42H7.40745V18.7669Z" fill="#495352"/>
<path d="M17.6988 0L17.7108 2.32522H17.6917L17.7038 4.67031C17.99 4.63057 18.2953 4.61069 18.6389 4.61069C19.1925 4.61069 19.6892 4.67031 20.0716 4.78955C20.454 4.9088 20.8176 5.08766 21.0859 5.2864C21.3734 5.50501 21.6037 5.74349 21.7769 6.00185C21.95 6.26021 22.1042 6.53844 22.2203 6.83654L24.3544 6.08134C24.0253 5.18703 23.4868 4.41196 22.7578 3.73625C22.0289 3.06055 21.0722 2.62332 19.9447 2.40471L19.9324 0.0198737H17.6989L17.6988 0Z" fill="#495352"/>
<path d="M20.0462 22.0001L20.0346 19.6748L20.0228 17.29C19.7176 17.3496 19.4123 17.3695 19.0878 17.3695C17.9233 17.3695 16.9486 17.1509 16.2209 16.6938C15.5487 16.2716 14.8168 15.4845 14.8168 15.4845H12.0391C12.4254 16.3987 13.5716 17.5484 14.4724 18.2638C15.3731 18.9594 16.4826 19.4165 17.8199 19.6152L17.8318 22.0001H20.0462Z" fill="#495352"/>
<path d="M21.5648 16.6936C21.5077 16.7333 21.4697 16.7532 21.4126 16.793L21.426 19.3964C21.6738 19.3169 21.9215 19.2374 22.1309 19.1182C22.7402 18.8201 23.2729 18.4624 23.6906 18.0251C24.1084 17.5879 24.4303 17.0911 24.6375 16.5346C24.8446 15.9781 24.9562 15.4018 24.953 14.7857C24.9491 14.0305 24.793 13.3747 24.5039 12.8381C24.1957 12.3015 23.7925 11.8444 23.275 11.447C22.7575 11.0495 22.1259 10.7315 21.4181 10.4533C20.7104 10.175 19.9264 9.91668 19.0852 9.67819C17.7851 9.30059 16.8287 8.923 16.235 8.56527C15.6222 8.18767 15.3332 7.67096 15.3299 7.035C15.3284 6.73689 15.3842 6.45866 15.4973 6.16056C15.6104 5.88233 15.7999 5.62397 16.066 5.38548C16.142 5.32586 16.2181 5.26624 16.3132 5.20662L16.2999 2.62305C15.4995 2.8814 14.8142 3.259 14.2824 3.79559C13.4467 4.63029 13.0131 5.68359 12.9814 6.93563C12.9662 7.69083 13.084 8.32679 13.3348 8.8435C13.5856 9.36022 13.9316 9.81731 14.4108 10.1949C14.89 10.5725 15.4452 10.8905 16.1147 11.1488C16.7843 11.4271 17.53 11.6656 18.3522 11.9239C19.0597 12.1425 19.6716 12.3413 20.1879 12.5201C20.7043 12.699 21.1636 12.9176 21.5083 13.1362C21.8722 13.3548 22.1407 13.6132 22.3139 13.8715C22.4871 14.1498 22.5843 14.4876 22.5863 14.8652C22.5883 15.2627 22.4946 15.6005 22.3244 15.9185C22.135 16.2166 21.8882 16.475 21.5648 16.6936Z" fill="#495352"/>
<rect y="11.3552" width="1.85152" height="2.06423" fill="#495352"/>
</svg>
