<svg width="17" height="20" viewBox="0 0 17 20" fill="none" xmlns="http://www.w3.org/2000/svg">
<path d="M13.1866 10.4921C12.7999 10.4921 12.4933 10.1987 12.4799 9.81208C12.4666 9.43875 12.7599 9.11875 13.1466 9.09208C13.2799 9.07875 13.3999 9.15875 13.4133 9.29208C13.4399 9.41208 13.3599 9.51875 13.2133 9.55875C13.0266 9.59875 12.9333 9.69208 12.9466 9.81208C12.9599 9.93208 13.0266 10.0121 13.1466 10.0254C13.2933 10.0387 13.3599 9.97208 13.4133 9.75875C13.4533 9.62541 13.5466 9.55875 13.6666 9.57208C13.7999 9.58542 13.8799 9.69208 13.8666 9.82542C13.8799 10.1854 13.5599 10.4921 13.1866 10.4921Z" fill="#495352"/>
<path d="M9.00051 16.3187C8.86718 16.1987 8.65385 16.1987 8.53385 16.332L6.85385 18.132V11.012C6.85385 10.8387 6.73384 10.6787 6.56051 10.6653C6.36051 10.652 6.18718 10.7987 6.18718 10.9987V18.132L4.50718 16.332C4.38718 16.1987 4.17384 16.1853 4.04051 16.3187C3.90718 16.4387 3.89384 16.652 4.02718 16.7853L6.18718 19.1053C6.37384 19.3053 6.68051 19.3053 6.86718 19.1053L9.02718 16.7853C9.14718 16.652 9.13385 16.4387 9.00051 16.3187Z" fill="#495352" stroke="#495352" stroke-width="0.3"/>
<circle cx="6.5" cy="8.5" r="0.5" transform="rotate(-180 6.5 8.5)" fill="#495352"/>
<path d="M15.5333 7.91875C15.5333 7.83875 15.5333 7.78542 15.5333 7.73208C15.5333 6.49208 15.5333 5.23875 15.5333 3.99875C15.5333 3.41208 15.2133 2.94542 14.6667 2.82542C14.44 2.77208 14.3867 2.66542 14.3467 2.47875C14.2933 2.19875 14.2133 1.91875 14.1467 1.63875C14.0267 1.11875 13.6933 0.905418 13.1733 1.03875C10.8267 1.59875 8.48 2.17208 6.13333 2.73208C6.04 2.75875 5.93333 2.75875 5.82667 2.75875C4.64 2.75875 3.45333 2.75875 2.26667 2.75875C1.49333 2.77208 1 3.26542 1 4.03875C1 7.25208 1 10.4654 1 13.6921C1 14.3188 1.32 14.7588 1.89333 14.9188C2.01333 14.9454 2.13333 14.9588 2.25333 14.9588C3.12 14.9588 3.97333 14.9588 4.84 14.9588V14.4921C4 14.4921 3.16 14.4921 2.30667 14.4921C2.16 14.4921 1.98667 14.4654 1.85333 14.4121C1.62667 14.3188 1.50667 14.1054 1.48 13.8521C1.48 13.7988 1.48 13.7588 1.48 13.7054C1.48 10.8254 1.48 7.93208 1.48 5.05208C1.48 5.01208 1.48 4.95875 1.48 4.87875C1.81333 5.13208 2.17333 5.11875 2.52 5.11875C6.42667 5.11875 10.3333 5.11875 14.2267 5.11875C14.3867 5.11875 14.5467 5.14542 14.6933 5.21208C14.92 5.30542 15.0533 5.50542 15.0533 5.74542C15.0667 6.46542 15.0533 7.18542 15.0533 7.93208C14.9867 7.93208 14.9333 7.93208 14.88 7.93208C13.84 7.93208 12.8133 7.93208 11.7733 7.93208C11.4133 7.93208 11.3067 8.03875 11.3067 8.39875C11.3067 9.34542 11.3067 10.2788 11.3067 11.2254C11.3067 11.5988 11.4 11.6921 11.76 11.6921C12.8 11.6921 13.8267 11.6921 14.8667 11.6921C14.92 11.6921 14.9867 11.6921 15.04 11.6921C15.04 11.7454 15.0533 11.7721 15.0533 11.7988C15.0533 12.4521 15.0533 13.1054 15.0533 13.7588C15.0533 14.1988 14.7733 14.4788 14.3333 14.4921C14.2933 14.4921 14.2533 14.4921 14.2133 14.4921C12.2267 14.4921 10.24 14.4921 8.25333 14.4921V14.9588C10.2533 14.9588 12.2667 14.9588 14.2667 14.9588C15.04 14.9588 15.52 14.4654 15.52 13.6921C15.52 13.0788 15.52 12.4654 15.52 11.8654C15.52 11.8121 15.52 11.7588 15.52 11.6788C15.72 11.6921 15.8933 11.6654 15.9867 11.4654C15.9867 10.3588 15.9867 9.26542 15.9867 8.15875C15.9067 7.94542 15.7333 7.90542 15.5333 7.91875ZM13.92 4.63875C10.04 4.63875 6.16 4.63875 2.28 4.63875C2.02667 4.63875 1.8 4.58542 1.62667 4.37208C1.45333 4.15875 1.41333 3.91875 1.52 3.66542C1.61333 3.42542 1.8 3.27875 2.06667 3.23875C2.12 3.22542 2.16 3.22542 2.21333 3.22542C2.8 3.22542 3.37333 3.22542 3.96 3.23875C3.93333 3.25208 3.89333 3.26542 3.86667 3.27875C3.30667 3.41208 2.74667 3.54542 2.18667 3.69208C2.14667 3.70542 2.08 3.70542 2.06667 3.73208C2.01333 3.81208 1.94667 3.89208 1.94667 3.97208C1.94667 4.07875 2.02667 4.14542 2.13333 4.15875C2.18667 4.17208 2.25333 4.15875 2.30667 4.15875C5.88 4.15875 9.45333 4.15875 13.0267 4.15875C13.08 4.15875 13.1467 4.15875 13.2 4.15875C13.3333 4.14542 13.4 4.06542 13.4133 3.93208C13.4133 3.81208 13.3467 3.73208 13.2267 3.70542C13.16 3.69208 13.0933 3.69208 13.0267 3.69208C10.1733 3.69208 7.32 3.69208 4.46667 3.69208C4.41333 3.69208 4.34667 3.69208 4.29333 3.69208C4.29333 3.67875 4.29333 3.66542 4.29333 3.66542C4.57333 3.59875 4.84 3.53208 5.12 3.46542C7.85333 2.81208 10.5733 2.14542 13.3067 1.49208C13.56 1.42542 13.64 1.47875 13.7067 1.73208C13.8533 2.34542 14.0133 2.97208 14.16 3.59875C14.1733 3.62542 14.1733 3.65208 14.1733 3.69208C14.12 3.70542 14.0667 3.70542 14.0533 3.73208C14 3.79875 13.92 3.87875 13.92 3.95875C13.9067 4.06542 13.9867 4.14542 14.1067 4.15875C14.2 4.17208 14.28 4.15875 14.3733 4.17208C14.7733 4.18542 15.0667 4.47875 15.0667 4.87875C14.7067 4.61208 14.3067 4.63875 13.92 4.63875ZM15.0533 3.91875C14.9333 3.86542 14.8267 3.81208 14.72 3.77208C14.6933 3.75875 14.6667 3.74542 14.6533 3.71875C14.6133 3.58542 14.5867 3.43875 14.5467 3.29208C14.8133 3.30542 15.08 3.66542 15.0533 3.91875ZM15.52 11.1988C14.28 11.1988 13.04 11.1988 11.7867 11.1988C11.7867 10.2654 11.7867 9.34542 11.7867 8.39875C13.0267 8.39875 14.2667 8.39875 15.52 8.39875C15.52 9.33208 15.52 10.2521 15.52 11.1988Z" fill="#495352" stroke="#495352" stroke-width="0.3"/>
</svg>
