<svg width="24" height="24" viewBox="0 0 24 24" fill="none" xmlns="http://www.w3.org/2000/svg">
<g clip-path="url(#clip0)">
<path d="M16.7808 21.3609C19.1092 20.0529 19.9361 17.1061 18.6281 14.7776L12.0879 3.13529C11.152 1.46924 9.05157 0.879859 7.38552 1.81578C5.71946 2.75171 5.13008 4.8521 6.06601 6.51816L12.6062 18.1605C13.1587 19.144 14.4441 19.5047 15.4276 18.9522C16.4112 18.3996 16.7719 17.1143 16.2193 16.1307L9.90466 4.8899C9.71297 4.54866 9.30543 4.4343 8.96419 4.626C8.62295 4.81769 8.50859 5.22523 8.70029 5.56647L8.71156 5.58654L15.0262 16.8274C15.2179 17.1686 15.1036 17.5762 14.7623 17.7679C14.4211 17.9596 14.0136 17.8452 13.8219 17.504L7.28166 5.86165C6.71785 4.85801 7.06972 3.60404 8.07337 3.04023C9.07701 2.47642 10.331 2.82829 10.8948 3.83194L17.435 15.4743C18.3822 17.1604 17.8016 19.2294 16.1155 20.1766C14.4294 21.1238 12.3603 20.5432 11.4131 18.8571L5.09843 7.61626C4.90673 7.27502 4.4992 7.16066 4.15796 7.35235C3.81672 7.54405 3.70236 7.95159 3.89405 8.29283L3.90534 8.31292L10.22 19.5538C11.5055 21.8421 14.4523 22.669 16.7808 21.3609Z" fill="#8C9C9A"/>
</g>
<defs>
<clipPath id="clip0">
<rect width="9.66982" height="21.642" fill="white" transform="translate(21 19) rotate(150.674)"/>
</clipPath>
</defs>
</svg>
