<svg width="29" height="26" viewBox="0 0 29 26" fill="none" xmlns="http://www.w3.org/2000/svg">
<path d="M14.2769 1L27.1315 21.9542C27.949 23.2868 26.9901 25 25.4267 25H3.51948C1.96769 25 1.00707 23.3095 1.80127 21.9764L11.6 5.5283" stroke="#495352" stroke-width="2" stroke-linecap="round"/>
<path d="M15.1641 18.5078H13.2891L13.0234 10.625H15.4297L15.1641 18.5078ZM14.2266 19.7422C14.6068 19.7422 14.9115 19.8542 15.1406 20.0781C15.375 20.3021 15.4922 20.5885 15.4922 20.9375C15.4922 21.2812 15.375 21.5651 15.1406 21.7891C14.9115 22.013 14.6068 22.125 14.2266 22.125C13.8516 22.125 13.5469 22.013 13.3125 21.7891C13.0833 21.5651 12.9688 21.2812 12.9688 20.9375C12.9688 20.5938 13.0833 20.3099 13.3125 20.0859C13.5469 19.8568 13.8516 19.7422 14.2266 19.7422Z" fill="#495352"/>
</svg>
