<svg width="29" height="22" viewBox="0 0 29 22" fill="none" xmlns="http://www.w3.org/2000/svg">
<path d="M28.3165 11.7971C27.8352 11.1594 27.1934 10.5217 26.2308 10.2029C26.7121 9.72464 27.1934 9.4058 27.5143 8.76812C27.8352 8.28986 27.9956 7.65217 27.9956 7.01449C27.9956 6.37681 27.8352 5.73913 27.6747 5.26087C27.5143 4.62319 27.1934 4.14493 26.7121 3.82609C26.2308 3.34783 25.7495 3.02899 25.2681 2.86956C24.6264 2.55072 23.9846 2.55072 23.1824 2.55072H23.022V0H21.0967V2.23188H19.011V0H17.2462V2.23188H15V4.62319H23.3429C24.1451 4.62319 24.7868 4.78261 25.1077 5.26087C25.4286 5.73913 25.589 6.21739 25.589 6.85507C25.589 7.49275 25.4286 8.13043 24.9473 8.6087C24.4659 9.08696 23.8242 9.24638 23.022 9.24638H19.1714V7.01449H16.7648V9.4058V17.3768H15V19.7681H17.2462V22H19.1714V19.7681H19.6528H21.2572V22H23.1824V19.7681H23.3429C24.1451 19.7681 24.9473 19.6087 25.589 19.4493C26.2308 19.1304 26.8725 18.8116 27.3539 18.3333C27.8352 17.8551 28.3165 17.3768 28.4769 16.7391C28.7978 16.1014 28.9583 15.3043 28.9583 14.6667C29.1187 13.3913 28.7978 12.5942 28.3165 11.7971ZM25.7495 16.5797C25.2681 17.058 24.4659 17.3768 23.3429 17.3768H19.011V11.6377H23.3429C24.3055 11.6377 25.1077 11.9565 25.7495 12.4348C26.2308 12.913 26.5517 13.5507 26.5517 14.5072C26.7121 15.3043 26.3912 16.1014 25.7495 16.5797Z" fill="#495352"/>
<rect x="6" y="13" width="7" height="2" fill="#495352"/>
<rect x="3" y="13" width="2" height="2" fill="#495352"/>
<rect x="3" y="9" width="7" height="2" fill="#495352"/>
<rect y="9" width="2" height="2" fill="#495352"/>
<rect x="5" y="5" width="8" height="2" fill="#495352"/>
</svg>
