<svg width="22" height="27" viewBox="0 0 22 27" fill="none" xmlns="http://www.w3.org/2000/svg">
<path d="M17.5822 17.1797L15.6022 17.1797L15.6022 19.1863L15.6022 24.1797L17.5822 24.1797L17.5822 19.1863L17.5822 17.1797Z" fill="#495352"/>
<path d="M16.5411 26.8996L17.9411 25.4854L21.4413 21.9499L20.0366 20.531L16.5365 24.0665L13.0409 20.5356L11.6408 21.9499L15.1364 25.4808L16.5411 26.8996Z" fill="#495352"/>
<path d="M13.3166 11.7971C12.8352 11.1595 12.1935 10.5218 11.2308 10.2029C11.7122 9.72467 12.1935 9.40583 12.5144 8.76815C12.8352 8.28989 12.9957 7.6522 12.9957 7.01452C12.9957 6.37684 12.8352 5.73916 12.6748 5.2609C12.5144 4.62322 12.1935 4.14496 11.7122 3.82612C11.2308 3.34786 10.7495 3.02902 10.2682 2.8696C9.62645 2.55075 8.98469 2.55076 8.18249 2.55076H8.02205V3.05176e-05H6.09677V2.23191H4.01106V3.05176e-05H2.24622V2.23191H6.10352e-05V4.62322H8.34293C9.14513 4.62322 9.78689 4.78264 10.1078 5.2609C10.4286 5.73916 10.5891 6.21742 10.5891 6.8551C10.5891 7.49278 10.4286 8.13046 9.94733 8.60873C9.46601 9.08699 8.82425 9.24641 8.02205 9.24641H4.1715V7.01452H1.7649V9.40583V17.3768H6.10352e-05V19.7681H2.24622V22H4.1715V19.7681H4.65282H6.25721V22H8.18249V19.7681H8.34293C9.14513 19.7681 9.94733 19.6087 10.5891 19.4493C11.2308 19.1305 11.8726 18.8116 12.3539 18.3334C12.8352 17.8551 13.3166 17.3768 13.477 16.7392C13.7979 16.1015 13.9583 15.3044 13.9583 14.6667C14.1188 13.3913 13.7979 12.5942 13.3166 11.7971ZM10.7495 16.5797C10.2682 17.058 9.46601 17.3768 8.34293 17.3768H4.01106V11.6377H8.34293C9.30557 11.6377 10.1078 11.9566 10.7495 12.4348C11.2308 12.9131 11.5517 13.5508 11.5517 14.5073C11.7122 15.3044 11.3913 16.1015 10.7495 16.5797Z" fill="#495352"/>
<rect x="17.5803" y="15" width="1.98" height="2" transform="rotate(-180 17.5803 15)" fill="#495352"/>
</svg>
