<svg width="22" height="22" viewBox="0 0 22 22" fill="none" xmlns="http://www.w3.org/2000/svg">
<g clip-path="url(#clip0)">
<path d="M9.97858 0V2.32522H9.9588V4.6703C10.2554 4.63056 10.5718 4.61068 10.9277 4.61068C11.5012 4.61068 12.0153 4.6703 12.4108 4.78955C12.8063 4.90879 13.182 5.08765 13.4589 5.28639C13.7555 5.505 13.9928 5.74348 14.1707 6.00184C14.3487 6.2602 14.5069 6.53843 14.6255 6.83653L16.8403 6.08133C16.5041 5.18702 15.9504 4.41195 15.199 3.73624C14.4476 3.06054 13.4589 2.62332 12.2922 2.40471V0.0198737H9.97858V0Z" fill="#495352"/>
<path d="M12.2922 22V19.6748V17.29C11.9758 17.3496 11.6594 17.3695 11.3232 17.3695C10.117 17.3695 9.10852 17.1508 8.3571 16.6938C7.5859 16.2367 7.05199 15.7001 6.7356 15.084L4.56042 15.8392C4.95591 16.7534 5.60846 17.5483 6.53786 18.2638C7.46725 18.9594 8.61416 19.4164 9.99837 19.6152V22H12.2922Z" fill="#495352"/>
<path d="M13.8939 16.6939C13.8346 16.7337 13.795 16.7536 13.7357 16.7933V19.3968C13.9928 19.3173 14.2499 19.2378 14.4674 19.1185C15.1001 18.8204 15.6538 18.4627 16.0889 18.0255C16.5239 17.5883 16.8601 17.0914 17.0776 16.535C17.2951 15.9785 17.4137 15.4022 17.4137 14.7861C17.4137 14.0309 17.2555 13.375 16.9589 12.8385C16.6425 12.3019 16.2273 11.8448 15.6934 11.4473C15.1595 11.0498 14.5069 10.7319 13.7753 10.4536C13.0436 10.1754 12.2329 9.91704 11.3628 9.67855C10.0181 9.30095 9.02943 8.92335 8.41643 8.56563C7.78365 8.18803 7.48703 7.67132 7.48703 7.03536C7.48703 6.73726 7.54636 6.45902 7.665 6.16092C7.78365 5.88269 7.98139 5.62433 8.25823 5.38585C8.33733 5.32623 8.41643 5.26661 8.5153 5.20699V2.62341C7.68478 2.88177 6.9729 3.25937 6.41922 3.79596C5.54915 4.63065 5.09434 5.68395 5.05479 6.93599C5.03502 7.69119 5.15366 8.32715 5.41073 8.84386C5.6678 9.36057 6.02373 9.81767 6.51809 10.1953C7.01245 10.5729 7.5859 10.8908 8.27801 11.1492C8.97011 11.4274 9.74131 11.6659 10.5916 11.9243C11.3233 12.1429 11.956 12.3416 12.4899 12.5205C13.0238 12.6993 13.4984 12.918 13.8544 13.1366C14.2301 13.3552 14.5069 13.6135 14.6849 13.8719C14.8629 14.1501 14.9617 14.488 14.9617 14.8656C14.9617 15.263 14.8629 15.6009 14.6849 15.9189C14.4871 16.217 14.2301 16.4753 13.8939 16.6939Z" fill="#495352"/>
</g>
<defs>
<clipPath id="clip0">
<rect width="22" height="22" fill="white"/>
</clipPath>
</defs>
</svg>
