<svg width="9" height="17" viewBox="0 0 9 17" fill="none" xmlns="http://www.w3.org/2000/svg">
<path d="M2.25161 16.764V15H0.595609V2.148H2.25161V0.329999H3.40361V2.148H3.54761C3.95561 2.148 4.32761 2.166 4.66361 2.202V0.329999H5.81561V2.382C6.57161 2.574 7.14161 2.91 7.52561 3.39C7.92161 3.858 8.11961 4.506 8.11961 5.334C8.11961 6.09 7.93361 6.72 7.56161 7.224C7.20161 7.716 6.67361 8.034 5.97761 8.178V8.268C6.45761 8.352 6.88361 8.508 7.25561 8.736C7.63961 8.964 7.93961 9.288 8.15561 9.708C8.38361 10.128 8.49761 10.674 8.49761 11.346C8.49761 12.282 8.25761 13.05 7.77761 13.65C7.30961 14.238 6.65561 14.634 5.81561 14.838V16.764H4.66361V15C4.57961 15 4.48961 15 4.39361 15H3.40361V16.764H2.25161ZM3.87161 7.62C4.85561 7.62 5.52761 7.446 5.88761 7.098C6.25961 6.738 6.44561 6.21 6.44561 5.514C6.44561 4.806 6.21761 4.302 5.76161 4.002C5.31761 3.69 4.60361 3.534 3.61961 3.534H2.21561V7.62H3.87161ZM2.21561 8.97V13.632H4.08761C5.08361 13.632 5.77961 13.41 6.17561 12.966C6.57161 12.522 6.76961 11.94 6.76961 11.22C6.76961 10.548 6.56561 10.008 6.15761 9.6C5.74961 9.18 5.01761 8.97 3.96161 8.97H2.21561Z" fill="#495352"/>
</svg>
