<svg width="21" height="28" viewBox="0 0 21 28" fill="none" xmlns="http://www.w3.org/2000/svg">
<path d="M16.9548 17.8823L14.9748 17.8823L14.9748 19.971L14.9748 25.1687L16.9548 25.1687L16.9548 19.971L16.9548 17.8823Z" fill="#30C4AE"/>
<path d="M15.9137 28L17.3137 26.5279L20.8139 22.8477L19.4093 21.3708L15.9091 25.051L12.4135 21.3757L11.0134 22.8477L14.509 26.5231L15.9137 28Z" fill="#30C4AE"/>
<path d="M5.30361 6.10352e-05L5.31632 2.34468H5.29591L5.30873 4.70934C5.61468 4.66926 5.94115 4.64922 6.30855 4.64922C6.90047 4.64922 7.43148 4.70934 7.84036 4.82957C8.24923 4.94981 8.63802 5.13016 8.92486 5.33056C9.23222 5.55099 9.47845 5.79147 9.66357 6.05198C9.84868 6.31249 10.0135 6.59305 10.1376 6.89364L12.4195 6.13214C12.0676 5.23036 11.4919 4.44882 10.7126 3.76748C9.93324 3.08614 8.9103 2.64527 7.70485 2.42484L7.69182 0.0201006H5.30372L5.30361 6.10352e-05Z" fill="#30C4AE"/>
<path d="M7.81261 22.1836L7.79949 19.839L7.78603 17.4343C7.45979 17.4944 7.13333 17.5144 6.78634 17.5144C5.54126 17.5144 4.8939 17.5144 4.0828 17.1751C3.31399 16.8534 3.0928 16.6546 3.0928 16.6546H0.122803C0.617796 17.1751 0.888548 17.6948 1.85191 18.4162C2.81515 19.1176 4.00157 19.5785 5.43147 19.7789L5.44492 22.1836H7.81261Z" fill="#30C4AE"/>
<path d="M9.43735 16.8335C9.37634 16.8736 9.33563 16.8936 9.27462 16.9337L9.28916 19.5588C9.55406 19.4787 9.81896 19.3985 10.0428 19.2783C10.6943 18.9777 11.2638 18.617 11.7104 18.1761C12.157 17.7353 12.5012 17.2343 12.7226 16.6732C12.9441 16.1121 13.0633 15.5309 13.0599 14.9097C13.0556 14.1482 12.8887 13.4869 12.5795 12.9458C12.25 12.4048 11.8188 11.9438 11.2654 11.5431C10.7121 11.1423 10.0368 10.8216 9.28002 10.5411C8.52326 10.2605 7.68496 10 6.78554 9.75955C5.39548 9.3788 4.37282 8.99805 3.73807 8.63734C3.08281 8.25659 2.77376 7.73556 2.7702 7.0943C2.76854 6.79371 2.82822 6.51315 2.94902 6.21256C3.06993 5.93201 3.2726 5.6715 3.55702 5.43102C3.63833 5.37091 3.71964 5.31079 3.82136 5.25067L3.80693 2.64554C2.95111 2.90605 2.21842 3.2868 1.64991 3.82787C0.756486 4.66952 0.292916 5.73162 0.259089 6.9941C0.242898 7.7556 0.368917 8.39686 0.637148 8.91789C0.905379 9.43892 1.27533 9.89983 1.78772 10.2806C2.3001 10.6613 2.8938 10.982 3.60963 11.2425C4.32557 11.523 5.12294 11.7635 6.00206 12.024C6.75849 12.2444 7.41275 12.4448 7.96485 12.6252C8.51695 12.8055 9.00803 13.026 9.37666 13.2464C9.76569 13.4668 10.0529 13.7274 10.238 13.9879C10.4233 14.2684 10.5272 14.6091 10.5293 14.9898C10.5316 15.3906 10.4314 15.7313 10.2495 16.0519C10.047 16.3525 9.78312 16.613 9.43735 16.8335Z" fill="#30C4AE"/>
<rect x="16.9531" y="15.6136" width="1.98" height="2.08182" transform="rotate(-180 16.9531 15.6136)" fill="#30C4AE"/>
<path d="M2.10278 15.6136L0.122783 15.6136L0.122783 13.5318L2.10278 13.5318L2.10278 15.6136Z" fill="#30C4AE"/>
</svg>
