<svg width="11" height="16" viewBox="0 0 11 16" fill="none" xmlns="http://www.w3.org/2000/svg">
<path d="M9.68473 8.57971C9.33468 8.11594 8.86795 7.65217 8.16785 7.42029C8.5179 7.07246 8.86795 6.84058 9.10131 6.37681C9.33468 6.02899 9.45136 5.56522 9.45136 5.10145C9.45136 4.63768 9.33468 4.17391 9.218 3.82609C9.10131 3.36232 8.86795 3.01449 8.5179 2.78261C8.16785 2.43478 7.81779 2.2029 7.46774 2.08696C7.00101 1.85507 6.53428 1.85507 5.95086 1.85507H5.83418V0H4.43397V1.62319H2.91709V0H1.63357V1.62319H0V3.36232H6.06754C6.65096 3.36232 7.11769 3.47826 7.35106 3.82609C7.58443 4.17391 7.70111 4.52174 7.70111 4.98551C7.70111 5.44928 7.58443 5.91304 7.23438 6.26087C6.88433 6.6087 6.41759 6.72464 5.83418 6.72464H3.03377V5.10145H1.28352V6.84058V12.6377H0V14.3768H1.63357V16H3.03377V14.3768H3.38382H4.55066V16H5.95086V14.3768H6.06754C6.65096 14.3768 7.23438 14.2609 7.70111 14.1449C8.16784 13.913 8.63458 13.6812 8.98463 13.3333C9.33468 12.9855 9.68473 12.6377 9.80142 12.1739C10.0348 11.7101 10.1515 11.1304 10.1515 10.6667C10.2681 9.73913 10.0348 9.15942 9.68473 8.57971ZM7.81779 12.058C7.46774 12.4058 6.88433 12.6377 6.06754 12.6377H2.91709V8.46377H6.06754C6.76764 8.46377 7.35106 8.69565 7.81779 9.04348C8.16785 9.3913 8.40121 9.85507 8.40121 10.5507C8.5179 11.1304 8.28453 11.7101 7.81779 12.058Z" fill="#067362"/>
</svg>
