<svg width="21" height="28" viewBox="0 0 21 28" fill="none" xmlns="http://www.w3.org/2000/svg">
<path d="M16.9548 17.8823L14.9748 17.8823L14.9748 19.9709L14.9748 25.1686L16.9548 25.1686L16.9548 19.9709L16.9548 17.8823Z" fill="#30C4AE"/>
<path d="M15.9137 28L17.3137 26.5279L20.8139 22.8477L19.4093 21.3708L15.9091 25.051L12.4135 21.3757L11.0134 22.8477L14.509 26.5231L15.9137 28Z" fill="#30C4AE"/>
<rect x="16.9531" y="15.6136" width="1.98" height="2.08182" transform="rotate(-180 16.9531 15.6136)" fill="#30C4AE"/>
<path d="M13.3165 11.7971C12.8352 11.1594 12.1934 10.5217 11.2308 10.2029C11.7121 9.72464 12.1934 9.4058 12.5143 8.76812C12.8352 8.28986 12.9956 7.65217 12.9956 7.01449C12.9956 6.37681 12.8352 5.73913 12.6747 5.26087C12.5143 4.62319 12.1934 4.14493 11.7121 3.82609C11.2308 3.34783 10.7495 3.02899 10.2681 2.86956C9.62639 2.55072 8.98463 2.55072 8.18243 2.55072H8.02199V0H6.09671V2.23188H4.011V0H2.24616V2.23188H0V4.62319H8.34287C9.14507 4.62319 9.78683 4.78261 10.1077 5.26087C10.4286 5.73913 10.589 6.21739 10.589 6.85507C10.589 7.49275 10.4286 8.13043 9.94727 8.6087C9.46595 9.08696 8.82419 9.24638 8.02199 9.24638H4.17143V7.01449H1.76484V9.4058V17.3768H0V19.7681H2.24616V22H4.17143V19.7681H4.65275H6.25715V22H8.18243V19.7681H8.34287C9.14507 19.7681 9.94727 19.6087 10.589 19.4493C11.2308 19.1304 11.8725 18.8116 12.3539 18.3333C12.8352 17.8551 13.3165 17.3768 13.4769 16.7391C13.7978 16.1014 13.9583 15.3043 13.9583 14.6667C14.1187 13.3913 13.7978 12.5942 13.3165 11.7971ZM10.7495 16.5797C10.2681 17.058 9.46595 17.3768 8.34287 17.3768H4.011V11.6377H8.34287C9.30551 11.6377 10.1077 11.9565 10.7495 12.4348C11.2308 12.913 11.5517 13.5507 11.5517 14.5072C11.7121 15.3043 11.3912 16.1014 10.7495 16.5797Z" fill="#30C4AE"/>
</svg>
