<svg width="26" height="22" viewBox="0 0 26 22" fill="none" xmlns="http://www.w3.org/2000/svg">
<path d="M7.40745 18.7669H9.2593V13.42H13.8889V11.3486H9.2593V6.19391L7.40745 6.19391V11.3486H2.77783L2.77783 13.42H7.40745V18.7669Z" fill="#30C4AE"/>
<path d="M25.3165 11.7971C24.8352 11.1594 24.1934 10.5217 23.2308 10.2029C23.7121 9.72464 24.1934 9.4058 24.5143 8.76812C24.8352 8.28986 24.9956 7.65217 24.9956 7.01449C24.9956 6.37681 24.8352 5.73913 24.6747 5.26087C24.5143 4.62319 24.1934 4.14493 23.7121 3.82609C23.2308 3.34783 22.7495 3.02899 22.2681 2.86956C21.6264 2.55072 20.9846 2.55072 20.1824 2.55072H20.022V0H18.0967V2.23188H16.011V0H14.2462V2.23188H12V4.62319H20.3429C21.1451 4.62319 21.7868 4.78261 22.1077 5.26087C22.4286 5.73913 22.589 6.21739 22.589 6.85507C22.589 7.49275 22.4286 8.13043 21.9473 8.6087C21.4659 9.08696 20.8242 9.24638 20.022 9.24638H16.1714V7.01449H13.7648V9.4058V17.3768H12V19.7681H14.2462V22H16.1714V19.7681H16.6528H18.2572V22H20.1824V19.7681H20.3429C21.1451 19.7681 21.9473 19.6087 22.589 19.4493C23.2308 19.1304 23.8725 18.8116 24.3539 18.3333C24.8352 17.8551 25.3165 17.3768 25.4769 16.7391C25.7978 16.1014 25.9583 15.3043 25.9583 14.6667C26.1187 13.3913 25.7978 12.5942 25.3165 11.7971ZM22.7495 16.5797C22.2681 17.058 21.4659 17.3768 20.3429 17.3768H16.011V11.6377H20.3429C21.3055 11.6377 22.1077 11.9565 22.7495 12.4348C23.2308 12.913 23.5517 13.5507 23.5517 14.5072C23.7121 15.3043 23.3912 16.1014 22.7495 16.5797Z" fill="#30C4AE"/>
</svg>
