<svg width="27" height="22" viewBox="0 0 27 22" fill="none" xmlns="http://www.w3.org/2000/svg">
<rect x="5.56836" y="13.3263" width="6.49634" height="2.05017" fill="#30C4AE"/>
<rect x="2.78418" y="13.3263" width="1.8561" height="2.05017" fill="#30C4AE"/>
<rect x="2.78418" y="9.22595" width="6.49634" height="2.05017" fill="#30C4AE"/>
<rect y="9.22595" width="1.8561" height="2.05017" fill="#30C4AE"/>
<rect x="4.64014" y="5.12537" width="7.42438" height="2.05017" fill="#30C4AE"/>
<path d="M26.3165 11.7971C25.8352 11.1594 25.1934 10.5217 24.2308 10.2029C24.7121 9.72464 25.1934 9.4058 25.5143 8.76812C25.8352 8.28986 25.9956 7.65217 25.9956 7.01449C25.9956 6.37681 25.8352 5.73913 25.6747 5.26087C25.5143 4.62319 25.1934 4.14493 24.7121 3.82609C24.2308 3.34783 23.7495 3.02899 23.2681 2.86956C22.6264 2.55072 21.9846 2.55072 21.1824 2.55072H21.022V0H19.0967V2.23188H17.011V0H15.2462V2.23188H13V4.62319H21.3429C22.1451 4.62319 22.7868 4.78261 23.1077 5.26087C23.4286 5.73913 23.589 6.21739 23.589 6.85507C23.589 7.49275 23.4286 8.13043 22.9473 8.6087C22.4659 9.08696 21.8242 9.24638 21.022 9.24638H17.1714V7.01449H14.7648V9.4058V17.3768H13V19.7681H15.2462V22H17.1714V19.7681H17.6528H19.2572V22H21.1824V19.7681H21.3429C22.1451 19.7681 22.9473 19.6087 23.589 19.4493C24.2308 19.1304 24.8725 18.8116 25.3539 18.3333C25.8352 17.8551 26.3165 17.3768 26.4769 16.7391C26.7978 16.1014 26.9583 15.3043 26.9583 14.6667C27.1187 13.3913 26.7978 12.5942 26.3165 11.7971ZM23.7495 16.5797C23.2681 17.058 22.4659 17.3768 21.3429 17.3768H17.011V11.6377H21.3429C22.3055 11.6377 23.1077 11.9565 23.7495 12.4348C24.2308 12.913 24.5517 13.5507 24.5517 14.5072C24.7121 15.3043 24.3912 16.1014 23.7495 16.5797Z" fill="#30C4AE"/>
</svg>
