<svg width="15" height="21" viewBox="0 0 15 21" fill="none" xmlns="http://www.w3.org/2000/svg">
<path d="M1 8.15493L1.00001 18C1.00001 19.1046 1.80761 20 2.80384 20H12.1962C13.1924 20 14 19.1046 14 18V3C14 1.89543 13.1924 1 12.1962 1H1.22414" stroke="#30C4AE" stroke-linecap="round"/>
<path d="M4.55176 12.4828C4.55176 13.035 4.10404 13.4828 3.55176 13.4828C2.99947 13.4828 2.55176 13.035 2.55176 12.4828C2.55176 11.9305 2.99947 11.4828 3.55176 11.4828C4.10404 11.4828 4.55176 11.9305 4.55176 12.4828Z" fill="#30C4AE"/>
<path d="M4.55184 8.55176C4.55184 9.10405 4.10412 9.55176 3.55184 9.55176C2.99955 9.55176 2.55184 9.10405 2.55184 8.55176C2.55184 7.99948 2.99955 7.55176 3.55184 7.55176C4.10412 7.55176 4.55184 7.99948 4.55184 8.55176Z" fill="#30C4AE"/>
<path d="M4.55176 16.4138C4.55176 16.9661 4.10404 17.4138 3.55176 17.4138C2.99947 17.4138 2.55176 16.9661 2.55176 16.4138C2.55176 15.8616 2.99947 15.4138 3.55176 15.4138C4.10404 15.4138 4.55176 15.8616 4.55176 16.4138Z" fill="#30C4AE"/>
<path d="M8.48275 12.4828C8.48275 13.035 8.03504 13.4828 7.48275 13.4828C6.93047 13.4828 6.48275 13.035 6.48275 12.4828C6.48275 11.9305 6.93047 11.4828 7.48275 11.4828C8.03504 11.4828 8.48275 11.9305 8.48275 12.4828Z" fill="#30C4AE"/>
<path d="M8.48275 8.55176C8.48275 9.10404 8.03504 9.55176 7.48275 9.55176C6.93047 9.55176 6.48275 9.10404 6.48275 8.55176C6.48275 7.99947 6.93047 7.55176 7.48275 7.55176C8.03504 7.55176 8.48275 7.99947 8.48275 8.55176Z" fill="#30C4AE"/>
<path d="M8.48275 16.4138C8.48275 16.9661 8.03504 17.4138 7.48275 17.4138C6.93047 17.4138 6.48275 16.9661 6.48275 16.4138C6.48275 15.8616 6.93047 15.4138 7.48275 15.4138C8.03504 15.4138 8.48275 15.8616 8.48275 16.4138Z" fill="#30C4AE"/>
<path d="M12.4139 12.4828C12.4139 13.035 11.9662 13.4828 11.4139 13.4828C10.8617 13.4828 10.4139 13.035 10.4139 12.4828C10.4139 11.9305 10.8617 11.4828 11.4139 11.4828C11.9662 11.4828 12.4139 11.9305 12.4139 12.4828Z" fill="#30C4AE"/>
<path d="M12.4139 8.55176C12.4139 9.10404 11.9662 9.55176 11.4139 9.55176C10.8617 9.55176 10.4139 9.10404 10.4139 8.55176C10.4139 7.99947 10.8617 7.55176 11.4139 7.55176C11.9662 7.55176 12.4139 7.99947 12.4139 8.55176Z" fill="#30C4AE"/>
<path d="M12.4139 16.4138C12.4139 16.9661 11.9662 17.4138 11.4139 17.4138C10.8617 17.4138 10.4139 16.9661 10.4139 16.4138C10.4139 15.8616 10.8617 15.4138 11.4139 15.4138C11.9662 15.4138 12.4139 15.8616 12.4139 16.4138Z" fill="#30C4AE"/>
</svg>
