<svg width="17" height="16" viewBox="0 0 17 16" fill="none" xmlns="http://www.w3.org/2000/svg">
<path d="M4.82891 1.00043C4.77653 1.00284 4.72514 1.0154 4.67768 1.03738C4.63022 1.05936 4.58762 1.09034 4.55231 1.12855C4.517 1.16676 4.48968 1.21145 4.4719 1.26007C4.45412 1.30868 4.44623 1.36028 4.44869 1.4119C4.45114 1.46352 4.46389 1.51416 4.48621 1.56092C4.50853 1.60769 4.53997 1.64966 4.57875 1.68445C4.61753 1.71923 4.66289 1.74615 4.71223 1.76366C4.76156 1.78118 4.81392 1.78894 4.8663 1.78651H15.0777C15.1557 1.78651 15.2023 1.83517 15.2023 1.90319V12.2204C15.2023 12.2885 15.1557 12.3433 15.0777 12.3433H13.3577C13.2519 12.3433 13.1505 12.3847 13.0757 12.4584C13.0009 12.5321 12.9589 12.6321 12.9589 12.7363V13.9891L11.1766 12.4415C11.1043 12.3787 11.0113 12.3438 10.9148 12.3433H1.92858C1.85053 12.3433 1.79771 12.2885 1.79771 12.2204V4.14778C1.79846 4.0957 1.78869 4.04399 1.76899 3.99566C1.74928 3.94733 1.72002 3.90334 1.68291 3.86625C1.6458 3.82916 1.60158 3.79971 1.55282 3.7796C1.50406 3.7595 1.45173 3.74915 1.39888 3.74915C1.34602 3.74915 1.29369 3.7595 1.24493 3.7796C1.19617 3.79971 1.15195 3.82916 1.11484 3.86625C1.07773 3.90334 1.04847 3.94733 1.02876 3.99566C1.00906 4.04399 0.999293 4.0957 1.00004 4.14778V12.2204C1.00004 12.7178 1.42689 13.1293 1.92858 13.1293H10.7653L13.096 15.1498C13.1536 15.1992 13.2244 15.2312 13.3 15.2421C13.3755 15.253 13.4527 15.2423 13.5222 15.2112C13.5918 15.1802 13.6508 15.1301 13.6924 15.067C13.7339 15.0038 13.7562 14.9303 13.7565 14.855V13.1293H15.0777C15.5794 13.1293 16 12.7178 16 12.2204V1.90319C16 1.40588 15.5794 1.00043 15.0777 1.00043H4.8663C4.85384 0.999856 4.84137 0.999856 4.82891 1.00043ZM4.85753 4.7343C4.80515 4.7367 4.75376 4.74926 4.7063 4.77124C4.65884 4.79323 4.61624 4.82421 4.58093 4.86242C4.54562 4.90062 4.5183 4.94531 4.50052 4.99393C4.48274 5.04255 4.47485 5.09414 4.47731 5.14576C4.47976 5.19738 4.49251 5.24802 4.51483 5.29479C4.53715 5.34155 4.56859 5.38352 4.60737 5.41831C4.64615 5.4531 4.69151 5.48002 4.74085 5.49753C4.79018 5.51504 4.84254 5.5228 4.89492 5.52037H12.1487C12.2016 5.52111 12.2541 5.51149 12.3031 5.49206C12.3522 5.47264 12.3968 5.44381 12.4344 5.40724C12.4721 5.37067 12.502 5.32709 12.5224 5.27904C12.5428 5.23099 12.5533 5.17942 12.5533 5.12733C12.5533 5.07525 12.5428 5.02368 12.5224 4.97563C12.502 4.92758 12.4721 4.884 12.4344 4.84743C12.3968 4.81086 12.3522 4.78202 12.3031 4.7626C12.2541 4.74318 12.2016 4.73356 12.1487 4.7343H4.89492C4.88246 4.73372 4.86999 4.73372 4.85753 4.7343ZM4.85753 6.79775C4.80515 6.80015 4.75376 6.81271 4.7063 6.83469C4.65884 6.85668 4.61624 6.88766 4.58093 6.92587C4.54562 6.96407 4.5183 7.00876 4.50052 7.05738C4.48274 7.106 4.47485 7.15759 4.47731 7.20921C4.47976 7.26083 4.49251 7.31147 4.51483 7.35824C4.53715 7.405 4.56859 7.44697 4.60737 7.48176C4.64615 7.51655 4.69151 7.54347 4.74085 7.56098C4.79018 7.57849 4.84254 7.58625 4.89492 7.58382H12.1487C12.2016 7.58456 12.2541 7.57494 12.3031 7.55552C12.3522 7.53609 12.3968 7.50726 12.4344 7.47069C12.4721 7.43412 12.502 7.39054 12.5224 7.34249C12.5428 7.29444 12.5533 7.24287 12.5533 7.19078C12.5533 7.1387 12.5428 7.08713 12.5224 7.03908C12.502 6.99103 12.4721 6.94745 12.4344 6.91088C12.3968 6.87431 12.3522 6.84547 12.3031 6.82605C12.2541 6.80663 12.2016 6.79701 12.1487 6.79775H4.89492C4.88246 6.79717 4.86999 6.79717 4.85753 6.79775ZM4.85753 8.8612C4.80515 8.86361 4.75376 8.87616 4.7063 8.89814C4.65884 8.92013 4.61624 8.95111 4.58093 8.98932C4.54562 9.02753 4.5183 9.07222 4.50052 9.12083C4.48274 9.16945 4.47485 9.22104 4.47731 9.27266C4.47976 9.32428 4.49251 9.37492 4.51483 9.42169C4.53715 9.46845 4.56859 9.51043 4.60737 9.54521C4.64615 9.58 4.69151 9.60692 4.74085 9.62443C4.79018 9.64194 4.84254 9.6497 4.89492 9.64727H12.1487C12.2016 9.64801 12.2541 9.63839 12.3031 9.61897C12.3522 9.59954 12.3968 9.57071 12.4344 9.53414C12.4721 9.49757 12.502 9.45399 12.5224 9.40594C12.5428 9.35789 12.5533 9.30632 12.5533 9.25423C12.5533 9.20215 12.5428 9.15058 12.5224 9.10253C12.502 9.05448 12.4721 9.0109 12.4344 8.97433C12.3968 8.93776 12.3522 8.90892 12.3031 8.8895C12.2541 8.87008 12.2016 8.86046 12.1487 8.8612H4.89492C4.88246 8.86062 4.86999 8.86062 4.85753 8.8612Z" fill="#495352" stroke="#495352" stroke-width="0.3"/>
</svg>
