<svg width="31" height="30" viewBox="0 0 31 30" fill="none" xmlns="http://www.w3.org/2000/svg">
<path d="M7.17875 13.0688C6.62263 12.6671 5.88112 12.7598 5.44858 13.3159C5.01603 13.8721 5.13962 14.6136 5.69575 15.0461L15.6751 22.5229L30.6597 5.77732C31.1231 5.28299 31.0613 4.51059 30.567 4.04715C30.0727 3.58371 29.3003 3.6455 28.8368 4.13983L15.3662 19.1862L7.17875 13.0688Z" fill="#4C5251"/>
<path d="M29.1452 11.463C29.7322 13.5949 29.794 15.7885 29.3306 17.9821C28.9598 19.7123 28.311 21.3188 27.3532 22.771C27.2605 22.7401 27.1987 22.7092 27.1061 22.6783C26.1483 22.462 25.1905 23.1108 24.9742 24.0686C24.8815 24.4393 24.9433 24.8101 25.0669 25.15C21.8228 28.0542 17.3738 29.29 13.0175 28.394C5.63334 26.8492 0.875359 19.5578 2.42016 12.1736C3.00718 9.3621 4.4284 6.82863 6.52932 4.94398C6.6838 5.00577 6.80739 5.06756 6.96187 5.09846C8.13591 5.34562 9.27907 4.57323 9.52623 3.43007C9.58803 3.15201 9.58803 2.84305 9.52623 2.56499C12.3069 1.23646 15.4583 0.834811 18.4861 1.45273C20.5561 1.88527 22.4408 2.75036 24.0782 4.0171L24.758 3.12111C22.966 1.76169 20.9269 0.803915 18.7023 0.340475C15.4892 -0.370132 12.0597 0.0624115 9.06279 1.51452C8.75383 1.17467 8.35219 0.927499 7.88875 0.803915C6.7147 0.556747 5.57155 1.29825 5.32438 2.50319C5.2008 3.12111 5.35528 3.70814 5.66424 4.20247C3.47062 6.24161 1.95672 8.92956 1.3079 11.9265C-0.36048 19.9285 4.76825 27.8379 12.8012 29.5063C17.4974 30.495 22.3172 29.1664 25.8084 25.9841C25.9629 26.0768 26.1483 26.1386 26.3337 26.2004C27.2914 26.4167 28.2492 25.7679 28.4655 24.8101C28.5582 24.3467 28.4655 23.8832 28.2183 23.4816C29.2997 21.875 30.0412 20.1139 30.4428 18.1984C30.9372 15.8503 30.8754 13.4713 30.2265 11.1541L29.1452 11.463ZM6.40574 2.71947C6.52932 2.16334 7.08545 1.79259 7.64158 1.91617C8.19771 2.03975 8.56846 2.56499 8.44487 3.15201C8.41398 3.27559 8.38308 3.36828 8.32129 3.46097C8.2904 3.49187 8.2595 3.55366 8.2286 3.58455C8.10502 3.73903 7.91964 3.86262 7.73427 3.92441C7.57979 3.9862 7.39441 3.9862 7.20904 3.95531C6.90008 3.89351 6.65291 3.70814 6.49843 3.43007C6.40574 3.2138 6.37484 2.96663 6.40574 2.71947ZM27.1369 24.9337C27.0134 25.0264 26.8898 25.0882 26.7353 25.0882C26.6735 25.0882 26.6426 25.0882 26.5808 25.0882C26.3028 25.0264 26.0865 24.7792 26.0556 24.5011C26.0556 24.4702 26.0556 24.4702 26.0556 24.4393C26.0556 24.4084 26.0556 24.3776 26.0556 24.3158C26.0865 24.1304 26.2101 23.9759 26.3645 23.8832C26.4263 23.8214 26.4881 23.8214 26.5808 23.7905C26.6735 23.7905 26.7662 23.7905 26.828 23.7905C27.1678 23.8523 27.415 24.2231 27.3223 24.5629C27.3223 24.6247 27.2914 24.6865 27.2296 24.7483C27.2296 24.841 27.1678 24.8719 27.1369 24.9337Z" fill="#4C5251"/>
</svg>
