<svg width="19" height="19" viewBox="0 0 19 19" fill="none" xmlns="http://www.w3.org/2000/svg">
<path d="M6.85628 8.42906C6.54854 8.12131 6.02098 8.12131 5.71323 8.42906C5.40549 8.7368 5.40549 9.26437 5.71323 9.57211L7.66961 11.5285C7.82348 11.6824 8.0433 11.7703 8.24114 11.7703C8.43897 11.7703 8.65879 11.6824 8.81266 11.5285L12.5496 7.79159C12.8573 7.48384 12.8573 6.95628 12.5496 6.64853C12.2418 6.34079 11.7143 6.34079 11.4065 6.64853L8.21916 9.81391L6.85628 8.42906Z" fill="#087464"/>
<path fill-rule="evenodd" clip-rule="evenodd" d="M9.09412 1.49084C4.89495 1.49084 1.49084 4.89495 1.49084 9.09412C1.49084 13.2933 4.89495 16.6974 9.09412 16.6974C13.2933 16.6974 16.6974 13.2933 16.6974 9.09412C16.6974 7.97978 16.4582 6.92333 16.0289 5.97167C15.8597 5.59639 16.0267 5.15495 16.402 4.98569C16.7772 4.81643 17.2187 4.98344 17.3879 5.35872C17.9023 6.49923 18.1882 7.76429 18.1882 9.09412C18.1882 14.1167 14.1167 18.1882 9.09412 18.1882C4.07158 18.1882 0 14.1167 0 9.09412C0 4.07158 4.07158 0 9.09412 0C10.8074 0 12.4121 0.474481 13.7815 1.29962C14.1341 1.51209 14.2477 1.97019 14.0353 2.32281C13.8228 2.67542 13.3647 2.78904 13.0121 2.57656C11.8684 1.88744 10.5287 1.49084 9.09412 1.49084Z" fill="#087464"/>
<circle cx="15.3559" cy="3.42893" r="0.894504" fill="#087464"/>
</svg>
