<svg width="80" height="80" viewBox="0 0 80 80" fill="none" xmlns="http://www.w3.org/2000/svg">
<g clip-path="url(#clip0)">
<path d="M55.1998 30.05C55.1998 29.5 54.7498 29 54.1498 29H51.2998V25.65C51.2998 6.99997 22.1998 6.99997 22.1998 25.65V29H19.3498C18.7998 29 18.2998 29.45 18.2998 30.05C18.2998 39.2 18.2998 48.4 18.2998 57.55C18.2998 61 21.1498 63.85 24.5998 63.85H38.4998C41.1498 66.65 44.8498 69.2 49.8498 72.1C64.4998 63.65 67.6498 58.05 67.6498 41.2C62.9498 41.2 58.9498 40.2 55.1998 38.15V30.05ZM24.2998 25.7C24.2998 9.74998 49.2998 9.74998 49.2998 25.7V29.05H46.1998V25.7C46.1998 13.85 27.3998 13.85 27.3998 25.7V29.05H24.2998V25.7ZM44.1498 25.7V29.05H29.4998V25.7C29.4998 16.55 44.1498 16.55 44.1498 25.7ZM20.4498 37.7H25.9998V40.1H20.4498V37.7ZM20.4498 42.15H25.9998V44.55H20.4498V42.15ZM20.4498 46.6H25.9998V49H20.4498V46.6ZM20.4498 51.05H25.9998V53.45H20.4498V51.05ZM24.6998 61.8C22.3498 61.8 20.4498 59.9 20.4498 57.55V55.5H26.9998C27.5498 55.5 28.0498 55.05 28.0498 54.45C28.0498 48.5 28.0498 42.55 28.0498 36.65C28.0498 36.1 27.5998 35.6 26.9998 35.6H20.4498V31.05C31.3498 31.05 42.2498 31.05 53.1498 31.05V36.9C52.0498 36.15 50.9498 35.35 49.8498 34.4C44.4998 39 39.0498 41.25 32.0498 41.25C32.0498 50.9 33.0998 56.9 36.7498 61.85H24.6998V61.8ZM65.1998 43.7C65.0498 57.2 61.5998 62.4 49.8498 69.3C38.0998 62.4 34.6498 57.2 34.4998 43.7C41.6998 43.25 47.7498 39.25 49.8498 37.7C51.9498 39.25 57.9998 43.25 65.1998 43.7Z" fill="#067362"/>
<path d="M59.5 71.9501L60.85 73.8501C61.7 73.3501 62.5 72.8001 63.3 72.2501L61.8 70.4501C61.05 70.9501 60.25 71.4501 59.5 71.9501Z" fill="#067362"/>
<path d="M65.5497 70.5C66.2997 69.9 67.0497 69.25 67.7497 68.6L65.9997 67C65.3497 67.6 64.6497 68.2 63.9497 68.8L65.5497 70.5Z" fill="#067362"/>
<path d="M73.3498 62.1001C73.8998 61.3501 74.3998 60.5001 74.8998 59.7001L72.7498 58.6001C72.2998 59.3501 71.7998 60.1001 71.2998 60.8501L73.3498 62.1001Z" fill="#067362"/>
<path d="M49.2998 76.35L49.9998 78.5C50.9498 78.25 51.8998 77.95 52.7998 77.6L51.9998 75.5C51.0998 75.8 50.1998 76.1 49.2998 76.35Z" fill="#067362"/>
<path d="M77.1997 35.85L79.5997 35.55C79.4497 34.65 79.2997 33.7 79.0997 32.8L76.6997 33.25C76.8997 34.1 77.0497 35 77.1997 35.85Z" fill="#067362"/>
<path d="M78.2997 52.0501C78.5997 51.1501 78.7997 50.2501 79.0497 49.3501L76.6497 48.8501C76.4497 49.7001 76.1997 50.5501 75.9497 51.4001L78.2997 52.0501Z" fill="#067362"/>
<path d="M77.5497 40.1501C77.5497 40.4501 77.5497 40.75 77.5497 41.1H79.9997C79.9997 40.8 79.9997 40.4501 79.9997 40.1501C79.9997 39.5501 79.9497 38.9 79.8997 38.3L77.4497 38.4501C77.4997 39.0001 77.5497 39.5501 77.5497 40.1501Z" fill="#067362"/>
<path d="M76.1997 57.2001C76.5997 56.3501 76.9997 55.5001 77.3497 54.6501L75.0497 53.8501C74.7497 54.6501 74.3497 55.4501 73.9497 56.2501L76.1997 57.2001Z" fill="#067362"/>
<path d="M69.7499 66.5501C70.3999 65.8501 71.0499 65.1001 71.5999 64.4001L69.6499 63.05C69.0999 63.75 68.4999 64.45 67.8999 65.1001L69.7499 66.5501Z" fill="#067362"/>
<path d="M79.5496 46.6001C79.6996 45.7001 79.7996 44.7501 79.8496 43.8501L77.3996 43.7001C77.3496 44.5501 77.2496 45.4501 77.0996 46.3001L79.5496 46.6001Z" fill="#067362"/>
<path d="M55.5998 76.55C56.4998 76.15 57.3998 75.75 58.2498 75.3L57.0498 73.3C56.2498 73.7 55.3998 74.1 54.5498 74.5L55.5998 76.55Z" fill="#067362"/>
<path d="M18.0002 9.80012L16.5002 8.00012C15.7002 8.55012 14.9502 9.15012 14.2002 9.80012L15.8002 11.5001C16.5002 10.9001 17.2502 10.3501 18.0002 9.80012Z" fill="#067362"/>
<path d="M12.0498 11.7001C11.3498 12.3501 10.6998 13.0501 10.0498 13.7501L11.8998 15.2001C12.4998 14.5501 13.1498 13.9001 13.7998 13.2501L12.0498 11.7001Z" fill="#067362"/>
<path d="M5.0002 20.7001C4.5502 21.5001 4.1002 22.3501 3.7002 23.2001L5.9502 24.1001C6.3502 23.3001 6.7502 22.5001 7.2002 21.7501L5.0002 20.7001Z" fill="#067362"/>
<path d="M27.7501 4.60012L26.8501 2.50012C25.9501 2.85012 25.0001 3.20012 24.1001 3.60012L25.1501 5.65012C26.0001 5.30012 26.9001 4.95012 27.7501 4.60012Z" fill="#067362"/>
<path d="M0.899902 31.1001C0.699902 32.0001 0.549902 32.9501 0.399902 33.8501L2.7999 34.1501C2.8999 33.3001 3.0999 32.4001 3.2999 31.5501L0.899902 31.1001Z" fill="#067362"/>
<path d="M2.6499 42.9001C2.5999 42.6001 2.5999 42.3001 2.5499 42.0001L0.149902 42.2001C0.149902 42.5001 0.199902 42.8501 0.249902 43.1501C0.299902 43.7501 0.399902 44.3501 0.499902 44.9501L2.8999 44.6001C2.7499 44.0001 2.6999 43.4501 2.6499 42.9001Z" fill="#067362"/>
<path d="M2.5499 25.7501C2.1999 26.6001 1.8999 27.5001 1.6499 28.4001L3.9499 29.0001C4.1999 28.1501 4.4999 27.3501 4.7999 26.5001L2.5499 25.7501Z" fill="#067362"/>
<path d="M8.2 15.9501C7.6 16.7001 7.05 17.4501 6.5 18.2501L8.55 19.4501C9.05 18.7001 9.6 18.0001 10.15 17.3001L8.2 15.9501Z" fill="#067362"/>
<path d="M0.1 36.6001C0.05 37.5001 0 38.4501 0 39.4001H2.45C2.45 38.5501 2.45 37.6501 2.55 36.8001L0.1 36.6001Z" fill="#067362"/>
<path d="M33.1002 3.0501L32.5502 0.850098C31.6002 1.0501 30.6002 1.3001 29.7002 1.6001L30.4002 3.7501C31.3002 3.5001 32.2002 3.2501 33.1002 3.0501Z" fill="#067362"/>
<path d="M21.5002 4.90015C20.6502 5.35015 19.8002 5.85015 18.9502 6.35015L20.3002 8.25014C21.1002 7.75015 21.9002 7.30015 22.7002 6.85015L21.5002 4.90015Z" fill="#067362"/>
<path d="M43.9502 77.3C26.6002 79 9.95019 68.2 4.35019 51.65C4.15019 51 3.40019 50.6 2.75019 50.85C2.10019 51.05 1.75019 51.8 1.95019 52.45C7.90019 70.15 25.7002 81.65 44.2502 79.85H44.3002C45.0002 79.75 45.4502 79.15 45.4002 78.45C45.3002 77.75 44.6502 77.2 43.9502 77.3Z" fill="#067362"/>
<path d="M37.1999 2.60004C54.2999 1.50004 70.0499 12.1 75.4999 28.35C75.6999 28.95 76.2999 29.3 76.8999 29.2C76.9999 29.2 77.0499 29.15 77.1499 29.15C77.7999 28.95 78.1499 28.2 77.9499 27.55C72.0999 10.2 55.2999 -1.09996 37.0499 0.0500372C36.3499 0.100037 35.8499 0.700037 35.8999 1.40004C35.8999 2.10004 36.4999 2.65004 37.1999 2.60004Z" fill="#067362"/>
<path d="M54.1014 58.4627C54.6603 58.4627 55.1134 57.9944 55.1134 57.4169C55.1134 56.8393 54.6603 56.3711 54.1014 56.3711C53.5425 56.3711 53.0894 56.8393 53.0894 57.4169C53.0894 57.9944 53.5425 58.4627 54.1014 58.4627Z" fill="#067362"/>
<path d="M50.6263 56.4048C50.0865 56.4048 49.6143 56.8771 49.6143 57.4506C49.6143 58.0241 50.0528 58.4963 50.6263 58.4963C51.1661 58.4963 51.6384 58.0241 51.6384 57.4506C51.6384 56.8771 51.1998 56.4048 50.6263 56.4048Z" fill="#067362"/>
<path d="M54.0672 55.0217C54.6262 55.0217 55.0793 54.5535 55.0793 53.976C55.0793 53.3984 54.6262 52.9302 54.0672 52.9302C53.5083 52.9302 53.0552 53.3984 53.0552 53.976C53.0552 54.5535 53.5083 55.0217 54.0672 55.0217Z" fill="#067362"/>
<path d="M50.5926 55.0217C51.1516 55.0217 51.6047 54.5535 51.6047 53.976C51.6047 53.3984 51.1516 52.9302 50.5926 52.9302C50.0337 52.9302 49.5806 53.3984 49.5806 53.976C49.5806 54.5535 50.0337 55.0217 50.5926 55.0217Z" fill="#067362"/>
<path d="M54.1014 51.6819C54.6603 51.6819 55.1134 51.2137 55.1134 50.6361C55.1134 50.0585 54.6603 49.5903 54.1014 49.5903C53.5425 49.5903 53.0894 50.0585 53.0894 50.6361C53.0894 51.2137 53.5425 51.6819 54.1014 51.6819Z" fill="#067362"/>
<path d="M50.6263 49.5903C50.0865 49.5903 49.6143 50.0626 49.6143 50.6361C49.6143 51.2096 50.0528 51.6819 50.6263 51.6819C51.1661 51.6819 51.6384 51.2096 51.6384 50.6361C51.6384 50.0626 51.1998 49.5903 50.6263 49.5903Z" fill="#067362"/>
<path d="M50.6263 63.2867C50.0865 63.2867 49.6143 63.759 49.6143 64.3325C49.6143 64.906 50.0528 65.3783 50.6263 65.3783C51.1661 65.3783 51.6384 64.906 51.6384 64.3325C51.6384 63.759 51.1998 63.2867 50.6263 63.2867Z" fill="#067362"/>
<path d="M54.0672 61.9036C54.607 61.9036 55.0793 61.4313 55.0793 60.8578C55.0793 60.2843 54.6407 59.812 54.0672 59.812C53.4937 59.812 53.0552 60.2843 53.0552 60.8578C53.0552 61.4313 53.5275 61.9036 54.0672 61.9036Z" fill="#067362"/>
<path d="M50.5926 61.9036C51.1324 61.9036 51.6047 61.4313 51.6047 60.8578C51.6047 60.2843 51.1661 59.812 50.5926 59.812C50.0191 59.812 49.5806 60.2843 49.5806 60.8578C49.5806 61.4313 50.0529 61.9036 50.5926 61.9036Z" fill="#067362"/>
<path d="M54.0672 48.241C54.6262 48.241 55.0793 47.7728 55.0793 47.1952C55.0793 46.6176 54.6262 46.1494 54.0672 46.1494C53.5083 46.1494 53.0552 46.6176 53.0552 47.1952C53.0552 47.7728 53.5083 48.241 54.0672 48.241Z" fill="#067362"/>
<path d="M57.6771 58.4627C58.236 58.4627 58.6891 57.9944 58.6891 57.4169C58.6891 56.8393 58.236 56.3711 57.6771 56.3711C57.1181 56.3711 56.665 56.8393 56.665 57.4169C56.665 57.9944 57.1181 58.4627 57.6771 58.4627Z" fill="#067362"/>
<path d="M57.6434 55.0217C58.2023 55.0217 58.6554 54.5535 58.6554 53.976C58.6554 53.3984 58.2023 52.9302 57.6434 52.9302C57.0845 52.9302 56.6313 53.3984 56.6313 53.976C56.6313 54.5535 57.0845 55.0217 57.6434 55.0217Z" fill="#067362"/>
<path d="M57.6771 51.6819C58.236 51.6819 58.6891 51.2137 58.6891 50.6361C58.6891 50.0585 58.236 49.5903 57.6771 49.5903C57.1181 49.5903 56.665 50.0585 56.665 50.6361C56.665 51.2137 57.1181 51.6819 57.6771 51.6819Z" fill="#067362"/>
<path d="M57.6771 48.3759C58.236 48.3759 58.6891 47.9077 58.6891 47.3301C58.6891 46.7525 58.236 46.2843 57.6771 46.2843C57.1181 46.2843 56.665 46.7525 56.665 47.3301C56.665 47.9077 57.1181 48.3759 57.6771 48.3759Z" fill="#067362"/>
<path d="M61.3206 48.3759C61.8796 48.3759 62.3327 47.9077 62.3327 47.3301C62.3327 46.7525 61.8796 46.2843 61.3206 46.2843C60.7617 46.2843 60.3086 46.7525 60.3086 47.3301C60.3086 47.9077 60.7617 48.3759 61.3206 48.3759Z" fill="#067362"/>
<path d="M61.3206 51.7157C61.8796 51.7157 62.3327 51.2475 62.3327 50.6699C62.3327 50.0924 61.8796 49.6241 61.3206 49.6241C60.7617 49.6241 60.3086 50.0924 60.3086 50.6699C60.3086 51.2475 60.7617 51.7157 61.3206 51.7157Z" fill="#067362"/>
<path d="M61.3206 54.9542C61.8796 54.9542 62.3327 54.486 62.3327 53.9085C62.3327 53.3309 61.8796 52.8627 61.3206 52.8627C60.7617 52.8627 60.3086 53.3309 60.3086 53.9085C60.3086 54.486 60.7617 54.9542 61.3206 54.9542Z" fill="#067362"/>
<path d="M50.5926 48.241C51.1516 48.241 51.6047 47.7728 51.6047 47.1952C51.6047 46.6176 51.1516 46.1494 50.5926 46.1494C50.0337 46.1494 49.5806 46.6176 49.5806 47.1952C49.5806 47.7728 50.0337 48.241 50.5926 48.241Z" fill="#067362"/>
<path d="M50.6263 42.8097C50.0865 42.8097 49.6143 43.282 49.6143 43.8555C49.6143 44.429 50.0528 44.9013 50.6263 44.9013C51.1661 44.9013 51.6384 44.429 51.6384 43.8555C51.6384 43.282 51.1998 42.8097 50.6263 42.8097Z" fill="#067362"/>
<path d="M50.5926 61.9036C51.1324 61.9036 51.6047 61.4313 51.6047 60.8578C51.6047 60.2843 51.1661 59.812 50.5926 59.812C50.0191 59.812 49.5806 60.2843 49.5806 60.8578C49.5806 61.4313 50.0529 61.9036 50.5926 61.9036Z" fill="#067362"/>
</g>
<defs>
<clipPath id="clip0">
<rect width="80" height="80" fill="white"/>
</clipPath>
</defs>
</svg>
