<svg width="61" height="82" viewBox="0 0 61 82" fill="none" xmlns="http://www.w3.org/2000/svg">
<path d="M9.23584 76.2383H10.3711L10.3638 79.5854H9.46289V77H1.4209V79.5854H0.52002V76.2383H1.23047C1.77246 75.6719 2.20947 74.8467 2.5415 73.7627C2.87842 72.6738 3.08105 71.4824 3.14941 70.1885L3.33984 66.3359H9.23584V76.2383ZM2.27783 76.2383H8.33496V67.105H4.2041L4.05762 70.1592C3.99414 71.4287 3.80615 72.5981 3.49365 73.6675C3.18604 74.7368 2.78076 75.5938 2.27783 76.2383ZM11.7137 72.9204C11.7137 72.1587 11.8602 71.4727 12.1531 70.8623C12.451 70.252 12.8685 69.7783 13.4056 69.4414C13.9476 69.0996 14.5604 68.9287 15.2439 68.9287C16.2986 68.9287 17.1531 69.2998 17.8074 70.042C18.4617 70.7793 18.7889 71.7583 18.7889 72.979V73.1621C18.7889 73.9287 18.6399 74.6196 18.3421 75.2349C18.0491 75.8452 17.6341 76.3164 17.097 76.6484C16.5599 76.9805 15.9471 77.1465 15.2586 77.1465C14.2088 77.1465 13.3543 76.7778 12.6951 76.0405C12.0408 75.2983 11.7137 74.3169 11.7137 73.0962V72.9204ZM12.5926 73.1621C12.5926 74.1094 12.8367 74.8882 13.325 75.4985C13.8182 76.104 14.4627 76.4067 15.2586 76.4067C16.0496 76.4067 16.6893 76.104 17.1775 75.4985C17.6707 74.8882 17.9173 74.085 17.9173 73.0889V72.9204C17.9173 72.3149 17.805 71.7607 17.5804 71.2578C17.3558 70.7549 17.0408 70.3667 16.6355 70.0933C16.2303 69.8149 15.7664 69.6758 15.2439 69.6758C14.4627 69.6758 13.8255 69.9834 13.3323 70.5986C12.8392 71.209 12.5926 72.0098 12.5926 73.001V73.1621ZM25.7418 69.8296H21.7354V77H20.8565V69.0752H25.7418V69.8296ZM26.7035 72.9204C26.7035 72.1587 26.85 71.4727 27.143 70.8623C27.4408 70.252 27.8583 69.7783 28.3954 69.4414C28.9374 69.0996 29.5502 68.9287 30.2338 68.9287C31.2885 68.9287 32.143 69.2998 32.7973 70.042C33.4516 70.7793 33.7787 71.7583 33.7787 72.979V73.1621C33.7787 73.9287 33.6298 74.6196 33.3319 75.2349C33.039 75.8452 32.6239 76.3164 32.0868 76.6484C31.5497 76.9805 30.9369 77.1465 30.2484 77.1465C29.1986 77.1465 28.3441 76.7778 27.685 76.0405C27.0307 75.2983 26.7035 74.3169 26.7035 73.0962V72.9204ZM27.5824 73.1621C27.5824 74.1094 27.8266 74.8882 28.3148 75.4985C28.808 76.104 29.4525 76.4067 30.2484 76.4067C31.0395 76.4067 31.6791 76.104 32.1674 75.4985C32.6605 74.8882 32.9071 74.085 32.9071 73.0889V72.9204C32.9071 72.3149 32.7948 71.7607 32.5702 71.2578C32.3456 70.7549 32.0307 70.3667 31.6254 70.0933C31.2201 69.8149 30.7563 69.6758 30.2338 69.6758C29.4525 69.6758 28.8153 69.9834 28.3222 70.5986C27.829 71.209 27.5824 72.0098 27.5824 73.001V73.1621ZM35.8903 77V69.0752H38.798C39.8039 69.0752 40.5754 69.2559 41.1125 69.6172C41.6496 69.9736 41.9182 70.4985 41.9182 71.1919C41.9182 71.5874 41.7985 71.9414 41.5593 72.2539C41.32 72.5615 40.9709 72.7861 40.5119 72.9277C41.0295 73.0254 41.4445 73.2476 41.757 73.5942C42.0744 73.9409 42.2331 74.3438 42.2331 74.8027C42.2331 75.501 41.9743 76.043 41.4567 76.4287C40.944 76.8096 40.2165 77 39.2741 77H35.8903ZM36.7619 73.3525V76.2676H39.3034C39.9626 76.2676 40.4704 76.1406 40.8269 75.8867C41.1833 75.6328 41.3615 75.2666 41.3615 74.7881C41.3615 74.3486 41.1833 73.9995 40.8269 73.7407C40.4704 73.4819 39.9626 73.3525 39.3034 73.3525H36.7619ZM36.7619 72.6201H38.9812C40.3581 72.6006 41.0466 72.1318 41.0466 71.2139C41.0466 70.7305 40.8562 70.3789 40.4753 70.1592C40.0993 69.9346 39.5402 69.8223 38.798 69.8223H36.7619V72.6201ZM43.9053 72.9204C43.9053 72.1587 44.0518 71.4727 44.3447 70.8623C44.6426 70.252 45.0601 69.7783 45.5972 69.4414C46.1392 69.0996 46.752 68.9287 47.4355 68.9287C48.4902 68.9287 49.3447 69.2998 49.999 70.042C50.6533 70.7793 50.9805 71.7583 50.9805 72.979V73.1621C50.9805 73.9287 50.8315 74.6196 50.5337 75.2349C50.2407 75.8452 49.8257 76.3164 49.2886 76.6484C48.7515 76.9805 48.1387 77.1465 47.4502 77.1465C46.4004 77.1465 45.5459 76.7778 44.8867 76.0405C44.2324 75.2983 43.9053 74.3169 43.9053 73.0962V72.9204ZM44.7842 73.1621C44.7842 74.1094 45.0283 74.8882 45.5166 75.4985C46.0098 76.104 46.6543 76.4067 47.4502 76.4067C48.2412 76.4067 48.8809 76.104 49.3691 75.4985C49.8623 74.8882 50.1089 74.085 50.1089 73.0889V72.9204C50.1089 72.3149 49.9966 71.7607 49.772 71.2578C49.5474 70.7549 49.2324 70.3667 48.8271 70.0933C48.4219 69.8149 47.958 69.6758 47.4355 69.6758C46.6543 69.6758 46.0171 69.9834 45.5239 70.5986C45.0308 71.209 44.7842 72.0098 44.7842 73.001V73.1621ZM59.3689 73.1182C59.3689 74.3535 59.0955 75.335 58.5486 76.0625C58.0018 76.7852 57.2693 77.1465 56.3514 77.1465C55.2674 77.1465 54.4373 76.7656 53.8611 76.0039V80.0469H52.9896V69.0752H53.8025L53.8465 70.1958C54.4178 69.3511 55.2454 68.9287 56.3294 68.9287C57.2767 68.9287 58.0188 69.2876 58.556 70.0054C59.0979 70.7231 59.3689 71.7192 59.3689 72.9937V73.1182ZM58.49 72.9644C58.49 71.9536 58.2825 71.1553 57.8675 70.5693C57.4524 69.9834 56.8738 69.6904 56.1316 69.6904C55.5945 69.6904 55.1331 69.8198 54.7474 70.0786C54.3616 70.3374 54.0662 70.7134 53.8611 71.2065V75.0078C54.0711 75.4619 54.3714 75.8086 54.762 76.0479C55.1526 76.2871 55.6141 76.4067 56.1463 76.4067C56.8836 76.4067 57.4573 76.1138 57.8675 75.5278C58.2825 74.937 58.49 74.0825 58.49 72.9644Z" fill="#30C4AE"/>
<path d="M47.6664 27.3804C47.5882 27.3022 47.4954 27.2402 47.3933 27.1979C47.2912 27.1556 47.1817 27.1338 47.0711 27.1338C46.9606 27.1338 46.8511 27.1556 46.7489 27.1979C46.6468 27.2402 46.554 27.3022 46.4758 27.3804L45.4897 28.3666L44.6479 27.5248V24.1155C44.6479 21.9867 43.8021 19.945 42.2968 18.4397C40.7915 16.9344 38.7498 16.0887 36.6209 16.0887H36.5788L34.9973 14.5072C33.4055 12.9067 31.2654 11.9703 29.0096 11.8872L27.6327 10.5103L28.619 9.52416C28.6972 9.44599 28.7592 9.35319 28.8015 9.25106C28.8438 9.14893 28.8656 9.03946 28.8656 8.92891C28.8656 8.81837 28.8438 8.7089 28.8015 8.60677C28.7592 8.50463 28.6972 8.41183 28.619 8.33367L20.8804 0.595087C20.5517 0.266426 20.0189 0.266413 19.6902 0.59506C19.3615 0.923729 19.3615 1.45664 19.6902 1.78532L26.8332 8.92818L14.9285 20.8328L7.78565 13.6901C7.45699 13.3615 6.92416 13.3614 6.59543 13.69C6.2666 14.0187 6.26653 14.5517 6.59528 14.8805L14.3332 22.6189C14.4113 22.697 14.5041 22.7591 14.6063 22.8014C14.7084 22.8437 14.8179 22.8655 14.9285 22.8655C15.039 22.8655 15.1485 22.8437 15.2506 22.8014C15.3528 22.7591 15.4456 22.697 15.5238 22.6189L16.3407 21.8018L17.7107 23.1718V27.032C17.7105 27.4361 17.8073 27.8343 17.993 28.1931C18.1787 28.552 18.4478 28.8611 18.7778 29.0943C19.1077 29.3276 19.4888 29.4782 19.8891 29.5336C20.2893 29.5889 20.697 29.5474 21.0779 29.4125V30.3992C21.0777 30.8032 21.1745 31.2014 21.3602 31.5603C21.5459 31.9191 21.815 32.2282 22.1449 32.4615C22.4748 32.6947 22.856 32.8453 23.2562 32.9007C23.6565 32.9561 24.0641 32.9145 24.445 32.7796V33.7663C24.4448 34.1704 24.5416 34.5685 24.7273 34.9274C24.913 35.2863 25.1821 35.5953 25.5121 35.8286C25.842 36.0618 26.2231 36.2125 26.6233 36.2678C27.0236 36.3232 27.4313 36.2817 27.8122 36.1468V37.1334C27.8118 37.6448 27.9669 38.1442 28.2567 38.5654C28.5465 38.9867 28.9574 39.3101 29.4351 39.4926C29.9128 39.6751 30.4346 39.7083 30.9315 39.5876C31.4284 39.467 31.877 39.1982 32.2177 38.817H33.3561L34.1978 39.6588L33.3808 40.4758C33.3026 40.554 33.2406 40.6468 33.1983 40.7489C33.156 40.8511 33.1342 40.9605 33.1342 41.0711C33.1342 41.1816 33.156 41.2911 33.1983 41.3932C33.2406 41.4954 33.3026 41.5882 33.3808 41.6663L41.1188 49.4043C41.4477 49.7333 41.9811 49.7331 42.3098 49.404C42.6384 49.0752 42.6383 48.5423 42.3095 48.2136L35.1665 41.0707L47.0715 29.166L54.2142 36.3088C54.5429 36.6375 55.0759 36.6376 55.4047 36.3088C55.7335 35.9801 55.7335 35.447 55.4047 35.1183L47.6664 27.3804ZM30.3375 37.9749C30.1143 37.9746 29.9004 37.8859 29.7426 37.7281C29.5847 37.5703 29.496 37.3563 29.4957 37.1331V30.3988H27.8122V33.766C27.8122 33.9892 27.7235 34.2033 27.5656 34.3612C27.4077 34.5191 27.1936 34.6078 26.9704 34.6078C26.7471 34.6078 26.533 34.5191 26.3751 34.3612C26.2173 34.2033 26.1286 33.9892 26.1286 33.766V27.0317H24.445V30.3988C24.445 30.6221 24.3563 30.8362 24.1985 30.9941C24.0406 31.1519 23.8265 31.2406 23.6032 31.2406C23.38 31.2406 23.1659 31.1519 23.008 30.9941C22.8501 30.8362 22.7614 30.6221 22.7614 30.3988V24.5063H21.0779V27.0317C21.0779 27.255 20.9892 27.4691 20.8313 27.6269C20.6734 27.7848 20.4593 27.8735 20.2361 27.8735C20.0128 27.8735 19.7987 27.7848 19.6408 27.6269C19.483 27.4691 19.3943 27.255 19.3943 27.0317V22.8228C19.3943 22.7122 19.3725 22.6028 19.3302 22.5006C19.2879 22.3985 19.2259 22.3057 19.1478 22.2275L17.5312 20.611L26.4421 11.7001L28.0587 13.3161C28.1369 13.3943 28.2297 13.4563 28.3318 13.4986C28.4339 13.5409 28.5434 13.5627 28.6539 13.5627C29.6113 13.5601 30.5596 13.7474 31.4441 14.1138C32.3286 14.4801 33.1316 15.0183 33.8067 15.6971L34.1977 16.0881H26.1286C25.9053 16.0881 25.6912 16.1768 25.5333 16.3346C25.3755 16.4925 25.2868 16.7066 25.2868 16.9299C25.2891 18.3228 25.7482 19.6766 26.5937 20.7835C27.4392 21.8905 28.6244 22.6896 29.9677 23.0584L31.1793 23.3888V37.1331C31.179 37.3563 31.0903 37.5703 30.9325 37.7281C30.7747 37.8859 30.5607 37.9746 30.3375 37.9749ZM34.2999 37.3797C34.2217 37.3015 34.1289 37.2395 34.0268 37.1972C33.9247 37.1549 33.8152 37.1331 33.7047 37.1331H32.8629V23.8483L34.5464 24.3075V24.5063C34.5477 25.6222 34.9915 26.6921 35.7806 27.4811C36.5697 28.2702 37.6395 28.714 38.7554 28.7153C38.9786 28.7153 39.1927 28.6266 39.3506 28.4687C39.5085 28.3108 39.5972 28.0967 39.5972 27.8735C39.5972 27.6502 39.5085 27.4361 39.3506 27.2782C39.1927 27.1204 38.9786 27.0317 38.7554 27.0317C38.0858 27.0309 37.4439 26.7646 36.9705 26.2912C36.4971 25.8178 36.2308 25.1759 36.23 24.5063V23.6646C36.23 23.4798 36.1692 23.3002 36.057 23.1534C35.9448 23.0066 35.7875 22.9008 35.6092 22.8523L30.4101 21.4345C29.5622 21.2014 28.7971 20.7343 28.2024 20.0866C27.6077 19.4388 27.2075 18.6367 27.0475 17.7721H36.6213C37.4544 17.772 38.2792 17.9361 39.0489 18.2549C39.8185 18.5736 40.5178 19.0409 41.1068 19.6299C41.6959 20.2189 42.1631 20.9182 42.4819 21.6878C42.8007 22.4574 42.9647 23.2823 42.9647 24.1153V27.8735C42.9647 28.0967 43.0534 28.3108 43.2113 28.4686L44.2996 29.5571L35.3887 38.4679L34.2999 37.3797Z" fill="#067362"/>
<path d="M38.1403 41.5553C38.4691 41.8843 39.0022 41.8842 39.3309 41.5552C39.6597 41.2261 39.6596 40.6927 39.3308 40.3637C39.002 40.0347 38.4689 40.0347 38.1402 40.3638C37.8114 40.6928 37.8115 41.2263 38.1403 41.5553Z" fill="#067362"/>
<path d="M14.3277 17.7253C14.6565 18.0544 15.1896 18.0544 15.5184 17.7254C15.8471 17.3963 15.8471 16.8629 15.5184 16.5339C15.1896 16.2048 14.6565 16.2048 14.3277 16.5338C13.999 16.8629 13.9989 17.3963 14.3277 17.7253Z" fill="#067362"/>
<path d="M12.5573 22.9508C12.5573 22.4981 12.1903 22.1312 11.7376 22.1312C11.2849 22.1312 10.918 22.4981 10.918 22.9508V48.3351C10.918 48.5592 11.0043 48.7742 11.158 48.9328C11.3118 49.0913 11.5203 49.1803 11.7376 49.1803H35.4825C35.9494 49.1803 36.3278 48.8019 36.3278 48.3351C36.3278 47.8682 35.9494 47.4898 35.4825 47.4898H14.5573C13.4527 47.4898 12.5573 46.5943 12.5573 45.4898V22.9508Z" fill="#067362"/>
<path d="M51.0337 27.0251C51.0337 27.4911 51.4115 27.8689 51.8775 27.8689C52.3435 27.8689 52.7212 27.4911 52.7212 27.0251V0.819672C52.7212 0.602282 52.6323 0.393795 52.4741 0.240076C52.3159 0.086358 52.1012 0 51.8775 0H24.8524C24.3997 0 24.0327 0.36698 24.0327 0.819672C24.0327 1.27236 24.3997 1.63934 24.8524 1.63934H49.0337C50.1382 1.63934 51.0337 2.53477 51.0337 3.63934V27.0251Z" fill="#067362"/>
<path d="M43.7048 4.09839C42.8942 4.09839 42.1019 4.33875 41.4279 4.78909C40.7539 5.23942 40.2286 5.8795 39.9184 6.62837C39.6082 7.37725 39.5271 8.20129 39.6852 8.9963C39.8433 9.7913 40.2337 10.5216 40.8068 11.0947C41.38 11.6679 42.1103 12.0582 42.9053 12.2164C43.7003 12.3745 44.5243 12.2933 45.2732 11.9831C46.0221 11.6729 46.6621 11.1476 47.1125 10.4737C47.5628 9.7997 47.8032 9.00733 47.8032 8.19675C47.8019 7.11017 47.3698 6.06845 46.6014 5.30012C45.8331 4.53179 44.7914 4.09961 43.7048 4.09839ZM43.7048 10.6558C43.2185 10.6558 42.743 10.5115 42.3387 10.2413C41.9343 9.97114 41.6191 9.5871 41.433 9.13777C41.2469 8.68845 41.1982 8.19402 41.293 7.71702C41.3879 7.24002 41.6221 6.80186 41.966 6.45796C42.3099 6.11406 42.7481 5.87986 43.2251 5.78498C43.7021 5.6901 44.1965 5.7388 44.6458 5.92491C45.0952 6.11103 45.4792 6.42621 45.7494 6.83059C46.0196 7.23498 46.1638 7.7104 46.1638 8.19675C46.1631 8.84869 45.9037 9.47371 45.4428 9.9347C44.9818 10.3957 44.3567 10.655 43.7048 10.6558Z" fill="#067362"/>
<path d="M46.9838 13.9344H44.5247C44.0721 13.9344 43.7051 14.3014 43.7051 14.7541C43.7051 15.2068 44.0721 15.5738 44.5248 15.5738H46.9838C47.4365 15.5738 47.8034 15.2068 47.8034 14.7541C47.8034 14.3014 47.4365 13.9344 46.9838 13.9344Z" fill="#067362"/>
<path d="M46.9836 17.2131H46.1639C45.7112 17.2131 45.3442 17.5801 45.3442 18.0328C45.3442 18.4855 45.7112 18.8525 46.1639 18.8525H46.9836C47.4363 18.8525 47.8033 18.4855 47.8033 18.0328C47.8033 17.5801 47.4363 17.2131 46.9836 17.2131Z" fill="#067362"/>
<path d="M15.0166 43.4426C15.0166 43.8953 15.3836 44.2623 15.8363 44.2623C16.289 44.2623 16.6559 43.8953 16.6559 43.4426C16.6559 42.9899 16.289 42.6229 15.8363 42.6229C15.3836 42.6229 15.0166 42.9899 15.0166 43.4426Z" fill="#067362"/>
<path d="M25.6723 38.5246H15.8363C15.3836 38.5246 15.0166 38.8916 15.0166 39.3443C15.0166 39.797 15.3836 40.1639 15.8363 40.1639H25.6723C26.125 40.1639 26.492 39.797 26.492 39.3443C26.492 38.8916 26.125 38.5246 25.6723 38.5246Z" fill="#067362"/>
<path d="M21.574 35.2459H15.8363C15.3836 35.2459 15.0166 35.6129 15.0166 36.0656C15.0166 36.5183 15.3836 36.8853 15.8363 36.8853H21.574C22.0267 36.8853 22.3937 36.5183 22.3937 36.0656C22.3937 35.6129 22.0267 35.2459 21.574 35.2459Z" fill="#067362"/>
<path d="M19.115 31.9672H15.8363C15.3836 31.9672 15.0166 32.3342 15.0166 32.7869C15.0166 33.2396 15.3836 33.6066 15.8363 33.6066H19.115C19.5677 33.6066 19.9346 33.2396 19.9346 32.7869C19.9346 32.3342 19.5677 31.9672 19.115 31.9672Z" fill="#067362"/>
<path d="M18.2949 43.4426C18.2949 43.8953 18.6619 44.2623 19.1146 44.2623C19.5673 44.2623 19.9343 43.8953 19.9343 43.4426C19.9343 42.9899 19.5673 42.6229 19.1146 42.6229C18.6619 42.6229 18.2949 42.9899 18.2949 43.4426Z" fill="#067362"/>
</svg>
