<svg width="24" height="24" viewBox="0 0 24 24" fill="none" xmlns="http://www.w3.org/2000/svg">
<path d="M12.985 1.8671L10.1954 4.4926C9.86717 4.82078 9.86717 5.31306 10.1954 5.64125C10.5235 5.96944 11.0158 5.96944 11.344 5.64125L14.2977 2.85166C16.2668 1.04663 19.2205 1.04663 21.0255 3.01575C22.8306 4.98488 22.8306 7.93856 20.8615 9.74359L17.9078 12.5332C17.5796 12.8614 17.5796 13.3537 17.9078 13.6818C18.236 14.01 18.7282 14.01 19.0564 13.6818L22.0101 10.8922C24.6356 8.43084 24.6356 4.3285 22.1742 1.703C19.7128 -0.594309 15.6105 -0.594309 12.985 1.8671Z" fill="#42BDAA"/>
<path d="M12.6562 17.7841L9.70253 20.5737C7.73341 22.3787 4.77972 22.3787 2.97469 20.4096C1.16966 18.4405 1.16966 15.4868 3.13879 13.6818L6.09247 10.8922C6.42066 10.564 6.42066 10.0717 6.09247 9.74353C5.76429 9.25125 5.27201 9.25125 4.94382 9.57943L1.99013 12.369C-0.635367 14.8304 -0.635367 18.9328 1.82604 21.5583C4.28744 24.1838 8.38979 24.1838 11.0153 21.7224L13.969 18.9328C14.2972 18.6046 14.2972 18.1123 13.969 17.7841C13.6408 17.4559 12.9844 17.4559 12.6562 17.7841Z" fill="#42BDAA"/>
<path d="M6.74923 16.7996C7.07742 17.1277 7.5697 17.1277 7.89789 16.7996L17.0871 7.9385C17.4153 7.61031 17.4153 7.11803 17.0871 6.78984C16.7589 6.46165 16.2667 6.46165 15.9385 6.78984L6.91333 15.6509C6.42105 15.9791 6.42105 16.4714 6.74923 16.7996Z" fill="#42BDAA"/>
</svg>
