<svg width="16" height="18" viewBox="0 0 16 18" fill="none" xmlns="http://www.w3.org/2000/svg">
<path fill-rule="evenodd" clip-rule="evenodd" d="M1.73217 1.18519C1.43008 1.18519 1.18519 1.43008 1.18519 1.73217C1.18519 2.03427 1.43008 2.27916 1.73217 2.27916C2.03427 2.27916 2.27916 2.03427 2.27916 1.73217C2.27916 1.43008 2.03427 1.18519 1.73217 1.18519ZM0 1.73217C0 0.77552 0.77552 0 1.73217 0C2.68882 0 3.46434 0.77552 3.46434 1.73217C3.46434 2.48068 2.98958 3.1183 2.32477 3.36033V6.26769H4.01133V7.45288H2.32477C1.67021 7.45288 1.13958 6.92225 1.13958 6.26769V3.36033C0.474761 3.1183 0 2.48068 0 1.73217ZM12.5357 1.73245C12.5357 0.7758 13.3112 0.000279603 14.2678 0.00027978C15.2245 0.000279921 16 0.7758 16 1.73245C16 2.48098 15.5252 3.11862 14.8604 3.36063V6.26796C14.8604 6.92252 14.3297 7.45314 13.6752 7.45314H11.9886V6.26796H13.6752V3.36058C13.0104 3.11854 12.5357 2.48093 12.5357 1.73245ZM14.2678 1.18547C13.9657 1.18547 13.7208 1.43036 13.7208 1.73245C13.7208 2.03454 13.9657 2.27944 14.2678 2.27944C14.5699 2.27944 14.8148 2.03455 14.8148 1.73245C14.8148 1.43036 14.5699 1.18547 14.2678 1.18547ZM6.59847 1.16266V5.15118H5.41328V1.16266H6.59847ZM10.3021 1.16266V2.30224H9.11691V1.16266H10.3021ZM9.11588 5.23284C8.4517 5.47521 7.97756 6.11254 7.97756 6.86057C7.97756 7.81716 8.75298 8.59274 9.70962 8.59274C10.6663 8.59274 11.4417 7.81716 11.4417 6.86056C11.4417 6.11167 10.9664 5.47373 10.3011 5.232V3.44183L9.11588 3.44183L9.11588 5.23284ZM9.70962 6.31358C9.40765 6.31358 9.16275 6.55842 9.16275 6.86057C9.16275 7.16271 9.40765 7.40755 9.70962 7.40755C10.0116 7.40755 10.2565 7.16271 10.2565 6.86056C10.2565 6.55842 10.0116 6.31358 9.70962 6.31358ZM6.59847 6.29077V7.43035H5.41328V6.29077H6.59847ZM6.29066 9.73231C5.98868 9.73231 5.74378 9.97715 5.74378 10.2793C5.74378 10.5814 5.98868 10.8263 6.29066 10.8263C6.59263 10.8263 6.83753 10.5814 6.83753 10.2793C6.83753 9.97715 6.59263 9.73231 6.29066 9.73231ZM4.5586 10.2793C4.5586 9.3227 5.33401 8.54713 6.29066 8.54713C7.2473 8.54713 8.02272 9.3227 8.02272 10.2793C8.02272 11.0271 7.54885 11.6643 6.88498 11.9068V13.698H5.69979V11.9081C5.03411 11.6665 4.5586 11.0284 4.5586 10.2793ZM1.13994 10.8719C1.13994 10.2173 1.67056 9.68671 2.32513 9.68671H4.01169V10.8719L2.32513 10.8719L2.32513 13.7793C2.9899 14.0213 3.46462 14.6589 3.46462 15.4074C3.46462 16.3641 2.6891 17.1396 1.73245 17.1396C0.775797 17.1396 0.000276919 16.3641 0.000276813 15.4074C0.000276742 14.6589 0.475078 14.0212 1.13994 13.7792L1.13994 10.8719ZM11.9881 9.68671H13.6746C14.3292 9.68671 14.8598 10.2173 14.8598 10.8719V13.7792C15.5247 14.0213 15.9994 14.6589 15.9994 15.4074C15.9994 16.3641 15.2239 17.1396 14.2673 17.1396C13.3106 17.1396 12.5351 16.3641 12.5351 15.4074C12.5351 14.6589 13.0098 14.0213 13.6746 13.7793V10.8719H11.9881V9.68671ZM10.3021 10.8491H9.11691V9.70951H10.3021V10.8491ZM9.11691 15.9772V11.9887H10.3021L10.3021 15.9772H9.11691ZM1.73245 14.8604C1.43036 14.8604 1.18546 15.1053 1.18546 15.4074C1.18546 15.7095 1.43036 15.9544 1.73245 15.9544C2.03454 15.9544 2.27944 15.7095 2.27944 15.4074C2.27944 15.1053 2.03454 14.8604 1.73245 14.8604ZM14.2673 14.8604C13.9652 14.8604 13.7203 15.1053 13.7203 15.4074C13.7203 15.7095 13.9652 15.9544 14.2673 15.9544C14.5694 15.9544 14.8143 15.7095 14.8143 15.4074C14.8143 15.1053 14.5694 14.8604 14.2673 14.8604ZM6.88336 14.8376V15.9772H5.69818V14.8376H6.88336Z" fill="#727161"/>
</svg>
