<svg width="20" height="24" viewBox="0 0 20 24" fill="none" xmlns="http://www.w3.org/2000/svg">
<g clip-path="url(#clip0)">
<path d="M18.4078 16.0825C17.8218 15.3297 17.4985 14.3848 17.4985 13.4349V9.48379C17.4985 5.47705 14.3918 2.09179 10.5173 1.80379V0.555789C10.5173 0.247579 10.2697 0 9.96159 0C9.65344 0 9.40592 0.247579 9.40592 0.555789V1.79874C7.64797 1.92505 6.01127 2.65263 4.72817 3.89053C3.24301 5.32547 2.42466 7.25053 2.42466 9.312V13.4349C2.42466 14.3899 2.10136 15.3297 1.51538 16.0825C0.969811 16.7848 0.510119 17.5579 0.15651 18.3714C-0.116274 19.0029 -0.0556553 19.7204 0.323212 20.2964C0.70713 20.8825 1.35373 21.2362 2.0559 21.2362H6.68818C6.95591 22.8025 8.31478 23.9949 9.95148 23.9949C11.5882 23.9949 12.9521 22.7975 13.2148 21.2362H17.8471C18.5492 21.2362 19.1958 20.8876 19.5798 20.2964C19.9586 19.7204 20.0192 18.9979 19.7465 18.3714C19.408 17.5579 18.9534 16.7848 18.4078 16.0825ZM9.96664 22.8935C8.94117 22.8935 8.08241 22.1912 7.83488 21.2413H12.0984C11.8509 22.1861 10.9921 22.8935 9.96664 22.8935ZM18.6705 19.6901C18.4886 19.9629 18.1906 20.1297 17.8622 20.1297H2.07105C1.7427 20.1297 1.44466 19.968 1.2628 19.6901C1.086 19.4223 1.06074 19.104 1.18198 18.8109C1.50022 18.0834 1.9094 17.3912 2.3994 16.7596C3.13693 15.8147 3.54105 14.6274 3.54105 13.4299V9.312C3.54105 7.55368 4.23817 5.91158 5.50611 4.68884C6.71343 3.52168 8.28952 2.89011 9.96664 2.89011C10.0475 2.89011 10.1232 2.89011 10.2041 2.89516C13.6189 3.01642 16.3922 5.97221 16.3922 9.48379V13.4349C16.3922 14.2686 16.5892 15.0872 16.9529 15.8349H11.9721C11.664 15.8349 11.4164 16.0825 11.4164 16.3907C11.4164 16.6989 11.664 16.9465 11.9721 16.9465H17.6602C17.8976 17.2699 18.1148 17.6034 18.3118 17.952H14.902C14.5939 17.952 14.3463 18.1996 14.3463 18.5078C14.3463 18.816 14.5939 19.0636 14.902 19.0636H18.817C18.8422 19.2707 18.7968 19.4981 18.6705 19.6901Z" fill="#8C9C9A"/>
<path d="M16.0344 2.95074C16.1051 3.04169 16.191 3.10737 16.2921 3.14274C16.4588 3.20337 16.6508 3.18316 16.8075 3.06695C17.055 2.88506 17.1056 2.53642 16.9237 2.28885C16.3376 1.49558 15.5494 0.884212 14.6449 0.525475C14.17 0.338527 13.6799 0.217264 13.1797 0.166738C12.8765 0.136422 12.6037 0.358738 12.5734 0.661896C12.543 0.965055 12.7654 1.2379 13.0685 1.26821C13.4677 1.30863 13.8668 1.40463 14.2357 1.55621C14.9531 1.84421 15.5696 2.32421 16.0344 2.95074Z" fill="#8C9C9A"/>
</g>
<defs>
<clipPath id="clip0">
<rect width="19.9284" height="24" fill="white"/>
</clipPath>
</defs>
</svg>
