<svg width="16" height="15" viewBox="0 0 16 15" fill="none" xmlns="http://www.w3.org/2000/svg">
<path d="M16 10.622V14.1636C16 14.2341 15.9899 14.2996 15.9748 14.3601C15.9043 14.7077 15.597 14.9697 15.2343 14.9697H0.760705C0.372796 14.9697 0.0503778 14.6724 0.0100756 14.2946C0 14.2493 0 14.209 0 14.1586V10.617C0 10.1989 0.342569 9.86133 0.755668 9.86133C0.962217 9.86133 1.15365 9.94697 1.28967 10.083C1.42569 10.219 1.51134 10.4104 1.51134 10.617V13.4533H14.4937V10.617C14.4937 10.1989 14.8363 9.86133 15.2494 9.86133C15.4559 9.86133 15.6474 9.94697 15.7834 10.083C15.9144 10.224 16 10.4155 16 10.622Z" fill="#067362"/>
<path d="M12.3579 7.07557L8.64503 10.7884C8.64 10.7985 8.62992 10.8035 8.62488 10.8086C8.48886 10.9446 8.31254 11.0302 8.13622 11.0554C8.1211 11.0554 8.10599 11.0605 8.09088 11.0605C8.06065 11.0655 8.03042 11.0655 8.0002 11.0655L7.91455 11.0605C7.89944 11.0605 7.88433 11.0554 7.86921 11.0554C7.68785 11.0302 7.51657 10.9446 7.38055 10.8086C7.37551 10.8035 7.36544 10.7935 7.3604 10.7884L3.64755 7.07557C3.47627 6.90428 3.39062 6.67758 3.39062 6.45088C3.39062 6.22418 3.47627 5.99748 3.64755 5.8262C3.99012 5.48363 4.54931 5.48363 4.89692 5.8262L7.12866 8.05793V3.88161C7.12866 3.39798 7.52665 3 8.01027 3C8.25209 3 8.47375 3.10076 8.63496 3.25693C8.79617 3.41814 8.89188 3.63476 8.89188 3.88161V8.05793L11.1236 5.8262C11.4662 5.48363 12.0254 5.48363 12.373 5.8262C12.7004 6.1738 12.7004 6.733 12.3579 7.07557Z" fill="#067362"/>
<circle cx="8" cy="1" r="1" fill="#067362"/>
</svg>
