<svg width="24" height="21" viewBox="0 0 24 21" fill="none" xmlns="http://www.w3.org/2000/svg">
<path d="M5.1536 3.2315L5.35803 3.32446C5.39884 3.34335 5.44191 3.35204 5.48386 3.35204C5.59873 3.35204 5.70793 3.28667 5.75894 3.17596C5.82885 3.02443 5.76234 2.84495 5.61044 2.77505L5.40148 2.67982C5.24996 2.61105 5.0701 2.67869 5.0017 2.83135C4.93331 2.984 5.00133 3.16311 5.1536 3.2315Z" fill="#087464"/>
<path d="M1.65507 2.47954L0.80677 2.08241C0.626152 1.99776 0.413414 2.01477 0.24791 2.12699C0.082406 2.2396 -0.0116819 2.43155 0.00116544 2.63106L0.764827 14.8402C0.777675 15.0454 0.90048 15.2275 1.08677 15.3163L9.70772 19.4294C9.71943 19.4403 9.72964 19.452 9.74249 19.4622C10.1117 19.7453 10.5182 19.9621 10.9505 20.1072C11.2777 20.2172 11.6178 20.2852 11.9605 20.3083C11.9738 20.3094 11.9862 20.3098 11.9995 20.3098H11.9998H12.0002C12.0131 20.3098 12.0263 20.3094 12.0388 20.3083C12.3815 20.2848 12.7216 20.2172 13.0484 20.1072C13.4814 19.9621 13.888 19.7453 14.2568 19.4622C14.2697 19.4524 14.2799 19.4403 14.2916 19.4294L22.9133 15.3159C23.0992 15.2275 23.222 15.045 23.2352 14.8398L23.9989 2.63069C24.0114 2.43117 23.9177 2.23922 23.7521 2.12662C23.5866 2.01439 23.3739 1.99739 23.1933 2.08203L22.345 2.47916V1.90292C22.345 1.89385 22.3427 1.88554 22.3423 1.87647C22.342 1.86665 22.3435 1.8572 22.3423 1.84737C22.3412 1.83717 22.3378 1.82773 22.3363 1.81752C22.3333 1.79863 22.3299 1.78049 22.3253 1.76198C22.3204 1.74346 22.3148 1.72532 22.3083 1.70757C22.3023 1.69094 22.2955 1.67507 22.2879 1.6592C22.2792 1.64106 22.2698 1.62406 22.2596 1.60705C22.2509 1.59307 22.2422 1.57985 22.2324 1.567C22.2199 1.55037 22.2071 1.5345 22.1931 1.51939C22.1829 1.50843 22.1723 1.49785 22.161 1.48765C22.1451 1.47291 22.1289 1.45931 22.1115 1.44684C22.0998 1.43815 22.0877 1.43021 22.0756 1.42266C22.0567 1.41094 22.0374 1.40036 22.0174 1.39092C22.0045 1.38487 21.9917 1.37958 21.9785 1.37429C21.9573 1.36635 21.9358 1.35955 21.9135 1.35426C21.8995 1.35086 21.8851 1.34784 21.8708 1.34557C21.8485 1.34179 21.8266 1.3399 21.8035 1.33877C21.7948 1.33839 21.7869 1.33612 21.7782 1.33612C21.7695 1.33612 21.7612 1.33839 21.7525 1.33877C21.7423 1.33915 21.7328 1.33764 21.7226 1.33877C21.4359 1.36711 21.1585 1.40414 20.8849 1.44722V0.567551C20.8849 0.552436 20.8815 0.538456 20.8804 0.523719C20.8789 0.503693 20.8781 0.484043 20.8743 0.464772C20.8709 0.446257 20.8653 0.428876 20.86 0.411116C20.8547 0.393356 20.8502 0.375219 20.8434 0.358215C20.8366 0.340834 20.8275 0.324585 20.8188 0.308337C20.8105 0.292467 20.8029 0.276219 20.7931 0.261104C20.7833 0.245612 20.7712 0.231631 20.7598 0.217272C20.7485 0.202913 20.7379 0.188554 20.7255 0.175707C20.713 0.162859 20.6994 0.151902 20.6858 0.140188C20.6718 0.128097 20.6582 0.115626 20.6431 0.104668C20.6287 0.094466 20.6132 0.0865312 20.5977 0.0778404C20.5815 0.0683938 20.5653 0.0585684 20.5479 0.0506333C20.5316 0.0434539 20.5142 0.038543 20.4972 0.0324971C20.4791 0.0264513 20.4613 0.019649 20.4424 0.0154925C20.4247 0.011336 20.4062 0.00982462 20.3877 0.00755744C20.3718 0.00566813 20.3567 0.00151104 20.3408 0.000755312C20.3355 0.000377448 20.3287 0.00113318 20.323 0.000755312C20.3212 0.000755312 20.3193 0.000377656 20.3174 0.000377656C20.3151 0.000377656 20.3128 0.00113441 20.3106 0.00113441C19.5159 -0.0177588 17.3678 0.670708 14.7348 2.59403C13.7924 3.2825 12.6641 4.61333 11.9983 5.8497C11.3314 4.61182 10.2035 3.28061 9.26411 2.59403C6.63418 0.672598 4.48263 -0.00944577 3.691 0.00113441C3.6876 0.00113441 3.68458 0 3.68118 0C3.67891 0 3.67664 0.000755312 3.67438 0.000755312C3.66946 0.000755312 3.66266 0.000377656 3.65775 0.000377656C3.6415 0.00113338 3.62639 0.00529047 3.61052 0.00717979C3.592 0.00944697 3.57349 0.0109584 3.55573 0.0151149C3.53683 0.0192714 3.51907 0.0260722 3.50094 0.032118C3.48393 0.037786 3.46655 0.0426984 3.4503 0.0502556C3.43292 0.0581908 3.41667 0.0680161 3.40043 0.0774627C3.38531 0.0861536 3.36982 0.0940884 3.35546 0.104291C3.34034 0.115249 3.32636 0.127717 3.31238 0.139809C3.29878 0.151523 3.28518 0.162482 3.27309 0.175329C3.26062 0.188554 3.24966 0.202913 3.2387 0.217272C3.22736 0.231631 3.21565 0.245234 3.20583 0.260727C3.196 0.275841 3.18844 0.292089 3.18013 0.30796C3.17144 0.324208 3.16275 0.340456 3.15557 0.357838C3.14877 0.375219 3.14423 0.393356 3.13894 0.411116C3.13403 0.428876 3.12799 0.445879 3.12496 0.464017C3.12118 0.483288 3.12043 0.503315 3.11892 0.523342C3.11778 0.538078 3.11438 0.552059 3.11438 0.566795V1.44646C2.84081 1.40338 2.56346 1.36635 2.27666 1.33801C2.26721 1.33726 2.25814 1.33877 2.24907 1.33839C2.23963 1.33801 2.23094 1.33575 2.22149 1.33575C2.21053 1.33575 2.20033 1.33839 2.18937 1.33915C2.17199 1.34028 2.15499 1.34179 2.13798 1.34444C2.11644 1.34746 2.09566 1.352 2.07526 1.35766C2.0609 1.36144 2.04654 1.36598 2.03256 1.37089C2.01178 1.37845 1.99137 1.38676 1.97172 1.39658C1.95888 1.40301 1.94603 1.40981 1.93356 1.41737C1.91504 1.42832 1.89728 1.44004 1.88028 1.45326C1.86781 1.46271 1.8561 1.47253 1.84438 1.48274C1.82965 1.49596 1.81567 1.50994 1.80244 1.52468C1.79073 1.53753 1.78015 1.55075 1.76957 1.56435C1.75861 1.57909 1.74803 1.59421 1.73858 1.61008C1.72913 1.62557 1.72044 1.64144 1.71251 1.65807C1.70457 1.67469 1.69739 1.69132 1.69135 1.7087C1.68492 1.72608 1.67926 1.74384 1.67472 1.76236C1.67019 1.78049 1.66641 1.79901 1.66376 1.81752C1.66225 1.82773 1.65885 1.83717 1.65772 1.84737C1.65658 1.8572 1.6581 1.86665 1.65772 1.87647C1.65734 1.88554 1.65507 1.89385 1.65507 1.90292V2.47954ZM22.1247 14.4367L14.3403 18.1507L14.3528 16.9997C14.3551 16.7907 14.1873 16.6199 13.9791 16.6177C13.9776 16.6177 13.9761 16.6177 13.9749 16.6177C13.7679 16.6177 13.5993 16.7839 13.5971 16.9914L13.5804 18.5395C13.5631 18.5546 13.5449 18.569 13.5302 18.586C13.2706 18.7794 12.9887 18.9317 12.6883 19.0322C12.465 19.1074 12.2334 19.1528 12.0002 19.172C11.7671 19.1528 11.5354 19.1074 11.3118 19.0322C11.0117 18.9317 10.7302 18.7798 10.4703 18.586C10.4551 18.569 10.437 18.5546 10.4196 18.5395L10.327 9.89964C10.3248 9.6922 10.1562 9.52594 9.94918 9.52594C9.94804 9.52594 9.94653 9.52594 9.94502 9.52594C9.73644 9.5282 9.56905 9.699 9.57131 9.90796L9.65936 18.1507L1.87499 14.4367L1.19181 3.51451L1.69966 3.75218C1.74878 3.77523 1.7998 3.78808 1.85081 3.79639C1.95056 3.8833 2.07904 3.93772 2.22187 3.93772C2.22225 3.93772 2.223 3.93772 2.22338 3.93772L9.54448 7.36607L9.56073 8.87904C9.563 9.08648 9.73153 9.25274 9.9386 9.25274C9.93973 9.25274 9.94124 9.25274 9.94275 9.25274C10.1513 9.25047 10.3187 9.07968 10.3165 8.87072L10.3047 7.7564C10.4264 7.80779 10.5606 7.85767 10.7253 7.91246C11.1009 8.03791 11.7047 8.08514 11.9707 8.1063L11.9711 8.09988C11.9836 8.10102 11.9949 8.10668 12.0074 8.10668C12.0172 8.10668 12.0278 8.10631 12.0376 8.10555C12.2957 8.08514 12.8992 8.03791 13.2748 7.91246C13.4395 7.85767 13.5736 7.80742 13.6953 7.7564L13.6077 15.9666C13.6054 16.1756 13.7732 16.3464 13.9814 16.3486C13.9829 16.3486 13.984 16.3486 13.9855 16.3486C14.1926 16.3486 14.3611 16.1824 14.3634 15.9749L14.4556 7.36569L21.7767 3.93734C21.7771 3.93734 21.7778 3.93734 21.7782 3.93734C21.921 3.93734 22.0499 3.88293 22.1493 3.79564C22.2003 3.78733 22.2509 3.77486 22.3 3.75181L22.8079 3.51413L22.1247 14.4367ZM15.404 3.50997C17.3432 2.09336 18.9249 1.44457 19.7513 1.22503V2.12624C19.7513 2.12699 19.7517 2.12813 19.7517 2.12888C19.7517 2.13039 19.7521 2.13228 19.7521 2.13379C19.7525 2.15987 19.7559 2.18481 19.7596 2.21012C18.8441 2.53244 18.0441 2.89103 17.2423 3.34863C16.773 3.61653 16.2882 3.91996 15.8015 4.25021C15.6636 4.34392 15.6273 4.53209 15.721 4.67001C15.7796 4.75617 15.8745 4.80264 15.9716 4.80264C16.0298 4.80264 16.0891 4.78564 16.1408 4.7505C16.6147 4.42894 17.0863 4.13383 17.542 3.87386C18.391 3.38943 19.2378 3.01913 20.2388 2.6851C20.2645 2.68888 20.2902 2.69303 20.317 2.69303H20.3174C20.357 2.69303 20.3956 2.68888 20.433 2.68094C20.4334 2.68094 20.4341 2.68094 20.4345 2.68094C20.6903 2.62691 20.9484 2.58307 21.2103 2.54491V3.3679L13.99 6.7494C13.9836 6.75242 13.9802 6.75809 13.9742 6.76111C13.9678 6.76451 13.961 6.76451 13.9549 6.76791C13.7195 6.90999 13.5585 7.0003 13.3103 7.09741C13.8102 6.54233 14.5644 5.8856 15.4698 5.22321C15.6043 5.12459 15.6338 4.93528 15.5351 4.80076C15.4373 4.66699 15.248 4.63639 15.1127 4.73539C14.5126 5.17409 13.5173 5.95362 12.8228 6.73919C13.3227 5.66266 14.4465 4.20978 15.404 3.50997ZM11.2105 6.81855C10.2076 5.64982 8.28053 4.23925 6.7192 3.34863C6.61189 3.28817 6.50571 3.22884 6.39953 3.17103C6.25178 3.0913 6.06928 3.14685 5.98955 3.29308C5.91019 3.44007 5.96498 3.62333 6.1116 3.70306C6.21437 3.75823 6.31715 3.81567 6.41993 3.87423C7.83994 4.68437 9.64878 5.99405 10.6297 7.0736C10.4147 6.98518 10.2602 6.89865 10.0444 6.76829C10.0384 6.76451 10.0312 6.76451 10.0247 6.76111C10.0187 6.75809 10.0149 6.75242 10.0089 6.7494L2.78866 3.3679V2.54491C3.05052 2.58307 3.3086 2.62691 3.56442 2.68094C3.5648 2.68094 3.56555 2.68094 3.56593 2.68094C3.60334 2.68888 3.64188 2.69303 3.68156 2.69303H3.68193C3.7012 2.69303 3.71934 2.68925 3.73786 2.68736C3.98271 2.76898 4.21963 2.85174 4.44635 2.93902C4.48187 2.95263 4.51815 2.95905 4.55442 2.95905C4.67571 2.95905 4.79058 2.88537 4.83668 2.76483C4.89639 2.60915 4.81855 2.4342 4.66249 2.37449C4.52381 2.32159 4.38211 2.2702 4.23853 2.21957C4.24306 2.19161 4.24684 2.16327 4.24722 2.13417C4.24722 2.13266 4.24759 2.13077 4.24759 2.12926C4.24759 2.12851 4.24797 2.12737 4.24797 2.12662V1.22768C5.07436 1.44722 6.65345 2.09147 8.59529 3.50997C9.57245 4.22414 10.728 5.73219 11.2105 6.81855Z" fill="#087464"/>
<path d="M2.4513 7.3831C2.28429 7.38952 2.1543 7.52971 2.15997 7.69635L2.17584 8.11993C2.18226 8.28317 2.31603 8.41089 2.47775 8.41089C2.48191 8.41089 2.48569 8.41089 2.48947 8.41089C2.6561 8.40408 2.78647 8.2639 2.78042 8.09726L2.76455 7.67443C2.75813 7.50704 2.5998 7.38537 2.4513 7.3831Z" fill="#087464"/>
<path d="M3.67864 5.56516L2.46759 5.01386C2.36935 4.96927 2.25485 4.98023 2.16681 5.04295C2.07877 5.10568 2.03116 5.21072 2.04174 5.31842C2.04212 5.32371 2.09048 5.82815 2.12411 6.72445C2.13054 6.88768 2.2643 7.0154 2.42603 7.0154C2.43018 7.0154 2.43396 7.0154 2.43774 7.0154C2.60438 7.00898 2.73474 6.86841 2.7287 6.70177C2.71434 6.32013 2.69733 6.00991 2.6826 5.77639L3.42888 6.11609C3.58002 6.18523 3.75988 6.11798 3.82941 5.96607C3.89781 5.81417 3.83055 5.63469 3.67864 5.56516Z" fill="#087464"/>
<path d="M18.7924 14.691L18.5544 14.8145C18.4059 14.8912 18.3481 15.0737 18.4251 15.2219C18.4788 15.3254 18.5842 15.3851 18.6938 15.3851C18.7407 15.3851 18.7879 15.3745 18.8325 15.3511L19.0705 15.2283C19.2187 15.1516 19.2765 14.9687 19.2001 14.8206C19.1238 14.6732 18.9421 14.6146 18.7924 14.691Z" fill="#087464"/>
<path d="M21.1678 13.2313C21.005 13.2169 20.8599 13.3522 20.8519 13.5192L20.8466 13.6281L19.5589 14.295C19.4104 14.3717 19.3526 14.5542 19.4297 14.7023C19.4833 14.8059 19.5887 14.8656 19.6983 14.8656C19.7452 14.8656 19.7924 14.855 19.837 14.8316L21.2793 14.0849C21.3757 14.035 21.4376 13.9375 21.4425 13.8298L21.4554 13.5472C21.4633 13.3802 21.3345 13.2389 21.1678 13.2313Z" fill="#087464"/>
<path d="M21.2227 11.9805C21.0685 11.9707 20.9147 12.1018 20.9075 12.2692L20.8887 12.6936C20.8807 12.8602 21.0103 13.0011 21.1773 13.0087C21.1819 13.0091 21.186 13.0091 21.1909 13.0091C21.3515 13.0091 21.4853 12.8825 21.4925 12.72L21.5114 12.2957C21.5185 12.129 21.3897 11.9881 21.2227 11.9805Z" fill="#087464"/>
</svg>
