<svg width="26" height="24" viewBox="0 0 26 24" fill="none" xmlns="http://www.w3.org/2000/svg">
<g clip-path="url(#clip0)">
<path d="M0.284316 9.30914C0.14224 9.60005 0.000163328 10.0364 0.000163328 10.4728C-0.28399 12.3637 1.13678 14.1091 2.98377 14.4C3.41 14.4 3.69415 14.4 4.12038 14.4L4.54661 14.2546L6.39361 18.4728L5.96738 18.7637C5.54115 19.0546 5.39907 19.491 5.25699 20.0728C5.11492 21.2364 5.96738 22.2546 7.10399 22.4C7.95645 22.5455 8.80891 22.1091 9.23514 21.2364L9.37721 20.9455L14.7761 21.5273V21.9637C15.0603 23.4182 16.339 24.4364 17.7597 24.1455C19.1805 23.8546 20.175 22.5455 19.8909 21.091C19.8909 20.6546 19.6067 20.2182 19.3226 19.9273L19.0384 19.6364L22.022 15.5637L22.4483 15.7091C23.7269 16.1455 25.1477 15.5637 25.716 14.2546C25.716 14.2546 25.8581 13.9637 25.8581 13.5273C25.8581 13.091 25.8581 12.8 25.8581 12.8C25.8581 12.3637 25.5739 11.7819 25.2898 11.491C25.1477 11.3455 25.0056 11.2 24.8636 11.0546C24.2952 10.6182 23.5849 10.4728 22.8745 10.6182H22.5903L21.3116 6.98187L21.5958 6.83641C23.3007 5.67277 23.7269 3.3455 22.5903 1.7455C22.5903 1.60005 22.4483 1.60005 22.4483 1.45459L22.3062 1.30914L21.8799 0.872774L21.3116 0.581865C19.4646 -0.290863 17.3335 0.43641 16.481 2.32732C16.339 2.47277 16.339 2.61823 16.339 2.76368L15.7707 2.90914L11.5084 2.32732V2.03641C11.3663 1.7455 11.2242 1.45459 11.0821 1.16368C10.9401 1.01823 10.798 0.872774 10.6559 0.727319C9.80344 4.6581e-05 8.38268 0.290956 7.81437 1.16368C7.24607 1.89096 7.24607 2.90914 7.6723 3.63641L7.95645 3.92732L5.25699 7.70914L4.83077 7.56368C3.12585 6.83641 1.13678 7.56368 0.284316 9.30914ZM19.3226 21.6728C19.1805 22.691 18.328 23.5637 17.1914 23.4182C16.1969 23.2728 15.3444 22.4001 15.4865 21.2364C15.6286 20.2182 16.481 19.3455 17.6177 19.491C18.6122 19.6364 19.4646 20.5091 19.3226 21.6728ZM22.1641 11.491C23.0166 10.7637 24.1532 10.9091 24.8636 11.7819C25.1477 12.2182 25.2898 12.6546 25.2898 13.2364C25.2898 13.8182 25.0056 14.2546 24.5794 14.5455C23.7269 15.2728 22.5903 15.1273 21.8799 14.2546C21.1696 13.5273 21.3116 12.2182 22.1641 11.491ZM17.6177 1.45459C18.8963 0.43641 20.7433 0.581865 21.7379 1.89096C22.7324 3.20005 22.5903 5.09096 21.3116 6.10914C20.3171 6.98186 18.7543 6.98187 17.7597 6.25459C17.6177 6.10914 17.3335 5.96368 17.1914 5.67277C16.7652 5.09096 16.481 4.21823 16.6231 3.49096C16.6231 2.61823 17.0493 1.89096 17.6177 1.45459ZM8.80891 4.50914C8.95098 4.50914 9.09306 4.50914 9.09306 4.65459C9.94552 4.80005 10.798 4.36368 11.2242 3.49096L11.5084 3.05459L15.7707 3.63641V4.07277C15.9127 6.10914 17.6177 7.70914 19.6067 7.41823C19.7488 7.41823 19.8909 7.41823 20.175 7.27277H20.6013L22.022 10.7637L21.7379 10.9091C20.6013 11.7819 20.4592 13.5273 21.3116 14.691L21.5958 14.9819L18.6122 19.0546L18.328 18.9091C17.0493 18.3273 15.4865 19.0546 15.0603 20.3637L14.9182 20.6546L9.51929 20.0728V19.6364C9.37721 19.2 9.09306 18.7637 8.66683 18.4728C8.38268 18.1819 8.09853 18.1819 7.6723 18.0364C7.53022 18.0364 7.38814 18.0364 7.24607 18.0364L6.81984 18.1819L5.11492 13.9637L5.39907 13.6728C6.25153 13.091 6.67776 12.2182 6.81984 11.2C6.96191 10.3273 6.67776 9.30914 6.10945 8.58187L5.96738 8.43641L5.8253 8.1455L8.52476 4.36368L8.80891 4.50914ZM5.54115 9.01823C6.53568 10.1819 6.25153 11.9273 5.11492 12.9455C4.12038 13.6728 2.84169 13.8182 1.84716 13.091C1.70508 12.9455 1.42093 12.6546 1.27885 12.5091C0.284316 11.3455 0.56847 9.60005 1.70508 8.58187C2.98377 7.70914 4.68869 7.85459 5.54115 9.01823Z" fill="#42BDAA"/>
<path d="M12.9288 7.41821C10.3714 7.41821 8.38232 9.45458 8.38232 12.0728C8.38232 14.6909 10.3714 16.7273 12.9288 16.7273C15.4861 16.7273 17.4752 14.6909 17.4752 12.0728C17.6173 9.45458 15.4861 7.41821 12.9288 7.41821ZM12.9288 15.1273C11.3659 15.1273 9.94516 13.6728 9.94516 12.0728C9.94516 10.3273 11.3659 8.87276 12.9288 8.87276C14.6337 8.87276 15.9124 10.1818 15.9124 11.9273C16.0545 13.6728 14.6337 15.1273 12.9288 15.1273Z" fill="#42BDAA"/>
<path d="M12.9291 10.6182C12.2187 10.6182 11.6504 11.2 11.6504 11.9273C11.6504 12.6545 12.2187 13.2363 12.9291 13.2363C13.6395 13.2363 14.2078 12.6545 14.2078 11.9273C14.3498 11.3454 13.7815 10.6182 12.9291 10.6182Z" fill="#30C4AE"/>
<path d="M11.6502 8.5818L9.37695 2.61816" stroke="#42BDAA" stroke-width="0.75" stroke-miterlimit="10"/>
<path d="M11.6502 8.5818L9.37695 2.61816" stroke="#42BDAA" stroke-width="0.75" stroke-miterlimit="10"/>
<path d="M7.24609 20.2182L10.798 15.1273" stroke="#42BDAA" stroke-width="0.75" stroke-miterlimit="10"/>
</g>
<defs>
<clipPath id="clip0">
<rect width="26" height="24" fill="white"/>
</clipPath>
</defs>
</svg>
