<svg width="83" height="83" viewBox="0 0 83 83" fill="none" xmlns="http://www.w3.org/2000/svg">
<g clip-path="url(#clip0)">
<path d="M61.7314 74.648L63.1321 76.6193C64.0139 76.1006 64.8439 75.5299 65.6739 74.9593L64.1177 73.0918C63.3396 73.6105 62.5096 74.1293 61.7314 74.648Z" fill="#067362"/>
<path d="M68.0086 73.1437C68.7868 72.5212 69.5649 71.8468 70.2911 71.1724L68.4755 69.5125C67.8011 70.135 67.0749 70.7575 66.3486 71.38L68.0086 73.1437Z" fill="#067362"/>
<path d="M76.101 64.4289C76.6716 63.6507 77.1904 62.7689 77.7091 61.9389L75.4785 60.7976C75.0116 61.5757 74.4929 62.3539 73.9741 63.132L76.101 64.4289Z" fill="#067362"/>
<path d="M51.1489 79.2132L51.8752 81.4438C52.8608 81.1844 53.8464 80.8732 54.7802 80.51L53.9502 78.3313C53.0164 78.6425 52.0827 78.9538 51.1489 79.2132Z" fill="#067362"/>
<path d="M80.0954 37.1944L82.5854 36.8832C82.4298 35.9494 82.2742 34.9638 82.0667 34.03L79.5767 34.4969C79.7842 35.3788 79.9398 36.3125 80.0954 37.1944Z" fill="#067362"/>
<path d="M81.2365 54.0019C81.5477 53.0681 81.7552 52.1344 82.0146 51.2006L79.5246 50.6819C79.3171 51.5638 79.0577 52.4456 78.7983 53.3275L81.2365 54.0019Z" fill="#067362"/>
<path d="M80.4582 41.6557C80.4582 41.967 80.4582 42.2782 80.4582 42.6413H83.0001C83.0001 42.3301 83.0001 41.967 83.0001 41.6557C83.0001 41.0332 82.9482 40.3588 82.8964 39.7363L80.3545 39.892C80.4064 40.4626 80.4582 41.0332 80.4582 41.6557Z" fill="#067362"/>
<path d="M79.058 59.345C79.473 58.4631 79.888 57.5813 80.2511 56.6994L77.8649 55.8694C77.5536 56.6994 77.1386 57.5294 76.7236 58.3594L79.058 59.345Z" fill="#067362"/>
<path d="M72.3657 69.0456C73.04 68.3193 73.7144 67.5412 74.285 66.8149L72.2619 65.4143C71.6913 66.1406 71.0688 66.8668 70.4463 67.5412L72.3657 69.0456Z" fill="#067362"/>
<path d="M82.5331 48.3476C82.6887 47.4139 82.7925 46.4282 82.8443 45.4945L80.3025 45.3389C80.2506 46.2207 80.1468 47.1545 79.9912 48.0364L82.5331 48.3476Z" fill="#067362"/>
<path d="M57.6851 79.4207C58.6188 79.0057 59.5526 78.5907 60.4345 78.1238L59.1895 76.0488C58.3595 76.4638 57.4776 76.8788 56.5957 77.2938L57.6851 79.4207Z" fill="#067362"/>
<path d="M18.6749 10.1675L17.1187 8.30005C16.2887 8.87067 15.5105 9.49317 14.7324 10.1675L16.3924 11.9313C17.1187 11.3088 17.8968 10.7382 18.6749 10.1675Z" fill="#067362"/>
<path d="M12.5018 12.1387C11.7755 12.813 11.1011 13.5393 10.4268 14.2655L12.3461 15.7699C12.9686 15.0955 13.643 14.4212 14.3174 13.7468L12.5018 12.1387Z" fill="#067362"/>
<path d="M5.18762 21.4763C4.72074 22.3063 4.25387 23.1882 3.83887 24.0701L6.17324 25.0038C6.58824 24.1738 7.00324 23.3438 7.47012 22.5657L5.18762 21.4763Z" fill="#067362"/>
<path d="M28.7908 4.7725L27.857 2.59375C26.9233 2.95687 25.9377 3.32 25.0039 3.735L26.0933 5.86188C26.9752 5.49875 27.9089 5.13562 28.7908 4.7725Z" fill="#067362"/>
<path d="M0.933789 32.2661C0.726289 33.1999 0.570664 34.1855 0.415039 35.1192L2.90504 35.4305C3.00879 34.5486 3.21629 33.6149 3.42379 32.733L0.933789 32.2661Z" fill="#067362"/>
<path d="M2.74951 44.5087C2.69764 44.1975 2.69764 43.8862 2.64576 43.575L0.155762 43.7825C0.155762 44.0937 0.207637 44.4568 0.259512 44.7681C0.311387 45.3906 0.415137 46.0131 0.518887 46.6356L3.00889 46.2725C2.85326 45.65 2.80139 45.0793 2.74951 44.5087Z" fill="#067362"/>
<path d="M2.64566 26.7156C2.28254 27.5975 1.97129 28.5312 1.71191 29.465L4.09816 30.0875C4.35754 29.2056 4.66879 28.3756 4.98004 27.4937L2.64566 26.7156Z" fill="#067362"/>
<path d="M8.5074 16.5481C7.8849 17.3262 7.31428 18.1043 6.74365 18.9343L8.87053 20.1793C9.38928 19.4012 9.9599 18.675 10.5305 17.9487L8.5074 16.5481Z" fill="#067362"/>
<path d="M0.10375 37.9724C0.051875 38.9062 0 39.8918 0 40.8774H2.54188C2.54188 39.9955 2.54188 39.0618 2.64563 38.1799L0.10375 37.9724Z" fill="#067362"/>
<path d="M34.3415 3.16434L33.7708 0.881836C32.7852 1.08934 31.7477 1.34871 30.814 1.65996L31.5402 3.89059C32.474 3.63121 33.4077 3.37184 34.3415 3.16434Z" fill="#067362"/>
<path d="M22.3063 5.08374C21.4244 5.55062 20.5425 6.06936 19.6606 6.58811L21.0613 8.55936C21.8913 8.04061 22.7213 7.57374 23.5513 7.10686L22.3063 5.08374Z" fill="#067362"/>
<path d="M45.5981 80.1987C27.5975 81.9624 10.3231 70.7574 4.5131 53.5868C4.3056 52.9124 3.52747 52.4974 2.8531 52.7568C2.17872 52.9643 1.8156 53.7424 2.0231 54.4168C8.19622 72.7805 26.6637 84.7118 45.9094 82.8443H45.9612C46.6875 82.7405 47.1544 82.118 47.1025 81.3918C46.9987 80.6655 46.3244 80.0949 45.5981 80.1987Z" fill="#067362"/>
<path d="M38.595 2.69745C56.3362 1.5562 72.6769 12.5537 78.3312 29.4131C78.5387 30.0356 79.1612 30.3987 79.7837 30.295C79.8875 30.295 79.9394 30.2431 80.0431 30.2431C80.7175 30.0356 81.0806 29.2575 80.8731 28.5831C74.8037 10.5825 57.3737 -1.1413 38.4394 0.0518282C37.7131 0.103703 37.1944 0.726203 37.2462 1.45245C37.2462 2.1787 37.8687 2.74933 38.595 2.69745Z" fill="#067362"/>
</g>
<defs>
<clipPath id="clip0">
<rect width="83" height="83" fill="white"/>
</clipPath>
</defs>
</svg>
