<svg width="150" height="19" viewBox="0 0 150 19" fill="none" xmlns="http://www.w3.org/2000/svg">
<path d="M58.9063 1.20145C58.398 1.20145 57.9821 1.61734 57.9821 2.12566V15.4344C57.9821 15.9427 58.398 16.3586 58.9063 16.3586C59.4146 16.3586 59.8305 15.9427 59.8305 15.4344V2.12566C59.8305 1.61734 59.4146 1.20145 58.9063 1.20145Z" fill="white"/>
<path d="M17.2335 1.15524H3.55805C3.04984 1.15524 2.63403 1.57114 2.63403 2.07946C2.63403 2.58778 3.04984 3.00367 3.55805 3.00367H17.2335C17.7417 3.00367 18.1575 2.58778 18.1575 2.07946C18.1575 1.57114 17.7417 1.15524 17.2335 1.15524Z" fill="white"/>
<path d="M12.6134 7.8558H3.55805C3.04984 7.8558 2.63403 8.2717 2.63403 8.78002C2.63403 9.28834 3.04984 9.70423 3.55805 9.70423H12.6134C13.1216 9.70423 13.5374 9.28834 13.5374 8.78002C13.5374 8.2717 13.1216 7.8558 12.6134 7.8558Z" fill="white"/>
<path d="M17.2335 14.6026H3.55805C3.04984 14.6026 2.63403 15.0185 2.63403 15.5268C2.63403 16.0351 3.04984 16.451 3.55805 16.451H17.2335C17.7417 16.451 18.1575 16.0351 18.1575 15.5268C18.1575 15.0185 17.7417 14.6026 17.2335 14.6026Z" fill="white"/>
<path d="M98.362 1.15524C97.8536 1.15524 97.4377 1.57114 97.4377 2.07946V15.4806C97.4377 15.9889 97.8536 16.4048 98.362 16.4048C98.8703 16.4048 99.2862 15.9889 99.2862 15.4806V2.07946C99.2862 1.57114 98.8703 1.15524 98.362 1.15524Z" fill="white"/>
<path d="M116.426 1.15524C115.918 1.15524 115.502 1.57114 115.502 2.07946V15.4806C115.502 15.9889 115.918 16.4048 116.426 16.4048C116.935 16.4048 117.351 15.9889 117.351 15.4806V2.07946C117.351 1.57114 116.935 1.15524 116.426 1.15524Z" fill="white"/>
<path d="M110.605 7.16262L107.787 10.0277C107.648 10.1663 107.371 10.1663 107.232 10.0277L99.1472 1.57112C98.7776 1.20143 98.2232 1.20143 97.8536 1.57112C97.484 1.9408 97.484 2.54154 97.8536 2.86502L105.939 11.3216C106.355 11.7375 106.955 11.9685 107.51 11.9685C108.064 11.9685 108.665 11.7375 109.08 11.3216L111.899 8.45652C112.268 8.08683 112.268 7.48609 111.899 7.16262C111.575 6.79293 110.975 6.79293 110.605 7.16262Z" fill="white"/>
<path d="M31.0011 1.20145C30.4927 1.20145 30.0768 1.61734 30.0768 2.12566V15.4344C30.0768 15.9427 30.4927 16.3586 31.0011 16.3586C31.5094 16.3586 31.9253 15.9427 31.9253 15.4344V2.17187C31.9253 1.61734 31.5094 1.20145 31.0011 1.20145Z" fill="white"/>
<path d="M45.1385 1.20145C44.6302 1.20145 44.2143 1.61734 44.2143 2.12566V15.4344C44.2143 15.9427 44.6302 16.3586 45.1385 16.3586C45.6468 16.3586 46.0627 15.9427 46.0627 15.4344V2.17187C46.0627 1.61734 45.6468 1.20145 45.1385 1.20145Z" fill="white"/>
<path d="M31.7863 1.57114C31.4167 1.20146 30.8623 1.20146 30.4927 1.52493C30.1231 1.89462 30.1231 2.44914 30.4465 2.81883L39.086 11.5989C39.2708 11.7837 39.5019 11.8761 39.7791 11.8761C40.0101 11.8761 40.2411 11.7837 40.4259 11.5989C40.7955 11.2292 40.7955 10.6747 40.4721 10.305L31.7863 1.57114Z" fill="white"/>
<path d="M79.327 14.6026C76.1391 14.6026 73.5519 12.0148 73.5519 8.82622C73.5519 5.63768 76.1391 3.04988 79.327 3.04988C79.8352 3.04988 80.251 2.63398 80.251 2.12566C80.251 1.61734 79.8352 1.20145 79.327 1.20145C75.1227 1.20145 71.7039 4.62104 71.7039 8.87243C71.7039 13.0776 75.1227 16.5434 79.327 16.5434C79.8352 16.5434 80.251 16.1275 80.251 15.6192C80.251 15.1109 79.8352 14.6026 79.327 14.6026Z" fill="white"/>
<path d="M83.3465 7.8558H79.327C78.8188 7.8558 78.403 8.2717 78.403 8.78002C78.403 9.28834 78.8188 9.70423 79.327 9.70423H83.3465C83.5775 9.70423 83.7161 9.88908 83.7161 10.0739V14.0943C83.7161 14.6026 84.1319 15.0185 84.6401 15.0185C85.1483 15.0185 85.5641 14.6026 85.5641 14.0943V10.0739C85.5641 8.87244 84.5477 7.8558 83.3465 7.8558Z" fill="white"/>
<path d="M137.54 0.831757C132.966 0.831757 129.224 4.38998 129.224 8.82621C129.224 12.2458 131.442 15.1571 134.537 16.3123C135.184 16.5434 135.877 16.0351 135.877 15.3419C135.877 14.926 135.6 14.5101 135.184 14.3715C132.781 13.4935 131.072 11.3678 131.072 8.82621C131.072 5.54525 133.936 2.86503 137.494 2.86503C141.051 2.86503 143.916 5.54525 143.916 8.82621C143.916 11.3678 142.206 13.5397 139.804 14.3715C139.388 14.5101 139.111 14.8798 139.111 15.3419C139.111 16.0351 139.804 16.5434 140.451 16.3123C143.546 15.1571 145.764 12.2458 145.764 8.82621C145.81 4.43619 142.114 0.831757 137.54 0.831757Z" fill="white"/>
</svg>
