<svg width="226" height="28" viewBox="0 0 226 28" fill="none" xmlns="http://www.w3.org/2000/svg">
<path d="M88.7707 1.80664C88.0047 1.80664 87.3779 2.43195 87.3779 3.19622V23.2061C87.3779 23.9704 88.0047 24.5957 88.7707 24.5957C89.5367 24.5957 90.1635 23.9704 90.1635 23.2061V3.19622C90.1635 2.43195 89.5367 1.80664 88.7707 1.80664Z" fill="white"/>
<path d="M25.9705 1.73706H5.36172C4.59586 1.73706 3.96924 2.36237 3.96924 3.12664C3.96924 3.89091 4.59586 4.51622 5.36172 4.51622H25.9705C26.7363 4.51622 27.363 3.89091 27.363 3.12664C27.363 2.36237 26.7363 1.73706 25.9705 1.73706Z" fill="white"/>
<path d="M19.0081 11.8115H5.36172C4.59586 11.8115 3.96924 12.4368 3.96924 13.2011C3.96924 13.9654 4.59586 14.5907 5.36172 14.5907H19.0081C19.7739 14.5907 20.4005 13.9654 20.4005 13.2011C20.4005 12.4368 19.7739 11.8115 19.0081 11.8115Z" fill="white"/>
<path d="M25.9705 21.9553H5.36172C4.59586 21.9553 3.96924 22.5806 3.96924 23.3449C3.96924 24.1092 4.59586 24.7345 5.36172 24.7345H25.9705C26.7363 24.7345 27.363 24.1092 27.363 23.3449C27.363 22.5806 26.7363 21.9553 25.9705 21.9553Z" fill="white"/>
<path d="M148.23 1.73706C147.464 1.73706 146.837 2.36237 146.837 3.12664V23.2755C146.837 24.0398 147.464 24.6651 148.23 24.6651C148.996 24.6651 149.622 24.0398 149.622 23.2755V3.12664C149.622 2.36237 148.996 1.73706 148.23 1.73706Z" fill="white"/>
<path d="M175.453 1.73706C174.687 1.73706 174.06 2.36237 174.06 3.12664V23.2755C174.06 24.0398 174.687 24.6651 175.453 24.6651C176.219 24.6651 176.846 24.0398 176.846 23.2755V3.12664C176.846 2.36237 176.219 1.73706 175.453 1.73706Z" fill="white"/>
<path d="M166.68 10.7694L162.433 15.0771C162.224 15.2855 161.806 15.2855 161.597 15.0771L149.413 2.36243C148.856 1.8066 148.021 1.8066 147.464 2.36243C146.907 2.91826 146.907 3.82149 147.464 4.30784L159.648 17.0225C160.274 17.6478 161.18 17.9952 162.015 17.9952C162.851 17.9952 163.756 17.6478 164.382 17.0225L168.629 12.7148C169.186 12.159 169.186 11.2557 168.629 10.7694C168.142 10.2135 167.237 10.2135 166.68 10.7694Z" fill="white"/>
<path d="M46.718 1.80664C45.9519 1.80664 45.3252 2.43195 45.3252 3.19622V23.2061C45.3252 23.9704 45.9519 24.5957 46.718 24.5957C47.484 24.5957 48.1108 23.9704 48.1108 23.2061V3.2657C48.1108 2.43195 47.484 1.80664 46.718 1.80664Z" fill="white"/>
<path d="M68.0227 1.80664C67.2566 1.80664 66.6299 2.43195 66.6299 3.19622V23.2061C66.6299 23.9704 67.2566 24.5957 68.0227 24.5957C68.7887 24.5957 69.4154 23.9704 69.4154 23.2061V3.2657C69.4154 2.43195 68.7887 1.80664 68.0227 1.80664Z" fill="white"/>
<path d="M47.9013 2.36227C47.3443 1.80644 46.5088 1.80644 45.9518 2.29279C45.3948 2.84862 45.3948 3.68237 45.8822 4.2382L58.9019 17.4392C59.1804 17.7171 59.5285 17.8561 59.9462 17.8561C60.2944 17.8561 60.6425 17.7171 60.921 17.4392C61.478 16.8834 61.478 16.0496 60.9906 15.4938L47.9013 2.36227Z" fill="white"/>
<path d="M119.545 21.9555C114.741 21.9555 110.842 18.0647 110.842 13.2707C110.842 8.47662 114.741 4.5858 119.545 4.5858C120.311 4.5858 120.937 3.96049 120.937 3.19622C120.937 2.43195 120.311 1.80664 119.545 1.80664C113.209 1.80664 108.057 6.94808 108.057 13.3401C108.057 19.6627 113.209 24.8736 119.545 24.8736C120.311 24.8736 120.937 24.2483 120.937 23.4841C120.937 22.7198 120.311 21.9555 119.545 21.9555Z" fill="white"/>
<path d="M125.602 11.8115H119.544C118.778 11.8115 118.152 12.4368 118.152 13.2011C118.152 13.9654 118.778 14.5907 119.544 14.5907H125.602C125.95 14.5907 126.159 14.8686 126.159 15.1465V21.1912C126.159 21.9554 126.785 22.5808 127.551 22.5808C128.317 22.5808 128.944 21.9554 128.944 21.1912V15.1465C128.944 13.3401 127.412 11.8115 125.602 11.8115Z" fill="white"/>
<path d="M207.271 1.25049C200.378 1.25049 194.739 6.60036 194.739 13.2703C194.739 18.4118 198.081 22.7889 202.746 24.5259C203.72 24.8733 204.765 24.109 204.765 23.0669C204.765 22.4416 204.347 21.8162 203.72 21.6078C200.1 20.2877 197.524 17.0917 197.524 13.2703C197.524 8.33734 201.84 4.30756 207.201 4.30756C212.563 4.30756 216.879 8.33734 216.879 13.2703C216.879 17.0917 214.303 20.3572 210.683 21.6078C210.056 21.8162 209.638 22.3721 209.638 23.0669C209.638 24.109 210.683 24.8733 211.657 24.5259C216.322 22.7889 219.664 18.4118 219.664 13.2703C219.734 6.66984 214.164 1.25049 207.271 1.25049Z" fill="white"/>
</svg>
