<svg width="13" height="13" viewBox="0 0 13 13" fill="none" xmlns="http://www.w3.org/2000/svg">
<g clip-path="url(#clip0)">
<path d="M8.72993 0.0491264C8.63504 0.0018537 8.54015 0.0018537 8.39781 0.0491264C8.30292 0.0963991 8.20803 0.190945 8.16058 0.28549L7.87591 1.04185C6.73723 0.710945 5.5511 0.710945 4.36496 1.04185C1.94526 1.75094 0 4.06731 0 6.90367C0 10.3073 2.75182 13.0491 6.16788 13.0491C9.5365 13.0491 12.2883 10.3073 12.2883 6.90367C12.2883 6.19458 12.1934 5.62731 12.0036 5.06004L12.7628 4.7764C13 4.68185 13.0949 4.44549 13 4.2564C12.2409 2.31822 10.6752 0.758217 8.72993 0.0491264ZM7.63869 1.79822L6.26277 5.43822L5.07664 1.70367C5.88321 1.56185 6.78467 1.60913 7.63869 1.79822ZM11.4343 6.90367C11.4343 9.83458 9.06204 12.1982 6.16788 12.1982C3.22628 12.1982 0.854015 9.83458 0.854015 6.90367C0.806569 4.68185 2.22993 2.74367 4.27007 1.98731C5.93066 7.18731 5.78832 6.8564 5.83577 6.90367C5.93066 7.09276 6.16788 7.18731 6.35766 7.14004L11.2445 5.39094C11.3394 5.76913 11.4343 6.28913 11.4343 6.90367ZM6.92701 6.05276L8.82482 0.994581C10.2482 1.6564 11.3869 2.79094 12.0511 4.20913L6.92701 6.05276Z" fill="#8C9C9A"/>
<path d="M3.3213 6.90177C3.3213 6.66541 3.13152 6.47632 2.89429 6.47632C2.65707 6.47632 2.46729 6.66541 2.46729 6.90177C2.46729 8.9345 4.12787 10.5418 6.12057 10.5418C6.3578 10.5418 6.54758 10.3527 6.54758 10.1163C6.54758 9.87995 6.3578 9.69086 6.12057 9.69086C4.55488 9.73814 3.3213 8.46177 3.3213 6.90177Z" fill="#8C9C9A"/>
</g>
<defs>
<clipPath id="clip0">
<rect width="13" height="13" fill="white"/>
</clipPath>
</defs>
</svg>
