<svg width="31" height="28" viewBox="0 0 31 28" fill="none" xmlns="http://www.w3.org/2000/svg">
<g clip-path="url(#clip0)">
<path d="M0.334998 10.708C0.16742 11.0459 -0.000157837 11.5528 -0.000157837 12.0597C-0.335313 14.2562 1.34046 16.2838 3.51897 16.6217C4.02171 16.6217 4.35686 16.6217 4.8596 16.6217L5.36233 16.4527L7.54084 21.3527L7.03811 21.6906C6.53537 22.0285 6.3678 22.5354 6.20022 23.2113C6.03264 24.563 7.03811 25.7457 8.37873 25.9147C9.3842 26.0836 10.3897 25.5767 10.8924 24.563L11.06 24.225L17.4279 24.9009V25.4078C17.7631 27.0974 19.2713 28.2801 20.9471 27.9422C22.6228 27.6043 23.7959 26.0836 23.4607 24.394C23.4607 23.8871 23.1256 23.3802 22.7904 23.0423L22.4553 22.7044L25.9744 17.9734L26.4771 18.1424C27.9853 18.6493 29.6611 17.9734 30.3314 16.4527C30.3314 16.4527 30.499 16.1148 30.499 15.6079C30.499 15.101 30.499 14.7631 30.499 14.7631C30.499 14.2562 30.1638 13.5804 29.8287 13.2425C29.6611 13.0735 29.4935 12.9045 29.3259 12.7356C28.6556 12.2287 27.8177 12.0597 26.9799 12.2287H26.6447L25.1365 8.00461L25.4717 7.83564C27.4826 6.48394 27.9853 3.78054 26.6447 1.92195C26.6447 1.75299 26.4771 1.75299 26.4771 1.58403L26.3095 1.41506L25.8068 0.908175L25.1365 0.57025C22.958 -0.443526 20.7375 -0.105499 19.6064 1.58396C19.1933 2.20097 19.0094 2.62957 19.0094 2.79853L18.601 3.27365L13.5736 2.5978V2.25988C13.4061 1.92195 13.2385 1.58403 13.0709 1.2461C12.9033 1.07714 12.7358 0.908175 12.5682 0.739212C11.5627 -0.105601 9.88693 0.232324 9.21662 1.2461C8.54631 2.09091 8.54631 3.27365 9.04904 4.11847L9.3842 4.45639L6.20022 8.84942L5.69749 8.68046C3.68655 7.83564 1.34046 8.68046 0.334998 10.708ZM22.7904 25.0698C22.6228 26.2526 21.6174 27.2664 20.2767 27.0974C19.1037 26.9284 18.0982 25.9147 18.2658 24.563C18.4334 23.3802 19.4389 22.3664 20.7795 22.5354C21.9525 22.7044 22.958 23.7181 22.7904 25.0698ZM26.142 13.2425C27.1474 12.3976 28.4881 12.5666 29.3259 13.5804C29.6611 14.0873 29.8287 14.5942 29.8287 15.27C29.8287 15.9459 29.4935 16.4527 28.9908 16.7907C27.9853 17.6355 26.6447 17.4665 25.8068 16.4527C24.9689 15.6079 25.1365 14.0873 26.142 13.2425ZM20.7795 1.58403C22.2877 0.401287 24.4662 0.57025 25.6392 2.09091C26.8123 3.61158 26.6447 5.80809 25.1365 6.99083C23.9635 8.00461 22.1201 8.00461 20.9471 7.15979C20.7795 6.99083 20.4443 6.82187 20.2767 6.48394C19.774 5.80809 19.4389 4.79432 19.6064 3.9495C19.6064 2.93573 20.1092 2.09091 20.7795 1.58403ZM10.3897 5.13224C10.5572 5.13224 10.7248 5.13224 10.7248 5.3012C11.7303 5.47017 12.7357 4.96328 13.2385 3.9495L13.5736 3.44262L18.601 4.11847V4.62535C18.7685 6.99083 20.7795 8.84942 23.1256 8.51149C23.2931 8.51149 23.4607 8.51149 23.7959 8.34253H24.2986L25.9744 12.3976L25.6392 12.5666C24.2986 13.5804 24.131 15.6079 25.1365 16.9596L25.4717 17.2976L21.9525 22.0285L21.6174 21.8595C20.1092 21.1837 18.2658 22.0285 17.7631 23.5492L17.5955 23.8871L11.2275 23.2113V22.7044C11.06 22.1975 10.7248 21.6906 10.2221 21.3527C9.88693 21.0147 9.55177 21.0147 9.04904 20.8458C8.88146 20.8458 8.71388 20.8458 8.54631 20.8458L8.04357 21.0147L6.03264 16.1148L6.3678 15.7769C7.37326 15.101 7.876 14.0873 8.04357 12.9045C8.21115 11.8907 7.876 10.708 7.20569 9.8632L7.03811 9.69423L6.87053 9.35631L10.0545 4.96328L10.3897 5.13224ZM6.53537 10.3701C7.70842 11.7218 7.37326 13.7493 6.03264 14.9321C4.8596 15.7769 3.3514 15.9459 2.17835 15.101C2.01077 14.9321 1.67562 14.5942 1.50804 14.4252C0.334998 13.0735 0.670153 11.0459 2.01078 9.8632C3.51897 8.84942 5.52991 9.01838 6.53537 10.3701Z" fill="#495352"/>
<path d="M8.09961 12.8333L15.6208 14M15.6208 14L20.8278 7M15.6208 14L19.6706 22.1667" stroke="#495352"/>
</g>
<defs>
<clipPath id="clip0">
<rect width="30.8" height="28" fill="white"/>
</clipPath>
</defs>
</svg>
