<svg width="34" height="32" viewBox="0 0 34 32" fill="none" xmlns="http://www.w3.org/2000/svg">
<g clip-path="url(#clip0)">
<path d="M26.6667 27.1476C26.4 27.4099 26.1334 27.541 25.8667 27.8033L25.7334 27.9345L26.5334 28.9836L26.6667 28.8525C26.9334 28.5902 27.3334 28.3279 27.6 28.1968L27.7334 28.0656L26.8 27.1476H26.6667Z" fill="#8C9C9A"/>
<path d="M29.4667 24.1311C29.3333 24.3934 29.0667 24.6557 28.8 24.918L28.6667 25.0492L29.7333 25.8361L29.8667 25.7049C30.1333 25.4426 30.2667 25.1803 30.5333 24.7869L30.6667 24.6557L29.4667 24V24.1311Z" fill="#8C9C9A"/>
<path d="M31.3333 20.3278C31.2 20.7213 31.0667 20.9836 30.9333 21.2459L30.8 21.377L32.1333 21.7705L32.2667 21.6393C32.4 21.2459 32.5333 20.9836 32.6667 20.5901V20.459L31.3333 20.0656V20.3278Z" fill="#8C9C9A"/>
<path d="M31.8667 16.1311V16.2623C31.8667 16.5245 31.8667 16.6557 31.8667 16.918V17.4426L33.0667 17.5737H33.3334V17.4426C33.3334 17.3114 33.3334 17.1803 33.3334 17.0491C33.3334 16.7868 33.3334 16.5245 33.3334 16.2623V16.1311H31.8667Z" fill="#8C9C9A"/>
<path d="M22.9334 29.3771C22.5334 29.5082 22.2667 29.6394 21.8667 29.7705L21.7334 29.9017L22.2667 31.082H22.4C22.8 30.9508 23.0667 30.8197 23.4667 30.6885L23.6 30.5574L22.9334 29.3771Z" fill="#8C9C9A"/>
<path d="M6.80002 4.59022C7.06669 4.32792 7.33335 4.19677 7.60002 3.93448L7.73335 3.80333L6.93335 2.75415L6.80002 2.8853C6.40002 3.14759 6.13335 3.40989 5.86669 3.67218L5.73335 3.80333L6.66669 4.72136L6.80002 4.59022Z" fill="#8C9C9A"/>
<path d="M4.00001 7.73775C4.13334 7.47546 4.40001 7.21316 4.66667 6.95087L4.8 6.81972L3.60001 6.03284L3.46667 6.16398C3.2 6.42628 3.06667 6.68857 2.8 7.08202L2.66667 7.21316L3.86667 7.8689L4.00001 7.73775Z" fill="#8C9C9A"/>
<path d="M2.2667 11.5409C2.40003 11.1475 2.53336 10.8852 2.6667 10.4918V10.3606L1.33336 9.96716V10.0983C1.20003 10.3606 1.0667 10.754 0.933365 11.1475V11.2786L2.2667 11.5409Z" fill="#8C9C9A"/>
<path d="M0.400024 15.7377H1.73336V15.4754C1.73336 15.2131 1.73336 15.082 1.73336 14.8197V14.2951L0.400024 14.1639V14.2951C0.400024 14.4262 0.400024 14.5574 0.400024 14.6885C0.400024 14.9508 0.400024 15.2131 0.400024 15.4754V15.7377Z" fill="#8C9C9A"/>
<path d="M10.4 2.36068C10.6667 2.22953 11.0667 2.09838 11.4667 1.96724L11.6 1.83609L11.0667 0.655762H10.9334C10.5334 0.786909 10.1334 0.918057 9.73337 1.18035H9.60004L10.2667 2.36068H10.4Z" fill="#8C9C9A"/>
<path d="M33.8667 9.70492C33.7334 9.57377 33.6 9.44262 33.4667 9.31148C33.3334 9.18033 33.0667 9.18033 32.9334 9.31148C32.8 9.44262 32.6667 9.57377 32.5334 9.70492L32.2667 10.4918C30 4.32787 24 0.131148 17.2 0H16.9334H15.6V8.52459C16 8.52459 16.4 8.39344 16.8 8.39344C17.4667 8.39344 18.1334 8.52459 18.6667 8.65574C19.2 8.78689 19.6 9.04918 20 9.31148C20.4 9.57377 20.6667 9.83607 20.9334 10.0984C21.2 10.3607 21.3334 10.7541 21.4667 11.1475L24.2667 10.2295C23.8667 9.18033 23.2 8.2623 22.1334 7.34426C21.2 6.55738 20 6.03279 18.5334 5.77049V1.57377C24.1334 2.09836 29.0667 5.77049 31.0667 11.0164L30.1334 10.4918C29.8667 10.2295 29.3334 10.3607 29.2 10.7541C29.0667 10.8852 29.0667 11.1475 29.0667 11.2787C29.0667 11.4098 29.2 11.6721 29.3334 11.6721L31.8667 13.2459C32 13.2459 32.1334 13.3771 32.1334 13.3771C32.2667 13.3771 32.2667 13.3771 32.4 13.3771C32.6667 13.3771 32.8 13.1148 32.8 12.9836L33.8667 10.3607C34 10.0984 34 9.83607 33.8667 9.70492Z" fill="#8C9C9A"/>
<path d="M13.4667 22.9508C12.5333 22.2951 11.8667 21.7705 11.4667 20.9836L8.66668 21.9016C9.20001 22.9508 10 24 11.2 24.7869C12.4 25.5738 13.8667 26.0984 15.4667 26.3607V30.5574C10 29.9016 5.20001 26.3607 3.06668 21.2459L3.73335 21.7705C4.00001 22.0328 4.53335 21.9016 4.66668 21.6394C4.80001 21.3771 4.80001 20.8525 4.53335 20.7213L2.13335 19.0164C2.00001 18.8853 1.73335 18.8853 1.60001 18.8853C1.33335 18.8853 1.20001 19.0164 1.20001 19.2787L1.22078e-05 21.7705C-0.133321 22.1639 1.21966e-05 22.5574 0.400012 22.6885C0.533346 22.6885 0.533346 22.6885 0.666679 22.6885C0.933345 22.6885 1.20001 22.5574 1.33335 22.2951L1.73335 21.3771C4.13335 27.541 10.1333 31.7377 16.8 32H17.0667H17.2C17.3333 32 17.3333 32 17.4667 32H18.4V26.4918V23.6066C18 23.6066 17.6 23.7377 17.2 23.7377C15.7333 23.7377 14.5333 23.4754 13.4667 22.9508Z" fill="#8C9C9A"/>
<path d="M22.6667 16.5246C22 16 21.2 15.6066 20.2667 15.3443C19.3333 14.9509 18.4 14.6886 17.2 14.4263C15.4667 14.0328 14.2667 13.5082 13.4667 13.1148C12.8 12.5902 12.4 12.0656 12.4 11.2787C12.4 10.8853 12.5333 10.623 12.6667 10.2296C12.8 9.83612 13.0667 9.57382 13.4667 9.31153C13.4667 9.18038 13.6 9.18038 13.7333 9.04923V6.03284C12.6667 6.29513 11.8667 6.81972 11.0667 7.47546C10 8.39349 9.46668 9.57382 9.33334 11.1476C9.33334 12.0656 9.46668 12.8525 9.73334 13.3771C10 14.0328 10.5333 14.5574 11.0667 14.9509C11.7333 15.3443 12.4 15.7378 13.3333 16.1312C14.1333 16.3935 15.2 16.7869 16.2667 17.0492C17.2 17.3115 18 17.5738 18.6667 17.705C19.3333 17.9673 19.8667 18.2296 20.4 18.4919C20.8 18.7541 21.2 19.0164 21.4667 19.4099C21.7333 19.8033 21.8667 20.1968 21.8667 20.5902C21.8667 21.1148 21.7333 21.5082 21.4667 21.9017C21.2 22.2951 20.9333 22.5574 20.5333 22.8197L20.4 22.9509V26.0984C20.6667 25.9673 21.0667 25.8361 21.3333 25.8361C22.1333 25.4427 22.8 25.0492 23.3333 24.5246C23.8667 24 24.2667 23.3443 24.5333 22.6886C24.8 22.0328 24.9333 21.3771 24.9333 20.5902C24.9333 19.6722 24.8 18.8853 24.4 18.2296C23.8667 17.5738 23.3333 17.0492 22.6667 16.5246Z" fill="#8C9C9A"/>
</g>
<defs>
<clipPath id="clip0">
<rect width="34" height="32" fill="white"/>
</clipPath>
</defs>
</svg>
