<svg width="32" height="28" viewBox="0 0 32 28" fill="none" xmlns="http://www.w3.org/2000/svg">
<g clip-path="url(#clip0)">
<path d="M0.339289 10.8606C0.169592 11.2 -0.000104722 11.7091 -0.000104722 12.2182C-0.339499 14.4242 1.35747 16.4606 3.56353 16.8C4.07262 16.8 4.41202 16.8 4.92111 16.8L5.4302 16.6303L7.63626 21.5515L7.12717 21.8909C6.61808 22.2303 6.44838 22.7394 6.27868 23.4182C6.10899 24.7758 7.12717 25.9636 8.48474 26.1333C9.50293 26.303 10.5211 25.7939 11.0302 24.7758L11.1999 24.4364L17.6484 25.1152V25.6242C17.9878 27.3212 19.515 28.5091 21.212 28.1697C22.909 27.8303 24.0969 26.303 23.7575 24.6061C23.7575 24.097 23.4181 23.5879 23.0787 23.2485L22.7393 22.9091L26.3029 18.1576L26.812 18.3273C28.3393 18.8364 30.0363 18.1576 30.715 16.6303C30.715 16.6303 30.8847 16.2909 30.8847 15.7818C30.8847 15.2727 30.8847 14.9333 30.8847 14.9333C30.8847 14.4242 30.5453 13.7455 30.206 13.4061C30.0363 13.2364 29.8666 13.0667 29.6969 12.897C29.0181 12.3879 28.1696 12.2182 27.3211 12.3879H26.9817L25.4544 8.14546L25.7938 7.97576C27.8302 6.61819 28.3393 3.90303 26.9817 2.03637C26.9817 1.86667 26.812 1.86667 26.812 1.69697L26.6423 1.52728L26.1332 1.01819L25.4544 0.678791C23.2484 -0.33939 20.7029 0.509095 19.6847 2.71516C19.515 2.88485 19.515 3.05455 19.515 3.22425L18.8363 3.39394L13.7454 2.71516V2.37576C13.5757 2.03637 13.406 1.69697 13.2363 1.35758C13.0666 1.18788 12.8969 1.01819 12.7272 0.848488C11.709 3.48687e-06 10.012 0.339397 9.33323 1.35758C8.65444 2.20606 8.65444 3.39394 9.16353 4.24243L9.50293 4.58182L6.27868 8.99394L5.76959 8.82425C3.73323 7.97576 1.35747 8.82425 0.339289 10.8606ZM23.0787 25.2849C22.909 26.4727 21.8908 27.4909 20.5332 27.3212C19.3454 27.1515 18.3272 26.1333 18.4969 24.7758C18.6666 23.5879 19.6847 22.5697 21.0423 22.7394C22.2302 22.9091 23.2484 23.9273 23.0787 25.2849ZM26.4726 13.4061C27.4908 12.5576 28.8484 12.7273 29.6969 13.7455C30.0363 14.2545 30.206 14.7636 30.206 15.4424C30.206 16.1212 29.8666 16.6303 29.3575 16.9697C28.3393 17.8182 26.9817 17.6485 26.1332 16.6303C25.2847 15.7818 25.4544 14.2545 26.4726 13.4061ZM21.0423 1.69697C22.5696 0.509095 24.7757 0.678791 25.9635 2.20606C27.1514 3.73334 26.9817 5.9394 25.4544 7.12728C24.2666 8.14546 22.3999 8.14546 21.212 7.29697C21.0423 7.12728 20.7029 6.95758 20.5332 6.61819C20.0241 5.9394 19.6847 4.92122 19.8544 4.07273C19.8544 3.05455 20.3635 2.20606 21.0423 1.69697ZM10.5211 5.26061C10.6908 5.26061 10.8605 5.26061 10.8605 5.43031C11.8787 5.6 12.8969 5.09091 13.406 4.07273L13.7454 3.56364L18.8363 4.24243V4.75152C19.006 7.12728 21.0423 8.99394 23.4181 8.65455C23.5878 8.65455 23.7575 8.65455 24.0969 8.48485H24.606L26.3029 12.5576L25.9635 12.7273C24.606 13.7455 24.4363 15.7818 25.4544 17.1394L25.7938 17.4788L22.2302 22.2303L21.8908 22.0606C20.3635 21.3818 18.4969 22.2303 17.9878 23.7576L17.8181 24.097L11.3696 23.4182V22.9091C11.1999 22.4 10.8605 21.8909 10.3514 21.5515C10.012 21.2121 9.67262 21.2121 9.16353 21.0424C8.99384 21.0424 8.82414 21.0424 8.65444 21.0424L8.14535 21.2121L6.10899 16.2909L6.44838 15.9515C7.46656 15.2727 7.97565 14.2545 8.14535 13.0667C8.31505 12.0485 7.97565 10.8606 7.29687 10.0121L7.12717 9.84243L6.95747 9.50303L10.1817 5.09091L10.5211 5.26061ZM6.61808 10.5212C7.80596 11.8788 7.46656 13.9152 6.10899 15.103C4.92111 15.9515 3.39383 16.1212 2.20596 15.2727C2.03626 15.103 1.69686 14.7636 1.52717 14.5939C0.339289 13.2364 0.678683 11.2 2.03626 10.0121C3.56353 8.99394 5.5999 9.16364 6.61808 10.5212Z" fill="#495352"/>
<path d="M15.1025 6.61819V8.14547V9.67274C15.2722 9.67274 15.4419 9.67274 15.7813 9.67274C16.1207 9.67274 16.4601 9.67274 16.7995 9.84244C17.1389 9.84244 17.3086 10.0121 17.4783 10.1818C17.648 10.3515 17.8177 10.5212 17.9874 10.6909C18.1571 10.8606 18.1571 11.0303 18.3268 11.2L19.6844 10.6909C19.5147 10.1818 19.1753 9.67274 18.6662 9.16365C18.1571 8.65456 17.4783 8.48486 16.7995 8.31516V6.61819H15.1025Z" fill="#495352"/>
<path d="M16.63 20.8728V19.3455V17.8182C16.4603 17.8182 16.2906 17.8182 15.9512 17.8182C15.1027 17.8182 14.5936 17.6485 14.0845 17.3091C13.5754 17.1394 13.236 16.8 12.8966 16.4606L11.5391 16.9697C11.7088 17.4788 12.2178 18.1576 12.8966 18.497C13.5754 19.0061 14.2542 19.1758 15.1027 19.3455V20.8728H16.63Z" fill="#495352"/>
<path d="M17.6481 17.4788C17.6481 17.4788 17.4784 17.4788 17.6481 17.4788L17.4784 19.1758C17.6481 19.1758 17.8178 19.0061 17.9875 19.0061C18.3269 18.8364 18.6663 18.6667 19.0057 18.3273C19.3451 17.9879 19.5148 17.6485 19.6845 17.3091C19.8542 16.9697 19.8542 16.6303 19.8542 16.1212C19.8542 15.6121 19.6845 15.2727 19.5148 14.9333C19.3451 14.5939 19.0057 14.2545 18.6663 14.0849C18.3269 13.9152 17.8178 13.5758 17.4784 13.4061C16.9693 13.2364 16.4602 13.0667 15.9511 12.897C15.1027 12.7273 14.4239 12.3879 14.0845 12.2182C13.5754 11.8788 13.4057 11.5394 13.4057 11.2C13.4057 11.0303 13.4057 10.8606 13.5754 10.6909C13.5754 10.5212 13.7451 10.3515 13.9148 10.1818C13.9148 10.1818 14.0845 10.1818 14.0845 10.0121V8.31516C13.5754 8.48485 13.0663 8.82425 12.7269 9.16364C12.2178 9.67273 11.8784 10.3515 11.8784 11.2C11.8784 11.7091 11.8784 12.0485 12.0481 12.3879C12.2178 12.7273 12.3875 13.0667 12.7269 13.2364C13.0663 13.4061 13.5754 13.7455 13.9148 13.9152C14.4239 14.0849 14.933 14.2545 15.4421 14.4242C15.9511 14.5939 16.2905 14.7636 16.6299 14.7636C16.9693 14.9333 17.3087 14.9333 17.4784 15.103C17.6481 15.2727 17.8178 15.4424 17.9875 15.6121C18.1572 15.7818 18.1572 15.9515 18.1572 16.2909C18.1572 16.4606 18.1572 16.8 17.9875 16.9697C17.9875 17.1394 17.8178 17.3091 17.6481 17.4788Z" fill="#495352"/>
</g>
<defs>
<clipPath id="clip0">
<rect width="31.0545" height="28" fill="white"/>
</clipPath>
</defs>
</svg>
