<svg width="93" height="19" viewBox="0 0 93 19" fill="none" xmlns="http://www.w3.org/2000/svg">
<path d="M39.1101 8.84151C39.1534 8.7991 39.1966 8.75669 39.2398 8.71428C39.9312 7.90848 41.1413 7.69643 42.092 8.20535C42.7402 8.54464 43.0428 9.13839 43.086 9.85937C43.1292 10.9196 43.086 12.0223 43.086 13.0826C43.086 13.2098 43.0428 13.2522 42.9131 13.2522C42.6538 13.2522 42.3513 13.2522 42.092 13.2522C41.9624 13.2522 41.9192 13.2098 41.9192 13.0826C41.9192 12.9129 41.9192 12.7857 41.9192 12.6161C41.9192 11.8527 41.9192 11.0893 41.9192 10.3259C41.9192 10.0714 41.8759 9.85937 41.7895 9.60491C41.6599 9.26562 41.4006 9.05357 41.0548 8.96875C40.1905 8.75669 39.4991 9.30803 39.4559 10.1987C39.4559 10.5804 39.4559 11.0045 39.4559 11.3862C39.4559 11.8951 39.4559 12.4464 39.4559 12.9554C39.4559 13.2098 39.4559 13.2098 39.1966 13.2098C38.9805 13.2098 38.7644 13.2098 38.5051 13.2098C38.289 13.2098 38.289 13.2098 38.289 12.9978C38.289 12.4464 38.289 11.8951 38.289 11.3013C38.289 10.9621 38.289 10.5804 38.289 10.2411C38.289 10.029 38.2458 9.81696 38.2026 9.60491C38.073 9.22321 37.7705 9.01116 37.3815 8.92634C36.6036 8.84151 35.9554 9.22321 35.869 10.029C35.8258 10.3259 35.869 10.6652 35.869 10.9621C35.869 11.5982 35.869 12.2344 35.869 12.9129C35.869 13.2098 35.869 13.2098 35.5665 13.2098C35.3504 13.2098 35.1343 13.2098 34.9182 13.2098C34.7021 13.2098 34.7021 13.2098 34.7021 12.9978C34.7021 12.9554 34.7021 12.9129 34.7021 12.8705C34.7021 11.3437 34.7021 9.85937 34.7021 8.33259V8.29017C34.7021 7.9933 34.7021 7.9933 35.0047 7.9933C35.2207 7.9933 35.4368 7.9933 35.6097 7.9933C35.8258 7.9933 35.8258 7.9933 35.8258 8.20535C35.8258 8.29018 35.8258 8.41741 35.869 8.54464C36.1715 8.24776 36.5172 7.9933 36.9494 7.90848C37.3815 7.82366 37.7705 7.86607 38.2026 7.9933C38.5483 8.24776 38.8508 8.50223 39.1101 8.84151Z" fill="#5B5B5B"/>
<path d="M53.2417 7.9509C53.8467 7.99331 54.4517 8.07813 54.9703 8.33259C55.0567 8.375 55.1432 8.41741 55.1864 8.45983C55.2296 8.50224 55.2728 8.54465 55.2296 8.58706C55.1 8.84152 54.9703 9.05358 54.8407 9.30804C54.7974 9.43527 54.711 9.35045 54.6246 9.30804C54.2789 9.1384 53.8899 9.01117 53.501 8.96875C53.1985 8.92634 52.9392 8.92634 52.6367 9.01117C52.507 9.05358 52.4206 9.09599 52.3341 9.1384C52.1613 9.26563 52.1181 9.39286 52.1181 9.60492C52.1181 9.81697 52.2909 9.90179 52.4206 9.9442C52.6799 10.029 52.9392 10.0714 53.1985 10.1138C53.501 10.1563 53.8035 10.1987 54.106 10.2835C54.2789 10.3259 54.4085 10.3683 54.5814 10.4531C55.6185 10.9621 55.5753 12.192 54.9703 12.7857C54.711 13.0402 54.4517 13.1674 54.106 13.2946C53.0256 13.5915 51.9884 13.5067 50.9513 12.9554C50.908 12.913 50.8216 12.8705 50.7784 12.8281C50.692 12.7857 50.692 12.7009 50.7352 12.6161C50.8648 12.404 50.9945 12.2344 51.0809 12.0223C51.1673 11.8951 51.2105 11.8951 51.3402 11.9799C51.7291 12.2344 52.2045 12.3616 52.6799 12.404C52.9824 12.4464 53.2417 12.404 53.5442 12.3616C53.6738 12.3192 53.8467 12.2768 53.9331 12.192C54.2356 11.9375 54.2356 11.5558 53.8467 11.3862C53.5874 11.2589 53.3281 11.2589 53.0688 11.2165C52.7663 11.1741 52.4206 11.1317 52.1181 11.0469C51.9884 11.0045 51.8156 10.9621 51.6859 10.8772C50.4759 10.3259 50.6487 8.88393 51.4698 8.33259C51.7723 8.12054 52.1181 8.03572 52.4638 7.9509C52.8095 7.9509 53.0256 7.9509 53.2417 7.9509Z" fill="#5B5B5B"/>
<path d="M57.3039 10.5803C57.3039 10.2835 57.3039 10.029 57.3039 9.81695C57.3039 9.60489 57.3903 9.30802 57.2607 9.18079C57.131 9.05355 56.8285 9.13838 56.6557 9.13838C56.5692 9.13838 56.4828 9.13838 56.4396 9.13838C56.3099 9.13838 56.2667 9.09597 56.2667 8.96873C56.2667 8.71427 56.2667 8.50221 56.2667 8.24775C56.2667 8.12052 56.3099 8.07811 56.4396 8.07811C56.6557 8.07811 56.8717 8.07811 57.131 8.07811C57.3471 8.07811 57.3471 8.07811 57.3471 7.86605C57.3471 7.48436 57.3471 7.14507 57.3471 6.76338C57.3471 6.50891 57.3471 6.50891 57.6496 6.50891C57.8657 6.50891 58.0818 6.50891 58.2546 6.50891C58.5139 6.50891 58.5139 6.50891 58.5139 6.80579C58.5139 7.14507 58.5139 7.52677 58.5139 7.86605C58.5139 8.12052 58.5139 8.12052 58.7732 8.12052C59.2486 8.12052 59.724 8.12052 60.1993 8.12052C60.4154 8.12052 60.4154 8.12052 60.4154 8.33257C60.4154 8.54463 60.4154 8.75668 60.4154 8.92632C60.4154 9.05355 60.3722 9.13838 60.1993 9.13838C59.7672 9.13838 59.335 9.13838 58.9461 9.13838C58.8597 9.13838 58.7732 9.13838 58.73 9.13838C58.6004 9.13838 58.5139 9.18079 58.5571 9.30802C58.5571 9.35043 58.5571 9.39284 58.5571 9.43525C58.5571 10.1138 58.5571 10.75 58.5571 11.4286C58.5571 11.5558 58.5572 11.7254 58.6004 11.8527C58.6868 12.1495 58.8597 12.3192 59.1622 12.3192C59.5079 12.3616 59.8104 12.2768 60.1129 12.1495C60.329 12.0647 60.329 12.0223 60.4154 12.2768C60.5018 12.4464 60.5451 12.6585 60.6315 12.8705C60.6747 12.9978 60.6315 13.0826 60.5451 13.125C60.329 13.2098 60.1129 13.2946 59.8968 13.3794C59.5943 13.4643 59.2486 13.4643 58.9461 13.4219C58.0818 13.337 57.6064 12.8705 57.4768 12.0223C57.3039 11.5134 57.3471 11.0044 57.3039 10.5803Z" fill="#5B5B5B"/>
<path d="M75.6273 9.47768C75.368 9.30804 75.1087 9.18081 74.8494 9.09599C73.553 8.71429 72.4726 9.5625 72.6887 11.0045C72.8615 12.0223 73.7691 12.5737 74.8062 12.2768C75.0655 12.2344 75.2816 12.1071 75.4545 11.9799C75.5841 11.8951 75.6705 11.9375 75.7138 12.0647C75.8434 12.2768 75.9298 12.4464 76.0595 12.6585C76.1459 12.7857 76.1027 12.8281 76.0163 12.913C75.7138 13.125 75.4113 13.2522 75.1087 13.3371C74.5469 13.4643 73.9851 13.4643 73.4666 13.3371C72.2133 13.0402 71.4354 11.9799 71.4354 10.6652C71.4786 9.01117 72.6455 7.9509 74.3309 7.9509C74.9359 7.9509 75.4977 8.07813 75.9731 8.45983C76.1459 8.58706 76.1459 8.58706 76.0595 8.7567C75.9298 9.01117 75.757 9.22322 75.6273 9.47768Z" fill="#5B5B5B"/>
<path d="M68.8857 8.62947C68.9721 8.58706 69.0153 8.54465 69.0586 8.45983C69.6204 7.86608 70.3982 7.90849 70.9168 8.03572C71.0465 8.07813 71.0465 8.12054 71.0033 8.24778C70.9168 8.50224 70.8304 8.75671 70.744 9.01117C70.7007 9.09599 70.6575 9.1384 70.5279 9.09599C70.2254 9.01117 69.9661 8.96876 69.6636 9.05358C69.3178 9.1384 69.0586 9.35046 68.9289 9.64733C68.8425 9.85938 68.7993 10.1138 68.7993 10.3683C68.7993 11.2165 68.7993 12.0647 68.7993 12.913C68.7993 12.9978 68.7993 13.0826 68.7993 13.125C68.7993 13.2098 68.756 13.2522 68.6696 13.2522C68.3671 13.2522 68.0646 13.2522 67.8053 13.2522C67.7189 13.2522 67.6757 13.2098 67.6757 13.125C67.6757 13.0402 67.6757 12.9978 67.6757 12.913C67.6757 11.3862 67.6757 9.85938 67.6757 8.3326C67.6757 8.29019 67.6757 8.20537 67.6757 8.16296C67.6757 8.03572 67.7189 7.99331 67.8485 7.99331C68.1078 7.99331 68.4103 7.99331 68.6696 7.99331C68.7993 7.99331 68.8425 8.03572 68.8425 8.16296C68.8425 8.37501 68.8425 8.50224 68.8857 8.62947Z" fill="#5B5B5B"/>
<path d="M85.0051 8.62949C85.0484 8.58708 85.0916 8.54466 85.0916 8.50225C85.6102 7.86609 86.388 7.9085 86.9931 8.03574C87.1227 8.07815 87.1227 8.12056 87.0795 8.24779C86.9931 8.50225 86.9066 8.75672 86.8202 9.01118C86.777 9.13841 86.7338 9.13841 86.6041 9.096C86.3448 9.01118 86.0855 9.01118 85.783 9.05359C85.3941 9.13842 85.1348 9.35047 85.0051 9.73216C84.9187 9.94422 84.9187 10.1563 84.9187 10.3683C84.9187 11.2165 84.9187 12.0648 84.9187 12.913C84.9187 12.9978 84.9187 13.0402 84.9187 13.125C84.9187 13.2523 84.8755 13.2947 84.7459 13.2947C84.4866 13.2947 84.184 13.2947 83.9248 13.2947C83.7951 13.2947 83.7519 13.2523 83.7519 13.125C83.7519 13.0826 83.7519 12.9978 83.7519 12.9554C83.7519 11.471 83.7519 9.94422 83.7519 8.45984C83.7519 8.37502 83.7519 8.33261 83.7519 8.24779C83.7519 8.12056 83.7951 8.07815 83.9248 8.07815C84.2273 8.07815 84.4866 8.07815 84.7891 8.07815C84.8755 8.07815 84.9187 8.12056 84.9187 8.20538C84.9187 8.33261 84.9187 8.45984 84.9187 8.58708C84.9619 8.58708 84.9619 8.62949 85.0051 8.62949Z" fill="#5B5B5B"/>
<path d="M93 6.29687C93 6 93 6 92.6975 6C92.5246 6 92.3518 6 92.1789 6C91.8332 6 91.8332 6 91.8332 6.33929C91.8332 7.01786 91.8332 7.69643 91.8332 8.375C91.8332 8.45982 91.8332 8.54464 91.8332 8.67187C91.7467 8.62946 91.7035 8.58705 91.6603 8.54464C91.401 8.33259 91.1417 8.16295 90.796 8.07812C89.6292 7.78125 88.4191 8.33259 87.8573 9.35045C87.5548 9.9442 87.4684 10.5804 87.5548 11.2165C87.7277 12.2768 88.3327 13.0402 89.4131 13.3371C90.2774 13.5915 91.0553 13.4643 91.7467 12.8281C91.7467 12.8281 91.79 12.7857 91.8332 12.8281C91.8332 12.9129 91.8332 13.0402 91.8332 13.125C91.8332 13.2522 91.8764 13.3371 92.006 13.2946C92.2653 13.2946 92.5246 13.2946 92.7839 13.2946C93 13.2946 93 13.2946 93 13.0826C93 13.0402 93 12.9978 93 12.9554C93 10.75 93 8.58705 93 6.3817C93 6.33929 93 6.33929 93 6.29687ZM91.8332 11.1741C91.6171 11.9375 90.9689 12.4464 90.191 12.3616C89.3699 12.3192 88.8081 11.7254 88.7217 10.9621C88.7217 10.8772 88.7217 10.7924 88.7217 10.75C88.7217 9.98661 89.0674 9.39286 89.6724 9.13839C90.7096 8.71429 91.79 9.35045 91.9196 10.4531C91.9196 10.7076 91.9196 10.9621 91.8332 11.1741Z" fill="#5B5B5B"/>
<path d="M49.6116 8.45981C49.6116 8.37499 49.6116 8.33258 49.6116 8.24776C49.6116 8.16294 49.5683 8.07812 49.4387 8.07812C49.1362 8.07812 48.8769 8.07812 48.5744 8.07812C48.488 8.07812 48.4447 8.12053 48.4447 8.20535C48.4447 8.33258 48.4447 8.45981 48.4447 8.58705C48.3151 8.58705 48.2719 8.50222 48.2287 8.45981C47.9694 8.24776 47.7101 8.07812 47.3643 7.9933C46.1975 7.69642 44.9011 8.24776 44.3825 9.35044C43.9503 10.1987 43.9935 11.0893 44.3825 11.9375C44.5553 12.3192 44.8146 12.6161 45.1171 12.8705C46.0247 13.5491 47.5372 13.6339 48.3151 12.7857C48.3583 12.7433 48.3583 12.7433 48.4447 12.7857C48.4447 12.8705 48.4447 12.9978 48.4447 13.125C48.4447 13.2522 48.488 13.2946 48.6176 13.2946C48.8769 13.2946 49.093 13.2946 49.3523 13.2946C49.5683 13.2946 49.5683 13.2946 49.6116 13.0826C49.6116 13.0402 49.6116 12.9978 49.6116 12.9553C49.6116 11.4286 49.6116 9.94419 49.6116 8.45981ZM48.488 10.9196C48.3583 11.9375 47.5372 12.5312 46.5 12.3192C45.9382 12.192 45.5925 11.8527 45.3764 11.3437C45.2468 10.962 45.2036 10.5379 45.3332 10.1138C45.5493 9.43526 46.1111 9.01115 46.8458 9.01115C47.9694 9.01115 48.6176 9.90178 48.488 10.9196Z" fill="#5B5B5B"/>
<path d="M82.2393 8.45983C82.2393 8.37501 82.2393 8.29019 82.2393 8.24778C82.2393 8.16295 82.1961 8.12054 82.1096 8.12054C81.8071 8.12054 81.5046 8.12054 81.2453 8.12054C81.1589 8.12054 81.1157 8.16295 81.1157 8.29019C81.1157 8.41742 81.1157 8.54465 81.0725 8.71429C80.986 8.62947 80.9428 8.58706 80.8996 8.54465C80.6403 8.3326 80.381 8.16295 80.0353 8.07813C78.8253 7.78126 77.572 8.37501 77.0534 9.47769C76.7509 10.0714 76.7077 10.7076 76.8373 11.3438C77.0534 12.3192 77.6152 13.0402 78.6092 13.3371C79.4735 13.5915 80.3378 13.5067 80.986 12.8281C80.986 12.8281 81.0293 12.7857 81.0725 12.8281C81.0725 12.913 81.0725 13.0402 81.0725 13.1674C81.0725 13.2522 81.1157 13.3371 81.2453 13.3371C81.5046 13.3371 81.8071 13.3371 82.0664 13.3371C82.1961 13.3371 82.2393 13.2947 82.2393 13.1674C82.2393 13.125 82.2393 13.0402 82.2393 12.9978C82.2393 11.471 82.2393 9.9442 82.2393 8.45983ZM81.0725 11.2589C80.8564 11.9799 80.2082 12.404 79.4735 12.3616C78.7388 12.3192 78.1338 11.8527 77.9609 11.1317C77.8745 10.7924 77.9177 10.4531 78.0042 10.1138C78.2202 9.39287 78.8253 9.01117 79.6031 9.01117C80.2946 9.01117 80.8996 9.47769 81.0725 10.1563C81.1157 10.3259 81.1589 10.4955 81.1589 10.6652C81.1589 10.8772 81.1157 11.0893 81.0725 11.2589Z" fill="#5B5B5B"/>
<path d="M62.8355 11.1317C63.3973 11.1317 63.9591 11.1317 64.5209 11.1317C65.0827 11.1317 65.6445 11.1317 66.2063 11.1317C66.5088 11.1317 66.5088 11.1317 66.5088 10.8348C66.5088 10.538 66.5088 10.2835 66.4224 9.98661C66.1631 8.79911 65.2988 8.03572 64.0887 7.9509C62.7923 7.86608 61.7119 8.67188 61.4094 9.9442C61.3229 10.3683 61.3229 10.75 61.3662 11.1741C61.4958 12.3192 62.3169 13.1674 63.4405 13.3795C63.9591 13.4643 64.4777 13.4643 64.953 13.3371C65.342 13.2522 65.7309 13.0826 66.0334 12.8705C66.2495 12.7433 66.2495 12.7433 66.1199 12.5313C66.0334 12.404 65.9038 12.2344 65.8174 12.1071C65.6445 11.8527 65.6445 11.8951 65.4716 12.0223C64.953 12.3192 64.4345 12.4888 63.8294 12.404C63.2244 12.3192 62.8355 12.0223 62.6194 11.471C62.533 11.1317 62.533 11.1317 62.8355 11.1317ZM63.9159 8.96876C64.6937 8.96876 65.2123 9.43527 65.2556 10.1987C64.348 10.1987 63.4837 10.1987 62.5762 10.1987C62.6194 9.5201 63.1812 8.96876 63.9159 8.96876Z" fill="#5B5B5B"/>
<g clip-path="url(#clip0)">
<path d="M17.9891 3.30635C21.0867 1.13601 25.6593 1.73544 28.2722 4.62921C30.9273 7.585 30.9273 12.1737 28.2722 15.0055C25.5329 17.9199 20.9813 18.4987 17.9891 16.3077C21.8453 12.7731 22.2456 7.3783 17.9891 3.30635Z" fill="#5B5B5B"/>
<path d="M16.7458 3.30561C13.6482 1.13528 9.07561 1.73471 6.46267 4.62848C3.8076 7.60494 3.82867 12.173 6.48375 15.0254C9.22311 17.9399 13.7747 18.5186 16.7669 16.3276C12.8896 12.7724 12.4893 7.37757 16.7458 3.30561Z" fill="#5B5B5B"/>
<path d="M17.3569 15.9356C13.3111 12.7938 13.3111 6.82021 17.3148 3.76108C20.9392 5.99342 21.8874 12.4837 17.3569 15.9356Z" fill="#5B5B5B"/>
</g>
<defs>
<clipPath id="clip0">
<rect width="25.7711" height="15.6471" fill="white" transform="translate(4.48193 2.23529)"/>
</clipPath>
</defs>
</svg>
