<svg width="80" height="50" viewBox="0 0 80 50" fill="none" xmlns="http://www.w3.org/2000/svg">
<rect y="25.5" width="7.5" height="23.3333" fill="#4D82C1"/>
<rect x="3.33337" y="17" width="0.833333" height="31.6667" fill="#4D82C1"/>
<rect x="28.1669" y="17.1667" width="7.5" height="23.3333" fill="#4D82C1"/>
<rect x="31.5002" y="18" width="0.833333" height="31.6667" fill="#4D82C1"/>
<rect x="15.1669" y="21.8334" width="6.5" height="22.3333" fill="#4D82C1" stroke="#4D82C1"/>
<rect x="18.0002" y="18" width="0.833333" height="5" fill="#4D82C1"/>
<rect x="18.0002" y="44.6666" width="0.833333" height="5" fill="#4D82C1"/>
<path d="M75.3171 12.7266L76.4878 11.9952C76.1951 11.5563 75.9024 11.1175 75.6098 10.6786L74.439 11.4101C74.7317 11.8489 75.0244 12.2878 75.3171 12.7266Z" fill="#4D82C1"/>
<path d="M77.8049 18.5779L79.1219 18.1391C78.9756 17.5539 78.8293 17.1151 78.6829 16.53L77.3658 16.9688C77.5122 17.5539 77.6585 17.9928 77.8049 18.5779Z" fill="#4D82C1"/>
<path d="M78.5366 21.6499L79.8536 21.5036C79.8536 20.9185 79.7073 20.3333 79.561 19.8945L78.2439 20.187C78.3902 20.6259 78.3902 21.0647 78.5366 21.6499Z" fill="#4D82C1"/>
<path d="M74.5853 9.36214C74.2926 8.92329 73.8536 8.48444 73.4146 8.04559L72.3902 9.06957C72.6829 9.50842 73.1219 9.80099 73.4146 10.2398L74.5853 9.36214Z" fill="#4D82C1"/>
<path d="M77.6585 31.012L78.9756 31.4509C79.1219 30.8657 79.2682 30.4269 79.4146 29.8418L78.0975 29.5492C77.9512 29.988 77.8048 30.4269 77.6585 31.012Z" fill="#4D82C1"/>
<path d="M80 23.1127L78.6829 23.259C78.6829 23.6979 78.6829 24.1367 78.6829 24.5756V24.8681H80V24.5756C80 23.9904 80 23.5516 80 23.1127Z" fill="#4D82C1"/>
<path d="M78.3903 27.94L79.7073 28.0863C79.8537 27.5012 79.8537 26.9161 79.8537 26.4772L78.5366 26.3309C78.5366 26.9161 78.5366 27.3549 78.3903 27.94Z" fill="#4D82C1"/>
<path d="M76.6342 33.9377L77.8049 34.5228C78.0976 34.084 78.2439 33.4988 78.3903 32.9137L77.0732 32.4749C77.0732 32.9137 76.7805 33.3526 76.6342 33.9377Z" fill="#4D82C1"/>
<path d="M78.0976 15.0671C77.8049 14.6283 77.6585 14.0432 77.3659 13.6043L76.1951 14.1894C76.4878 14.6283 76.6342 15.0671 76.9268 15.6523L78.0976 15.0671Z" fill="#4D82C1"/>
<path d="M74.878 37.5947C74.1463 37.5947 73.561 38.1799 73.561 38.9113C73.561 39.6427 74.1463 40.2278 74.878 40.2278C75.6098 40.2278 76.1951 39.6427 76.1951 38.9113C76.1951 38.1799 75.6098 37.5947 74.878 37.5947Z" fill="#4D82C1"/>
<path d="M39.1707 8.04559C38.439 8.04559 37.8536 8.63073 37.8536 9.36214C37.8536 10.0936 38.439 10.6787 39.1707 10.6787C39.9024 10.6787 40.4878 10.0936 40.4878 9.36214C40.4878 8.63073 39.9024 8.04559 39.1707 8.04559Z" fill="#4D82C1"/>
<path d="M42.8293 6.43646C50.7317 0.585143 61.4147 0.438859 69.4634 5.85133L67.122 5.99761C66.6829 5.99761 66.3903 6.43646 66.3903 6.87531C66.3903 7.31416 66.8293 7.60672 67.2683 7.60672L71.6586 7.31416C71.8049 7.31416 71.9512 7.31416 71.9512 7.16788C72.0976 7.16788 72.0976 7.02159 72.0976 7.02159C72.2439 6.87531 72.2439 6.58274 72.2439 6.43646L71.0732 2.34054C70.9269 1.90169 70.4878 1.75541 70.1951 1.75541C69.7561 1.90169 69.6098 2.34054 69.6098 2.6331L70.1951 4.68107C61.7073 -1.17025 50.1464 -1.02397 41.8049 5.2662C41.5122 5.55876 41.3659 5.99761 41.6586 6.29018C41.9512 6.58274 42.5366 6.72903 42.8293 6.43646Z" fill="#4D82C1"/>
<path d="M70.7805 41.2518C62.878 47.1031 52.1951 47.2494 44.1463 41.8369L46.4878 41.6907C46.9268 41.6907 47.2195 41.2518 47.2195 40.813C47.2195 40.3741 46.7805 40.0815 46.3415 40.0815L41.9512 40.3741C41.8049 40.3741 41.6585 40.3741 41.6585 40.5204C41.5122 40.5204 41.5122 40.6667 41.5122 40.6667C41.3658 40.813 41.3658 41.1055 41.3658 41.2518L42.5366 45.3477C42.6829 45.7866 43.1219 45.9329 43.4146 45.9329C43.8537 45.7866 44 45.3477 44 45.0552L43.4146 43.0072C51.9024 48.8585 63.4634 48.7122 71.8049 42.4221C72.0976 42.1295 72.2439 41.6907 71.9512 41.3981C71.6585 41.1055 71.2195 40.9592 70.7805 41.2518Z" fill="#4D82C1"/>
<path d="M55.4146 10.5324V13.4581V16.3837C55.8536 16.3837 56.1463 16.2374 56.5853 16.2374C57.317 16.2374 57.9024 16.3837 58.4878 16.53C59.0731 16.6763 59.5122 16.8226 59.8049 17.1151C60.0975 17.4077 60.5366 17.7003 60.6829 17.9928C60.9756 18.2854 61.1219 18.7243 61.2683 19.0168L64.0488 18.1391C63.6097 16.9689 62.878 16.0912 62 15.2135C60.9756 14.3358 59.8049 13.7506 58.3414 13.6044V10.6787H55.4146V10.5324Z" fill="#4D82C1"/>
<path d="M51.0244 33.3525C52.1952 34.2302 53.6586 34.8153 55.4147 34.9616V37.8873H58.3415V34.9616V32.036C57.9025 32.036 57.6098 32.1823 57.1708 32.1823C55.7074 32.1823 54.3903 31.8897 53.3659 31.3046C52.3415 30.7194 51.7561 30.1343 51.3171 29.2566L48.5366 30.4269C49.122 31.5971 49.8537 32.4748 51.0244 33.3525Z" fill="#4D82C1"/>
<path d="M53.2195 17.2614C53.3658 17.1151 53.3658 17.1151 53.5122 16.9689V13.8969C52.4878 14.1895 51.6097 14.6283 50.878 15.3597C49.8537 16.3837 49.2683 17.7003 49.1219 19.3094C49.1219 20.1871 49.2683 21.0648 49.561 21.6499C49.8537 22.235 50.2927 22.8202 50.878 23.259C51.4634 23.6979 52.1951 24.1367 53.0732 24.4293C53.9512 24.7219 54.9756 25.0144 56 25.4533C56.878 25.7458 57.7561 26.0384 58.3415 26.1847C59.0732 26.4772 59.6585 26.6235 60.0976 26.9161C60.5366 27.2087 60.9756 27.5012 61.1219 27.7938C61.4146 28.0864 61.4146 28.5252 61.4146 29.1103C61.4146 29.5492 61.2683 29.988 61.1219 30.4269C60.8293 30.8657 60.5366 31.1583 60.0976 31.4509L59.9512 31.5971V34.8154C60.2439 34.6691 60.5366 34.6691 60.8293 34.5228C61.561 34.2302 62.2927 33.6451 62.878 33.2063C63.4634 32.6211 63.9024 32.036 64.1951 31.3046C64.4878 30.5732 64.6341 29.8418 64.6341 29.1103C64.6341 28.0864 64.4878 27.3549 64.0488 26.6235C63.6097 25.8921 63.1707 25.307 62.439 24.8681C61.7073 24.4293 60.9756 23.9904 60.0976 23.5516C59.2195 23.259 58.1951 22.8202 57.0244 22.5276C55.2683 22.0888 54.0976 21.6499 53.3658 21.0648C52.6341 20.6259 52.1951 19.8945 52.1951 19.1631C52.1951 18.7242 52.3415 18.4317 52.4878 18.1391C52.6341 17.8466 52.9268 17.554 53.2195 17.2614Z" fill="#4D82C1"/>
</svg>
