<svg width="79" height="57" viewBox="0 0 79 57" fill="none" xmlns="http://www.w3.org/2000/svg">
<path d="M18.8541 26.352C19.2275 26.968 19.7315 27.4813 20.3661 27.892C21.0195 28.284 21.7848 28.4987 22.6621 28.536C23.2595 28.5547 23.7915 28.48 24.2581 28.312C24.7435 28.144 25.1541 27.9107 25.4901 27.612C25.8261 27.3133 26.0968 26.9587 26.3021 26.548C26.5075 26.1373 26.6288 25.6987 26.6661 25.232C26.7595 24.1307 26.4981 23.2253 25.8821 22.516C25.2661 21.788 24.3795 21.3867 23.2221 21.312C22.5875 21.2747 22.0928 21.2933 21.7381 21.368C21.3835 21.4427 21.1501 21.4987 21.0381 21.536L19.5541 19.828L24.5381 14.06H17.9301V11.4H28.0941V14.06L23.2501 19.212H23.3061C24.3328 19.212 25.2381 19.3613 26.0221 19.66C26.8248 19.9587 27.4875 20.3787 28.0101 20.92C28.5328 21.4613 28.9155 22.1053 29.1581 22.852C29.4008 23.5987 29.4848 24.42 29.4101 25.316C29.3355 26.2307 29.1115 27.0613 28.7381 27.808C28.3648 28.536 27.8795 29.1613 27.2821 29.684C26.6848 30.188 25.9941 30.58 25.2101 30.86C24.4448 31.1213 23.6235 31.2333 22.7461 31.196C22.1115 31.1773 21.4768 31.084 20.8421 30.916C20.2075 30.748 19.6101 30.5147 19.0501 30.216C18.5088 29.8987 18.0141 29.5253 17.5661 29.096C17.1181 28.6667 16.7541 28.172 16.4741 27.612L18.8541 26.352ZM32.9624 25.008C32.9624 23.2533 33.7371 21.2373 35.2864 18.96L40.3264 11.4H43.3504L38.6744 18.568C38.7677 18.5307 38.8891 18.512 39.0384 18.512C39.1877 18.4933 39.2904 18.484 39.3464 18.484C40.2424 18.484 41.0824 18.652 41.8664 18.988C42.6504 19.3053 43.3224 19.7533 43.8824 20.332C44.4611 20.9107 44.9091 21.592 45.2264 22.376C45.5624 23.1413 45.7304 23.9627 45.7304 24.84C45.7304 25.7173 45.5717 26.548 45.2544 27.332C44.9371 28.0973 44.4891 28.7693 43.9104 29.348C43.3504 29.908 42.6784 30.356 41.8944 30.692C41.1104 31.028 40.2611 31.196 39.3464 31.196C38.4317 31.196 37.5824 31.0373 36.7984 30.72C36.0331 30.4027 35.3611 29.9733 34.7824 29.432C34.2224 28.872 33.7744 28.2187 33.4384 27.472C33.1211 26.7067 32.9624 25.8853 32.9624 25.008ZM39.3464 28.536C39.8504 28.536 40.3171 28.4427 40.7464 28.256C41.1944 28.0507 41.5771 27.78 41.8944 27.444C42.2304 27.108 42.4824 26.716 42.6504 26.268C42.8371 25.82 42.9304 25.344 42.9304 24.84C42.9304 24.336 42.8371 23.86 42.6504 23.412C42.4824 22.964 42.2304 22.572 41.8944 22.236C41.5771 21.9 41.1944 21.6387 40.7464 21.452C40.3171 21.2467 39.8504 21.144 39.3464 21.144C38.8424 21.144 38.3757 21.2467 37.9464 21.452C37.5171 21.6387 37.1437 21.9 36.8264 22.236C36.5277 22.572 36.2851 22.964 36.0984 23.412C35.9304 23.86 35.8464 24.336 35.8464 24.84C35.8464 25.344 35.9304 25.82 36.0984 26.268C36.2851 26.716 36.5277 27.108 36.8264 27.444C37.1437 27.78 37.5171 28.0507 37.9464 28.256C38.3757 28.4427 38.8424 28.536 39.3464 28.536ZM48.8263 27.612L51.1223 26.436C51.4957 27.052 51.9997 27.5467 52.6343 27.92C53.2877 28.2933 54.053 28.4987 54.9303 28.536C56.125 28.5547 57.0397 28.2467 57.6743 27.612C58.3277 26.9773 58.6917 26.184 58.7663 25.232C58.8597 24.1307 58.5703 23.2347 57.8983 22.544C57.245 21.8533 56.3397 21.4707 55.1823 21.396C54.473 21.3587 53.885 21.4147 53.4183 21.564C52.9703 21.7133 52.6903 21.8067 52.5783 21.844L50.1143 21.34L52.0743 11.4H60.8943V14.06H54.0343L53.0823 19.24C53.381 19.1467 53.7357 19.0627 54.1463 18.988C54.557 18.8947 54.977 18.8573 55.4063 18.876C56.433 18.8947 57.3383 19.0813 58.1223 19.436C58.925 19.772 59.5877 20.2293 60.1103 20.808C60.633 21.368 61.0157 22.04 61.2583 22.824C61.501 23.5893 61.585 24.42 61.5103 25.316C61.4357 26.2307 61.221 27.0613 60.8663 27.808C60.5117 28.536 60.045 29.1613 59.4663 29.684C58.9063 30.188 58.2437 30.58 57.4783 30.86C56.7317 31.1213 55.9103 31.2333 55.0143 31.196C54.3797 31.1773 53.745 31.084 53.1103 30.916C52.4943 30.748 51.9157 30.5147 51.3743 30.216C50.833 29.8987 50.3383 29.5253 49.8903 29.096C49.461 28.6667 49.1063 28.172 48.8263 27.612Z" fill="#067362"/>
<path d="M21.9785 43.4082L22.2891 43.0039C22.7812 42.3359 23.0645 41.3594 23.1387 40.0742L23.25 37.6602H26.9941V43.4082H27.6504V45.8633H26.9531V44H22.1895V45.8633H21.5156L21.5215 43.4082H21.9785ZM22.7871 43.4082H26.291V38.3164H23.918L23.8418 39.9629C23.7715 41.4746 23.4199 42.623 22.7871 43.4082ZM36.873 44H36.1699V41.0938H32.7539V44H32.0508V37.6602H32.7539V40.502H36.1699V37.6602H36.873V44ZM44.209 44.1172C43.6699 44.1172 43.1816 43.9844 42.7441 43.7188C42.3105 43.4531 41.9727 43.084 41.7305 42.6113C41.4883 42.1348 41.3672 41.6016 41.3672 41.0117V40.7598C41.3672 40.1504 41.4844 39.6016 41.7188 39.1133C41.957 38.625 42.2871 38.2422 42.709 37.9648C43.1309 37.6836 43.5879 37.543 44.0801 37.543C44.8496 37.543 45.459 37.8066 45.9082 38.334C46.3613 38.8574 46.5879 39.5742 46.5879 40.4844V40.877H42.0645V41.0117C42.0645 41.7305 42.2695 42.3301 42.6797 42.8105C43.0938 43.2871 43.6133 43.5254 44.2383 43.5254C44.6133 43.5254 44.9434 43.457 45.2285 43.3203C45.5176 43.1836 45.7793 42.9648 46.0137 42.6641L46.4531 42.998C45.9375 43.7441 45.1895 44.1172 44.209 44.1172ZM44.0801 38.1406C43.5527 38.1406 43.1074 38.334 42.7441 38.7207C42.3848 39.1074 42.166 39.627 42.0879 40.2793H45.8906V40.2031C45.8711 39.5938 45.6973 39.0977 45.3691 38.7148C45.041 38.332 44.6113 38.1406 44.0801 38.1406ZM55.1191 37.6602H55.8223V44H55.1191V38.791L51.6973 44H51V37.6602H51.6973V42.875L55.1191 37.6602ZM55.084 35.375C55.084 35.8242 54.9297 36.1875 54.6211 36.4648C54.3164 36.7422 53.9062 36.8809 53.3906 36.8809C52.8828 36.8809 52.4727 36.7441 52.1602 36.4707C51.8516 36.1934 51.6973 35.8281 51.6973 35.375H52.2949C52.2949 35.6992 52.3906 35.9473 52.582 36.1191C52.7773 36.291 53.0469 36.377 53.3906 36.377C53.7344 36.377 54.002 36.2871 54.1934 36.1074C54.3887 35.9277 54.4863 35.6836 54.4863 35.375H55.084Z" fill="#067362"/>
<rect x="73.5" y="43.5" width="5" height="2" rx="1" transform="rotate(-180 73.5 43.5)" stroke="#067362"/>
<rect x="73.5" y="35.5" width="5" height="2" rx="1" transform="rotate(-180 73.5 35.5)" stroke="#067362"/>
<rect x="73.5" y="39.5" width="5" height="2" rx="1" transform="rotate(-180 73.5 39.5)" stroke="#067362"/>
<path d="M1 26L1 53C1 54.6568 2.34315 56 4 56L75 56C76.6569 56 78 54.6569 78 53L78 4C78 2.34315 76.6569 1 75 1L4 0.999994C2.34315 0.999993 1 2.34314 1 3.99999L1 12.75" stroke="#067362" stroke-linecap="round"/>
</svg>
