<svg width="50" height="58" viewBox="0 0 50 58" fill="none" xmlns="http://www.w3.org/2000/svg">
<path d="M28.5714 0H21.4286V25H28.5714V0Z" fill="#087464"/>
<path fill-rule="evenodd" clip-rule="evenodd" d="M16.0715 8.78436C6.67372 12.3787 0 21.4814 0 32.1429C0 45.95 11.1929 57.1429 25 57.1429C38.8071 57.1429 50 45.95 50 32.1429C50 21.4815 43.3264 12.3788 33.9287 8.78443V15.3672C39.9214 18.5634 44 24.8768 44 32.1429C44 42.6363 35.4934 51.1429 25 51.1429C14.5066 51.1429 6 42.6363 6 32.1429C6 24.8768 10.0787 18.5633 16.0715 15.3671V8.78436Z" fill="#087464"/>
</svg>
