<svg width="20" height="18" viewBox="0 0 20 18" fill="none" xmlns="http://www.w3.org/2000/svg">
<path d="M1.22276 7.17454C1.12399 7.37206 1.02523 7.66835 1.02523 7.96464C0.827706 9.24855 1.81533 10.4337 3.09924 10.6312C3.39553 10.6312 3.59305 10.6312 3.88934 10.6312L4.18563 10.5325L5.46954 13.3966L5.17325 13.5941C4.87697 13.7916 4.7782 14.0879 4.67944 14.483C4.58068 15.2731 5.17325 15.9644 5.96335 16.0632C6.55593 16.1619 7.1485 15.8656 7.44479 15.2731L7.54355 15.0755L11.2965 15.4706V15.7669C11.4941 16.7545 12.3829 17.4458 13.3705 17.2483C14.3582 17.0508 15.0495 16.1619 14.852 15.1743C14.852 14.878 14.6545 14.5817 14.4569 14.3842L14.2594 14.1867L16.3334 11.4213L16.6297 11.5201C17.5186 11.8164 18.5062 11.4213 18.9012 10.5325C18.9012 10.5325 19 10.3349 19 10.0386C19 9.74236 19 9.54484 19 9.54484C19 9.24855 18.8025 8.8535 18.6049 8.65597C18.5062 8.55721 18.4074 8.45845 18.3087 8.35969C17.9136 8.0634 17.4198 7.96464 16.926 8.0634H16.7285L15.8396 5.59434L16.0371 5.49558C17.2223 4.70548 17.5186 3.12528 16.7285 2.03889C16.7285 1.94013 16.6297 1.94013 16.6297 1.84136L16.5309 1.7426L16.2346 1.44631L15.8396 1.24879C14.5557 0.656215 13.0743 1.15003 12.4817 2.43394C12.3829 2.5327 12.3829 2.63146 12.3829 2.73023L11.9879 2.82899L9.02499 2.43394V2.23641C8.92623 2.03889 8.82747 1.84136 8.7287 1.64384C8.62994 1.54508 8.53118 1.44631 8.43242 1.34755C7.83984 0.85374 6.85222 1.05126 6.45717 1.64384C6.06212 2.13765 6.06212 2.82899 6.3584 3.3228L6.55593 3.52033L4.67944 6.08815L4.38315 5.98939C3.198 5.49558 1.81533 5.98939 1.22276 7.17454ZM14.4569 15.5693C14.3582 16.2607 13.7656 16.8533 12.9755 16.7545C12.2842 16.6557 11.6916 16.0632 11.7903 15.2731C11.8891 14.5817 12.4817 13.9891 13.2718 14.0879C13.9631 14.1867 14.5557 14.7792 14.4569 15.5693ZM16.4322 8.65597C17.0247 8.16216 17.8148 8.26093 18.3087 8.8535C18.5062 9.14979 18.6049 9.44608 18.6049 9.84113C18.6049 10.2362 18.4074 10.5325 18.1111 10.73C17.5186 11.2238 16.7285 11.125 16.2346 10.5325C15.7408 10.0386 15.8396 9.14979 16.4322 8.65597ZM13.2718 1.84136C14.1606 1.15003 15.4446 1.24879 16.1359 2.13765C16.8272 3.02651 16.7285 4.31043 15.8396 5.00176C15.1483 5.59434 14.0619 5.59434 13.3705 5.10053C13.2718 5.00176 13.0743 4.903 12.9755 4.70548C12.6792 4.31043 12.4817 3.71785 12.5804 3.22404C12.5804 2.63146 12.8767 2.13765 13.2718 1.84136ZM7.1485 3.91538C7.24727 3.91538 7.34603 3.91538 7.34603 4.01414C7.9386 4.1129 8.53118 3.81661 8.82747 3.22404L9.02499 2.92775L11.9879 3.3228V3.61909C12.0866 5.00176 13.2718 6.08815 14.6545 5.89063C14.7532 5.89063 14.852 5.89063 15.0495 5.79186H15.3458L16.3334 8.16216L16.1359 8.26092C15.3458 8.8535 15.247 10.0386 15.8396 10.8287L16.0371 11.0263L13.9631 13.7916L13.7656 13.6929C12.8767 13.2978 11.7903 13.7916 11.4941 14.6805L11.3953 14.878L7.64232 14.483V14.1867C7.54355 13.8904 7.34603 13.5941 7.04974 13.3966C6.85222 13.199 6.65469 13.199 6.3584 13.1003C6.25964 13.1003 6.16088 13.1003 6.06212 13.1003L5.76583 13.199L4.58068 10.3349L4.7782 10.1374C5.37078 9.74236 5.66707 9.14979 5.76583 8.45845C5.86459 7.86587 5.66707 7.17454 5.27202 6.68073L5.17325 6.58196L5.07449 6.38444L6.95098 3.81661L7.1485 3.91538ZM4.87697 6.97701C5.5683 7.76711 5.37078 8.95226 4.58068 9.6436C3.88934 10.1374 3.00048 10.2362 2.30914 9.74236C2.21038 9.6436 2.01286 9.44608 1.91409 9.34731C1.22276 8.55721 1.42028 7.37206 2.21038 6.68073C3.09924 6.08815 4.28439 6.18691 4.87697 6.97701Z" fill="#495352" stroke="#495352" stroke-width="0.3"/>
<path d="M8.25471 9.28802H7.0498V12.9027H8.25471V9.28802Z" fill="#495352"/>
<path d="M10.6649 8.08313H9.45996V12.9027H10.6649V8.08313Z" fill="#495352"/>
<path d="M13.074 6.87823H11.8691V12.9027H13.074V6.87823Z" fill="#495352"/>
</svg>
