<svg width="29" height="30" viewBox="0 0 29 30" fill="none" xmlns="http://www.w3.org/2000/svg">
<path d="M27.8176 20.5502C28.2796 20.5502 28.6541 20.1756 28.6541 19.7136C28.6541 19.2516 28.2796 18.8771 27.8176 18.8771C27.3556 18.8771 26.981 19.2516 26.981 19.7136C26.981 20.1756 27.3556 20.5502 27.8176 20.5502Z" fill="#495352"/>
<path d="M27.8176 17.936C28.2796 17.936 28.6541 17.5615 28.6541 17.0995C28.6541 16.6375 28.2796 16.2629 27.8176 16.2629C27.3556 16.2629 26.981 16.6375 26.981 17.0995C26.981 17.5615 27.3556 17.936 27.8176 17.936Z" fill="#495352"/>
<path d="M27.8176 15.4271C28.2796 15.4271 28.6541 15.0526 28.6541 14.5906C28.6541 14.1286 28.2796 13.754 27.8176 13.754C27.3556 13.754 26.981 14.1286 26.981 14.5906C26.981 15.0526 27.3556 15.4271 27.8176 15.4271Z" fill="#495352"/>
<path d="M27.8176 12.8122C28.2796 12.8122 28.6541 12.4377 28.6541 11.9757C28.6541 11.5137 28.2796 11.1392 27.8176 11.1392C27.3556 11.1392 26.981 11.5137 26.981 11.9757C26.981 12.4377 27.3556 12.8122 27.8176 12.8122Z" fill="#495352"/>
<path d="M27.8176 24.1057C27.3993 24.1057 26.981 24.4194 26.981 24.9423C26.981 25.3605 27.2947 25.7788 27.8176 25.7788C28.3404 25.7788 28.6541 25.4651 28.6541 24.9423C28.6541 24.4194 28.2358 24.1057 27.8176 24.1057Z" fill="#495352"/>
<path d="M24.9919 20.5502C25.4539 20.5502 25.8285 20.1756 25.8285 19.7136C25.8285 19.2516 25.4539 18.8771 24.9919 18.8771C24.5299 18.8771 24.1554 19.2516 24.1554 19.7136C24.1554 20.1756 24.5299 20.5502 24.9919 20.5502Z" fill="#495352"/>
<path d="M24.9919 17.936C25.4539 17.936 25.8285 17.5615 25.8285 17.0995C25.8285 16.6375 25.4539 16.2629 24.9919 16.2629C24.5299 16.2629 24.1554 16.6375 24.1554 17.0995C24.1554 17.5615 24.5299 17.936 24.9919 17.936Z" fill="#495352"/>
<path d="M24.9919 24.1057C24.5737 24.1057 24.1554 24.4194 24.1554 24.9423C24.1554 25.3605 24.4691 25.7788 24.9919 25.7788C25.4102 25.7788 25.8285 25.4651 25.8285 24.9423C25.8285 24.4194 25.4102 24.1057 24.9919 24.1057Z" fill="#495352"/>
<path d="M24.9919 23.0602C25.4539 23.0602 25.8285 22.6856 25.8285 22.2236C25.8285 21.7616 25.4539 21.3871 24.9919 21.3871C24.5299 21.3871 24.1554 21.7616 24.1554 22.2236C24.1554 22.6856 24.5299 23.0602 24.9919 23.0602Z" fill="#495352"/>
<path d="M22.168 20.5502C22.63 20.5502 23.0045 20.1756 23.0045 19.7136C23.0045 19.2516 22.63 18.8771 22.168 18.8771C21.706 18.8771 21.3314 19.2516 21.3314 19.7136C21.3314 20.1756 21.706 20.5502 22.168 20.5502Z" fill="#495352"/>
<path d="M22.168 24.1057C21.7497 24.1057 21.3314 24.4194 21.3314 24.9423C21.3314 25.3605 21.6451 25.7788 22.168 25.7788C22.5862 25.7788 23.0045 25.4651 23.0045 24.9423C23.0045 24.4194 22.5862 24.1057 22.168 24.1057Z" fill="#495352"/>
<path d="M22.168 23.0602C22.63 23.0602 23.0045 22.6856 23.0045 22.2236C23.0045 21.7616 22.63 21.3871 22.168 21.3871C21.706 21.3871 21.3314 21.7616 21.3314 22.2236C21.3314 22.6856 21.706 23.0602 22.168 23.0602Z" fill="#495352"/>
<path d="M19.552 24.1057C19.1338 24.1057 18.7155 24.4194 18.7155 24.9423C18.7155 25.3605 19.0292 25.7788 19.552 25.7788C20.0749 25.7788 20.3886 25.4651 20.3886 24.9423C20.284 24.4194 19.9703 24.1057 19.552 24.1057Z" fill="#495352"/>
<path d="M16.6242 24.1057C16.2059 24.1057 15.7877 24.4194 15.7877 24.9423C15.7877 25.3605 16.1014 25.7788 16.6242 25.7788C17.0425 25.7788 17.4607 25.4651 17.4607 24.9423C17.4607 24.4194 17.0425 24.1057 16.6242 24.1057Z" fill="#495352"/>
<path d="M19.4474 23.0602C19.9094 23.0602 20.2839 22.6856 20.2839 22.2236C20.2839 21.7616 19.9094 21.3871 19.4474 21.3871C18.9854 21.3871 18.6109 21.7616 18.6109 22.2236C18.6109 22.6856 18.9854 23.0602 19.4474 23.0602Z" fill="#495352"/>
<path d="M27.8176 23.0602C28.2796 23.0602 28.6541 22.6856 28.6541 22.2236C28.6541 21.7616 28.2796 21.3871 27.8176 21.3871C27.3556 21.3871 26.981 21.7616 26.981 22.2236C26.981 22.6856 27.3556 23.0602 27.8176 23.0602Z" fill="#495352"/>
<path d="M6.78562 12.3938C6.78562 14.0669 5.42628 15.4263 3.75323 15.4263C2.08019 15.4263 0.72084 14.0669 0.72084 12.3938C0.72084 10.7207 2.08019 9.36133 3.75323 9.36133C5.42627 9.36133 6.78562 10.7207 6.78562 12.3938ZM2.39388 12.3938C2.39388 13.1258 3.02128 13.7532 3.75323 13.7532C4.48519 13.7532 5.11258 13.1258 5.11258 12.3938C5.11258 11.6618 4.48519 11.0344 3.75323 11.0344C3.02128 11.0344 2.39388 11.6618 2.39388 12.3938Z" fill="#495352"/>
<path d="M13.2755 24.7329L13.2755 29.9613L11.6018 29.9613L11.6018 25.5694L2.91966 19.8182L2.91966 13.8578L4.69793 13.8578L4.69793 18.8771L13.2755 24.7329Z" fill="#495352"/>
<path d="M12.1253 13.1262C13.7983 13.1262 15.1577 14.4856 15.1577 16.1587C15.1577 17.8318 13.7983 19.1912 12.1253 19.1912C10.4523 19.1912 9.09291 17.8318 9.09291 16.1587C9.09291 14.4856 10.4523 13.1262 12.1253 13.1262ZM12.1253 17.5181C12.8573 17.5181 13.4846 16.8907 13.4846 16.1587C13.4846 15.4267 12.8573 14.7993 12.1253 14.7993C11.3933 14.7993 10.766 15.4267 10.766 16.1587C10.766 16.8907 11.3933 17.5181 12.1253 17.5181Z" fill="#495352"/>
<path d="M24.3646 6.74719L28.235 6.74719L28.235 8.42028L25.3061 8.42028L19.5528 16.9949L13.4858 16.9949L13.4858 15.3218L18.6114 15.3218L24.3646 6.74719Z" fill="#495352"/>
<path d="M0.30249 2.53906L0.30249 0.865967L11.8089 0.865967L11.8089 5.28342L10.1353 5.28342L10.1353 2.53906L0.30249 2.53906Z" fill="#495352"/>
<path d="M7.73286 7.47888C7.73286 5.80579 9.09221 4.44641 10.7653 4.44641C12.4383 4.44641 13.7976 5.80579 13.7976 7.47888C13.7976 9.15197 12.4383 10.5114 10.7653 10.5114C9.09221 10.6159 7.73286 9.25654 7.73286 7.47888ZM12.02 7.47888C12.02 6.74691 11.3926 6.1195 10.6607 6.1195C9.92873 6.1195 9.30134 6.74691 9.30134 7.47888C9.30134 8.21086 9.92873 8.83827 10.6607 8.83827C11.3926 8.83827 12.02 8.31543 12.02 7.47888Z" fill="#495352"/>
</svg>
