<svg width="81" height="53" viewBox="0 0 81 53" fill="none" xmlns="http://www.w3.org/2000/svg">
<path d="M14.5719 29.1432V26.2861" stroke="#727161" stroke-width="2"/>
<path d="M23.8574 34.8574L23.8574 37.7145" stroke="#727161" stroke-width="2"/>
<path d="M23.8574 16.2864V13.4293" stroke="#727161" stroke-width="2"/>
<path d="M15.2862 50.5714V47.7144" stroke="#727161" stroke-width="2"/>
<path d="M14.5719 23.4291V13.4293" stroke="#727161" stroke-width="2"/>
<path d="M23.8574 40.5716L23.8574 50.5715" stroke="#727161" stroke-width="2"/>
<path d="M3.85709 17V25.714C3.85709 26.8186 4.75252 27.714 5.85709 27.714H9.57127" stroke="#727161" stroke-width="2"/>
<circle cx="3.85709" cy="14.8571" r="2.85709" stroke="#727161" stroke-width="2"/>
<path d="M35.2843 46.5L35.2843 38.286C35.2843 37.1814 34.3889 36.286 33.2843 36.286L29.5701 36.286" stroke="#727161" stroke-width="2"/>
<circle cx="35.2844" cy="49.1429" r="2.85709" transform="rotate(180 35.2844 49.1429)" stroke="#727161" stroke-width="2"/>
<path d="M3.858 46.5L3.858 38.286C3.858 37.1814 4.75343 36.286 5.858 36.286L9.57219 36.286" stroke="#727161" stroke-width="2"/>
<circle r="2.85709" transform="matrix(1 -8.74228e-08 -8.74228e-08 -1 3.85779 49.1429)" stroke="#727161" stroke-width="2"/>
<path d="M15.2902 38.5L15.2902 44.8572" stroke="#727161" stroke-width="2"/>
<ellipse cx="15.2859" cy="36.286" rx="2.85681" ry="2.85709" stroke="#727161" stroke-width="2"/>
<path d="M23.8548 25L23.8548 19.1434" stroke="#727161" stroke-width="2"/>
<ellipse rx="2.85681" ry="2.85709" transform="matrix(-1 1.74863e-06 -1.74828e-08 -1 23.8577 27.7147)" stroke="#727161" stroke-width="2"/>
<path d="M35.2857 16.9999L35.2857 25.7146C35.2857 26.8192 34.3902 27.7146 33.2856 27.7146L29.5715 27.7146" stroke="#727161" stroke-width="2"/>
<circle r="2.85709" transform="matrix(-1 -1.74846e-07 -1.74846e-07 1 35.2858 14.8578)" stroke="#727161" stroke-width="2"/>
<path d="M76.3171 12.7266L77.4878 11.9952C77.1951 11.5563 76.9024 11.1175 76.6097 10.6786L75.439 11.4101C75.7317 11.8489 76.0244 12.2878 76.3171 12.7266Z" fill="#727161"/>
<path d="M78.8049 18.5779L80.1219 18.1391C79.9756 17.5539 79.8292 17.1151 79.6829 16.53L78.3658 16.9688C78.5122 17.5539 78.6585 17.9928 78.8049 18.5779Z" fill="#727161"/>
<path d="M79.5366 21.6499L80.8536 21.5036C80.8536 20.9185 80.7073 20.3333 80.561 19.8945L79.2439 20.187C79.3902 20.6259 79.3902 21.0647 79.5366 21.6499Z" fill="#727161"/>
<path d="M75.5853 9.36214C75.2926 8.92329 74.8536 8.48444 74.4146 8.04559L73.3902 9.06957C73.6829 9.50842 74.1219 9.80099 74.4146 10.2398L75.5853 9.36214Z" fill="#727161"/>
<path d="M78.6585 31.012L79.9756 31.4509C80.1219 30.8657 80.2683 30.4269 80.4146 29.8418L79.0976 29.5492C78.9512 29.988 78.8049 30.4269 78.6585 31.012Z" fill="#727161"/>
<path d="M81 23.1127L79.6829 23.259C79.6829 23.6979 79.6829 24.1367 79.6829 24.5756V24.8681H81V24.5756C81 23.9904 81 23.5516 81 23.1127Z" fill="#727161"/>
<path d="M79.3902 27.94L80.7073 28.0863C80.8536 27.5012 80.8536 26.9161 80.8536 26.4772L79.5366 26.3309C79.5366 26.9161 79.5366 27.3549 79.3902 27.94Z" fill="#727161"/>
<path d="M77.6341 33.9377L78.8049 34.5228C79.0975 34.084 79.2439 33.4988 79.3902 32.9137L78.0731 32.4749C78.0731 32.9137 77.7805 33.3526 77.6341 33.9377Z" fill="#727161"/>
<path d="M79.0975 15.0671C78.8049 14.6283 78.6585 14.0432 78.3658 13.6043L77.1951 14.1894C77.4878 14.6283 77.6341 15.0671 77.9268 15.6523L79.0975 15.0671Z" fill="#727161"/>
<path d="M75.878 37.5947C75.1463 37.5947 74.561 38.1799 74.561 38.9113C74.561 39.6427 75.1463 40.2278 75.878 40.2278C76.6097 40.2278 77.1951 39.6427 77.1951 38.9113C77.1951 38.1799 76.6097 37.5947 75.878 37.5947Z" fill="#727161"/>
<path d="M40.1707 8.04559C39.439 8.04559 38.8536 8.63073 38.8536 9.36214C38.8536 10.0936 39.439 10.6787 40.1707 10.6787C40.9024 10.6787 41.4878 10.0936 41.4878 9.36214C41.4878 8.63073 40.9024 8.04559 40.1707 8.04559Z" fill="#727161"/>
<path d="M43.8292 6.43646C51.7317 0.585143 62.4146 0.438859 70.4634 5.85133L68.1219 5.99761C67.6829 5.99761 67.3902 6.43646 67.3902 6.87531C67.3902 7.31416 67.8292 7.60672 68.2683 7.60672L72.6585 7.31416C72.8049 7.31416 72.9512 7.31416 72.9512 7.16788C73.0975 7.16788 73.0975 7.02159 73.0975 7.02159C73.2439 6.87531 73.2439 6.58274 73.2439 6.43646L72.0731 2.34054C71.9268 1.90169 71.4878 1.75541 71.1951 1.75541C70.7561 1.90169 70.6097 2.34054 70.6097 2.6331L71.1951 4.68107C62.7073 -1.17025 51.1463 -1.02397 42.8049 5.2662C42.5122 5.55876 42.3658 5.99761 42.6585 6.29018C42.9512 6.58274 43.5366 6.72903 43.8292 6.43646Z" fill="#727161"/>
<path d="M71.7805 41.2518C63.878 47.1031 53.1951 47.2494 45.1463 41.8369L47.4878 41.6907C47.9268 41.6907 48.2195 41.2518 48.2195 40.813C48.2195 40.3741 47.7805 40.0815 47.3414 40.0815L42.9512 40.3741C42.8049 40.3741 42.6585 40.3741 42.6585 40.5204C42.5122 40.5204 42.5122 40.6667 42.5122 40.6667C42.3658 40.813 42.3658 41.1055 42.3658 41.2518L43.5366 45.3477C43.6829 45.7866 44.1219 45.9329 44.4146 45.9329C44.8536 45.7866 45 45.3477 45 45.0552L44.4146 43.0072C52.9024 48.8585 64.4634 48.7122 72.8049 42.4221C73.0975 42.1295 73.2439 41.6907 72.9512 41.3981C72.6585 41.1055 72.2195 40.9592 71.7805 41.2518Z" fill="#727161"/>
<path d="M67.7345 25.7719C67.1119 24.8944 66.178 24.1631 65.0884 23.7243C65.711 23.2856 66.3337 22.7005 66.8006 21.9693C67.2676 21.238 67.4232 20.5067 67.4232 19.6291C67.4232 18.8979 67.2676 18.0203 66.9563 17.4353C66.6449 16.704 66.3336 16.119 65.711 15.534C65.2441 14.9489 64.4658 14.5102 63.6876 14.2176C62.9093 13.9251 61.9754 13.7789 60.8859 13.7789H60.7302V11H58.0842V13.9251H55.1268V11H52.4808V13.9251H49.5234V16.8503H60.7302C61.8198 16.8503 62.598 17.1428 63.065 17.7278C63.5319 18.3128 63.8432 19.0441 63.8432 19.7754C63.8432 20.6529 63.5319 21.238 62.9093 21.823C62.2867 22.408 61.5085 22.7005 60.2633 22.7005H55.1268V19.7754H52.0138V22.7005V32.646H49.6791V35.5711H52.6364V38.35H55.2825V35.5711H55.9051H58.0842V38.35H60.7302V35.5711H61.0415C62.1311 35.5711 63.2206 35.4249 64.1545 35.1324C65.0884 34.8398 65.8667 34.4011 66.4893 33.816C67.1119 33.231 67.7345 32.4997 68.0458 31.7684C68.3571 30.8909 68.6684 30.0134 68.6684 29.1358C68.6684 27.6733 68.3571 26.6495 67.7345 25.7719ZM64.3102 31.6222C63.5319 32.3535 62.4424 32.646 61.1972 32.646H55.4381V25.4794H61.0415C62.4424 25.4794 63.5319 25.7719 64.3102 26.5032C65.0884 27.0882 65.3997 27.9658 65.3997 29.1358C65.3997 30.1596 65.0884 31.0372 64.3102 31.6222Z" fill="#727161"/>
</svg>
