<svg width="16" height="17" viewBox="0 0 16 17" fill="none" xmlns="http://www.w3.org/2000/svg">
<path d="M9.71112 7.46167V6.38477" stroke="#727161"/>
<path d="M6.21118 9.61548L6.21118 10.6924" stroke="#727161"/>
<path d="M6.21118 2.6156V1.5387" stroke="#727161"/>
<path d="M9.44196 15.5385V14.4615" stroke="#727161"/>
<path d="M9.71112 5.30786V1.5387" stroke="#727161"/>
<path d="M6.21118 11.7693L6.21118 15.5385" stroke="#727161"/>
<path d="M13.7497 2.88464V4.923C13.7497 6.02757 12.8543 6.923 11.7497 6.923H11.5959" stroke="#727161"/>
<circle r="1.0769" transform="matrix(-1 0 0 1 13.7498 2.0769)" stroke="#727161"/>
<path d="M1.90424 14.0038L1.90424 12.1539C1.90424 11.0493 2.79967 10.1539 3.90424 10.1539L4.05804 10.1539" stroke="#727161"/>
<circle r="1.0769" transform="matrix(1 8.74228e-08 8.74228e-08 -1 1.90405 15)" stroke="#727161"/>
<path d="M13.7493 14.0038L13.7493 12.1539C13.7493 11.0493 12.8539 10.1539 11.7493 10.1539L11.5955 10.1539" stroke="#727161"/>
<circle cx="13.7495" cy="15" r="1.0769" transform="rotate(-180 13.7495 15)" stroke="#727161"/>
<path d="M9.44037 10.9884L9.44037 13.3846" stroke="#727161"/>
<ellipse rx="1.0768" ry="1.0769" transform="matrix(-1 0 0 1 9.442 10.1539)" stroke="#727161"/>
<path d="M6.21216 5.90002L6.21216 3.69254" stroke="#727161"/>
<ellipse rx="1.0768" ry="1.0769" transform="matrix(1 1.74863e-06 1.74828e-08 -1 6.21101 6.92322)" stroke="#727161"/>
<path d="M1.90375 2.88452L1.90375 4.92315C1.90375 6.02772 2.79918 6.92315 3.90375 6.92315L4.05755 6.92315" stroke="#727161"/>
<circle cx="1.90356" cy="2.07715" r="1.0769" stroke="#727161"/>
</svg>
