<svg width="41" height="40" viewBox="0 0 41 40" fill="none" xmlns="http://www.w3.org/2000/svg">
<path d="M2.40231 3.29332C3.29333 2.84781 3.73882 1.95679 3.29332 1.06578C2.84781 0.174764 1.95679 -0.27073 1.06578 0.174777C0.174764 0.620285 -0.27073 1.5113 0.174777 2.40231C0.620285 3.29333 1.95681 3.73882 2.40231 3.29332Z" fill="#6352CC"/>
<path d="M40.2723 1.06578C39.8268 0.174764 38.9358 -0.27073 38.0448 0.174777C37.1538 0.620285 36.7083 1.5113 37.1538 2.40231C37.5993 3.29333 38.4903 3.73882 39.3813 3.29332C40.2723 2.84781 40.7178 1.95679 40.2723 1.06578Z" fill="#6352CC"/>
<path d="M2.40231 39.8253C3.29333 39.3798 3.73882 38.4888 3.29332 37.5978C2.84781 36.7067 1.95679 36.2613 1.06578 36.7068C0.174764 37.1523 -0.27073 38.0433 0.174777 38.9343C0.620285 39.8253 1.95681 40.2708 2.40231 39.8253Z" fill="#6352CC"/>
<path d="M38.4906 36.7068C37.5996 37.1523 37.1541 38.0433 37.5996 38.9343C38.0451 39.8253 38.9361 40.2708 39.8271 39.8253C40.7181 39.3798 41.1636 38.4888 40.7181 37.5978C40.2726 36.7067 38.9361 36.2613 38.4906 36.7068Z" fill="#6352CC"/>
<path d="M2.40332 20.2231C2.40332 24.6782 4.18535 29.1332 6.85839 32.2518L5.52186 33.5883C5.07635 34.0338 5.07635 34.9248 5.52186 35.3703C5.96737 35.8158 6.41288 35.8158 7.3039 35.3703L8.64041 34.0338C11.759 36.7069 16.214 38.4889 20.6691 38.4889C25.1242 38.4889 29.5793 36.7069 32.6978 34.0338L34.0343 35.3703C34.4798 35.8158 34.9254 35.8158 35.8164 35.3703C36.2619 34.9248 36.2619 34.0338 35.8164 33.5883L34.4798 32.2518C37.1529 29.1332 38.9349 24.6782 38.9349 20.2231C38.9349 15.768 37.1529 11.3129 34.4798 8.19439L35.8164 6.85788C36.2619 6.41238 36.2619 5.52136 35.8164 5.07585C35.3709 4.63034 34.4798 4.63034 34.0343 5.07585L32.6978 6.41235C29.5793 3.73931 25.1242 1.95728 20.6691 1.95728C19.3326 1.95728 17.9961 1.9573 16.6595 2.40281C16.214 2.40281 15.7685 3.2938 15.7685 3.73931C15.7685 4.18482 16.6596 4.63035 17.1051 4.63035C18.4416 4.18484 19.3326 4.18481 20.6691 4.18481C24.6787 4.18481 28.2427 5.52134 30.9158 8.19439L28.6882 10.4219C26.4607 8.63989 23.7877 7.30338 20.6691 7.30338C17.5506 7.30338 14.8775 8.19439 12.65 10.4219L10.4225 8.19439C11.3135 7.74888 11.759 6.85786 12.65 6.41235C13.0955 5.96684 13.541 5.52136 13.0955 4.63035C12.65 4.18484 12.2045 3.73931 11.3135 4.18481C10.4225 4.63032 9.53143 5.52134 8.64041 5.96685L7.3039 4.63035C6.85839 4.18484 5.96737 4.18484 5.52186 4.63035C5.07635 5.07585 5.07635 5.96684 5.52186 6.41235L6.85839 7.74889C5.96738 8.6399 5.52187 9.5309 4.63086 10.8674C3.29434 13.5405 2.40332 16.659 2.40332 20.2231ZM20.6691 35.8159C16.6596 35.8159 13.0955 34.4793 10.4225 31.8063L12.65 29.5788C14.8775 31.3608 17.5506 32.2518 20.6691 32.2518C23.7877 32.2518 26.4607 31.3608 28.6882 29.1333L30.9158 31.3608C28.2427 34.4793 24.6787 35.8159 20.6691 35.8159ZM22.0056 20.2231L24.2332 17.9956C24.6787 18.8866 24.6787 19.3321 24.6787 20.2231C24.6787 21.1141 24.2332 22.0051 24.2332 22.4506L22.0056 20.2231ZM22.8967 24.2326C22.0056 24.6782 21.5601 24.6782 20.6691 24.6782C19.7781 24.6782 18.8871 24.6782 18.4416 24.2326L20.6691 22.0051L22.8967 24.2326ZM20.6691 18.4411L18.4416 16.2135C19.3326 15.768 19.7781 15.768 20.6691 15.768C21.5601 15.768 22.4511 16.2135 22.8967 16.659L20.6691 18.4411ZM18.8871 20.2231L16.6595 22.4506C16.214 21.5596 15.7685 21.1141 15.7685 20.2231C15.7685 19.3321 16.214 18.4411 16.214 17.9956L18.8871 20.2231ZM16.6595 25.5692C17.9961 26.4602 19.3326 26.9057 20.6691 26.9057C22.0056 26.9057 23.7877 26.4602 24.6787 25.5692L26.9062 27.7967C25.1242 29.1332 22.8967 30.0243 20.6691 30.0243C18.4416 30.0243 16.214 29.1332 14.432 27.7967L16.6595 25.5692ZM32.6978 9.53092C34.9254 12.204 36.7074 15.768 36.7074 19.7776C36.7074 23.7871 35.3709 27.3512 32.6978 30.0243L30.4703 27.7967C32.2523 25.5692 33.5888 22.8961 33.5888 19.7776C33.5888 16.659 32.6978 13.986 30.9158 11.7585L32.6978 9.53092ZM30.9158 20.2231C30.9158 22.4506 30.0248 24.6782 28.6882 26.4602L26.4607 24.2326C27.3517 22.8961 27.7972 21.5596 27.7972 20.2231C27.7972 18.8866 27.3517 17.5501 26.4607 16.2135L28.6882 13.986C30.0248 15.3225 30.9158 17.5501 30.9158 20.2231ZM20.6691 9.53092C22.8967 9.53092 25.5697 10.4219 27.3517 11.7585L25.1242 13.986C23.7877 13.095 22.4511 12.6495 21.1146 12.6495C19.7781 12.6495 18.4416 13.095 17.1051 13.986L14.8775 11.7585C15.7685 10.4219 17.9961 9.53092 20.6691 9.53092ZM12.65 13.5405L14.8775 15.768C13.9865 17.1046 13.541 18.441 13.541 19.7776C13.541 21.1141 13.9865 22.8961 14.8775 23.7871L12.65 26.0147C11.3135 24.2327 10.4225 22.0051 10.4225 19.3321C9.97694 17.55 10.868 15.3225 12.65 13.5405ZM8.64041 9.53092L10.868 11.7585C9.08592 13.986 7.7494 16.659 7.7494 19.7776C7.7494 22.8961 9.08592 25.5692 10.868 27.7967L8.64041 30.0243C6.41288 27.3512 4.63086 23.3416 4.63086 19.7776C4.63086 16.2135 5.96737 12.6495 8.64041 9.53092Z" fill="#6352CC"/>
</svg>
