<svg width="40" height="42" viewBox="0 0 40 42" fill="none" xmlns="http://www.w3.org/2000/svg">
<path d="M14.5718 18.1432V15.2861" stroke="#727161" stroke-width="2"/>
<path d="M23.8574 23.8575L23.8574 26.7146" stroke="#727161" stroke-width="2"/>
<path d="M23.8574 5.28629V2.4292" stroke="#727161" stroke-width="2"/>
<path d="M15.2861 39.5714V36.7144" stroke="#727161" stroke-width="2"/>
<path d="M14.5718 12.429V2.4292" stroke="#727161" stroke-width="2"/>
<path d="M23.8574 29.5717L23.8574 39.5715" stroke="#727161" stroke-width="2"/>
<path d="M3.85693 6V14.714C3.85693 15.8186 4.75236 16.714 5.85693 16.714H9.57112" stroke="#727161" stroke-width="2"/>
<circle cx="3.85709" cy="3.85709" r="2.85709" stroke="#727161" stroke-width="2"/>
<path d="M35.2842 35.5L35.2842 27.286C35.2842 26.1814 34.3887 25.286 33.2842 25.286L29.57 25.286" stroke="#727161" stroke-width="2"/>
<circle cx="35.2845" cy="38.1429" r="2.85709" transform="rotate(180 35.2845 38.1429)" stroke="#727161" stroke-width="2"/>
<path d="M3.85791 35.5L3.85791 27.286C3.85791 26.1814 4.75334 25.286 5.85791 25.286L9.57209 25.286" stroke="#727161" stroke-width="2"/>
<circle r="2.85709" transform="matrix(1 -8.74228e-08 -8.74228e-08 -1 3.85758 38.1429)" stroke="#727161" stroke-width="2"/>
<path d="M15.2905 27.5L15.2905 33.8572" stroke="#727161" stroke-width="2"/>
<ellipse cx="15.286" cy="25.286" rx="2.85681" ry="2.85709" stroke="#727161" stroke-width="2"/>
<path d="M23.8545 14L23.8545 8.1434" stroke="#727161" stroke-width="2"/>
<ellipse rx="2.85681" ry="2.85709" transform="matrix(-1 1.74863e-06 -1.74828e-08 -1 23.8575 16.7147)" stroke="#727161" stroke-width="2"/>
<path d="M35.2856 6L35.2856 14.7147C35.2856 15.8193 34.3902 16.7147 33.2856 16.7147L29.5715 16.7147" stroke="#727161" stroke-width="2"/>
<circle r="2.85709" transform="matrix(-1 -1.74846e-07 -1.74846e-07 1 35.286 3.85782)" stroke="#727161" stroke-width="2"/>
</svg>
