<svg width="50" height="32" viewBox="0 0 50 32" fill="none" xmlns="http://www.w3.org/2000/svg">
<g clip-path="url(#clip0)">
<path d="M14.452 8.11054C14.8722 8.11054 15.2128 7.7752 15.2128 7.36154C15.2128 6.94788 14.8722 6.61255 14.452 6.61255C14.0318 6.61255 13.6912 6.94788 13.6912 7.36154C13.6912 7.7752 14.0318 8.11054 14.452 8.11054Z" fill="#495352"/>
<path d="M14.452 10.9997C14.8722 10.9997 15.2128 10.6644 15.2128 10.2507C15.2128 9.83705 14.8722 9.50171 14.452 9.50171C14.0318 9.50171 13.6912 9.83705 13.6912 10.2507C13.6912 10.6644 14.0318 10.9997 14.452 10.9997Z" fill="#495352"/>
<path d="M10.4312 10.9997C10.8514 10.9997 11.192 10.6644 11.192 10.2507C11.192 9.83705 10.8514 9.50171 10.4312 9.50171C10.011 9.50171 9.67043 9.83705 9.67043 10.2507C9.67043 10.6644 10.011 10.9997 10.4312 10.9997Z" fill="#495352"/>
<path d="M14.452 13.7814C14.8722 13.7814 15.2128 13.4461 15.2128 13.0324C15.2128 12.6188 14.8722 12.2834 14.452 12.2834C14.0318 12.2834 13.6912 12.6188 13.6912 13.0324C13.6912 13.4461 14.0318 13.7814 14.452 13.7814Z" fill="#495352"/>
<path d="M10.4312 13.7814C10.8514 13.7814 11.192 13.4461 11.192 13.0324C11.192 12.6188 10.8514 12.2834 10.4312 12.2834C10.011 12.2834 9.67043 12.6188 9.67043 13.0324C9.67043 13.4461 10.011 13.7814 10.4312 13.7814Z" fill="#495352"/>
<path d="M6.41019 13.7814C6.83036 13.7814 7.17097 13.4461 7.17097 13.0324C7.17097 12.6188 6.83036 12.2834 6.41019 12.2834C5.99003 12.2834 5.64941 12.6188 5.64941 13.0324C5.64941 13.4461 5.99003 13.7814 6.41019 13.7814Z" fill="#495352"/>
<path d="M14.452 16.6706C14.8722 16.6706 15.2128 16.3353 15.2128 15.9216C15.2128 15.5079 14.8722 15.1726 14.452 15.1726C14.0318 15.1726 13.6912 15.5079 13.6912 15.9216C13.6912 16.3353 14.0318 16.6706 14.452 16.6706Z" fill="#495352"/>
<path d="M10.4312 16.6706C10.8514 16.6706 11.192 16.3353 11.192 15.9216C11.192 15.5079 10.8514 15.1726 10.4312 15.1726C10.011 15.1726 9.67043 15.5079 9.67043 15.9216C9.67043 16.3353 10.011 16.6706 10.4312 16.6706Z" fill="#495352"/>
<path d="M6.41019 16.6706C6.83036 16.6706 7.17097 16.3353 7.17097 15.9216C7.17097 15.5079 6.83036 15.1726 6.41019 15.1726C5.99003 15.1726 5.64941 15.5079 5.64941 15.9216C5.64941 16.3353 5.99003 16.6706 6.41019 16.6706Z" fill="#495352"/>
<path d="M2.38902 16.6706C2.80919 16.6706 3.1498 16.3353 3.1498 15.9216C3.1498 15.5079 2.80919 15.1726 2.38902 15.1726C1.96886 15.1726 1.62825 15.5079 1.62825 15.9216C1.62825 16.3353 1.96886 16.6706 2.38902 16.6706Z" fill="#495352"/>
<path d="M14.452 19.3454C14.8722 19.3454 15.2128 19.0101 15.2128 18.5964C15.2128 18.1828 14.8722 17.8474 14.452 17.8474C14.0318 17.8474 13.6912 18.1828 13.6912 18.5964C13.6912 19.0101 14.0318 19.3454 14.452 19.3454Z" fill="#495352"/>
<path d="M12.3878 15.0654C12.8079 15.0654 13.1486 14.73 13.1486 14.3164C13.1486 13.9027 12.8079 13.5674 12.3878 13.5674C11.9676 13.5674 11.627 13.9027 11.627 14.3164C11.627 14.73 11.9676 15.0654 12.3878 15.0654Z" fill="#495352"/>
<path d="M12.3878 17.8475C12.8079 17.8475 13.1486 17.5121 13.1486 17.0985C13.1486 16.6848 12.8079 16.3495 12.3878 16.3495C11.9676 16.3495 11.627 16.6848 11.627 17.0985C11.627 17.5121 11.9676 17.8475 12.3878 17.8475Z" fill="#495352"/>
<path d="M8.36534 15.0654C8.78551 15.0654 9.12612 14.73 9.12612 14.3164C9.12612 13.9027 8.78551 13.5674 8.36534 13.5674C7.94518 13.5674 7.60457 13.9027 7.60457 14.3164C7.60457 14.73 7.94518 15.0654 8.36534 15.0654Z" fill="#495352"/>
<path d="M8.36534 17.8475C8.78551 17.8475 9.12612 17.5121 9.12612 17.0985C9.12612 16.6848 8.78551 16.3495 8.36534 16.3495C7.94518 16.3495 7.60457 16.6848 7.60457 17.0985C7.60457 17.5121 7.94518 17.8475 8.36534 17.8475Z" fill="#495352"/>
<path d="M4.34595 17.8475C4.76612 17.8475 5.10673 17.5121 5.10673 17.0985C5.10673 16.6848 4.76612 16.3495 4.34595 16.3495C3.92579 16.3495 3.58517 16.6848 3.58517 17.0985C3.58517 17.5121 3.92579 17.8475 4.34595 17.8475Z" fill="#495352"/>
<path d="M0.323169 17.8475C0.743333 17.8475 1.08395 17.5121 1.08395 17.0985C1.08395 16.6848 0.743333 16.3495 0.323169 16.3495C-0.0969962 16.3495 -0.437607 16.6848 -0.437607 17.0985C-0.437607 17.5121 -0.0969962 17.8475 0.323169 17.8475Z" fill="#495352"/>
<path d="M10.4312 19.3454C10.8514 19.3454 11.192 19.0101 11.192 18.5964C11.192 18.1828 10.8514 17.8474 10.4312 17.8474C10.011 17.8474 9.67043 18.1828 9.67043 18.5964C9.67043 19.0101 10.011 19.3454 10.4312 19.3454Z" fill="#495352"/>
<path d="M6.41019 19.3454C6.83036 19.3454 7.17097 19.0101 7.17097 18.5964C7.17097 18.1828 6.83036 17.8474 6.41019 17.8474C5.99003 17.8474 5.64941 18.1828 5.64941 18.5964C5.64941 19.0101 5.99003 19.3454 6.41019 19.3454Z" fill="#495352"/>
<path d="M2.38902 19.3454C2.80919 19.3454 3.1498 19.0101 3.1498 18.5964C3.1498 18.1828 2.80919 17.8474 2.38902 17.8474C1.96886 17.8474 1.62825 18.1828 1.62825 18.5964C1.62825 19.0101 1.96886 19.3454 2.38902 19.3454Z" fill="#495352"/>
<path d="M30.3197 25.7653H-1.74159V27.4773H31.8412C31.2978 26.9423 30.7544 26.4073 30.3197 25.7653Z" fill="#495352"/>
<path d="M28.2553 21.1646H-2.06703V22.8766H28.9074C28.69 22.2346 28.4727 21.6996 28.2553 21.1646Z" fill="#495352"/>
<path d="M27.1685 16.3495H16.1916V18.0615H27.3859C27.2772 17.5265 27.1685 16.9915 27.1685 16.3495Z" fill="#495352"/>
<path d="M27.7119 11.7484H16.1916V13.4604H27.3859C27.4945 12.8184 27.6032 12.2834 27.7119 11.7484Z" fill="#495352"/>
<path d="M29.4508 7.04053H16.1916V8.75252H28.5814C28.7987 8.11052 29.1248 7.57552 29.4508 7.04053Z" fill="#495352"/>
</g>
<path d="M38.7044 0.112793V3.35688V6.60096C39.1987 6.60096 39.5282 6.43876 40.0224 6.43876C40.8462 6.43876 41.5052 6.60096 42.1643 6.76317C42.8233 6.92537 43.3175 7.08757 43.647 7.41198C43.9766 7.73639 44.4708 8.0608 44.6356 8.38521C44.9651 8.70962 45.1298 9.19623 45.2946 9.52064L48.4249 8.54741C47.9307 7.24978 47.1069 6.27655 46.1184 5.30333C44.9651 4.3301 43.647 3.68129 41.9995 3.51908V0.112793H38.7044Z" fill="#8C9C9A"/>
<path d="M33.7614 25.4166C35.0795 26.3898 36.727 27.0386 38.7041 27.2008V30.4449H41.9992V27.2008V23.9568C41.5049 23.9568 41.1754 24.119 40.6812 24.119C39.0336 24.119 37.5508 23.7946 36.3975 23.1457C35.2442 22.4969 34.5852 21.8481 34.0909 20.8749L30.9606 21.8481C31.6196 23.3079 32.4434 24.4434 33.7614 25.4166Z" fill="#8C9C9A"/>
<path d="M36.2347 7.41221C36.3994 7.25001 36.3994 7.25001 36.5642 7.08781V3.68152C35.4109 4.00593 34.4224 4.49254 33.5986 5.30356C32.4453 6.43899 31.7863 7.89883 31.6215 9.68307C31.6215 10.6563 31.7863 11.6295 32.1158 12.2783C32.4453 12.9272 32.9396 13.576 33.5986 14.0626C34.2576 14.5492 35.0814 15.0358 36.0699 15.3602C37.0584 15.6846 38.2117 16.009 39.365 16.4956C40.3535 16.8201 41.3421 17.1445 42.0011 17.3067C42.8249 17.6311 43.4839 17.7933 43.9782 18.1177C44.4724 18.4421 44.9667 18.7665 45.1314 19.0909C45.461 19.4153 45.461 19.9019 45.461 20.5507C45.461 21.1996 45.2962 21.524 45.1314 22.0106C44.8019 22.4972 44.4724 22.8216 43.9782 23.146L43.8134 23.3082V26.8767C44.1429 26.7145 44.4724 26.7145 44.8019 26.5523C45.6257 26.2279 46.4495 25.5791 47.1085 25.0925C47.7675 24.4436 48.2618 23.7948 48.5913 22.9838C48.9208 22.1728 49.0856 21.3618 49.0856 20.5507C49.0856 19.4153 48.9208 18.6043 48.4265 17.7933C47.9323 16.9823 47.438 16.3334 46.6142 15.8468C45.7905 15.3602 44.9667 14.8736 43.9782 14.387C42.9896 14.0626 41.8363 13.576 40.5183 13.2516C38.5412 12.765 37.2232 12.2783 36.3994 11.6295C35.5756 11.1429 35.0814 10.3319 35.0814 9.52087C35.0814 9.03426 35.2461 8.70985 35.4109 8.38544C35.5756 8.22324 35.9052 7.73662 36.2347 7.41221Z" fill="#8C9C9A"/>
<defs>
<clipPath id="clip0">
<rect width="45.4982" height="31.8487" fill="white" transform="translate(0.0996094 0.112793)"/>
</clipPath>
</defs>
</svg>
