<svg width="35" height="40" viewBox="0 0 35 40" fill="none" xmlns="http://www.w3.org/2000/svg">
<path d="M20 0H15V17.5H20V0Z" fill="#087464"/>
<path fill-rule="evenodd" clip-rule="evenodd" d="M11.2501 6.14893C4.67161 8.66496 0 15.0369 0 22.4999C0 32.1649 7.83502 39.9999 17.5 39.9999C27.165 39.9999 35 32.1649 35 22.4999C35 15.0369 30.3285 8.66506 23.7501 6.14899V10.5307C28.0593 12.7855 31 17.2993 31 22.4999C31 29.9557 24.9558 35.9999 17.5 35.9999C10.0442 35.9999 4 29.9557 4 22.4999C4 17.2992 6.94074 12.7854 11.2501 10.5306V6.14893Z" fill="#087464"/>
</svg>
