<svg width="28" height="22" viewBox="0 0 28 22" fill="none" xmlns="http://www.w3.org/2000/svg">
<path d="M20.3698 0L20.3653 2.26831L20.3608 4.55601C20.6575 4.51724 20.9739 4.49785 21.3299 4.49785C21.9033 4.49785 22.4174 4.55601 22.8126 4.67234C23.2079 4.78866 23.5832 4.96315 23.8597 5.15702C24.1559 5.37028 24.3927 5.60293 24.5702 5.85496C24.7477 6.107 24.9053 6.37842 25.0234 6.66923L27.2396 5.93251C26.9051 5.06008 26.3529 4.30398 25.6028 3.64481C24.8527 2.98564 23.8648 2.55912 22.6986 2.34586L22.7032 0.0193874H20.3698L20.3698 0Z" fill="#495352"/>
<path d="M22.6608 21.4617L22.6699 16.8669C22.3534 16.925 22.037 16.9444 21.7008 16.9444C20.4946 16.9444 19.4865 16.7312 18.7359 16.2853C17.9656 15.8393 17.4328 15.3159 17.1175 14.7149L14.9409 15.4516C15.3346 16.3434 15.9857 17.1189 16.9137 17.8169C17.8417 18.4954 18.9878 18.9413 20.3716 19.1352L20.367 21.4617H22.6608Z" fill="#495352"/>
<path d="M24.2728 16.2854C24.2134 16.3242 24.1738 16.3436 24.1144 16.3824L24.1094 18.9221C24.3666 18.8446 24.6238 18.767 24.8415 18.6507C25.4749 18.3599 26.0293 18.0109 26.4651 17.5844C26.901 17.1579 27.2381 16.6732 27.4567 16.1303C27.6753 15.5875 27.7951 15.0253 27.7963 14.4242C27.7977 13.6875 27.6408 13.0478 27.3452 12.5243C27.0299 12.0008 26.6155 11.5549 26.0823 11.1672C25.5492 10.7794 24.8973 10.4692 24.1661 10.1978C23.435 9.9264 22.6248 9.67436 21.7552 9.44172C20.4112 9.07336 19.4232 8.705 18.8109 8.35603C18.1789 7.98767 17.8833 7.4836 17.8845 6.86321C17.8851 6.5724 17.9449 6.30097 18.0641 6.01017C18.1833 5.73874 18.3816 5.48671 18.6589 5.25406C18.7381 5.1959 18.8173 5.13774 18.9163 5.07958L18.9212 2.55923C18.0902 2.81126 17.3776 3.17962 16.8229 3.70308C15.9512 4.51734 15.4944 5.54487 15.4524 6.76627C15.4312 7.50299 15.5486 8.12338 15.8047 8.62745C16.0608 9.13152 16.4158 9.57743 16.9095 9.94579C17.4031 10.3141 17.9759 10.6243 18.6675 10.8764C19.3591 11.1478 20.1298 11.3804 20.9796 11.6325C21.7109 11.8457 22.3433 12.0396 22.8768 12.2141C23.4104 12.3886 23.8846 12.6018 24.2401 12.8151C24.6154 13.0284 24.8917 13.2804 25.0692 13.5324C25.2466 13.8039 25.3448 14.1334 25.3441 14.5018C25.3433 14.8895 25.2438 15.2191 25.0652 15.5293C24.8669 15.8201 24.6093 16.0722 24.2728 16.2854Z" fill="#495352"/>
<rect x="6" y="13" width="7" height="2" fill="#495352"/>
<rect x="3" y="13" width="2" height="2" fill="#495352"/>
<rect x="3" y="9" width="7" height="2" fill="#495352"/>
<rect y="9" width="2" height="2" fill="#495352"/>
<rect x="5" y="5" width="8" height="2" fill="#495352"/>
</svg>
