<svg width="32" height="32" viewBox="0 0 32 32" fill="none" xmlns="http://www.w3.org/2000/svg">
<path d="M23.4369 14.3551H22.7523C22.0677 11.1866 20.1693 9.21434 17.1195 8.53537C17.1195 8.43838 17.1195 8.34138 17.1195 8.24439C17.1195 7.85641 17.1195 7.4361 17.1195 7.01579C17.1195 6.69247 17.1195 6.27216 16.8394 6.01351C16.5594 5.75485 16.1548 5.72252 15.8436 5.75485C15.2834 5.78718 14.9411 6.17516 14.9411 6.7248C14.9411 6.91879 14.9411 7.11278 14.9411 7.30677V8.53537C11.8913 9.24667 9.99296 11.1866 9.33943 14.3551H7.62782C7.03653 14.3551 6.69421 14.743 6.66309 15.325C6.66309 15.422 6.66309 15.5513 6.66309 15.6483C6.66309 16.2303 7.03653 16.5859 7.56558 16.5859C7.81454 16.5859 8.0635 16.5859 8.31246 16.5859H9.30831C9.55728 18.1055 10.2108 19.3988 11.2067 20.4334C12.2336 21.5003 13.4784 22.147 14.91 22.4056V22.9876C14.91 23.3756 14.91 23.7959 14.91 24.1839C14.91 24.7658 15.2523 25.1215 15.8125 25.1538C15.8436 25.1538 15.9058 25.1538 15.9681 25.1538H15.9992C16.7461 25.1538 17.0884 24.8305 17.0884 24.0545C17.0884 23.5049 17.0884 22.9553 17.0884 22.4056C19.9826 21.9207 22.2233 19.5928 22.6901 16.5536C23.2813 16.5536 23.8415 16.5536 24.4328 16.5536C24.993 16.5536 25.3664 16.1656 25.3664 15.5837C25.3664 15.4867 25.3664 15.3573 25.3664 15.2603C25.3664 14.6784 24.993 14.2904 24.4328 14.2904C24.1216 14.3551 23.7793 14.3551 23.4369 14.3551ZM20.6361 15.5837C20.6361 18.2025 18.5511 20.3041 16.0303 20.3041C14.7855 20.3041 13.634 19.7868 12.7627 18.8815C11.8913 17.9762 11.4245 16.7476 11.4245 15.4543C11.4245 12.8355 13.5096 10.7339 16.0614 10.7339C16.0614 10.7339 16.0614 10.7339 16.0925 10.7339C17.3062 10.7339 18.4577 11.2512 19.3291 12.1565C20.1693 13.0618 20.6361 14.2581 20.6361 15.5837Z" fill="#8C9C9A"/>
<path d="M16.0616 13.8378C15.6259 13.8378 15.2214 13.9994 14.9102 14.3227C14.599 14.6461 14.4434 15.034 14.4434 15.4867C14.4434 15.9393 14.599 16.3596 14.9102 16.6506C15.2214 16.9416 15.5948 17.1356 16.0305 17.1356C16.9019 17.1356 17.6176 16.392 17.6176 15.4867C17.6176 14.5814 16.933 13.8378 16.0616 13.8378Z" fill="#8C9C9A"/>
<path d="M29.4744 8.47079C29.8167 8.14748 30.0657 7.72716 30.1902 7.24219C30.4391 6.01359 29.6922 4.81732 28.4785 4.55867C27.8561 4.42934 27.2649 4.591 26.7669 4.91431C26.4557 5.14064 26.1756 5.46395 26.02 5.85193C25.9578 6.01359 25.8956 6.14292 25.8644 6.30457C25.6155 7.53317 26.3935 8.72944 27.5449 8.9881C27.825 9.05276 28.1362 9.05276 28.4163 8.9881C28.852 9.92571 29.1943 10.928 29.4433 11.9303L29.3188 11.9626C29.7545 13.5792 29.879 15.1958 29.7545 16.8447C29.6922 17.3297 29.63 17.847 29.5366 18.3319C29.1321 20.3042 28.3852 22.1147 27.296 23.699C27.2649 23.699 27.2649 23.699 27.2337 23.699C26.269 23.4727 25.3043 24.1516 25.0864 25.1539C24.9931 25.5419 25.0553 25.9299 25.1798 26.2855C23.5304 27.8374 21.5387 28.9367 19.4225 29.5187L19.3914 29.454C17.2752 30.036 15.1279 30.133 12.9806 29.6803C11.1756 29.26 9.49514 28.5164 8.0636 27.4818C8.09473 27.4171 8.09472 27.3848 8.09472 27.3201C8.31257 26.3178 7.65904 25.3156 6.69431 25.0892C6.32087 24.9922 5.94742 25.0569 5.6051 25.1862H5.57398C2.83539 21.9531 1.49721 17.362 2.43082 12.7386C3.02211 9.79639 4.45365 7.1452 6.56983 5.17297C6.72543 5.23763 6.84991 5.30229 7.00551 5.33463C8.18809 5.59328 9.33954 4.78499 9.5885 3.58872C9.65074 3.29773 9.65074 2.97442 9.5885 2.68343C12.3893 1.29317 15.5636 0.872864 18.6134 1.5195C20.6985 1.97214 22.5968 2.87742 24.2462 4.20302L24.9308 3.2654C23.1258 1.84281 21.0719 0.840532 18.8312 0.355558C15.5947 -0.388069 12.1404 0.0645737 9.1217 1.58416C8.81049 1.22851 8.40593 0.969859 7.93912 0.840532C6.75655 0.581879 5.6051 1.35784 5.35614 2.61877C5.23165 3.2654 5.38726 3.8797 5.69846 4.39701C3.48892 6.5309 1.96402 9.34374 1.31049 12.4799C0.283522 17.4913 1.74618 22.4704 4.79597 26.0269C4.70261 26.1885 4.64037 26.3502 4.60925 26.5442C4.42253 27.5464 5.04493 28.5487 6.00966 28.775C6.47647 28.872 6.94327 28.775 7.34784 28.5164C8.96609 29.648 10.74 30.424 12.6694 30.8443C12.7317 30.8443 12.7628 30.8766 12.825 30.8766C12.8561 30.8766 12.8873 30.8766 12.8873 30.9089C17.6175 31.9435 22.4723 30.5533 25.9889 27.2231C26.1445 27.3201 26.3312 27.3848 26.518 27.4494C27.4827 27.6758 28.4474 26.9968 28.6653 25.9945C28.7586 25.5095 28.6653 25.0246 28.4163 24.6043C29.5055 22.923 30.2524 21.0801 30.657 19.0756C30.8126 18.3643 30.8748 17.6853 30.937 16.974C31.2171 14.0642 30.7192 11.122 29.4744 8.47079ZM29.0698 6.98354C28.9453 7.56551 28.4163 7.95349 27.825 7.82416C27.7005 7.79183 27.6072 7.7595 27.5138 7.69483C27.4827 7.6625 27.4205 7.63017 27.3893 7.59784C27.2337 7.46851 27.1092 7.27452 27.047 7.08053C26.9848 6.91887 26.9848 6.72488 27.0159 6.5309C27.0781 6.20758 27.2649 5.94893 27.5449 5.78727C27.7628 5.65794 28.0117 5.62561 28.2607 5.69027C28.8209 5.8196 29.1943 6.40157 29.0698 6.98354ZM6.44535 2.84509C6.56983 2.26312 7.12999 1.87514 7.69016 2.00447C8.25033 2.1338 8.62377 2.68343 8.49929 3.29773C8.46817 3.42706 8.43705 3.52406 8.37481 3.62105C8.34369 3.65338 8.31257 3.71805 8.28145 3.75038C8.15697 3.91203 7.97024 4.04136 7.78352 4.10602C7.62792 4.17069 7.4412 4.17069 7.25448 4.13836C6.94327 4.07369 6.69431 3.8797 6.53871 3.58872C6.44535 3.3624 6.41423 3.10374 6.44535 2.84509ZM6.25863 27.6111C6.19638 27.6111 6.13414 27.5788 6.0719 27.5141C6.00966 27.4818 5.94742 27.4171 5.9163 27.3848C5.82294 27.2878 5.79182 27.1585 5.7607 27.0291C5.97854 27.2231 6.16526 27.4171 6.38311 27.6111C6.35199 27.6111 6.28975 27.6111 6.25863 27.6111ZM27.5449 25.7035C27.5449 25.7682 27.5138 25.8329 27.4516 25.8975C27.4205 25.9622 27.3582 26.0269 27.3271 26.0592C27.2026 26.1562 27.0781 26.2208 26.9225 26.2208C26.8603 26.2208 26.8292 26.2208 26.7669 26.2208C26.4868 26.1562 26.269 25.8975 26.2379 25.6065C26.2379 25.5742 26.2379 25.5742 26.2379 25.5419C26.2379 25.5095 26.2379 25.4772 26.2379 25.4126C26.269 25.2186 26.3935 25.0569 26.5491 24.9599C26.6113 24.8952 26.6736 24.8952 26.7669 24.8629C26.8603 24.8629 26.9536 24.8629 27.0159 24.8629C27.3893 24.9922 27.6072 25.3479 27.5449 25.7035Z" fill="#8C9C9A"/>
</svg>
