<svg width="79" height="50" viewBox="0 0 79 50" fill="none" xmlns="http://www.w3.org/2000/svg">
<path d="M13.554 33.1427L13.554 35.7855" stroke="#067362" stroke-width="2"/>
<path d="M14.2147 13.3217L14.2147 15.9645" stroke="#067362" stroke-width="2"/>
<path d="M13.554 38.4283L13.554 47.6782" stroke="#067362" stroke-width="2"/>
<path d="M3.64282 44.3752L3.64282 36.4647C3.64282 35.3602 4.53825 34.4647 5.64282 34.4647L8.92843 34.4647" stroke="#067362" stroke-width="2"/>
<circle r="2.6428" transform="matrix(1 1.74846e-07 1.74846e-07 -1 3.64281 46.3572)" stroke="#067362" stroke-width="2"/>
<path d="M3.64343 17.0878L3.64343 24.5357C3.64343 25.6403 4.53886 26.5357 5.64343 26.5357L8.92904 26.5357" stroke="#067362" stroke-width="2"/>
<circle cx="3.64335" cy="14.6428" r="2.6428" stroke="#067362" stroke-width="2"/>
<path d="M14.2188 24.4876L14.2188 18.6072" stroke="#067362" stroke-width="2"/>
<ellipse rx="2.64255" ry="2.6428" transform="matrix(1 1.74846e-07 1.74846e-07 -1 14.2144 26.5356)" stroke="#067362" stroke-width="2"/>
<rect x="21" y="29" width="7" height="16" fill="#067362"/>
<rect x="24.257" y="21.6904" width="1.05715" height="26.4285" fill="#067362"/>
<rect x="32" y="16" width="7" height="20" fill="#067362"/>
<rect x="35.0633" y="12" width="1.05715" height="7.73032" fill="#067362"/>
<rect x="35.0633" y="34.9048" width="1.05715" height="7.73032" fill="#067362"/>
<path d="M74.3171 12.7266L75.4878 11.9952C75.1951 11.5563 74.9024 11.1175 74.6098 10.6786L73.439 11.4101C73.7317 11.8489 74.0244 12.2878 74.3171 12.7266Z" fill="#067362"/>
<path d="M76.8049 18.5779L78.1219 18.1391C77.9756 17.5539 77.8293 17.1151 77.6829 16.53L76.3658 16.9688C76.5122 17.5539 76.6585 17.9928 76.8049 18.5779Z" fill="#067362"/>
<path d="M77.5366 21.6499L78.8536 21.5036C78.8536 20.9185 78.7073 20.3333 78.561 19.8945L77.2439 20.187C77.3902 20.6259 77.3902 21.0647 77.5366 21.6499Z" fill="#067362"/>
<path d="M73.5853 9.36214C73.2926 8.92329 72.8536 8.48444 72.4146 8.04559L71.3902 9.06957C71.6829 9.50842 72.1219 9.80099 72.4146 10.2398L73.5853 9.36214Z" fill="#067362"/>
<path d="M76.6586 31.012L77.9756 31.4509C78.122 30.8657 78.2683 30.4269 78.4147 29.8418L77.0976 29.5492C76.9512 29.988 76.8049 30.4269 76.6586 31.012Z" fill="#067362"/>
<path d="M79 23.1127L77.6829 23.259C77.6829 23.6979 77.6829 24.1367 77.6829 24.5756V24.8681H79V24.5756C79 23.9904 79 23.5516 79 23.1127Z" fill="#067362"/>
<path d="M77.3903 27.94L78.7073 28.0863C78.8537 27.5012 78.8537 26.9161 78.8537 26.4772L77.5366 26.3309C77.5366 26.9161 77.5366 27.3549 77.3903 27.94Z" fill="#067362"/>
<path d="M75.6342 33.9377L76.8049 34.5228C77.0976 34.084 77.2439 33.4988 77.3903 32.9137L76.0732 32.4749C76.0732 32.9137 75.7805 33.3526 75.6342 33.9377Z" fill="#067362"/>
<path d="M77.0976 15.0671C76.8049 14.6283 76.6585 14.0432 76.3659 13.6043L75.1951 14.1894C75.4878 14.6283 75.6342 15.0671 75.9268 15.6523L77.0976 15.0671Z" fill="#067362"/>
<path d="M73.878 37.5947C73.1463 37.5947 72.561 38.1799 72.561 38.9113C72.561 39.6427 73.1463 40.2278 73.878 40.2278C74.6098 40.2278 75.1951 39.6427 75.1951 38.9113C75.1951 38.1799 74.6098 37.5947 73.878 37.5947Z" fill="#067362"/>
<path d="M41.8292 6.43646C49.7317 0.585143 60.4146 0.438859 68.4634 5.85133L66.1219 5.99761C65.6829 5.99761 65.3902 6.43646 65.3902 6.87531C65.3902 7.31416 65.8292 7.60672 66.2683 7.60672L70.6585 7.31416C70.8048 7.31416 70.9512 7.31416 70.9512 7.16788C71.0975 7.16788 71.0975 7.02159 71.0975 7.02159C71.2439 6.87531 71.2439 6.58274 71.2439 6.43646L70.0731 2.34054C69.9268 1.90169 69.4878 1.75541 69.1951 1.75541C68.7561 1.90169 68.6097 2.34054 68.6097 2.6331L69.1951 4.68107C60.7073 -1.17025 49.1463 -1.02397 40.8048 5.2662C40.5122 5.55876 40.3658 5.99761 40.6585 6.29018C40.9512 6.58274 41.5365 6.72903 41.8292 6.43646Z" fill="#067362"/>
<path d="M69.7805 41.2518C61.878 47.1031 51.1951 47.2494 43.1463 41.8369L45.4878 41.6907C45.9268 41.6907 46.2195 41.2518 46.2195 40.813C46.2195 40.3741 45.7805 40.0815 45.3415 40.0815L40.9512 40.3741C40.8049 40.3741 40.6585 40.3741 40.6585 40.5204C40.5122 40.5204 40.5122 40.6667 40.5122 40.6667C40.3658 40.813 40.3658 41.1055 40.3658 41.2518L41.5366 45.3477C41.6829 45.7866 42.1219 45.9329 42.4146 45.9329C42.8537 45.7866 43 45.3477 43 45.0552L42.4146 43.0072C50.9024 48.8585 62.4634 48.7122 70.8049 42.4221C71.0976 42.1295 71.2439 41.6907 70.9512 41.3981C70.6585 41.1055 70.2195 40.9592 69.7805 41.2518Z" fill="#067362"/>
<path d="M54.4146 10.5324V13.4581V16.3837C54.8536 16.3837 55.1463 16.2374 55.5853 16.2374C56.317 16.2374 56.9024 16.3837 57.4878 16.53C58.0731 16.6763 58.5122 16.8226 58.8049 17.1151C59.0975 17.4077 59.5366 17.7003 59.6829 17.9928C59.9756 18.2854 60.1219 18.7243 60.2683 19.0168L63.0488 18.1391C62.6097 16.9689 61.878 16.0912 61 15.2135C59.9756 14.3358 58.8049 13.7506 57.3414 13.6044V10.6787H54.4146V10.5324Z" fill="#067362"/>
<path d="M50.0244 33.3525C51.1952 34.2302 52.6586 34.8153 54.4147 34.9616V37.8873H57.3415V34.9616V32.036C56.9025 32.036 56.6098 32.1823 56.1708 32.1823C54.7074 32.1823 53.3903 31.8897 52.3659 31.3046C51.3415 30.7194 50.7561 30.1343 50.3171 29.2566L47.5366 30.4269C48.122 31.5971 48.8537 32.4748 50.0244 33.3525Z" fill="#067362"/>
<path d="M52.2195 17.2614C52.3658 17.1151 52.3658 17.1151 52.5122 16.9689V13.8969C51.4878 14.1895 50.6097 14.6283 49.878 15.3597C48.8537 16.3837 48.2683 17.7003 48.1219 19.3094C48.1219 20.1871 48.2683 21.0648 48.561 21.6499C48.8537 22.235 49.2927 22.8202 49.878 23.259C50.4634 23.6979 51.1951 24.1367 52.0732 24.4293C52.9512 24.7219 53.9756 25.0144 55 25.4533C55.878 25.7458 56.7561 26.0384 57.3415 26.1847C58.0732 26.4772 58.6585 26.6235 59.0976 26.9161C59.5366 27.2087 59.9756 27.5012 60.1219 27.7938C60.4146 28.0864 60.4146 28.5252 60.4146 29.1103C60.4146 29.5492 60.2683 29.988 60.1219 30.4269C59.8293 30.8657 59.5366 31.1583 59.0976 31.4509L58.9512 31.5971V34.8154C59.2439 34.6691 59.5366 34.6691 59.8293 34.5228C60.561 34.2302 61.2927 33.6451 61.878 33.2063C62.4634 32.6211 62.9024 32.036 63.1951 31.3046C63.4878 30.5732 63.6341 29.8418 63.6341 29.1103C63.6341 28.0864 63.4878 27.3549 63.0488 26.6235C62.6097 25.8921 62.1707 25.307 61.439 24.8681C60.7073 24.4293 59.9756 23.9904 59.0976 23.5516C58.2195 23.259 57.1951 22.8202 56.0244 22.5276C54.2683 22.0888 53.0976 21.6499 52.3658 21.0648C51.6341 20.6259 51.1951 19.8945 51.1951 19.1631C51.1951 18.7242 51.3415 18.4317 51.4878 18.1391C51.6341 17.8466 51.9268 17.554 52.2195 17.2614Z" fill="#067362"/>
</svg>
