<svg width="16" height="19" viewBox="0 0 16 19" fill="none" xmlns="http://www.w3.org/2000/svg">
<path d="M9.14286 0H6.85714V8H9.14286V0Z" fill="#087464"/>
<path d="M5.14289 2.81099C2.13559 3.96118 0 6.87405 0 10.2857C0 14.704 3.58172 18.2857 8 18.2857C12.4183 18.2857 16 14.704 16 10.2857C16 6.87407 13.8644 3.96122 10.8572 2.81101V4.91751C12.7748 5.9403 14.08 7.96059 14.08 10.2857C14.08 13.6436 11.3579 16.3657 8 16.3657C4.64211 16.3657 1.92 13.6436 1.92 10.2857C1.92 7.96057 3.22519 5.94026 5.14289 4.91748V2.81099Z" fill="#087464"/>
</svg>
