<svg width="39" height="45" viewBox="0 0 39 45" fill="none" xmlns="http://www.w3.org/2000/svg">
<g opacity="0.5" clip-path="url(#clip0)">
<path d="M32.9433 35.3823C32.4088 34.6764 31.7854 34.0588 31.0728 33.5735C30.5829 33.2646 30.0931 32.9558 29.5586 32.7352C29.336 32.647 29.1133 32.5146 28.8461 32.4705C28.6234 32.3823 28.3562 32.294 28.1335 32.2499C27.9109 32.2058 27.6437 32.1176 27.421 32.1176C27.1538 32.0735 26.9311 32.0293 26.6639 32.0293C26.0404 31.9852 25.3724 32.0293 24.7489 32.2058C24.1255 32.3382 23.5465 32.6029 23.0121 32.9117C22.4777 33.2205 21.9878 33.6617 21.587 34.1029C20.9635 34.8529 20.5627 35.8235 20.5182 36.794L20.4736 37.544C20.4736 37.8529 20.6963 38.1617 21.0526 38.1617C21.1862 38.1617 21.2753 38.1176 21.3643 38.0735C21.4089 38.0735 21.4534 38.0293 21.4534 37.9852C21.7206 37.7646 22.0323 37.544 22.3441 37.3235C23.0566 36.8382 23.8137 36.4852 24.6153 36.2205C24.9271 36.1323 25.1052 35.7793 25.0161 35.4705C24.9271 35.1617 24.5708 34.9852 24.2591 35.0735C23.3684 35.3382 22.5667 35.7352 21.7651 36.2205C21.8987 35.6911 22.1214 35.2058 22.4777 34.7646C22.7894 34.3676 23.1902 34.0588 23.591 33.794C24.0364 33.5293 24.4817 33.3529 24.9716 33.2205C25.4615 33.0882 25.9959 33.044 26.4858 33.0882C26.7084 33.0882 26.9311 33.1323 27.1093 33.1764C27.3319 33.2205 27.5101 33.2646 27.7327 33.3088C27.9554 33.3529 28.1335 33.4411 28.3562 33.4852C28.5344 33.5735 28.757 33.6176 28.9352 33.7058C29.425 33.9264 29.8704 34.1911 30.3157 34.4558C30.7165 34.7205 31.1174 35.0735 31.4736 35.4705C30.4048 36.1764 29.5141 37.0146 28.7125 37.9852L28.5344 38.2499C27.9554 38.9558 27.1983 39.4852 26.3522 39.6617C26.2631 39.6617 26.2186 39.7058 26.1295 39.7058C26.085 39.7058 25.9959 39.7058 25.9514 39.7058C25.4615 39.7499 24.9271 39.7058 24.4817 39.5735C24.2591 39.5293 23.9918 39.4411 23.7692 39.3529C23.4574 39.2205 23.1457 39.044 22.7894 38.7793C22.5222 38.6029 22.1214 38.647 21.9433 38.9117C21.7651 39.1764 21.8097 39.5735 22.0769 39.7499C22.4777 40.0588 22.8785 40.2793 23.2793 40.4558C23.5465 40.5882 23.8582 40.6764 24.17 40.7646C24.6599 40.897 25.1497 40.9411 25.6396 40.9411C25.7732 40.9411 25.9068 40.9411 26.0404 40.9411C26.1295 40.9411 26.2186 40.9411 26.3076 40.897C26.3967 40.897 26.4858 40.8529 26.5748 40.8529C27.6882 40.6323 28.7125 39.9705 29.425 38.9999L29.6032 38.7352C30.4048 37.6764 31.4291 36.794 32.587 36.1323C32.7206 36.044 32.8542 35.9117 32.8987 35.7352C33.0769 35.6911 33.0769 35.5146 32.9433 35.3823Z" fill="#30C4AE"/>
<path d="M22.4332 29.4706C22.4332 29.5147 22.3886 29.6029 22.3886 29.6471C22.255 30.1324 22.0324 30.5735 21.7652 31.0147C21.6315 31.2353 21.4979 31.4118 21.3198 31.5882C21.0971 31.8529 20.8299 32.0735 20.4737 32.2941C20.2064 32.4706 20.1174 32.8676 20.3401 33.1324C20.5182 33.3971 20.919 33.4853 21.1862 33.2647C21.6315 32.9559 21.9433 32.6912 22.255 32.3382C22.4777 32.1177 22.6558 31.8529 22.834 31.5882C23.1012 31.1912 23.3239 30.7059 23.502 30.2647C23.5465 30.1324 23.5911 30.0441 23.5911 29.9118C23.6356 29.8235 23.6356 29.7353 23.6356 29.6471C23.6356 29.5588 23.6801 29.4706 23.6801 29.3824C23.8137 28.2794 23.502 27.0882 22.834 26.1176L22.6558 25.8529C21.8988 24.75 21.4089 23.5147 21.1417 22.2353C21.0971 22.0588 21.0081 21.9265 20.8745 21.8382C20.7409 21.75 20.5627 21.75 20.3846 21.7941C19.5384 22.0588 18.7368 22.4559 18.0688 22.9853C17.6235 23.3382 17.1781 23.7353 16.7773 24.1324C16.5992 24.3088 16.421 24.4853 16.2874 24.7059C16.1538 24.8824 15.9757 25.1029 15.8421 25.3235C15.7085 25.5441 15.5749 25.7647 15.4413 25.9412C15.3077 26.1618 15.2186 26.3824 15.1295 26.6029C14.8623 27.1765 14.7287 27.7941 14.6842 28.4559C14.6396 29.0735 14.6842 29.6912 14.8178 30.3088C14.9514 30.9265 15.1741 31.5 15.5303 32.0294C16.0647 32.8676 16.8218 33.5294 17.7571 33.9265L18.4696 34.1912C18.7813 34.3235 19.1376 34.1471 19.2712 33.8382C19.3158 33.7059 19.3158 33.6177 19.3158 33.4853C19.3158 33.4412 19.3158 33.3971 19.2712 33.3529C19.1376 33 19.004 32.6471 18.915 32.2941C18.6923 31.5 18.6032 30.6618 18.6032 29.8235C18.6032 29.5147 18.336 29.2059 18.0243 29.2059C17.7125 29.2059 17.4008 29.4706 17.4008 29.7794C17.4008 30.7059 17.4898 31.5882 17.7125 32.4706C17.2226 32.2059 16.8218 31.8088 16.5546 31.3235C16.2874 30.8824 16.1093 30.4412 15.9757 29.9559C15.8421 29.4706 15.8421 28.9853 15.8866 28.4559C15.9311 27.9706 16.0647 27.4412 16.2429 27C16.332 26.8235 16.421 26.6029 16.5101 26.4265C16.5992 26.25 16.7328 26.0735 16.8218 25.8971C16.9554 25.7206 17.0445 25.5441 17.1781 25.3676C17.3117 25.1912 17.4453 25.0588 17.5789 24.8824C17.9352 24.5294 18.336 24.1765 18.7368 23.8676C19.1376 23.5588 19.583 23.2941 20.0728 23.1176C20.3846 24.3088 20.919 25.4559 21.587 26.5147L21.7652 26.7794C22.2996 27.5294 22.5222 28.4118 22.3886 29.25C22.4332 29.2941 22.4332 29.3824 22.4332 29.4706Z" fill="#30C4AE"/>
<path d="M12.9921 40.8529C13.3039 40.7647 13.5711 40.6765 13.8828 40.5441C14.2836 40.3677 14.6844 40.1471 15.0852 39.8382C15.3524 39.6618 15.397 39.2647 15.2188 39C15.0407 38.7353 14.6399 38.6912 14.3727 38.8677C14.0164 39.1324 13.7047 39.3088 13.3929 39.4412C13.1703 39.5294 12.9476 39.6177 12.6804 39.6618C12.1905 39.7941 11.7006 39.8382 11.2107 39.7941C11.1662 39.7941 11.0771 39.7941 11.0326 39.7941C10.9435 39.7941 10.899 39.75 10.8099 39.75C9.96379 39.5735 9.2067 39.0882 8.62775 38.3382L8.44962 38.0735C7.69253 37.0588 6.75731 36.2206 5.68848 35.5588C6.04476 35.1618 6.44557 34.8088 6.84638 34.5441C7.29172 34.2353 7.73706 34.0147 8.22694 33.7941C8.40508 33.7059 8.62775 33.6176 8.80589 33.5735C9.02856 33.4853 9.2067 33.4412 9.42937 33.3971C9.65204 33.3529 9.83018 33.3088 10.0529 33.2647C10.2755 33.2206 10.4982 33.2206 10.6763 33.1765C11.2107 33.1324 11.7006 33.1765 12.1905 33.3088C12.6804 33.4412 13.1257 33.6177 13.5711 33.8824C14.0164 34.1471 14.3727 34.4559 14.6844 34.8529C15.0407 35.25 15.3079 35.7794 15.397 36.3088C14.6399 35.8235 13.7937 35.4265 12.9031 35.1618C12.5913 35.0735 12.235 35.25 12.146 35.5588C12.0569 35.8677 12.235 36.2206 12.5468 36.3088C13.3484 36.5735 14.1055 36.9265 14.818 37.4118C15.1298 37.6324 15.4415 37.8529 15.7087 38.0735L15.7533 38.1177C15.8423 38.2059 15.9759 38.25 16.1095 38.2059C16.4213 38.2059 16.6885 37.8971 16.6885 37.5882L16.6439 36.8382C16.5994 35.8677 16.1986 34.8971 15.5751 34.1471C15.1743 33.6618 14.6844 33.2647 14.15 32.9559C13.6156 32.6471 13.0367 32.3824 12.4132 32.25C11.7897 32.0735 11.1662 32.0294 10.4982 32.0735C10.231 32.0735 10.0083 32.1176 9.74111 32.1618C9.51844 32.2059 9.25123 32.25 9.02856 32.2941C8.80589 32.3382 8.53868 32.4265 8.31601 32.5147C8.09334 32.6029 7.87067 32.6912 7.60346 32.7794C7.06905 33.0441 6.57917 33.3088 6.08929 33.6176C5.37674 34.1029 4.75326 34.6765 4.21884 35.4265C4.12978 35.5588 4.08524 35.7353 4.12978 35.9118C4.17431 36.0882 4.26338 36.2206 4.44152 36.3088C5.59941 36.9706 6.6237 37.8529 7.42532 38.9118L7.60346 39.1765C8.36055 40.1471 9.38484 40.7647 10.4537 41.0294C10.5427 41.0294 10.6318 41.0735 10.7209 41.0735C10.8099 41.0735 10.899 41.1177 10.9881 41.1177C11.1217 41.1177 11.2553 41.1177 11.3889 41.1177C12.0124 41.0294 12.5468 40.9412 12.9921 40.8529Z" fill="#30C4AE"/>
<path d="M18.6479 26.7794C18.158 26.7794 17.8018 27.1765 17.8018 27.6177C17.8018 28.0588 18.2026 28.4559 18.6479 28.4559C19.0933 28.4559 19.4941 28.0588 19.4941 27.6177C19.4941 27.1765 19.1378 26.7794 18.6479 26.7794Z" fill="#30C4AE"/>
<path d="M18.6479 39.3529C18.158 39.3529 17.8018 39.75 17.8018 40.1911C17.8018 40.6323 18.158 41.0294 18.6479 41.0294C19.1378 41.0294 19.4941 40.6323 19.4941 40.1911C19.4941 39.75 19.1378 39.3529 18.6479 39.3529Z" fill="#30C4AE"/>
<path d="M18.6479 36.4854C18.158 36.4854 17.8018 36.8824 17.8018 37.3236C17.8018 37.8089 18.2026 38.1618 18.6479 38.1618C19.0933 38.1618 19.4941 37.7648 19.4941 37.3236C19.4941 36.8824 19.1378 36.4854 18.6479 36.4854Z" fill="#30C4AE"/>
<path d="M8.67207 31.2353L10.6316 31.3676C11.0324 30.5735 11.5223 29.8235 12.1458 29.1618C12.502 29.1176 12.8583 29.0294 13.17 28.9412L12.7692 27.1324C12.5466 27.1765 12.3239 27.2206 12.1458 27.2647C12.9474 26.25 13.9271 24.7941 14.6842 22.8971H15.9312L17.5789 21.0441H15.3968C15.8866 19.4559 16.2429 17.6029 16.332 15.5294H22.7895C22.6559 17.1176 22.2551 18.6176 21.6316 19.9853L22.4777 22.3235C23.8583 20.0735 24.7045 17.4265 24.7045 14.6029C24.6599 6.57353 18.0243 0 9.82996 0C4.75304 0 0.255061 2.55882 -2.417 6.44118L-3.48583 8.29412C-4.46559 10.1912 -5 12.3971 -5 14.6912C-5 19.6765 -2.46154 24.0882 1.36842 26.7353L2.97166 27.7059C4.97571 28.7647 7.24696 29.3382 9.65182 29.3824C9.25101 29.9559 8.89474 30.5735 8.67207 31.2353ZM13.3927 21.1324H6.26721C5.73279 19.5882 5.33198 17.7353 5.24292 15.6176H14.4615C14.3279 17.7353 13.9271 19.5441 13.3927 21.1324ZM5.24292 13.7647C5.33198 11.6471 5.73279 9.83823 6.26721 8.25H13.3927C13.9271 9.79412 14.3279 11.6471 14.417 13.7647H5.24292ZM21.0526 8.25C22.0324 9.88235 22.6113 11.7794 22.7449 13.7647H16.2875C16.1984 11.6912 15.8866 9.83823 15.3522 8.25H21.0526ZM19.7611 6.44118H14.6842C13.8826 4.54412 12.9474 3.08823 12.1458 2.07353C15.1741 2.60294 17.8462 4.19118 19.7611 6.44118ZM12.6356 6.44118H6.97976C7.95951 4.36765 9.11741 2.95588 9.78543 2.20588C10.498 2.91176 11.6559 4.32353 12.6356 6.44118ZM7.51417 2.07353C6.71255 3.08823 5.73279 4.54412 4.97571 6.44118H-0.101214C1.81377 4.19118 4.48583 2.60294 7.51417 2.07353ZM-1.39271 8.25H4.30769C3.81781 9.83823 3.46154 11.6912 3.37247 13.7647H-3.08502C-2.95142 11.7794 -2.37247 9.92647 -1.39271 8.25ZM-1.39271 21.1324C-2.37247 19.5 -2.95142 17.6029 -3.08502 15.6176H3.37247C3.46154 17.6912 3.77328 19.5441 4.30769 21.1324H-1.39271ZM-0.101214 22.9412H4.97571C5.77733 24.8382 6.71255 26.2941 7.51417 27.3088C4.48583 26.7794 1.81377 25.1912 -0.101214 22.9412ZM7.02429 22.9412H12.6802C11.7004 25.0147 10.5425 26.4265 9.8745 27.1765C9.16194 26.4265 8.00405 25.0147 7.02429 22.9412Z" fill="#30C4AE"/>
<path d="M18.1581 43.1471C16.4658 43.1471 14.9071 42.6618 13.6156 41.7794L11.2998 42.3529C13.1257 43.9853 15.5306 45 18.1581 45C20.7411 45 23.146 44.0294 24.9273 42.4412L22.2107 42.1324C21.0083 42.75 19.6277 43.1471 18.1581 43.1471Z" fill="#30C4AE"/>
</g>
<defs>
<clipPath id="clip0">
<rect width="38.0769" height="45" fill="white"/>
</clipPath>
</defs>
</svg>
