<svg width="35" height="37" viewBox="0 0 35 37" fill="none" xmlns="http://www.w3.org/2000/svg">
<g opacity="0.5" clip-path="url(#clip0)">
<path d="M21.2502 23.4284V35.7618H19.4004V27.1268C19.4004 26.7847 19.1246 26.5077 18.7838 26.5077H15.1005C14.7597 26.5077 14.4839 26.7847 14.4839 27.1268V35.7618H12.6341V31.4443C12.6341 31.1021 12.3582 30.8252 12.0175 30.8252H8.35035C8.0096 30.8252 7.73375 31.1021 7.73375 31.4443V35.7618H4.66699V37H28.0003V35.7618H26.1505V23.4284C26.1505 23.0863 25.8747 22.8093 25.5339 22.8093H21.8506C21.5261 22.8093 21.2502 23.0863 21.2502 23.4284ZM8.96695 35.7618V32.0634H11.4171V35.7618H8.96695ZM15.7171 35.7618V27.7459H18.1672V35.7618H15.7171ZM22.4834 24.0475H24.9336V35.7618H22.4834V24.0475Z" fill="#30C4AE"/>
<path d="M-4.54972 34.5236H6.50034V33.2853H-4.54972C-5.23123 33.2853 -5.78292 32.7314 -5.78292 32.0471V30.1898C-5.78292 29.8476 -5.50707 29.5707 -5.16632 29.5707H13.2505V28.3325H-2.69993V1.85733C-2.69993 1.51519 -2.42409 1.23822 -2.08334 1.23822H21.25C21.5907 1.23822 21.8666 1.51519 21.8666 1.85733V21.5874H23.0998V1.85733C23.0998 0.830911 22.2723 0 21.25 0H-2.08334C-3.10559 0 -3.93313 0.830911 -3.93313 1.85733V28.365H-5.16632C-6.18858 28.365 -7.01611 29.1959 -7.01611 30.2224V32.0797C-6.99989 33.432 -5.8965 34.5236 -4.54972 34.5236Z" fill="#30C4AE"/>
<path d="M14.5002 11.7144H8.35048C8.00973 11.7144 7.73389 11.9913 7.73389 12.3335V18.492C7.73389 18.8341 8.00973 19.1111 8.35048 19.1111C9.92443 19.1111 11.4659 18.5572 12.6667 17.5307L14.0459 18.9156C14.1595 19.0296 14.3217 19.0948 14.484 19.0948H16.9342V17.8566H14.7436L13.5429 16.6509C14.5489 15.429 15.1168 13.8975 15.1168 12.3172C15.1006 11.9913 14.841 11.7144 14.5002 11.7144ZM12.6667 15.7875L11.2388 14.3537L10.3625 15.2335L11.7904 16.6672C10.9791 17.3189 9.98933 17.7262 8.96708 17.8566V12.9526H13.8512C13.7214 13.9953 13.3157 14.9728 12.6667 15.7875Z" fill="#30C4AE"/>
<path d="M5.90002 3.07935C2.16798 3.07935 -0.850098 6.10973 -0.850098 9.85698C-0.850098 12.1542 0.301966 14.2885 2.21666 15.543V17.8891H3.44986V16.1784C4.22872 16.488 5.07248 16.6509 5.90002 16.6509C6.24077 16.6509 6.51662 16.3739 6.51662 16.0318V10.4761H12.0498C12.3905 10.4761 12.6664 10.1991 12.6664 9.85698C12.6664 9.00977 12.5041 8.17886 12.1958 7.39683H16.9663V6.15861H11.563C10.3136 4.2524 8.1717 3.07935 5.90002 3.07935ZM3.43363 14.8262V11.0952H2.20044V13.9952C0.00989348 12.0402 -0.265953 8.70022 1.56761 6.40299L5.2672 10.1177V15.3801C4.63437 15.3149 4.01778 15.1194 3.43363 14.8262ZM11.3845 9.25416H6.14342L2.44383 5.5395C4.73173 3.69846 8.05811 3.97543 10.0053 6.1749H7.11699V7.41312H10.849C11.1249 7.98335 11.3196 8.60246 11.3845 9.25416Z" fill="#30C4AE"/>
<path d="M19.4168 17.889H18.1836V19.1273H19.4168V17.889Z" fill="#30C4AE"/>
<path d="M19.4168 6.15845H18.1836V7.39667H19.4168V6.15845Z" fill="#30C4AE"/>
<path d="M1.59989 21.5874H0.366699V22.8256H1.59989V21.5874Z" fill="#30C4AE"/>
<path d="M20.0328 21.5874H2.83301V22.8256H20.0328V21.5874Z" fill="#30C4AE"/>
<path d="M18.1672 24.0475H-0.866211V25.2857H18.1672V24.0475Z" fill="#30C4AE"/>
<path d="M3.44999 19.111H2.2168V20.3492H3.44999V19.111Z" fill="#30C4AE"/>
</g>
<defs>
<clipPath id="clip0">
<rect width="35" height="37" fill="white"/>
</clipPath>
</defs>
</svg>
