<svg width="38" height="39" viewBox="0 0 38 39" fill="none" xmlns="http://www.w3.org/2000/svg">
<g opacity="0.5" clip-path="url(#clip0)">
<path d="M0.748469 23.0022C-0.266094 23.0022 -1.09619 23.8353 -1.09619 24.8535V34.696C-1.09619 35.7142 -0.266094 36.5473 0.748469 36.5473C1.76303 36.5473 2.59313 35.7142 2.59313 34.696V34.0789H1.36336V34.696C1.36336 35.0354 1.08666 35.3131 0.748469 35.3131C0.410281 35.3131 0.133582 35.0354 0.133582 34.696V24.8535C0.133582 24.5141 0.410281 24.2364 0.748469 24.2364C1.08666 24.2364 1.36336 24.5141 1.36336 24.8535V32.8448H2.59313V24.8535C2.57776 23.8353 1.74766 23.0022 0.748469 23.0022Z" fill="#067362"/>
<path d="M6.86615 23.0022C5.85158 23.0022 5.02148 23.8353 5.02148 24.8535V34.696C5.02148 35.7142 5.85158 36.5473 6.86615 36.5473C7.88071 36.5473 8.71081 35.7142 8.71081 34.696V34.0789H7.48103V34.696C7.48103 35.0354 7.20433 35.3131 6.86615 35.3131C6.52796 35.3131 6.25126 35.0354 6.25126 34.696V24.8535C6.25126 24.5141 6.52796 24.2364 6.86615 24.2364C7.20433 24.2364 7.48103 24.5141 7.48103 24.8535V32.8448H8.71081V24.8535C8.71081 23.8353 7.88071 23.0022 6.86615 23.0022Z" fill="#067362"/>
<path d="M12.9999 23.0022C11.9854 23.0022 11.1553 23.8353 11.1553 24.8535V34.696C11.1553 35.7142 11.9854 36.5473 12.9999 36.5473C14.0145 36.5473 14.8446 35.7142 14.8446 34.696V34.0789H13.6148V34.696C13.6148 35.0354 13.3381 35.3131 12.9999 35.3131C12.6617 35.3131 12.3851 35.0354 12.3851 34.696V24.8535C12.3851 24.5141 12.6617 24.2364 12.9999 24.2364C13.3381 24.2364 13.6148 24.5141 13.6148 24.8535V32.8448H14.8446V24.8535C14.8446 23.8353 14.0145 23.0022 12.9999 23.0022Z" fill="#067362"/>
<path d="M30.3091 23.1563L29.5405 22.8632V21.7833C30.8932 21.7833 31.9846 20.6725 31.9846 19.3304C31.9846 17.9882 30.8778 16.8774 29.5405 16.8774H-3.55583C-4.90858 16.8774 -6 17.9882 -6 19.3304C-6 20.6725 -4.8932 21.7833 -3.55583 21.7833V35.9301C-3.55583 37.627 -2.1877 39.0001 -0.496764 39.0001H26.466C28.157 39.0001 29.5251 37.627 29.5251 35.9301V28.525C30.8932 28.417 31.9693 27.2754 31.9693 25.8715V25.6401C32 24.5293 31.339 23.5574 30.3091 23.1563ZM28.3261 22.3695L26.8196 21.7833H28.3261V22.3695ZM30.7702 19.3149C30.7702 19.9937 30.2168 20.5491 29.5405 20.5491H23.699L17.4579 18.0962H29.5405C30.2168 18.0808 30.7702 18.6361 30.7702 19.3149ZM13 20.5491C12.3236 20.5491 11.7702 19.9937 11.7702 19.3149C11.7702 18.6361 12.3236 18.0808 13 18.0808C13.6764 18.0808 14.2298 18.6361 14.2298 19.3149C14.2298 19.9937 13.6764 20.5491 13 20.5491ZM-4.77023 19.3149C-4.77023 18.6361 -4.21683 18.0808 -3.54045 18.0808H10.894C10.6788 18.451 10.5558 18.8676 10.5558 19.3149C10.5558 19.7623 10.6788 20.1789 10.894 20.5491H-3.55583C-4.2322 20.5491 -4.77023 19.9937 -4.77023 19.3149ZM26.4814 37.7659H-0.481391C-1.49595 37.7659 -2.32605 36.9328 -2.32605 35.9146V21.7679H12.2621L17.5348 23.9277C17.3811 24.2054 17.2888 24.5139 17.2888 24.8533V34.6959C17.2888 35.7141 18.1189 36.5471 19.1335 36.5471C20.1481 36.5471 20.9782 35.7141 20.9782 34.6959V25.3316L23.4223 26.3343V34.6959C23.4223 35.7141 24.2524 36.5471 25.267 36.5471C26.2816 36.5471 27.1117 35.7141 27.1117 34.6959V34.0788H25.8819V34.6959C25.8819 35.0353 25.6052 35.313 25.267 35.313C24.9288 35.313 24.6521 35.0353 24.6521 34.6959V26.8434L25.8819 27.3371V32.8446H27.1117V27.8308L28.3414 28.3244V35.9146C28.3261 36.9328 27.496 37.7659 26.4814 37.7659ZM19.733 24.8225V24.8379V34.6805C19.733 35.0198 19.4563 35.2975 19.1181 35.2975C18.7799 35.2975 18.5032 35.0198 18.5032 34.6805V24.8379C18.5032 24.6682 18.5801 24.5139 18.7031 24.3905L19.733 24.8225ZM30.7702 25.8715C30.7702 26.6737 30.1246 27.3062 29.3406 27.3062C29.1562 27.3062 28.9717 27.2754 28.8026 27.1982L14.4142 21.3205C15.0445 20.8731 15.4595 20.148 15.4595 19.3149C15.4595 19.0527 15.4134 18.8058 15.3366 18.559L29.8786 24.2979C30.432 24.5139 30.7856 25.0384 30.7856 25.6401V25.8715H30.7702Z" fill="#067362"/>
</g>
<defs>
<clipPath id="clip0">
<rect width="38" height="39" fill="white"/>
</clipPath>
</defs>
</svg>
