<svg width="16" height="15" viewBox="0 0 16 15" fill="none" xmlns="http://www.w3.org/2000/svg">
<path fill-rule="evenodd" clip-rule="evenodd" d="M10.1336 5.6828H14.4003C14.8245 5.68235 15.2312 5.51872 15.5311 5.22781C15.8311 4.93691 15.9998 4.54248 16.0003 4.13108V0.517239C16.0003 0.380058 15.9441 0.248497 15.844 0.151496C15.744 0.0544946 15.6084 0 15.4669 0C15.3255 0 15.1898 0.0544946 15.0898 0.151496C14.9898 0.248497 14.9336 0.380058 14.9336 0.517239V4.13108C14.9334 4.26821 14.8772 4.39967 14.7772 4.49663C14.6772 4.59359 14.5417 4.64814 14.4003 4.64832H10.1336C9.99214 4.64832 9.85649 4.70282 9.75647 4.79982C9.65645 4.89682 9.60026 5.02838 9.60026 5.16556C9.60026 5.30274 9.65645 5.4343 9.75647 5.5313C9.85649 5.6283 9.99214 5.6828 10.1336 5.6828ZM0.469144 11.9588C0.769101 12.2497 1.1758 12.4133 1.6 12.4137H5.21623L4.89621 13.9656H3.19873C3.05728 13.9656 2.92162 14.0201 2.82161 14.1171C2.72159 14.2141 2.6654 14.3456 2.6654 14.4828C2.6654 14.62 2.72159 14.7516 2.82161 14.8486C2.92162 14.9456 3.05728 15.0001 3.19873 15.0001H12.7987C12.9402 15.0001 13.0758 14.9456 13.1759 14.8486C13.2759 14.7516 13.3321 14.62 13.3321 14.4828C13.3321 14.3456 13.2759 14.2141 13.1759 14.1171C13.0758 14.0201 12.9402 13.9656 12.7987 13.9656H11.1035L10.7834 12.4137H14.4C14.8242 12.4133 15.2309 12.2497 15.5309 11.9588C15.8308 11.6679 15.9995 11.2734 16 10.862V7.23454C16 7.09736 15.9438 6.96579 15.8438 6.86879C15.7438 6.77179 15.6081 6.7173 15.4667 6.7173C15.3252 6.7173 15.1896 6.77179 15.0895 6.86879C14.9895 6.96579 14.9333 7.09736 14.9333 7.23454V10.862C14.9332 10.9992 14.8769 11.1306 14.7769 11.2276C14.6769 11.3245 14.5414 11.3791 14.4 11.3793H10.1332H5.86651H1.6C1.45861 11.3791 1.32306 11.3245 1.22308 11.2276C1.1231 11.1306 1.06685 10.9992 1.06667 10.862V2.58621C1.06685 2.44909 1.1231 2.31763 1.22308 2.22067C1.32306 2.12371 1.45861 2.06915 1.6 2.06898H8C8.14145 2.06898 8.27711 2.01448 8.37712 1.91748C8.47714 1.82048 8.53333 1.68892 8.53333 1.55174C8.53333 1.41456 8.47714 1.283 8.37712 1.18599C8.27711 1.08899 8.14145 1.0345 8 1.0345H1.6C1.1758 1.03495 0.769101 1.19858 0.469144 1.48948C0.169186 1.78039 0.000465856 2.17481 0 2.58621V10.862C0.000465856 11.2734 0.169186 11.6679 0.469144 11.9588ZM5.98384 13.9655L6.30384 12.4137H9.69584L10.0158 13.9655H5.98384ZM11.1989 4.13783C11.0575 4.13783 10.9218 4.08333 10.8218 3.98633C10.7218 3.88933 10.6656 3.75777 10.6656 3.62059V2.06887C10.6656 1.93169 10.7218 1.80013 10.8218 1.70313C10.9218 1.60613 11.0575 1.55164 11.1989 1.55164C11.3404 1.55164 11.476 1.60613 11.5761 1.70313C11.6761 1.80013 11.7323 1.93169 11.7323 2.06887V3.62059C11.7323 3.75777 11.6761 3.88933 11.5761 3.98633C11.476 4.08333 11.3404 4.13783 11.1989 4.13783ZM12.9555 3.98639C13.0556 4.08339 13.1912 4.13788 13.3327 4.13788C13.4741 4.13788 13.6098 4.08339 13.7098 3.98639C13.8098 3.88939 13.866 3.75782 13.866 3.62064V1.03445C13.866 0.89727 13.8098 0.765709 13.7098 0.668708C13.6098 0.571707 13.4741 0.517212 13.3327 0.517212C13.1912 0.517212 13.0556 0.571707 12.9555 0.668708C12.8555 0.765709 12.7993 0.89727 12.7993 1.03445V3.62064C12.7993 3.75782 12.8555 3.88939 12.9555 3.98639ZM4.80039 7.75848H2.66706C2.52561 7.75848 2.38996 7.70398 2.28994 7.60698C2.18992 7.50998 2.13373 7.37842 2.13373 7.24124C2.13373 7.10406 2.18992 6.9725 2.28994 6.87549C2.38996 6.77849 2.52561 6.724 2.66706 6.724H4.80039C4.94184 6.724 5.0775 6.77849 5.17752 6.87549C5.27754 6.9725 5.33373 7.10406 5.33373 7.24124C5.33373 7.37842 5.27754 7.50998 5.17752 7.60698C5.0775 7.70398 4.94184 7.75848 4.80039 7.75848ZM2.28994 9.67595C2.38996 9.77295 2.52561 9.82745 2.66706 9.82745H6.93373C7.07517 9.82745 7.21083 9.77295 7.31085 9.67595C7.41087 9.57895 7.46706 9.44739 7.46706 9.31021C7.46706 9.17303 7.41087 9.04146 7.31085 8.94446C7.21083 8.84746 7.07517 8.79297 6.93373 8.79297H2.66706C2.52561 8.79297 2.38996 8.84746 2.28994 8.94446C2.18992 9.04146 2.13373 9.17303 2.13373 9.31021C2.13373 9.44739 2.18992 9.57895 2.28994 9.67595Z" fill="#8C9C9A"/>
</svg>
