<svg width="52" height="53" viewBox="0 0 52 53" fill="none" xmlns="http://www.w3.org/2000/svg">
<g opacity="0.5" clip-path="url(#clip0)">
<path d="M9.55368 37.5708C7.94823 39.1861 5.46475 39.1195 3.97064 37.4273C2.74858 36.0375 2.59103 33.2857 5.00512 31.7784C4.9453 31.6869 4.88547 31.5953 4.81145 31.5062C4.09715 30.5963 3.40879 29.6674 2.68275 28.7741C2.08564 28.0331 2.26195 27.4498 2.90116 27.005C3.8776 26.3129 4.79913 25.5576 5.75398 24.8255C5.86948 24.7329 5.97324 24.6568 6.11468 24.5451C5.13247 23.6087 4.66091 22.4969 4.83953 21.1712C4.97289 20.1734 5.46047 19.3618 6.24548 18.7464C6.83718 18.2807 7.53678 18.0146 8.29241 17.9862C9.03138 17.9461 9.74553 18.0995 10.383 18.4843C11.0347 18.8667 11.5356 19.3914 11.8858 20.0585C14.2698 18.2945 16.6161 16.5661 19.0002 14.802C17.9871 13.8563 17.5415 12.7255 17.7318 11.3833C17.8769 10.3689 18.3812 9.56903 19.197 8.96282C20.1309 8.27808 21.165 8.08528 22.2946 8.35618C23.4099 8.62953 24.1892 9.32454 24.7738 10.3296C25.3679 9.87795 25.9361 9.44537 26.4901 9.01524C26.9923 8.62315 27.4944 8.23106 27.999 7.8531C28.7229 7.3064 29.2043 7.38345 29.7515 8.08938C30.7908 9.43795 31.8586 10.7816 32.8862 12.1468C33.4549 12.8926 33.189 13.5495 32.2666 13.7958C32.0301 13.8657 31.7986 13.9638 31.6003 14.0852C30.9537 14.4877 30.6644 15.1777 30.7997 15.9546C30.9227 16.6609 31.5045 17.2299 32.2304 17.3667C33.0038 17.5244 33.7127 17.2276 34.1304 16.6027C34.2219 16.456 34.2991 16.3118 34.3764 16.1675C34.7187 15.6138 35.3602 15.5178 35.8204 15.9768C36.0851 16.2367 36.3146 16.5464 36.5558 16.8394C37.4613 18.0074 38.3668 19.1753 39.2723 20.3432C39.7071 20.9085 39.6586 21.4697 39.1046 21.8999C37.702 23 36.2827 24.0886 34.8609 25.1629C34.1889 25.6716 33.4409 25.4077 33.2531 24.5816C32.9601 23.2354 31.6418 22.7206 30.6828 23.1768C29.9789 23.5019 29.6081 24.0605 29.5941 24.8195C29.5849 25.6067 29.9605 26.1676 30.6783 26.5095C31.0942 26.7142 31.3805 27.0141 31.2981 27.4648C31.243 27.7362 31.0792 28.0554 30.8482 28.2407C29.448 29.355 28.1027 30.5326 26.602 31.4897C24.9691 32.5277 23.5225 33.7955 21.9612 34.9085C21.2985 35.3864 20.5579 35.1649 20.375 34.3671C20.2168 33.7105 19.9103 33.2105 19.2734 32.9129C18.4322 32.5341 17.3825 32.8896 16.9258 33.7103C16.4666 34.517 16.7271 35.5924 17.5169 36.0964C17.6311 36.164 17.7311 36.2341 17.8428 36.2876C18.5296 36.6203 18.665 37.3972 18.0733 37.8629C16.5953 39.0343 15.0981 40.1798 13.5844 41.3137C13.1835 41.6156 12.7662 41.5711 12.38 41.2012C12.1511 40.9788 11.9457 40.7232 11.7545 40.4651C11.047 39.5104 10.3087 38.5465 9.55368 37.5708ZM17.4379 18.345C17.5669 18.4973 17.6433 18.6006 17.7198 18.7038C18.568 19.7943 19.4137 20.8707 20.2476 21.9637C20.6634 22.5031 20.4283 23.1693 19.7806 23.3973C19.5867 23.4598 19.3713 23.4824 19.1848 23.5873C18.8779 23.7566 18.521 23.8908 18.3189 24.1585C17.8395 24.7649 17.7421 25.4655 18.1306 26.1842C18.4759 26.8231 19.0443 27.1471 19.7573 27.126C20.5438 27.1068 21.1336 26.7142 21.4273 25.9652C21.7371 25.1407 22.7008 25.0473 23.1862 25.7348C23.8437 26.6545 24.5648 27.5196 25.2625 28.4178C25.5444 28.7766 25.8287 29.1495 26.1131 29.5224C27.042 28.8094 27.9048 28.1369 28.7843 27.4761C27.1607 25.5444 27.53 23.2983 29.1396 21.9588C29.8796 21.3365 30.8113 21.0596 31.7953 21.1664C33.0329 21.3023 34.0011 21.9065 34.6808 22.9533C35.5838 22.2594 36.4608 21.5844 37.3378 20.9095C36.6427 20.0254 35.9783 19.1505 35.3023 18.2922C33.0559 20.0907 30.7995 19.2283 29.7367 17.9129C29.1204 17.1462 28.8469 16.2476 28.9543 15.2688C29.0767 14.0401 29.6866 13.0911 30.7272 12.4316C30.0296 11.5334 29.3486 10.6468 28.6559 9.77683C27.4182 10.7322 26.2064 11.6685 24.9921 12.5908C24.6432 12.8546 24.2794 13.0337 23.8351 12.8338C23.4074 12.6457 23.2866 12.2882 23.2696 11.8546C23.2274 11.1926 22.9018 10.6668 22.3075 10.3618C21.3232 9.83307 20.1673 10.2505 19.7426 11.2549C19.3036 12.2618 19.8153 13.3521 20.8886 13.72C21.2923 13.8541 21.6181 14.0453 21.6851 14.5139C21.7663 14.98 21.5099 15.2715 21.1752 15.5329C20.4136 16.1152 19.6521 16.6975 18.8906 17.2798C18.4045 17.5964 17.9259 17.9553 17.4379 18.345ZM15.9198 37.1719C14.3023 35.4429 14.6131 32.945 16.3153 31.6331C18.0694 30.2832 20.5341 30.7459 21.7713 32.6424C22.66 31.9508 23.5513 31.2735 24.4283 30.5985C23.7473 29.7119 23.0713 28.8537 22.3928 27.9812C21.5163 28.7434 20.5332 29.1456 19.3832 29.0092C18.2332 28.8728 17.3107 28.3625 16.6482 27.4145C16.1172 26.6331 15.8937 25.7696 16.0251 24.8448C16.1882 23.6818 16.7888 22.7635 17.8319 22.1182C17.1534 21.2457 16.4773 20.3874 15.7963 19.5009C15.6666 19.596 15.5653 19.6862 15.4474 19.7647C14.3394 20.625 13.2147 21.4736 12.1066 22.3338C11.7577 22.5977 11.3915 22.7626 10.9496 22.5769C10.5077 22.3912 10.4413 22.0098 10.3699 21.6002C10.306 21.2329 10.192 20.8306 9.96501 20.5351C9.4919 19.9182 8.59505 19.7236 7.89544 19.9897C7.19584 20.2558 6.6935 20.9826 6.70292 21.7084C6.7129 22.5215 7.21251 23.2065 8.00315 23.4631C8.4068 23.5972 8.71843 23.7908 8.79471 24.2287C8.8759 24.6948 8.65531 25.0239 8.29215 25.2901C7.18412 26.1504 6.05943 26.999 4.9514 27.8593C4.8359 27.9519 4.73214 28.028 4.5907 28.1397C5.04223 28.7166 5.47463 29.2677 5.89283 29.8212C6.40418 30.4897 6.94393 31.1532 7.41514 31.8431C7.75004 32.3383 7.52185 32.9596 6.96179 33.1871C6.83891 33.2374 6.68025 33.2502 6.55245 33.2722C5.8449 33.4087 5.34523 33.8149 5.11022 34.4811C4.87276 35.1331 4.99768 35.7663 5.45602 36.2983C6.29869 37.2734 7.8872 37.0724 8.47932 35.9373C8.51208 35.8735 8.53309 35.8262 8.56585 35.7623C8.96767 34.8783 9.72274 34.7627 10.3223 35.5178C11.2038 36.6317 12.076 37.7763 12.9599 38.9043C13.053 39.0192 13.1486 39.1482 13.2442 39.2772C14.1374 38.5267 15.0144 37.8518 15.9198 37.1719Z" fill="#087464"/>
<path d="M25.1247 10.8369C24.4593 9.78765 23.4911 9.1834 22.2392 9.04998C21.2552 8.94313 20.3377 9.21767 19.5836 9.84234C17.9764 11.196 17.6071 13.4421 19.2282 15.3597C18.3512 16.0346 17.4884 16.7072 16.557 17.406C16.2726 17.0331 15.9907 16.6743 15.7064 16.3014C15.0087 15.4031 14.2876 14.5381 13.6301 13.6184C13.1472 12.945 12.1977 13.0359 11.8712 13.8488C11.58 14.6119 10.9877 14.9904 10.2012 15.0096C9.4882 15.0306 8.9223 14.7208 8.57453 14.0678C8.18607 13.3491 8.28343 12.6485 8.76285 12.042C8.96735 11.7886 9.32179 11.6402 9.62871 11.4709C9.80347 11.3825 10.0189 11.36 10.2246 11.2809C10.8581 11.0553 11.0931 10.3891 10.6915 9.84726C9.85759 8.75428 9.00944 7.66375 8.16376 6.58735C8.08727 6.48413 8.01079 6.38092 7.88186 6.22855C8.384 5.83646 8.84845 5.47996 9.32711 5.12102C10.0886 4.53872 10.8502 3.95642 11.6117 3.37413C11.9465 3.11273 12.1886 2.82365 12.1216 2.35506C12.0405 1.88891 11.7288 1.69528 11.3252 1.56116C10.2519 1.19327 9.75682 0.114627 10.1791 -0.903882C10.6038 -1.90827 11.7739 -2.32819 12.744 -1.79702C13.3266 -1.47549 13.664 -0.966198 13.7061 -0.304186C13.7374 0.126923 13.8439 0.486843 14.2716 0.67502C14.716 0.874874 15.0797 0.695788 15.4287 0.431947C16.6404 -0.504399 17.8522 -1.44075 19.0924 -2.38199C19.7734 -1.49543 20.4661 -0.625456 21.1638 0.272772C20.1231 0.93227 19.5132 1.88127 19.3909 3.10998C19.2976 4.08632 19.5712 4.98491 20.1732 5.75412C21.2194 7.05786 23.4783 7.93433 25.7388 6.13339C26.4173 7.00582 27.0934 7.86412 27.7744 8.75067C26.9047 9.46799 26.0277 10.1429 25.1247 10.8369Z" fill="#087464"/>
</g>
<defs>
<clipPath id="clip0">
<rect width="52" height="53" fill="white"/>
</clipPath>
</defs>
</svg>
