<svg width="52" height="53" viewBox="0 0 52 53" fill="none" xmlns="http://www.w3.org/2000/svg">
<g opacity="0.5" clip-path="url(#clip0)">
<path d="M9.55368 37.5709C7.94823 39.1862 5.46475 39.1196 3.97064 37.4275C2.74858 36.0376 2.59103 33.2858 5.00512 31.7785C4.9453 31.687 4.88547 31.5954 4.81145 31.5064C4.09715 30.5964 3.40879 29.6675 2.68275 28.7742C2.08564 28.0332 2.26195 27.45 2.90116 27.0051C3.8776 26.3131 4.79913 25.5577 5.75398 24.8257C5.86948 24.733 5.97324 24.6569 6.11468 24.5453C5.13247 23.6088 4.66091 22.497 4.83953 21.1713C4.97289 20.1735 5.46047 19.362 6.24548 18.7465C6.83718 18.2808 7.53678 18.0147 8.29241 17.9863C9.03138 17.9463 9.74553 18.0996 10.383 18.4844C11.0347 18.8668 11.5356 19.3915 11.8858 20.0586C14.2698 18.2946 16.6161 16.5662 19.0002 14.8022C17.9871 13.8565 17.5415 12.7257 17.7318 11.3834C17.8769 10.369 18.3812 9.56915 19.197 8.96294C20.1309 8.2782 21.165 8.0854 22.2946 8.3563C23.4099 8.62965 24.1892 9.32466 24.7738 10.3297C25.3679 9.87807 25.9361 9.44549 26.4901 9.01536C26.9923 8.62327 27.4944 8.23118 27.999 7.85322C28.7229 7.30652 29.2043 7.38358 29.7515 8.0895C30.7908 9.43807 31.8586 10.7817 32.8862 12.1469C33.4549 12.8927 33.189 13.5496 32.2666 13.7959C32.0301 13.8658 31.7986 13.9639 31.6003 14.0854C30.9537 14.4878 30.6644 15.1779 30.7997 15.9548C30.9227 16.661 31.5045 17.23 32.2304 17.3668C33.0038 17.5245 33.7127 17.2277 34.1304 16.6028C34.2219 16.4561 34.2991 16.3119 34.3764 16.1676C34.7187 15.6139 35.3602 15.5179 35.8204 15.9769C36.0851 16.2368 36.3146 16.5465 36.5558 16.8395C37.4613 18.0075 38.3668 19.1754 39.2723 20.3434C39.7071 20.9086 39.6586 21.4698 39.1046 21.9C37.702 23.0002 36.2827 24.0887 34.8609 25.1631C34.1889 25.6717 33.4409 25.4078 33.2531 24.5817C32.9601 23.2355 31.6418 22.7207 30.6828 23.177C29.9789 23.502 29.6081 24.0606 29.5941 24.8196C29.5849 25.6068 29.9605 26.1677 30.6783 26.5096C31.0942 26.7144 31.3805 27.0142 31.2981 27.4649C31.243 27.7363 31.0792 28.0555 30.8482 28.2408C29.448 29.3551 28.1027 30.5327 26.602 31.4898C24.9691 32.5278 23.5225 33.7956 21.9612 34.9086C21.2985 35.3866 20.5579 35.165 20.375 34.3672C20.2168 33.7107 19.9103 33.2106 19.2734 32.913C18.4322 32.5342 17.3825 32.8897 16.9258 33.7105C16.4666 34.5171 16.7271 35.5925 17.5169 36.0966C17.6311 36.1642 17.7311 36.2342 17.8428 36.2877C18.5296 36.6204 18.665 37.3973 18.0733 37.863C16.5953 39.0344 15.0981 40.18 13.5844 41.3138C13.1835 41.6157 12.7662 41.5713 12.38 41.2013C12.1511 40.9789 11.9457 40.7233 11.7545 40.4653C11.047 39.5105 10.3087 38.5466 9.55368 37.5709ZM17.4379 18.3451C17.5669 18.4975 17.6433 18.6007 17.7198 18.7039C18.568 19.7944 19.4137 20.8708 20.2476 21.9638C20.6634 22.5032 20.4283 23.1694 19.7806 23.3974C19.5867 23.4599 19.3713 23.4825 19.1848 23.5874C18.8779 23.7567 18.521 23.891 18.3189 24.1586C17.8395 24.765 17.7421 25.4656 18.1306 26.1843C18.4759 26.8232 19.0443 27.1472 19.7573 27.1261C20.5438 27.107 21.1336 26.7143 21.4273 25.9653C21.7371 25.1408 22.7008 25.0474 23.1862 25.7349C23.8437 26.6546 24.5648 27.5197 25.2625 28.4179C25.5444 28.7767 25.8287 29.1496 26.1131 29.5226C27.042 28.8096 27.9048 28.1371 28.7843 27.4762C27.1607 25.5445 27.53 23.2984 29.1396 21.9589C29.8796 21.3367 30.8113 21.0597 31.7953 21.1665C33.0329 21.3024 34.0011 21.9066 34.6808 22.9535C35.5838 22.2595 36.4608 21.5845 37.3378 20.9096C36.6427 20.0255 35.9783 19.1506 35.3023 18.2923C33.0559 20.0908 30.7995 19.2285 29.7367 17.913C29.1204 17.1463 28.8469 16.2477 28.9543 15.2689C29.0767 14.0402 29.6866 13.0912 30.7272 12.4317C30.0296 11.5335 29.3486 10.6469 28.6559 9.77695C27.4182 10.7323 26.2064 11.6687 24.9921 12.5909C24.6432 12.8547 24.2794 13.0338 23.8351 12.834C23.4074 12.6458 23.2866 12.2883 23.2696 11.8547C23.2274 11.1927 22.9018 10.6669 22.3075 10.3619C21.3232 9.83319 20.1673 10.2507 19.7426 11.2551C19.3036 12.2619 19.8153 13.3522 20.8886 13.7201C21.2923 13.8542 21.6181 14.0454 21.6851 14.514C21.7663 14.9801 21.5099 15.2717 21.1752 15.5331C20.4136 16.1153 19.6521 16.6976 18.8906 17.2799C18.4045 17.5965 17.9259 17.9555 17.4379 18.3451ZM15.9198 37.1721C14.3023 35.443 14.6131 32.9451 16.3153 31.6332C18.0694 30.2833 20.5341 30.746 21.7713 32.6425C22.66 31.951 23.5513 31.2736 24.4283 30.5986C23.7473 29.7121 23.0713 28.8538 22.3928 27.9813C21.5163 28.7435 20.5332 29.1457 19.3832 29.0093C18.2332 28.8729 17.3107 28.3626 16.6482 27.4147C16.1172 26.6332 15.8937 25.7697 16.0251 24.8449C16.1882 23.682 16.7888 22.7637 17.8319 22.1183C17.1534 21.2459 16.4773 20.3876 15.7963 19.501C15.6666 19.5961 15.5653 19.6863 15.4474 19.7649C14.3394 20.6251 13.2147 21.4737 12.1066 22.334C11.7577 22.5978 11.3915 22.7628 10.9496 22.577C10.5077 22.3913 10.4413 22.0099 10.3699 21.6003C10.306 21.233 10.192 20.8307 9.96501 20.5352C9.4919 19.9184 8.59505 19.7238 7.89544 19.9898C7.19584 20.2559 6.6935 20.9827 6.70292 21.7085C6.7129 22.5216 7.21251 23.2066 8.00315 23.4632C8.4068 23.5973 8.71843 23.7909 8.79471 24.2288C8.8759 24.695 8.65531 25.024 8.29215 25.2903C7.18412 26.1505 6.05943 26.9991 4.9514 27.8594C4.8359 27.952 4.73214 28.0281 4.5907 28.1398C5.04223 28.7167 5.47463 29.2678 5.89283 29.8214C6.40418 30.4898 6.94393 31.1533 7.41514 31.8433C7.75004 32.3384 7.52185 32.9597 6.96179 33.1872C6.83891 33.2375 6.68025 33.2503 6.55245 33.2723C5.8449 33.4088 5.34523 33.815 5.11022 34.4812C4.87276 35.1332 4.99768 35.7664 5.45602 36.2985C6.29869 37.2735 7.8872 37.0725 8.47932 35.9374C8.51208 35.8736 8.53309 35.8263 8.56585 35.7625C8.96767 34.8784 9.72274 34.7628 10.3223 35.5179C11.2038 36.6318 12.076 37.7764 12.9599 38.9044C13.053 39.0193 13.1486 39.1483 13.2442 39.2773C14.1374 38.5269 15.0144 37.8519 15.9198 37.1721Z" fill="#30C4AE"/>
<path d="M25.1247 10.8369C24.4593 9.78765 23.4911 9.1834 22.2392 9.04998C21.2552 8.94313 20.3377 9.21767 19.5836 9.84234C17.9764 11.196 17.6071 13.4421 19.2282 15.3597C18.3512 16.0346 17.4884 16.7072 16.557 17.406C16.2726 17.0331 15.9907 16.6743 15.7064 16.3014C15.0087 15.4031 14.2876 14.5381 13.6301 13.6184C13.1472 12.945 12.1977 13.0359 11.8712 13.8488C11.58 14.6119 10.9877 14.9904 10.2012 15.0096C9.4882 15.0306 8.9223 14.7208 8.57453 14.0678C8.18607 13.3491 8.28343 12.6485 8.76285 12.042C8.96735 11.7886 9.32179 11.6402 9.62871 11.4709C9.80347 11.3825 10.0189 11.36 10.2246 11.2809C10.8581 11.0553 11.0931 10.3891 10.6915 9.84726C9.85759 8.75428 9.00944 7.66375 8.16376 6.58735C8.08727 6.48413 8.01079 6.38092 7.88186 6.22855C8.384 5.83646 8.84845 5.47996 9.32711 5.12102C10.0886 4.53872 10.8502 3.95642 11.6117 3.37413C11.9465 3.11273 12.1886 2.82365 12.1216 2.35506C12.0405 1.88891 11.7288 1.69528 11.3252 1.56116C10.2519 1.19327 9.75682 0.114627 10.1791 -0.903882C10.6038 -1.90827 11.7739 -2.32819 12.744 -1.79702C13.3266 -1.47549 13.664 -0.966198 13.7061 -0.304186C13.7374 0.126923 13.8439 0.486843 14.2716 0.67502C14.716 0.874874 15.0797 0.695788 15.4287 0.431947C16.6404 -0.504399 17.8522 -1.44075 19.0924 -2.38199C19.7734 -1.49543 20.4661 -0.625456 21.1638 0.272772C20.1231 0.93227 19.5132 1.88127 19.3909 3.10998C19.2976 4.08632 19.5712 4.98491 20.1732 5.75412C21.2194 7.05786 23.4783 7.93433 25.7388 6.13339C26.4173 7.00582 27.0934 7.86412 27.7744 8.75067C26.9047 9.46799 26.0277 10.1429 25.1247 10.8369Z" fill="#30C4AE"/>
</g>
<defs>
<clipPath id="clip0">
<rect width="52" height="53" fill="white"/>
</clipPath>
</defs>
</svg>
