<svg width="33" height="45" viewBox="0 0 33 45" fill="none" xmlns="http://www.w3.org/2000/svg">
<g opacity="0.5" clip-path="url(#clip0)">
<path d="M19.5273 31.0588C19.7916 31.1471 20.0119 31.2353 20.1882 31.3677C20.3644 31.5 20.5406 31.6324 20.6288 31.8088C20.7609 31.9853 20.8491 32.1618 20.8931 32.3383L22.2589 31.853C22.0386 31.2794 21.6862 30.7941 21.2456 30.3971C20.7609 29.9559 20.1441 29.6912 19.4392 29.5588V28.0588H18.0293V29.5147V30.9706C18.2055 30.9265 18.4258 30.9265 18.6461 30.9265C18.9545 30.9706 19.307 31.0147 19.5273 31.0588Z" fill="#30C4AE"/>
<path d="M16.9719 38.5147C16.4873 38.25 16.1348 37.8971 15.9586 37.5L14.5928 37.9853C14.8571 38.5588 15.2537 39.0441 15.8264 39.4853C16.3992 39.9265 17.1482 40.1912 17.9853 40.3235V41.8235H19.4392V40.3676V38.8676C19.263 38.9118 19.0427 38.9118 18.8224 38.9118C18.0734 38.9559 17.4566 38.7794 16.9719 38.5147Z" fill="#30C4AE"/>
<path d="M21.5981 35.2058C21.2456 34.9411 20.8491 34.7646 20.4085 34.5881C19.9679 34.4117 19.4392 34.2352 18.9105 34.1029C18.0734 33.8823 17.4565 33.6176 17.06 33.397C16.6635 33.1764 16.4873 32.8234 16.4873 32.4264C16.4873 32.2499 16.5313 32.0734 16.6194 31.897C16.7075 31.7205 16.8397 31.544 16.9719 31.4117C17.016 31.3676 17.06 31.3234 17.1481 31.2793V29.647C16.6194 29.8234 16.1788 30.044 15.8264 30.397C15.2977 30.9264 14.9893 31.5882 14.9893 32.3382C14.9893 32.8234 15.0333 33.2205 15.2096 33.5293C15.3858 33.8381 15.6061 34.147 15.9145 34.3676C16.2229 34.5881 16.5754 34.8087 17.016 34.9852C17.4565 35.1617 17.9412 35.294 18.4699 35.4705C18.9105 35.6029 19.307 35.7352 19.6595 35.8234C20.012 35.9558 20.2763 36.0881 20.4966 36.2205C20.7169 36.3529 20.8931 36.5293 21.0253 36.7058C21.1575 36.8823 21.2015 37.1029 21.2015 37.3234C21.2015 37.544 21.1575 37.7646 21.0253 37.9852C20.8931 38.1617 20.761 38.3381 20.5407 38.4705C20.4966 38.4705 20.4966 38.5146 20.4525 38.5146V40.147C20.6288 40.1029 20.761 40.0587 20.9372 39.9705C21.3337 39.794 21.6862 39.5734 21.9505 39.2646C22.2149 38.9999 22.4352 38.6911 22.5674 38.3381C22.6995 37.9852 22.7877 37.6323 22.7877 37.2352C22.7877 36.7499 22.6995 36.3529 22.4792 35.9999C22.2149 35.7352 21.9505 35.4705 21.5981 35.2058Z" fill="#30C4AE"/>
<path d="M21.0694 25.0147C23.7129 22.3676 25.3431 18.7059 25.3431 14.6912C25.3431 6.57353 18.7784 0 10.6716 0C5.64886 0 1.19893 2.55882 -1.44459 6.44118L-2.502 8.29412C-3.4713 10.1912 -4 12.3971 -4 14.6912C-4 19.6765 -1.48865 24.0882 2.3004 26.7353L3.88651 27.7059C5.86916 28.7647 8.11615 29.3382 10.4953 29.3824C9.43792 31.0147 8.86515 32.9118 8.86515 34.8971C8.82109 40.4559 13.3591 45 18.9105 45C24.4619 45 29 40.4559 29 34.8971C29 30.0441 25.6075 26.0294 21.0694 25.0147ZM21.7744 21.1324H16.1348C16.6195 19.5441 16.972 17.6912 17.0601 15.6176H23.4486C23.3164 17.6029 22.6996 19.4559 21.7744 21.1324ZM15.2096 15.6176C15.1215 17.7353 14.725 19.5441 14.1963 21.1324H7.14686C6.61816 19.5882 6.22163 17.7353 6.13351 15.6176H15.2096ZM6.13351 13.7647C6.22163 11.6471 6.61816 9.83824 7.14686 8.25H14.1963C14.725 9.79412 15.1215 11.6471 15.2096 13.7647H6.13351ZM15.474 22.9412H20.4967C18.6021 25.1912 15.9586 26.7794 12.9626 27.3088C13.7557 26.2941 14.6809 24.8382 15.474 22.9412ZM21.7744 8.25C22.7437 9.88235 23.3164 11.7794 23.4486 13.7647H17.0601C16.972 11.6912 16.6636 9.83824 16.1348 8.25H21.7744ZM20.4967 6.44118H15.474C14.6809 4.54412 13.7557 3.08824 12.9626 2.07353C15.9586 2.60294 18.6021 4.19118 20.4967 6.44118ZM13.4473 6.44118H7.8518C8.82109 4.36765 9.96662 2.95588 10.6275 2.20588C11.3324 2.91176 12.478 4.32353 13.4473 6.44118ZM8.38051 2.07353C7.58745 3.08824 6.61816 4.54412 5.86916 6.44118H0.846462C2.74099 4.19118 5.38451 2.60294 8.38051 2.07353ZM-0.431242 8.25H5.20828C4.72363 9.83824 4.37116 11.6912 4.28304 13.7647H-2.10547C-1.9733 11.7794 -1.40053 9.92647 -0.431242 8.25ZM-0.431242 21.1324C-1.40053 19.5 -1.9733 17.6029 -2.10547 15.6176H4.28304C4.37116 17.6912 4.67957 19.5441 5.20828 21.1324H-0.431242ZM0.846462 22.9412H5.86916C6.66222 24.8382 7.58745 26.2941 8.38051 27.3088C5.38451 26.7794 2.74099 25.1912 0.846462 22.9412ZM7.89586 22.9412H13.4913C12.522 25.0147 11.3765 26.4265 10.7156 27.1765C10.0107 26.4265 8.86515 25.0147 7.89586 22.9412ZM18.9105 43.1471C14.3725 43.1471 10.6716 39.4412 10.6716 34.8971C10.6716 32.7353 11.5087 30.75 12.9626 29.2059C15.2537 28.8529 17.3685 27.9706 19.1749 26.6471C23.6248 26.7794 27.1936 30.4412 27.1936 34.8971C27.1495 39.4412 23.4486 43.1471 18.9105 43.1471Z" fill="#30C4AE"/>
</g>
<defs>
<clipPath id="clip0">
<rect width="33" height="45" fill="white"/>
</clipPath>
</defs>
</svg>
