<svg width="28" height="28" viewBox="0 0 28 28" fill="none" xmlns="http://www.w3.org/2000/svg">
<g clip-path="url(#clip0)">
<path d="M24.5268 7.63166C23.1425 6.2512 21.7321 4.84469 20.3216 3.43818C17.0306 6.72004 13.7657 10.0019 10.4746 13.2577C11.8589 14.6642 13.2694 16.0707 14.6798 17.4512C17.9709 14.1954 21.2619 10.9135 24.5268 7.63166Z" fill="#494E54"/>
<path d="M27.5034 2.08371C26.981 1.53674 26.4586 1.01581 25.9101 0.494877C25.1787 -0.208378 23.9511 -0.182332 23.2198 0.520924C22.9586 0.781389 22.7235 1.01581 22.4623 1.27627C22.2272 1.51069 21.9922 1.71906 21.7832 1.92744C23.2198 3.35999 24.6302 4.76651 26.0407 6.19906C26.5631 5.67813 27.1116 5.1572 27.5817 4.58418C28.2086 3.85488 28.1302 2.76092 27.5034 2.08371Z" fill="#494E54"/>
<path d="M8.80222 14.9247C8.54103 15.2893 8.41043 15.68 8.41043 16.1228C8.41043 16.2009 8.38431 16.3051 8.35819 16.3833C7.88805 17.8679 7.4179 19.3526 6.94775 20.8372C6.92163 20.8893 6.92163 20.9414 6.89551 21.0195C6.97387 20.9935 7.02611 20.9935 7.07834 20.9674C7.52237 20.8372 7.9664 20.6549 8.43655 20.5507C9.74252 20.186 10.9701 19.613 12.3283 19.4307C12.6418 19.3786 12.9291 19.1702 13.2425 19.04C11.7798 17.5814 10.3694 16.1488 8.93282 14.7163C8.9067 14.7944 8.85446 14.8465 8.80222 14.9247Z" fill="#494E54"/>
</g>
<defs>
<clipPath id="clip0">
<rect width="28" height="28" fill="white"/>
</clipPath>
</defs>
</svg>
