<svg width="19" height="16" viewBox="0 0 19 16" fill="none" xmlns="http://www.w3.org/2000/svg">
<path d="M4.43773 2.80434L4.59568 2.87616C4.62721 2.89076 4.66049 2.89747 4.6929 2.89747C4.78166 2.89747 4.86603 2.84696 4.90545 2.76142C4.95946 2.64434 4.90808 2.50566 4.79071 2.45165L4.62925 2.37808C4.51218 2.32494 4.37321 2.3772 4.32036 2.49515C4.26752 2.6131 4.32007 2.75149 4.43773 2.80434Z" fill="#8C9C9A"/>
<path d="M1.73486 2.22333L1.07941 1.91648C0.939855 1.85108 0.775482 1.86422 0.647604 1.95093C0.519726 2.03794 0.447029 2.18625 0.456955 2.34041L1.047 11.7739C1.05693 11.9324 1.15182 12.0732 1.29575 12.1418L7.9568 15.3197C7.96585 15.3282 7.97373 15.3373 7.98366 15.3451C8.2689 15.5638 8.58305 15.7314 8.91705 15.8435C9.16989 15.9285 9.43265 15.981 9.69746 15.9988C9.70768 15.9997 9.71731 16 9.72753 16H9.72782H9.72811C9.73804 16 9.74826 15.9997 9.75789 15.9988C10.0227 15.9807 10.2855 15.9285 10.538 15.8435C10.8726 15.7314 11.1867 15.5638 11.4717 15.3451C11.4816 15.3375 11.4895 15.3282 11.4986 15.3197L18.1602 12.1415C18.3038 12.0732 18.3987 11.9321 18.4089 11.7736L18.999 2.34011C19.0086 2.18596 18.9362 2.03764 18.8083 1.95064C18.6805 1.86393 18.5161 1.85079 18.3765 1.91619L17.7211 2.22304V1.7778C17.7211 1.77079 17.7193 1.76437 17.719 1.75736C17.7187 1.74977 17.7199 1.74247 17.719 1.73488C17.7182 1.727 17.7155 1.7197 17.7144 1.71182C17.712 1.69722 17.7094 1.68321 17.7059 1.6689C17.7021 1.65459 17.6977 1.64058 17.6928 1.62686C17.6881 1.61401 17.6828 1.60175 17.677 1.58949C17.6703 1.57547 17.663 1.56234 17.6551 1.5492C17.6484 1.53839 17.6417 1.52818 17.6341 1.51825C17.6244 1.5054 17.6145 1.49314 17.6037 1.48146C17.5958 1.473 17.5876 1.46482 17.5789 1.45694C17.5666 1.44555 17.5541 1.43504 17.5406 1.42541C17.5316 1.41869 17.5223 1.41256 17.5129 1.40672C17.4983 1.39767 17.4834 1.3895 17.4679 1.3822C17.458 1.37752 17.4481 1.37344 17.4379 1.36935C17.4215 1.36322 17.4049 1.35796 17.3877 1.35388C17.3769 1.35125 17.3658 1.34891 17.3547 1.34716C17.3374 1.34424 17.3205 1.34278 17.3027 1.34191C17.296 1.34161 17.2899 1.33986 17.2831 1.33986C17.2764 1.33986 17.27 1.34161 17.2633 1.34191C17.2554 1.3422 17.2481 1.34103 17.2402 1.34191C17.0186 1.3638 16.8043 1.39242 16.5929 1.4257V0.746017C16.5929 0.734339 16.5903 0.723537 16.5894 0.712151C16.5883 0.696677 16.5877 0.681494 16.5848 0.666605C16.5821 0.652299 16.5778 0.638869 16.5737 0.625147C16.5696 0.611425 16.5661 0.597411 16.5608 0.584273C16.5556 0.570843 16.5486 0.558288 16.5419 0.545734C16.5354 0.533472 16.5296 0.520918 16.522 0.509239C16.5144 0.497269 16.5051 0.486466 16.4963 0.475372C16.4875 0.464277 16.4794 0.453183 16.4697 0.443256C16.4601 0.433329 16.4496 0.424863 16.4391 0.415813C16.4283 0.40647 16.4178 0.396835 16.4061 0.388368C16.395 0.380485 16.383 0.374354 16.3711 0.367639C16.3585 0.36034 16.3459 0.352748 16.3325 0.346617C16.32 0.34107 16.3065 0.337276 16.2934 0.332604C16.2794 0.327933 16.2657 0.322677 16.2511 0.319466C16.2373 0.316254 16.223 0.315086 16.2087 0.313334C16.1965 0.311875 16.1848 0.308663 16.1725 0.308079C16.1684 0.307787 16.1632 0.308371 16.1588 0.308079C16.1573 0.308079 16.1559 0.307787 16.1544 0.307787C16.1527 0.307787 16.1509 0.308372 16.1492 0.308372C15.5352 0.293774 13.8754 0.825723 11.841 2.31179C11.1129 2.84374 10.2411 3.87202 9.72665 4.82731C9.21134 3.87085 8.33985 2.84228 7.61404 2.31179C5.582 0.827183 3.91959 0.300197 3.30793 0.308372C3.30531 0.308372 3.30297 0.307495 3.30034 0.307495C3.29859 0.307495 3.29684 0.308079 3.29509 0.308079C3.29129 0.308079 3.28604 0.307787 3.28224 0.307787C3.26969 0.308371 3.25801 0.311583 3.24575 0.313043C3.23144 0.314794 3.21714 0.315962 3.20341 0.319174C3.18882 0.322385 3.17509 0.32764 3.16108 0.332311C3.14794 0.336691 3.13451 0.340486 3.12196 0.346325C3.10853 0.352457 3.09597 0.360048 3.08342 0.367347C3.07174 0.374062 3.05977 0.380193 3.04867 0.388076C3.037 0.396543 3.02619 0.406177 3.01539 0.41552C3.00488 0.42457 2.99437 0.433038 2.98503 0.442964C2.97539 0.453183 2.96693 0.464277 2.95846 0.475372C2.9497 0.486466 2.94065 0.496977 2.93306 0.508948C2.92547 0.520626 2.91963 0.53318 2.91321 0.545442C2.90649 0.557997 2.89978 0.570551 2.89423 0.583981C2.88897 0.597411 2.88547 0.611425 2.88138 0.625147C2.87759 0.638869 2.87292 0.652007 2.87058 0.666021C2.86766 0.680911 2.86708 0.696385 2.86591 0.711859C2.86503 0.723245 2.86241 0.734047 2.86241 0.745434V1.42511C2.65103 1.39183 2.43673 1.36322 2.21513 1.34132C2.20783 1.34074 2.20083 1.34191 2.19382 1.34161C2.18652 1.34132 2.1798 1.33957 2.17251 1.33957C2.16404 1.33957 2.15616 1.34161 2.14769 1.3422C2.13426 1.34307 2.12112 1.34424 2.10798 1.34628C2.09134 1.34862 2.07528 1.35213 2.05952 1.3565C2.04842 1.35942 2.03733 1.36293 2.02653 1.36672C2.01047 1.37256 1.9947 1.37898 1.97952 1.38658C1.96959 1.39154 1.95967 1.39679 1.95003 1.40263C1.93573 1.4111 1.92201 1.42015 1.90887 1.43037C1.89923 1.43767 1.89018 1.44526 1.88113 1.45314C1.86974 1.46336 1.85894 1.47416 1.84872 1.48555C1.83967 1.49548 1.8315 1.50569 1.82332 1.51621C1.81486 1.52759 1.80668 1.53927 1.79938 1.55153C1.79208 1.5635 1.78537 1.57577 1.77924 1.58861C1.77311 1.60146 1.76756 1.6143 1.76289 1.62773C1.75792 1.64116 1.75354 1.65489 1.75004 1.66919C1.74654 1.68321 1.74362 1.69751 1.74157 1.71182C1.74041 1.7197 1.73778 1.727 1.7369 1.73488C1.73603 1.74247 1.73719 1.74977 1.7369 1.75736C1.73661 1.76437 1.73486 1.77079 1.73486 1.7778V2.22333V2.22333ZM17.5509 11.4621L11.5362 14.3317L11.5458 13.4424C11.5476 13.281 11.418 13.149 11.2571 13.1473C11.2559 13.1473 11.2548 13.1473 11.2539 13.1473C11.0939 13.1473 10.9637 13.2757 10.9619 13.436L10.9491 14.6322C10.9357 14.6439 10.9216 14.6549 10.9103 14.6681C10.7097 14.8176 10.4919 14.9352 10.2598 15.0129C10.0872 15.071 9.90825 15.106 9.72811 15.1209C9.54797 15.106 9.369 15.071 9.19616 15.0129C8.96435 14.9352 8.74684 14.8179 8.54597 14.6681C8.53429 14.6549 8.52028 14.6439 8.50685 14.6322L8.43532 7.95653C8.43357 7.79624 8.30335 7.66778 8.14336 7.66778C8.14248 7.66778 8.14132 7.66778 8.14015 7.66778C7.97899 7.66953 7.84965 7.8015 7.8514 7.96295L7.91943 14.3317L1.90478 11.4621L1.37692 3.02301L1.76931 3.20665C1.80727 3.22446 1.84668 3.23438 1.88609 3.24081C1.96317 3.30796 2.06244 3.35 2.1728 3.35C2.17309 3.35 2.17367 3.35 2.17397 3.35L7.83067 5.99894L7.84322 7.16795C7.84498 7.32823 7.97519 7.4567 8.13518 7.4567C8.13606 7.4567 8.13723 7.4567 8.1384 7.4567C8.29956 7.45494 8.42889 7.32298 8.42714 7.16152L8.41809 6.30054C8.5121 6.34024 8.61575 6.37878 8.74304 6.42112C9.03325 6.51805 9.4998 6.55454 9.70534 6.57089L9.70563 6.56593C9.71527 6.5668 9.72403 6.57118 9.73366 6.57118C9.74125 6.57118 9.74943 6.57089 9.75702 6.57031C9.95642 6.55454 10.4227 6.51805 10.7129 6.42112C10.8402 6.37878 10.9438 6.33995 11.0378 6.30054L10.9701 12.6442C10.9684 12.8057 11.098 12.9376 11.2589 12.9394C11.26 12.9394 11.2609 12.9394 11.2621 12.9394C11.4221 12.9394 11.5523 12.8109 11.554 12.6506L11.6253 5.99865L17.282 3.34971C17.2823 3.34971 17.2828 3.34971 17.2831 3.34971C17.3935 3.34971 17.4931 3.30767 17.5698 3.24022C17.6093 3.2338 17.6484 3.22417 17.6863 3.20636L18.0787 3.02271L17.5509 11.4621ZM12.3581 3.0195C13.8564 1.92495 15.0786 1.42365 15.7171 1.25403V1.95035C15.7171 1.95093 15.7174 1.95181 15.7174 1.95239C15.7174 1.95356 15.7177 1.95502 15.7177 1.95619C15.7179 1.97633 15.7206 1.9956 15.7235 2.01516C15.0161 2.2642 14.398 2.54127 13.7785 2.89484C13.4158 3.10183 13.0413 3.33628 12.6652 3.59145C12.5587 3.66386 12.5306 3.80925 12.603 3.91582C12.6483 3.98238 12.7216 4.01829 12.7966 4.01829C12.8416 4.01829 12.8874 4.00516 12.9274 3.978C13.2935 3.72955 13.6579 3.50153 14.01 3.30066C14.666 2.92637 15.3203 2.64025 16.0937 2.38216C16.1135 2.38508 16.1334 2.38829 16.1541 2.38829H16.1544C16.1851 2.38829 16.2149 2.38508 16.2438 2.37894C16.2441 2.37894 16.2446 2.37894 16.2449 2.37894C16.4426 2.33719 16.642 2.30333 16.8443 2.27384V2.90973L11.2656 5.52247C11.2606 5.5248 11.258 5.52918 11.2533 5.53152C11.2483 5.53415 11.2431 5.53415 11.2384 5.53677C11.0565 5.64655 10.9322 5.71633 10.7403 5.79136C11.1266 5.36247 11.7093 4.85505 12.4089 4.34325C12.5128 4.26704 12.5356 4.12077 12.4594 4.01683C12.3838 3.91348 12.2375 3.88983 12.133 3.96633C11.6693 4.30529 10.9003 4.9076 10.3637 5.51458C10.75 4.68279 11.6183 3.56021 12.3581 3.0195ZM9.11792 5.5759C8.34306 4.67287 6.85407 3.58298 5.64769 2.89484C5.56478 2.84812 5.48274 2.80229 5.4007 2.75762C5.28654 2.69601 5.14552 2.73893 5.08392 2.85192C5.02261 2.96549 5.06494 3.10709 5.17822 3.16869C5.25764 3.21132 5.33705 3.2557 5.41646 3.30095C6.51364 3.92691 7.91125 4.93884 8.66918 5.77297C8.50305 5.70465 8.38364 5.63779 8.21693 5.53706C8.21226 5.53415 8.20671 5.53415 8.20175 5.53152C8.19708 5.52918 8.19416 5.5248 8.18949 5.52247L2.61074 2.90973V2.27384C2.81306 2.30333 3.01247 2.33719 3.21013 2.37894C3.21042 2.37894 3.211 2.37894 3.2113 2.37894C3.2402 2.38508 3.26998 2.38829 3.30064 2.38829H3.30093C3.31582 2.38829 3.32983 2.38537 3.34414 2.38391C3.53333 2.44697 3.71639 2.51091 3.89156 2.57835C3.919 2.58886 3.94703 2.59383 3.97506 2.59383C4.06878 2.59383 4.15754 2.53689 4.19315 2.44376C4.23928 2.32347 4.17914 2.1883 4.05856 2.14217C3.95141 2.10129 3.84193 2.06159 3.73098 2.02246C3.73449 2.00086 3.73741 1.97896 3.7377 1.95648C3.7377 1.95531 3.73799 1.95385 3.73799 1.95268C3.73799 1.9521 3.73828 1.95123 3.73828 1.95064V1.25607C4.3768 1.4257 5.59689 1.92349 7.09727 3.0195C7.85228 3.57131 8.74509 4.73651 9.11792 5.5759Z" fill="#8C9C9A"/>
<path d="M2.35024 6.01208C2.22119 6.01705 2.12076 6.12536 2.12514 6.25412L2.1374 6.58141C2.14236 6.70753 2.24572 6.80621 2.37068 6.80621C2.37389 6.80621 2.37681 6.80621 2.37973 6.80621C2.50848 6.80096 2.60921 6.69264 2.60453 6.56389L2.59227 6.23719C2.58731 6.10785 2.46498 6.01384 2.35024 6.01208Z" fill="#8C9C9A"/>
<path d="M3.29812 4.6073L2.36239 4.18133C2.28648 4.14688 2.19802 4.15535 2.12999 4.20381C2.06196 4.25228 2.02518 4.33344 2.03335 4.41665C2.03364 4.42074 2.07101 4.81051 2.097 5.50303C2.10196 5.62916 2.20532 5.72784 2.33027 5.72784C2.33349 5.72784 2.33641 5.72784 2.33932 5.72784C2.46808 5.72288 2.5688 5.61427 2.56413 5.48551C2.55304 5.19064 2.5399 4.95094 2.52851 4.77051L3.10513 5.03298C3.22192 5.08641 3.36089 5.03444 3.41461 4.91707C3.46745 4.7997 3.41549 4.66102 3.29812 4.6073Z" fill="#8C9C9A"/>
<path d="M14.9762 11.6585L14.7923 11.7539C14.6775 11.8132 14.6328 11.9542 14.6924 12.0687C14.7339 12.1487 14.8153 12.1948 14.9 12.1948C14.9362 12.1948 14.9727 12.1866 15.0071 12.1685L15.1911 12.0736C15.3055 12.0144 15.3502 11.8731 15.2912 11.7586C15.2322 11.6447 15.0918 11.5995 14.9762 11.6585Z" fill="#8C9C9A"/>
<path d="M16.8118 10.5307C16.6859 10.5196 16.5738 10.6241 16.5677 10.7532L16.5636 10.8373L15.5686 11.3526C15.4539 11.4118 15.4092 11.5529 15.4688 11.6673C15.5102 11.7473 15.5917 11.7934 15.6763 11.7934C15.7126 11.7934 15.749 11.7853 15.7835 11.7672L16.8979 11.1903C16.9724 11.1517 17.0202 11.0764 17.024 10.9932L17.034 10.7748C17.0401 10.6457 16.9405 10.5366 16.8118 10.5307Z" fill="#8C9C9A"/>
<path d="M16.8541 9.56424C16.7349 9.55665 16.6161 9.65796 16.6106 9.7873L16.596 10.1152C16.5898 10.2439 16.69 10.3528 16.819 10.3587C16.8225 10.359 16.8257 10.359 16.8295 10.359C16.9536 10.359 17.057 10.2611 17.0625 10.1356L17.0771 9.80774C17.0827 9.67898 16.9831 9.57008 16.8541 9.56424Z" fill="#8C9C9A"/>
</svg>
