<svg width="52" height="53" viewBox="0 0 52 53" fill="none" xmlns="http://www.w3.org/2000/svg">
<g opacity="0.5" clip-path="url(#clip0)">
<path d="M31.1624 28.8289C31.201 28.7907 31.2397 28.7524 31.2784 28.7141C31.2526 28.7651 31.2268 28.8162 31.2139 28.88L31.1624 28.8289Z" fill="#30C4AE"/>
<path d="M20.5286 3.93157C19.8455 3.7109 19.0927 3.94536 18.6606 4.49703L14.2417 3.07647C14.2835 1.90416 13.3635 0.924934 12.1925 0.883559C11.0076 0.842183 10.0179 1.75245 9.97607 2.91097C9.96213 3.26956 10.0318 3.61435 10.1991 3.93157L7.0487 6.74511C6.07291 6.13827 4.7765 6.4141 4.13526 7.35195L3.74495 8.41393C3.71707 8.81389 3.78677 9.20007 3.96799 9.55865C4.05162 9.72416 4.16314 9.88966 4.2886 10.0276C4.67892 10.4551 5.22257 10.7172 5.80805 10.731L6.46322 13.8203C4.94378 14.4686 4.23284 16.2063 4.88802 17.7235C4.9159 17.7924 4.94378 17.8614 4.9856 17.9303C5.02742 17.9717 5.0553 18.0407 5.09711 18.1096L5.86381 18.9647C7.1881 19.9577 9.05604 19.6957 10.0597 18.3855C10.1433 18.2751 10.227 18.151 10.2967 18.0269L13.8095 19.1578C13.8095 19.4336 13.8653 19.7233 14.0047 19.9715C14.0744 20.1094 14.158 20.2336 14.2556 20.3439C14.8968 21.0473 15.9842 21.1163 16.709 20.4818C17.2666 19.9853 17.4478 19.1992 17.1412 18.5096L20.0685 15.9029C21.3371 16.827 23.1214 16.5649 24.0553 15.3099C24.2505 15.0616 24.3899 14.772 24.4875 14.4686C24.9754 12.9928 24.1529 11.393 22.6614 10.9103C22.3686 10.8137 22.0619 10.7723 21.7553 10.7723L20.9328 6.99336C21.2813 6.78649 21.5322 6.45548 21.6577 6.0831C21.9225 5.17284 21.4207 4.22119 20.5286 3.93157ZM11.147 2.71788C11.3143 2.20758 11.8719 1.93174 12.3877 2.09724C12.9034 2.26275 13.1822 2.81442 13.015 3.32472C12.8477 3.83502 12.2901 4.11086 11.7743 3.95915C11.2725 3.77986 10.9797 3.22818 11.147 2.71788ZM4.99954 9.06215C4.87408 8.82768 4.8462 8.53805 4.92984 8.27601C5.01348 8.02776 5.19469 7.80709 5.43167 7.69675C5.93351 7.4347 6.5608 7.62779 6.81172 8.1243C7.07658 8.62081 6.88142 9.24144 6.37958 9.4897C5.89169 9.75174 5.26439 9.55865 4.99954 9.06215ZM9.29302 15.765C9.51605 16.1926 9.55787 16.7029 9.40453 17.158C9.2512 17.6131 8.93058 17.9993 8.49844 18.2062C7.59235 18.6751 6.47716 18.3303 6.00321 17.4338C5.52925 16.5373 5.87775 15.434 6.78384 14.9651C7.53659 14.5789 8.45662 14.7444 9.01422 15.365C9.12574 15.4892 9.20938 15.6133 9.29302 15.765ZM23.2468 12.8411C23.679 13.6686 23.3444 14.6754 22.508 15.103C21.6716 15.5305 20.654 15.1995 20.2358 14.372C19.8037 13.5445 20.1382 12.5377 20.9746 12.1239C21.6577 11.7791 22.4801 11.9309 22.9959 12.4963C23.0935 12.5929 23.1771 12.7032 23.2468 12.8411ZM20.5843 11.0206C19.8455 11.3516 19.274 11.9722 19.023 12.7308C18.7861 13.448 18.8558 14.2203 19.1903 14.8823L19.274 15.0202L16.3326 17.6545C16.249 17.6131 16.1514 17.5717 16.0539 17.5442C15.3847 17.3235 14.632 17.5442 14.1859 18.082L10.6312 16.9373C10.8264 15.3099 9.65545 13.8341 8.01055 13.6273C7.87115 13.6135 7.73175 13.5997 7.59235 13.5997L6.92324 10.4965C7.98267 9.94483 8.38692 8.64839 7.82933 7.58641C7.82933 7.58641 7.82933 7.58642 7.82933 7.57262L10.9379 4.80045C11.9137 5.42109 13.2241 5.14525 13.8653 4.17982L18.2703 5.60038C18.2842 6.00035 18.4376 6.38652 18.7164 6.68994C18.9115 6.91061 19.1764 7.07612 19.4691 7.15887C19.5667 7.18645 19.6643 7.21403 19.7758 7.22783L20.5843 11.0206Z" fill="#30C4AE"/>
<path d="M34.6076 0.952322C33.9246 0.731652 33.1718 0.966114 32.7397 1.51779L28.3208 0.111017C28.3626 -1.06129 27.4426 -2.04052 26.2716 -2.0819C25.0867 -2.12327 24.097 -1.21301 24.0552 -0.0544858C24.0412 0.304103 24.1109 0.6489 24.2782 0.966114L21.1278 3.77966C20.152 3.17282 18.8556 3.44866 18.2144 4.3865L17.824 5.44848C17.7962 5.84845 17.8659 6.23462 18.0471 6.59321C18.1307 6.75871 18.2422 6.92421 18.3677 7.06213C18.758 7.48968 19.3017 7.75173 19.8871 7.76552L20.5423 10.8549C19.0229 11.5031 18.3119 13.2409 18.9671 14.758C18.995 14.827 19.0229 14.8959 19.0647 14.9649C19.1065 15.0063 19.1344 15.0752 19.1762 15.1442L19.9429 15.9993C21.2672 16.9923 23.1351 16.7303 24.1388 15.42C24.2224 15.3097 24.3061 15.1856 24.3758 15.0614L27.8886 16.1924C27.8886 16.4682 27.9444 16.7578 28.0838 17.0061C28.1535 17.144 28.2371 17.2681 28.3347 17.3785C28.9759 18.0819 30.0632 18.1508 30.7881 17.5164C31.3457 17.0199 31.5269 16.2337 31.2203 15.5441L34.1476 12.9375C35.4162 13.8615 37.2005 13.5995 38.1344 12.3444C38.3296 12.0962 38.469 11.8065 38.5666 11.5031C39.0545 10.0274 38.232 8.42753 36.7404 7.94481C36.4477 7.84827 36.141 7.8069 35.8343 7.8069L35.0119 4.02792C35.3604 3.82104 35.6113 3.49003 35.7368 3.11765C36.0156 2.19359 35.5137 1.24195 34.6076 0.952322ZM25.2401 -0.261364C25.4073 -0.771665 25.9649 -1.0475 26.4807 -0.882C26.9965 -0.716498 27.2753 -0.164822 27.108 0.345479C26.9407 0.855779 26.3831 1.13162 25.8673 0.979907C25.3516 0.800612 25.0728 0.262728 25.2401 -0.261364ZM19.0926 6.08291C18.9671 5.84845 18.9392 5.55882 19.0229 5.29677C19.1065 5.04852 19.2877 4.82785 19.5247 4.71751C20.0265 4.45546 20.6538 4.64855 20.9048 5.14506C21.1696 5.64157 20.9745 6.2622 20.4726 6.51046C19.9708 6.75871 19.3574 6.57942 19.0926 6.08291ZM23.3721 12.7858C23.5952 13.2133 23.637 13.7236 23.4836 14.1788C23.3303 14.6339 23.0097 15.0201 22.5775 15.2269C21.6715 15.6959 20.5563 15.3511 20.0823 14.4546C19.6084 13.5581 19.9568 12.4548 20.8629 11.9858C21.6157 11.5997 22.5357 11.7652 23.0933 12.3858C23.2048 12.5099 23.3024 12.6479 23.3721 12.7858ZM37.3398 9.86189C37.772 10.6894 37.4374 11.6962 36.601 12.1238C35.7646 12.5513 34.747 12.2203 34.3288 11.3928C33.8967 10.5653 34.2313 9.55847 35.0677 9.14471C35.7507 8.79991 36.5732 8.95162 37.0889 9.51709C37.1865 9.61363 37.2702 9.72397 37.3398 9.86189ZM34.6773 8.04136C33.9385 8.37236 33.367 8.993 33.1161 9.75155C32.8791 10.4687 32.9488 11.2411 33.2834 11.9031L33.367 12.041L30.4257 14.6753C30.342 14.6339 30.2445 14.5925 30.1469 14.5649C29.4778 14.3443 28.725 14.5649 28.2789 15.1028L24.7243 13.9581C24.9194 12.3306 23.7485 10.8549 22.1036 10.648C21.9642 10.6342 21.8248 10.6204 21.6854 10.6204L21.0163 7.51727C22.0757 6.96559 22.48 5.66915 21.9224 4.60717C21.9224 4.60717 21.9224 4.60717 21.9224 4.59338L25.031 1.82121C26.0067 2.44185 27.3171 2.16601 27.9583 1.20058L32.3633 2.62114C32.3773 3.02111 32.5306 3.40728 32.8094 3.7107C33.0046 3.93137 33.2694 4.09687 33.5621 4.17963C33.6597 4.20721 33.7573 4.23479 33.8688 4.24859L34.6773 8.04136Z" fill="#30C4AE"/>
<path d="M25.7978 18.9782C25.5329 18.8955 25.2402 18.9782 25.0589 19.1989L23.3165 18.6334C23.3304 18.1783 22.968 17.7921 22.508 17.7645C22.0479 17.7508 21.6576 18.1093 21.6297 18.5645C21.6297 18.7024 21.6576 18.8403 21.7134 18.9644L20.4727 20.0678C20.0824 19.8333 19.5806 19.9299 19.3297 20.3023L19.1763 20.716C19.1624 20.8677 19.1903 21.0194 19.26 21.1574C19.2879 21.2263 19.3297 21.2815 19.3854 21.3366C19.5388 21.5022 19.7479 21.6125 19.9848 21.6125L20.2497 22.8262C19.6503 23.0744 19.3715 23.764 19.6363 24.3571C19.6503 24.3847 19.6642 24.4122 19.6782 24.4398C19.6921 24.4536 19.706 24.4812 19.72 24.5088L20.0267 24.8398C20.5424 25.226 21.2812 25.1294 21.6716 24.6191C21.6994 24.5777 21.7413 24.5226 21.7691 24.4812L23.1492 24.9225C23.1492 25.0329 23.1771 25.1432 23.2189 25.2398C23.2468 25.2949 23.2746 25.3363 23.3165 25.3915C23.5674 25.6673 23.9995 25.6949 24.2783 25.4466C24.5013 25.2535 24.571 24.9363 24.4456 24.6743L25.5887 23.6537C26.0905 24.0123 26.7875 23.9157 27.1499 23.4192C27.2196 23.3227 27.2754 23.2123 27.3172 23.0882C27.5124 22.509 27.1917 21.8883 26.6063 21.6952C26.4947 21.6539 26.3693 21.6401 26.2438 21.6401L25.9232 20.1505C26.0626 20.0678 26.1602 19.9437 26.202 19.792C26.3553 19.4747 26.1602 19.0886 25.7978 18.9782ZM22.1176 18.5093C22.1873 18.3024 22.3964 18.1921 22.6055 18.2611C22.8146 18.33 22.9261 18.5369 22.8565 18.7438C22.7868 18.9506 22.5777 19.061 22.3686 18.992C22.1595 18.9231 22.0479 18.7024 22.1176 18.5093ZM19.706 20.9918C19.6503 20.8953 19.6503 20.785 19.6782 20.6884C19.706 20.5919 19.7757 20.5091 19.8733 20.454C20.0685 20.3574 20.3194 20.4264 20.417 20.6195C20.5146 20.8126 20.4449 21.0608 20.2497 21.1574C20.0545 21.2677 19.8036 21.1849 19.706 20.9918ZM21.3928 23.6261C21.4764 23.7916 21.4903 23.9985 21.4346 24.1778C21.3788 24.3571 21.2534 24.5088 21.0861 24.5915C20.7237 24.7708 20.2915 24.6329 20.1103 24.2881C19.9291 23.9295 20.0685 23.502 20.417 23.3227C20.7097 23.171 21.0722 23.2399 21.2952 23.4744C21.3231 23.5158 21.3509 23.5709 21.3928 23.6261ZM26.8711 22.4814C27.0384 22.7986 26.9129 23.1986 26.5784 23.3641C26.2578 23.5296 25.8535 23.4054 25.6862 23.0744C25.519 22.7572 25.6444 22.3573 25.979 22.1917C26.2438 22.0538 26.5784 22.109 26.7735 22.3297C26.8154 22.3848 26.8432 22.4262 26.8711 22.4814ZM25.8256 21.7642C25.5329 21.8883 25.3099 22.1366 25.2123 22.44C25.1147 22.7158 25.1426 23.0193 25.282 23.2813L25.3099 23.3365L24.1529 24.3709C24.125 24.3571 24.0832 24.3433 24.0413 24.3295C23.7765 24.2467 23.4837 24.3295 23.3025 24.5364L21.9085 24.095C21.9922 23.4606 21.5322 22.8675 20.877 22.7986C20.8212 22.7986 20.7655 22.7848 20.7097 22.7848L20.4449 21.5573C20.8631 21.3366 21.0164 20.8263 20.8073 20.4126L22.034 19.323C22.4243 19.5713 22.9261 19.4609 23.1771 19.0748L24.9056 19.6265C24.9056 19.7782 24.9753 19.9299 25.0729 20.054C25.1565 20.1368 25.2541 20.2057 25.3656 20.2471C25.4074 20.2609 25.4493 20.2609 25.4911 20.2747L25.8256 21.7642Z" fill="#30C4AE"/>
<path d="M18.1727 24.4949C17.88 24.3984 17.5733 24.357 17.2666 24.357L16.4442 20.578C16.7927 20.3712 17.0436 20.0402 17.1691 19.6678C17.4618 18.7713 16.96 17.8197 16.0539 17.53C15.3708 17.3094 14.6181 17.5438 14.1859 18.0955L9.76702 16.6749L9.48822 17.8197L13.8096 19.2126C13.8235 19.6126 13.9768 19.9988 14.2556 20.3022C14.4508 20.5229 14.7157 20.6884 15.0084 20.7711C15.106 20.7987 15.2036 20.8263 15.3151 20.8401L16.1375 24.6191C15.3987 24.9501 14.8272 25.5707 14.5763 26.3293C14.3393 27.0464 14.409 27.8188 14.7435 28.4808L14.8272 28.6187L11.8859 31.253C11.8022 31.2116 11.7047 31.1702 11.6071 31.1426C10.938 30.922 10.1852 31.1426 9.73913 31.6805L6.18448 30.5358C6.37963 28.9083 5.20869 27.4326 3.56379 27.2257C3.42439 27.2119 3.28499 27.1981 3.14559 27.1981L2.47648 24.095C3.53591 23.5433 3.94016 22.2469 3.38257 21.1849C3.38257 21.1849 3.38257 21.1849 3.38257 21.1711L6.17054 18.6748L5.3899 17.8334L2.588 20.3298C1.61221 19.7229 0.315802 19.9988 -0.325431 20.9366L-0.715745 21.9986C-0.743625 22.3986 -0.673926 22.7847 -0.492708 23.1433C-0.409069 23.3088 -0.29755 23.4743 -0.172091 23.6123C0.218224 24.0398 0.761877 24.3018 1.34735 24.3156L2.00252 27.405C0.483081 28.0532 -0.227851 29.791 0.427321 31.3081C0.455201 31.3771 0.483081 31.4461 0.524901 31.515C0.56672 31.5564 0.594599 31.6253 0.636419 31.6943L1.40311 32.5494C2.72739 33.5424 4.59533 33.2804 5.599 31.9701C5.68264 31.8598 5.76628 31.7357 5.83598 31.6116L9.34882 32.7425C9.34882 33.0183 9.40458 33.308 9.54398 33.5562C9.61368 33.6941 9.69732 33.8183 9.7949 33.9286C10.4361 34.632 11.5234 34.7009 12.2483 34.0665C12.8059 33.57 12.9871 32.7839 12.6804 32.0943L15.6078 29.4876C16.8763 30.4117 18.6606 30.1496 19.5946 28.8946C19.7898 28.6463 19.9292 28.3567 20.0267 28.0532C20.4868 26.5637 19.6643 24.9777 18.1727 24.4949ZM1.91888 23.0882C1.41705 23.3502 0.789757 23.1571 0.53884 22.6606C0.413382 22.4261 0.385502 22.1365 0.469141 21.8745C0.55278 21.6262 0.733998 21.4055 0.970975 21.2952C1.47281 21.0332 2.1001 21.2263 2.35102 21.7228C2.62982 22.2193 2.43466 22.8261 1.91888 23.0882ZM4.92989 30.7565C4.77655 31.2116 4.45594 31.5978 4.0238 31.8046C3.11771 32.2736 2.00252 31.9288 1.52857 31.0323C1.05461 30.1358 1.40311 29.0325 2.3092 28.5635C3.06195 28.1774 3.98198 28.3429 4.53957 28.9635C4.65109 29.0876 4.73473 29.2118 4.81837 29.3635C5.05535 29.791 5.08323 30.2875 4.92989 30.7565ZM18.0473 28.6877C17.2109 29.1152 16.1933 28.7842 15.7611 27.9567C15.329 27.1292 15.6636 26.1224 16.5 25.7086C17.183 25.3638 18.0055 25.5155 18.5212 26.081C18.6188 26.1913 18.7025 26.3155 18.7722 26.4396C19.2182 27.2533 18.8837 28.2601 18.0473 28.6877Z" fill="#30C4AE"/>
</g>
<defs>
<clipPath id="clip0">
<rect width="52" height="53" fill="white"/>
</clipPath>
</defs>
</svg>
