<svg width="48" height="27" viewBox="0 0 48 27" fill="none" xmlns="http://www.w3.org/2000/svg">
<g opacity="0.5" clip-path="url(#clip0)">
<path d="M-16.4229 1.91182C-16.1608 4.04594 -15.1261 5.21626 -13.2083 5.72569C-10.0765 6.53803 -6.97225 7.43298 -3.85421 8.28663C-3.55069 8.36924 -3.19198 8.38301 -2.97123 8.562C-2.87465 8.63084 -2.79187 8.71345 -2.72289 8.80983C-2.30899 9.25042 -2.57113 9.99392 -3.16438 10.0765C-3.23337 10.0903 -3.30235 10.0903 -3.37133 10.0765C-5.05452 9.70478 -6.71012 9.19535 -8.37951 8.74099C-10.0765 8.27286 -11.7735 7.83227 -13.4981 7.36414C-13.5946 9.29173 -12.6013 10.6273 -10.656 11.1642C-8.61405 11.7425 -6.54456 12.2657 -4.50266 12.8302C-3.8956 12.9955 -3.12299 13.1744 -3.46791 13.9868C-3.59208 14.2759 -4.44747 14.4824 -4.88896 14.3861C-6.82049 13.9455 -8.72442 13.3672 -10.6422 12.844C-11.0561 14.3861 -10.0627 15.9694 -8.28293 16.534C-6.88947 16.9745 -5.44083 17.2499 -4.06116 17.7318C-3.95079 17.7731 -3.85422 17.842 -3.75764 17.9246C-3.31615 18.3376 -3.5231 19.1087 -4.11635 19.2188C-4.22672 19.2463 -4.35089 19.2463 -4.44747 19.2326C-5.66157 19.026 -6.83429 18.6405 -8.03459 18.3376C-8.15876 20.1688 -7.13781 21.587 -5.31666 22.124C-3.86801 22.5508 -2.39177 22.8537 -0.956923 23.3218C-0.874144 23.3494 -0.791363 23.3907 -0.708584 23.4595C-0.225702 23.8312 -0.349871 24.6023 -0.943127 24.795C-1.08109 24.8363 -1.21906 24.8639 -1.34323 24.8363C-2.98503 24.4921 -4.61303 24.0378 -6.21344 23.5146C-8.31052 22.8261 -9.635 20.9123 -9.81436 18.6956C-9.85575 18.1724 -10.1593 17.539 -10.5456 17.1811C-11.7321 16.0521 -12.4219 14.7578 -12.5185 13.1056C-12.5461 12.6237 -12.8772 12.073 -13.2359 11.7287C-14.4224 10.6135 -15.1261 9.31926 -15.2364 7.66705C-15.264 7.15761 -15.6227 6.5518 -16.009 6.18005C-17.4715 4.81697 -18.1613 3.26113 -17.9682 1.29224C-17.844 0.0806113 -17.2645 -0.153453 -16.1608 0.149454C-11.2906 1.51253 -6.42039 2.82054 -1.55018 4.14231C-0.998314 4.29377 -0.391262 4.34884 0.105417 4.61044C0.1744 4.65175 0.229588 4.69305 0.284773 4.74813C0.740063 5.17495 0.588299 5.94599 -0.0187511 6.12498C-0.101532 6.15251 -0.184311 6.15251 -0.253294 6.13874C-1.72953 5.83584 -3.16438 5.39525 -4.62683 4.99596C-8.20015 4.03217 -11.7873 3.04084 -15.3882 2.06327C-15.6641 1.99443 -15.9677 1.98066 -16.4229 1.91182Z" fill="#087464"/>
<path d="M28.7885 12.8026C26.7604 13.3671 24.8565 13.9316 22.9249 14.386C22.4835 14.4961 21.6281 14.3171 21.4901 14.0142C21.1176 13.2157 21.8764 12.9954 22.4835 12.8301C24.5391 12.2656 26.5948 11.7424 28.6505 11.1779C30.5959 10.641 31.603 9.31918 31.5202 7.32275C28.3884 8.1764 25.2842 9.03005 22.1799 9.88369C21.9178 9.95253 21.6419 10.1178 21.4073 10.0765C21.2831 10.0489 21.1728 10.0214 21.0486 9.98007C20.4691 9.80108 20.3036 9.03005 20.7865 8.6583C20.8417 8.61699 20.8968 8.58945 20.952 8.56192C24.346 7.55682 27.7676 6.62056 31.2029 5.71184C33.1069 5.21618 34.1692 4.04585 34.4313 1.89797C33.9898 1.96681 33.6311 2.00812 33.2724 2.1045C28.4436 3.4125 23.6148 4.73428 18.7722 6.01475C18.3307 6.13866 17.8202 6.1249 17.3649 6.02852C17.2269 6.00098 17.02 5.4227 17.1304 5.24371C17.3097 4.95457 17.6546 4.66544 17.9857 4.56906C21.5729 3.56396 25.16 2.60016 28.7609 1.6226C30.5959 1.12693 32.4308 0.6175 34.2658 0.108066C35.2039 -0.153535 35.7834 0.0116869 35.9352 1.1407C36.1973 3.16467 35.5075 4.76181 34.0726 6.15243C33.6587 6.55172 33.3138 7.19884 33.2724 7.76334C33.1344 9.37426 32.4308 10.6134 31.2857 11.7011C30.927 12.0453 30.5821 12.5961 30.5545 13.0642C30.4579 14.7715 29.7543 16.107 28.485 17.2223C28.1401 17.5252 27.8779 18.0759 27.8503 18.5303C27.671 21.0637 26.3327 22.8811 23.8907 23.6246C22.4145 24.079 20.9106 24.5196 19.4068 24.8225C19.2688 24.85 19.1171 24.8225 18.9515 24.7674C18.3996 24.5884 18.2617 23.8587 18.6894 23.487C18.7722 23.4043 18.8687 23.3493 18.9791 23.3217C20.414 22.8536 21.8902 22.5507 23.3388 22.1239C25.0772 21.6144 26.0016 20.4166 26.1947 18.3238C24.9117 18.6542 23.7251 19.026 22.4972 19.2325C22.3869 19.2463 22.2627 19.2463 22.1523 19.2187C21.5591 19.1086 21.3383 18.3513 21.7798 17.9245C21.8764 17.8419 21.973 17.773 22.0833 17.7317C23.463 17.2498 24.9117 16.9745 26.3051 16.5339C27.9745 16.0107 28.8851 14.6476 28.7885 12.8026Z" fill="#087464"/>
<path d="M8.93512 27.0117C2.39552 26.9704 -2.87479 21.6695 -2.79201 15.2121C-2.70923 8.6583 2.63006 3.46758 9.21105 3.52265C15.5713 3.57772 20.8554 8.9612 20.814 15.3635C20.7588 21.8485 15.4609 27.053 8.93512 27.0117ZM8.93512 25.387C14.5641 25.4008 19.1722 20.8985 19.1998 15.3498C19.2274 9.82862 14.6055 5.1611 9.07308 5.13356C3.52684 5.10603 -1.13641 9.67716 -1.1916 15.2121C-1.24678 20.747 3.36129 25.3595 8.93512 25.387Z" fill="#087464"/>
<path d="M9.6525 11.7013C9.88705 11.7701 10.094 11.8527 10.2596 11.9629C10.4251 12.073 10.5769 12.2107 10.6872 12.3484C10.7976 12.4998 10.8942 12.6513 10.9632 12.8165L12.2187 12.3484C12.0117 11.8389 11.6806 11.4121 11.2391 11.0404C10.7976 10.6686 10.232 10.4346 9.54213 10.3382L9.50074 8.9751L8.17627 9.0164L8.21766 10.3382H8.20386L8.24525 11.6875C8.41081 11.66 8.59017 11.6324 8.79712 11.6324C9.12823 11.6186 9.41796 11.6462 9.6525 11.7013Z" fill="#087464"/>
<path d="M6.49302 19.4805C7.04489 19.866 7.70712 20.1001 8.49353 20.1827L8.53492 21.5458L9.85939 21.5045L9.818 20.1827L9.77661 18.8334C9.59725 18.8747 9.4179 18.8885 9.22475 18.9022C8.53492 18.916 7.95546 18.8059 7.51397 18.558C7.05868 18.3102 6.74136 18.0211 6.56201 17.6631L5.32031 18.1312C5.55485 18.6544 5.95496 19.095 6.49302 19.4805Z" fill="#087464"/>
<path d="M6.34135 14.868C6.63108 15.0745 6.9622 15.2397 7.3623 15.3912C7.7624 15.5289 8.20389 15.6666 8.70057 15.7905C9.12827 15.9006 9.48698 15.997 9.8043 16.0934C10.1216 16.1898 10.3838 16.2999 10.6045 16.4238C10.8252 16.5477 10.9908 16.6854 11.1012 16.8369C11.2116 16.9883 11.2667 17.1811 11.2805 17.4014C11.2805 17.6217 11.2391 17.8282 11.1426 18.0072C11.046 18.1862 10.8942 18.3376 10.7149 18.4753C10.6873 18.4891 10.6597 18.5166 10.6321 18.5304L10.6735 20.0174C10.8252 19.9623 10.9632 19.921 11.0874 19.8522C11.4461 19.6732 11.7496 19.4529 11.998 19.2051C12.2463 18.9435 12.4257 18.6543 12.5498 18.3376C12.674 18.021 12.7292 17.6905 12.7154 17.3325C12.7016 16.892 12.605 16.534 12.4119 16.2311C12.2325 15.9282 11.9704 15.6803 11.653 15.46C11.3357 15.2535 10.9632 15.0745 10.5355 14.9231C10.1078 14.7716 9.63874 14.6477 9.14206 14.5238C8.36945 14.331 7.79 14.1383 7.43128 13.9317C7.07257 13.7252 6.87942 13.4361 6.86562 13.0781C6.86562 12.9129 6.89322 12.7476 6.9622 12.5824C7.03118 12.4172 7.14156 12.2657 7.29332 12.1281C7.33471 12.0867 7.3761 12.0592 7.43128 12.0179L7.38989 10.5447C6.90701 10.6961 6.52071 10.9302 6.20339 11.2469C5.72051 11.7288 5.47217 12.3346 5.47217 13.0643C5.47217 13.4911 5.55495 13.8491 5.70671 14.1383C5.83088 14.4136 6.05162 14.6615 6.34135 14.868Z" fill="#087464"/>
</g>
<defs>
<clipPath id="clip0">
<rect width="48" height="27" fill="white"/>
</clipPath>
</defs>
</svg>
