<svg width="52" height="53" viewBox="0 0 52 53" fill="none" xmlns="http://www.w3.org/2000/svg">
<g opacity="0.5" clip-path="url(#clip0)">
<g clip-path="url(#clip1)">
<path d="M53.2993 1.42041C53.2113 1.28281 53.0722 1.18566 52.9124 1.15022C52.7527 1.11479 52.5853 1.14396 52.4469 1.23135C50.0629 2.7336 37.8791 12.1288 37.6819 12.3794L37.6062 12.3477C37.1893 12.078 36.8018 11.7658 36.4497 11.4162L37.2156 10.6139C37.2983 10.5276 37.3543 10.4193 37.377 10.3021C37.4661 10.2042 37.5208 10.0801 37.533 9.94855C37.5451 9.81698 37.5141 9.68508 37.4445 9.57275C36.431 7.88077 35.2895 6.26851 34.03 4.74998L34.0027 4.77642C33.6572 4.30286 32.5807 3.31244 29.4101 0.958097C29.1529 0.753559 28.8298 0.649295 28.5011 0.664714C28.2509 0.68836 28.0131 0.784526 27.8169 0.94135C27.5441 0.675622 27.3219 0.362832 27.1608 0.0180792L30.2608 -2.8199C30.3703 -2.93276 30.4326 -3.08295 30.4351 -3.23992C30.4376 -3.39689 30.38 -3.54883 30.2741 -3.66482C30.1681 -3.78081 30.0218 -3.85213 29.865 -3.86427C29.7081 -3.87641 29.5524 -3.82846 29.4295 -3.73017L26.1927 -0.755878C26.0475 -0.633458 25.9429 -0.470097 25.8925 -0.287304C25.8464 -0.092115 25.8652 0.112701 25.9463 0.296087C26.1581 0.819706 26.4664 1.29903 26.8553 1.70929L25.7564 2.57219C25.6266 2.67499 25.5427 2.82485 25.5232 2.989C25.4845 3.00651 25.4478 3.02811 25.4137 3.05343C24.9259 3.42441 24.3752 3.7047 23.788 3.88082C22.1461 4.47948 20.4636 5.02486 18.7842 5.49201L18.7203 5.511C18.0189 5.67044 17.3477 5.94149 16.7324 6.31373C16.0446 6.82769 15.4721 7.47943 15.0518 8.22703L14.9984 8.22217C13.7284 7.80094 12.1913 8.2521 11.0895 9.37093C10.1774 10.2756 9.67611 11.4408 9.18259 12.6562C8.64986 13.8404 7.94805 14.9416 7.09903 15.9254C6.43611 16.5182 5.63387 16.9342 4.76691 17.1349C4.68343 17.1558 4.60517 17.1937 4.53708 17.2462C4.41567 17.1716 4.27157 17.1423 4.13048 17.1638C3.32431 17.2982 2.56788 17.6428 1.93795 18.1628L1.74671 17.9016C1.68392 17.8234 1.6025 17.7622 1.50986 17.7234C1.41721 17.6847 1.3163 17.6697 1.21631 17.6798C1.12176 17.6198 1.01261 17.5866 0.900518 17.5837C0.78843 17.5808 0.677623 17.6083 0.579936 17.6633C-0.527159 18.3023 -1.64101 18.9697 -2.72201 19.64C-2.79164 19.6821 -2.85219 19.7376 -2.90015 19.8033C-2.94812 19.869 -2.98253 19.9435 -3.0014 20.0225C-3.02027 20.1015 -3.02322 20.1835 -3.01008 20.2636C-2.99693 20.3437 -2.96796 20.4204 -2.92484 20.4893C-2.87377 20.5699 -2.80476 20.6377 -2.72316 20.6874C-2.64155 20.7371 -2.54955 20.7674 -2.45428 20.7759C-2.32084 20.7899 -2.18652 20.7584 -2.07321 20.6865C-1.08455 20.0739 -0.0719902 19.4718 0.946507 18.895C3.93341 22.7314 6.18203 27.087 7.57874 31.7416C7.59756 31.7953 7.61185 31.8505 7.62147 31.9066C7.59406 31.9386 7.56497 31.969 7.53433 31.9979C6.66538 32.8153 -4.212 38.8405 -5.31496 39.2972C-5.44126 39.351 -5.54608 39.4452 -5.61291 39.5649C-5.67973 39.6846 -5.70477 39.8231 -5.68408 39.9584C-5.66338 40.0938 -5.59814 40.2184 -5.49861 40.3126C-5.39908 40.4068 -5.27092 40.4653 -5.13431 40.4789C-5.03423 40.4893 -4.93312 40.4743 -4.84033 40.4354C-3.59794 39.9206 7.40665 33.8117 8.38389 32.8892C8.6081 32.7167 8.76894 32.4752 8.84138 32.2023C8.91383 31.9294 8.89381 31.6403 8.78443 31.3801C8.66214 30.9558 8.52373 30.5713 8.38721 30.1664C8.47599 30.1742 8.56543 30.163 8.64958 30.1336C8.73373 30.1042 8.81064 30.0572 8.8752 29.9958C9.32461 29.5692 9.90499 29.306 10.5225 29.2489C10.5656 29.2454 10.6081 29.2368 10.6491 29.2233C10.9115 29.4919 11.2332 29.6957 11.5886 29.8184C11.944 29.9411 12.3233 29.9793 12.6963 29.93C13.1076 29.8584 13.4851 29.6565 13.7727 29.3543C14.1927 29.6814 14.6808 29.9105 15.2013 30.0251C15.7217 30.1396 16.2614 30.1366 16.7808 30.0162C17.0682 29.9498 17.3422 29.8349 17.591 29.6767C17.8132 29.99 18.0999 30.2525 18.432 30.4465C18.764 30.6406 19.1337 30.7618 19.5166 30.8021C19.9358 30.8356 20.3571 30.771 20.747 30.6135C21.137 30.456 21.4848 30.2099 21.7628 29.8948C22.0691 30.1366 22.4285 30.3025 22.8117 30.379C23.1948 30.4555 23.5908 30.4404 23.9672 30.3349C24.4709 30.1656 24.9182 29.861 25.2598 29.4546C25.6015 29.0482 25.8242 28.5558 25.9034 28.0316C27.0307 28.0776 28.1322 27.6842 28.9748 26.9348C29.4077 26.5577 29.6991 26.0449 29.801 25.481C29.904 25.4468 29.996 25.3859 30.0676 25.3046C30.1392 25.2232 30.1878 25.1243 30.2084 25.018L30.2114 24.9852C30.5846 24.7659 30.8977 24.458 31.1228 24.0888C31.402 23.6129 31.5253 23.0622 31.4756 22.5134C31.5362 22.4371 31.5773 22.3472 31.5951 22.2516L31.5989 22.2106C32.125 21.937 32.5737 21.5359 32.9039 21.0441C33.0852 20.7545 33.1987 20.4278 33.2358 20.0884C33.2729 19.7491 33.2328 19.4058 33.1183 19.0843C33.4237 18.8918 33.6869 18.6395 33.8918 18.3427C34.0968 18.0459 34.2393 17.7108 34.3107 17.3576C34.3821 17.0045 34.3809 16.6406 34.3072 16.2881C34.2335 15.9355 34.0888 15.6017 33.882 15.3067C34.095 14.5414 34.4179 13.8108 34.8406 13.1376L34.9447 12.9983C35.0638 12.9273 35.1545 12.8172 35.2013 12.687C35.3169 12.557 35.4362 12.4315 35.5555 12.3059C35.9981 12.738 36.49 13.1169 37.021 13.435C37.1958 13.5289 37.3872 13.5884 37.5847 13.6102C37.7118 13.6221 37.84 13.6128 37.9641 13.5828C38.2302 13.5175 38.4671 13.3661 38.6377 13.1523C38.7032 13.0714 50.7558 3.75113 53.1084 2.27495C53.2468 2.18632 53.3445 2.04677 53.3803 1.8867C53.416 1.72663 53.3869 1.55903 53.2993 1.42041ZM28.4854 1.99799L28.6103 1.90191L28.6846 1.94998C32.2185 4.58529 33.0486 5.50785 33.0826 5.54399C34.2274 6.92087 35.2706 8.37877 36.2041 9.90625L34.8331 11.294L34.728 11.4001C33.8301 9.78345 32.7576 8.26981 31.5293 6.88624C30.2305 5.43842 28.7719 4.14146 27.1814 3.01992L28.4854 1.99799ZM17.4197 7.34727C17.9274 7.04649 18.4788 6.82617 19.0541 6.69422L19.1221 6.67561C20.8239 6.18984 22.5318 5.6385 24.2122 5.02681C24.9462 4.80551 25.6316 4.44714 26.2318 3.97077C26.2591 3.94433 26.279 3.90894 26.3022 3.88213C27.8876 4.97667 29.3377 6.25416 30.6226 7.6881C31.8917 9.11826 32.9863 10.6936 33.8833 12.3812L33.8414 12.4311C33.438 13.0451 33.1213 13.7115 32.9002 14.4116C32.4917 14.1754 32.0643 13.9735 31.6223 13.8078C29.0493 12.7847 26.2693 11.8501 23.4302 11.8689C23.1732 11.8703 22.9155 11.8799 22.6578 11.8896C21.7271 11.9206 20.846 11.9521 20.0886 11.6312C19.9512 11.5736 19.7973 11.5678 19.6557 11.615C19.5142 11.6622 19.3946 11.7591 19.3193 11.8877C18.56 12.2526 17.9158 12.8188 17.4572 13.5242C17.1442 14.1677 17.0013 14.8801 17.0421 15.5939C17.0292 15.7332 17.0451 15.8751 17.0452 16.0074C17.1143 16.7471 17.0198 17.4932 16.7685 18.1929C16.6789 18.3807 16.5529 18.549 16.3979 18.6881C16.2428 18.8272 16.0618 18.9343 15.8651 19.0033C15.7636 19.0426 15.6549 19.06 15.5462 19.0544C15.4375 19.0488 15.3312 19.0203 15.2344 18.9708C14.8403 18.7531 14.6633 18.1586 14.5311 17.6176C14.3071 16.7254 14.0966 15.8219 13.9017 14.9282C13.7305 14.3234 13.6751 13.6918 13.7384 13.0663C13.9029 12.4111 14.192 11.7935 14.5902 11.247L15.9847 9.06803C16.3408 8.40319 16.8291 7.81766 17.4197 7.34727ZM8.0118 29.1198C6.71323 25.5579 4.92021 22.1958 2.68508 19.1315C3.06215 18.8004 3.50935 18.5585 3.99319 18.424C6.21431 21.4631 7.84453 24.891 8.79951 28.5303C8.51342 28.6934 8.24881 28.8915 8.0118 29.1198ZM9.96197 28.0988C9.96689 28.0455 9.93485 27.9889 9.91924 27.9338C9.93485 27.9889 9.95495 28.0403 9.97467 28.0958L9.96197 28.0988ZM12.4832 28.7412C12.2934 28.7554 12.1031 28.7245 11.9277 28.6511C11.7523 28.5777 11.5969 28.4638 11.4742 28.3189C11.0356 27.8658 10.7872 26.5664 11.1443 25.6609C11.4037 25.0068 11.8635 24.9618 11.9931 24.9488C12.0788 24.946 12.1642 24.9607 12.2439 24.9921C12.3237 25.0236 12.3961 25.071 12.4567 25.1314C12.7279 25.3838 12.8928 25.7297 12.9181 26.099C12.9235 26.1951 12.955 26.288 13.0092 26.3676C12.9025 26.9326 12.9079 27.5129 13.0252 28.0756C13.02 28.1096 13.0169 28.1438 13.0157 28.1781C13.0011 28.3152 12.9409 28.4436 12.8446 28.5427C12.7484 28.6418 12.6216 28.7059 12.4847 28.7248L12.4832 28.7412ZM16.5053 28.83C15.6887 29.0161 14.6437 28.76 14.2633 28.0353C14.2683 28.0027 14.2714 27.9699 14.2724 27.937C14.1564 27.4606 14.1541 26.9636 14.2658 26.486C14.2968 26.3436 14.2753 26.1949 14.2051 26.0672C14.3571 25.4776 14.6208 24.9223 14.9819 24.4313C15.1392 24.2236 15.3509 24.0632 15.5936 23.9679C15.8363 23.8726 16.1007 23.846 16.3574 23.891C16.5864 23.9982 16.7844 24.1616 16.9328 24.3658C17.0812 24.5701 17.1753 24.8086 17.2062 25.0591C17.2247 25.1435 17.2611 25.2229 17.3131 25.2919C17.1946 26.296 17.1523 27.3074 17.1865 28.3176C17.1706 28.3566 17.1586 28.397 17.1505 28.4383C17.1201 28.543 16.8752 28.7273 16.5069 28.8137L16.5053 28.83ZM19.6359 29.6022C19.3476 29.5651 19.0768 29.4441 18.8571 29.2544C18.6375 29.0647 18.4788 28.8147 18.4007 28.5354C18.4108 28.4939 18.4147 28.4511 18.4125 28.4084C18.3675 27.2759 18.4198 26.1415 18.5687 25.0177C18.5843 24.9617 18.5897 24.9034 18.5846 24.8456C18.7685 24.5946 19.0093 24.3905 19.2872 24.2498C19.5651 24.1092 19.8723 24.0361 20.1838 24.0364C20.5089 24.0552 20.8185 24.1809 21.0641 24.3939C21.3097 24.6068 21.4775 24.8951 21.5413 25.2135C21.5385 25.2242 21.5374 25.2353 21.5383 25.2463C21.3772 26.2941 21.2794 27.3505 21.2457 28.4098C21.1975 28.4681 21.1604 28.5348 21.1363 28.6064C21.0296 28.9116 20.8247 29.1731 20.5536 29.3503C20.2825 29.5274 19.9604 29.6102 19.6374 29.5859L19.6359 29.6022ZM23.6151 29.1706C23.4068 29.2248 23.1881 29.224 22.9804 29.1682C22.7728 29.1123 22.5833 29.0034 22.4308 28.8522C22.4509 27.7319 22.5474 26.6141 22.7196 25.5066C22.7196 25.5066 22.7215 25.4861 22.7226 25.4738C22.7654 25.3248 23.049 25.2143 23.2727 25.2594C23.6278 25.3763 23.931 25.6127 24.1304 25.9283C24.5512 26.468 24.7478 27.1486 24.6794 27.8294C24.6394 28.1255 24.5193 28.4053 24.3321 28.6387C24.1448 28.8721 23.8975 29.0503 23.6166 29.1542L23.6151 29.1706ZM31.856 20.4158C31.4922 20.8772 31.0099 21.2318 30.4605 21.4418L30.4317 21.4392C28.7597 21.155 27.0851 20.8085 25.4413 20.3987C25.2802 20.3589 25.1097 20.3845 24.9675 20.47C24.8252 20.5555 24.7227 20.6938 24.6825 20.8545C24.6424 21.0153 24.6679 21.1853 24.7534 21.3271C24.839 21.4689 24.9775 21.571 25.1386 21.6109C26.8232 22.0285 28.5384 22.3828 30.247 22.6745C30.2702 22.957 30.205 23.2398 30.0603 23.4839C29.9414 23.664 29.7835 23.8152 29.5983 23.9264C29.4131 24.0375 29.2053 24.1059 28.9902 24.1263L28.9286 24.1207C27.8342 23.9055 26.7373 23.6735 25.6557 23.4099C25.4944 23.3717 25.3245 23.399 25.1832 23.4857C25.042 23.5724 24.941 23.7116 24.9025 23.8724C24.864 24.0333 24.8911 24.2028 24.9779 24.3436C25.0647 24.4844 25.2041 24.585 25.3653 24.6232C26.4234 24.8723 27.5002 25.0983 28.5725 25.328C28.5057 25.5977 28.3558 25.8399 28.144 26.0204C27.8367 26.2951 27.4773 26.5054 27.0871 26.6388C26.6969 26.7723 26.2839 26.8262 25.8726 26.7974C25.7488 26.2103 25.5006 25.6566 25.1446 25.1734C24.7702 24.613 24.2009 24.211 23.5466 24.0446C23.1737 23.9703 22.7869 24.0116 22.4379 24.1628C22.2065 23.776 21.8834 23.4517 21.4969 23.2184C21.1105 22.9852 20.6725 22.8501 20.2213 22.825C19.8067 22.8139 19.3938 22.8851 19.0067 23.0343C18.6196 23.1835 18.2659 23.4079 17.9662 23.6943C17.682 23.2264 17.2405 22.8744 16.7202 22.7009C16.2301 22.5804 15.7155 22.6031 15.2377 22.7663C14.7599 22.9295 14.3391 23.2262 14.0255 23.6212C13.819 23.8689 13.6424 24.1399 13.4993 24.4287C13.4334 24.3488 13.3596 24.2757 13.2792 24.2103C13.0957 24.0419 12.88 23.9123 12.645 23.8291C12.41 23.746 12.1605 23.7111 11.9115 23.7265C11.4818 23.7568 11.0707 23.9135 10.7301 24.1767C10.3894 24.44 10.1345 24.7979 9.99764 25.2054C9.70257 26.0445 9.66621 26.9523 9.89327 27.8116C8.92655 24.3926 7.38648 21.1621 5.3383 18.2571C6.2247 18.0069 7.04996 17.5769 7.76236 16.994C7.82864 16.9632 7.89174 16.9261 7.95074 16.883C8.10149 16.783 8.20996 16.631 8.25532 16.4562C9.09694 15.4328 9.79656 14.3011 10.3353 13.0916C10.7925 11.9555 11.2326 10.9583 11.9728 10.2115C12.2721 9.88786 12.6429 9.63805 13.0556 9.48193C13.4684 9.3258 13.9118 9.26764 14.3508 9.31205L13.5513 10.5658C13.0517 11.2551 12.6975 12.0383 12.5099 12.8678C12.421 13.6486 12.4799 14.4389 12.6838 15.1976C12.8816 16.104 13.0948 17.0242 13.3221 17.9251C13.464 18.4958 13.7341 19.5617 14.6245 20.0558C14.8555 20.1872 15.1124 20.2669 15.3775 20.2896C15.6691 20.3134 15.9626 20.2782 16.2403 20.1862C16.599 20.0638 16.9296 19.8711 17.2126 19.6193C17.4955 19.3676 17.7251 19.0619 17.8879 18.7203C18.2219 17.8542 18.3561 16.9243 18.2803 15.9998C18.2928 15.8646 18.2766 15.7267 18.2772 15.5863C18.2417 15.0805 18.3313 14.5736 18.538 14.11C18.8068 13.6221 19.3387 13.2903 20.0081 12.9049C20.8849 13.1245 21.7926 13.1959 22.6935 13.1159C22.9389 13.1052 23.188 13.0989 23.4326 13.0964C26.0809 13.0809 28.7347 13.9916 31.1823 14.9373C31.8855 15.2161 32.5465 15.5034 32.8936 16.006C33.0239 16.1974 33.107 16.4168 33.1362 16.6463C33.1653 16.8759 33.1397 17.1091 33.0613 17.3271C32.9703 17.5581 32.8217 17.7622 32.6295 17.92C32.5707 17.8934 32.5079 17.8765 32.4436 17.8701C30.2936 17.6739 28.1555 17.365 26.0383 16.9448C25.8778 16.915 25.712 16.9489 25.576 17.0391C25.44 17.1294 25.3446 17.269 25.3101 17.4282C25.2936 17.5076 25.293 17.5895 25.3085 17.6691C25.3239 17.7487 25.355 17.8245 25.4 17.892C25.445 17.9595 25.503 18.0174 25.5706 18.0624C25.6382 18.1073 25.7141 18.1385 25.7939 18.154C27.7179 18.5355 29.6794 18.8254 31.6324 19.0277C31.6719 19.1366 31.7403 19.2328 31.8303 19.306C31.9571 19.4587 32.0287 19.6495 32.0336 19.8478C32.0386 20.0461 31.9766 20.2404 31.8576 20.3994L31.856 20.4158Z" fill="#30C4AE"/>
</g>
</g>
<defs>
<clipPath id="clip0">
<rect width="52" height="53" fill="white"/>
</clipPath>
<clipPath id="clip1">
<rect width="61" height="59" fill="white" transform="translate(-13 -11)"/>
</clipPath>
</defs>
</svg>
