<svg width="52" height="53" viewBox="0 0 52 53" fill="none" xmlns="http://www.w3.org/2000/svg">
<g opacity="0.5" clip-path="url(#clip0)">
<g clip-path="url(#clip1)">
<path d="M53.2995 1.42029C53.2116 1.28269 53.0724 1.18553 52.9127 1.1501C52.7529 1.11466 52.5855 1.14383 52.4471 1.23123C50.0631 2.73348 37.8793 12.1286 37.6822 12.3793L37.6064 12.3476C37.1896 12.0779 36.802 11.7657 36.4499 11.416L37.2159 10.6138C37.2985 10.5274 37.3546 10.4192 37.3773 10.302C37.4663 10.2041 37.521 10.08 37.5332 9.94843C37.5454 9.81686 37.5143 9.68496 37.4447 9.57262C36.4312 7.88065 35.2898 6.26839 34.0303 4.74985L34.003 4.7763C33.6574 4.30274 32.5809 3.31232 29.4103 0.957975C29.1531 0.753437 28.8301 0.649173 28.5013 0.664592C28.2511 0.688238 28.0133 0.784404 27.8171 0.941228C27.5444 0.6755 27.3221 0.36271 27.1611 0.0179571L30.261 -2.82002C30.3705 -2.93288 30.4329 -3.08308 30.4353 -3.24004C30.4378 -3.39701 30.3802 -3.54895 30.2743 -3.66494C30.1684 -3.78093 30.0221 -3.85225 29.8652 -3.86439C29.7083 -3.87653 29.5526 -3.82858 29.4298 -3.73029L26.1929 -0.756C26.0478 -0.63358 25.9431 -0.470219 25.8928 -0.287426C25.8466 -0.0922371 25.8655 0.112579 25.9465 0.295965C26.1584 0.819584 26.4667 1.29891 26.8555 1.70917L25.7567 2.57207C25.6268 2.67487 25.543 2.82472 25.5235 2.98888C25.4847 3.00639 25.448 3.02799 25.4139 3.0533C24.9262 3.42429 24.3755 3.70458 23.7882 3.8807C22.1464 4.47936 20.4639 5.02474 18.7845 5.49189L18.7206 5.51087C18.0191 5.67032 17.3479 5.94136 16.7326 6.3136C16.0448 6.82757 15.4724 7.47931 15.052 8.22691L14.9986 8.22205C13.7286 7.80081 12.1915 8.25197 11.0898 9.37081C10.1776 10.2755 9.67635 11.4406 9.18283 12.6561C8.6501 13.8403 7.94829 14.9415 7.09927 15.9253C6.43635 16.518 5.63411 16.9341 4.76716 17.1348C4.68368 17.1556 4.60542 17.1936 4.53732 17.2461C4.41591 17.1714 4.27182 17.1422 4.13072 17.1637C3.32455 17.2981 2.56813 17.6427 1.9382 18.1627L1.74696 17.9015C1.68417 17.8233 1.60274 17.762 1.5101 17.7233C1.41746 17.6846 1.31654 17.6696 1.21656 17.6797C1.122 17.6197 1.01285 17.5865 0.900762 17.5836C0.788675 17.5806 0.677867 17.6082 0.58018 17.6632C-0.526914 18.3022 -1.64077 18.9695 -2.72176 19.6398C-2.79139 19.682 -2.85195 19.7375 -2.89991 19.8032C-2.94787 19.8689 -2.98229 19.9434 -3.00116 20.0224C-3.02003 20.1014 -3.02298 20.1834 -3.00983 20.2635C-2.99669 20.3436 -2.96772 20.4203 -2.92459 20.4892C-2.87353 20.5698 -2.80452 20.6376 -2.72291 20.6873C-2.64131 20.737 -2.5493 20.7672 -2.45403 20.7757C-2.32059 20.7897 -2.18628 20.7583 -2.07297 20.6864C-1.0843 20.0738 -0.071746 19.4717 0.946751 18.8948C3.93366 22.7313 6.18227 27.0869 7.57899 31.7415C7.5978 31.7952 7.61209 31.8504 7.62171 31.9065C7.59431 31.9385 7.56522 31.9689 7.53457 31.9978C6.66563 32.8152 -4.21175 38.8403 -5.31471 39.2971C-5.44102 39.3509 -5.54584 39.4451 -5.61266 39.5648C-5.67949 39.6845 -5.70453 39.8229 -5.68383 39.9583C-5.66314 40.0937 -5.59789 40.2183 -5.49836 40.3125C-5.39883 40.4067 -5.27067 40.4652 -5.13406 40.4788C-5.03399 40.4892 -4.93287 40.4742 -4.84008 40.4352C-3.59769 39.9205 7.4069 33.8116 8.38413 32.889C8.60834 32.7166 8.76918 32.4751 8.84163 32.2022C8.91407 31.9293 8.89405 31.6402 8.78468 31.38C8.66238 30.9557 8.52397 30.5712 8.38746 30.1662C8.47623 30.174 8.56568 30.1629 8.64982 30.1335C8.73397 30.104 8.81089 30.0571 8.87544 29.9957C9.32486 29.5691 9.90523 29.3059 10.5227 29.2488C10.5658 29.2453 10.6083 29.2367 10.6494 29.2231C10.9117 29.4918 11.2334 29.6956 11.5888 29.8182C11.9442 29.9409 12.3235 29.9792 12.6965 29.9299C13.1079 29.8583 13.4853 29.6564 13.7729 29.3542C14.1929 29.6813 14.681 29.9104 15.2015 30.0249C15.722 30.1395 16.2617 30.1365 16.7811 30.0161C17.0685 29.9497 17.3424 29.8348 17.5912 29.6766C17.8135 29.9899 18.1002 30.2524 18.4322 30.4464C18.7642 30.6405 19.134 30.7617 19.5168 30.802C19.936 30.8355 20.3573 30.7709 20.7473 30.6134C21.1372 30.4558 21.485 30.2098 21.763 29.8947C22.0693 30.1365 22.4288 30.3024 22.8119 30.3789C23.1951 30.4554 23.591 30.4402 23.9674 30.3347C24.4712 30.1655 24.9185 29.8609 25.2601 29.4545C25.6017 29.0481 25.8244 28.5557 25.9036 28.0314C27.0309 28.0775 28.1325 27.6841 28.9751 26.9347C29.4079 26.5575 29.6993 26.0448 29.8013 25.4809C29.9043 25.4467 29.9963 25.3858 30.0679 25.3044C30.1395 25.2231 30.188 25.1242 30.2086 25.0179L30.2117 24.9851C30.5849 24.7658 30.898 24.4578 31.123 24.0887C31.4022 23.6128 31.5255 23.0621 31.4759 22.5133C31.5365 22.437 31.5775 22.3471 31.5954 22.2514L31.5991 22.2105C32.1252 21.9369 32.574 21.5357 32.9041 21.044C33.0855 20.7543 33.1989 20.4276 33.236 20.0883C33.2732 19.749 33.233 19.4057 33.1186 19.0842C33.424 18.8917 33.6871 18.6394 33.8921 18.3426C34.097 18.0458 34.2395 17.7107 34.3109 17.3575C34.3823 17.0043 34.3811 16.6405 34.3074 16.2879C34.2337 15.9354 34.0891 15.6015 33.8822 15.3065C34.0953 14.5413 34.4182 13.8107 34.8409 13.1375L34.9449 12.9982C35.064 12.9272 35.1547 12.8171 35.2015 12.6868C35.3171 12.5568 35.4364 12.4313 35.5557 12.3058C35.9984 12.7379 36.4902 13.1168 37.0212 13.4349C37.1961 13.5288 37.3874 13.5883 37.5849 13.6101C37.712 13.6219 37.8403 13.6127 37.9644 13.5826C38.2304 13.5174 38.4673 13.366 38.638 13.1521C38.7034 13.0713 50.756 3.751 53.1086 2.27482C53.247 2.1862 53.3447 2.04664 53.3805 1.88658C53.4163 1.72651 53.3872 1.5589 53.2995 1.42029ZM28.4857 1.99787L28.6106 1.90178L28.6848 1.94986C32.2188 4.58516 33.0489 5.50773 33.0828 5.54387C34.2276 6.92075 35.2709 8.37865 36.2043 9.90613L34.8333 11.2939L34.7282 11.4C33.8304 9.78332 32.7578 8.26968 31.5296 6.88612C30.2307 5.4383 28.7722 4.14133 27.1816 3.0198L28.4857 1.99787ZM17.4199 7.34715C17.9276 7.04636 18.479 6.82605 19.0544 6.6941L19.1223 6.67549C20.8242 6.18972 22.5321 5.63838 24.2124 5.02669C24.9465 4.80538 25.6319 4.44702 26.2321 3.97065C26.2594 3.94421 26.2792 3.90882 26.3024 3.88201C27.8878 4.97655 29.338 6.25404 30.6228 7.68797C31.8919 9.11814 32.9865 10.6935 33.8836 12.3811L33.8417 12.431C33.4382 13.045 33.1215 13.7114 32.9005 14.4115C32.492 14.1753 32.0645 13.9734 31.6225 13.8077C29.0496 12.7846 26.2696 11.85 23.4304 11.8688C23.1735 11.8702 22.9157 11.8798 22.658 11.8894C21.7273 11.9205 20.8462 11.952 20.0889 11.6311C19.9514 11.5734 19.7975 11.5677 19.656 11.6149C19.5144 11.6621 19.3948 11.759 19.3196 11.8876C18.5603 12.2525 17.9161 12.8187 17.4574 13.5241C17.1445 14.1676 17.0016 14.88 17.0423 15.5937C17.0294 15.7331 17.0453 15.875 17.0455 16.0072C17.1145 16.747 17.0201 17.493 16.7688 18.1928C16.6791 18.3806 16.5532 18.5489 16.3981 18.688C16.2431 18.827 16.062 18.9342 15.8654 19.0032C15.7638 19.0425 15.6551 19.0599 15.5464 19.0543C15.4377 19.0487 15.3314 19.0202 15.2346 18.9707C14.8405 18.753 14.6635 18.1584 14.5313 17.6175C14.3073 16.7252 14.0968 15.8218 13.9019 14.9281C13.7307 14.3233 13.6753 13.6916 13.7386 13.0661C13.9031 12.411 14.1923 11.7934 14.5904 11.2469L15.9849 9.06791C16.341 8.40307 16.8293 7.81754 17.4199 7.34715ZM8.01204 29.1197C6.71348 25.5578 4.92045 22.1956 2.68532 19.1314C3.0624 18.8003 3.5096 18.5584 3.99344 18.4239C6.21456 21.463 7.84478 24.8909 8.79975 28.5302C8.51366 28.6933 8.24905 28.8913 8.01204 29.1197ZM9.96221 28.0987C9.96714 28.0454 9.9351 27.9888 9.91949 27.9336C9.9351 27.9888 9.9552 28.0402 9.97491 28.0957L9.96221 28.0987ZM12.4834 28.7411C12.2937 28.7552 12.1033 28.7243 11.9279 28.6509C11.7526 28.5775 11.5972 28.4637 11.4745 28.3188C11.0359 27.8657 10.7874 26.5663 11.1446 25.6607C11.4039 25.0066 11.8637 24.9617 11.9933 24.9487C12.0791 24.9458 12.1644 24.9606 12.2442 24.992C12.3239 25.0234 12.3963 25.0708 12.4569 25.1313C12.7282 25.3837 12.8931 25.7295 12.9184 26.0989C12.9237 26.195 12.9552 26.2879 13.0095 26.3675C12.9028 26.9325 12.9082 27.5128 13.0255 28.0755C13.0203 28.1095 13.0171 28.1437 13.016 28.178C13.0014 28.3151 12.9411 28.4435 12.8449 28.5426C12.7486 28.6417 12.6219 28.7058 12.4849 28.7247L12.4834 28.7411ZM16.5056 28.8299C15.6889 29.016 14.6439 28.7598 14.2636 28.0352C14.2686 28.0026 14.2716 27.9698 14.2727 27.9368C14.1566 27.4605 14.1543 26.9635 14.2661 26.4858C14.297 26.3435 14.2755 26.1948 14.2054 26.0671C14.3573 25.4775 14.621 24.9221 14.9822 24.4311C15.1394 24.2235 15.3511 24.0631 15.5938 23.9678C15.8366 23.8724 16.1009 23.8458 16.3577 23.8909C16.5867 23.9981 16.7846 24.1614 16.9331 24.3657C17.0815 24.57 17.1756 24.8085 17.2065 25.059C17.2249 25.1434 17.2614 25.2228 17.3134 25.2918C17.1949 26.2958 17.1525 27.3073 17.1867 28.3175C17.1709 28.3565 17.1588 28.3969 17.1507 28.4382C17.1203 28.5428 16.8755 28.7272 16.5071 28.8135L16.5056 28.8299ZM19.6361 29.6021C19.3478 29.565 19.077 29.444 18.8574 29.2543C18.6378 29.0646 18.479 28.8145 18.401 28.5353C18.411 28.4937 18.415 28.451 18.4127 28.4083C18.3678 27.2758 18.4201 26.1414 18.569 25.0176C18.5846 24.9616 18.5899 24.9033 18.5849 24.8454C18.7688 24.5945 19.0095 24.3903 19.2874 24.2497C19.5654 24.1091 19.8726 24.036 20.1841 24.0363C20.5092 24.0551 20.8187 24.1807 21.0643 24.3937C21.3099 24.6067 21.4778 24.895 21.5416 25.2134C21.5387 25.2241 21.5377 25.2352 21.5385 25.2462C21.3774 26.2939 21.2797 27.3503 21.2459 28.4096C21.1977 28.468 21.1607 28.5347 21.1366 28.6063C21.0298 28.9115 20.8249 29.173 20.5538 29.3501C20.2827 29.5273 19.9606 29.6101 19.6376 29.5857L19.6361 29.6021ZM23.6153 29.1705C23.4071 29.2247 23.1883 29.2239 22.9807 29.168C22.773 29.1122 22.5836 29.0033 22.4311 28.8521C22.4512 27.7317 22.5477 26.614 22.7198 25.5065C22.7198 25.5065 22.7217 25.486 22.7229 25.4737C22.7656 25.3247 23.0493 25.2141 23.2729 25.2593C23.628 25.3762 23.9312 25.6126 24.1306 25.9281C24.5514 26.4678 24.748 27.1485 24.6797 27.8293C24.6396 28.1254 24.5195 28.4051 24.3323 28.6385C24.1451 28.8719 23.8977 29.0502 23.6168 29.1541L23.6153 29.1705ZM31.8563 20.4157C31.4925 20.8771 31.0102 21.2316 30.4607 21.4417L30.432 21.4391C28.7599 21.1548 27.0854 20.8084 25.4415 20.3986C25.2804 20.3588 25.11 20.3844 24.9677 20.4699C24.8254 20.5554 24.7229 20.6937 24.6828 20.8544C24.6426 21.0152 24.6681 21.1851 24.7537 21.327C24.8392 21.4688 24.9778 21.5709 25.1389 21.6108C26.8234 22.0284 28.5387 22.3826 30.2473 22.6743C30.2705 22.9568 30.2052 23.2396 30.0606 23.4838C29.9417 23.6639 29.7838 23.8151 29.5986 23.9262C29.4134 24.0374 29.2055 24.1057 28.9904 24.1262L28.9288 24.1206C27.8345 23.9054 26.7375 23.6734 25.6559 23.4098C25.4947 23.3716 25.3247 23.3988 25.1835 23.4856C25.0422 23.5723 24.9413 23.7114 24.9028 23.8723C24.8643 24.0332 24.8914 24.2027 24.9782 24.3435C25.065 24.4843 25.2043 24.5848 25.3656 24.6231C26.4237 24.8722 27.5005 25.0981 28.5728 25.3279C28.5059 25.5976 28.356 25.8397 28.1442 26.0203C27.8369 26.2949 27.4775 26.5052 27.0873 26.6387C26.6971 26.7722 26.2841 26.8261 25.8728 26.7973C25.749 26.2102 25.5008 25.6565 25.1449 25.1732C24.7704 24.6129 24.2012 24.2108 23.5468 24.0445C23.174 23.9702 22.7871 24.0115 22.4382 24.1627C22.2067 23.7758 21.8836 23.4516 21.4972 23.2183C21.1107 22.9851 20.6728 22.85 20.2216 22.8248C19.8069 22.8138 19.394 22.8849 19.0069 23.0342C18.6198 23.1834 18.2662 23.4077 17.9665 23.6942C17.6823 23.2262 17.2407 22.8742 16.7204 22.7008C16.2304 22.5803 15.7158 22.603 15.238 22.7662C14.7602 22.9294 14.3394 23.2261 14.0257 23.6211C13.8193 23.8688 13.6426 24.1398 13.4995 24.4286C13.4336 24.3487 13.3599 24.2755 13.2795 24.2102C13.096 24.0418 12.8803 23.9122 12.6452 23.829C12.4102 23.7459 12.1607 23.711 11.9117 23.7264C11.4821 23.7567 11.071 23.9134 10.7303 24.1766C10.3897 24.4398 10.1348 24.7978 9.99789 25.2053C9.70281 26.0444 9.66645 26.9521 9.89351 27.8114C8.9268 24.3925 7.38673 21.162 5.33854 18.2569C6.22495 18.0068 7.05021 17.5768 7.7626 16.9939C7.82888 16.9631 7.89198 16.926 7.95098 16.8829C8.10173 16.7828 8.2102 16.6308 8.25557 16.456C9.09718 15.4326 9.7968 14.3009 10.3355 13.0915C10.7927 11.9553 11.2329 10.9582 11.973 10.2114C12.2724 9.88773 12.6431 9.63793 13.0559 9.48181C13.4686 9.32568 13.912 9.26752 14.351 9.31193L13.5516 10.5657C13.052 11.255 12.6977 12.0381 12.5102 12.8677C12.4212 13.6485 12.4802 14.4388 12.6841 15.1975C12.8819 16.1039 13.095 17.0241 13.3223 17.9249C13.4642 18.4957 13.7343 19.5615 14.6247 20.0557C14.8558 20.187 15.1127 20.2668 15.3777 20.2895C15.6693 20.3133 15.9628 20.2781 16.2406 20.1861C16.5993 20.0637 16.9299 19.871 17.2128 19.6192C17.4958 19.3674 17.7254 19.0617 17.8881 18.7202C18.2222 17.8541 18.3563 16.9242 18.2806 15.9997C18.2931 15.8645 18.2768 15.7266 18.2774 15.5862C18.2419 15.0804 18.3315 14.5734 18.5382 14.1099C18.807 13.622 19.3389 13.2902 20.0084 12.9047C20.8852 13.1244 21.7929 13.1958 22.6937 13.1158C22.9391 13.1051 23.1882 13.0988 23.4328 13.0962C26.0812 13.0808 28.7349 13.9915 31.1825 14.9371C31.8858 15.2159 32.5468 15.5033 32.8938 16.0059C33.0241 16.1972 33.1073 16.4166 33.1364 16.6462C33.1656 16.8758 33.1399 17.109 33.0616 17.3269C32.9706 17.558 32.822 17.7621 32.6298 17.9199C32.571 17.8933 32.5082 17.8764 32.4439 17.87C30.2938 17.6738 28.1558 17.3649 26.0386 16.9447C25.8781 16.9149 25.7122 16.9487 25.5763 17.039C25.4403 17.1293 25.3449 17.2688 25.3104 17.428C25.2938 17.5075 25.2933 17.5894 25.3087 17.669C25.3241 17.7486 25.3552 17.8244 25.4002 17.8919C25.4452 17.9594 25.5032 18.0173 25.5708 18.0623C25.6385 18.1072 25.7144 18.1383 25.7942 18.1538C27.7182 18.5354 29.6796 18.8252 31.6326 19.0276C31.6722 19.1365 31.7406 19.2327 31.8305 19.3059C31.9573 19.4586 32.0289 19.6494 32.0339 19.8477C32.0388 20.046 31.9768 20.2402 31.8578 20.3993L31.8563 20.4157Z" fill="#067362"/>
</g>
</g>
<defs>
<clipPath id="clip0">
<rect width="52" height="53" fill="white"/>
</clipPath>
<clipPath id="clip1">
<rect width="61" height="59" fill="white" transform="translate(-13 -11)"/>
</clipPath>
</defs>
</svg>
