<svg width="44" height="36" viewBox="0 0 44 36" fill="none" xmlns="http://www.w3.org/2000/svg">
<g opacity="0.5" clip-path="url(#clip0)">
<path d="M23.667 13.6537V13.5775C23.667 13.3055 23.4518 13.0879 23.1829 13.0879C22.9139 13.0879 22.6988 13.3055 22.6988 13.5775V13.6319C21.9672 13.6754 21.2249 13.8278 20.8484 14.1868C20.644 14.3935 20.6009 14.6111 20.6009 14.7526C20.6009 15.4816 21.3325 15.6883 22.0317 15.895C22.1931 15.9385 22.419 15.9929 22.6772 16.0582C23.1721 16.1779 24.2156 16.439 24.6782 16.6566C24.5061 16.7219 24.1403 16.809 23.3658 16.809C22.1071 16.8307 21.4293 16.5478 21.354 16.4282C21.354 16.1562 21.1496 15.9385 20.8699 15.9277C20.6224 15.9168 20.3858 16.1344 20.375 16.4064C20.375 16.6675 20.4718 16.9069 20.6655 17.1136C21.1066 17.5597 21.978 17.7229 22.6988 17.7664V17.8426C22.6988 18.1146 22.9139 18.3322 23.1829 18.3322C23.4518 18.3322 23.667 18.1146 23.667 17.8426V17.7882C24.4416 17.7664 25.7648 17.625 25.7648 16.5805C25.7648 15.8841 24.8504 15.5795 22.8924 15.1008C22.645 15.0355 22.4406 14.992 22.2792 14.9376C22.0425 14.8723 21.8704 14.8179 21.7413 14.7743C22.0425 14.6764 22.5912 14.5676 23.3227 14.6003C24.4738 14.6438 24.7643 14.8831 24.7858 14.8396V15.1008C24.7858 15.3728 25.001 15.5904 25.2699 15.5904C25.5389 15.5904 25.7541 15.3728 25.7541 15.1008V14.8287C25.7648 14.1542 25.0548 13.7625 23.667 13.6537Z" fill="#30C4AE"/>
<path d="M13.1241 17.9841C8.83164 17.9841 5.4751 19.6923 5.4751 21.8793C5.4751 21.9228 5.4751 30.5618 5.4751 30.5618C5.4751 32.7379 8.83164 34.457 13.1241 34.457C17.4166 34.457 20.7732 32.7488 20.7732 30.5618C20.7732 30.5618 20.7732 21.9228 20.7732 21.8793C20.7732 19.6923 17.4059 17.9841 13.1241 17.9841ZM19.7942 30.5618C19.7942 31.9328 17.0509 33.4669 13.1241 33.4669C9.19742 33.4669 6.44333 31.9328 6.44333 30.5618V29.5826C7.74507 30.7686 10.2194 31.5519 13.1241 31.5519C16.0288 31.5519 18.5032 30.7686 19.7942 29.5826V30.5618ZM19.7942 27.6677C19.7942 29.0386 17.0509 30.5727 13.1241 30.5727C9.19742 30.5727 6.44333 29.0386 6.44333 27.6677V26.6884C7.74507 27.8744 10.2194 28.6578 13.1241 28.6578C16.0288 28.6578 18.5032 27.8744 19.7942 26.6884V27.6677ZM19.7942 24.7626C19.7942 26.1335 17.0509 27.6677 13.1241 27.6677C9.19742 27.6677 6.44333 26.1335 6.44333 24.7626V23.7942C7.74507 24.9802 10.2194 25.7636 13.1241 25.7636C16.0288 25.7636 18.5032 24.9802 19.7942 23.7942V24.7626ZM13.1241 24.7844C9.18666 24.7844 6.44333 23.2502 6.44333 21.8793C6.44333 20.5084 9.18666 18.9742 13.1241 18.9742C17.0616 18.9742 19.7942 20.5084 19.7942 21.8793C19.7942 23.2502 17.0509 24.7844 13.1241 24.7844Z" fill="#30C4AE"/>
<path d="M23.3336 11.7822C19.0411 11.7822 15.6846 13.4904 15.6846 15.6774C15.6846 15.6883 15.6846 16.2867 15.6846 17.2115C17.7394 17.5488 19.4284 18.2996 20.4935 19.3006C21.3649 19.4746 22.3223 19.5726 23.3336 19.5726C26.2383 19.5726 28.7127 18.7892 30.0036 17.6032V18.5716C30.0036 19.9425 27.2603 21.4766 23.3336 21.4766C22.7634 21.4766 22.2148 21.444 21.6984 21.3787C21.7199 21.5419 21.7414 21.716 21.7414 21.8792V22.3688C22.2578 22.4232 22.7849 22.4559 23.3336 22.4559C26.2383 22.4559 28.7127 21.6725 30.0036 20.4865V21.4549C30.0036 22.8258 27.2603 24.3599 23.3336 24.3599C22.7742 24.3599 22.247 24.3273 21.7414 24.2729V25.263C22.2578 25.3174 22.7849 25.35 23.3336 25.35C26.2383 25.35 28.7127 24.5667 30.0036 23.3807V24.349C30.0036 25.72 27.2603 27.2541 23.3336 27.2541C22.7742 27.2541 22.247 27.2215 21.7414 27.1671V28.1463C22.2578 28.2007 22.7849 28.2333 23.3336 28.2333C26.2383 28.2333 28.7127 27.45 30.0036 26.264V27.2323C30.0036 28.6033 27.2603 30.1374 23.3336 30.1374C22.7742 30.1374 22.247 30.1048 21.7414 30.0504V30.54C21.7414 30.7032 21.7306 30.8773 21.6984 31.0405C22.2255 31.0949 22.7742 31.1275 23.3336 31.1275C27.6261 31.1275 30.9826 29.4193 30.9826 27.2323C30.9826 27.2323 30.9826 15.6992 30.9826 15.6556C30.9826 13.4904 27.6261 11.7822 23.3336 11.7822ZM23.3336 18.5825C19.3961 18.5825 16.6528 17.0483 16.6528 15.6774C16.6528 14.3065 19.3961 12.7723 23.3336 12.7723C27.2711 12.7723 30.0036 14.3065 30.0036 15.6774C30.0036 17.0483 27.2711 18.5825 23.3336 18.5825Z" fill="#30C4AE"/>
<path d="M13.4473 19.8554V19.7902C13.4473 19.5181 13.2321 19.3005 12.9631 19.3005C12.6942 19.3005 12.479 19.5181 12.479 19.7902V19.8446C11.7475 19.8881 10.9944 20.0404 10.6286 20.3994C10.4242 20.6062 10.3812 20.8129 10.3812 20.9652C10.3812 21.6942 11.1127 21.9009 11.812 22.1077C11.9734 22.1512 12.1993 22.2056 12.4575 22.2709C12.9524 22.3905 13.9959 22.6517 14.4585 22.8693C14.2864 22.9346 13.9206 23.0325 13.146 23.0325H13.1353C11.812 23.0325 11.2096 22.7496 11.1343 22.6517C11.1343 22.3797 10.9191 22.1512 10.6501 22.1512C10.3489 22.1512 10.166 22.3688 10.1553 22.6408C10.1553 22.9019 10.2521 23.1413 10.4457 23.348C10.8868 23.7941 11.7475 23.9573 12.479 24.0117V24.0879C12.479 24.3599 12.6942 24.5775 12.9631 24.5775C13.2321 24.5775 13.4473 24.3599 13.4473 24.0879V24.0335C14.2219 24.0117 15.5451 23.8703 15.5451 22.8258C15.5451 22.1294 14.6307 21.8248 12.6727 21.3352C12.436 21.2699 12.2208 21.2264 12.0702 21.1828C11.8335 21.1175 11.6614 21.0631 11.5323 21.0196C11.8335 20.9217 12.3822 20.8238 13.1138 20.8455C14.2649 20.8891 14.5446 21.1176 14.5769 21.0849V21.346C14.5769 21.618 14.792 21.8357 15.061 21.8357C15.3299 21.8357 15.5451 21.618 15.5451 21.346V21.074C15.5451 20.3668 14.8351 19.9642 13.4473 19.8554Z" fill="#30C4AE"/>
<path d="M5.87369 10.8031C6.06733 10.8031 6.33629 10.8031 6.63751 10.7922C7.36907 10.7813 8.99354 10.7595 9.57448 10.9119C9.41311 10.9772 9.15492 11.0533 8.74611 11.1404C7.13239 11.4668 5.85217 11.3797 5.58322 11.1186C5.41109 10.9445 5.13138 10.9445 4.95925 11.1186C4.78712 11.2927 4.78712 11.5756 4.95925 11.7497C5.33578 12.1305 6.06733 12.2393 6.79889 12.2393C7.43362 12.2393 8.06835 12.1522 8.52019 12.087L8.93975 12.4025C9.01506 12.4569 9.11188 12.4895 9.19795 12.4895C9.32705 12.4895 9.4669 12.4242 9.55297 12.3046C9.64979 12.1631 9.66055 11.989 9.58524 11.8476C10.263 11.6409 10.575 11.4015 10.6395 11.0533C10.6826 10.8466 10.6395 10.5311 10.2092 10.2482C9.75737 9.93264 8.63853 9.88912 6.60524 9.92176C6.31477 9.92176 6.05658 9.93264 5.86293 9.92176C5.61549 9.92176 5.21744 9.91088 4.94849 9.87824C5.18517 9.76943 5.55094 9.63887 6.03506 9.54095C7.32603 9.27982 7.76712 9.54095 7.8747 9.61711L8.0038 9.71503C8.19744 9.86736 8.47716 9.82384 8.61701 9.62799C8.76762 9.43214 8.72459 9.14925 8.53095 9.00781L8.41261 8.92077C7.92849 8.52907 7.0786 8.44203 5.94899 8.64876L5.72307 8.40939C5.5617 8.2353 5.28199 8.22442 5.0991 8.38763C4.95925 8.51819 4.92697 8.71404 5.00228 8.88813C4.5074 9.06221 4.00177 9.32334 3.85116 9.71503C3.77585 9.93264 3.80813 10.1611 3.9695 10.3461C4.35679 10.7704 4.93773 10.7922 5.87369 10.8031Z" fill="#30C4AE"/>
<path d="M-1.21517 21.5092C-1.02152 21.7051 -0.731052 21.7812 -0.45134 21.7812C-0.268452 21.7812 -0.0855637 21.7486 0.0650506 21.6942L5.19669 19.8881C6.01431 18.713 7.46665 18.0493 7.46665 18.0493L-0.257694 20.7585C-0.39755 20.802 -0.537405 20.7911 -0.537405 20.802L-5.75511 15.6991L-4.98052 15.4924L-1.21517 19.17C-1.02152 19.3658 -0.731052 19.442 -0.45134 19.442C-0.268452 19.442 -0.0855637 19.4093 0.0650506 19.3549L15.1802 14.0453C15.5353 13.4469 16.0839 12.9029 16.794 12.435L-0.257694 18.4192C-0.39755 18.4627 -0.537405 18.4519 -0.537405 18.4627L-5.75511 13.3598L-4.98052 13.1531L-1.21517 16.8307C-1.03228 17.0048 -0.763327 17.1027 -0.45134 17.1027C-0.27921 17.1027 -0.0963216 17.07 0.0650506 17.0156L10.0594 13.5013L18.4507 10.5527L19.3006 11.3252C19.6664 11.2164 20.0537 11.1294 20.4625 11.0532L19.505 10.1828L20.0537 9.98693C20.4302 9.85637 20.6669 9.62788 20.7207 9.35587C20.7637 9.13826 20.6884 8.93154 20.527 8.77921L15.9226 4.60115C15.7181 4.41619 15.4277 4.38354 15.2125 4.38354C15.0404 4.38354 14.8683 4.40531 14.7069 4.44883L-6.28225 10.1501C-6.64803 10.2589 -6.89547 10.4765 -6.97078 10.7486C-7.02457 10.977 -6.96002 11.2164 -6.78789 11.3905L-5.79814 12.3589L-6.29301 12.4894C-6.65879 12.5873 -6.90623 12.8049 -6.98153 13.0878C-7.03532 13.3163 -6.97078 13.5557 -6.79865 13.7189L-5.8089 14.6872L-6.28225 14.8287C-6.64803 14.9266 -6.89547 15.1442 -6.97078 15.4271C-7.03532 15.6556 -6.96002 15.895 -6.78789 16.0691L-5.79814 17.0374L-6.29301 17.168C-6.65879 17.2659 -6.90623 17.4835 -6.98153 17.7664C-7.03532 17.9949 -6.97078 18.2342 -6.79865 18.3975L-5.79814 19.3767L-6.28225 19.5072C-6.64803 19.6052 -6.89547 19.8228 -6.97078 20.1057C-7.03532 20.3342 -6.96002 20.5735 -6.78789 20.7476L-1.21517 26.1987C-1.02152 26.3945 -0.731052 26.4707 -0.45134 26.4707C-0.268452 26.4707 -0.0855637 26.438 0.0650506 26.3836L4.49741 24.8277V23.7832L-0.257694 25.4479C-0.39755 25.5023 -0.537405 25.4806 -0.537405 25.4914L-5.75511 20.3777L-4.98052 20.1709L-1.22593 23.8485C-1.03228 24.0444 -0.74181 24.1205 -0.462098 24.1205C-0.27921 24.1205 -0.0963216 24.0879 0.0542927 24.0335L4.48665 22.4776V21.8792C4.48665 21.7268 4.50816 21.5636 4.52968 21.4113L-0.257694 23.0978C-0.39755 23.1413 -0.537405 23.1304 -0.537405 23.1413L-5.75511 18.0384L-4.98052 17.8317L-1.21517 21.5092ZM-0.257694 16.0908C-0.322243 16.1126 -0.386791 16.1235 -0.45134 16.1235C-0.515889 16.1235 -0.558921 16.1126 -0.548163 16.1235L-0.956973 15.7318C-0.924699 15.7209 -0.892424 15.71 -0.86015 15.6991C-0.246935 15.4924 0.495377 15.5142 0.893428 15.6882L-0.257694 16.0908ZM19.3114 9.0077L19.4835 9.16002L18.0419 9.6714C17.9881 9.64964 17.9451 9.63876 17.9236 9.63876C17.9128 9.63876 17.9128 9.63876 17.9021 9.64964C17.9236 9.5626 18.171 9.33411 18.7197 9.14914C18.9133 9.08386 19.107 9.04034 19.3114 9.0077ZM14.9543 5.4063C15.0296 5.38454 15.1265 5.37366 15.2018 5.37366C15.2556 5.37366 15.2878 5.37366 15.2878 5.36278L15.4384 5.49334C15.4277 5.49334 15.4169 5.50422 15.3954 5.50422C14.9651 5.62391 14.4487 5.66743 14.0614 5.64567L14.9543 5.4063ZM12.7166 6.00472C12.7489 6.03736 12.7704 6.08088 12.8027 6.11352C13.2115 6.48345 13.9215 6.53786 14.3196 6.53786C14.7607 6.53786 15.2125 6.47257 15.6321 6.35289C15.8257 6.29849 15.9979 6.23321 16.17 6.15704L18.5153 8.28959C18.4938 8.30048 18.4615 8.30048 18.44 8.30048C17.6546 8.5616 17.1382 8.98594 17.0414 9.46467C16.9984 9.64964 17.0306 9.82373 17.1167 9.98693L13.8032 11.1511C14.1044 10.7703 14.3088 10.3786 14.3949 9.98693C14.5348 9.29059 14.2981 8.61601 13.7387 8.09375C12.9748 7.38652 11.6085 6.92955 9.87648 6.77722L12.7166 6.00472ZM0.710539 10.7594C0.957976 9.79108 2.43184 8.80097 4.46513 8.24607C5.78838 7.88702 7.21922 7.69117 8.59626 7.69117C10.6511 7.69117 12.3293 8.10463 13.0824 8.81185C13.4051 9.10562 13.5235 9.42115 13.4482 9.7802C13.2976 10.5201 12.2325 11.6951 9.73662 12.5765C8.43489 13.0334 6.9933 13.2728 5.58398 13.2728C3.63675 13.2728 1.98 12.7941 1.15162 11.9998C0.753572 11.6081 0.602958 11.1947 0.710539 10.7594ZM-3.2377 10.346L0.430828 9.34499C0.0973253 9.71492 -0.139354 10.1066 -0.236177 10.5201C-0.429824 11.3035 -0.171628 12.076 0.484618 12.7179C1.40982 13.6101 3.0343 14.1432 4.99228 14.2412L1.88318 15.3292C1.8509 15.2748 1.82939 15.2204 1.7756 15.1769C1.22693 14.6437 -0.0855632 14.5023 -1.13986 14.8505C-1.32275 14.9157 -1.48412 14.981 -1.63474 15.0681L-4.59323 12.163C-4.57171 12.1521 -4.53944 12.1521 -4.51792 12.1412C-3.75409 11.9236 -3.24846 11.5211 -3.13012 11.0314C-3.06557 10.803 -3.1086 10.5636 -3.2377 10.346ZM-4.25972 10.618C-4.13063 10.6833 -4.04456 10.7377 -3.98001 10.8138C-3.98001 10.8791 -4.18442 11.1294 -4.7546 11.2926C-4.94824 11.347 -5.16341 11.3796 -5.37857 11.3905L-5.74435 11.0314L-4.25972 10.618Z" fill="#30C4AE"/>
</g>
<defs>
<clipPath id="clip0">
<rect width="43.8627" height="34.7222" fill="white" transform="translate(0.120117 0.722168)"/>
</clipPath>
</defs>
</svg>
