<svg width="52" height="53" viewBox="0 0 52 53" fill="none" xmlns="http://www.w3.org/2000/svg">
<g opacity="0.5" clip-path="url(#clip0)">
<path d="M35.8237 9.14475H23.3663V7.99636H23.6589C24.1397 7.99636 24.5159 7.62052 24.5159 7.14029V4.90615C24.5159 3.15225 23.0946 1.73242 21.3388 1.73242H10.0101C8.25433 1.73242 6.83301 3.15225 6.83301 4.90615V7.14029C6.83301 7.62052 7.20925 7.99636 7.68999 7.99636H7.98261V9.14475H-4.47483C-6.4187 9.14475 -7.98633 10.7107 -7.98633 12.6526V19.9396C-7.98633 21.3385 -7.58919 22.6957 -6.83673 23.8859V37.5204C-6.83673 39.4622 -5.2691 41.0282 -3.32524 41.0282H34.695C36.6389 41.0282 38.2065 39.4622 38.2065 37.5204V23.8859C38.959 22.6957 39.3561 21.3385 39.3561 19.9396V12.6526C39.3352 10.7107 37.7676 9.14475 35.8237 9.14475ZM29.0725 27.6442C29.0725 28.4377 28.4245 29.0641 27.6512 29.0641C26.8778 29.0641 26.2298 28.4168 26.2298 27.6442V24.5123H29.0725V27.6442ZM3.40513 27.6442V24.5123H6.26867V27.6442C6.26867 28.4377 5.62071 29.0641 4.84735 29.0641C4.07398 29.0641 3.40513 28.4377 3.40513 27.6442ZM17.0958 31.3608V32.2169C17.0958 32.6972 16.7195 33.073 16.2388 33.073C15.7581 33.073 15.3818 32.6972 15.3818 32.2169V31.3608H17.0958ZM13.1035 29.6487V27.3728H19.3741V29.6487H13.1035ZM-5.14369 25.7859C-3.84778 26.8091 -2.23835 27.3728 -0.566206 27.3728H1.69118V27.6651C1.69118 29.3981 3.0916 30.7971 4.82645 30.7971C6.56129 30.7971 7.96171 29.3981 7.96171 27.6651V27.3728H11.3896V30.5048C11.3896 30.985 11.7658 31.3608 12.2466 31.3608H13.6679V32.2169C13.6679 33.6367 14.8175 34.7851 16.2388 34.7851C17.6601 34.7851 18.8097 33.6367 18.8097 32.2169V31.3608H20.231C20.7118 31.3608 21.088 30.985 21.088 30.5048V27.3728H24.5159V27.6651C24.5159 29.3981 25.9163 30.7971 27.6512 30.7971C29.386 30.7971 30.7864 29.3981 30.7864 27.6651V27.3728H31.9151C33.5873 27.3728 35.1967 26.8091 36.4926 25.7859V35.9126H-5.14369V25.7859ZM31.9151 25.6607H30.7864V24.5123H31.079C31.5598 24.5123 31.936 24.1364 31.936 23.6562C31.936 23.176 31.5598 22.8001 31.079 22.8001H24.2442C23.7634 22.8001 23.3872 23.176 23.3872 23.6562C23.3872 24.1364 23.7634 24.5123 24.2442 24.5123H24.5368V25.6607H8.00351V24.5123H8.29613C8.77687 24.5123 9.15311 24.1364 9.15311 23.6562C9.15311 23.176 8.77687 22.8001 8.29613 22.8001H1.46126C0.980523 22.8001 0.60429 23.176 0.60429 23.6562C0.60429 24.1364 0.980523 24.5123 1.46126 24.5123H1.75389V25.6607H-0.5035C-3.65967 25.6607 -6.23058 23.0924 -6.23058 19.9396V17.6846H37.6213V19.9396C37.6213 23.0924 35.0713 25.6607 31.9151 25.6607ZM34.6741 39.3369H-3.32524C-4.28672 39.3369 -5.08099 38.5853 -5.12279 37.6248H36.4926C36.4299 38.5644 35.6356 39.3369 34.6741 39.3369ZM37.6213 15.4087V15.9724H-6.27239V15.4087H37.6213ZM11.9748 6.28422V3.44456H19.395V6.28422H11.9748ZM21.088 6.28422V3.44456H21.3388C22.154 3.44456 22.802 4.09184 22.802 4.90615V6.28422H21.088ZM9.67565 9.14475V7.99636H21.6524V9.14475H9.67565ZM10.2609 3.44456V6.28422H8.54696V4.90615C8.54696 4.09184 9.19491 3.44456 10.0101 3.44456H10.2609ZM37.6213 12.6526V13.6965H-6.27239V12.6526C-6.27239 11.6503 -5.45722 10.8569 -4.47483 10.8569H35.8237C36.827 10.836 37.6213 11.6503 37.6213 12.6526Z" fill="#30C4AE"/>
</g>
<defs>
<clipPath id="clip0">
<rect width="52" height="53" fill="white"/>
</clipPath>
</defs>
</svg>
