<svg width="40" height="40" viewBox="0 0 40 40" fill="none" xmlns="http://www.w3.org/2000/svg">
<g opacity="0.5" clip-path="url(#clip0)">
<path d="M31.9424 5.36307H29.4946V3.77101C29.4946 3.33319 29.1364 2.97498 28.6986 2.97498C28.2608 2.97498 27.9026 3.33319 27.9026 3.77101V5.36307H23.9224V3.77101C23.9224 3.33319 23.5642 2.97498 23.1264 2.97498C22.6886 2.97498 22.3303 3.33319 22.3303 3.77101V5.36307H18.3502V3.77101C18.3502 3.33319 17.992 2.97498 17.5541 2.97498C17.1163 2.97498 16.7581 3.33319 16.7581 3.77101V5.36307H12.7779V3.77101C12.7779 3.33319 12.4197 2.97498 11.9819 2.97498C11.5441 2.97498 11.1859 3.33319 11.1859 3.77101V5.36307H7.2057V3.77101C7.2057 3.33319 6.84748 2.97498 6.40966 2.97498C5.97185 2.97498 5.61363 3.33319 5.61363 3.77101V5.36307H3.14593C0.996637 5.36307 -0.754639 7.11435 -0.754639 9.26364V30.8162C-0.754639 32.9655 0.996637 34.7168 3.14593 34.7168H31.9424C34.0917 34.7168 35.843 32.9655 35.843 30.8162V9.26364C35.843 7.11435 34.1116 5.36307 31.9424 5.36307ZM28.6986 8.5472C29.1364 8.5472 29.4946 8.90542 29.4946 9.34324C29.4946 9.78106 29.1364 10.1393 28.6986 10.1393C28.2608 10.1393 27.9026 9.78106 27.9026 9.34324C27.9026 8.90542 28.2608 8.5472 28.6986 8.5472ZM23.1264 8.5472C23.5642 8.5472 23.9224 8.90542 23.9224 9.34324C23.9224 9.78106 23.5642 10.1393 23.1264 10.1393C22.6886 10.1393 22.3303 9.78106 22.3303 9.34324C22.3303 8.90542 22.6886 8.5472 23.1264 8.5472ZM17.5541 8.5472C17.992 8.5472 18.3502 8.90542 18.3502 9.34324C18.3502 9.78106 17.992 10.1393 17.5541 10.1393C17.1163 10.1393 16.7581 9.78106 16.7581 9.34324C16.7581 8.90542 17.1163 8.5472 17.5541 8.5472ZM11.9819 8.5472C12.4197 8.5472 12.7779 8.90542 12.7779 9.34324C12.7779 9.78106 12.4197 10.1393 11.9819 10.1393C11.5441 10.1393 11.1859 9.78106 11.1859 9.34324C11.1859 8.90542 11.5441 8.5472 11.9819 8.5472ZM6.40966 8.5472C6.84748 8.5472 7.2057 8.90542 7.2057 9.34324C7.2057 9.78106 6.84748 10.1393 6.40966 10.1393C5.97185 10.1393 5.61363 9.78106 5.61363 9.34324C5.61363 8.90542 5.97185 8.5472 6.40966 8.5472ZM3.14593 6.95514H5.61363V7.09444C4.67829 7.43276 4.02156 8.3084 4.02156 9.34324C4.02156 10.6567 5.09621 11.7313 6.40966 11.7313C7.72312 11.7313 8.79776 10.6567 8.79776 9.34324C8.79776 8.3084 8.14104 7.41286 7.2057 7.09444V6.95514H11.1859V7.09444C10.2505 7.43276 9.5938 8.3084 9.5938 9.34324C9.5938 10.6567 10.6684 11.7313 11.9819 11.7313C13.2954 11.7313 14.37 10.6567 14.37 9.34324C14.37 8.3084 13.7133 7.41286 12.7779 7.09444V6.95514H16.7581V7.09444C15.8228 7.43276 15.166 8.3084 15.166 9.34324C15.166 10.6567 16.2407 11.7313 17.5541 11.7313C18.8676 11.7313 19.9422 10.6567 19.9422 9.34324C19.9422 8.3084 19.2855 7.41286 18.3502 7.09444V6.95514H22.3303V7.09444C21.395 7.43276 20.7383 8.3084 20.7383 9.34324C20.7383 10.6567 21.8129 11.7313 23.1264 11.7313C24.4398 11.7313 25.5145 10.6567 25.5145 9.34324C25.5145 8.3084 24.8577 7.41286 23.9224 7.09444V6.95514H27.9026V7.09444C26.9672 7.43276 26.3105 8.3084 26.3105 9.34324C26.3105 10.6567 27.3851 11.7313 28.6986 11.7313C30.0121 11.7313 31.0867 10.6567 31.0867 9.34324C31.0867 8.3084 30.43 7.41286 29.4946 7.09444V6.95514H31.9623C33.236 6.95514 34.2708 7.98998 34.2708 9.26364V12.5274H0.837429V9.26364C0.837429 7.98998 1.87227 6.95514 3.14593 6.95514ZM31.9424 33.1247H3.14593C1.87227 33.1247 0.837429 32.0899 0.837429 30.8162V14.1194H34.2509V30.0202H23.9025C23.4647 30.0202 23.1065 30.3784 23.1065 30.8162C23.1065 31.254 23.4647 31.6123 23.9025 31.6123H34.1116C33.7932 32.5078 32.9375 33.1247 31.9424 33.1247Z" fill="#30C4AE"/>
<path d="M6.40912 15.7117H3.22499C2.78717 15.7117 2.42896 16.0699 2.42896 16.5077V19.6918C2.42896 20.1296 2.78717 20.4878 3.22499 20.4878H6.40912C6.84694 20.4878 7.20515 20.1296 7.20515 19.6918V16.5077C7.20515 16.0699 6.84694 15.7117 6.40912 15.7117ZM5.61309 18.8958H4.02102V17.3037H5.61309V18.8958Z" fill="#30C4AE"/>
<path d="M12.7775 15.7117H9.5934C9.15558 15.7117 8.79736 16.0699 8.79736 16.5077V19.6918C8.79736 20.1296 9.15558 20.4878 9.5934 20.4878H12.7775C13.2154 20.4878 13.5736 20.1296 13.5736 19.6918V16.5077C13.5736 16.0699 13.2154 15.7117 12.7775 15.7117ZM11.9815 18.8958H10.3894V17.3037H11.9815V18.8958Z" fill="#30C4AE"/>
<path d="M19.1457 15.7117H15.9616C15.5237 15.7117 15.1655 16.0699 15.1655 16.5077V19.6918C15.1655 20.1296 15.5237 20.4878 15.9616 20.4878H19.1457C19.5835 20.4878 19.9417 20.1296 19.9417 19.6918V16.5077C19.9417 16.0699 19.5835 15.7117 19.1457 15.7117ZM18.3497 18.8958H16.7576V17.3037H18.3497V18.8958Z" fill="#30C4AE"/>
<path d="M22.3297 20.4878H25.5139C25.9517 20.4878 26.3099 20.1296 26.3099 19.6918V16.5077C26.3099 16.0699 25.9517 15.7117 25.5139 15.7117H22.3297C21.8919 15.7117 21.5337 16.0699 21.5337 16.5077V19.6918C21.5337 20.1296 21.8919 20.4878 22.3297 20.4878ZM23.1258 17.3037H24.7178V18.8958H23.1258V17.3037Z" fill="#30C4AE"/>
<path d="M28.6986 20.4878H31.8828C32.3206 20.4878 32.6788 20.1296 32.6788 19.6918V16.5077C32.6788 16.0699 32.3206 15.7117 31.8828 15.7117H28.6986C28.2608 15.7117 27.9026 16.0699 27.9026 16.5077V19.6918C27.9026 20.1296 28.2608 20.4878 28.6986 20.4878ZM29.4947 17.3037H31.0867V18.8958H29.4947V17.3037Z" fill="#30C4AE"/>
<path d="M6.40912 21.2839H3.22499C2.78717 21.2839 2.42896 21.6422 2.42896 22.08V25.2641C2.42896 25.7019 2.78717 26.0601 3.22499 26.0601H6.40912C6.84694 26.0601 7.20515 25.7019 7.20515 25.2641V22.08C7.20515 21.6422 6.84694 21.2839 6.40912 21.2839ZM5.61309 24.4681H4.02102V22.876H5.61309V24.4681Z" fill="#30C4AE"/>
<path d="M12.7775 21.2839H9.5934C9.15558 21.2839 8.79736 21.6422 8.79736 22.08V25.2641C8.79736 25.7019 9.15558 26.0601 9.5934 26.0601H12.7775C13.2154 26.0601 13.5736 25.7019 13.5736 25.2641V22.08C13.5736 21.6422 13.2154 21.2839 12.7775 21.2839ZM11.9815 24.4681H10.3894V22.876H11.9815V24.4681Z" fill="#30C4AE"/>
<path d="M19.1457 21.2839H15.9616C15.5237 21.2839 15.1655 21.6422 15.1655 22.08V25.2641C15.1655 25.7019 15.5237 26.0601 15.9616 26.0601H19.1457C19.5835 26.0601 19.9417 25.7019 19.9417 25.2641V22.08C19.9417 21.6422 19.5835 21.2839 19.1457 21.2839ZM18.3497 24.4681H16.7576V22.876H18.3497V24.4681Z" fill="#30C4AE"/>
<path d="M26.3099 25.2641V22.08C26.3099 21.6422 25.9517 21.2839 25.5139 21.2839H22.3297C21.8919 21.2839 21.5337 21.6422 21.5337 22.08V25.2641C21.5337 25.7019 21.8919 26.0601 22.3297 26.0601H25.5139C25.9517 26.0601 26.3099 25.7019 26.3099 25.2641ZM24.7178 24.4681H23.1258V22.876H24.7178V24.4681Z" fill="#30C4AE"/>
<path d="M28.6986 26.0601H31.8828C32.3206 26.0601 32.6788 25.7019 32.6788 25.2641V22.08C32.6788 21.6422 32.3206 21.2839 31.8828 21.2839H28.6986C28.2608 21.2839 27.9026 21.6422 27.9026 22.08V25.2641C27.9026 25.7019 28.2608 26.0601 28.6986 26.0601ZM29.4947 22.876H31.0867V24.4681H29.4947V22.876Z" fill="#30C4AE"/>
<path d="M6.40912 26.8558H3.22499C2.78717 26.8558 2.42896 27.214 2.42896 27.6519V30.836C2.42896 31.2738 2.78717 31.632 3.22499 31.632H6.40912C6.84694 31.632 7.20515 31.2738 7.20515 30.836V27.6519C7.20515 27.214 6.84694 26.8558 6.40912 26.8558ZM5.61309 30.04H4.02102V28.4479H5.61309V30.04Z" fill="#30C4AE"/>
<path d="M12.7775 26.8558H9.5934C9.15558 26.8558 8.79736 27.214 8.79736 27.6519V30.836C8.79736 31.2738 9.15558 31.632 9.5934 31.632H12.7775C13.2154 31.632 13.5736 31.2738 13.5736 30.836V27.6519C13.5736 27.214 13.2154 26.8558 12.7775 26.8558ZM11.9815 30.04H10.3894V28.4479H11.9815V30.04Z" fill="#30C4AE"/>
<path d="M19.1457 26.8558H15.9616C15.5237 26.8558 15.1655 27.214 15.1655 27.6519V30.836C15.1655 31.2738 15.5237 31.632 15.9616 31.632H19.1457C19.5835 31.632 19.9417 31.2738 19.9417 30.836V27.6519C19.9417 27.214 19.5835 26.8558 19.1457 26.8558ZM18.3497 30.04H16.7576V28.4479H18.3497V30.04Z" fill="#30C4AE"/>
<path d="M2.43009 3.77095C3.74355 3.77095 4.81819 2.69631 4.81819 1.38285C4.81819 0.0693958 3.74355 -1.00525 2.43009 -1.00525C1.11664 -1.00525 0.0419922 0.0693958 0.0419922 1.38285C0.0419922 2.69631 1.11664 3.77095 2.43009 3.77095ZM2.43009 0.606719C2.86791 0.606719 3.22613 0.964934 3.22613 1.40275C3.22613 1.84057 2.86791 2.19879 2.43009 2.19879C1.99227 2.19879 1.63406 1.84057 1.63406 1.40275C1.63406 0.945034 1.99227 0.606719 2.43009 0.606719Z" fill="#30C4AE"/>
<path d="M26.7085 2.17917C28.2408 2.17917 29.4946 0.925416 29.4946 -0.606949C29.4946 -2.13931 28.2408 -3.39307 26.7085 -3.39307C25.1761 -3.39307 23.9224 -2.13931 23.9224 -0.606949C23.9224 0.925416 25.1761 2.17917 26.7085 2.17917ZM26.7085 -1.7811C27.3652 -1.7811 27.9025 -1.24377 27.9025 -0.587047C27.9025 0.0696807 27.3652 0.607004 26.7085 0.607004C26.0518 0.607004 25.5144 0.0696807 25.5144 -0.587047C25.5144 -1.26368 26.0518 -1.7811 26.7085 -1.7811Z" fill="#30C4AE"/>
<path d="M16.7575 0.606958C17.1971 0.606958 17.5535 0.250562 17.5535 -0.189075C17.5535 -0.628711 17.1971 -0.985107 16.7575 -0.985107C16.3178 -0.985107 15.9614 -0.628711 15.9614 -0.189075C15.9614 0.250562 16.3178 0.606958 16.7575 0.606958Z" fill="#30C4AE"/>
<path d="M32.6583 2.975C33.098 2.975 33.4544 2.6186 33.4544 2.17897C33.4544 1.73933 33.098 1.38293 32.6583 1.38293C32.2187 1.38293 31.8623 1.73933 31.8623 2.17897C31.8623 2.6186 32.2187 2.975 32.6583 2.975Z" fill="#30C4AE"/>
</g>
<defs>
<clipPath id="clip0">
<rect width="39.2453" height="40" fill="white"/>
</clipPath>
</defs>
</svg>
