<svg width="40" height="40" viewBox="0 0 40 40" fill="none" xmlns="http://www.w3.org/2000/svg">
<g opacity="0.5" clip-path="url(#clip0)">
<path d="M31.9422 5.36295H29.4944V3.77089C29.4944 3.33307 29.1362 2.97485 28.6984 2.97485C28.2605 2.97485 27.9023 3.33307 27.9023 3.77089V5.36295H23.9222V3.77089C23.9222 3.33307 23.5639 2.97485 23.1261 2.97485C22.6883 2.97485 22.3301 3.33307 22.3301 3.77089V5.36295H18.3499V3.77089C18.3499 3.33307 17.9917 2.97485 17.5539 2.97485C17.1161 2.97485 16.7579 3.33307 16.7579 3.77089V5.36295H12.7777V3.77089C12.7777 3.33307 12.4195 2.97485 11.9817 2.97485C11.5438 2.97485 11.1856 3.33307 11.1856 3.77089V5.36295H7.20545V3.77089C7.20545 3.33307 6.84724 2.97485 6.40942 2.97485C5.9716 2.97485 5.61339 3.33307 5.61339 3.77089V5.36295H3.14568C0.996392 5.36295 -0.754883 7.11423 -0.754883 9.26351V30.8161C-0.754883 32.9654 0.996392 34.7167 3.14568 34.7167H31.9422C34.0915 34.7167 35.8428 32.9654 35.8428 30.8161V9.26351C35.8428 7.11423 34.1114 5.36295 31.9422 5.36295ZM28.6984 8.54708C29.1362 8.54708 29.4944 8.9053 29.4944 9.34312C29.4944 9.78093 29.1362 10.1391 28.6984 10.1391C28.2605 10.1391 27.9023 9.78093 27.9023 9.34312C27.9023 8.9053 28.2605 8.54708 28.6984 8.54708ZM23.1261 8.54708C23.5639 8.54708 23.9222 8.9053 23.9222 9.34312C23.9222 9.78093 23.5639 10.1391 23.1261 10.1391C22.6883 10.1391 22.3301 9.78093 22.3301 9.34312C22.3301 8.9053 22.6883 8.54708 23.1261 8.54708ZM17.5539 8.54708C17.9917 8.54708 18.3499 8.9053 18.3499 9.34312C18.3499 9.78093 17.9917 10.1391 17.5539 10.1391C17.1161 10.1391 16.7579 9.78093 16.7579 9.34312C16.7579 8.9053 17.1161 8.54708 17.5539 8.54708ZM11.9817 8.54708C12.4195 8.54708 12.7777 8.9053 12.7777 9.34312C12.7777 9.78093 12.4195 10.1391 11.9817 10.1391C11.5438 10.1391 11.1856 9.78093 11.1856 9.34312C11.1856 8.9053 11.5438 8.54708 11.9817 8.54708ZM6.40942 8.54708C6.84724 8.54708 7.20545 8.9053 7.20545 9.34312C7.20545 9.78093 6.84724 10.1391 6.40942 10.1391C5.9716 10.1391 5.61339 9.78093 5.61339 9.34312C5.61339 8.9053 5.9716 8.54708 6.40942 8.54708ZM3.14568 6.95502H5.61339V7.09432C4.67805 7.43264 4.02132 8.30827 4.02132 9.34312C4.02132 10.6566 5.09596 11.7312 6.40942 11.7312C7.72288 11.7312 8.79752 10.6566 8.79752 9.34312C8.79752 8.30827 8.14079 7.41274 7.20545 7.09432V6.95502H11.1856V7.09432C10.2503 7.43264 9.59355 8.30827 9.59355 9.34312C9.59355 10.6566 10.6682 11.7312 11.9817 11.7312C13.2951 11.7312 14.3698 10.6566 14.3698 9.34312C14.3698 8.30827 13.713 7.41274 12.7777 7.09432V6.95502H16.7579V7.09432C15.8225 7.43264 15.1658 8.30827 15.1658 9.34312C15.1658 10.6566 16.2404 11.7312 17.5539 11.7312C18.8673 11.7312 19.942 10.6566 19.942 9.34312C19.942 8.30827 19.2853 7.41274 18.3499 7.09432V6.95502H22.3301V7.09432C21.3948 7.43264 20.738 8.30827 20.738 9.34312C20.738 10.6566 21.8127 11.7312 23.1261 11.7312C24.4396 11.7312 25.5142 10.6566 25.5142 9.34312C25.5142 8.30827 24.8575 7.41274 23.9222 7.09432V6.95502H27.9023V7.09432C26.967 7.43264 26.3103 8.30827 26.3103 9.34312C26.3103 10.6566 27.3849 11.7312 28.6984 11.7312C30.0118 11.7312 31.0865 10.6566 31.0865 9.34312C31.0865 8.30827 30.4297 7.41274 29.4944 7.09432V6.95502H31.9621C33.2358 6.95502 34.2706 7.98986 34.2706 9.26351V12.5272H0.837184V9.26351C0.837184 7.98986 1.87203 6.95502 3.14568 6.95502ZM31.9422 33.1246H3.14568C1.87203 33.1246 0.837184 32.0898 0.837184 30.8161V14.1193H34.2507V30.0201H23.9023C23.4644 30.0201 23.1062 30.3783 23.1062 30.8161C23.1062 31.2539 23.4644 31.6121 23.9023 31.6121H34.1114C33.793 32.5077 32.9372 33.1246 31.9422 33.1246Z" fill="#067362"/>
<path d="M6.40888 15.7117H3.22474C2.78693 15.7117 2.42871 16.0699 2.42871 16.5077V19.6918C2.42871 20.1296 2.78693 20.4878 3.22474 20.4878H6.40888C6.8467 20.4878 7.20491 20.1296 7.20491 19.6918V16.5077C7.20491 16.0699 6.8467 15.7117 6.40888 15.7117ZM5.61284 18.8958H4.02078V17.3037H5.61284V18.8958Z" fill="#067362"/>
<path d="M12.777 15.7117H9.59291C9.15509 15.7117 8.79688 16.0699 8.79688 16.5077V19.6918C8.79688 20.1296 9.15509 20.4878 9.59291 20.4878H12.777C13.2149 20.4878 13.5731 20.1296 13.5731 19.6918V16.5077C13.5731 16.0699 13.2149 15.7117 12.777 15.7117ZM11.981 18.8958H10.3889V17.3037H11.981V18.8958Z" fill="#067362"/>
<path d="M19.1452 15.7117H15.9611C15.5233 15.7117 15.165 16.0699 15.165 16.5077V19.6918C15.165 20.1296 15.5233 20.4878 15.9611 20.4878H19.1452C19.583 20.4878 19.9412 20.1296 19.9412 19.6918V16.5077C19.9412 16.0699 19.583 15.7117 19.1452 15.7117ZM18.3492 18.8958H16.7571V17.3037H18.3492V18.8958Z" fill="#067362"/>
<path d="M22.3297 20.4878H25.5139C25.9517 20.4878 26.3099 20.1296 26.3099 19.6918V16.5077C26.3099 16.0699 25.9517 15.7117 25.5139 15.7117H22.3297C21.8919 15.7117 21.5337 16.0699 21.5337 16.5077V19.6918C21.5337 20.1296 21.8919 20.4878 22.3297 20.4878ZM23.1258 17.3037H24.7178V18.8958H23.1258V17.3037Z" fill="#067362"/>
<path d="M28.6984 20.4878H31.8825C32.3203 20.4878 32.6785 20.1296 32.6785 19.6918V16.5077C32.6785 16.0699 32.3203 15.7117 31.8825 15.7117H28.6984C28.2606 15.7117 27.9023 16.0699 27.9023 16.5077V19.6918C27.9023 20.1296 28.2606 20.4878 28.6984 20.4878ZM29.4944 17.3037H31.0865V18.8958H29.4944V17.3037Z" fill="#067362"/>
<path d="M6.40888 21.2839H3.22474C2.78693 21.2839 2.42871 21.6422 2.42871 22.08V25.2641C2.42871 25.7019 2.78693 26.0601 3.22474 26.0601H6.40888C6.8467 26.0601 7.20491 25.7019 7.20491 25.2641V22.08C7.20491 21.6422 6.8467 21.2839 6.40888 21.2839ZM5.61284 24.4681H4.02078V22.876H5.61284V24.4681Z" fill="#067362"/>
<path d="M12.777 21.2839H9.59291C9.15509 21.2839 8.79688 21.6422 8.79688 22.08V25.2641C8.79688 25.7019 9.15509 26.0601 9.59291 26.0601H12.777C13.2149 26.0601 13.5731 25.7019 13.5731 25.2641V22.08C13.5731 21.6422 13.2149 21.2839 12.777 21.2839ZM11.981 24.4681H10.3889V22.876H11.981V24.4681Z" fill="#067362"/>
<path d="M19.1452 21.2839H15.9611C15.5233 21.2839 15.165 21.6422 15.165 22.08V25.2641C15.165 25.7019 15.5233 26.0601 15.9611 26.0601H19.1452C19.583 26.0601 19.9412 25.7019 19.9412 25.2641V22.08C19.9412 21.6422 19.583 21.2839 19.1452 21.2839ZM18.3492 24.4681H16.7571V22.876H18.3492V24.4681Z" fill="#067362"/>
<path d="M26.3099 25.2641V22.08C26.3099 21.6422 25.9517 21.2839 25.5139 21.2839H22.3297C21.8919 21.2839 21.5337 21.6422 21.5337 22.08V25.2641C21.5337 25.7019 21.8919 26.0601 22.3297 26.0601H25.5139C25.9517 26.0601 26.3099 25.7019 26.3099 25.2641ZM24.7178 24.4681H23.1258V22.876H24.7178V24.4681Z" fill="#067362"/>
<path d="M28.6984 26.0601H31.8825C32.3203 26.0601 32.6785 25.7019 32.6785 25.2641V22.08C32.6785 21.6422 32.3203 21.2839 31.8825 21.2839H28.6984C28.2606 21.2839 27.9023 21.6422 27.9023 22.08V25.2641C27.9023 25.7019 28.2606 26.0601 28.6984 26.0601ZM29.4944 22.876H31.0865V24.4681H29.4944V22.876Z" fill="#067362"/>
<path d="M6.40888 26.856H3.22474C2.78693 26.856 2.42871 27.2142 2.42871 27.652V30.8361C2.42871 31.2739 2.78693 31.6322 3.22474 31.6322H6.40888C6.8467 31.6322 7.20491 31.2739 7.20491 30.8361V27.652C7.20491 27.2142 6.8467 26.856 6.40888 26.856ZM5.61284 30.0401H4.02078V28.448H5.61284V30.0401Z" fill="#067362"/>
<path d="M12.777 26.856H9.59291C9.15509 26.856 8.79688 27.2142 8.79688 27.652V30.8361C8.79688 31.2739 9.15509 31.6322 9.59291 31.6322H12.777C13.2149 31.6322 13.5731 31.2739 13.5731 30.8361V27.652C13.5731 27.2142 13.2149 26.856 12.777 26.856ZM11.981 30.0401H10.3889V28.448H11.981V30.0401Z" fill="#067362"/>
<path d="M19.1452 26.856H15.9611C15.5233 26.856 15.165 27.2142 15.165 27.652V30.8361C15.165 31.2739 15.5233 31.6322 15.9611 31.6322H19.1452C19.583 31.6322 19.9412 31.2739 19.9412 30.8361V27.652C19.9412 27.2142 19.583 26.856 19.1452 26.856ZM18.3492 30.0401H16.7571V28.448H18.3492V30.0401Z" fill="#067362"/>
<path d="M2.4296 3.77107C3.74306 3.77107 4.81771 2.69643 4.81771 1.38297C4.81771 0.0695179 3.74306 -1.00513 2.4296 -1.00513C1.11615 -1.00513 0.0415039 0.0695179 0.0415039 1.38297C0.0415039 2.69643 1.11615 3.77107 2.4296 3.77107ZM2.4296 0.606841C2.86742 0.606841 3.22564 0.965056 3.22564 1.40287C3.22564 1.84069 2.86742 2.19891 2.4296 2.19891C1.99179 2.19891 1.63357 1.84069 1.63357 1.40287C1.63357 0.945156 1.99179 0.606841 2.4296 0.606841Z" fill="#067362"/>
<path d="M26.7085 2.17917C28.2408 2.17917 29.4946 0.925416 29.4946 -0.606949C29.4946 -2.13931 28.2408 -3.39307 26.7085 -3.39307C25.1761 -3.39307 23.9224 -2.13931 23.9224 -0.606949C23.9224 0.925416 25.1761 2.17917 26.7085 2.17917ZM26.7085 -1.7811C27.3652 -1.7811 27.9025 -1.24377 27.9025 -0.587047C27.9025 0.0696807 27.3652 0.607004 26.7085 0.607004C26.0518 0.607004 25.5144 0.0696807 25.5144 -0.587047C25.5144 -1.26368 26.0518 -1.7811 26.7085 -1.7811Z" fill="#067362"/>
<path d="M16.7575 0.606958C17.1971 0.606958 17.5535 0.250562 17.5535 -0.189075C17.5535 -0.628711 17.1971 -0.985107 16.7575 -0.985107C16.3178 -0.985107 15.9614 -0.628711 15.9614 -0.189075C15.9614 0.250562 16.3178 0.606958 16.7575 0.606958Z" fill="#067362"/>
<path d="M32.6583 2.97488C33.098 2.97488 33.4544 2.61848 33.4544 2.17885C33.4544 1.73921 33.098 1.38281 32.6583 1.38281C32.2187 1.38281 31.8623 1.73921 31.8623 2.17885C31.8623 2.61848 32.2187 2.97488 32.6583 2.97488Z" fill="#067362"/>
</g>
<defs>
<clipPath id="clip0">
<rect width="39.2453" height="40" fill="white"/>
</clipPath>
</defs>
</svg>
