<svg width="40" height="40" viewBox="0 0 40 40" fill="none" xmlns="http://www.w3.org/2000/svg">
<g opacity="0.5" clip-path="url(#clip0)">
<path d="M31.5037 13.6736H30.139C28.7585 7.50483 24.9501 3.71479 18.8091 2.38272C18.8091 2.20828 18.8091 2.01799 18.8091 1.82769C18.8091 1.05065 18.7932 0.241899 18.825 -0.53514C18.8408 -1.18532 18.8091 -1.97821 18.2696 -2.50152C17.7301 -3.02484 16.9049 -3.04069 16.2543 -3.00898C15.1435 -2.94555 14.4453 -2.21608 14.4136 -1.13774C14.4136 -0.757152 14.4136 -0.392419 14.4136 -0.0118282V2.38272C8.25673 3.7465 4.44835 7.53655 3.11542 13.6577L-0.35973 13.6736C-1.51811 13.6736 -2.24805 14.403 -2.27979 15.5765C-2.27979 15.7827 -2.27979 16.0047 -2.27979 16.2108C-2.26392 17.305 -1.53398 18.0345 -0.439071 18.0504C0.0687129 18.0662 0.576499 18.0662 1.10015 18.0504H3.13128C3.63907 20.9841 4.9244 23.4896 6.9714 25.5353C9.0184 27.581 11.5256 28.8655 14.4136 29.3571V30.5147C14.4136 31.2917 14.4136 32.0688 14.4136 32.8458C14.4136 33.9717 15.1277 34.6853 16.2543 34.717C16.3495 34.717 16.4447 34.717 16.5558 34.717C16.5876 34.717 16.6034 34.717 16.6352 34.717C18.1585 34.717 18.7932 34.0669 18.8091 32.5762C18.8091 31.5137 18.8091 30.4671 18.8091 29.3571C24.6328 28.4056 29.1393 23.9178 30.1232 18.0504C31.2815 18.0662 32.4399 18.0662 33.6142 18.0504C34.7567 18.0345 35.4866 17.3209 35.5025 16.1633C35.5025 15.9571 35.5025 15.7351 35.5025 15.5289C35.4866 14.3872 34.7567 13.6577 33.5983 13.6577C32.9001 13.6736 32.2019 13.6736 31.5037 13.6736ZM25.9022 16.0523C25.8705 21.0951 21.6971 25.1706 16.6193 25.1706C14.1121 25.1547 11.7795 24.1874 10.034 22.4271C8.28846 20.6669 7.33637 18.3041 7.35224 15.7827C7.3681 10.724 11.5573 6.63265 16.6669 6.63265C16.6828 6.63265 16.6986 6.63265 16.6986 6.63265C19.1741 6.6485 21.4908 7.6317 23.2205 9.39193C24.966 11.168 25.9181 13.5308 25.9022 16.0523Z" fill="#067362"/>
<path d="M16.6827 12.6907C15.8099 12.6907 14.9689 13.0078 14.3659 13.6104C13.7629 14.213 13.4297 15.0218 13.4297 15.8781C13.4297 16.7344 13.7471 17.5591 14.35 18.1617C14.953 18.7643 15.7623 19.0973 16.6192 19.0973C16.6192 19.0973 16.6192 19.0973 16.6351 19.0973C18.3964 19.0973 19.8405 17.6701 19.8405 15.894C19.8405 14.1496 18.4282 12.7065 16.6827 12.6907Z" fill="#067362"/>
</g>
<defs>
<clipPath id="clip0">
<rect width="39.2453" height="40" fill="white"/>
</clipPath>
</defs>
</svg>
