<svg width="40" height="40" viewBox="0 0 40 40" fill="none" xmlns="http://www.w3.org/2000/svg">
<g opacity="0.5" clip-path="url(#clip0)">
<path d="M31.5037 13.6734H30.139C28.7585 7.50471 24.9501 3.71467 18.8091 2.3826C18.8091 2.20816 18.8091 2.01787 18.8091 1.82757C18.8091 1.05053 18.7932 0.241776 18.825 -0.535262C18.8408 -1.18544 18.8091 -1.97833 18.2696 -2.50165C17.7301 -3.02496 16.9049 -3.04082 16.2543 -3.0091C15.1435 -2.94567 14.4453 -2.2162 14.4136 -1.13786C14.4136 -0.757274 14.4136 -0.392541 14.4136 -0.0119503V2.3826C8.25673 3.74638 4.44835 7.53643 3.11542 13.6576L-0.35973 13.6734C-1.51811 13.6734 -2.24805 14.4029 -2.27979 15.5764C-2.27979 15.7826 -2.27979 16.0046 -2.27979 16.2107C-2.26392 17.3049 -1.53398 18.0344 -0.439071 18.0502C0.0687129 18.0661 0.576499 18.0661 1.10015 18.0502H3.13128C3.63907 20.984 4.9244 23.4895 6.9714 25.5352C9.0184 27.5809 11.5256 28.8654 14.4136 29.3569V30.5146C14.4136 31.2916 14.4136 32.0687 14.4136 32.8457C14.4136 33.9716 15.1277 34.6852 16.2543 34.7169C16.3495 34.7169 16.4447 34.7169 16.5558 34.7169C16.5876 34.7169 16.6034 34.7169 16.6352 34.7169C18.1585 34.7169 18.7932 34.0668 18.8091 32.5761C18.8091 31.5136 18.8091 30.467 18.8091 29.3569C24.6328 28.4055 29.1393 23.9177 30.1232 18.0502C31.2815 18.0661 32.4399 18.0661 33.6142 18.0502C34.7567 18.0344 35.4866 17.3208 35.5025 16.1631C35.5025 15.957 35.5025 15.735 35.5025 15.5288C35.4866 14.3871 34.7567 13.6576 33.5983 13.6576C32.9001 13.6734 32.2019 13.6734 31.5037 13.6734ZM25.9022 16.0521C25.8705 21.095 21.6971 25.1704 16.6193 25.1704C14.1121 25.1546 11.7795 24.1873 10.034 22.427C8.28846 20.6668 7.33637 18.304 7.35224 15.7826C7.3681 10.7239 11.5573 6.63252 16.6669 6.63252C16.6828 6.63252 16.6986 6.63252 16.6986 6.63252C19.1741 6.64838 21.4908 7.63157 23.2205 9.39181C24.966 11.1679 25.9181 13.5307 25.9022 16.0521Z" fill="#30C4AE"/>
<path d="M16.6827 12.6906C15.8099 12.6906 14.9689 13.0077 14.3659 13.6103C13.7629 14.2129 13.4297 15.0217 13.4297 15.878C13.4297 16.7343 13.7471 17.5589 14.35 18.1615C14.953 18.7641 15.7623 19.0972 16.6192 19.0972C16.6192 19.0972 16.6192 19.0972 16.6351 19.0972C18.3964 19.0972 19.8405 17.6699 19.8405 15.8939C19.8405 14.1495 18.4282 12.7064 16.6827 12.6906Z" fill="#30C4AE"/>
</g>
<defs>
<clipPath id="clip0">
<rect width="39.2453" height="40" fill="white"/>
</clipPath>
</defs>
</svg>
