<svg width="28" height="24" viewBox="0 0 28 24" fill="none" xmlns="http://www.w3.org/2000/svg">
<path d="M25.6017 6.96226L16.353 10C16.215 10 15.9389 10 15.8008 10L6.41412 6.96226C5.86196 6.83019 5.86196 6.30189 6.41412 6.03774L15.6628 3C15.8008 3 16.0769 3 16.215 3L25.4637 6.03774C26.1539 6.30189 26.1539 6.83019 25.6017 6.96226Z" fill="#495352"/>
<path d="M15.8611 12.027L9.88889 10C9.75 10 9.47222 10 9.33333 10L6.41667 10.9459C5.86111 11.0811 5.86111 11.7568 6.41667 11.8919L15.7222 15C15.8611 15 16.1389 15 16.2778 15L25.5833 11.8919C26.1389 11.7568 26.1389 11.0811 25.5833 10.9459L22.9444 10C22.8056 10 22.5278 10 22.3889 10L16.4167 12.027C16.2778 12.027 16.1389 12.027 15.8611 12.027Z" fill="#495352"/>
<path d="M15.8611 17.4324L9.88889 15C9.75 15 9.47222 15 9.33333 15L6.41667 16.1351C5.86111 16.2973 5.86111 17.1081 6.41667 17.2703L15.7222 21C15.8611 21 16.1389 21 16.2778 21L25.5833 17.2703C26.1389 17.1081 26.1389 16.2973 25.5833 16.1351L22.9444 15C22.8056 15 22.5278 15 22.3889 15L16.4167 17.4324C16.2778 17.4324 16.1389 17.4324 15.8611 17.4324Z" fill="#495352"/>
</svg>
