<svg width="52" height="53" viewBox="0 0 52 53" fill="none" xmlns="http://www.w3.org/2000/svg">
<g opacity="0.5" clip-path="url(#clip0)">
<path d="M26.7674 33.068C27.0843 33.068 27.3412 32.813 27.3412 32.4984C27.3412 32.1838 27.0843 31.9288 26.7674 31.9288C26.4505 31.9288 26.1936 32.1838 26.1936 32.4984C26.1936 32.813 26.4505 33.068 26.7674 33.068Z" fill="#30C4AE"/>
<path d="M26.7674 30.7893C27.0843 30.7893 27.3412 30.5343 27.3412 30.2197C27.3412 29.9052 27.0843 29.6501 26.7674 29.6501C26.4505 29.6501 26.1936 29.9052 26.1936 30.2197C26.1936 30.5343 26.4505 30.7893 26.7674 30.7893Z" fill="#30C4AE"/>
<path d="M33.6972 19.8798C33.2117 18.9012 32.4025 18.1126 31.4167 17.616L30.7841 17.2947V15.1478L32.0052 14.5344C33.3735 13.848 34.2269 12.4897 34.2269 10.9562V7.93303C34.2269 5.81533 32.5496 4.07736 30.4457 3.94592L29.0774 2.58767C28.1063 1.62375 26.7969 1.08337 25.4139 1.08337H22.7656C20.5145 1.08337 18.6901 2.89437 18.6901 5.12891C18.6901 6.35571 19.2492 7.50949 20.2203 8.28355L21.1913 9.0576C20.9853 10.7225 20.9853 11.8617 20.9853 11.9347V12.5043H22.1329V12.8987C22.1329 13.9064 22.6479 14.8557 23.4865 15.4107C23.9867 15.7466 24.5752 15.9219 25.1785 15.9219H25.3403C25.4286 15.9219 25.5022 15.9073 25.5904 15.8927V17.9665L24.5164 18.1856C24.2663 18.2294 24.0309 18.3755 23.869 18.5653L23.1775 19.3686C22.4566 20.2011 21.8828 21.1212 21.4414 22.0997L18.131 25.415V23.2681C18.131 20.9897 17.1453 18.8282 15.4239 17.3385C13.982 16.0825 12.1135 15.3815 10.1861 15.3815H10.0831V14.7973C11.422 14.6951 12.5696 13.8772 13.0845 12.6212C13.3788 11.8763 13.5406 11.0877 13.5406 10.2844V7.96224C13.5406 7.5533 13.4524 7.17358 13.3052 6.82306C14.188 6.0052 14.6882 4.83681 14.6882 3.62461C14.6882 2.95279 14.4234 2.32478 13.9379 1.84282C13.4524 1.36086 12.8197 1.09798 12.1429 1.09798H7.50838C6.0371 1.09798 4.66881 1.66757 3.58006 2.73372C2.60901 3.69763 2.0205 5.23114 2.0205 6.80846C2.0205 8.85313 3.22695 10.0799 3.75661 10.5181C3.83018 11.2921 4.15386 12.0224 4.72766 12.5774L4.8895 12.738V15.3669C3.59477 15.3961 2.34418 15.805 1.28486 16.5645C-0.421827 17.7767 -1.43701 19.7337 -1.43701 21.8076V26.7732C-1.43701 28.7157 -0.539529 30.4536 0.858189 31.6074V36.4708H2.00579V32.3523C2.87384 32.7904 3.84489 33.0387 4.87479 33.0387H12.9815C12.9815 33.0387 12.9815 33.0387 12.9963 33.0387H13.4965V36.4562H14.6441V33.0387H16.1889C17.5719 33.0387 18.8667 32.4983 19.8524 31.5344L20.3968 30.994V36.4708H21.5444V26.7878C21.5444 25.6195 21.7504 24.4803 22.1329 23.3995L24.2957 27.2698C24.2221 27.3428 24.1486 27.4012 24.0603 27.4743L23.8396 27.6495V36.4854H24.9872V35.3609V34.7329V28.2045C26.8557 26.6564 28.1799 24.6117 28.8567 22.2896L30.019 18.2732L30.0926 18.2586L30.8723 18.6384C31.6374 19.0181 32.2553 19.6315 32.6379 20.3909C32.9174 20.9313 33.0498 21.5301 33.0498 22.1435V34.616H34.1974V22.1435C34.2416 21.3548 34.0503 20.5808 33.6972 19.8798ZM10.4362 16.5353C10.7893 16.5499 11.1277 16.5791 11.4808 16.6521L9.89186 20.464L9.53875 18.3317L10.4362 16.5353ZM12.393 10.2844C12.393 10.9416 12.2753 11.5842 12.0252 12.1976C11.6721 13.0885 10.8041 13.6727 9.83301 13.6727C9.3622 13.6727 8.9061 13.5413 8.52356 13.2784L7.53781 12.6212L6.90516 13.5705L7.89091 14.2277C8.21459 14.4468 8.58242 14.5928 8.95024 14.6951V15.3815H6.06652V12.2853L5.56629 11.7887C5.15433 11.3798 4.91892 10.8248 4.91892 10.2406C4.91892 9.91928 5.18376 9.671 5.49273 9.671H6.06652V7.96224C6.06652 7.01293 6.8463 6.25348 7.78792 6.25348H10.6569C11.6133 6.25348 12.3783 7.02753 12.3783 7.96224V10.2844H12.393ZM8.58242 17.6598H7.56723L6.99343 16.5207H9.15622L8.58242 17.6598ZM9.06794 22.4648L8.3323 24.2466L7.19941 21.8514L7.71436 18.8136H8.46471L9.06794 22.4648ZM4.09501 9.23286C3.68305 8.7509 3.19753 7.94763 3.19753 6.80846C3.19753 5.52324 3.65362 4.31104 4.46283 3.50777C5.28675 2.6899 6.37549 2.23715 7.53781 2.23715H12.1723C12.5402 2.23715 12.8933 2.3832 13.1581 2.64609C13.4229 2.90897 13.5701 3.25949 13.5701 3.62461C13.5701 4.47169 13.2317 5.27495 12.6579 5.87375C12.1429 5.39179 11.4661 5.0997 10.7011 5.0997H7.83206C6.24308 5.0997 4.96306 6.38492 4.96306 7.94763V8.61945C4.58053 8.73629 4.30099 8.95537 4.09501 9.23286ZM5.08077 16.5207H5.6987L6.6109 18.317L6.33136 20.0112L4.68352 16.5353C4.81594 16.5353 4.94835 16.5207 5.08077 16.5207ZM10.0831 31.9287H4.90421C2.04993 31.9287 -0.2747 29.6212 -0.2747 26.7878V21.8222C-0.2747 20.1134 0.563932 18.4923 1.96165 17.4992C2.43246 17.1633 2.94741 16.915 3.49178 16.7543L7.77321 25.7801V27.3574H4.33041V23.9399H3.18281V27.3574C3.18281 27.9854 3.69776 28.4966 4.33041 28.4966H10.0831V31.9287ZM14.2027 31.4468C13.8937 31.7535 13.4818 31.9287 13.0404 31.9287H12.393H11.2454V28.4966H12.393H12.9668C13.9085 28.4966 14.6882 29.2707 14.6882 30.2638C14.6882 30.7165 14.5117 31.1255 14.2027 31.4468ZM13.5406 23.9399V27.3574H12.9668H8.93552V25.7509L12.5843 16.9442C13.3347 17.2217 14.0409 17.6452 14.6588 18.171C16.1301 19.4562 16.9834 21.2964 16.9834 23.2389V26.5396L16.6745 26.8463C16.3508 27.1676 15.9094 27.3428 15.4533 27.3428H14.6882V23.9253H13.5406V23.9399ZM20.4409 26.8024V29.4021L19.0874 30.7457C18.3223 31.5052 17.3218 31.9141 16.2478 31.9141H15.2915C15.6446 31.4322 15.8505 30.8626 15.8505 30.2054C15.8505 29.5628 15.6299 28.964 15.262 28.482H15.4827C16.2331 28.482 16.9834 28.1753 17.5131 27.6495L20.7058 24.4803C20.5292 25.2543 20.4409 26.0284 20.4409 26.8024ZM23.8837 20.4786L23.5159 23.4872L22.7361 22.0997C23.0598 21.4863 23.4276 20.9021 23.869 20.3617V20.4786H23.8837ZM25.0313 19.2664L26.2966 19.0181L25.8258 19.9382H25.0313V19.2664ZM25.2079 26.4811L24.487 25.1959L24.9725 21.092H25.7228L26.5468 24.7578C26.1642 25.3712 25.7081 25.9554 25.2079 26.4811ZM27.7974 21.9829C27.6797 22.3918 27.5325 22.7861 27.3707 23.1658L26.7969 20.5808L27.7238 18.726L28.7831 18.5215L27.7974 21.9829ZM28.6507 13.1908C28.8125 13.8626 29.1509 14.4906 29.6365 15.031V17.1925L26.7675 17.7621V15.732L28.6066 15.3669L28.3859 14.2423L25.7523 14.7681C25.6346 14.7973 25.5022 14.7973 25.3845 14.7973H25.2226C24.8401 14.7973 24.487 14.6805 24.1633 14.476C23.6336 14.1255 23.3247 13.5413 23.3247 12.9133V11.3798H22.1918C22.2212 10.5765 22.3389 9.02839 22.6773 7.21739C23.0451 7.07135 23.766 6.82306 24.4723 6.82306C25.6346 6.82306 26.4732 7.33423 26.9587 7.75777C27.2236 7.99145 27.356 8.23973 27.356 8.53183V9.10141H28.5036C29.1362 9.10141 29.6512 9.61258 29.6512 10.2406C29.6512 11 28.8273 11.4382 28.8125 11.4382L28.4889 11.5988V11.9494C28.4889 12.3437 28.5477 12.7672 28.6507 13.1908ZM29.7689 12.9279C29.71 12.6942 29.6806 12.4751 29.6512 12.2561C30.0778 11.9494 30.7841 11.2775 30.7841 10.2406C30.7841 8.98458 29.7542 7.96224 28.4889 7.96224H28.4153C28.2976 7.56791 28.0622 7.21739 27.7091 6.89609C27.0764 6.34111 25.9877 5.66928 24.4723 5.66928C23.207 5.66928 21.9711 6.26808 21.9122 6.29729L21.6621 6.42873L21.6033 6.70623C21.5297 7.07135 21.4708 7.42186 21.412 7.77238L20.9706 7.42186C20.2791 6.86688 19.8819 6.04901 19.8819 5.15811C19.8819 3.56619 21.1913 2.26636 22.795 2.26636H25.4433C26.5173 2.26636 27.5325 2.6753 28.2829 3.43475L29.9749 5.1143H30.2103C31.7992 5.1143 33.0793 6.39952 33.0793 7.96224V10.9708C33.0793 12.0516 32.476 13.0301 31.4903 13.5267L30.3427 14.0963C30.0778 13.7457 29.8719 13.3514 29.7689 12.9279Z" fill="#30C4AE"/>
<path d="M29.6364 26.2181H28.4888V35.3608H28.4741V36.4999H29.6511V35.3608H29.6364V26.2181Z" fill="#30C4AE"/>
</g>
<defs>
<clipPath id="clip0">
<rect width="52" height="53" fill="white"/>
</clipPath>
</defs>
</svg>
