<svg width="41" height="42" viewBox="0 0 41 42" fill="none" xmlns="http://www.w3.org/2000/svg">
<g opacity="0.5" clip-path="url(#clip0)">
<path d="M36.3929 17.6492C36.4438 17.3083 36.3858 16.9679 36.2338 16.6661C36.4142 16.57 36.5665 16.4303 36.6981 16.266C37.2377 15.6143 37.2289 14.6799 36.7371 14.043C36.9514 13.8668 37.1187 13.6547 37.2391 13.4067C37.4385 12.9718 37.4689 12.4959 37.302 12.0457C37.1876 11.7284 36.9998 11.4744 36.7576 11.2757C36.9024 11.1171 37.0265 10.9337 37.098 10.7279C37.4142 9.86987 36.9996 8.90327 36.1543 8.58778L24.2463 3.42911C24.1805 3.40089 24.0903 3.39373 24.0283 3.4302C24.0095 3.43791 23.9907 3.44561 23.9851 3.45896C23.9475 3.47438 23.8535 3.51291 23.7972 3.53603C23.5773 3.61516 23.4458 3.6691 23.425 3.86523C23.4286 4.04029 23.7853 4.44577 23.8642 4.47963L35.746 9.62702C36.0089 9.73989 36.1346 10.0304 36.048 10.3087C36.0047 10.4479 35.9088 10.5644 35.7717 10.6317C35.6345 10.699 35.4936 10.7016 35.3564 10.6585C35.3433 10.6529 35.3301 10.6473 35.3113 10.655L34.9037 10.5904C34.637 10.5232 34.3682 10.6445 34.261 10.8981C34.1424 11.1785 34.2643 11.5147 34.5405 11.6332C34.5536 11.6389 34.5667 11.6445 34.5667 11.6445L35.8985 12.0584C36.2197 12.1805 36.4074 12.545 36.2982 12.8767C36.238 13.0559 36.1176 13.1935 35.956 13.2818C35.7812 13.3645 35.6084 13.3692 35.4375 13.2958C35.4243 13.2902 35.4243 13.2902 35.4112 13.2846L33.8239 12.7768C33.5422 12.6716 33.2302 12.8216 33.1248 13.1076C33.0684 13.2411 33.0777 13.4028 33.1302 13.5358C33.1959 13.6744 33.2916 13.7786 33.4419 13.8273L35.5663 14.5341C35.8819 14.6696 36.0432 15.0227 35.9209 15.3488C35.8061 15.6938 35.4321 15.8803 35.0977 15.7526L32.6916 14.9406C32.4098 14.8354 32.1035 14.9721 31.9981 15.2581C31.8927 15.544 32.0203 15.8669 32.3152 15.9777L34.8923 16.8631C35.1815 16.9873 35.3335 17.2891 35.2488 17.5997C35.1584 17.9237 34.8163 18.1081 34.497 18.0184L34.4839 18.0127L28.8522 16.7468L26.724 15.9753C26.632 15.9358 26.5249 15.9687 26.4516 16.0319C26.3782 16.095 26.3331 16.2018 26.3575 16.2911C26.4024 16.5155 26.4342 16.7342 26.4472 16.9606C26.4603 17.0766 26.5373 17.1885 26.6537 17.207L27.3694 17.388L27.1625 17.8039L26.2286 18.0655L25.7891 17.7822L25.3197 17.423C25.192 17.3209 25.0831 17.211 24.993 17.0935C24.9029 16.9759 24.719 16.5658 24.5652 16.2316C24.2425 15.5253 24.1318 15.2727 23.9571 15.245C23.8332 15.0972 23.7074 14.9171 23.6023 14.7615C23.2926 14.2816 23.0581 13.7708 22.8912 13.2103C22.8837 13.1913 22.8762 13.1723 22.8687 13.1533C22.3076 12.0922 20.5278 10.0192 20.4527 9.93961C20.4321 9.91497 20.3983 9.88469 20.3588 9.86776L17.0833 8.31981L17.217 7.74631L18.5502 2.82961L18.7008 2.43682C18.729 2.37007 18.7309 2.29203 18.7009 2.21606L18.7124 1.9686C18.7105 1.93625 18.7086 1.90391 18.7011 1.88492L18.5587 1.30328C18.5512 1.28429 18.5437 1.26529 18.5362 1.2463C18.4855 1.14569 18.4292 1.05843 18.3729 0.971168C18.1083 0.605194 17.7157 0.357853 17.263 0.289706C16.9267 0.240007 16.5961 0.287338 16.2897 0.423993C16.1959 0.241765 16.0645 0.0749496 15.903 -0.0574589C15.5519 -0.365906 15.1067 -0.525441 14.6408 -0.488851C14.3026 -0.460514 13.9756 -0.348495 13.7124 -0.130223C13.5529 -0.340668 13.3369 -0.527995 13.0928 -0.648571C12.6702 -0.861505 12.2005 -0.889601 11.7608 -0.731344C11.4526 -0.627032 11.1876 -0.441105 10.9714 -0.186909C10.8155 -0.332667 10.6352 -0.457367 10.438 -0.542019C9.60407 -0.884207 8.63437 -0.464474 8.29755 0.368871L2.87551 12.3475C2.84728 12.4143 2.84536 12.4923 2.87537 12.5683C2.88287 12.5873 2.89038 12.6063 2.89788 12.6253C2.91288 12.6633 2.9504 12.7582 2.95976 12.8096C3.03665 13.0319 3.08353 13.1782 3.26388 13.1925C3.48182 13.1914 3.8578 12.8165 3.88602 12.7497L9.29678 0.797774C9.40967 0.530774 9.71035 0.407469 9.97895 0.506988C10.1161 0.550073 10.225 0.659907 10.2775 0.792861C10.3432 0.931459 10.345 1.07418 10.3017 1.21333L9.90454 2.33625C9.80479 2.60889 9.93049 2.89944 10.1878 3.02565C10.3193 3.08209 10.4677 3.09847 10.6124 3.05017C10.7571 3.00187 10.8605 2.90429 10.9226 2.75744C10.9282 2.74409 10.9282 2.74409 10.9338 2.73074L11.6885 0.688735C11.8108 0.362691 12.1792 0.189567 12.506 0.29831C12.6826 0.358325 12.8178 0.479447 12.8853 0.650388C12.9528 0.821329 12.9508 1.00975 12.8831 1.16995C12.8774 1.1833 12.8718 1.19665 12.8662 1.21L12.2579 3.45681C12.1582 3.72945 12.2857 4.05234 12.5675 4.1575C12.8436 4.27602 13.1687 4.13165 13.2872 3.8513C13.2929 3.83795 13.2929 3.83795 13.2985 3.8246L14.125 1.0248C14.2737 0.710042 14.6307 0.563618 14.9388 0.680067C15.2731 0.807804 15.4419 1.17997 15.314 1.51936C15.3083 1.53271 15.3083 1.53271 15.3027 1.54606L14.5778 4.10557C14.478 4.37821 14.6112 4.68775 14.8742 4.80062C15.1503 4.91913 15.4698 4.78812 15.5939 4.49442C15.5996 4.48107 15.5996 4.48107 15.6052 4.46772L16.4035 1.73466C16.5221 1.45431 16.8472 1.30995 17.1346 1.40176C17.3694 1.471 17.5364 1.70044 17.5438 1.9402C17.5194 1.96125 17.5024 2.0013 17.4986 2.047L15.6984 8.65599L15.2842 10.0397C15.2579 10.1388 15.2822 10.2281 15.3442 10.302C15.4061 10.376 15.5038 10.4021 15.5996 10.3959C15.8214 10.3491 16.0449 10.3347 16.2554 10.3146C16.3831 10.3064 16.4809 10.2221 16.5129 10.1097L16.7087 9.38933L17.1107 9.57763L17.3393 10.5433L17.044 10.9844L16.6736 11.4563C16.5721 11.5862 16.4631 11.6971 16.3334 11.7834C16.2168 11.8754 15.8034 12.0449 15.4726 12.2026C14.766 12.5145 14.5161 12.628 14.4746 12.7995C14.3149 12.9202 14.1551 13.0409 13.9822 13.1559C13.4935 13.4667 12.9805 13.6881 12.4318 13.8469C12.413 13.8546 12.3942 13.8623 12.3754 13.87C11.3173 14.4253 9.21953 16.1905 9.12743 16.2614C9.10299 16.2824 9.07291 16.3168 9.05598 16.3569L7.42503 19.6631L2.04506 18.4264L1.48528 18.2808L1.47213 18.2751C1.45899 18.2695 1.42705 18.2716 1.09828 18.2409C1.06634 18.2429 1.0344 18.245 1.00246 18.247L0.427471 18.3946C0.408679 18.4023 0.389888 18.41 0.371095 18.4177C0.271489 18.4696 0.190675 18.5137 0.0985722 18.5846C-0.264196 18.8548 -0.510562 19.2538 -0.580363 19.7128C-0.631302 20.0537 -0.586421 20.3884 -0.453222 20.6979C-0.633643 20.794 -0.799058 20.928 -0.930673 21.0924C-1.23713 21.4498 -1.39711 21.9016 -1.36359 22.3734C-1.3375 22.7158 -1.22874 23.0464 -1.01472 23.3118C-1.22337 23.4746 -1.4095 23.6944 -1.5299 23.9424C-1.89108 24.6864 -1.69249 25.5761 -1.09912 26.0831C-1.25703 26.2362 -1.368 26.4251 -1.45267 26.6254C-1.79513 27.4721 -1.39932 28.4464 -0.565365 28.7886L11.2298 34.2143C11.2824 34.2368 11.3406 34.2461 11.3914 34.2363C11.4233 34.2342 11.4609 34.2188 11.4853 34.1978C11.6545 34.1284 11.7804 33.9774 11.8275 33.7926C11.8746 33.6077 11.8315 33.4157 11.7208 33.2736C11.687 33.2433 11.6532 33.213 11.6137 33.1961L-0.155169 27.7817C-0.418123 27.6688 -0.538173 27.3649 -0.438429 27.0923C-0.395131 26.9531 -0.286095 26.8422 -0.154549 26.7883C-0.0173579 26.721 0.123553 26.7184 0.260675 26.7615C0.273822 26.7671 0.28697 26.7727 0.28697 26.7727L0.696477 26.8696C0.957573 26.9502 1.2451 26.8212 1.35235 26.5676C1.4088 26.4341 1.4258 26.2836 1.37892 26.1373C1.33204 25.991 1.23629 25.8868 1.09167 25.8248C1.07852 25.8191 1.07852 25.8191 1.06537 25.8135L-0.26262 25.3539C-0.53122 25.2544 -0.700143 24.9926 -0.677427 24.7184C-0.658497 24.4899 -0.541888 24.2876 -0.355823 24.1782C-0.169758 24.0688 0.0406757 24.0487 0.237892 24.1334L0.251038 24.139L1.81569 24.7002C2.09179 24.8187 2.41691 24.6744 2.53544 24.394C2.65398 24.1137 2.52643 23.7908 2.23717 23.6666C2.23717 23.6666 2.23718 23.6666 2.22403 23.661L0.114675 22.8818C-0.200871 22.7463 -0.34343 22.3854 -0.221108 22.0594C-0.166521 21.8935 -0.0330481 21.7616 0.122936 21.6866C0.278919 21.6116 0.451768 21.6069 0.615185 21.6613L3.00064 22.559C3.28239 22.6642 3.58871 22.5275 3.70725 22.2471C3.82578 21.9668 3.69823 21.6439 3.40898 21.5198L0.852604 20.5486C0.563353 20.4245 0.417007 20.1093 0.514893 19.8043C0.563836 19.6518 0.665369 19.5219 0.808205 19.4413C0.95104 19.3606 1.11074 19.3503 1.26101 19.399L1.27416 19.4047L6.88136 20.802L9.00572 21.6192C9.09776 21.6587 9.19922 21.6392 9.27253 21.576C9.34584 21.5128 9.391 21.406 9.36663 21.3167C9.32168 21.0924 9.30867 20.866 9.29002 20.6529C9.28258 20.5236 9.19998 20.425 9.08915 20.3932L8.35281 20.1876L8.54844 19.7983L9.52179 19.5537L9.9556 19.8503L10.4194 20.2229C10.5471 20.325 10.656 20.4348 10.7405 20.5657C10.8306 20.6833 10.9956 21.1011 11.1495 21.4353C11.4534 22.1493 11.5641 22.4019 11.7332 22.4429C11.8514 22.6041 11.9697 22.7653 12.0823 22.9398C12.3863 23.4331 12.6021 23.9515 12.7558 24.5065C12.7633 24.5255 12.7708 24.5445 12.7783 24.5635C13.3056 25.5942 13.8836 26.6152 14.5161 27.5807C14.518 27.613 14.5199 27.6454 14.5405 27.67C14.5837 27.7516 14.6569 27.7989 14.7414 27.8194L15.2411 27.9234L18.4565 29.5402L17.0535 34.9159C17.0366 34.9559 17.0403 35.0206 17.0553 35.0586L17.0628 35.0776L17.0195 35.2167C16.9856 35.2968 16.9649 35.3826 16.9573 35.474C16.9517 35.4873 16.9517 35.4873 16.9592 35.5063L16.9516 35.5977L16.9291 35.6511C16.9065 35.7045 16.9102 35.7692 16.9327 35.8262C16.9271 35.8395 16.9346 35.8585 16.9421 35.8775L17.0845 36.4591C17.092 36.4781 17.0995 36.4971 17.107 36.5161C17.1577 36.6167 17.2008 36.6984 17.2703 36.7913C17.458 37.0453 17.6927 37.225 17.9688 37.3435C18.1003 37.3999 18.2374 37.443 18.3858 37.4594C18.7221 37.5091 19.0528 37.4617 19.3591 37.3251C19.4529 37.5073 19.5843 37.6741 19.7458 37.8065C20.3805 38.3629 21.2917 38.3754 21.9364 37.8793C22.096 38.0897 22.3119 38.2771 22.5561 38.3976C22.9655 38.6049 23.4483 38.6387 23.8881 38.4804C24.1962 38.3761 24.4613 38.1902 24.6775 37.936C24.8333 38.0817 25.0136 38.2064 25.2108 38.2911C26.0448 38.6333 27.0145 38.2136 27.3513 37.3802L32.779 25.3882C32.8072 25.3214 32.8148 25.23 32.7791 25.1674C32.7716 25.1484 32.7585 25.1428 32.751 25.1238C32.736 25.0858 32.6984 24.9908 32.6891 24.9395C32.6122 24.7172 32.5653 24.5709 32.385 24.5566C32.167 24.5577 31.791 24.9326 31.7628 24.9993L26.3521 36.9513C26.2392 37.2183 25.9385 37.3416 25.6699 37.2421C25.3881 37.1369 25.2418 36.8217 25.3472 36.5358C25.3528 36.5224 25.3585 36.5091 25.3585 36.5091L25.4564 36.0937C25.5374 35.8287 25.4117 35.5382 25.1619 35.431C24.8914 35.2991 24.5588 35.4245 24.4271 35.6992C24.4215 35.7125 24.4215 35.7125 24.4158 35.7259L23.9547 37.0737C23.8324 37.3997 23.464 37.5729 23.1372 37.4641C22.9606 37.4041 22.8254 37.283 22.7579 37.112C22.6904 36.9411 22.6924 36.7527 22.7601 36.5925L22.7658 36.5791L23.3285 34.991C23.447 34.7107 23.3063 34.3821 23.0302 34.2636C22.8988 34.2072 22.7447 34.2042 22.6075 34.2715C22.4703 34.3388 22.3669 34.4363 22.3048 34.5832L21.5238 36.7243C21.3883 37.0447 21.0313 37.1911 20.7101 37.069C20.3758 36.9413 20.2069 36.5691 20.3349 36.2297L21.2344 33.8083C21.3398 33.5223 21.2198 33.2184 20.9437 33.0999C20.6676 32.9813 20.3481 33.1124 20.2239 33.4061L19.251 36.0011C19.1268 36.2948 18.8148 36.4448 18.5143 36.3473C18.364 36.2986 18.2363 36.1965 18.1575 36.0522C18.0787 35.908 18.0694 35.7463 18.1183 35.5938L18.124 35.5804L18.9923 32.0572L19.8188 29.2574C19.8357 29.2174 19.832 29.1527 19.817 29.1147L20.3345 27.7438C20.374 27.6503 20.3553 27.5476 20.2934 27.4737C20.2314 27.3998 20.1262 27.3547 20.0379 27.3799C19.8162 27.4266 19.5926 27.4411 19.3822 27.4612C19.2544 27.4694 19.1567 27.5536 19.1247 27.6661L18.893 28.5446L18.7278 28.4579L18.5407 27.2104L19.3286 25.9713C19.4715 25.8907 19.8586 25.7098 20.1649 25.5732C20.8715 25.2613 21.1215 25.1478 21.1629 24.9763C21.3227 24.8556 21.4825 24.7349 21.6554 24.6199C22.144 24.3091 22.6571 24.0877 23.2058 23.9289C23.2246 23.9212 23.2434 23.9135 23.2621 23.9058C24.2826 23.3659 25.2938 22.7747 26.2505 22.1285C26.2824 22.1265 26.3144 22.1244 26.3388 22.1033C26.4196 22.0592 26.4666 21.9847 26.4873 21.899L26.5929 21.3922L28.2069 18.126L33.506 19.5173C33.6168 19.5491 33.7296 19.5028 33.7954 19.4207C33.8311 19.3729 33.8537 19.3195 33.8574 19.2738L34.3065 19.2773C34.3253 19.2696 34.3516 19.2809 34.3703 19.2731C34.3835 19.2788 34.3835 19.2788 34.4023 19.2711L34.6785 19.2792C34.7104 19.2772 34.7423 19.2751 34.7611 19.2674L35.3418 19.1065C35.3606 19.0988 35.3794 19.0911 35.3981 19.0834C35.4978 19.0315 35.5842 18.974 35.6575 18.9108C36.1087 18.5051 36.3419 18.1005 36.3929 17.6492ZM20.0247 24.472C19.5024 24.5317 19.0081 24.7454 18.5983 25.09C18.5927 25.1034 18.5739 25.1111 18.5683 25.1244L17.2315 26.6327C17.177 26.6881 17.1563 26.7739 17.1675 26.8576L17.2385 27.5347L15.3904 26.6152C14.8686 25.7919 14.3769 24.9342 13.9359 24.0667C13.6285 22.9568 13.0505 21.9358 12.2469 21.1177C12.2021 20.6726 12.0501 20.2604 11.8043 19.8867C11.8043 19.8867 11.8043 19.8867 11.8099 19.8733C11.8363 19.7743 11.7913 19.6603 11.7237 19.5997L10.1351 18.2869C10.075 18.2454 10.0092 18.2171 9.92655 18.229L9.41737 18.2943L10.3711 16.3693C11.1868 15.8362 12.0363 15.3333 12.8952 14.8818C13.9926 14.5642 15.0037 13.9729 15.8159 13.1543C16.2555 13.1065 16.6633 12.9503 17.0336 12.6991L17.0467 12.7048C17.1444 12.7309 17.2571 12.6847 17.3173 12.6159L18.0713 11.6777L18.6485 11.0106C18.703 10.9551 18.7181 10.8827 18.72 10.8047L18.6771 10.2815L20.3844 11.0932C20.925 11.9089 21.4354 12.7589 21.8952 13.6187C22.2214 14.7209 22.837 15.7264 23.6463 16.5312C23.7099 16.9686 23.8618 17.3808 24.1133 17.7411C24.1133 17.7411 24.1133 17.7411 24.1077 17.7545C24.0945 17.8592 24.132 17.9542 24.2127 18.0204L25.8314 19.2988C25.8915 19.3404 25.9572 19.3686 26.0399 19.3567L26.4721 19.2899L25.4845 21.295C24.6688 21.8281 23.8192 22.331 22.9604 22.7825C21.848 23.0622 20.8368 23.6534 20.0247 24.472Z" fill="#30C4AE"/>
<path d="M14.0856 33.7446C13.8545 33.8504 13.6853 34.0301 13.5968 34.2761C13.514 34.5087 13.5158 34.7618 13.619 34.9953C13.7146 35.2099 13.878 35.3747 14.1015 35.4706C14.1147 35.4763 14.1278 35.4819 14.141 35.4875C14.3701 35.5701 14.62 35.567 14.8511 35.4612C15.0823 35.3554 15.2515 35.1756 15.3399 34.9297C15.4227 34.6971 15.421 34.444 15.3178 34.2104C15.1039 33.7243 14.5536 33.5196 14.0856 33.7446Z" fill="#30C4AE"/>
<path d="M20.6656 3.71512C20.9023 3.81671 21.1653 3.8192 21.4152 3.70567C21.8775 3.49402 22.0826 2.93537 21.8819 2.45487C21.6755 1.98773 21.1252 1.78303 20.6498 1.98904C20.1875 2.2007 19.9823 2.75934 20.1831 3.23984C20.2919 3.46006 20.4684 3.63046 20.6656 3.71512Z" fill="#30C4AE"/>
<path d="M1.76319 16.398C1.77634 16.4037 1.78949 16.4093 1.80263 16.4149C2.03179 16.4975 2.28166 16.4944 2.51281 16.3886C2.9751 16.1769 3.18022 15.6183 2.97948 15.1378C2.77311 14.6706 2.22276 14.4659 1.74732 14.672C1.51617 14.7778 1.34698 14.9575 1.25853 15.2035C1.17573 15.4361 1.17746 15.6892 1.28065 15.9227C1.37633 16.1373 1.55283 16.3077 1.76319 16.398Z" fill="#30C4AE"/>
<path d="M32.9886 21.0608C32.5263 21.2724 32.3211 21.8311 32.5219 22.3116C32.6176 22.5262 32.7809 22.6909 33.0044 22.7869C33.0176 22.7925 33.0307 22.7982 33.0439 22.8038C33.273 22.8864 33.5229 22.8832 33.754 22.7774C34.2163 22.5658 34.4214 22.0071 34.2207 21.5266C34.0068 21.0405 33.4565 20.8358 32.9886 21.0608Z" fill="#30C4AE"/>
<path d="M21.4746 17.1589C21.2082 16.54 20.7784 15.977 20.2169 15.5784C20.0028 15.4235 19.7642 15.2896 19.5013 15.1768C17.5684 14.3475 15.3449 15.2704 14.5204 17.2194C14.3171 17.6999 14.2115 18.2066 14.2074 18.6938C14.1956 19.3827 14.3755 20.0592 14.7039 20.6417C15.1036 21.3494 15.7138 21.9266 16.5027 22.2651C18.4356 23.0943 20.6723 22.1771 21.5024 20.2148C21.9316 19.2003 21.9004 18.0987 21.4746 17.1589ZM16.9093 21.304C15.5024 20.7004 14.8441 19.0616 15.454 17.6199C15.5726 17.3396 15.7306 17.0762 15.9356 16.8487C16.0258 16.7454 16.1105 16.6556 16.2082 16.5713C16.6238 16.2134 17.1557 15.9842 17.6969 15.9167C18.1554 15.8611 18.627 15.9215 19.0872 16.1189C19.863 16.4517 20.4205 17.1168 20.6436 17.8749C20.8254 18.4733 20.8136 19.1622 20.5425 19.803C19.959 21.256 18.3162 21.9076 16.9093 21.304Z" fill="#30C4AE"/>
</g>
<defs>
<clipPath id="clip0">
<rect width="41" height="42" fill="white"/>
</clipPath>
</defs>
</svg>
