<svg width="16" height="18" viewBox="0 0 16 18" fill="none" xmlns="http://www.w3.org/2000/svg">
<path d="M11.0552 1.66299H3.6189C3.77908 0.718903 4.60092 0 5.59064 0H13.3003C14.4049 0 15.3003 0.895432 15.3003 2V12.9674C15.3003 14.072 14.4049 14.9674 13.3003 14.9674H13.0269C13.0455 14.8578 13.0552 14.7452 13.0552 14.6304V3.66299C13.0552 2.55843 12.1597 1.66299 11.0552 1.66299Z" fill="#30C4AE"/>
<path fill-rule="evenodd" clip-rule="evenodd" d="M0 5C0 3.89543 0.895416 3 2 3H10C11.1046 3 12 3.89543 12 5V16C12 17.1046 11.1046 18 10 18H2C0.895416 18 0 17.1046 0 16V5ZM2 4H10C10.5523 4 11 4.44771 11 5V16C11 16.5523 10.5523 17 10 17H2C1.44772 17 1 16.5523 1 16V5C1 4.44771 1.44772 4 2 4Z" fill="#30C4AE"/>
</svg>
