<svg width="24" height="21" viewBox="0 0 24 21" fill="none" xmlns="http://www.w3.org/2000/svg">
<path d="M4.82663 8.26326C4.82663 9.16003 4.09203 9.88689 3.19524 9.88689C2.29845 9.88689 1.56384 9.16947 1.56384 8.28214V6.86618C1.56384 6.50747 1.26809 6.22428 0.915099 6.22428C0.552567 6.22428 0.266357 6.51691 0.266357 6.86618V8.26326C0.266357 8.26326 0.266357 8.26326 0.266357 8.2727C0.266357 8.28214 0.266357 8.28214 0.266357 8.29158V8.3671C0.314059 9.72641 1.29671 10.8592 2.60374 11.1235V15.107C1.20131 15.3997 0.151873 16.6835 0.266357 18.1749C0.371301 19.6003 1.54476 20.752 2.98535 20.8464C4.70261 20.9691 6.13366 19.6192 6.13366 17.9484C6.13366 16.5891 5.17963 15.4469 3.90122 15.1259V11.0857C5.15101 10.7742 6.08596 9.66978 6.12412 8.34822V6.85674C6.12412 6.49803 5.82837 6.21484 5.47538 6.21484C5.11284 6.21484 4.82663 6.50747 4.82663 6.85674V8.26326ZM4.82663 17.9484C4.82663 18.8357 4.09203 19.5626 3.19524 19.5626C2.29845 19.5626 1.56384 18.8357 1.56384 17.9484C1.56384 17.0611 2.29845 16.3342 3.19524 16.3342C4.09203 16.3342 4.82663 17.0516 4.82663 17.9484Z" fill="#30C4AE"/>
<path d="M10.3792 13.4175H22.4572C22.8198 13.4175 23.106 13.1248 23.106 12.7756C23.106 12.4169 22.8102 12.1337 22.4572 12.1337H10.3792C10.0167 12.1337 9.73045 12.4263 9.73045 12.7756C9.72091 13.1343 10.0167 13.4175 10.3792 13.4175Z" fill="#30C4AE"/>
<path d="M15.2447 9.94383H22.4572C22.8197 9.94383 23.1059 9.6512 23.1059 9.30193C23.1059 8.94322 22.8101 8.66003 22.4572 8.66003H15.2447C14.8821 8.66003 14.5959 8.95266 14.5959 9.30193C14.5864 9.6512 14.8821 9.94383 15.2447 9.94383Z" fill="#30C4AE"/>
<path d="M12.9366 8.65057H10.4555C10.0929 8.65057 9.80664 8.94321 9.80664 9.29248C9.80664 9.65119 10.1025 9.93438 10.4555 9.93438H12.9366C13.2992 9.93438 13.5854 9.64175 13.5854 9.29248C13.5854 8.94321 13.2992 8.65057 12.9366 8.65057Z" fill="#30C4AE"/>
<path d="M10.3792 16.1079H22.4572C22.8198 16.1079 23.106 15.8153 23.106 15.466C23.106 15.1073 22.8102 14.8241 22.4572 14.8241H10.3792C10.0167 14.8241 9.73045 15.1167 9.73045 15.466C9.72091 15.8153 10.0167 16.1079 10.3792 16.1079Z" fill="#30C4AE"/>
<path d="M10.3792 18.8169H22.4572C22.8198 18.8169 23.106 18.5243 23.106 18.175C23.106 17.8163 22.8102 17.5331 22.4572 17.5331H10.3792C10.0167 17.5331 9.73045 17.8258 9.73045 18.175C9.72091 18.5243 10.0167 18.8169 10.3792 18.8169Z" fill="#30C4AE"/>
</svg>
