<svg width="33" height="26" viewBox="0 0 33 26" fill="none" xmlns="http://www.w3.org/2000/svg">
<path d="M9.82663 9.26326C9.82663 10.16 9.09203 10.8869 8.19524 10.8869C7.29845 10.8869 6.56384 10.1695 6.56384 9.28214V7.86618C6.56384 7.50747 6.26809 7.22428 5.9151 7.22428C5.55257 7.22428 5.26636 7.51691 5.26636 7.86618V9.26326C5.26636 9.26326 5.26636 9.26326 5.26636 9.2727C5.26636 9.28214 5.26636 9.28214 5.26636 9.29158V9.3671C5.31406 10.7264 6.29671 11.8592 7.60374 12.1235V16.107C6.20131 16.3997 5.15187 17.6835 5.26636 19.1749C5.3713 20.6003 6.54476 21.752 7.98535 21.8464C9.70261 21.9691 11.1337 20.6192 11.1337 18.9484C11.1337 17.5891 10.1796 16.4469 8.90122 16.1259V12.0857C10.151 11.7742 11.086 10.6698 11.1241 9.34822V7.85674C11.1241 7.49803 10.8284 7.21484 10.4754 7.21484C10.1128 7.21484 9.82663 7.50747 9.82663 7.85674V9.26326ZM9.82663 18.9484C9.82663 19.8357 9.09203 20.5626 8.19524 20.5626C7.29845 20.5626 6.56384 19.8357 6.56384 18.9484C6.56384 18.0611 7.29845 17.3342 8.19524 17.3342C9.09203 17.3342 9.82663 18.0516 9.82663 18.9484Z" fill="#8C9C9A"/>
<path d="M15.3789 14.4175H27.457C27.8195 14.4175 28.1057 14.1248 28.1057 13.7756C28.1057 13.4169 27.81 13.1337 27.457 13.1337H15.3789C15.0164 13.1337 14.7302 13.4263 14.7302 13.7756C14.7207 14.1343 15.0164 14.4175 15.3789 14.4175Z" fill="#8C9C9A"/>
<path d="M20.2447 10.9438H27.4572C27.8197 10.9438 28.1059 10.6512 28.1059 10.3019C28.1059 9.94322 27.8101 9.66003 27.4572 9.66003H20.2447C19.8821 9.66003 19.5959 9.95266 19.5959 10.3019C19.5864 10.6512 19.8821 10.9438 20.2447 10.9438Z" fill="#8C9C9A"/>
<path d="M17.9366 9.65051H15.4555C15.0929 9.65051 14.8066 9.94315 14.8066 10.2924C14.8066 10.6511 15.1025 10.9343 15.4555 10.9343H17.9366C18.2992 10.9343 18.5854 10.6417 18.5854 10.2924C18.5854 9.94315 18.2992 9.65051 17.9366 9.65051Z" fill="#8C9C9A"/>
<path d="M15.3789 17.1079H27.457C27.8195 17.1079 28.1057 16.8153 28.1057 16.466C28.1057 16.1073 27.81 15.8241 27.457 15.8241H15.3789C15.0164 15.8241 14.7302 16.1167 14.7302 16.466C14.7207 16.8153 15.0164 17.1079 15.3789 17.1079Z" fill="#8C9C9A"/>
<path d="M15.3789 19.8169H27.457C27.8195 19.8169 28.1057 19.5242 28.1057 19.175C28.1057 18.8163 27.81 18.5331 27.457 18.5331H15.3789C15.0164 18.5331 14.7302 18.8257 14.7302 19.175C14.7207 19.5242 15.0164 19.8169 15.3789 19.8169Z" fill="#8C9C9A"/>
</svg>
