<svg width="26" height="21" viewBox="0 0 26 21" fill="none" xmlns="http://www.w3.org/2000/svg">
<path d="M17.3345 8.65428L7.81847 8.65428C7.53284 8.65428 7.30734 8.88734 7.30734 9.16552C7.30734 9.45121 7.54036 9.67676 7.81847 9.67676L17.3345 9.67676C17.6201 9.67676 17.8456 9.44369 17.8456 9.16552C17.8532 8.87983 17.6201 8.65428 17.3345 8.65428Z" fill="#8C9C9A"/>
<path d="M13.501 12.2838L7.81846 12.2838C7.53282 12.2838 7.30732 12.5169 7.30732 12.795C7.30732 13.0807 7.54034 13.3063 7.81846 13.3063L13.501 13.3063C13.7867 13.3063 14.0122 13.0732 14.0122 12.795C14.0197 12.5169 13.7867 12.2838 13.501 12.2838Z" fill="#8C9C9A"/>
<path d="M15.3195 13.3138L17.2743 13.3138C17.56 13.3138 17.7855 13.0808 17.7855 12.8026C17.7855 12.5169 17.5525 12.2914 17.2743 12.2914L15.3195 12.2914C15.0338 12.2914 14.8083 12.5244 14.8083 12.8026C14.8083 13.0808 15.0338 13.3138 15.3195 13.3138Z" fill="#8C9C9A"/>
<path d="M7.98974 19.4336L9.30541 19.4336C9.59111 19.4336 9.81665 19.2005 9.81665 18.9224C9.81665 18.6367 9.58359 18.4111 9.30541 18.4111L7.98974 18.4111C7.70405 18.4111 7.4785 18.6442 7.4785 18.9224C7.4785 19.208 7.71156 19.4336 7.98974 19.4336Z" fill="#8C9C9A"/>
<path d="M17.3345 5.2169L7.81847 5.2169C7.53284 5.2169 7.30734 5.44997 7.30734 5.72814C7.30734 6.01383 7.54036 6.23938 7.81847 6.23938L17.3345 6.23938C17.6201 6.23938 17.8456 6.00631 17.8456 5.72814C17.8532 5.44997 17.6201 5.2169 17.3345 5.2169Z" fill="#8C9C9A"/>
<path d="M3.69066 19.3812L6.05088 19.3812C6.29893 19.3812 6.50188 19.1782 6.50188 18.9301C6.50188 18.682 6.29893 18.479 6.05088 18.479L3.69066 18.479C2.15727 18.479 0.901995 17.2234 0.901995 15.6897L0.901996 3.98383C0.901996 2.45012 2.15727 1.19458 3.69066 1.19458L22.3093 1.19458C23.8427 1.19458 25.098 2.45012 25.098 3.98384L25.098 15.6897C25.098 17.2234 23.8427 18.479 22.3093 18.479L20.0318 18.479L18.521 19.9901C18.3781 20.133 18.1526 20.133 18.0173 19.9901L16.5065 18.479L11.1096 18.479C10.8615 18.479 10.6586 18.682 10.6586 18.9301C10.6586 19.1782 10.8615 19.3812 11.1096 19.3812L16.1382 19.3812L17.3484 20.6066C17.5739 20.8322 17.867 20.975 18.1827 20.9976C18.551 21.0201 18.8968 20.8848 19.1524 20.6292L20.4001 19.3812L22.3093 19.3812C24.3388 19.3812 25.9925 17.7271 26 15.6897L26 3.98384C26 1.95392 24.3463 0.299909 22.3093 0.292391L3.69066 0.292389C1.66118 0.292389 0.00751853 1.9464 1.4876e-06 3.98383L4.64241e-07 15.6897C2.86779e-07 17.7196 1.65366 19.3736 3.69066 19.3812Z" fill="#8C9C9A"/>
</svg>
