<svg width="99" height="83" viewBox="0 0 99 83" fill="none" xmlns="http://www.w3.org/2000/svg">
<path d="M8.35693 67.3359H9.25781V78H8.35693V68.874L2.28516 78H1.37695V67.3359H2.28516V76.4546L8.35693 67.3359ZM18.2176 70.0752V78H17.3387V70.8296H14.094L13.9549 73.7959C13.8963 74.8945 13.7864 75.7344 13.6253 76.3154C13.4642 76.8916 13.2249 77.3164 12.9075 77.5898C12.5901 77.8633 12.1678 78 11.6404 78H11.3035V77.2236L11.5745 77.209C12.0774 77.1992 12.4388 76.9551 12.6585 76.4766C12.8782 75.998 13.0223 75.1436 13.0906 73.9131L13.2518 70.0752H18.2176ZM26.8697 70.0752V78H25.9908V70.8296H22.7462L22.607 73.7959C22.5484 74.8945 22.4386 75.7344 22.2774 76.3154C22.1163 76.8916 21.8771 77.3164 21.5597 77.5898C21.2423 77.8633 20.8199 78 20.2926 78H19.9557V77.2236L20.2267 77.209C20.7296 77.1992 21.0909 76.9551 21.3106 76.4766C21.5304 75.998 21.6744 75.1436 21.7428 73.9131L21.9039 70.0752H26.8697ZM30.3949 73.686H32.6581C32.6825 72.9634 32.8485 72.314 33.1562 71.7378C33.4638 71.1567 33.8813 70.71 34.4086 70.3975C34.9359 70.085 35.5268 69.9287 36.1811 69.9287C37.2309 69.9287 38.0829 70.2998 38.7372 71.042C39.3964 71.7842 39.726 72.7656 39.726 73.9863V74.1621C39.726 74.9238 39.5771 75.6123 39.2792 76.2275C38.9813 76.8428 38.5639 77.3164 38.0268 77.6484C37.4896 77.9805 36.8793 78.1465 36.1957 78.1465C35.185 78.1465 34.3549 77.8047 33.7055 77.1211C33.0561 76.4326 32.7069 75.5366 32.6581 74.4331H30.3949V78H29.5233V70.0752H30.3949V73.686ZM33.5224 74.1621C33.5224 75.1094 33.7665 75.8882 34.2548 76.4985C34.7479 77.104 35.3949 77.4067 36.1957 77.4067C36.9818 77.4067 37.619 77.104 38.1073 76.4985C38.6005 75.8882 38.8471 75.085 38.8471 74.0889V73.9204C38.8471 72.9829 38.6005 72.209 38.1073 71.5986C37.6142 70.9834 36.9721 70.6758 36.1811 70.6758C35.3949 70.6758 34.7553 70.9834 34.2621 71.5986C33.7689 72.209 33.5224 73.0098 33.5224 74.001V74.1621ZM44.76 77.4067C45.3703 77.4067 45.8806 77.2358 46.2907 76.894C46.7058 76.5474 46.9304 76.1006 46.9646 75.5537H47.8068C47.7824 76.0371 47.6311 76.479 47.3527 76.8794C47.0744 77.2749 46.7033 77.585 46.2395 77.8096C45.7805 78.0342 45.2873 78.1465 44.76 78.1465C43.7199 78.1465 42.8947 77.7852 42.2844 77.0625C41.6789 76.3398 41.3762 75.3682 41.3762 74.1475V73.8838C41.3762 73.1025 41.5129 72.4116 41.7863 71.811C42.0598 71.2104 42.4504 70.7466 42.9582 70.4194C43.4709 70.0923 44.069 69.9287 44.7526 69.9287C45.6218 69.9287 46.3371 70.1875 46.8986 70.7051C47.465 71.2227 47.7678 71.9038 47.8068 72.7485H46.9646C46.9255 72.1284 46.7009 71.6279 46.2907 71.2471C45.8854 70.8662 45.3728 70.6758 44.7526 70.6758C43.9616 70.6758 43.3464 70.9614 42.9069 71.5327C42.4724 72.104 42.2551 72.9048 42.2551 73.9351V74.1914C42.2551 75.2021 42.4724 75.9907 42.9069 76.5571C43.3464 77.1235 43.9641 77.4067 44.76 77.4067ZM55.4556 70.8223H52.5698V78H51.6909V70.8223H48.915V70.0752H55.4556V70.8223ZM63.4705 74.1182C63.4705 75.3535 63.1971 76.335 62.6502 77.0625C62.1033 77.7852 61.3709 78.1465 60.4529 78.1465C59.3689 78.1465 58.5389 77.7656 57.9627 77.0039V81.0469H57.0911V70.0752H57.9041L57.948 71.1958C58.5193 70.3511 59.347 69.9287 60.431 69.9287C61.3782 69.9287 62.1204 70.2876 62.6575 71.0054C63.1995 71.7231 63.4705 72.7192 63.4705 73.9937V74.1182ZM62.5916 73.9644C62.5916 72.9536 62.3841 72.1553 61.969 71.5693C61.554 70.9834 60.9754 70.6904 60.2332 70.6904C59.6961 70.6904 59.2347 70.8198 58.8489 71.0786C58.4632 71.3374 58.1678 71.7134 57.9627 72.2065V76.0078C58.1727 76.4619 58.4729 76.8086 58.8636 77.0479C59.2542 77.2871 59.7156 77.4067 60.2479 77.4067C60.9852 77.4067 61.5589 77.1138 61.969 76.5278C62.3841 75.937 62.5916 75.0825 62.5916 73.9644ZM70.6212 78C70.5333 77.751 70.4771 77.3823 70.4527 76.894C70.1451 77.2944 69.7521 77.6045 69.2735 77.8242C68.7999 78.0391 68.297 78.1465 67.7647 78.1465C67.003 78.1465 66.3854 77.9341 65.9117 77.5093C65.443 77.0845 65.2086 76.5474 65.2086 75.8979C65.2086 75.1265 65.5284 74.5161 66.1681 74.0669C66.8126 73.6177 67.7086 73.3931 68.8561 73.3931H70.4454V72.4922C70.4454 71.9258 70.2696 71.4814 69.9181 71.1592C69.5714 70.832 69.0636 70.6685 68.3946 70.6685C67.7843 70.6685 67.2789 70.8247 66.8785 71.1372C66.4781 71.4497 66.2779 71.8257 66.2779 72.2651L65.399 72.2578C65.399 71.6279 65.692 71.0835 66.2779 70.6245C66.8639 70.1606 67.5841 69.9287 68.4386 69.9287C69.3224 69.9287 70.0182 70.1509 70.526 70.5952C71.0387 71.0347 71.3023 71.6499 71.317 72.4409V76.1909C71.317 76.9575 71.3976 77.5312 71.5587 77.9121V78H70.6212ZM67.8673 77.3701C68.4532 77.3701 68.9757 77.2285 69.4347 76.9453C69.8985 76.6621 70.2355 76.2837 70.4454 75.8101V74.0669H68.878C68.004 74.0767 67.3204 74.2378 66.8272 74.5503C66.3341 74.8579 66.0875 75.2827 66.0875 75.8247C66.0875 76.269 66.2511 76.6377 66.5782 76.9307C66.9103 77.2236 67.3399 77.3701 67.8673 77.3701ZM73.9193 70.0752H74.7982V77.2603H79.0683V70.0752H79.9472V77.2603H80.7528L80.6869 80.3511H79.8812V78H73.9193V70.0752ZM87.8083 70.0752H88.6872V78H87.8083V71.4888L83.531 78H82.6594V70.0752H83.531V76.5938L87.8083 70.0752ZM96.4458 70.0752H97.3247V78H96.4458V71.4888L92.1685 78H91.2969V70.0752H92.1685V76.5938L96.4458 70.0752Z" fill="#30C4AE"/>
<path d="M71.8084 51.5145H50.5318C49.9446 51.5145 49.468 51.0373 49.468 50.4516C49.468 49.8658 49.9446 49.3886 50.5318 49.3886H70.7446V18.5619C70.7446 17.9762 71.2223 17.4989 71.8084 17.4989C72.3946 17.4989 72.8723 17.9762 72.8723 18.5619V50.4516C72.8723 50.7311 72.7584 51.0054 72.5604 51.2031C72.3627 51.4008 72.0882 51.5145 71.8084 51.5145ZM45.2127 51.5145C44.6254 51.5145 44.1489 51.0373 44.1489 50.4516C44.1489 49.8658 44.6254 49.3886 45.2127 49.3886C45.7989 49.3886 46.2765 49.8658 46.2765 50.4516C46.2765 51.0373 45.7989 51.5145 45.2127 51.5145ZM39.8935 51.5145H29.2552C28.9754 51.5145 28.701 51.4009 28.5031 51.2031C28.3052 51.0054 28.1914 50.7322 28.1914 50.4516V7.93201C28.1914 7.65244 28.3052 7.37819 28.5031 7.18047C28.701 6.98276 28.9754 6.86902 29.2552 6.86902H71.8084C72.0765 6.86902 72.3329 6.96894 72.5308 7.15177L72.5371 7.15709C72.5446 7.16453 72.5531 7.17303 72.5606 7.18047C72.5691 7.18792 72.5765 7.19642 72.5841 7.20492C72.5851 7.20599 72.5862 7.20705 72.5871 7.20811L72.5903 7.2113C72.7723 7.40795 72.8723 7.66413 72.8723 7.93201C72.8723 8.51878 72.3946 8.995 71.8084 8.995C71.801 8.995 71.7946 8.995 71.7871 8.995H30.3191V49.3886H39.8935C40.4797 49.3886 40.9574 49.8658 40.9574 50.4516C40.9574 51.0373 40.4797 51.5145 39.8935 51.5145ZM71.8084 14.3099C71.2223 14.3099 70.7446 13.8337 70.7446 13.247C70.7446 12.6612 71.2223 12.184 71.8084 12.184C72.3946 12.184 72.8723 12.6612 72.8723 13.247C72.8723 13.8337 72.3946 14.3099 71.8084 14.3099Z" fill="#067362"/>
<path d="M70.6034 9.00134H32.8119C32.2246 9.00134 31.748 8.52512 31.748 7.93835C31.748 7.35264 32.2246 6.87536 32.8119 6.87536H70.6034C71.2108 6.87429 71.7821 6.63618 72.2119 6.20461C72.6374 5.7741 72.8725 5.20753 72.8725 4.608C72.8672 3.30903 71.8704 2.29175 70.6034 2.29175H65.7204C65.1332 2.29175 64.6566 1.81447 64.6566 1.22876C64.6566 0.641991 65.1332 0.165771 65.7204 0.165771H70.6076C71.2043 0.165771 71.7842 0.284826 72.331 0.518684C72.8575 0.7451 73.3278 1.06719 73.7278 1.47644C74.1278 1.88356 74.4417 2.35872 74.6608 2.88915C74.8863 3.43553 75.0002 4.01379 75.0002 4.608C75.0002 5.19477 74.8853 5.7656 74.6587 6.30453C74.4394 6.82646 74.1245 7.29736 73.7236 7.7013C72.8938 8.53787 71.7863 9.00027 70.6034 9.00134ZM34.6746 5.62209C34.0874 5.62209 33.6108 5.14481 33.6108 4.5591C33.6097 3.56521 33.1363 2.67124 32.3108 2.10679C32.1215 1.97817 31.9821 1.79533 31.9055 1.57955C31.83 1.3627 31.8257 1.13309 31.8927 0.915179C31.9608 0.697266 32.0938 0.509117 32.2778 0.374117C32.4629 0.236992 32.681 0.165771 32.9097 0.165771H55.0821C55.6684 0.165771 56.1459 0.641991 56.1459 1.22876C56.1459 1.24789 56.1449 1.26597 56.1438 1.28297C56.115 1.84848 55.6491 2.29175 55.0821 2.29175H35.2055C35.5597 3.00076 35.7385 3.76399 35.7385 4.5591C35.7385 5.14481 35.2608 5.62209 34.6746 5.62209ZM60.4012 2.29175C59.814 2.29175 59.3374 1.81447 59.3374 1.22876C59.3374 0.641991 59.814 0.165771 60.4012 0.165771C60.9875 0.165771 61.4651 0.641991 61.4651 1.22876C61.4651 1.81447 60.9874 2.29175 60.4012 2.29175Z" fill="#067362"/>
<path d="M29.2553 29.1918H26.0638C25.784 29.1918 25.5096 29.0782 25.3117 28.8803C25.1138 28.6826 25 28.4084 25 28.1288V5.80604C24.9989 4.24558 25.5585 2.79247 26.5745 1.71354C27.0755 1.17779 27.6723 0.755785 28.3468 0.460274C29.0436 0.154133 29.7883 0 30.5606 0H30.5713C30.7447 0 30.9192 0.00744093 31.0915 0.0223228C31.0926 0.0223228 31.0926 0.0223228 31.0926 0.0233858L32.9915 0.169015C33.1766 0.182834 33.3553 0.24555 33.5085 0.350786C34.9053 1.30004 35.7383 2.87326 35.7383 4.55916C35.7383 5.14487 35.2606 5.62215 34.6745 5.62215C34.0872 5.62215 33.6106 5.14487 33.6106 4.55916C33.6096 3.66731 33.2128 2.83074 32.5213 2.26523L30.9043 2.14086C30.7926 2.13023 30.6809 2.12598 30.5713 2.12598C29.6149 2.12917 28.7692 2.48952 28.1245 3.16983C27.4819 3.85227 27.1287 4.78876 27.1277 5.80604V27.0658H29.2553H29.2564C29.8426 27.0669 30.3192 27.5431 30.3192 28.1288C30.3192 28.7156 29.8415 29.1918 29.2553 29.1918Z" fill="#067362"/>
<path d="M32.8126 9.00143C32.437 9.00143 32.0977 8.81116 31.903 8.4912C31.7551 8.24884 31.7104 7.96289 31.7775 7.68758C31.8445 7.4112 32.0158 7.17841 32.2583 7.03065C33.0934 6.52467 33.6115 5.57755 33.6104 4.5592C33.6104 3.9735 34.087 3.49622 34.6743 3.49622C35.2604 3.49622 35.7381 3.9735 35.7381 4.5592C35.737 5.43085 35.5147 6.28975 35.0945 7.04235C34.6796 7.78537 34.0817 8.40935 33.3647 8.84624C33.1977 8.94828 33.0062 9.00143 32.8126 9.00143Z" fill="#067362"/>
<path d="M32.8126 9.00143C32.437 9.00143 32.0977 8.81116 31.903 8.4912C31.7551 8.24884 31.7104 7.96289 31.7775 7.68758C31.8445 7.4112 32.0158 7.17841 32.2583 7.03065C33.0934 6.52467 33.6115 5.57755 33.6104 4.5592C33.6104 3.9735 34.087 3.49622 34.6743 3.49622C35.2604 3.49622 35.7381 3.9735 35.7381 4.5592C35.737 5.43085 35.5147 6.28975 35.0945 7.04235C34.6796 7.78537 34.0817 8.40935 33.3647 8.84624C33.1977 8.94828 33.0062 9.00143 32.8126 9.00143Z" fill="#067362"/>
<path d="M29.2552 29.1918C28.6691 29.1918 28.1914 28.7157 28.1914 28.1288V7.93201C28.1914 7.3463 28.6691 6.86902 29.2552 6.86902C29.8414 6.86902 30.3191 7.3463 30.3191 7.93201V28.1288C30.3191 28.7156 29.8414 29.1918 29.2552 29.1918Z" fill="#067362"/>
<path d="M45.4926 38.7586C44.3064 38.7586 43.1543 38.5259 42.0713 38.0687C41.0245 37.6255 40.0841 36.9931 39.2766 36.1862C38.4702 35.3794 37.8362 34.4397 37.3936 33.3937C36.9351 32.3116 36.7021 31.1614 36.7021 29.9751C36.7021 28.7888 36.9351 27.6388 37.3936 26.5555C37.8362 25.5095 38.4702 24.5709 39.2766 23.7641C40.0841 22.9573 41.0245 22.3248 42.0713 21.8815C43.1543 21.4234 44.3064 21.1917 45.4926 21.1917C46.6798 21.1917 47.8309 21.4234 48.9149 21.8815C49.9617 22.3248 50.9011 22.9573 51.7085 23.7641C52.516 24.5709 53.15 25.5095 53.5926 26.5555C54.0512 27.6387 54.283 28.7888 54.283 29.9751C54.283 31.1614 54.0511 32.3116 53.5926 33.3937C53.15 34.4397 52.516 35.3794 51.7085 36.1862C50.9011 36.9931 49.9617 37.6255 48.9149 38.0687C47.8309 38.5258 46.6798 38.7586 45.4926 38.7586ZM45.4926 23.3176C43.7139 23.3176 42.0415 24.0107 40.7809 25.2671C39.5234 26.5257 38.8309 28.1978 38.8298 29.9751C38.8309 31.7524 39.5234 33.4245 40.7809 34.6831C42.0415 35.9396 43.7139 36.6326 45.4926 36.6326C47.2713 36.6326 48.9447 35.9396 50.2043 34.6831C51.4617 33.4245 52.1553 31.7524 52.1553 29.9751C52.1553 28.1978 51.4617 26.5257 50.2043 25.2671C48.9447 24.0107 47.2713 23.3176 45.4926 23.3176Z" fill="#067362"/>
<path d="M55.5966 38.7586C54.4105 38.7586 53.2584 38.5259 52.1754 38.0687C51.1285 37.6255 50.1881 36.9931 49.3806 36.1862C48.5742 35.3794 47.9402 34.4397 47.4976 33.3948C47.0391 32.3117 46.8062 31.1614 46.8062 29.9751C46.8062 28.7888 47.0391 27.6388 47.4976 26.5566C47.9402 25.5106 48.5742 24.5709 49.3806 23.7641C50.1881 22.9573 51.1285 22.3248 52.1754 21.8815C53.2584 21.4234 54.4105 21.1917 55.5966 21.1917C56.7838 21.1917 57.9349 21.4234 59.019 21.8815C60.0658 22.3248 61.0052 22.9573 61.8126 23.7641C62.6201 24.5709 63.2541 25.5106 63.6967 26.5566C64.1552 27.6388 64.3871 28.7888 64.3871 29.9751C64.3871 31.1614 64.1551 32.3116 63.6967 33.3948C63.2541 34.4397 62.6201 35.3794 61.8126 36.1862C61.0052 36.9931 60.0658 37.6255 59.019 38.0687C57.935 38.5258 56.7839 38.7586 55.5966 38.7586ZM55.5966 23.3176C53.8179 23.3176 52.1456 24.0107 50.8849 25.2671C49.6275 26.5257 48.9339 28.1978 48.9339 29.9751C48.9339 31.7524 49.6275 33.4235 50.8849 34.6831C52.1446 35.9396 53.8179 36.6326 55.5966 36.6326C57.3754 36.6326 59.0487 35.9396 60.3083 34.6831C61.5657 33.4235 62.2594 31.7524 62.2594 29.9751C62.2594 28.1978 61.5657 26.5257 60.3083 25.2671C59.0488 24.0107 57.3754 23.3176 55.5966 23.3176Z" fill="#067362"/>
<path d="M50.2479 29.8498C49.0607 29.8498 47.9096 29.6179 46.8256 29.1599C45.7788 28.7177 44.8394 28.0842 44.032 27.2774C43.2245 26.4705 42.5905 25.5319 42.1479 24.4859C41.6894 23.4028 41.4575 22.2526 41.4575 21.0663C41.4575 19.8811 41.6894 18.7309 42.1479 17.6477C42.5905 16.6018 43.2245 15.6621 44.032 14.8553C44.8394 14.0495 45.7788 13.416 46.8256 12.9738C47.9096 12.5156 49.0607 12.2828 50.2479 12.2828C51.434 12.2828 52.5861 12.5156 53.6692 12.9738C54.716 13.416 55.6565 14.0495 56.4639 14.8553C57.2703 15.6621 57.9043 16.6018 58.3469 17.6477C58.8054 18.7309 59.0384 19.8811 59.0384 21.0663C59.0384 22.2526 58.8054 23.4028 58.3469 24.4859C57.9043 25.5319 57.2703 26.4705 56.4639 27.2774C55.6565 28.0842 54.716 28.7177 53.6692 29.1599C52.5862 29.6179 51.434 29.8498 50.2479 29.8498ZM50.2479 14.4088C48.4692 14.4099 46.7958 15.1019 45.5362 16.3594C44.2777 17.618 43.5852 19.2901 43.5852 21.0663C43.5852 22.8436 44.2777 24.5157 45.5362 25.7743C46.7958 27.0319 48.4692 27.7238 50.2479 27.7238C52.0267 27.7238 53.6989 27.0318 54.9585 25.7743C56.217 24.5157 56.9096 22.8436 56.9107 21.0663C56.9096 19.289 56.217 17.618 54.9585 16.3594C53.7001 15.1019 52.0267 14.4099 50.2479 14.4088Z" fill="#067362"/>
<path d="M50.5319 43.0106H33.5106C32.9244 43.0106 32.4468 42.5333 32.4468 41.9476C32.4468 41.3619 32.9244 40.8846 33.5106 40.8846H50.5319C51.1181 40.8846 51.5957 41.3619 51.5957 41.9476C51.5957 42.5333 51.1181 43.0106 50.5319 43.0106Z" fill="#067362"/>
<path d="M63.2978 47.2626H33.5106C32.9244 47.2626 32.4468 46.7853 32.4468 46.1996C32.4468 45.6139 32.9244 45.1366 33.5106 45.1366H63.2978C63.884 45.1366 64.3617 45.6139 64.3617 46.1996C64.3617 46.7853 63.884 47.2626 63.2978 47.2626Z" fill="#067362"/>
<path d="M34.5744 11.1211H32.4468V13.2471H34.5744V11.1211Z" fill="#067362"/>
<path d="M37.7658 11.1211H35.6382V13.2471H37.7658V11.1211Z" fill="#067362"/>
<path d="M40.9572 11.1211H38.8296V13.2471H40.9572V11.1211Z" fill="#067362"/>
</svg>
