<svg width="17" height="21" viewBox="0 0 17 21" fill="none" xmlns="http://www.w3.org/2000/svg">
<path d="M5.01185 16.2555C2.92358 15.0685 1.62665 12.8264 1.62665 10.4304C1.62665 7.06715 4.1106 4.27546 7.34192 3.76988L6.74841 4.36339C6.44067 4.67113 6.44067 5.1987 6.74841 5.50644C6.90229 5.66031 7.12211 5.74824 7.31994 5.74824C7.51778 5.74824 7.7376 5.66031 7.89147 5.50644L9.95776 3.44015C10.2655 3.13241 10.2655 2.60484 9.95776 2.2971L7.89147 0.230809C7.58372 -0.0769363 7.05616 -0.0769363 6.74841 0.230809C6.44067 0.538554 6.44067 1.06612 6.74841 1.37386L7.47381 2.09926C3.27529 2.5389 0 6.09995 0 10.4304C0 13.4199 1.60467 16.1896 4.19852 17.6844C4.33042 17.7503 4.46231 17.7943 4.5942 17.7943C4.87996 17.7943 5.14374 17.6404 5.29762 17.3766C5.53941 16.9809 5.40752 16.4754 5.01185 16.2555Z" fill="#30C4AE"/>
<path d="M16.7501 10.4304C16.7501 7.4629 15.1454 4.69319 12.5735 3.17645C12.1779 2.95663 11.6943 3.08852 11.4525 3.4842C11.2327 3.87987 11.3645 4.36347 11.7602 4.60527C13.8485 5.81427 15.1234 8.03443 15.1234 10.4304C15.1234 13.7937 12.6395 16.5854 9.40817 17.0909L10.0017 16.4974C10.3094 16.1897 10.3094 15.6621 10.0017 15.3544C9.69393 15.0466 9.16637 15.0466 8.85862 15.3544L6.79233 17.4207C6.48459 17.7284 6.48459 18.256 6.79233 18.5637L8.85862 20.63C9.01249 20.7839 9.23231 20.8718 9.43015 20.8718C9.62799 20.8718 9.8478 20.7839 10.0017 20.63C10.3094 20.3223 10.3094 19.7947 10.0017 19.4869L9.25429 18.7396C13.4528 18.2999 16.7501 14.7389 16.7501 10.4304Z" fill="#30C4AE"/>
<path d="M6.11068 9.77086C5.80293 9.46311 5.27537 9.46311 4.96763 9.77086C4.65988 10.0786 4.65988 10.6062 4.96763 10.9139L6.92401 12.8703C7.07788 13.0242 7.2977 13.1121 7.49553 13.1121C7.69337 13.1121 7.91319 13.0242 8.06706 12.8703L11.804 9.13338C12.1117 8.82564 12.1117 8.29808 11.804 7.99033C11.4962 7.68259 10.9687 7.68259 10.6609 7.99033L7.47355 11.1557L6.11068 9.77086Z" fill="#30C4AE"/>
</svg>
