<svg width="18" height="18" viewBox="0 0 18 18" fill="none" xmlns="http://www.w3.org/2000/svg">
<g clip-path="url(#clip0)">
<path d="M6.0751 3.82495C6.3751 3.82495 6.6001 3.89995 6.9001 3.97495C7.0501 4.04995 7.2751 4.19995 7.5001 4.42495C7.6501 4.57495 7.8001 4.79995 7.9501 5.09995C8.0251 5.32495 8.1001 5.62495 8.1001 5.92495C8.1001 6.22495 8.0251 6.44995 7.9501 6.74995C7.8751 6.97495 7.7251 7.19995 7.5001 7.42495C7.3501 7.57495 7.1251 7.72495 6.8251 7.87495C6.6001 7.94995 6.3001 8.02495 6.0001 8.02495C5.7001 8.02495 5.4751 7.94995 5.1751 7.87495C5.0251 7.64995 4.8001 7.49995 4.5751 7.34995C4.4251 7.12495 4.2751 6.89995 4.1251 6.67495C4.0501 6.44995 3.9751 6.14995 3.9751 5.84995C3.9751 5.54995 4.0501 5.24995 4.1251 5.02495C4.2001 4.79995 4.3501 4.57495 4.5751 4.34995C4.8001 4.12495 5.0251 4.04995 5.2501 3.97495C5.4751 3.89995 5.7751 3.82495 6.0751 3.82495ZM4.8751 5.84995C4.8751 6.22495 4.9501 6.44995 5.2501 6.67495C5.4751 6.89995 5.7751 6.97495 6.0751 6.97495C6.3751 6.97495 6.6751 6.89995 6.9001 6.67495C7.1251 6.44995 7.2001 6.14995 7.2001 5.84995C7.2001 5.47495 7.1251 5.24995 6.9001 5.02495C6.6001 4.79995 6.3751 4.72495 6.0751 4.72495C5.7001 4.72495 5.4751 4.79995 5.2501 5.02495C5.0251 5.24995 4.8751 5.54995 4.8751 5.84995ZM11.4001 5.62495C11.8501 5.09995 12.5251 4.79995 13.2751 4.87495L6.9001 12.5999C6.4501 13.1249 5.7751 13.4249 5.0251 13.3499L11.4001 5.62495ZM10.2751 12.075C10.2751 11.775 10.3501 11.475 10.4251 11.25C10.5001 11.025 10.6501 10.8 10.8751 10.575C11.0251 10.425 11.2501 10.275 11.5501 10.125C11.7751 10.05 12.0751 9.97495 12.3751 9.97495C12.6751 9.97495 12.9001 10.05 13.2001 10.125C13.4251 10.2 13.6501 10.35 13.8751 10.575C14.0251 10.725 14.1751 10.95 14.3251 11.25C14.4001 11.475 14.4751 11.775 14.4751 12.075C14.4751 12.375 14.4001 12.675 14.3251 12.9C14.2501 13.125 14.1001 13.35 13.8751 13.575C13.7251 13.725 13.5001 13.875 13.2001 14.025C12.9001 14.175 12.6751 14.1749 12.3751 14.1749C12.0751 14.1749 11.8501 14.1 11.5501 14.025C11.2501 13.95 11.1001 13.8 10.8751 13.575C10.7251 13.425 10.5751 13.2 10.4251 12.9C10.2751 12.675 10.2751 12.375 10.2751 12.075ZM12.3001 13.2C12.6001 13.2 12.9001 13.125 13.1251 12.9C13.3501 12.675 13.4251 12.375 13.4251 12.075C13.4251 11.7 13.3501 11.475 13.1251 11.25C12.9001 11.025 12.6001 10.95 12.3001 10.95C12.0001 10.95 11.7001 11.025 11.4751 11.25C11.2501 11.475 11.1001 11.775 11.1001 12.075C11.1001 12.45 11.2501 12.675 11.4751 12.9C11.7001 13.125 12.0001 13.2 12.3001 13.2Z" fill="#8C9C9A"/>
<path d="M4.65 16.1999L4.35 16.6499C4.125 16.4999 3.975 16.3499 3.75 16.2749L4.05 15.8999C4.275 15.9749 4.425 16.0499 4.65 16.1999Z" fill="#8C9C9A"/>
<path d="M3.2252 15.8249C3.0752 15.6749 2.9252 15.5249 2.7002 15.3749L3.0752 14.9999C3.2252 15.1499 3.3752 15.2999 3.5252 15.3749L3.2252 15.8249Z" fill="#8C9C9A"/>
<path d="M1.5 13.95C1.35 13.8 1.275 13.575 1.125 13.425L1.575 13.2C1.65 13.35 1.8 13.575 1.875 13.725L1.5 13.95Z" fill="#8C9C9A"/>
<path d="M6.8999 17.1749L6.7499 17.6999C6.5249 17.6249 6.2999 17.5499 6.1499 17.4749L6.3749 17.0249C6.5249 17.0249 6.6749 17.0999 6.8999 17.1749Z" fill="#8C9C9A"/>
<path d="M0.600195 8.09993L0.0751953 8.02493C0.0751953 7.79993 0.150195 7.57493 0.225195 7.42493L0.750195 7.49993C0.675195 7.64993 0.675195 7.87493 0.600195 8.09993Z" fill="#8C9C9A"/>
<path d="M0.375098 11.6999C0.300098 11.4749 0.225098 11.3249 0.225098 11.0999L0.750098 11.0249C0.825098 11.2499 0.825098 11.3999 0.900098 11.6249L0.375098 11.6999Z" fill="#8C9C9A"/>
<path d="M0.525 8.99993C0.525 9.07493 0.525 9.14993 0.525 9.22493H0C0 9.14993 0 9.07493 0 8.99993C0 8.84993 0 8.69993 0 8.54993H0.525C0.525 8.77493 0.525 8.92493 0.525 8.99993Z" fill="#8C9C9A"/>
<path d="M0.825098 12.8999C0.750098 12.6749 0.675098 12.5249 0.600098 12.2999L1.1251 12.1499C1.2001 12.2999 1.2751 12.5249 1.3501 12.6749L0.825098 12.8999Z" fill="#8C9C9A"/>
<path d="M2.325 14.9999C2.175 14.8499 2.025 14.6999 1.875 14.5499L2.325 14.2499C2.475 14.3999 2.55 14.5499 2.7 14.6999L2.325 14.9999Z" fill="#8C9C9A"/>
<path d="M0.075 10.4999C0.075 10.2749 0 10.0499 0 9.8999H0.525C0.525 10.1249 0.525 10.2749 0.6 10.4999H0.075Z" fill="#8C9C9A"/>
<path d="M5.475 17.2499C5.25 17.1749 5.1 17.0999 4.875 16.9499L5.175 16.4999C5.325 16.5749 5.55 16.6499 5.775 16.7999L5.475 17.2499Z" fill="#8C9C9A"/>
<path d="M13.9502 2.17505L14.2502 1.80005C14.4002 1.95005 14.6252 2.10005 14.7752 2.17505L14.4002 2.55005C14.2502 2.47505 14.1002 2.32505 13.9502 2.17505Z" fill="#8C9C9A"/>
<path d="M15.3001 2.625C15.4501 2.775 15.6001 2.925 15.7501 3.075L15.3001 3.375C15.1501 3.225 15.0001 3.075 14.8501 2.925L15.3001 2.625Z" fill="#8C9C9A"/>
<path d="M16.8753 4.65002C16.9503 4.80002 17.1003 5.02502 17.1753 5.25002L16.6503 5.47502C16.5753 5.25002 16.5003 5.10002 16.4253 4.87502L16.8753 4.65002Z" fill="#8C9C9A"/>
<path d="M11.7754 1.04998L12.0004 0.599976C12.2254 0.674976 12.4504 0.749976 12.6004 0.824976L12.3754 1.27498C12.1504 1.19998 11.9254 1.12498 11.7754 1.04998Z" fill="#8C9C9A"/>
<path d="M17.7752 6.97498C17.8502 7.19998 17.8502 7.34998 17.9252 7.57498L17.4002 7.64998C17.4002 7.42498 17.3252 7.27498 17.3252 7.04998L17.7752 6.97498Z" fill="#8C9C9A"/>
<path d="M17.4002 9.67507C17.4002 9.60007 17.4002 9.52507 17.4002 9.45007L17.9252 9.52507C17.9252 9.60007 17.9252 9.67507 17.9252 9.75007C17.9252 9.90007 17.9252 10.0501 17.8502 10.1251L17.3252 10.0501C17.4002 9.90007 17.4002 9.75007 17.4002 9.67507Z" fill="#8C9C9A"/>
<path d="M17.4 5.77502C17.475 6.00002 17.55 6.15002 17.625 6.37502L17.1 6.52502C17.025 6.30002 16.95 6.15002 16.875 6.00002L17.4 5.77502Z" fill="#8C9C9A"/>
<path d="M16.1253 3.59998C16.2753 3.74998 16.3503 3.97498 16.5003 4.12498L16.0503 4.42498C15.9753 4.27498 15.8253 4.12498 15.6753 3.89998L16.1253 3.59998Z" fill="#8C9C9A"/>
<path d="M18.0001 8.25C18.0001 8.475 18.0001 8.7 18.0001 8.85H17.4751C17.4751 8.625 17.4751 8.475 17.4751 8.25H18.0001Z" fill="#8C9C9A"/>
<path d="M10.5752 0.675024L10.7252 0.150024C10.9502 0.225024 11.1752 0.225024 11.4002 0.300024L11.2502 0.825024C10.9502 0.750024 10.7252 0.750024 10.5752 0.675024Z" fill="#8C9C9A"/>
<path d="M13.2001 1.125C13.4251 1.2 13.5751 1.35 13.8001 1.425L13.5001 1.875C13.3501 1.8 13.1251 1.65 12.9751 1.575L13.2001 1.125Z" fill="#8C9C9A"/>
<path d="M8.09981 17.4C11.9998 17.775 15.7498 15.375 17.0248 11.625C17.0998 11.475 17.2498 11.4 17.3998 11.475C17.5498 11.55 17.6248 11.7 17.5498 11.85C16.1998 15.825 12.2248 18.45 8.0248 18C7.8748 18 7.7998 17.85 7.7998 17.7C7.7998 17.475 7.94981 17.4 8.09981 17.4Z" fill="#8C9C9A"/>
<path d="M9.60019 0.599985C5.7752 0.374985 2.2502 2.69998 0.975195 6.37498C0.975195 6.52498 0.825195 6.59999 0.675195 6.59999C0.675195 6.59999 0.675195 6.59999 0.600195 6.59999C0.525195 6.52498 0.450195 6.37498 0.450195 6.22499C1.8002 2.32499 5.55019 -0.225015 9.67519 -1.5052e-05C9.82519 -1.5052e-05 9.97519 0.149985 9.97519 0.299985C9.9002 0.449985 9.7502 0.599985 9.60019 0.599985Z" fill="#8C9C9A"/>
</g>
<defs>
<clipPath id="clip0">
<rect width="18" height="18" fill="white"/>
</clipPath>
</defs>
</svg>
