<svg width="17" height="18" viewBox="0 0 17 18" fill="none" xmlns="http://www.w3.org/2000/svg">
<path d="M14.6094 1.45455H13.1927V0H12.2188V1.45455H4.69271V0H3.80729V1.45455H2.39062C1.0625 1.45455 0 2.54545 0 3.90909V15.5455C0 16.9091 1.0625 18 2.39062 18H14.6979C16.026 18 17.0885 16.9091 17.0885 15.5455V6.27273V5.36364V3.90909C17 2.54545 15.9375 1.45455 14.6094 1.45455ZM16.026 15.5455C16.026 16.3636 15.4062 17 14.6094 17H2.39062C1.59375 17 0.973958 16.3636 0.973958 15.5455V6.27273H16.1146V15.5455H16.026ZM16.026 5.36364H0.973958V3.90909C0.973958 3.09091 1.59375 2.45455 2.39062 2.45455H3.80729V3.45455H4.78125V2.45455H12.3073V3.45455H13.2812V2.45455H14.6979C15.4948 2.45455 16.1146 3.09091 16.1146 3.90909V5.36364H16.026Z" fill="#42BDAA"/>
<path d="M7.52606 8.27271H9.38544V10.1818H7.52606V8.27271Z" fill="#42BDAA"/>
<path d="M12.3073 8.27271H14.1667V10.1818H12.3073V8.27271Z" fill="#42BDAA"/>
<path d="M4.69269 13.0909H2.83331V15H4.69269V13.0909Z" fill="#42BDAA"/>
<path d="M9.38544 13.0909H7.52606V15H9.38544V13.0909Z" fill="#42BDAA"/>
<path d="M14.1667 13.0909H12.3073V15H14.1667V13.0909Z" fill="#42BDAA"/>
</svg>
