<svg width="20" height="24" viewBox="0 0 20 24" fill="none" xmlns="http://www.w3.org/2000/svg">
<path d="M1.20227 0C0.545568 0 0 0.545682 0 1.19747V22.7975C0 23.4493 0.545568 24 1.20227 24H12.0126C12.3309 24.0051 12.6238 23.7171 12.6238 23.3987C12.6238 23.0804 12.3309 22.7924 12.0126 22.7975H1.20227V1.19747H12.0126C12.3258 1.21263 12.6289 0.939788 12.639 0.626525C12.6542 0.313261 12.3814 0.0151579 12.0682 0C8.45126 0 4.81919 0 1.20227 0ZM3.90486 2.6981C3.23805 2.6981 2.70258 3.25389 2.70258 3.90063V20.0994C2.70258 20.741 3.233 21.3019 3.90486 21.3019H7.50662C7.82487 21.3069 8.11786 21.0189 8.11786 20.7006C8.11786 20.3823 7.82487 20.0943 7.50662 20.0994H3.90486V3.90063H12.0126C12.3258 3.91579 12.6289 3.64295 12.639 3.32968C12.6542 3.01642 12.3814 2.71832 12.0682 2.70316C9.35044 2.69811 6.62259 2.6981 3.90486 2.6981ZM13.7861 8.09937C13.4477 8.05894 13.1092 8.35705 13.1092 8.70063V11.3987H6.80487C6.48662 11.3937 6.19363 11.6817 6.19363 12C6.19363 12.3183 6.48662 12.6063 6.80487 12.6013H13.1092V15.2994C13.1143 15.5217 13.2557 15.7389 13.4578 15.8349C13.6649 15.9309 13.9175 15.8956 14.0943 15.7491L17.9991 12.4497C18.2618 12.2274 18.2618 11.7625 17.9991 11.5402L14.0943 8.24084C14.0084 8.16505 13.9023 8.11452 13.7861 8.09937ZM16.6958 12L14.3115 14.0059V9.984L16.6958 12ZM9.90611 20.0994C9.58786 20.0943 9.29487 20.3823 9.29487 20.7006C9.29487 21.0189 9.58786 21.3069 9.90611 21.3019H12.0076C12.3208 21.3171 12.6238 21.0442 12.6339 20.7309C12.6491 20.4177 12.3763 20.1196 12.0631 20.1044C11.3559 20.0994 10.6234 20.0994 9.90611 20.0994Z" fill="#8C9C9A"/>
</svg>
