<svg width="19" height="24" viewBox="0 0 19 24" fill="none" xmlns="http://www.w3.org/2000/svg">
<path d="M1.19937 0C0.544254 0 0 0.545682 0 1.19747V22.7975C0 23.4493 0.544254 24 1.19937 24H11.9837C12.3011 24.0051 12.5934 23.7171 12.5934 23.3987C12.5934 23.0804 12.3011 22.7924 11.9837 22.7975H1.19937V1.19747H11.9837C12.2961 1.21263 12.5985 0.939788 12.6085 0.626525C12.6237 0.313261 12.3515 0.0151579 12.0391 0C8.43089 0 4.80757 0 1.19937 0ZM3.89545 2.6981C3.23025 2.6981 2.69607 3.25389 2.69607 3.90063V20.0994C2.69607 20.741 3.22521 21.3019 3.89545 21.3019H7.48853C7.80601 21.3069 8.09829 21.0189 8.09829 20.7006C8.09829 20.3823 7.80601 20.0943 7.48853 20.0994H3.89545V3.90063H11.9837C12.2961 3.91579 12.5985 3.64295 12.6085 3.32968C12.6237 3.01642 12.3515 2.71832 12.0391 2.70316C9.3279 2.69811 6.60664 2.6981 3.89545 2.6981ZM13.7529 8.09937C13.4153 8.05894 13.0776 8.35705 13.0776 8.70063V11.3987H6.78847C6.47099 11.3937 6.17871 11.6817 6.17871 12C6.17871 12.3183 6.47099 12.6063 6.78847 12.6013H13.0776V15.2994C13.0827 15.5217 13.2238 15.7389 13.4253 15.8349C13.632 15.9309 13.8839 15.8956 14.0603 15.7491L17.9558 12.4497C18.2178 12.2274 18.2178 11.7625 17.9558 11.5402L14.0603 8.24084C13.9746 8.16505 13.8688 8.11452 13.7529 8.09937ZM16.6556 12L14.277 14.0059V9.984L16.6556 12ZM9.88224 20.0994C9.56476 20.0943 9.27247 20.3823 9.27247 20.7006C9.27247 21.0189 9.56476 21.3069 9.88224 21.3019H11.9786C12.2911 21.3171 12.5934 21.0442 12.6035 20.7309C12.6186 20.4177 12.3465 20.1196 12.0341 20.1044C11.3285 20.0994 10.5978 20.0994 9.88224 20.0994Z" fill="#067362"/>
</svg>
