<svg width="145" height="18" viewBox="0 0 145 18" fill="none" xmlns="http://www.w3.org/2000/svg">
<path d="M56.9549 1.16125C56.4634 1.16125 56.0613 1.56324 56.0613 2.05456V14.9181C56.0613 15.4094 56.4634 15.8114 56.9549 15.8114C57.4464 15.8114 57.8485 15.4094 57.8485 14.9181V2.05456C57.8485 1.56324 57.4464 1.16125 56.9549 1.16125Z" fill="white"/>
<path d="M16.6627 1.11661H3.44028C2.94891 1.11661 2.54688 1.51859 2.54688 2.00991C2.54688 2.50122 2.94891 2.90321 3.44028 2.90321H16.6627C17.1541 2.90321 17.5561 2.50122 17.5561 2.00991C17.5561 1.51859 17.1541 1.11661 16.6627 1.11661Z" fill="white"/>
<path d="M12.1957 7.59302H3.44028C2.94891 7.59302 2.54688 7.995 2.54688 8.48632C2.54688 8.97763 2.94891 9.37962 3.44028 9.37962H12.1957C12.687 9.37962 13.0891 8.97763 13.0891 8.48632C13.0891 7.995 12.687 7.59302 12.1957 7.59302Z" fill="white"/>
<path d="M16.6627 14.1141H3.44028C2.94891 14.1141 2.54688 14.5161 2.54688 15.0074C2.54688 15.4988 2.94891 15.9007 3.44028 15.9007H16.6627C17.1541 15.9007 17.5561 15.4988 17.5561 15.0074C17.5561 14.5161 17.1541 14.1141 16.6627 14.1141Z" fill="white"/>
<path d="M95.1036 1.11661C94.6121 1.11661 94.21 1.51859 94.21 2.00991V14.9628C94.21 15.4541 94.6121 15.8561 95.1036 15.8561C95.595 15.8561 95.9972 15.4541 95.9972 14.9628V2.00991C95.9972 1.51859 95.595 1.11661 95.1036 1.11661Z" fill="white"/>
<path d="M112.57 1.11661C112.078 1.11661 111.676 1.51859 111.676 2.00991V14.9628C111.676 15.4541 112.078 15.8561 112.57 15.8561C113.061 15.8561 113.463 15.4541 113.463 14.9628V2.00991C113.463 1.51859 113.061 1.11661 112.57 1.11661Z" fill="white"/>
<path d="M106.941 6.92304L104.216 9.69227C104.082 9.82626 103.814 9.82626 103.68 9.69227L95.8628 1.51857C95.5054 1.16125 94.9694 1.16125 94.612 1.51857C94.2547 1.87589 94.2547 2.45653 94.612 2.76919L102.429 10.9429C102.831 11.3449 103.412 11.5682 103.948 11.5682C104.484 11.5682 105.065 11.3449 105.467 10.9429L108.192 8.17366C108.549 7.81634 108.549 7.23569 108.192 6.92304C107.879 6.56572 107.298 6.56572 106.941 6.92304Z" fill="white"/>
<path d="M29.9742 1.16125C29.4827 1.16125 29.0806 1.56324 29.0806 2.05456V14.9181C29.0806 15.4094 29.4827 15.8114 29.9742 15.8114C30.4656 15.8114 30.8678 15.4094 30.8678 14.9181V2.09922C30.8678 1.56324 30.4656 1.16125 29.9742 1.16125Z" fill="white"/>
<path d="M43.6434 1.16125C43.1519 1.16125 42.7498 1.56324 42.7498 2.05456V14.9181C42.7498 15.4094 43.1519 15.8114 43.6434 15.8114C44.1348 15.8114 44.5369 15.4094 44.5369 14.9181V2.09922C44.5369 1.56324 44.1348 1.16125 43.6434 1.16125Z" fill="white"/>
<path d="M30.7334 1.5186C30.376 1.16128 29.84 1.16128 29.4826 1.47394C29.1253 1.83126 29.1253 2.36724 29.438 2.72456L37.7913 11.2109C37.97 11.3896 38.1933 11.4789 38.4614 11.4789C38.6847 11.4789 38.9081 11.3896 39.0867 11.2109C39.4441 10.8536 39.4441 10.3176 39.1314 9.96029L30.7334 1.5186Z" fill="white"/>
<path d="M76.6992 14.1141C73.617 14.1141 71.1154 11.6129 71.1154 8.53098C71.1154 5.4491 73.617 2.94786 76.6992 2.94786C77.1906 2.94786 77.5926 2.54587 77.5926 2.05456C77.5926 1.56324 77.1906 1.16125 76.6992 1.16125C72.6342 1.16125 69.3286 4.46647 69.3286 8.57565C69.3286 12.6402 72.6342 15.99 76.6992 15.99C77.1906 15.99 77.5926 15.5881 77.5926 15.0967C77.5926 14.6054 77.1906 14.1141 76.6992 14.1141Z" fill="white"/>
<path d="M80.5854 7.59302H76.6991C76.2077 7.59302 75.8057 7.995 75.8057 8.48632C75.8057 8.97763 76.2077 9.37962 76.6991 9.37962H80.5854C80.8087 9.37962 80.9428 9.55828 80.9428 9.73694V13.6228C80.9428 14.1141 81.3448 14.5161 81.8362 14.5161C82.3275 14.5161 82.7296 14.1141 82.7296 13.6228V9.73694C82.7296 8.57565 81.7468 7.59302 80.5854 7.59302Z" fill="white"/>
<path d="M132.984 0.803955C128.561 0.803955 124.943 4.24316 124.943 8.531C124.943 11.8362 127.087 14.6501 130.08 15.7667C130.706 15.9901 131.376 15.4987 131.376 14.8288C131.376 14.4268 131.108 14.0248 130.706 13.8908C128.383 13.0422 126.73 10.9876 126.73 8.531C126.73 5.35979 129.499 2.76922 132.939 2.76922C136.379 2.76922 139.148 5.35979 139.148 8.531C139.148 10.9876 137.495 13.0868 135.173 13.8908C134.771 14.0248 134.503 14.3821 134.503 14.8288C134.503 15.4987 135.173 15.9901 135.798 15.7667C138.791 14.6501 140.935 11.8362 140.935 8.531C140.98 4.28783 137.406 0.803955 132.984 0.803955Z" fill="white"/>
</svg>
