<svg width="65" height="82" viewBox="0 0 65 82" fill="none" xmlns="http://www.w3.org/2000/svg">
<path d="M2.5415 66.3359L6.47461 75.7476L10.4224 66.3359H11.6235V77H10.7227V72.3564L10.7959 67.5957L6.82617 77H6.13037L2.17529 67.6323L2.24854 72.3271V77H1.34766V66.3359H2.5415ZM17.3899 77.1465C16.7161 77.1465 16.1058 76.9805 15.5589 76.6484C15.0169 76.3164 14.5945 75.855 14.2918 75.2642C13.9891 74.6685 13.8377 74.002 13.8377 73.2646V72.9497C13.8377 72.188 13.9842 71.502 14.2771 70.8916C14.575 70.2812 14.9876 69.8027 15.5149 69.4561C16.0423 69.1045 16.6136 68.9287 17.2288 68.9287C18.1907 68.9287 18.9524 69.2583 19.514 69.9175C20.0804 70.5718 20.3636 71.4678 20.3636 72.6055V73.0962H14.7093V73.2646C14.7093 74.1631 14.9656 74.9126 15.4783 75.5132C15.9959 76.1089 16.6453 76.4067 17.4266 76.4067C17.8953 76.4067 18.3079 76.3213 18.6644 76.1504C19.0257 75.9795 19.3528 75.7061 19.6458 75.3301L20.1951 75.7476C19.5506 76.6802 18.6155 77.1465 17.3899 77.1465ZM17.2288 69.6758C16.5696 69.6758 16.013 69.9175 15.5589 70.4009C15.1097 70.8843 14.8362 71.5337 14.7386 72.3491H19.492V72.2539C19.4676 71.4922 19.2503 70.8721 18.8401 70.3936C18.43 69.915 17.8929 69.6758 17.2288 69.6758ZM21.9186 72.9644C21.9186 71.7339 22.192 70.7549 22.7389 70.0273C23.2906 69.2949 24.0377 68.9287 24.9801 68.9287C26.0494 68.9287 26.8648 69.3511 27.4264 70.1958V65.75H28.2979V77H27.4776L27.441 75.9453C26.8795 76.7461 26.0543 77.1465 24.9654 77.1465C24.0523 77.1465 23.315 76.7803 22.7535 76.0479C22.1969 75.3105 21.9186 74.3169 21.9186 73.0669V72.9644ZM22.8048 73.1182C22.8048 74.1289 23.0074 74.9272 23.4127 75.5132C23.818 76.0942 24.3893 76.3848 25.1266 76.3848C26.2057 76.3848 26.9723 75.9087 27.4264 74.9565V71.2358C26.9723 70.2056 26.2105 69.6904 25.1412 69.6904C24.4039 69.6904 23.8302 69.981 23.42 70.562C23.0099 71.1382 22.8048 71.9902 22.8048 73.1182ZM31.7865 77H30.9076V69.0752H31.7865V77ZM30.7538 66.7827C30.7538 66.6167 30.8075 66.4775 30.9149 66.3652C31.0224 66.248 31.1688 66.1895 31.3544 66.1895C31.5399 66.1895 31.6864 66.248 31.7938 66.3652C31.9062 66.4775 31.9623 66.6167 31.9623 66.7827C31.9623 66.9487 31.9062 67.0879 31.7938 67.2002C31.6864 67.3125 31.5399 67.3687 31.3544 67.3687C31.1688 67.3687 31.0224 67.3125 30.9149 67.2002C30.8075 67.0879 30.7538 66.9487 30.7538 66.7827ZM39.3767 77C39.2888 76.751 39.2326 76.3823 39.2082 75.894C38.9006 76.2944 38.5075 76.6045 38.029 76.8242C37.5554 77.0391 37.0524 77.1465 36.5202 77.1465C35.7585 77.1465 35.1408 76.9341 34.6672 76.5093C34.1984 76.0845 33.9641 75.5474 33.9641 74.8979C33.9641 74.1265 34.2839 73.5161 34.9235 73.0669C35.5681 72.6177 36.4641 72.3931 37.6115 72.3931H39.2009V71.4922C39.2009 70.9258 39.0251 70.4814 38.6735 70.1592C38.3269 69.832 37.819 69.6685 37.1501 69.6685C36.5397 69.6685 36.0344 69.8247 35.634 70.1372C35.2336 70.4497 35.0334 70.8257 35.0334 71.2651L34.1545 71.2578C34.1545 70.6279 34.4475 70.0835 35.0334 69.6245C35.6193 69.1606 36.3396 68.9287 37.194 68.9287C38.0778 68.9287 38.7736 69.1509 39.2814 69.5952C39.7941 70.0347 40.0578 70.6499 40.0725 71.4409V75.1909C40.0725 75.9575 40.153 76.5312 40.3142 76.9121V77H39.3767ZM36.6228 76.3701C37.2087 76.3701 37.7312 76.2285 38.1901 75.9453C38.654 75.6621 38.9909 75.2837 39.2009 74.8101V73.0669H37.6335C36.7595 73.0767 36.0759 73.2378 35.5827 73.5503C35.0896 73.8579 34.843 74.2827 34.843 74.8247C34.843 75.269 35.0065 75.6377 35.3337 75.9307C35.6657 76.2236 36.0954 76.3701 36.6228 76.3701ZM45.3408 72.6641H41.8325V71.9243H45.3408V72.6641ZM49.7156 71.7046L48.2142 73.1841V77H47.3133V66.3359H48.2142V72.0854L53.678 66.3359H54.8133L50.3455 71.082L55.1575 77H54.0589L49.7156 71.7046ZM57.7525 77H56.8736V69.0752H57.7525V77ZM56.7198 66.7827C56.7198 66.6167 56.7735 66.4775 56.881 66.3652C56.9884 66.248 57.1349 66.1895 57.3204 66.1895C57.506 66.1895 57.6524 66.248 57.7599 66.3652C57.8722 66.4775 57.9283 66.6167 57.9283 66.7827C57.9283 66.9487 57.8722 67.0879 57.7599 67.2002C57.6524 67.3125 57.506 67.3687 57.3204 67.3687C57.1349 67.3687 56.9884 67.3125 56.881 67.2002C56.7735 67.0879 56.7198 66.9487 56.7198 66.7827ZM61.7025 67.0464V69.0752H63.3432V69.793H61.7025V75.0737C61.7025 75.5132 61.7807 75.8403 61.9369 76.0552C62.098 76.27 62.3642 76.3774 62.7353 76.3774C62.8817 76.3774 63.1186 76.353 63.4457 76.3042L63.4823 77.022C63.2528 77.105 62.9403 77.1465 62.5448 77.1465C61.9442 77.1465 61.5072 76.9731 61.2338 76.6265C60.9604 76.2749 60.8236 75.7598 60.8236 75.0811V69.793H59.3661V69.0752H60.8236V67.0464H61.7025Z" fill="#30C4AE"/>
<path d="M33.0146 50H33C27.9635 49.999 23.1083 48.5083 18.9604 45.6884C16.9615 44.3291 15.1708 42.6895 13.6385 40.8166C12.0948 38.9291 10.8396 36.8353 9.90729 34.5926C9.68646 34.0624 9.93854 33.4509 10.4688 33.2311C10.5969 33.178 10.7313 33.1509 10.8688 33.1509C11.2906 33.1509 11.6688 33.403 11.8302 33.7926C15.4 42.3729 23.7083 47.9167 32.9969 47.9167H33.0125H33.0135C33.2781 47.9167 33.5292 48.0156 33.7229 48.1948L33.7312 48.2031C33.7324 48.2031 33.7324 48.2042 33.7324 48.2042L33.7345 48.2064C33.7366 48.2074 33.7376 48.2094 33.7397 48.2104C33.7407 48.2116 33.7419 48.2126 33.7419 48.2126C33.7429 48.2136 33.7449 48.2157 33.7471 48.2178L33.7617 48.2325C33.7627 48.2346 33.7658 48.2366 33.768 48.2397L33.7691 48.2407C33.7951 48.2679 33.819 48.2959 33.8408 48.3252C33.8545 48.3419 33.8658 48.3585 33.8783 48.3751C33.8783 48.3763 33.8783 48.3773 33.8794 48.3773L33.8816 48.3804C33.8826 48.3825 33.8836 48.3846 33.8847 48.3867L33.8816 48.3908L33.8868 48.3877L33.8951 48.4013C33.8961 48.4034 33.8972 48.4054 33.8982 48.4076C33.9003 48.4097 33.9012 48.4118 33.9024 48.4139C33.9034 48.415 33.9045 48.417 33.9054 48.418L33.9096 48.4264C33.9107 48.4274 33.9107 48.4285 33.9118 48.4285C34.0054 48.5869 34.0555 48.7692 34.0566 48.9546V48.9577C34.0566 48.9598 34.0566 48.9607 34.0566 48.9619C34.0555 49.2336 33.9503 49.4909 33.7597 49.6857C33.7597 49.6869 33.7586 49.6879 33.7575 49.6879C33.7554 49.69 33.7533 49.6921 33.7523 49.6942L33.746 49.7005C33.7449 49.7016 33.7429 49.7026 33.7419 49.7035C33.5481 49.8942 33.2908 49.9995 33.019 50.0005H33.0146V50ZM37.6853 49.5417C37.1905 49.5417 36.7614 49.1885 36.6655 48.7031C36.6114 48.4302 36.6667 48.1521 36.8207 47.9208C36.9759 47.6895 37.2114 47.5323 37.4843 47.4781C37.5509 47.4646 37.6197 47.4583 37.6884 47.4583C38.1832 47.4583 38.6124 47.8116 38.7082 48.2969C38.8197 48.8604 38.453 49.4104 37.8895 49.522C37.8219 49.5354 37.7542 49.5417 37.6853 49.5417ZM42.1802 48.1781C41.7572 48.1781 41.3802 47.926 41.2177 47.5365C41.1115 47.2792 41.1104 46.9959 41.2177 46.7385C41.3229 46.4813 41.524 46.2812 41.7802 46.174C50.3687 42.6073 55.9177 34.2958 55.9167 25C55.9167 24.9906 55.9167 24.9823 55.9167 24.9729C55.9167 24.9634 55.9167 24.9551 55.9167 24.9457C55.9156 24.3718 56.3812 23.903 56.9552 23.902H56.9583C57.5312 23.902 57.9978 24.3676 58 24.9405V25C57.999 30.0385 56.5073 34.8958 53.6843 39.0448C52.3239 41.0458 50.6832 42.8364 48.8082 44.3686C46.9186 45.9124 44.8239 47.1676 42.5791 48.099C42.4521 48.151 42.3177 48.1781 42.1802 48.1781ZM9.50208 30.7427C9.00729 30.7427 8.57813 30.3896 8.48125 29.9042C8.42708 29.6313 8.48229 29.3531 8.63646 29.1218C8.79063 28.8905 9.02604 28.7333 9.29896 28.6791C9.36667 28.6655 9.43542 28.6594 9.50417 28.6594C9.99896 28.6594 10.4281 29.0115 10.524 29.4979C10.5781 29.7708 10.5229 30.0479 10.3688 30.2792C10.2146 30.5104 9.97917 30.6677 9.70625 30.7229C9.63854 30.7354 9.56979 30.7427 9.50208 30.7427ZM9.04271 26.0698H9.04167C8.46771 26.0698 8.00104 25.6032 8 25.0293V25C8.00104 19.9656 9.48958 15.1135 12.3073 10.9667C13.6656 8.96771 15.3031 7.17708 17.175 5.64479C19.0604 4.10104 21.1531 2.84583 23.3937 1.9125C23.5219 1.85938 23.6562 1.83229 23.7937 1.83229C24.2156 1.83229 24.5938 2.08438 24.7552 2.47396C24.976 3.00417 24.725 3.61458 24.1948 3.83542C15.6208 7.40833 10.0823 15.7156 10.0833 25V25.0271C10.0833 25.3052 9.97604 25.5667 9.77917 25.7635C9.58229 25.9614 9.32083 26.0698 9.04271 26.0698ZM56.4906 21.3135C55.9969 21.3135 55.5677 20.9615 55.4708 20.476C55.4698 20.476 55.4698 20.475 55.4698 20.475C55.4155 20.2021 55.4708 19.925 55.625 19.6938C55.7791 19.4625 56.0145 19.3052 56.2874 19.25C56.3551 19.2365 56.424 19.2302 56.4927 19.2302C56.9864 19.2302 57.4155 19.5823 57.5135 20.0677C57.626 20.6302 57.2594 21.1802 56.6957 21.2927C56.6292 21.3063 56.5594 21.3135 56.4906 21.3135ZM55.1207 16.8229C54.6989 16.8229 54.3207 16.5719 54.1594 16.1823C50.5844 7.61771 42.2802 2.08333 33.0031 2.08333H32.9573C32.3844 2.08333 31.9167 1.61667 31.9156 1.04375C31.9156 0.765625 32.0229 0.503125 32.2198 0.30625C32.4156 0.109375 32.6771 0.00104167 32.9542 0C32.9552 0 32.9552 0 32.9552 0H32.9605H32.9689C32.9802 0 32.9896 0 33.0001 0C38.0314 0.00104167 42.8813 1.48854 47.0272 4.30313C49.026 5.66042 50.8157 7.29583 52.348 9.16667C53.8917 11.05 55.148 13.1406 56.0814 15.3802C56.3032 15.9104 56.0511 16.5208 55.522 16.7427C55.3936 16.7958 55.2583 16.8229 55.1207 16.8229ZM28.2854 2.54688H28.2844C27.7896 2.54688 27.3604 2.19479 27.2635 1.70938C27.2094 1.43646 27.2646 1.15833 27.4187 0.927083C27.5729 0.695833 27.8083 0.538542 28.0812 0.483333C28.149 0.469792 28.2177 0.463542 28.2865 0.463542C28.7812 0.463542 29.2104 0.815625 29.3073 1.30208C29.4198 1.86458 29.0521 2.41458 28.4896 2.52708C28.4219 2.54062 28.3531 2.54688 28.2854 2.54688Z" fill="#067362"/>
<path d="M33.0115 44.7917H33.0105C32.4365 44.7917 31.9699 44.324 31.9688 43.75C31.9688 43.4719 32.0771 43.2104 32.274 43.0136C32.4699 42.8167 32.7313 42.7084 33.0105 42.7084C42.7698 42.7032 50.7094 34.7593 50.7084 25V24.9761C50.7084 24.9709 50.7084 24.9657 50.7084 24.9606C50.7073 24.6824 50.8157 24.421 51.0115 24.2231C51.2084 24.0262 51.4697 23.9179 51.7479 23.9168H51.7502C52.3231 23.9168 52.7908 24.3835 52.7918 24.9564V25C52.7918 27.6709 52.2688 30.2625 51.2377 32.7011C50.7417 33.874 50.1283 35.0042 49.4136 36.0626C48.7064 37.1106 47.8938 38.096 46.9981 38.9907C46.1033 39.8866 45.1189 40.7 44.071 41.4073C43.0137 42.123 41.8835 42.7365 40.7116 43.2334C38.2731 44.2657 35.6825 44.7895 33.0115 44.7917ZM28.1595 44.1604C28.0689 44.1604 27.9783 44.149 27.8908 44.1249C27.621 44.0541 27.397 43.8812 27.2575 43.6407C27.1179 43.3999 27.0804 43.1198 27.1522 42.8511C27.2731 42.3948 27.6866 42.077 28.1575 42.077C28.2481 42.077 28.3387 42.0885 28.4272 42.1125C28.9814 42.2605 29.3127 42.8322 29.1647 43.3874C29.0439 43.8428 28.6304 44.1604 28.1595 44.1604ZM23.6345 42.2895C23.4533 42.2895 23.2741 42.2416 23.1158 42.1499H23.1147L23.0981 42.1395C20.146 40.4312 17.67 37.9739 15.9366 35.0332C15.0595 33.5436 14.3825 31.9467 13.9231 30.2864C13.4491 28.573 13.2085 26.7938 13.2085 25C13.2085 23.2386 13.4408 21.4896 13.8981 19.8042C14.3418 18.1677 14.997 16.5927 15.845 15.123C16.0314 14.8021 16.3772 14.6021 16.7491 14.6021C16.9304 14.6021 17.1095 14.65 17.2679 14.7417C17.7658 15.0282 17.9366 15.6667 17.6502 16.1646C16.1075 18.8386 15.2918 21.8938 15.2918 25C15.2918 31.3052 18.6887 37.1854 24.1564 40.3458C24.4783 40.5312 24.6783 40.8781 24.6772 41.251C24.6772 41.4312 24.6283 41.6104 24.5377 41.7687C24.3522 42.0896 24.0064 42.2895 23.6345 42.2895ZM51.1043 21.15C50.6356 21.15 50.2231 20.8334 50.1002 20.3802C50.1002 20.3802 50.1002 20.3792 50.099 20.3792C50.0272 20.1105 50.0636 19.8292 50.2021 19.5886C50.3407 19.3469 50.5657 19.174 50.8344 19.1021C50.923 19.0782 51.0145 19.0657 51.1062 19.0657C51.575 19.0657 51.9886 19.3823 52.1114 19.8365C52.2604 20.3907 51.9302 20.9636 51.376 21.1136C51.2877 21.1375 51.196 21.15 51.1043 21.15ZM49.2231 16.6334C48.8532 16.6334 48.5075 16.4344 48.321 16.1146C45.1564 10.673 39.2856 7.29171 33.0012 7.29171C29.8783 7.29171 26.8085 8.11567 24.1241 9.67296C23.9647 9.76567 23.7845 9.81462 23.6022 9.81462C23.2314 9.81462 22.8856 9.61567 22.7002 9.29483C22.6085 9.13754 22.5595 8.95837 22.5595 8.77712C22.5575 8.40525 22.7564 8.05837 23.0783 7.87192C24.5533 7.01462 26.1345 6.35317 27.7783 5.90525C29.472 5.44275 31.2283 5.20837 32.9991 5.20837C34.7918 5.20837 36.5668 5.44796 38.2772 5.91983C39.9366 6.37817 41.5313 7.05317 43.0179 7.92817C45.9554 9.65525 48.4127 12.124 50.1231 15.0677C50.4116 15.5646 50.2418 16.2032 49.746 16.4917C49.5865 16.5844 49.4064 16.6334 49.2231 16.6334ZM19.7252 12.8011V12.7959V12.8011C19.447 12.8011 19.1856 12.6927 18.9887 12.4969C18.7918 12.3 18.6835 12.0386 18.6835 11.7605C18.6825 11.4823 18.7908 11.2198 18.9877 11.023C19.1845 10.8261 19.446 10.7177 19.7252 10.7177C20.0022 10.7177 20.2637 10.825 20.4606 11.0219C20.6575 11.2177 20.7658 11.4792 20.7658 11.7573C20.7668 12.0355 20.6585 12.2969 20.4627 12.4938V12.4948C20.2658 12.6917 20.0033 12.8011 19.7252 12.8011Z" fill="#067362"/>
<path d="M38.3383 34.375C38.2008 34.375 38.0623 34.3479 37.9307 34.2919C37.5465 34.1284 37.2969 33.7511 37.2969 33.3334V15.5369C37.2969 15.1192 37.5465 14.7419 37.9307 14.5784C38.3151 14.4149 38.76 14.4967 39.0609 14.7864L48.3057 23.6846C48.5098 23.881 48.625 24.152 48.625 24.4351C48.625 24.7184 48.5098 24.9892 48.3057 25.1857L39.0609 34.0839C38.8629 34.2744 38.6026 34.375 38.3383 34.375ZM39.3802 17.9854V30.8849L46.0812 24.4351L39.3802 17.9854Z" fill="#067362"/>
<path d="M33.933 34.375H30.4089C29.8335 34.375 29.3672 33.9086 29.3672 33.3333V15.7122C29.3672 15.1369 29.8335 14.6705 30.4089 14.6705H33.933C34.5082 14.6705 34.9747 15.1369 34.9747 15.7122V33.3333C34.9747 33.9086 34.5082 34.375 33.933 34.375ZM31.4505 32.2917H32.8914V16.7539H31.4505V32.2917Z" fill="#067362"/>
<path d="M26.438 34.375H22.9137C22.3384 34.375 21.8721 33.9086 21.8721 33.3333V15.7122C21.8721 15.1369 22.3384 14.6705 22.9137 14.6705H26.438C27.0133 14.6705 27.4797 15.1369 27.4797 15.7122V33.3333C27.4797 33.9086 27.0133 34.375 26.438 34.375ZM23.9554 32.2917H25.3963V16.7539H23.9554V32.2917Z" fill="#067362"/>
</svg>
