<svg width="18" height="18" viewBox="0 0 18 18" fill="none" xmlns="http://www.w3.org/2000/svg">
<g clip-path="url(#clip0)">
<path d="M12.0876 0.0679813C11.9562 0.00252675 11.8248 0.00252675 11.6277 0.0679813C11.4964 0.133436 11.365 0.264345 11.2993 0.395254L10.9051 1.44253C9.32847 0.984345 7.68613 0.984345 6.0438 1.44253C2.69343 2.42434 0 5.63162 0 9.55889C0 14.2716 3.81022 18.068 8.54015 18.068C13.2044 18.068 17.0146 14.2716 17.0146 9.55889C17.0146 8.57707 16.8832 7.79162 16.6204 7.00616L17.6715 6.61344C18 6.48253 18.1314 6.15525 18 5.89344C16.9489 3.2098 14.781 1.0498 12.0876 0.0679813ZM10.5766 2.4898L8.67153 7.5298L7.0292 2.35889C8.14599 2.16253 9.39416 2.22798 10.5766 2.4898ZM15.8321 9.55889C15.8321 13.6171 12.5474 16.8898 8.54015 16.8898C4.46715 16.8898 1.18248 13.6171 1.18248 9.55889C1.11679 6.48253 3.08759 3.79889 5.91241 2.75162C8.21168 9.95162 8.0146 9.49344 8.08029 9.55889C8.21168 9.82071 8.54015 9.95162 8.80292 9.88616L15.5693 7.46434C15.7007 7.98798 15.8321 8.70798 15.8321 9.55889ZM9.59124 8.38071L12.219 1.37707C14.1898 2.29344 15.7664 3.86434 16.6861 5.82798L9.59124 8.38071Z" fill="#30C4AE"/>
<path d="M4.5985 9.55638C4.5985 9.2291 4.33572 8.96729 4.00726 8.96729C3.67879 8.96729 3.41602 9.2291 3.41602 9.55638C3.41602 12.3709 5.71529 14.5964 8.47441 14.5964C8.80288 14.5964 9.06565 14.3346 9.06565 14.0073C9.06565 13.68 8.80288 13.4182 8.47441 13.4182C6.30653 13.4836 4.5985 11.7164 4.5985 9.55638Z" fill="#30C4AE"/>
</g>
<defs>
<clipPath id="clip0">
<rect width="18" height="18" fill="white"/>
</clipPath>
</defs>
</svg>
