<svg width="19" height="17" viewBox="0 0 19 17" fill="none" xmlns="http://www.w3.org/2000/svg">
<path d="M8.97447 8.73805L17.8108 16.3299C18.076 16.5578 18.5018 16.5518 18.7601 16.3298C19.0254 16.1019 19.0185 15.7361 18.7602 15.5142L9.92391 7.92232C9.65868 7.69444 9.23287 7.70048 8.97457 7.9224C8.70929 8.13833 8.70924 8.51017 8.97447 8.73805Z" fill="#067362"/>
<path d="M17.8105 0.17104L8.97423 7.76291C8.709 7.99078 8.71602 8.35662 8.97433 8.57855C9.23961 8.80647 9.66542 8.80052 9.92367 8.57864L18.76 0.986769C19.0252 0.758893 19.0182 0.393052 18.7599 0.171126C18.5086 -0.0567971 18.0758 -0.0568358 17.8105 0.17104Z" fill="#067362"/>
<path d="M0.198893 8.7381L9.03521 16.33C9.30044 16.5578 9.72625 16.5518 9.98455 16.3299C10.2498 16.102 10.2429 15.7361 9.98465 15.5142L1.14833 7.92237C0.883106 7.6945 0.457297 7.70053 0.198992 7.92246C-0.0662917 8.13839 -0.0663366 8.51022 0.198893 8.7381Z" fill="#067362"/>
<path d="M9.03497 0.170851L0.198651 7.76272C-0.0665783 7.99059 -0.0595546 8.35643 0.19875 8.57836C0.464035 8.80629 0.889844 8.80033 1.14809 8.57845L9.98441 0.98658C10.2496 0.758704 10.2426 0.392864 9.98431 0.170937C9.73298 -0.0569861 9.3002 -0.0570247 9.03497 0.170851Z" fill="#067362"/>
<path d="M8.97447 8.73805L17.8108 16.3299C18.076 16.5578 18.5018 16.5518 18.7601 16.3298C19.0254 16.1019 19.0185 15.7361 18.7602 15.5142L9.92391 7.92232C9.65868 7.69444 9.23287 7.70048 8.97457 7.9224C8.70929 8.13833 8.70924 8.51017 8.97447 8.73805Z" stroke="#067362"/>
<path d="M17.8105 0.17104L8.97423 7.76291C8.709 7.99078 8.71602 8.35662 8.97433 8.57855C9.23961 8.80647 9.66542 8.80052 9.92367 8.57864L18.76 0.986769C19.0252 0.758893 19.0182 0.393052 18.7599 0.171126C18.5086 -0.0567971 18.0758 -0.0568358 17.8105 0.17104Z" stroke="#067362"/>
<path d="M0.198893 8.7381L9.03521 16.33C9.30044 16.5578 9.72625 16.5518 9.98455 16.3299C10.2498 16.102 10.2429 15.7361 9.98465 15.5142L1.14833 7.92237C0.883106 7.6945 0.457297 7.70053 0.198992 7.92246C-0.0662917 8.13839 -0.0663366 8.51022 0.198893 8.7381Z" stroke="#067362"/>
<path d="M9.03497 0.170851L0.198651 7.76272C-0.0665783 7.99059 -0.0595546 8.35643 0.19875 8.57836C0.464035 8.80629 0.889844 8.80033 1.14809 8.57845L9.98441 0.98658C10.2496 0.758704 10.2426 0.392864 9.98431 0.170937C9.73298 -0.0569861 9.3002 -0.0570247 9.03497 0.170851Z" stroke="#067362"/>
</svg>
