<svg width="45" height="11" viewBox="0 0 45 11" fill="none" xmlns="http://www.w3.org/2000/svg">
<g clip-path="url(#clip0)">
<path d="M4.01128 10.9958C2.75993 10.9958 1.51553 10.9898 0.264174 11.0017C0.0208559 11.0017 0 10.9419 0 10.7624C0.00695195 7.18346 0.00695195 3.60457 0.00695195 0.0316699C0.0764715 -0.0102235 0.152943 0.00773083 0.222463 0.00773083C1.50857 0.00773083 2.80164 0.00773083 4.08775 0.00773083C4.78294 0.00773083 5.40862 0.151365 5.88831 0.636131C6.13162 0.887491 6.29152 1.16878 6.3958 1.47998C6.88243 2.93428 7.34822 4.40055 7.83485 5.85485C7.87656 5.98651 7.86961 6.18999 8.07817 6.18999C8.27283 6.18401 8.27283 5.98053 8.31454 5.84886C8.80117 4.39456 9.27391 2.93428 9.75359 1.474C9.9552 0.869537 10.3654 0.402725 11.0536 0.151365C11.3873 0.0316699 11.7488 0.0197004 12.0964 0.0137156C13.3547 0.00773083 14.62 0.0137156 15.8783 0.0137156C16.2467 0.0137156 16.2676 0.0316699 16.2745 0.348862C16.2745 2.21012 16.2745 4.0654 16.2745 5.92666C16.2745 7.48869 16.2745 9.05669 16.2745 10.6187C16.2745 10.7564 16.2954 10.906 16.1355 11.0017C14.8007 11.0017 13.4659 11.0017 12.1312 11.0017C11.9643 10.906 11.9921 10.7564 11.9921 10.6127C11.9921 8.82927 11.9921 7.03983 11.9921 5.25637C11.9921 5.16061 11.9991 5.06486 11.9782 4.9691C11.9713 4.93319 11.9574 4.88531 11.9017 4.87933C11.8461 4.87334 11.8253 4.91524 11.7975 4.94516C11.7558 5.01099 11.7419 5.07683 11.714 5.14864C11.0675 6.95604 10.414 8.75746 9.77445 10.5589C9.71188 10.7264 9.66322 10.9 9.46161 10.9898C8.537 10.9898 7.60544 10.9898 6.68083 10.9898C6.50703 10.906 6.43751 10.7564 6.38189 10.6008C5.97173 9.43972 5.54766 8.28466 5.13749 7.1296C4.89418 6.43537 4.63695 5.74712 4.39364 5.05289C4.37973 5.00501 4.35888 4.96312 4.33107 4.92122C4.26155 4.84941 4.20593 4.84941 4.17117 4.93918C4.13641 5.04092 4.15032 5.14266 4.15032 5.25039C4.15032 7.03384 4.15032 8.82329 4.15032 10.6067C4.15032 10.7444 4.17117 10.894 4.01128 10.9958Z" fill="#5B5B5B"/>
<path d="M17.8596 10.994C17.8596 7.45102 17.8596 3.90804 17.8596 0.371043C17.8596 0.0358957 17.8596 0.0358957 18.2558 0.0299109C19.3403 0.0299109 20.4248 0.0358957 21.5093 0.0239262C21.7874 0.0179414 21.8708 0.0837738 21.8708 0.329149C21.8569 2.31609 21.8639 4.30303 21.8708 6.28998C21.8708 6.37975 21.8152 6.51141 22.0029 6.53535C22.1628 6.55929 22.2462 6.48747 22.2949 6.36778C22.3088 6.33187 22.3366 6.29596 22.3505 6.26005C22.7329 5.54188 23.1083 4.82371 23.4906 4.10554C23.9981 3.14199 24.5126 2.17844 25.0201 1.20891C25.2564 0.754068 25.6179 0.406951 26.1463 0.1915C26.4105 0.0837738 26.6816 0.0239262 26.9805 0.0239262C28.0442 0.0299109 29.1148 0.0239262 30.1784 0.0239262C30.5469 0.0239262 30.5469 0.0239262 30.5469 0.335134C30.5469 3.8841 30.5469 7.43307 30.5469 10.982C29.2121 10.982 27.8773 10.982 26.5425 10.982C26.3757 10.8803 26.4035 10.7307 26.4035 10.593C26.4035 8.81555 26.4035 7.03209 26.4035 5.25461C26.4035 5.15885 26.4105 5.0631 26.3966 4.96734C26.3896 4.90749 26.3896 4.82969 26.2923 4.81772C26.2158 4.81174 26.181 4.8656 26.1463 4.91348C26.0698 5.0212 26.0212 5.14689 25.9586 5.2606C25.18 6.74482 24.4153 8.22904 23.6436 9.71925C23.5254 9.94667 23.3864 10.1621 23.2056 10.3536C22.8441 10.7486 22.3714 10.9401 21.8083 10.976C20.4874 10.994 19.1735 10.994 17.8596 10.994Z" fill="#5B5B5B"/>
<path d="M32.3196 10.994C32.3196 9.10286 32.3196 7.21167 32.3196 5.32647C32.3196 5.01526 32.3196 5.00928 32.6881 5.00928C36.5881 5.00928 40.4882 5.00928 44.3882 5.00928C44.7428 5.00928 44.7636 5.03322 44.6037 5.3145C43.8112 6.68501 42.5321 7.43909 40.7524 7.48697C39.3898 7.52288 38.0272 7.49894 36.6646 7.49296C36.4004 7.49296 36.317 7.5528 36.317 7.78621C36.3309 8.85748 36.324 9.92277 36.324 10.994C34.9892 10.994 33.6544 10.994 32.3196 10.994Z" fill="#5B5B5B"/>
<path d="M45 4.29108C44.9444 4.49456 44.7845 4.54244 44.5551 4.53646C43.7764 4.5185 42.9978 4.52449 42.2262 4.52449C42.1149 4.45866 42.0871 4.3629 42.0871 4.24919C42.0941 3.0283 42.0802 1.8074 42.0871 0.580527C42.0871 0.448862 42.1219 0.353106 42.2818 0.311213C43.7904 0.849842 44.6663 1.82536 44.9583 3.20185C44.9652 3.23178 44.9861 3.25572 45.007 3.28564C45 3.62079 45 3.95594 45 4.29108Z" fill="#5B5B5B"/>
<path d="M37.2138 4.47063C34.6694 4.23722 32.3613 2.45376 31.833 0.3172C31.7982 0.173566 31.7356 0.0299315 32.0207 0.0299315C33.7517 0.0359163 35.4827 0.0359163 37.2138 0.0359163C37.325 0.101749 37.3528 0.20349 37.3528 0.311215C37.3528 1.60392 37.3528 2.90262 37.3528 4.19533C37.3528 4.30305 37.325 4.4048 37.2138 4.47063Z" fill="#5B5B5B"/>
<path d="M37.2138 4.47063C37.2138 2.99239 37.2138 1.51415 37.2138 0.0359163C38.1245 0.0359163 39.0283 0.0359183 39.939 0.0359183C40.0502 0.101751 40.078 0.203492 40.078 0.311217C40.078 1.62188 40.078 2.93254 40.078 4.24919C40.078 4.35692 40.0502 4.45866 39.939 4.52449C39.0283 4.51851 38.1175 4.57237 37.2138 4.47063Z" fill="#5B5B5B"/>
<path d="M39.939 4.51851C39.939 3.02232 39.939 1.52612 39.939 0.0359183C40.7384 0.0119792 41.531 0.00599763 42.2748 0.311221C42.2192 0.484779 42.2192 0.658337 42.2192 0.831895C42.2192 2.06476 42.2192 3.29163 42.2192 4.5245C41.4614 4.51851 40.6967 4.51851 39.939 4.51851Z" fill="#5B5B5B"/>
</g>
<defs>
<clipPath id="clip0">
<rect width="45" height="11" fill="white"/>
</clipPath>
</defs>
</svg>
