<svg width="18" height="18" viewBox="0 0 18 18" fill="none" xmlns="http://www.w3.org/2000/svg">
<g clip-path="url(#clip0)">
<path d="M13.6912 0.0330681C13.4208 -0.0826344 13.1028 0.066126 12.9915 0.347118L11.9579 3.12398C11.8466 3.40497 11.9897 3.73555 12.2601 3.85125C12.5304 3.96695 12.8484 3.81819 12.9597 3.5372L13.9933 0.760341C14.1046 0.46282 13.9615 0.148771 13.6912 0.0330681Z" fill="#495352"/>
<path d="M14.7878 6.23148L17.4274 5.07446C17.6977 4.95876 17.825 4.62818 17.7136 4.34719C17.6023 4.06619 17.2843 3.93396 17.014 4.04967L14.3744 5.19016C14.1041 5.30586 13.9769 5.63644 14.0882 5.91743C14.1995 6.19843 14.5175 6.34719 14.7878 6.23148Z" fill="#495352"/>
<path d="M17.682 9.90083L15.0584 8.72727L15.0107 8.71074C14.7562 8.6281 14.47 8.76033 14.3587 9.02479C14.2474 9.30578 14.3587 9.63636 14.6449 9.75207L17.2527 10.9256L17.3004 10.9421C17.5548 11.0248 17.841 10.8926 17.9524 10.6281C18.0796 10.3471 17.9524 10.0165 17.682 9.90083Z" fill="#495352"/>
<path d="M13.8654 12.0661C14.0244 12.4628 13.7064 12.8925 13.3089 12.8264C11.1463 12.5454 9.1587 12.4958 7.34598 12.6611L7.07566 12.6942C7.21877 13.0744 7.39368 13.4545 7.56859 13.8182C7.7117 14.1157 7.83891 14.3471 7.98202 14.5785C8.09333 14.7603 8.18873 14.9091 8.47495 15.3223C8.98378 16.0826 8.68166 17.1405 7.87071 17.6694C7.82301 17.7025 7.7594 17.7355 7.6958 17.7686C6.83714 18.2149 5.81948 17.9669 5.42195 17.1405C5.39015 17.0744 5.37425 17.0248 5.34244 16.9587C5.18343 16.4793 5.13573 16.314 5.05622 16.1157C4.96082 15.8677 4.86541 15.6198 4.7064 15.3223C4.40428 14.6942 4.07036 14.0992 3.67283 13.5206C3.64103 13.4545 3.60923 13.4049 3.59333 13.3388C3.05269 13.4876 2.49615 13.6529 1.95552 13.8347C1.6852 13.9339 1.39898 13.7851 1.28767 13.5206L0.0473909 10.4463C-0.0639162 10.1818 0.0473909 9.85122 0.301807 9.73551C0.810641 9.48758 1.30357 9.20659 1.81241 8.89254C2.17813 8.66113 2.63926 8.80989 2.81418 9.20659L2.94138 9.47105L4.00675 12.0992C5.08803 11.8512 6.1693 11.6694 7.26647 11.5702C8.88838 11.4215 10.6534 11.4545 12.5456 11.6363L9.2541 3.47105C8.15693 4.90907 6.93255 6.23138 5.59686 7.42146C5.34244 7.65287 5.07213 7.88427 4.80181 8.09915C4.51559 8.33056 4.10216 8.21485 3.97495 7.86775C3.89545 7.63634 3.95905 7.38841 4.14986 7.22312C4.40428 7.00824 4.6587 6.79337 4.89721 6.57849C6.39191 5.23965 7.7594 3.73551 8.95198 2.04956C9.2064 1.70246 9.71523 1.76857 9.87424 2.16527L13.8654 12.0661ZM2.94138 12.3636L2.00322 10.0496C1.74881 10.1983 1.47849 10.3471 1.20817 10.4958L2.06683 12.6281C2.36895 12.5289 2.65517 12.4463 2.94138 12.3636ZM7.05976 15.1735C6.90075 14.9091 6.75764 14.6611 6.59863 14.3306C6.36011 13.8512 6.1534 13.3553 5.96258 12.843C5.53326 12.9091 5.08803 12.9917 4.6587 13.0909L4.7223 13.1735C5.07213 13.719 5.37425 14.2644 5.64456 14.843C5.80357 15.1735 5.93078 15.438 6.02619 15.7355C6.10569 15.9669 6.1693 16.1322 6.32831 16.6281C6.32831 16.6446 6.34421 16.6611 6.34421 16.6777C6.45552 16.9091 6.82124 16.9917 7.18697 16.8099C7.21877 16.7934 7.23467 16.7768 7.26647 16.7603C7.60039 16.5454 7.6958 16.1983 7.56859 15.9834C7.28237 15.5372 7.18696 15.3719 7.05976 15.1735Z" fill="#495352"/>
</g>
<defs>
<clipPath id="clip0">
<rect width="18" height="18" fill="white" transform="matrix(-1 0 0 1 18 0)"/>
</clipPath>
</defs>
</svg>
