<svg width="32" height="24" viewBox="0 0 32 24" fill="none" xmlns="http://www.w3.org/2000/svg">
<path d="M9.95134 8.5507C9.95134 9.37849 9.28054 10.0494 8.46164 10.0494C7.64273 10.0494 6.97193 9.3872 6.97193 8.56812V7.26109C6.97193 6.92997 6.70187 6.66856 6.37953 6.66856C6.04849 6.66856 5.78714 6.93869 5.78714 7.26109V8.5507C5.78714 8.5507 5.78714 8.5507 5.78714 8.55941C5.78714 8.56812 5.78714 8.56812 5.78714 8.57684V8.64655C5.8307 9.9013 6.728 10.9469 7.92151 11.1909V14.868C6.64089 15.1382 5.6826 16.3232 5.78714 17.6999C5.88297 19.0157 6.95451 20.0788 8.26998 20.1659C9.83809 20.2792 11.1448 19.0331 11.1448 17.4908C11.1448 16.2361 10.2737 15.1817 9.1063 14.8855V11.1561C10.2475 10.8685 11.1013 9.84902 11.1361 8.62912V7.25237C11.1361 6.92126 10.8661 6.65985 10.5437 6.65985C10.2127 6.65985 9.95134 6.92997 9.95134 7.25237V8.5507ZM9.95134 17.4908C9.95134 18.3099 9.28054 18.9808 8.46164 18.9808C7.64273 18.9808 6.97193 18.3099 6.97193 17.4908C6.97193 16.6717 7.64273 16.0008 8.46164 16.0008C9.28054 16.0008 9.95134 16.663 9.95134 17.4908Z" fill="#8C9C9A"/>
<path d="M15.0216 13.3084H26.0506C26.3817 13.3084 26.643 13.0383 26.643 12.7159C26.643 12.3848 26.373 12.1234 26.0506 12.1234H15.0216C14.6905 12.1234 14.4292 12.3935 14.4292 12.7159C14.4205 13.047 14.6905 13.3084 15.0216 13.3084Z" fill="#8C9C9A"/>
<path d="M19.4645 10.102H26.0506C26.3816 10.102 26.643 9.83186 26.643 9.50945C26.643 9.17834 26.3729 8.91693 26.0506 8.91693H19.4645C19.1335 8.91693 18.8721 9.18705 18.8721 9.50945C18.8634 9.83186 19.1335 10.102 19.4645 10.102Z" fill="#8C9C9A"/>
<path d="M17.3569 8.90817H15.0914C14.7603 8.90817 14.4989 9.1783 14.4989 9.5007C14.4989 9.83182 14.769 10.0932 15.0914 10.0932H17.3569C17.6881 10.0932 17.9495 9.82311 17.9495 9.5007C17.9495 9.1783 17.6881 8.90817 17.3569 8.90817Z" fill="#8C9C9A"/>
<path d="M21.852 1.81525H20.3271C19.996 1.81525 19.7346 2.08537 19.7346 2.40777C19.7346 2.73889 20.0047 3.00029 20.3271 3.00029H21.852C22.1831 3.00029 22.4445 2.73017 22.4445 2.40777C22.4445 2.07665 22.1744 1.81525 21.852 1.81525Z" fill="#8C9C9A"/>
<path d="M15.0216 15.7919H26.0506C26.3817 15.7919 26.643 15.5218 26.643 15.1994C26.643 14.8682 26.373 14.6068 26.0506 14.6068H15.0216C14.6905 14.6068 14.4292 14.877 14.4292 15.1994C14.4205 15.5218 14.6905 15.7919 15.0216 15.7919Z" fill="#8C9C9A"/>
<path d="M15.0216 18.2926H26.0506C26.3817 18.2926 26.643 18.0224 26.643 17.7C26.643 17.3689 26.373 17.1075 26.0506 17.1075H15.0216C14.6905 17.1075 14.4292 17.3776 14.4292 17.7C14.4205 18.0224 14.6905 18.2926 15.0216 18.2926Z" fill="#8C9C9A"/>
<path d="M26.8347 1.87624H24.0992C23.8117 1.87624 23.5765 2.1115 23.5765 2.39905C23.5765 2.6866 23.8117 2.92186 24.0992 2.92186H26.8347C28.6119 2.92186 30.0667 4.37703 30.0667 6.1546V19.7216C30.0667 21.4992 28.6119 22.9544 26.8347 22.9544H5.25573C3.47854 22.9544 2.02368 21.4992 2.02368 19.7216V6.1546C2.02368 4.37703 3.47854 2.92186 5.25573 2.92186H7.89538L9.64644 1.17044C9.81196 1.00488 10.0733 1.00488 10.2301 1.17044L11.9812 2.92186H18.2362C18.5237 2.92186 18.7589 2.6866 18.7589 2.39905C18.7589 2.1115 18.5237 1.87624 18.2362 1.87624H12.4081L11.0055 0.455923C10.7441 0.194516 10.4044 0.0289576 10.0385 0.00281688C9.61159 -0.0233238 9.21085 0.133521 8.91465 0.429782L7.46851 1.87624H5.25573C2.90356 1.87624 0.986983 3.79322 0.978271 6.1546V19.7216C0.978271 22.0743 2.89485 23.9913 5.25573 24H26.8347C29.1868 24 31.1034 22.083 31.1121 19.7216V6.1546C31.1121 3.80194 29.1955 1.88495 26.8347 1.87624Z" fill="#8C9C9A"/>
</svg>
