<svg width="23" height="23" viewBox="0 0 23 23" fill="none" xmlns="http://www.w3.org/2000/svg">
<g clip-path="url(#clip0)">
<path d="M17.4937 0.0422639C17.1482 -0.105578 16.7419 0.0845045 16.5997 0.443549L15.279 3.99176C15.1368 4.3508 15.3196 4.77321 15.665 4.92105C16.0104 5.06889 16.4168 4.87881 16.559 4.51977L17.8797 0.971557C18.0219 0.591391 17.8391 0.190106 17.4937 0.0422639Z" fill="#495352"/>
<path d="M18.8956 7.96233L22.2684 6.48391C22.6138 6.33607 22.7763 5.91366 22.6341 5.55462C22.4919 5.19557 22.0855 5.02661 21.7401 5.17445L18.3673 6.63175C18.0219 6.77959 17.8594 7.202 18.0016 7.56104C18.1438 7.92009 18.5502 8.11017 18.8956 7.96233Z" fill="#495352"/>
<path d="M22.5937 12.651L19.2412 11.1515L19.1802 11.1304C18.8551 11.0248 18.4894 11.1937 18.3472 11.5317C18.205 11.8907 18.3472 12.3131 18.7129 12.461L22.0451 13.9605L22.106 13.9816C22.4311 14.0872 22.7968 13.9183 22.9391 13.5803C23.1016 13.2213 22.9391 12.7989 22.5937 12.651Z" fill="#495352"/>
<path d="M17.7171 15.4179C17.9203 15.9247 17.5139 16.4739 17.0059 16.3894C14.2427 16.0303 11.7029 15.967 9.38669 16.1782L9.04128 16.2204C9.22414 16.7062 9.44764 17.192 9.67114 17.6566C9.854 18.0368 10.0165 18.3325 10.1994 18.6281C10.3416 18.8605 10.4635 19.0505 10.8293 19.5786C11.4794 20.5501 11.0934 21.9018 10.0572 22.5776C9.99623 22.6199 9.91496 22.6621 9.83368 22.7044C8.73651 23.2746 7.43616 22.9578 6.92821 21.9018C6.88757 21.8173 6.86725 21.7539 6.82662 21.6695C6.62344 21.057 6.56248 20.8458 6.46089 20.5923C6.33898 20.2755 6.21708 19.9587 6.0139 19.5786C5.62786 18.776 5.20118 18.0157 4.69323 17.2764C4.65259 17.192 4.61195 17.1286 4.59164 17.0441C3.90082 17.2342 3.18969 17.4454 2.49888 17.6777C2.15347 17.8045 1.78775 17.6144 1.64552 17.2764L0.0607185 13.3481C-0.0815086 13.0101 0.0607185 12.5877 0.385807 12.4399C1.03598 12.1231 1.66584 11.764 2.31602 11.3628C2.78333 11.0671 3.37256 11.2572 3.59605 11.764L3.7586 12.102L5.1199 15.4601C6.50153 15.1433 7.88315 14.911 9.2851 14.7843C11.3575 14.5942 13.6128 14.6364 16.0307 14.8687L11.8249 4.43531C10.4229 6.27277 8.85842 7.9624 7.15171 9.48306C6.82662 9.77874 6.48121 10.0744 6.13581 10.349C5.77008 10.6447 5.24181 10.4968 5.07927 10.0533C4.97768 9.75762 5.05895 9.44082 5.30277 9.22961C5.62786 8.95505 5.95294 8.68048 6.25771 8.40592C8.16761 6.69518 9.91496 4.77323 11.4388 2.61896C11.7639 2.17543 12.4141 2.25992 12.6173 2.7668L17.7171 15.4179ZM3.7586 15.798L2.55983 12.8412C2.23475 13.0313 1.88934 13.2213 1.54393 13.4114L2.64111 16.1359C3.02715 16.0092 3.39287 15.9036 3.7586 15.798ZM9.02096 19.3885C8.81778 19.0505 8.63492 18.7337 8.43174 18.3113C8.12697 17.6988 7.86284 17.0652 7.61902 16.4105C7.07043 16.495 6.50153 16.6006 5.95294 16.7273L6.03421 16.8329C6.48121 17.5299 6.86725 18.2269 7.21266 18.9661C7.41584 19.3885 7.57838 19.7264 7.70029 20.1066C7.80188 20.4022 7.88315 20.6135 8.08633 21.2471C8.08633 21.2682 8.10665 21.2893 8.10665 21.3104C8.24888 21.6061 8.71619 21.7117 9.18351 21.4794C9.22414 21.4583 9.24446 21.4371 9.2851 21.416C9.71178 21.1415 9.83368 20.6979 9.67114 20.4234C9.30542 19.8531 9.18351 19.6419 9.02096 19.3885Z" fill="#495352"/>
</g>
<defs>
<clipPath id="clip0">
<rect width="23" height="23" fill="white" transform="matrix(-1 0 0 1 23 0)"/>
</clipPath>
</defs>
</svg>
