<svg width="21" height="24" viewBox="0 0 21 24" fill="none" xmlns="http://www.w3.org/2000/svg">
<path d="M19.3634 16.0825C18.7788 15.3297 18.4563 14.3848 18.4563 13.4349V9.48379C18.4563 5.47705 15.3571 2.09179 11.4919 1.80379V0.555789C11.4919 0.247579 11.2449 0 10.9375 0C10.6301 0 10.3832 0.247579 10.3832 0.555789V1.79874C8.62949 1.92505 6.99672 2.65263 5.71672 3.89053C4.23514 5.32547 3.41876 7.25053 3.41876 9.312V13.4349C3.41876 14.3899 3.09624 15.3297 2.51167 16.0825C1.96742 16.7848 1.50883 17.5579 1.15607 18.3714C0.883947 19.0029 0.94442 19.7204 1.32237 20.2964C1.70537 20.8825 2.35041 21.2362 3.05088 21.2362H7.672C7.93909 22.8025 9.29468 23.9949 10.9274 23.9949C12.5602 23.9949 13.9208 22.7975 14.1829 21.2362H18.804C19.5045 21.2362 20.1495 20.8876 20.5325 20.2964C20.9105 19.7204 20.9709 18.9979 20.6988 18.3714C20.3612 17.5579 19.9076 16.7848 19.3634 16.0825ZM10.9426 22.8935C9.91957 22.8935 9.06287 22.1912 8.81594 21.2413H13.0692C12.8223 22.1861 11.9656 22.8935 10.9426 22.8935ZM19.6254 19.6901C19.444 19.9629 19.1467 20.1297 18.8191 20.1297H3.066C2.73844 20.1297 2.44112 19.968 2.2597 19.6901C2.08332 19.4223 2.05812 19.104 2.17907 18.8109C2.49655 18.0834 2.90474 17.3912 3.39356 16.7596C4.12931 15.8147 4.53246 14.6274 4.53246 13.4299V9.312C4.53246 7.55368 5.2279 5.91158 6.49278 4.68884C7.6972 3.52168 9.26949 2.89011 10.9426 2.89011C11.0232 2.89011 11.0988 2.89011 11.1794 2.89516C14.586 3.01642 17.3527 5.97221 17.3527 9.48379V13.4349C17.3527 14.2686 17.5492 15.0872 17.912 15.8349H12.9432C12.6358 15.8349 12.3889 16.0825 12.3889 16.3907C12.3889 16.6989 12.6358 16.9465 12.9432 16.9465H18.6175C18.8544 17.2699 19.0711 17.6034 19.2676 17.952H15.866C15.5586 17.952 15.3117 18.1996 15.3117 18.5078C15.3117 18.816 15.5586 19.0636 15.866 19.0636H19.7716C19.7968 19.2707 19.7514 19.4981 19.6254 19.6901Z" fill="#067362"/>
<path d="M16.9957 2.95074C17.0663 3.04169 17.152 3.10737 17.2528 3.14274C17.4191 3.20338 17.6107 3.18316 17.7669 3.06695C18.0139 2.88506 18.0643 2.53643 17.8829 2.28885C17.2982 1.49558 16.5119 0.884214 15.6096 0.525477C15.1358 0.338529 14.6469 0.217266 14.1479 0.16674C13.8454 0.136424 13.5733 0.35874 13.543 0.661898C13.5128 0.965056 13.7346 1.2379 14.037 1.26821C14.4352 1.30864 14.8334 1.40464 15.2013 1.55622C15.9171 1.84422 16.532 2.32422 16.9957 2.95074Z" fill="#067362"/>
</svg>
