<svg width="20" height="24" viewBox="0 0 20 24" fill="none" xmlns="http://www.w3.org/2000/svg">
<g clip-path="url(#clip0)">
<path d="M18.408 16.0825C17.822 15.3297 17.4987 14.3848 17.4987 13.4349V9.48379C17.4987 5.47705 14.392 2.09179 10.5175 1.80379V0.555789C10.5175 0.247579 10.2699 0 9.9618 0C9.65366 0 9.40613 0.247579 9.40613 0.555789V1.79874C7.64819 1.92505 6.01148 2.65263 4.72838 3.89053C3.24323 5.32547 2.42487 7.25053 2.42487 9.312V13.4349C2.42487 14.3899 2.10157 15.3297 1.51559 16.0825C0.970025 16.7848 0.510333 17.5579 0.156724 18.3714C-0.11606 19.0029 -0.0554416 19.7204 0.323425 20.2964C0.707344 20.8825 1.35394 21.2362 2.05611 21.2362H6.68839C6.95612 22.8025 8.31499 23.9949 9.9517 23.9949C11.5884 23.9949 12.9523 22.7975 13.215 21.2362H17.8473C18.5494 21.2362 19.1961 20.8876 19.58 20.2964C19.9588 19.7204 20.0195 18.9979 19.7467 18.3714C19.4082 17.5579 18.9536 16.7848 18.408 16.0825ZM9.96685 22.8935C8.94139 22.8935 8.08262 22.1912 7.83509 21.2413H12.0986C11.8511 22.1861 10.9923 22.8935 9.96685 22.8935ZM18.6707 19.6901C18.4888 19.9629 18.1908 20.1297 17.8624 20.1297H2.07126C1.74291 20.1297 1.44487 19.968 1.26302 19.6901C1.08621 19.4223 1.06095 19.104 1.18219 18.8109C1.50044 18.0834 1.90961 17.3912 2.39962 16.7596C3.13714 15.8147 3.54127 14.6274 3.54127 13.4299V9.312C3.54127 7.55368 4.23838 5.91158 5.50632 4.68884C6.71365 3.52168 8.28973 2.89011 9.96685 2.89011C10.0477 2.89011 10.1235 2.89011 10.2043 2.89516C13.6191 3.01642 16.3924 5.97221 16.3924 9.48379V13.4349C16.3924 14.2686 16.5894 15.0872 16.9532 15.8349H11.9723C11.6642 15.8349 11.4166 16.0825 11.4166 16.3907C11.4166 16.6989 11.6642 16.9465 11.9723 16.9465H17.6604C17.8978 17.2699 18.115 17.6034 18.312 17.952H14.9022C14.5941 17.952 14.3466 18.1996 14.3466 18.5078C14.3466 18.816 14.5941 19.0636 14.9022 19.0636H18.8172C18.8424 19.2707 18.797 19.4981 18.6707 19.6901Z" fill="#495352"/>
<path d="M16.0341 2.95077C16.1049 3.04172 16.1908 3.1074 16.2918 3.14277C16.4586 3.2034 16.6506 3.18319 16.8072 3.06698C17.0548 2.88509 17.1053 2.53646 16.9234 2.28888C16.3373 1.49561 15.5491 0.884243 14.6447 0.525505C14.1697 0.338558 13.6796 0.217295 13.1794 0.166768C12.8762 0.136452 12.6034 0.358768 12.5731 0.661927C12.5428 0.965085 12.7651 1.23793 13.0682 1.26824C13.4674 1.30866 13.8666 1.40466 14.2354 1.55624C14.9529 1.84424 15.5693 2.32424 16.0341 2.95077Z" fill="#495352"/>
</g>
<defs>
<clipPath id="clip0">
<rect width="19.9284" height="24" fill="white"/>
</clipPath>
</defs>
</svg>
