<svg width="83" height="83" viewBox="0 0 83 83" fill="none" xmlns="http://www.w3.org/2000/svg">
<g clip-path="url(#clip0)">
<path d="M61.7314 74.6485L63.1321 76.6198C64.0139 76.101 64.8439 75.5304 65.6739 74.9598L64.1177 73.0923C63.3396 73.611 62.5096 74.1298 61.7314 74.6485Z" fill="#C43930"/>
<path d="M68.0086 73.1439C68.7868 72.5214 69.5649 71.8471 70.2911 71.1727L68.4755 69.5127C67.8011 70.1352 67.0749 70.7577 66.3486 71.3802L68.0086 73.1439Z" fill="#C43930"/>
<path d="M76.101 64.4291C76.6716 63.651 77.1904 62.7691 77.7091 61.9391L75.4785 60.7979C75.0116 61.576 74.4929 62.3541 73.9741 63.1322L76.101 64.4291Z" fill="#C43930"/>
<path d="M51.1489 79.2134L51.8752 81.444C52.8608 81.1847 53.8464 80.8734 54.7802 80.5103L53.9502 78.3315C53.0164 78.6428 52.0827 78.954 51.1489 79.2134Z" fill="#C43930"/>
<path d="M80.0954 37.1946L82.5854 36.8834C82.4298 35.9496 82.2742 34.964 82.0667 34.0303L79.5767 34.4971C79.7842 35.379 79.9398 36.3128 80.0954 37.1946Z" fill="#C43930"/>
<path d="M81.2365 54.0021C81.5477 53.0684 81.7552 52.1346 82.0146 51.2009L79.5246 50.6821C79.3171 51.564 79.0577 52.4459 78.7983 53.3278L81.2365 54.0021Z" fill="#C43930"/>
<path d="M80.4582 41.6557C80.4582 41.967 80.4582 42.2782 80.4582 42.6413H83.0001C83.0001 42.3301 83.0001 41.967 83.0001 41.6557C83.0001 41.0332 82.9482 40.3588 82.8964 39.7363L80.3545 39.892C80.4064 40.4626 80.4582 41.0332 80.4582 41.6557Z" fill="#C43930"/>
<path d="M79.058 59.3453C79.473 58.4634 79.888 57.5815 80.2511 56.6996L77.8649 55.8696C77.5536 56.6996 77.1386 57.5296 76.7236 58.3596L79.058 59.3453Z" fill="#C43930"/>
<path d="M72.3657 69.0458C73.04 68.3196 73.7144 67.5414 74.285 66.8152L72.2619 65.4146C71.6913 66.1408 71.0688 66.8671 70.4463 67.5414L72.3657 69.0458Z" fill="#C43930"/>
<path d="M82.5331 48.3476C82.6887 47.4139 82.7925 46.4282 82.8443 45.4945L80.3025 45.3389C80.2506 46.2207 80.1468 47.1545 79.9912 48.0364L82.5331 48.3476Z" fill="#C43930"/>
<path d="M57.6851 79.4207C58.6188 79.0057 59.5526 78.5907 60.4345 78.1238L59.1895 76.0488C58.3595 76.4638 57.4776 76.8788 56.5957 77.2938L57.6851 79.4207Z" fill="#C43930"/>
<path d="M18.6749 10.1673L17.1187 8.2998C16.2887 8.87043 15.5105 9.49293 14.7324 10.1673L16.3924 11.9311C17.1187 11.3086 17.8968 10.7379 18.6749 10.1673Z" fill="#C43930"/>
<path d="M12.5018 12.1387C11.7755 12.813 11.1011 13.5393 10.4268 14.2655L12.3461 15.7699C12.9686 15.0955 13.643 14.4212 14.3174 13.7468L12.5018 12.1387Z" fill="#C43930"/>
<path d="M5.18762 21.4761C4.72074 22.3061 4.25387 23.188 3.83887 24.0698L6.17324 25.0036C6.58824 24.1736 7.00324 23.3436 7.47012 22.5654L5.18762 21.4761Z" fill="#C43930"/>
<path d="M28.7908 4.7725L27.857 2.59375C26.9233 2.95687 25.9377 3.32 25.0039 3.735L26.0933 5.86188C26.9752 5.49875 27.9089 5.13562 28.7908 4.7725Z" fill="#C43930"/>
<path d="M0.933789 32.2661C0.726289 33.1999 0.570664 34.1855 0.415039 35.1192L2.90504 35.4305C3.00879 34.5486 3.21629 33.6149 3.42379 32.733L0.933789 32.2661Z" fill="#C43930"/>
<path d="M2.74951 44.5089C2.69764 44.1977 2.69764 43.8864 2.64576 43.5752L0.155762 43.7827C0.155762 44.0939 0.207637 44.4571 0.259512 44.7683C0.311387 45.3908 0.415137 46.0133 0.518887 46.6358L3.00889 46.2727C2.85326 45.6502 2.80139 45.0796 2.74951 44.5089Z" fill="#C43930"/>
<path d="M2.64566 26.7158C2.28254 27.5977 1.97129 28.5314 1.71191 29.4652L4.09816 30.0877C4.35754 29.2058 4.66879 28.3758 4.98004 27.4939L2.64566 26.7158Z" fill="#C43930"/>
<path d="M8.5074 16.5479C7.8849 17.326 7.31428 18.1041 6.74365 18.9341L8.87053 20.1791C9.38928 19.401 9.9599 18.6747 10.5305 17.9485L8.5074 16.5479Z" fill="#C43930"/>
<path d="M0.10375 37.9727C0.051875 38.9064 0 39.892 0 40.8777H2.54188C2.54188 39.9958 2.54188 39.062 2.64563 38.1802L0.10375 37.9727Z" fill="#C43930"/>
<path d="M34.3415 3.16434L33.7708 0.881836C32.7852 1.08934 31.7477 1.34871 30.814 1.65996L31.5402 3.89059C32.474 3.63121 33.4077 3.37184 34.3415 3.16434Z" fill="#C43930"/>
<path d="M22.3063 5.0835C21.4244 5.55037 20.5425 6.06912 19.6606 6.58787L21.0613 8.55912C21.8913 8.04037 22.7213 7.5735 23.5513 7.10662L22.3063 5.0835Z" fill="#C43930"/>
<path d="M45.5981 80.1992C27.5975 81.9629 10.3231 70.7579 4.5131 53.5873C4.3056 52.9129 3.52747 52.4979 2.8531 52.7573C2.17872 52.9648 1.8156 53.7429 2.0231 54.4173C8.19622 72.781 26.6637 84.7123 45.9094 82.8448H45.9612C46.6875 82.741 47.1544 82.1185 47.1025 81.3923C46.9987 80.666 46.3244 80.0954 45.5981 80.1992Z" fill="#C43930"/>
<path d="M38.595 2.6977C56.3362 1.55645 72.6769 12.5539 78.3312 29.4133C78.5387 30.0358 79.1612 30.3989 79.7837 30.2952C79.8875 30.2952 79.9394 30.2433 80.0431 30.2433C80.7175 30.0358 81.0806 29.2577 80.8731 28.5833C74.8037 10.5827 57.3737 -1.14105 38.4394 0.0520723C37.7131 0.103947 37.1944 0.726447 37.2462 1.4527C37.2462 2.17895 37.8687 2.74957 38.595 2.6977Z" fill="#C43930"/>
<path fill-rule="evenodd" clip-rule="evenodd" d="M49.3551 30.7896C49.3551 31.4408 48.8256 31.9714 48.1733 31.9714H33.995C33.3426 31.9714 32.8132 31.4408 32.8132 30.7896V28.1366C32.8132 27.4855 33.3426 26.9549 33.995 26.9549H48.1733C48.8256 26.9549 49.3551 27.4855 49.3551 28.1366V30.7896ZM48.1733 24.5915H33.995C32.0404 24.5915 30.4498 26.1821 30.4498 28.1366V30.7896C30.4498 32.7442 32.0404 34.3348 33.995 34.3348H48.1733C50.1279 34.3348 51.7185 32.7442 51.7185 30.7896V28.1366C51.7185 26.1821 50.1279 24.5915 48.1733 24.5915ZM35.6195 39.0617C35.6195 38.0147 34.7698 37.165 33.724 37.165C32.6758 37.165 31.8273 38.0147 31.8273 39.0617C31.8273 40.1087 32.6758 40.9572 33.724 40.9572C34.7698 40.9572 35.6195 40.1087 35.6195 39.0617ZM43.0549 39.0617C43.0549 38.0147 42.2052 37.165 41.1594 37.165C40.1112 37.165 39.2627 38.0147 39.2627 39.0617C39.2627 40.1087 40.1112 40.9572 41.1594 40.9572C42.2052 40.9572 43.0549 40.1087 43.0549 39.0617ZM48.5941 37.1654C47.5471 37.1654 46.6975 38.0139 46.6975 39.0609C46.6975 40.1079 47.5471 40.9576 48.5941 40.9576C49.6411 40.9576 50.4908 40.1091 50.4908 39.0621C50.4908 38.0151 49.6411 37.1654 48.5941 37.1654ZM52.4882 19H29.513C27.0243 19 25 21.0243 25 23.5118V49.9684C25 52.4559 27.0243 54.4802 29.513 54.4802V52.1167C28.3277 52.1167 27.3635 51.1524 27.3635 49.9684V23.5118C27.3635 22.3277 28.3277 21.3635 29.513 21.3635H52.4882C53.6734 21.3635 54.6365 22.3277 54.6365 23.5118V49.9684C54.6365 51.1524 53.6734 52.1167 52.4882 52.1167V54.4802C54.9757 54.4802 57 52.4559 57 49.9684V23.5118C57 21.0243 54.9757 19 52.4882 19Z" fill="#C43930"/>
<path fill-rule="evenodd" clip-rule="evenodd" d="M40.8694 60.4365C37.0844 60.4365 34.0036 57.3569 34.0036 53.5719C34.0036 49.7868 37.0844 46.7072 40.8694 46.7072C44.6545 46.7072 47.7341 49.7868 47.7341 53.5719C47.7341 57.3569 44.6545 60.4365 40.8694 60.4365ZM40.8694 44.3438C35.7797 44.3438 31.6401 48.4833 31.6401 53.5719C31.6401 58.6604 35.7797 62.8 40.8694 62.8C45.9579 62.8 50.0975 58.6604 50.0975 53.5719C50.0975 48.4833 45.9579 44.3438 40.8694 44.3438Z" fill="#C43930"/>
<path fill-rule="evenodd" clip-rule="evenodd" d="M42.5261 50.9067L40.943 52.5189L39.3598 50.9067L37.978 52.3139L39.5612 53.926L37.978 55.5382L39.3598 56.9454L40.943 55.3332L42.5261 56.9454L43.9079 55.5382L42.3248 53.926L43.9079 52.3139L42.5261 50.9067Z" fill="#C43930"/>
</g>
<defs>
<clipPath id="clip0">
<rect width="83" height="83" fill="white"/>
</clipPath>
</defs>
</svg>
