<svg width="32" height="44" viewBox="0 0 32 44" fill="none" xmlns="http://www.w3.org/2000/svg">
<path fill-rule="evenodd" clip-rule="evenodd" d="M24.3551 11.7896C24.3551 12.4408 23.8256 12.9713 23.1733 12.9713H8.99496C8.34264 12.9713 7.81323 12.4408 7.81323 11.7896V9.13664C7.81323 8.48551 8.34264 7.95492 8.99496 7.95492H23.1733C23.8256 7.95492 24.3551 8.48551 24.3551 9.13664V11.7896ZM23.1733 5.59146H8.99496C7.04038 5.59146 5.44977 7.18207 5.44977 9.13664V11.7896C5.44977 13.7442 7.04038 15.3348 8.99496 15.3348H23.1733C25.1279 15.3348 26.7185 13.7442 26.7185 11.7896V9.13664C26.7185 7.18207 25.1279 5.59146 23.1733 5.59146ZM10.6195 20.0617C10.6195 19.0147 9.76982 18.165 8.72399 18.165C7.67579 18.165 6.82731 19.0147 6.82731 20.0617C6.82731 21.1087 7.67579 21.9572 8.72399 21.9572C9.76982 21.9572 10.6195 21.1087 10.6195 20.0617ZM18.0549 20.0617C18.0549 19.0147 17.2052 18.165 16.1594 18.165C15.1112 18.165 14.2627 19.0147 14.2627 20.0617C14.2627 21.1087 15.1112 21.9572 16.1594 21.9572C17.2052 21.9572 18.0549 21.1087 18.0549 20.0617ZM23.5941 18.1654C22.5471 18.1654 21.6975 19.0139 21.6975 20.0609V20.0621C21.6975 21.1091 22.5471 21.9576 23.5941 21.9576C24.6411 21.9576 25.4908 21.1091 25.4908 20.0621V20.0609C25.4908 19.0139 24.6411 18.1654 23.5941 18.1654ZM27.4882 0H4.51302C2.0243 0 0 2.0243 0 4.51184V30.9684C0 33.4559 2.0243 35.4802 4.51302 35.4802V33.1167C3.32774 33.1167 2.36346 32.1524 2.36346 30.9684V4.51184C2.36346 3.32774 3.32774 2.36346 4.51302 2.36346H27.4882C28.6734 2.36346 29.6365 3.32774 29.6365 4.51184V30.9684C29.6365 32.1524 28.6734 33.1167 27.4882 33.1167V35.4802C29.9757 35.4802 32 33.4559 32 30.9684V4.51184C32 2.0243 29.9757 0 27.4882 0ZM14.8528 35.2609L13.1464 33.5544L11.4754 35.2254L14.8528 38.6028L20.9564 32.5003L19.2854 30.8294L14.8528 35.2609Z" fill="#087464"/>
<path fill-rule="evenodd" clip-rule="evenodd" d="M15.8694 41.4365C12.0844 41.4365 9.00359 38.3569 9.00359 34.5719C9.00359 30.7868 12.0844 27.7072 15.8694 27.7072C19.6545 27.7072 22.7341 30.7868 22.7341 34.5719C22.7341 38.3569 19.6545 41.4365 15.8694 41.4365ZM15.8694 25.3438C10.7797 25.3438 6.64014 29.4833 6.64014 34.5719C6.64014 39.6604 10.7797 43.8 15.8694 43.8C20.9579 43.8 25.0975 39.6604 25.0975 34.5719C25.0975 29.4833 20.9579 25.3438 15.8694 25.3438Z" fill="#087464"/>
</svg>
