<svg width="32" height="32" viewBox="0 0 32 32" fill="none" xmlns="http://www.w3.org/2000/svg">
<path d="M11.5066 26.9819C11.2542 26.8544 11.0017 26.7269 10.6542 26.6306L10.973 25.9995C11.2255 26.127 11.478 26.2545 11.6992 26.287L11.5066 26.9819Z" fill="#495352" stroke="#495352"/>
<path d="M8.54077 25.3254C8.2883 25.1979 8.0996 24.9441 7.84713 24.8166L8.32339 24.3442C8.48086 24.5029 8.76457 24.7255 8.92204 24.8842L8.54077 25.3254Z" fill="#495352" stroke="#495352"/>
<path d="M6.17865 22.9441C5.98994 22.6904 5.83247 22.5316 5.73876 22.2466L6.37249 21.933C6.5612 22.1867 6.62367 22.3767 6.81238 22.6304L6.17865 22.9441Z" fill="#495352" stroke="#495352"/>
<path d="M5.244 19.4618C5.27523 19.5568 5.30647 19.6518 5.33771 19.7468L4.67274 19.9654C4.6415 19.8704 4.61026 19.7754 4.57902 19.6805C4.51655 19.4905 4.45408 19.3005 4.3916 19.1105L5.05657 18.8918C5.15029 19.1768 5.21276 19.3668 5.244 19.4618Z" fill="#495352" stroke="#495352"/>
<path d="M14.9498 27.8497C14.6336 27.8484 14.4123 27.8159 14.0649 27.7196L14.2574 27.0247C14.4787 27.0572 14.7949 27.0585 15.1423 27.1548L14.9498 27.8497Z" fill="#495352" stroke="#495352"/>
<path d="M18.337 26.9463C23.433 25.797 27.1832 21.1952 27.2363 15.9144C27.2688 15.6932 27.4276 15.5357 27.6488 15.5682C27.87 15.6007 28.0275 15.7595 27.995 15.9807C27.9406 21.5778 23.9991 26.5582 18.4919 27.7375C18.3019 27.8 18.1445 27.6412 18.082 27.4512C17.9883 27.1662 18.147 27.0088 18.337 26.9463Z" fill="#495352" stroke="#495352"/>
<path d="M13.2397 5.04254C8.30117 6.35065 4.80471 10.7637 4.7204 15.9495C4.78287 16.1395 4.62412 16.297 4.43413 16.3594C4.43413 16.3594 4.43413 16.3594 4.33913 16.3907C4.2129 16.3269 4.05543 16.1682 3.99295 15.9782C4.07855 10.4761 7.76629 5.68439 13.0848 4.25134C13.2748 4.18886 13.5272 4.31638 13.5897 4.50637C13.5572 4.7276 13.4297 4.98007 13.2397 5.04254Z" fill="#495352" stroke="#495352"/>
<path d="M15.5 6.49988C15.5 14.4999 15.5 16.4999 15.5 16.4999H22" stroke="#495352" stroke-width="2" stroke-linecap="round"/>
</svg>
