<svg width="20" height="20" viewBox="0 0 20 20" fill="none" xmlns="http://www.w3.org/2000/svg">
<g clip-path="url(#clip0)">
<path d="M9.44434 4.16675V5.43181V6.69687C9.5849 6.69687 9.79574 6.62658 9.9363 6.62658C10.2174 6.62658 10.4986 6.62658 10.7094 6.69687C10.9202 6.76715 11.1311 6.83743 11.2716 6.97799C11.4122 7.11855 11.5528 7.18883 11.623 7.32939C11.6933 7.46996 11.8339 7.61052 11.8339 7.75108L13.0287 7.32939C12.8178 6.83743 12.5367 6.41574 12.115 6.06434C11.6933 5.71293 11.2014 5.50209 10.5688 5.36153V4.16675H9.44434Z" fill="#8C9C9A"/>
<path d="M10.7096 15.8333V14.5683V13.3032C10.569 13.3032 10.3582 13.3735 10.2176 13.3735C9.58507 13.3735 9.02282 13.2329 8.60114 13.0221C8.17945 12.8112 7.89833 12.4598 7.75777 12.1787L6.56299 12.6004C6.77383 13.0924 7.12524 13.5141 7.6172 13.8655C8.10917 14.2169 8.7417 14.498 9.44451 14.5683V15.8333H10.7096Z" fill="#8C9C9A"/>
<path d="M11.5531 13.0223C11.5531 13.0223 11.4828 13.0223 11.4828 13.0925V14.4982C11.6233 14.4279 11.7639 14.4279 11.9045 14.3576C12.2559 14.217 12.537 14.0062 12.7478 13.7954C12.9587 13.5845 13.1695 13.3034 13.3101 13.0223C13.4507 12.7411 13.5209 12.3897 13.5209 12.1086C13.5209 11.6869 13.4507 11.3355 13.2398 11.0544C13.0993 10.7733 12.8181 10.4921 12.537 10.2813C12.2559 10.0705 11.9045 9.9299 11.4828 9.71906C11.0611 9.5785 10.6394 9.43793 10.2177 9.29737C9.51492 9.08653 8.95267 8.87569 8.67155 8.66484C8.32014 8.454 8.1093 8.24316 8.1093 7.89175C8.1093 7.75119 8.1093 7.61063 8.17958 7.39979C8.24986 7.25922 8.32014 7.11866 8.53098 6.9781C8.60126 6.9781 8.60126 6.90782 8.67155 6.90782V5.5022C8.24986 5.64276 7.82817 5.8536 7.54705 6.13473C7.05508 6.55641 6.84424 7.11866 6.84424 7.82147C6.84424 8.24316 6.91452 8.52428 7.05508 8.80541C7.19564 9.08653 7.40649 9.29737 7.61733 9.50822C7.89845 9.71906 8.17958 9.85962 8.53098 10.0002C8.88239 10.1407 9.30407 10.2813 9.79604 10.4219C10.2177 10.5624 10.4989 10.6327 10.8503 10.7733C11.1314 10.8436 11.4125 10.9841 11.5531 11.1247C11.7639 11.2652 11.9045 11.4058 11.9748 11.5464C12.045 11.6869 12.1153 11.8978 12.1153 12.1086C12.1153 12.3195 12.045 12.5303 11.9748 12.6709C11.9045 12.8114 11.7639 12.952 11.5531 13.0223Z" fill="#8C9C9A"/>
<path d="M5.1665 18.0001L4.83317 18.5001C4.58317 18.3334 4.4165 18.1667 4.1665 18.0834L4.49984 17.6667C4.74984 17.7501 4.9165 17.8334 5.1665 18.0001Z" fill="#8C9C9A"/>
<path d="M3.58333 17.5834C3.41667 17.4167 3.25 17.2501 3 17.0834L3.41667 16.6667C3.58333 16.8334 3.75 17.0001 3.91667 17.0834L3.58333 17.5834Z" fill="#8C9C9A"/>
<path d="M1.66667 15.5001C1.5 15.3334 1.41667 15.0834 1.25 14.9167L1.75 14.6667C1.83333 14.8334 2 15.0834 2.08333 15.2501L1.66667 15.5001Z" fill="#8C9C9A"/>
<path d="M7.66683 19.0834L7.50016 19.6667C7.25016 19.5834 7.00016 19.5001 6.8335 19.4167L7.0835 18.9167C7.25016 18.9167 7.41683 19.0001 7.66683 19.0834Z" fill="#8C9C9A"/>
<path d="M0.666829 9L0.0834961 8.91667C0.0834961 8.66667 0.166829 8.41667 0.250163 8.25L0.833496 8.33333C0.750163 8.5 0.750163 8.75 0.666829 9Z" fill="#8C9C9A"/>
<path d="M0.416667 13C0.333333 12.75 0.25 12.5833 0.25 12.3333L0.833333 12.25C0.916667 12.5 0.916667 12.6667 1 12.9167L0.416667 13Z" fill="#8C9C9A"/>
<path d="M0.583333 10C0.583333 10.0833 0.583333 10.1667 0.583333 10.25H0C0 10.1667 0 10.0833 0 10C0 9.83333 0 9.66667 0 9.5H0.583333C0.583333 9.75 0.583333 9.91667 0.583333 10Z" fill="#8C9C9A"/>
<path d="M0.916504 14.3333C0.833171 14.0833 0.749837 13.9167 0.666504 13.6667L1.24984 13.5C1.33317 13.6667 1.4165 13.9167 1.49984 14.0833L0.916504 14.3333Z" fill="#8C9C9A"/>
<path d="M2.5835 16.6666C2.41683 16.4999 2.25016 16.3333 2.0835 16.1666L2.5835 15.8333C2.75016 15.9999 2.8335 16.1666 3.00016 16.3333L2.5835 16.6666Z" fill="#8C9C9A"/>
<path d="M0.0833333 11.6667C0.0833333 11.4167 0 11.1667 0 11H0.583333C0.583333 11.25 0.583333 11.4167 0.666667 11.6667H0.0833333Z" fill="#8C9C9A"/>
<path d="M6.08317 19.1666C5.83317 19.0833 5.6665 18.9999 5.4165 18.8333L5.74984 18.3333C5.9165 18.4166 6.1665 18.4999 6.4165 18.6666L6.08317 19.1666Z" fill="#8C9C9A"/>
<path d="M15.5 2.41642L15.8333 1.99976C16 2.16642 16.25 2.33309 16.4167 2.41642L16 2.83309C15.8333 2.74976 15.6667 2.58309 15.5 2.41642Z" fill="#8C9C9A"/>
<path d="M17 2.9165C17.1667 3.08317 17.3333 3.24984 17.5 3.4165L17 3.74984C16.8333 3.58317 16.6667 3.4165 16.5 3.24984L17 2.9165Z" fill="#8C9C9A"/>
<path d="M18.75 5.1665C18.8333 5.33317 19 5.58317 19.0833 5.83317L18.5 6.08317C18.4167 5.83317 18.3333 5.6665 18.25 5.4165L18.75 5.1665Z" fill="#8C9C9A"/>
<path d="M13.0835 1.1665L13.3335 0.666504C13.5835 0.749837 13.8335 0.833171 14.0002 0.916504L13.7502 1.4165C13.5002 1.33317 13.2502 1.24984 13.0835 1.1665Z" fill="#8C9C9A"/>
<path d="M19.75 7.74976C19.8333 7.99976 19.8333 8.16642 19.9167 8.41642L19.3333 8.49976C19.3333 8.24976 19.25 8.08309 19.25 7.83309L19.75 7.74976Z" fill="#8C9C9A"/>
<path d="M19.3333 10.7498C19.3333 10.6664 19.3333 10.5831 19.3333 10.4998L19.9167 10.5831C19.9167 10.6664 19.9167 10.7498 19.9167 10.8331C19.9167 10.9998 19.9167 11.1664 19.8333 11.2498L19.25 11.1664C19.3333 10.9998 19.3333 10.8331 19.3333 10.7498Z" fill="#8C9C9A"/>
<path d="M19.3333 6.4165C19.4167 6.6665 19.5 6.83317 19.5833 7.08317L19 7.24984C18.9167 6.99984 18.8333 6.83317 18.75 6.6665L19.3333 6.4165Z" fill="#8C9C9A"/>
<path d="M17.9165 3.99976C18.0832 4.16642 18.1665 4.41642 18.3332 4.58309L17.8332 4.91642C17.7498 4.74976 17.5832 4.58309 17.4165 4.33309L17.9165 3.99976Z" fill="#8C9C9A"/>
<path d="M19.9998 9.1665C19.9998 9.4165 19.9998 9.6665 19.9998 9.83317H19.4165C19.4165 9.58317 19.4165 9.4165 19.4165 9.1665H19.9998Z" fill="#8C9C9A"/>
<path d="M11.75 0.749837L11.9167 0.166504C12.1667 0.249837 12.4167 0.249837 12.6667 0.333171L12.5 0.916504C12.1667 0.83317 11.9167 0.83317 11.75 0.749837Z" fill="#8C9C9A"/>
<path d="M14.6665 1.24976C14.9165 1.33309 15.0832 1.49976 15.3332 1.58309L14.9998 2.08309C14.8332 1.99976 14.5832 1.83309 14.4165 1.74976L14.6665 1.24976Z" fill="#8C9C9A"/>
<path d="M8.99984 19.3333C13.3332 19.75 17.4998 17.0833 18.9165 12.9166C18.9998 12.75 19.1665 12.6666 19.3332 12.75C19.4998 12.8333 19.5832 13 19.4998 13.1666C17.9998 17.5833 13.5832 20.5 8.9165 20C8.74984 20 8.6665 19.8333 8.6665 19.6666C8.6665 19.4166 8.83317 19.3333 8.99984 19.3333Z" fill="#8C9C9A"/>
<path d="M10.6667 0.666596C6.41667 0.416596 2.5 2.99993 1.08333 7.08326C1.08333 7.24993 0.916667 7.33326 0.75 7.33326C0.75 7.33326 0.75 7.33326 0.666667 7.33326C0.583333 7.24993 0.5 7.08326 0.5 6.9166C2 2.58326 6.16667 -0.250071 10.75 -7.0977e-05C10.9167 -7.0977e-05 11.0833 0.166596 11.0833 0.333262C11 0.499929 10.8333 0.666596 10.6667 0.666596Z" fill="#8C9C9A"/>
</g>
<defs>
<clipPath id="clip0">
<rect width="20" height="20" fill="white"/>
</clipPath>
</defs>
</svg>
