<svg width="93" height="82" viewBox="0 0 93 82" fill="none" xmlns="http://www.w3.org/2000/svg">
<path d="M9.22119 77H8.32031V67.105H2.28516V77H1.38428V66.3359H9.22119V77ZM18.3348 73.1182C18.3348 74.3535 18.0613 75.335 17.5145 76.0625C16.9676 76.7852 16.2352 77.1465 15.3172 77.1465C14.2332 77.1465 13.4031 76.7656 12.827 76.0039V80.0469H11.9554V69.0752H12.7684L12.8123 70.1958C13.3836 69.3511 14.2112 68.9287 15.2952 68.9287C16.2425 68.9287 16.9847 69.2876 17.5218 70.0054C18.0638 70.7231 18.3348 71.7192 18.3348 72.9937V73.1182ZM17.4559 72.9644C17.4559 71.9536 17.2483 71.1553 16.8333 70.5693C16.4183 69.9834 15.8396 69.6904 15.0975 69.6904C14.5604 69.6904 14.0989 69.8198 13.7132 70.0786C13.3274 70.3374 13.032 70.7134 12.827 71.2065V75.0078C13.0369 75.4619 13.3372 75.8086 13.7278 76.0479C14.1185 76.2871 14.5799 76.4067 15.1121 76.4067C15.8494 76.4067 16.4231 76.1138 16.8333 75.5278C17.2483 74.937 17.4559 74.0825 17.4559 72.9644ZM23.5519 77.1465C22.878 77.1465 22.2677 76.9805 21.7208 76.6484C21.1788 76.3164 20.7564 75.855 20.4537 75.2642C20.151 74.6685 19.9996 74.002 19.9996 73.2646V72.9497C19.9996 72.188 20.1461 71.502 20.4391 70.8916C20.7369 70.2812 21.1495 69.8027 21.6769 69.4561C22.2042 69.1045 22.7755 68.9287 23.3907 68.9287C24.3526 68.9287 25.1144 69.2583 25.6759 69.9175C26.2423 70.5718 26.5255 71.4678 26.5255 72.6055V73.0962H20.8712V73.2646C20.8712 74.1631 21.1275 74.9126 21.6402 75.5132C22.1578 76.1089 22.8072 76.4067 23.5885 76.4067C24.0572 76.4067 24.4698 76.3213 24.8263 76.1504C25.1876 75.9795 25.5147 75.7061 25.8077 75.3301L26.357 75.7476C25.7125 76.6802 24.7774 77.1465 23.5519 77.1465ZM23.3907 69.6758C22.7315 69.6758 22.1749 69.9175 21.7208 70.4009C21.2716 70.8843 20.9981 71.5337 20.9005 72.3491H25.6539V72.2539C25.6295 71.4922 25.4122 70.8721 25.0021 70.3936C24.5919 69.915 24.0548 69.6758 23.3907 69.6758ZM33.0756 71.1699C33.0756 70.6914 32.8974 70.3228 32.5409 70.064C32.1845 69.8052 31.6938 69.6758 31.0688 69.6758C30.5023 69.6758 30.0165 69.8223 29.6112 70.1152C29.2108 70.4033 29.0106 70.7695 29.0106 71.2139H28.1391C28.1391 70.5547 28.4198 70.0103 28.9813 69.5806C29.5478 69.1509 30.2436 68.936 31.0688 68.936C31.977 68.936 32.685 69.1313 33.1928 69.522C33.7006 69.9126 33.9545 70.4668 33.9545 71.1846C33.9545 71.5654 33.8373 71.9097 33.6029 72.2173C33.3686 72.5249 33.0268 72.7642 32.5775 72.9351C33.5932 73.2134 34.101 73.8433 34.101 74.8247C34.101 75.5376 33.8251 76.1016 33.2733 76.5166C32.7216 76.9316 31.9892 77.1392 31.0761 77.1392C30.1923 77.1392 29.4599 76.917 28.8788 76.4727C28.2978 76.0283 28.0072 75.4473 28.0072 74.7295H28.8861C28.8861 75.208 29.0961 75.6084 29.516 75.9307C29.9408 76.248 30.4608 76.4067 31.0761 76.4067C31.745 76.4067 32.2675 76.2676 32.6435 75.9893C33.0243 75.7061 33.2147 75.3228 33.2147 74.8394C33.2147 74.3071 33.0414 73.9238 32.6947 73.6895C32.348 73.4551 31.8183 73.3379 31.1054 73.3379H29.8969V72.5762H31.2519C32.4677 72.5469 33.0756 72.0781 33.0756 71.1699ZM39.3034 77.1465C38.6296 77.1465 38.0192 76.9805 37.4724 76.6484C36.9304 76.3164 36.508 75.855 36.2053 75.2642C35.9025 74.6685 35.7512 74.002 35.7512 73.2646V72.9497C35.7512 72.188 35.8977 71.502 36.1906 70.8916C36.4885 70.2812 36.9011 69.8027 37.4284 69.4561C37.9558 69.1045 38.5271 68.9287 39.1423 68.9287C40.1042 68.9287 40.8659 69.2583 41.4274 69.9175C41.9938 70.5718 42.2771 71.4678 42.2771 72.6055V73.0962H36.6228V73.2646C36.6228 74.1631 36.8791 74.9126 37.3918 75.5132C37.9094 76.1089 38.5588 76.4067 39.34 76.4067C39.8088 76.4067 40.2214 76.3213 40.5778 76.1504C40.9392 75.9795 41.2663 75.7061 41.5593 75.3301L42.1086 75.7476C41.4641 76.6802 40.529 77.1465 39.3034 77.1465ZM39.1423 69.6758C38.4831 69.6758 37.9265 69.9175 37.4724 70.4009C37.0231 70.8843 36.7497 71.5337 36.6521 72.3491H41.4055V72.2539C41.3811 71.4922 41.1638 70.8721 40.7536 70.3936C40.3435 69.915 39.8063 69.6758 39.1423 69.6758ZM50.27 77H49.3911V73.3672H45.1211V77H44.2422V69.0752H45.1211V72.6274H49.3911V69.0752H50.27V77ZM58.512 69.8223H55.6263V77H54.7474V69.8223H51.9715V69.0752H58.512V69.8223ZM65.0401 77C64.9522 76.751 64.8961 76.3823 64.8717 75.894C64.5641 76.2944 64.171 76.6045 63.6925 76.8242C63.2188 77.0391 62.7159 77.1465 62.1837 77.1465C61.422 77.1465 60.8043 76.9341 60.3307 76.5093C59.8619 76.0845 59.6275 75.5474 59.6275 74.8979C59.6275 74.1265 59.9474 73.5161 60.587 73.0669C61.2315 72.6177 62.1275 72.3931 63.275 72.3931H64.8644V71.4922C64.8644 70.9258 64.6886 70.4814 64.337 70.1592C63.9903 69.832 63.4825 69.6685 62.8136 69.6685C62.2032 69.6685 61.6979 69.8247 61.2975 70.1372C60.8971 70.4497 60.6969 70.8257 60.6969 71.2651L59.818 71.2578C59.818 70.6279 60.1109 70.0835 60.6969 69.6245C61.2828 69.1606 62.003 68.9287 62.8575 68.9287C63.7413 68.9287 64.4371 69.1509 64.9449 69.5952C65.4576 70.0347 65.7213 70.6499 65.7359 71.4409V75.1909C65.7359 75.9575 65.8165 76.5312 65.9776 76.9121V77H65.0401ZM62.2862 76.3701C62.8722 76.3701 63.3946 76.2285 63.8536 75.9453C64.3175 75.6621 64.6544 75.2837 64.8644 74.8101V73.0669H63.297C62.423 73.0767 61.7394 73.2378 61.2462 73.5503C60.753 73.8579 60.5064 74.2827 60.5064 74.8247C60.5064 75.269 60.67 75.6377 60.9972 75.9307C61.3292 76.2236 61.7589 76.3701 62.2862 76.3701ZM68.3383 69.0752H69.2172V76.2603H73.4872V69.0752H74.3661V76.2603H75.1718L75.1059 79.3511H74.3002V77H68.3383V69.0752ZM82.2272 69.0752H83.1062V77H82.2272V70.4888L77.9499 77H77.0783V69.0752H77.9499V75.5938L82.2272 69.0752ZM90.8647 69.0752H91.7437V77H90.8647V70.4888L86.5874 77H85.7158V69.0752H86.5874V75.5938L90.8647 69.0752Z" fill="#30C4AE"/>
<path d="M71.7678 0H22.1706C21.5545 0 21 0.492906 21 1.17063C21 1.84836 21.4929 2.34124 22.1706 2.34124H24.019V32.5308C24.019 34.1327 25.3128 35.4265 26.9147 35.4265H67.2701C68.872 35.4265 70.1659 34.1327 70.1659 32.5308V2.34124H71.8294C72.4455 2.34124 73 1.84836 73 1.17063C73 0.492906 72.3839 0 71.7678 0ZM67.8246 32.4692C67.8246 32.7773 67.5782 33.0237 67.2701 33.0237H26.9147C26.6066 33.0237 26.3602 32.7773 26.3602 32.4692V2.27963H67.8863V32.4692H67.8246ZM55.9953 45.2228C56.4265 45.654 56.4265 46.3934 55.9953 46.8246C55.7488 47.0711 55.5024 47.1327 55.1943 47.1327C54.8863 47.1327 54.5782 47.0095 54.3934 46.8246L48.7251 41.1564V50.2749C48.7251 50.891 48.2322 51.4455 47.5545 51.4455C46.9384 51.4455 46.3839 50.9526 46.3839 50.2749V41.1564L40.654 46.8863C40.4076 47.1327 40.1611 47.1943 39.8531 47.1943C39.545 47.1943 39.237 47.0711 39.0521 46.8863C38.6209 46.455 38.6209 45.7156 39.0521 45.2844L44.782 39.5545H42.7488C42.1327 39.5545 41.5782 39.0616 41.5782 38.3839C41.5782 37.7678 42.0711 37.2133 42.7488 37.2133H52.237C52.8531 37.2133 53.4076 37.7062 53.4076 38.3839C53.4076 39 52.9147 39.5545 52.237 39.5545H50.327L55.9953 45.2228ZM41.7014 16.5119H47.4313C48.0474 16.5119 48.6019 16.019 48.6019 15.3412C48.6019 13.6777 47.9858 12.0142 46.8768 10.782C45.5829 9.30332 43.673 8.44076 41.7014 8.44076C41.0853 8.44076 40.5308 8.93365 40.5308 9.61138V15.3412C40.5924 15.9574 41.0853 16.5119 41.7014 16.5119ZM45.1517 12.3223C45.6446 12.8768 45.9526 13.4929 46.1374 14.2322H42.872V10.9052C43.7346 11.1517 44.5355 11.6445 45.1517 12.3223ZM38.436 26.8626C42.9953 26.8626 46.7536 23.1043 46.7536 18.545C46.7536 17.9289 46.2607 17.3744 45.5829 17.3744H39.545V11.3365C39.545 10.7204 39.0521 10.1659 38.3744 10.1659C33.8152 10.1659 30.0569 13.9242 30.0569 18.4834C30.0569 23.0427 33.8152 26.8626 38.436 26.8626ZM37.2654 12.6303V18.545C37.2654 19.1611 37.7583 19.7156 38.436 19.7156H44.3507C43.7962 22.4881 41.3934 24.583 38.436 24.583C35.109 24.583 32.3981 21.872 32.3981 18.545C32.3981 15.6493 34.4929 13.1848 37.2654 12.6303ZM51.3744 9.61138C51.3744 8.99526 51.8673 8.44076 52.545 8.44076H62.1564C62.7725 8.44076 63.327 8.93365 63.327 9.61138C63.327 10.2891 62.8341 10.782 62.1564 10.782H52.4834C51.8673 10.782 51.3744 10.2275 51.3744 9.61138ZM51.3744 17.6161C51.3744 17 51.8673 16.4455 52.545 16.4455H62.1564C62.7725 16.4455 63.327 16.9384 63.327 17.6161C63.327 18.2938 62.8341 18.7867 62.1564 18.7867H52.4834C51.8673 18.7867 51.3744 18.2938 51.3744 17.6161ZM51.3744 21.6872C51.3744 21.0711 51.8673 20.5166 52.545 20.5166H62.1564C62.7725 20.5166 63.327 21.0095 63.327 21.6872C63.327 22.3033 62.8341 22.8578 62.1564 22.8578H52.4834C51.8673 22.8578 51.3744 22.3033 51.3744 21.6872ZM51.3744 25.7536C51.3744 25.1374 51.8673 24.583 52.545 24.583H59.3839C60 24.583 60.5545 25.0758 60.5545 25.7536C60.5545 26.3697 60.0616 26.9242 59.3839 26.9242H52.4834C51.8673 26.8626 51.3744 26.3697 51.3744 25.7536Z" fill="#067362"/>
</svg>
