<svg width="19" height="24" viewBox="0 0 19 24" fill="none" xmlns="http://www.w3.org/2000/svg">
<g clip-path="url(#clip0)">
<path d="M3.55474 16.626H1.07861V24H3.55474V16.626Z" fill="#495352"/>
<path d="M8.70318 12.4351H6.22705V23.9999H8.70318V12.4351Z" fill="#495352"/>
<path d="M13.8516 14.084H11.3755V24H13.8516V14.084Z" fill="#495352"/>
<path d="M18.9996 7.25952H16.5234V24H18.9996V7.25952Z" fill="#495352"/>
<path d="M1.3113 8.78529L0.000488281 9.88953L0.985595 10.9099L2.2964 9.80565L1.3113 8.78529Z" fill="#495352"/>
<path d="M17.4554 4.23664H18.9263V0.0229008L14.3909 0V1.37405H16.4502L10.3457 7.00763L6.88892 4.07634L2.25537 7.96946L3.23602 9L6.88892 5.9313L10.3947 8.9084L17.4554 2.38168V4.23664Z" fill="#495352"/>
</g>
<defs>
<clipPath id="clip0">
<rect width="19" height="24" fill="white"/>
</clipPath>
</defs>
</svg>
