<svg width="23" height="24" viewBox="0 0 23 24" fill="none" xmlns="http://www.w3.org/2000/svg">
<g clip-path="url(#clip0)">
<g clip-path="url(#clip1)">
<path d="M12.7402 -1V2.00752V5.01504C12.3858 4.95489 11.9724 4.95489 11.5 4.95489C10.7323 4.95489 10.1417 5.01504 9.61024 5.19549C9.07874 5.37594 8.66535 5.55639 8.25197 5.85714C7.89764 6.15789 7.60236 6.45865 7.36614 6.7594C7.12992 7.1203 6.95276 7.42105 6.77559 7.8421L4 6.81955C4.41339 5.67669 5.12205 4.65413 6.12598 3.81203C7.07087 2.96992 8.31102 2.36842 9.84646 2.12782V-1H12.7402Z" fill="#495352"/>
<path d="M11.9727 19.9323H8.96094V23H11.9727V19.9323Z" fill="#495352"/>
<path d="M17.2878 3.87217C16.5791 3.15036 15.6933 2.66916 14.6303 2.36841V5.67668C14.7484 5.73683 14.8665 5.79698 14.9256 5.91728C15.2799 6.21803 15.5161 6.51878 15.6933 6.87969C15.8704 7.24059 15.9295 7.60149 15.9295 8.02254C15.9295 8.86465 15.5161 9.5263 14.7484 10.0075C13.9807 10.4887 12.7405 11.0301 11.0279 11.4511C8.84289 11.9925 9.02005 15.3609 9.02005 15.3609V16.8646H12.0319V15.4812C12.0319 14.8195 12.4452 14.218 13.0358 14.0376C13.7445 13.797 14.335 13.6165 14.9256 13.3759C15.8114 13.015 16.5201 12.594 17.1697 12.1128C17.7602 11.6316 18.2326 11.0301 18.587 10.3684C18.8823 9.70675 19.0594 8.86465 19.0594 7.90224C18.9413 6.27818 18.3508 4.95487 17.2878 3.87217Z" fill="#495352"/>
</g>
</g>
<defs>
<clipPath id="clip0">
<rect width="21.4431" height="24" fill="white" transform="translate(0.989258)"/>
</clipPath>
<clipPath id="clip1">
<rect width="15" height="24" fill="white" transform="translate(4 -1)"/>
</clipPath>
</defs>
</svg>
