<svg width="28" height="22" viewBox="0 0 28 22" fill="none" xmlns="http://www.w3.org/2000/svg">
<path d="M8 18.1796H10V13H15V10.9934H10V6L8 6V10.9934H3L3 13H8V18.1796Z" fill="#495352"/>
<path d="M19.1149 0L19.1279 2.25247H19.1073L19.1204 4.5242C19.4294 4.48569 19.7592 4.46644 20.1303 4.46644C20.7282 4.46644 21.2646 4.5242 21.6776 4.63971C22.0906 4.75522 22.4833 4.92849 22.7731 5.12101C23.0835 5.33278 23.3323 5.5638 23.5193 5.81407C23.7063 6.06435 23.8728 6.33388 23.9981 6.62265L26.303 5.89108C25.9476 5.02475 25.3659 4.27392 24.5787 3.61936C23.7915 2.96479 22.7582 2.54125 21.5406 2.32948L21.5272 0.019252H19.115L19.1149 0Z" fill="#495352"/>
<path d="M21.6498 21.3117L21.6365 19.0593L21.6229 16.749C21.2933 16.8068 20.9636 16.826 20.6131 16.826C19.3554 16.826 18.3027 16.6143 17.5166 16.1715C16.7905 15.7624 15.9998 15 15.9998 15H12.9998C13.4174 15.8856 14.6557 16.9993 15.6288 17.6924C16.6018 18.3662 17.8002 18.809 19.2446 19.0015L19.2582 21.3117H21.6498Z" fill="#495352"/>
<path d="M23.2917 16.172C23.2301 16.2105 23.189 16.2297 23.1274 16.2682L23.1422 18.7902C23.4098 18.7132 23.6774 18.6362 23.9035 18.5207C24.5615 18.2319 25.1368 17.8854 25.5878 17.4618C26.0389 17.0383 26.3866 16.557 26.6102 16.018C26.8338 15.4789 26.9542 14.9206 26.9507 14.3238C26.9464 13.5922 26.7777 12.9569 26.4654 12.4371C26.1324 11.9173 25.6969 11.4745 25.1379 11.0895C24.579 10.7044 23.8968 10.3964 23.1324 10.1269C22.368 9.85735 21.5212 9.60707 20.6126 9.37605C19.2085 9.01026 18.1755 8.64448 17.5343 8.29794C16.8724 7.93216 16.5602 7.43161 16.5566 6.81555C16.5549 6.52677 16.6151 6.25724 16.7371 5.96846C16.8592 5.69894 17.0639 5.44866 17.3512 5.21764C17.4334 5.15988 17.5155 5.10213 17.6182 5.04437L17.6035 2.54163C16.739 2.7919 15.999 3.15769 15.4247 3.67749C14.5223 4.48607 14.0542 5.50642 14.0201 6.71929C14.0038 7.45086 14.1311 8.06692 14.4021 8.56747C14.6731 9.06802 15.0468 9.51081 15.5644 9.8766C16.082 10.2424 16.6817 10.5504 17.4048 10.8007C18.128 11.0702 18.9334 11.3012 19.8214 11.5515C20.5855 11.7633 21.2464 11.9558 21.8041 12.1291C22.3618 12.3023 22.8578 12.5141 23.2302 12.7259C23.6232 12.9377 23.9133 13.1879 24.1003 13.4382C24.2874 13.7077 24.3925 14.035 24.3946 14.4008C24.3969 14.7858 24.2957 15.1131 24.112 15.4211C23.9075 15.7099 23.641 15.9602 23.2917 16.172Z" fill="#495352"/>
<rect y="11" width="2" height="2" fill="#495352"/>
</svg>
