<svg width="21" height="27" viewBox="0 0 21 27" fill="none" xmlns="http://www.w3.org/2000/svg">
<path d="M16.955 17.1797L14.975 17.1797L14.975 19.1863L14.975 24.1797L16.955 24.1797L16.955 19.1863L16.955 17.1797Z" fill="#495352"/>
<path d="M15.9138 26.8996L17.3139 25.4854L20.8141 21.9498L19.4094 20.531L15.9092 24.0665L12.4136 20.5356L11.0135 21.9498L14.5091 25.4807L15.9138 26.8996Z" fill="#495352"/>
<path d="M5.30349 0L5.31634 2.25247H5.29593L5.30889 4.5242C5.61483 4.48569 5.9413 4.46644 6.3087 4.46644C6.90062 4.46644 7.43164 4.5242 7.84052 4.63971C8.2494 4.75522 8.6382 4.92849 8.92505 5.12101C9.23242 5.33278 9.47867 5.5638 9.6638 5.81407C9.84893 6.06435 10.0138 6.33388 10.1379 6.62265L12.4197 5.89108C12.0678 5.02475 11.492 4.27392 10.7127 3.61936C9.9333 2.96479 8.91033 2.54125 7.70487 2.32948L7.6917 0.019252H5.3036L5.30349 0Z" fill="#495352"/>
<path d="M7.81249 21.3117L7.79937 19.0593L7.78591 16.749C7.45967 16.8068 7.13321 16.826 6.78622 16.826C5.54114 16.826 4.89378 16.826 4.08267 16.5C3.31387 16.191 3.09268 16 3.09268 16H0.122681C0.617674 16.5 0.888426 16.9993 1.85178 17.6924C2.81503 18.3662 4.00145 18.809 5.43135 19.0015L5.4448 21.3117H7.81249Z" fill="#495352"/>
<path d="M9.43831 16.172C9.3773 16.2105 9.33659 16.2297 9.27558 16.2682L9.29027 18.7902C9.55516 18.7132 9.82006 18.6362 10.0439 18.5207C10.6954 18.2319 11.2649 17.8854 11.7114 17.4618C12.158 17.0383 12.5022 16.557 12.7236 16.018C12.945 15.4789 13.0642 14.9206 13.0607 14.3238C13.0564 13.5922 12.8895 12.9569 12.5803 12.4371C12.2507 11.9173 11.8195 11.4745 11.2661 11.0895C10.7128 10.7044 10.0374 10.3964 9.28063 10.1269C8.52385 9.85735 7.68554 9.60707 6.78611 9.37605C5.39603 9.01026 4.37334 8.64448 3.73858 8.29794C3.0833 7.93216 2.77422 7.43161 2.77063 6.81555C2.76895 6.52677 2.82861 6.25724 2.94939 5.96846C3.07029 5.69894 3.27294 5.44866 3.55735 5.21764C3.63866 5.15988 3.71997 5.10213 3.82169 5.04437L3.80711 2.54163C2.9513 2.7919 2.21864 3.15769 1.65015 3.67749C0.756777 4.48607 0.293266 5.50642 0.259508 6.71929C0.243357 7.45086 0.369412 8.06692 0.637671 8.56747C0.90593 9.06802 1.27591 9.51081 1.78832 9.8766C2.30072 10.2424 2.89444 10.5504 3.61028 10.8007C4.32624 11.0702 5.12361 11.3012 6.00275 11.5515C6.75919 11.7633 7.41347 11.9558 7.96557 12.1291C8.51768 12.3023 9.00878 12.5141 9.37741 12.7259C9.76646 12.9377 10.0537 13.1879 10.2388 13.4382C10.4241 13.7077 10.5281 14.035 10.5302 14.4008C10.5324 14.7858 10.4323 15.1131 10.2504 15.4211C10.0479 15.7099 9.78406 15.9602 9.43831 16.172Z" fill="#495352"/>
</svg>
