<svg width="52" height="53" viewBox="0 0 52 53" fill="none" xmlns="http://www.w3.org/2000/svg">
<g opacity="0.5" clip-path="url(#clip0)">
<path d="M26.7677 33.0681C27.0846 33.0681 27.3414 32.8131 27.3414 32.4985C27.3414 32.184 27.0846 31.929 26.7677 31.929C26.4508 31.929 26.1938 32.184 26.1938 32.4985C26.1938 32.8131 26.4508 33.0681 26.7677 33.0681Z" fill="#8C9C9A"/>
<path d="M26.7677 30.7893C27.0846 30.7893 27.3414 30.5343 27.3414 30.2197C27.3414 29.9052 27.0846 29.6501 26.7677 29.6501C26.4508 29.6501 26.1938 29.9052 26.1938 30.2197C26.1938 30.5343 26.4508 30.7893 26.7677 30.7893Z" fill="#8C9C9A"/>
<path d="M33.6972 19.8799C33.2117 18.9014 32.4025 18.1127 31.4167 17.6161L30.7841 17.2948V15.1479L32.0052 14.5345C33.3735 13.8481 34.2269 12.4899 34.2269 10.9563V7.93315C34.2269 5.81545 32.5496 4.07748 30.4457 3.94604L29.0774 2.58779C28.1063 1.62387 26.7969 1.0835 25.4139 1.0835H22.7656C20.5145 1.0835 18.6901 2.89449 18.6901 5.12903C18.6901 6.35583 19.2492 7.50961 20.2203 8.28367L21.1913 9.05772C20.9853 10.7227 20.9853 11.8618 20.9853 11.9349V12.5045H22.1329V12.8988C22.1329 13.9065 22.6479 14.8558 23.4865 15.4108C23.9867 15.7467 24.5752 15.922 25.1785 15.922H25.3403C25.4286 15.922 25.5022 15.9074 25.5904 15.8928V17.9667L24.5164 18.1857C24.2663 18.2295 24.0309 18.3756 23.869 18.5655L23.1775 19.3687C22.4566 20.2012 21.8828 21.1213 21.4414 22.0998L18.131 25.4151V23.2682C18.131 20.9899 17.1453 18.8283 15.4239 17.3386C13.982 16.0826 12.1135 15.3816 10.1861 15.3816H10.0831V14.7974C11.422 14.6952 12.5696 13.8773 13.0845 12.6213C13.3788 11.8765 13.5406 11.0878 13.5406 10.2845V7.96236C13.5406 7.55343 13.4524 7.1737 13.3052 6.82319C14.188 6.00532 14.6882 4.83693 14.6882 3.62473C14.6882 2.95291 14.4234 2.3249 13.9379 1.84295C13.4524 1.36099 12.8197 1.0981 12.1429 1.0981H7.50838C6.0371 1.0981 4.66881 1.66769 3.58006 2.73384C2.60901 3.69776 2.0205 5.23126 2.0205 6.80858C2.0205 8.85325 3.22695 10.0801 3.75661 10.5182C3.83018 11.2923 4.15386 12.0225 4.72766 12.5775L4.8895 12.7381V15.367C3.59477 15.3962 2.34418 15.8051 1.28486 16.5646C-0.421827 17.7768 -1.43701 19.7338 -1.43701 21.8077V26.7734C-1.43701 28.7158 -0.539529 30.4538 0.858189 31.6075V36.471H2.00579V32.3524C2.87384 32.7905 3.84489 33.0388 4.87479 33.0388H12.9815C12.9815 33.0388 12.9815 33.0388 12.9963 33.0388H13.4965V36.4563H14.6441V33.0388H16.1889C17.5719 33.0388 18.8667 32.4984 19.8524 31.5345L20.3968 30.9941V36.471H21.5444V26.788C21.5444 25.6196 21.7504 24.4804 22.1329 23.3996L24.2957 27.2699C24.2221 27.3429 24.1486 27.4014 24.0603 27.4744L23.8396 27.6496V36.4856H24.9872V35.361V34.733V28.2046C26.8557 26.6565 28.1799 24.6118 28.8567 22.2897L30.019 18.2734L30.0926 18.2588L30.8723 18.6385C31.6374 19.0182 32.2553 19.6316 32.6379 20.3911C32.9174 20.9314 33.0498 21.5302 33.0498 22.1436V34.6161H34.1974V22.1436C34.2416 21.355 34.0503 20.5809 33.6972 19.8799ZM10.4362 16.5354C10.7893 16.55 11.1277 16.5792 11.4808 16.6522L9.89186 20.4641L9.53875 18.3318L10.4362 16.5354ZM12.393 10.2845C12.393 10.9417 12.2753 11.5844 12.0252 12.1978C11.6721 13.0886 10.8041 13.6728 9.83301 13.6728C9.3622 13.6728 8.9061 13.5414 8.52356 13.2785L7.53781 12.6213L6.90516 13.5706L7.89091 14.2278C8.21459 14.4469 8.58242 14.5929 8.95024 14.6952V15.3816H6.06652V12.2854L5.56629 11.7888C5.15433 11.3799 4.91892 10.8249 4.91892 10.2407C4.91892 9.91941 5.18376 9.67112 5.49273 9.67112H6.06652V7.96236C6.06652 7.01305 6.8463 6.2536 7.78792 6.2536H10.6569C11.6133 6.2536 12.3783 7.02765 12.3783 7.96236V10.2845H12.393ZM8.58242 17.66H7.56723L6.99343 16.5208H9.15622L8.58242 17.66ZM9.06794 22.4649L8.3323 24.2467L7.19941 21.8515L7.71436 18.8137H8.46471L9.06794 22.4649ZM4.09501 9.23298C3.68305 8.75102 3.19753 7.94776 3.19753 6.80858C3.19753 5.52336 3.65362 4.31116 4.46283 3.50789C5.28675 2.69002 6.37549 2.23728 7.53781 2.23728H12.1723C12.5402 2.23728 12.8933 2.38332 13.1581 2.64621C13.4229 2.9091 13.5701 3.25961 13.5701 3.62473C13.5701 4.47181 13.2317 5.27508 12.6579 5.87387C12.1429 5.39192 11.4661 5.09982 10.7011 5.09982H7.83206C6.24308 5.09982 4.96306 6.38504 4.96306 7.94776V8.61958C4.58053 8.73641 4.30099 8.95549 4.09501 9.23298ZM5.08077 16.5208H5.6987L6.6109 18.3172L6.33136 20.0113L4.68352 16.5354C4.81594 16.5354 4.94835 16.5208 5.08077 16.5208ZM10.0831 31.9289H4.90421C2.04993 31.9289 -0.2747 29.6213 -0.2747 26.788V21.8223C-0.2747 20.1136 0.563932 18.4924 1.96165 17.4993C2.43246 17.1634 2.94741 16.9151 3.49178 16.7545L7.77321 25.7802V27.3575H4.33041V23.94H3.18281V27.3575C3.18281 27.9856 3.69776 28.4967 4.33041 28.4967H10.0831V31.9289ZM14.2027 31.4469C13.8937 31.7536 13.4818 31.9289 13.0404 31.9289H12.393H11.2454V28.4967H12.393H12.9668C13.9085 28.4967 14.6882 29.2708 14.6882 30.2639C14.6882 30.7167 14.5117 31.1256 14.2027 31.4469ZM13.5406 23.94V27.3575H12.9668H8.93552V25.751L12.5843 16.9443C13.3347 17.2218 14.0409 17.6454 14.6588 18.1711C16.1301 19.4563 16.9834 21.2966 16.9834 23.239V26.5397L16.6745 26.8464C16.3508 27.1677 15.9094 27.3429 15.4533 27.3429H14.6882V23.9254H13.5406V23.94ZM20.4409 26.8026V29.4022L19.0874 30.7459C18.3223 31.5053 17.3218 31.9142 16.2478 31.9142H15.2915C15.6446 31.4323 15.8505 30.8627 15.8505 30.2055C15.8505 29.5629 15.6299 28.9641 15.262 28.4821H15.4827C16.2331 28.4821 16.9834 28.1754 17.5131 27.6496L20.7058 24.4804C20.5292 25.2545 20.4409 26.0285 20.4409 26.8026ZM23.8837 20.4787L23.5159 23.4873L22.7361 22.0998C23.0598 21.4864 23.4276 20.9022 23.869 20.3618V20.4787H23.8837ZM25.0313 19.2665L26.2966 19.0182L25.8258 19.9383H25.0313V19.2665ZM25.2079 26.4813L24.487 25.196L24.9725 21.0921H25.7228L26.5468 24.7579C26.1642 25.3713 25.7081 25.9555 25.2079 26.4813ZM27.7974 21.983C27.6797 22.3919 27.5325 22.7862 27.3707 23.166L26.7969 20.5809L27.7238 18.7261L28.7831 18.5216L27.7974 21.983ZM28.6507 13.1909C28.8125 13.8627 29.1509 14.4907 29.6365 15.0311V17.1926L26.7675 17.7622V15.7321L28.6066 15.367L28.3859 14.2424L25.7523 14.7682C25.6346 14.7974 25.5022 14.7974 25.3845 14.7974H25.2226C24.8401 14.7974 24.487 14.6806 24.1633 14.4761C23.6336 14.1256 23.3247 13.5414 23.3247 12.9134V11.3799H22.1918C22.2212 10.5766 22.3389 9.02851 22.6773 7.21752C23.0451 7.07147 23.766 6.82319 24.4723 6.82319C25.6346 6.82319 26.4732 7.33435 26.9587 7.75789C27.2236 7.99157 27.356 8.23985 27.356 8.53195V9.10154H28.5036C29.1362 9.10154 29.6512 9.6127 29.6512 10.2407C29.6512 11.0002 28.8273 11.4383 28.8125 11.4383L28.4889 11.599V11.9495C28.4889 12.3438 28.5477 12.7673 28.6507 13.1909ZM29.7689 12.928C29.71 12.6943 29.6806 12.4752 29.6512 12.2562C30.0778 11.9495 30.7841 11.2777 30.7841 10.2407C30.7841 8.9847 29.7542 7.96236 28.4889 7.96236H28.4153C28.2976 7.56803 28.0622 7.21752 27.7091 6.89621C27.0764 6.34123 25.9877 5.66941 24.4723 5.66941C23.207 5.66941 21.9711 6.2682 21.9122 6.29741L21.6621 6.42885L21.6033 6.70635C21.5297 7.07147 21.4708 7.42198 21.412 7.7725L20.9706 7.42198C20.2791 6.867 19.8819 6.04913 19.8819 5.15824C19.8819 3.56631 21.1913 2.26649 22.795 2.26649H25.4433C26.5173 2.26649 27.5325 2.67542 28.2829 3.43487L29.9749 5.11442H30.2103C31.7992 5.11442 33.0793 6.39965 33.0793 7.96236V10.971C33.0793 12.0517 32.476 13.0302 31.4903 13.5268L30.3427 14.0964C30.0778 13.7459 29.8719 13.3515 29.7689 12.928Z" fill="#8C9C9A"/>
<path d="M29.6364 26.2183H28.4888V35.3609H28.4741V36.5001H29.6511V35.3609H29.6364V26.2183Z" fill="#8C9C9A"/>
</g>
<defs>
<clipPath id="clip0">
<rect width="52" height="53" fill="white"/>
</clipPath>
</defs>
</svg>
