<svg width="17" height="17" viewBox="0 0 17 17" fill="none" xmlns="http://www.w3.org/2000/svg">
<path d="M13.1866 11.8316C12.7999 11.8316 12.4933 11.5405 12.4799 11.1568C12.4666 10.7864 12.7599 10.4688 13.1466 10.4424C13.2799 10.4291 13.3999 10.5085 13.4133 10.6408C13.4399 10.7599 13.3599 10.8657 13.2133 10.9054C13.0266 10.9451 12.9333 11.0378 12.9466 11.1568C12.9599 11.2759 13.0266 11.3553 13.1466 11.3685C13.2933 11.3818 13.3599 11.3156 13.4133 11.1039C13.4533 10.9716 13.5466 10.9054 13.6666 10.9187C13.7999 10.9319 13.8799 11.0378 13.8666 11.1701C13.8799 11.5273 13.5599 11.8316 13.1866 11.8316Z" fill="#495352"/>
<path d="M7.89478 10.0149C7.76597 9.89352 7.55989 9.89352 7.44396 10.0284L5.82104 11.8498V2.35164C5.82104 2.17624 5.70512 2.01434 5.53767 2.00085C5.34447 1.98736 5.17702 2.13577 5.17702 2.33814V11.8633L3.5541 10.0284C3.43817 9.89352 3.23209 9.88003 3.10328 10.0149C2.97448 10.1364 2.9616 10.3522 3.0904 10.4872L5.17702 12.8482C5.35735 13.0506 5.65359 13.0506 5.83392 12.8482L7.92054 10.5007C8.03646 10.3522 8.02358 10.1364 7.89478 10.0149Z" fill="#495352" stroke="#495352" stroke-width="0.3"/>
<circle cx="5.5" cy="0.5" r="0.5" fill="#495352"/>
<path d="M15.5333 9.27798C15.5333 9.19859 15.5333 9.14567 15.5333 9.09274C15.5333 7.86224 15.5333 6.61851 15.5333 5.38801C15.5333 4.80584 15.2133 4.34275 14.6667 4.22367C14.44 4.17074 14.3867 4.06489 14.3467 3.87965C14.2933 3.6018 14.2133 3.32394 14.1467 3.04609C14.0267 2.53007 13.6933 2.31837 13.1733 2.45069C10.8267 3.01963 8.48 3.57534 6.12 4.14428C6.06667 4.15751 6.05333 4.15751 6 4.17074V4.67353C8.44 4.09135 10.84 3.49595 13.28 2.91378C13.5333 2.84762 13.6133 2.90055 13.68 3.15194C13.8267 3.76057 13.9867 4.38244 14.1333 5.00431C14.1467 5.03077 14.1467 5.05723 14.1467 5.09692C14.0933 5.11016 14.04 5.11016 14.0267 5.13662C12.5 5.30862 11.8787 5.30862 11.8787 5.38801C11.8654 5.49386 13.96 5.54678 14.08 5.56002C14.1733 5.57325 14.2533 5.56002 14.3467 5.57325C14.7467 5.58648 15.04 5.87756 15.04 6.2745C14.6933 6.00988 14.3067 6.04957 13.9067 6.04957C11.2533 6.04957 8.65333 6.04957 6 6.04957V6.51266C8.74667 6.51266 11.4533 6.51266 14.2 6.51266C14.36 6.51266 14.52 6.53912 14.6667 6.60528C14.8933 6.6979 15.0267 6.89637 15.0267 7.13453C15.04 7.84901 15.0267 8.5635 15.0267 9.30444C14.96 9.30444 14.9067 9.30444 14.8533 9.30444C13.8133 9.30444 12.7867 9.30444 11.7467 9.30444C11.3867 9.30444 11.28 9.41029 11.28 9.76754C11.28 10.707 11.28 11.6331 11.28 12.5725C11.28 12.943 11.3733 13.0356 11.7333 13.0356C12.7733 13.0356 13.8 13.0356 14.84 13.0356C14.8933 13.0356 14.96 13.0356 15.0133 13.0356C15.0133 13.0886 15.0267 13.115 15.0267 13.1415C15.0267 13.7898 15.0267 14.4381 15.0267 15.0865C15.0267 15.5231 14.7467 15.801 14.3067 15.8142C14.2667 15.8142 14.2267 15.8142 14.1867 15.8142C10.2133 15.8142 6.24 15.8142 2.26667 15.8142C2.12 15.8142 1.94667 15.7877 1.81333 15.7348C1.58667 15.6422 1.46667 15.4305 1.44 15.1791C1.44 15.1262 1.44 15.0865 1.44 15.0336C1.44 12.1756 1.44 9.30444 1.44 6.44651C1.44 6.40681 1.44 6.35389 1.44 6.2745C1.77333 6.52589 2.13333 6.51266 2.48 6.51266C2.92 6.51266 3.36 6.51266 3.81333 6.51266V6.04957C3.29333 6.04957 2.77333 6.04957 2.25333 6.04957C2 6.04957 1.77333 5.99665 1.6 5.78495C1.42667 5.57325 1.38667 5.33509 1.49333 5.08369C1.62667 4.8323 1.81333 4.68676 2.06667 4.64706C2.12 4.63383 2.16 4.63383 2.21333 4.63383C2.76 4.63383 3.29333 4.63383 3.84 4.64706V4.17074C3.32 4.17074 2.78667 4.17074 2.26667 4.17074C1.49333 4.17074 1 4.66029 1 5.44094C1 8.62965 1 11.8184 1 15.0203C1 15.6422 1.32 16.0788 1.89333 16.2376C2.01333 16.2641 2.13333 16.2773 2.25333 16.2773C6.26667 16.2773 10.2667 16.2773 14.28 16.2773C15.0533 16.2773 15.5333 15.7877 15.5333 15.0203C15.5333 14.4117 15.5333 13.8031 15.5333 13.2076C15.5333 13.1547 15.5333 13.1018 15.5333 13.0224C15.7333 13.0356 15.9067 13.0092 16 12.8107C16 11.7125 16 10.6276 16 9.52937C15.9067 9.30444 15.7333 9.26475 15.5333 9.27798ZM15.0533 5.30862C14.9333 5.2557 14.8267 5.20277 14.72 5.16308C14.6933 5.14985 14.6667 5.13662 14.6533 5.11016C14.6133 4.97784 14.5867 4.8323 14.5467 4.68676C14.8133 4.69999 15.08 5.05723 15.0533 5.30862ZM15.52 12.5329C14.28 12.5329 13.04 12.5329 11.7867 12.5329C11.7867 11.6067 11.7867 10.6937 11.7867 9.7543C13.0267 9.7543 14.2667 9.7543 15.52 9.7543C15.52 10.6805 15.52 11.5934 15.52 12.5329Z" fill="#495352" stroke="#495352" stroke-width="0.3"/>
</svg>
