<svg width="53" height="81" viewBox="0 0 53 81" fill="none" xmlns="http://www.w3.org/2000/svg">
<path d="M9.22852 71.2466C9.22852 72.228 9.05762 73.0898 8.71582 73.832C8.37891 74.5742 7.89551 75.1455 7.26562 75.5459C6.63574 75.9463 5.9082 76.1465 5.08301 76.1465C3.83789 76.1465 2.83203 75.7021 2.06543 74.8135C1.29883 73.9199 0.915527 72.7163 0.915527 71.2026V70.104C0.915527 69.1323 1.08643 68.2729 1.42822 67.5259C1.7749 66.7739 2.26318 66.1978 2.89307 65.7974C3.52295 65.3921 4.24805 65.1895 5.06836 65.1895C5.88867 65.1895 6.61133 65.3872 7.23633 65.7827C7.86621 66.1782 8.35205 66.7373 8.69385 67.46C9.03564 68.1826 9.21387 69.02 9.22852 69.9722V71.2466ZM8.32764 70.0894C8.32764 68.8052 8.03711 67.7993 7.45605 67.0718C6.875 66.3442 6.0791 65.9805 5.06836 65.9805C4.07715 65.9805 3.28613 66.3467 2.69531 67.0791C2.10938 67.8066 1.81641 68.8247 1.81641 70.1333V71.2466C1.81641 72.5112 2.10938 73.5146 2.69531 74.2568C3.28125 74.9941 4.07715 75.3628 5.08301 75.3628C6.10352 75.3628 6.89941 74.999 7.4707 74.2715C8.04199 73.5391 8.32764 72.521 8.32764 71.2173V70.0894ZM17.1849 68.8223H14.2991V76H13.4202V68.8223H10.6443V68.0752H17.1849V68.8223ZM24.4674 76H23.5885V72.6675C22.8658 72.9312 22.1749 73.063 21.5157 73.063C20.4659 73.063 19.7042 72.8335 19.2306 72.3745C18.7569 71.9106 18.5104 71.1904 18.4908 70.2139V68.0752H19.3624V70.1699C19.3722 70.9268 19.5382 71.4736 19.8604 71.8105C20.1876 72.1426 20.7394 72.3086 21.5157 72.3086C22.2237 72.2891 22.9146 72.1621 23.5885 71.9277V68.0752H24.4674V76ZM30.08 76.1465C29.4062 76.1465 28.7958 75.9805 28.2489 75.6484C27.7069 75.3164 27.2846 74.855 26.9818 74.2642C26.6791 73.6685 26.5277 73.002 26.5277 72.2646V71.9497C26.5277 71.188 26.6742 70.502 26.9672 69.8916C27.265 69.2812 27.6776 68.8027 28.205 68.4561C28.7323 68.1045 29.3036 67.9287 29.9188 67.9287C30.8808 67.9287 31.6425 68.2583 32.204 68.9175C32.7704 69.5718 33.0536 70.4678 33.0536 71.6055V72.0962H27.3993V72.2646C27.3993 73.1631 27.6557 73.9126 28.1684 74.5132C28.6859 75.1089 29.3354 75.4067 30.1166 75.4067C30.5854 75.4067 30.9979 75.3213 31.3544 75.1504C31.7157 74.9795 32.0429 74.7061 32.3358 74.3301L32.8852 74.7476C32.2406 75.6802 31.3056 76.1465 30.08 76.1465ZM29.9188 68.6758C29.2597 68.6758 28.703 68.9175 28.2489 69.4009C27.7997 69.8843 27.5263 70.5337 27.4286 71.3491H32.182V71.2539C32.1576 70.4922 31.9403 69.8721 31.5302 69.3936C31.12 68.915 30.5829 68.6758 29.9188 68.6758ZM40.5632 68.8223H37.6774V76H36.7985V68.8223H34.0227V68.0752H40.5632V68.8223ZM43.1729 70.9536H45.458C46.0439 70.9536 46.5566 71.061 46.9961 71.2759C47.4404 71.4858 47.7749 71.7788 47.9995 72.1548C48.229 72.5308 48.3438 72.9678 48.3438 73.4658C48.3438 74.2324 48.0801 74.8477 47.5527 75.3115C47.0303 75.7705 46.3223 76 45.4287 76H42.3013V68.0752H43.1729V70.9536ZM43.1729 71.7007V75.2603H45.4434C46.0732 75.2603 46.5664 75.1016 46.9229 74.7842C47.2842 74.4668 47.4648 74.0322 47.4648 73.4805C47.4648 72.9531 47.2891 72.5283 46.9375 72.2061C46.5908 71.8789 46.1147 71.7104 45.5093 71.7007H43.1729ZM51.0317 76H50.1528V68.0752H51.0317V76Z" fill="#30C4AE"/>
<path d="M41.688 45.984H27.288L18.744 40.32H23.16C23.736 40.32 24.12 39.936 24.12 39.36C24.12 38.784 23.736 38.4 23.16 38.4H15.864L10.296 34.752C10.008 34.56 9.624 34.56 9.336 34.752C8.952 34.848 8.76 35.136 8.76 35.52C8.76 37.824 7.128 39.744 4.92 40.224V24C4.92 23.424 4.536 23.04 3.96 23.04C3.384 23.04 3 23.424 3 24V41.28C3 41.76 3.288 42.144 3.768 42.24L26.808 47.904C26.904 47.904 27 47.904 27 47.904H41.688C42.264 47.904 42.648 47.52 42.648 46.944C42.648 46.368 42.264 45.984 41.688 45.984ZM7.608 41.184C9.048 40.32 10.104 38.88 10.488 37.152L21.816 44.64L7.608 41.184Z" fill="#067362"/>
<path d="M48.2159 0H24.2159C23.6399 0 23.2559 0.384 23.2559 0.96C23.2559 1.536 23.6399 1.92 24.2159 1.92H48.2159C48.6959 1.92 49.0799 2.208 49.0799 2.688L49.0799 45.216C49.0799 45.6 48.6959 45.984 48.3119 45.984H45.7199C45.1439 45.984 44.7599 46.368 44.7599 46.944C44.7599 47.52 45.1439 47.904 45.7199 47.904H48.3119C49.7519 47.904 50.9999 46.656 50.9999 45.216L50.9999 2.688C50.9999 1.152 49.7519 0 48.2159 0Z" fill="#067362"/>
<path d="M3.96 15.36C4.536 15.36 4.92 14.976 4.92 14.4V2.688C4.92 2.304 5.304 1.92 5.688 1.92H19.32C19.896 1.92 20.28 1.536 20.28 0.96C20.28 0.384 19.896 0 19.32 0H5.688C4.248 0 3 1.248 3 2.688V14.4C3 14.976 3.384 15.36 3.96 15.36Z" fill="#067362"/>
<path d="M3.96 21.1201C4.536 21.1201 4.92 20.7361 4.92 20.1601V18.5281C4.92 17.9521 4.536 17.5681 3.96 17.5681C3.384 17.5681 3 17.9521 3 18.5281V20.1601C3 20.7361 3.384 21.1201 3.96 21.1201Z" fill="#067362"/>
<path d="M27 4.79999C26.424 4.79999 26.04 5.18399 26.04 5.75999V20.16C26.04 20.736 26.424 21.12 27 21.12H46.2C46.776 21.12 47.16 20.736 47.16 20.16C47.16 19.584 46.776 19.2 46.2 19.2H27.96V5.75999C27.96 5.18399 27.576 4.79999 27 4.79999Z" fill="#067362"/>
<path d="M31.7999 16.32V13.44C31.7999 12.864 31.4159 12.48 30.8399 12.48C30.2639 12.48 29.8799 12.864 29.8799 13.44V16.32C29.8799 16.896 30.2639 17.28 30.8399 17.28C31.4159 17.28 31.7999 16.896 31.7999 16.32Z" fill="#067362"/>
<path d="M34.6802 10.56C34.1042 10.56 33.7202 10.944 33.7202 11.52V16.32C33.7202 16.896 34.1042 17.28 34.6802 17.28C35.2562 17.28 35.6402 16.896 35.6402 16.32V11.52C35.6402 10.944 35.2562 10.56 34.6802 10.56Z" fill="#067362"/>
<path d="M37.5601 16.32C37.5601 16.896 37.9441 17.28 38.5201 17.28C39.0961 17.28 39.4801 16.896 39.4801 16.32V6.72001C39.4801 6.14401 39.0961 5.76001 38.5201 5.76001C37.9441 5.76001 37.5601 6.14401 37.5601 6.72001V16.32Z" fill="#067362"/>
<path d="M42.3599 8.64001C41.7839 8.64001 41.3999 9.02401 41.3999 9.60001V16.32C41.3999 16.896 41.7839 17.28 42.3599 17.28C42.9359 17.28 43.3199 16.896 43.3199 16.32V9.60001C43.3199 9.02401 42.9359 8.64001 42.3599 8.64001Z" fill="#067362"/>
<path d="M46.2 29.28C46.008 28.8 45.432 28.608 44.952 28.8C44.472 28.992 44.28 29.568 44.472 30.048C44.856 30.912 45.048 31.776 45.144 32.64H36.6C36.216 32.64 35.928 32.832 35.736 33.216C35.544 33.504 35.64 33.888 35.832 34.176L41.016 40.992C39.672 41.76 38.232 42.24 36.6 42.24C31.8 42.24 27.96 38.4 27.96 33.6C27.96 28.8 31.8 24.96 36.6 24.96C38.904 24.96 41.112 25.824 42.744 27.456C43.128 27.84 43.704 27.84 44.088 27.456C44.472 27.072 44.472 26.496 44.088 26.112C42.072 24.096 39.384 23.04 36.6 23.04C30.744 23.04 26.04 27.744 26.04 33.6C26.04 39.456 30.744 44.16 36.6 44.16C38.904 44.16 41.112 43.392 42.84 42.048H42.936C42.936 42.048 42.936 42.048 43.032 41.952C45.528 40.032 47.16 36.96 47.16 33.6C47.16 32.064 46.872 30.624 46.2 29.28ZM42.552 39.84L38.52 34.56H45.144C44.952 36.672 43.992 38.496 42.552 39.84Z" fill="#067362"/>
<path d="M23.1598 9.59998H7.79984C7.22384 9.59998 6.83984 9.98398 6.83984 10.56C6.83984 11.136 7.22384 11.52 7.79984 11.52H23.1598C23.7358 11.52 24.1198 11.136 24.1198 10.56C24.1198 9.98398 23.7358 9.59998 23.1598 9.59998Z" fill="#067362"/>
<path d="M23.1598 17.28H7.79984C7.22384 17.28 6.83984 17.664 6.83984 18.24C6.83984 18.816 7.22384 19.2 7.79984 19.2H23.1598C23.7358 19.2 24.1198 18.816 24.1198 18.24C24.1198 17.664 23.7358 17.28 23.1598 17.28Z" fill="#067362"/>
<path d="M23.1598 24.96H7.79984C7.22384 24.96 6.83984 25.344 6.83984 25.92C6.83984 26.496 7.22384 26.88 7.79984 26.88H23.1598C23.7358 26.88 24.1198 26.496 24.1198 25.92C24.1198 25.344 23.7358 24.96 23.1598 24.96Z" fill="#067362"/>
<path d="M31.4159 30.816C30.9359 30.624 30.3599 30.912 30.1679 31.392C29.9759 32.064 29.8799 32.832 29.8799 33.6C29.8799 35.328 30.4559 36.864 31.6079 38.112C31.7999 38.304 32.0879 38.4 32.2799 38.4C32.4719 38.4 32.7599 38.304 32.9519 38.112C33.3359 37.728 33.3359 37.152 33.0479 36.768C32.2799 35.904 31.8959 34.848 31.8959 33.6C31.8959 33.024 31.9919 32.448 32.0879 31.968C32.1839 31.488 31.8959 30.912 31.4159 30.816Z" fill="#067362"/>
</svg>
