<svg width="40" height="40" viewBox="0 0 40 40" fill="none" xmlns="http://www.w3.org/2000/svg">
<path fill-rule="evenodd" clip-rule="evenodd" d="M40 20C40 8.9543 31.0457 -1.35705e-06 20 -8.74228e-07C8.9543 -3.91405e-07 -1.35705e-06 8.9543 -8.74228e-07 20C-3.91405e-07 31.0457 8.9543 40 20 40C31.0457 40 40 31.0457 40 20Z" fill="#087464"/>
<path fill-rule="evenodd" clip-rule="evenodd" d="M10.1327 27.1545L18.5183 9.93973C19.1291 8.68676 20.8712 8.68676 21.4815 9.93973L29.8671 27.1545C30.2804 28.0025 29.6796 29 28.7561 29L22.6314 28.2664C22.06 28.198 21.609 27.7355 21.5416 27.149L20.6177 18.07C20.5403 17.308 19.4595 17.308 19.3821 18.07L18.4583 27.149C18.3912 27.7355 17.9403 28.198 17.3684 28.2664L11.2437 29C10.3203 29 9.71986 28.0025 10.1327 27.1545Z" fill="#171717"/>
</svg>
