<svg width="22" height="24" viewBox="0 0 22 24" fill="none" xmlns="http://www.w3.org/2000/svg">
<path d="M19.6892 18.34C19.4656 18.3299 19.2775 18.5082 19.2674 18.7323C19.2572 18.9565 19.4351 19.145 19.6587 19.1552C19.8823 19.1653 20.0704 18.987 20.0805 18.7629C20.0856 18.5387 19.9128 18.3502 19.6892 18.34Z" fill="#067362"/>
<path d="M3.34898 5.80258L3.59801 5.81786C3.60818 5.81786 3.61326 5.81786 3.62342 5.81786C3.76572 5.81786 3.89786 5.76182 3.9995 5.65994L4.38067 5.27785C4.48739 5.17087 4.5433 5.02313 4.53821 4.87029L4.39591 2.04796L6.86077 1.02907C6.99291 0.973032 7.09455 0.871143 7.15045 0.738687C7.20636 0.606231 7.20636 0.463586 7.15045 0.33113C7.03865 0.0611241 6.72355 -0.0713319 6.4542 0.0407462L3.63359 1.21247C3.42522 1.29908 3.29308 1.50795 3.30324 1.73211L3.45571 4.69199L3.41505 4.73784H3.40489C3.11012 4.72255 2.86109 4.95181 2.84585 5.24219C2.8306 5.53767 3.05422 5.7873 3.34898 5.80258Z" fill="#067362"/>
<path d="M1.72277 5.72109C1.73293 5.72109 1.7431 5.72109 1.74818 5.72109C1.88032 5.72109 2.00737 5.67524 2.10393 5.58354C2.21066 5.48674 2.27165 5.35429 2.27673 5.21164C2.29197 4.91617 2.06328 4.66654 1.76851 4.65125C1.62621 4.64616 1.48899 4.69201 1.38226 4.7888C1.27554 4.8856 1.21455 5.01805 1.20947 5.1607C1.20439 5.30334 1.25013 5.4409 1.34669 5.54788C1.44325 5.65486 1.58047 5.716 1.72277 5.72109Z" fill="#067362"/>
<path d="M11.666 7.05074C10.7006 6.86224 9.71487 6.95904 8.82059 7.32584C8.80027 7.33603 8.77486 7.34112 8.75454 7.35131C8.72405 7.3615 8.69865 7.37678 8.66816 7.38697C8.61735 7.41244 8.56145 7.43792 8.51064 7.45829C8.4954 7.46339 8.48524 7.47358 8.47 7.47867C8.3074 7.56018 8.14989 7.65188 7.99745 7.74868L7.96697 7.76906C6.80848 8.52303 5.96501 9.7457 5.73636 11.2129C5.54328 12.4661 5.82274 13.7347 6.52901 14.7892C7.23529 15.8438 8.30232 16.5825 9.53195 16.8728L9.65389 16.9034V16.8932C9.74535 16.9136 9.83681 16.9289 9.92827 16.9442C10.1874 16.9849 10.4516 17.0053 10.7108 17.0053C11.7676 17.0053 12.7889 16.6742 13.6578 16.0374C15.8884 14.402 16.3762 11.2537 14.7452 9.0121C14.0033 7.99321 12.9058 7.29527 11.666 7.05074ZM14.6994 12.6139L14.6791 12.7412H14.6893C14.5419 13.5411 14.1557 14.2747 13.5663 14.8605C12.7991 15.6298 11.7778 16.0526 10.6955 16.0526C9.61324 16.0526 8.59194 15.6247 7.8247 14.8554C7.67734 14.7077 7.54524 14.5498 7.42329 14.3817L7.34707 14.2798L7.33691 14.29C6.87453 13.6175 6.62047 12.8075 6.62556 11.9873C6.62556 10.5252 7.40296 9.23626 8.56654 8.52303L8.57162 8.51794C8.6021 8.49756 8.63767 8.48228 8.66816 8.4619C8.68848 8.45171 8.70881 8.43643 8.72913 8.42624C8.75962 8.41096 8.7901 8.39567 8.81551 8.38039C8.84092 8.36511 8.86632 8.35492 8.89173 8.33963C8.92221 8.32435 8.94762 8.31416 8.97811 8.29888C9.00859 8.28359 9.034 8.27341 9.06448 8.25812C9.08989 8.24793 9.11529 8.23265 9.14578 8.22246C9.18135 8.20718 9.21692 8.1919 9.25249 8.18171C9.27281 8.17152 9.29313 8.16642 9.31346 8.15623C9.74535 7.99831 10.2077 7.91679 10.6904 7.91679H10.6955C11.7778 7.91679 12.7991 8.34473 13.5663 9.11399C14.3336 9.88325 14.7553 10.9072 14.7553 11.9924C14.7452 12.2012 14.7299 12.405 14.6994 12.6139Z" fill="#067362"/>
<path d="M18.0691 18.1516L17.8201 18.1414C17.8099 18.1414 17.8048 18.1414 17.7947 18.1414C17.6524 18.1414 17.5202 18.2025 17.4186 18.3044L17.0425 18.6865C16.9358 18.7935 16.8849 18.9412 16.89 19.0941L17.0679 21.9113L14.6132 22.9709C14.3439 23.0881 14.2168 23.404 14.3337 23.674C14.4201 23.8778 14.6183 24 14.8267 24C14.8978 24 14.969 23.9847 15.035 23.9542L17.8404 22.7468C18.0488 22.6602 18.1758 22.4462 18.1606 22.2221L17.9725 19.2622L18.0132 19.2163H18.0234C18.313 19.2265 18.5672 18.9973 18.5773 18.7018C18.5926 18.4114 18.3588 18.1618 18.0691 18.1516Z" fill="#067362"/>
<path d="M21.2134 14.4377L19.3334 12.7361V11.2282L21.2134 9.52664C21.3811 9.3738 21.437 9.13436 21.3506 8.92549L20.3903 6.59732C20.3039 6.38845 20.0956 6.25599 19.872 6.26618L17.3416 6.39354L16.2797 5.3288L16.4067 2.79176C16.4169 2.5676 16.2848 2.35873 16.0764 2.27213L13.7544 1.30927C13.6477 1.26342 13.5359 1.25833 13.4292 1.2838C13.3174 1.30418 13.2107 1.36022 13.1345 1.45192L11.4425 3.33177H9.95371L8.25662 1.44682C8.12451 1.29908 7.92127 1.23795 7.73327 1.2838C7.70278 1.28889 7.66721 1.29908 7.63673 1.31437L5.31466 2.27722C5.10634 2.36383 4.97423 2.5727 4.98439 2.79685L5.11142 5.3339L4.04947 6.39864L1.51908 6.27128C1.29551 6.26109 1.08718 6.39354 1.0008 6.60242L0.0404748 8.92549C-0.045904 9.13436 0.00998813 9.3738 0.177665 9.52664L2.05767 11.2282V12.7361L0.177665 14.4377C0.00998813 14.5905 -0.045904 14.83 0.0404748 15.0388L1.0008 17.3721C1.08718 17.581 1.29551 17.7134 1.51908 17.7032L4.04947 17.5759L5.11142 18.6406L4.98439 21.1777C4.97423 21.4018 5.10634 21.6107 5.31466 21.6973L7.63673 22.6602C7.70278 22.6856 7.77392 22.7009 7.83997 22.7009C7.88062 22.7009 7.92127 22.6958 7.96192 22.6856C8.0737 22.6652 8.17532 22.6092 8.25154 22.5226L9.94863 20.6377H11.4526L13.1497 22.5226C13.2513 22.6347 13.3987 22.7009 13.5461 22.7009C13.6121 22.7009 13.6832 22.6856 13.7493 22.6602L16.0714 21.6973C16.2797 21.6107 16.4118 21.4018 16.4016 21.1777L16.2746 18.6406L17.3366 17.5759L19.8669 17.7032C20.0956 17.7134 20.2988 17.581 20.3852 17.3721L21.3455 15.0439C21.437 14.83 21.3811 14.5905 21.2134 14.4377ZM19.5468 16.6079L17.1587 16.4857C17.0063 16.4806 16.8589 16.5366 16.7522 16.6436L15.3549 18.0446C15.2482 18.1516 15.1923 18.2993 15.1974 18.4521L15.3194 20.8465L13.6934 21.5241L12.0878 19.741C11.9862 19.629 11.8439 19.5627 11.6914 19.5627H9.70982C9.55738 19.5627 9.41511 19.629 9.31349 19.741L9.16106 19.9142L9.1509 19.9041L7.6977 21.519L6.08191 20.8465L6.20386 18.4521C6.21402 18.2993 6.15304 18.1516 6.04634 18.0446L4.6846 16.6793L4.67444 16.6894L4.63379 16.6487C4.52709 16.5417 4.37974 16.4857 4.2273 16.4908L1.83919 16.613L1.1634 14.9828L2.94179 13.373C3.05357 13.2711 3.11962 13.1284 3.11962 12.9756V10.9887C3.11962 10.8359 3.05357 10.6933 2.94179 10.5914L1.1634 8.98153L1.83919 7.3513L4.2273 7.47357C4.37974 7.48376 4.52709 7.42262 4.63379 7.31564L6.0311 5.91466C6.1378 5.80768 6.19369 5.65994 6.18861 5.50711L6.17845 5.28805H6.19877L6.08699 3.10762L7.6977 2.44534L9.29825 4.2233C9.39987 4.33538 9.54214 4.40161 9.69457 4.40161H11.6762C11.7169 4.40161 11.7524 4.39651 11.7931 4.38633C11.9049 4.36595 12.0116 4.30481 12.0929 4.21821L13.6883 2.44534L15.3041 3.11781L15.1822 5.5122C15.172 5.66504 15.233 5.81277 15.3397 5.91976L16.737 7.32073C16.8437 7.42772 16.991 7.48376 17.1435 7.47866L19.5316 7.3564L20.2074 8.98662L18.429 10.5965C18.3172 10.6984 18.2512 10.841 18.2512 10.9938V12.9297H18.2715V12.9756C18.2715 13.1284 18.3375 13.2711 18.4493 13.373L20.2277 14.9828L19.5468 16.6079Z" fill="#067362"/>
</svg>
