<svg width="22" height="24" viewBox="0 0 22 24" fill="none" xmlns="http://www.w3.org/2000/svg">
<path d="M19.689 18.3392C19.4653 18.329 19.2773 18.5073 19.2671 18.7315C19.257 18.9557 19.4348 19.1441 19.6585 19.1543C19.8821 19.1645 20.0701 18.9862 20.0803 18.7621C20.0854 18.5379 19.9126 18.3494 19.689 18.3392Z" fill="#30C4AE"/>
<path d="M3.34874 5.80176L3.59777 5.81704C3.60793 5.81704 3.61301 5.81704 3.62318 5.81704C3.76548 5.81704 3.89761 5.761 3.99926 5.65911L4.38042 5.27703C4.48715 5.17004 4.54305 5.0223 4.53797 4.86947L4.39567 2.04714L6.86053 1.02825C6.99266 0.972208 7.09431 0.870319 7.15021 0.737863C7.20611 0.605407 7.20611 0.462762 7.15021 0.330306C7.0384 0.0603001 6.72331 -0.0721559 6.45395 0.0399223L3.63334 1.21165C3.42497 1.29825 3.29284 1.50713 3.303 1.73128L3.45547 4.69116L3.41481 4.73701H3.40464C3.10988 4.72173 2.86085 4.95098 2.8456 5.24137C2.83036 5.53684 3.05397 5.78647 3.34874 5.80176Z" fill="#30C4AE"/>
<path d="M1.72253 5.72027C1.73269 5.72027 1.74285 5.72027 1.74794 5.72027C1.88007 5.72027 2.00713 5.67442 2.10369 5.58272C2.21042 5.48592 2.2714 5.35347 2.27648 5.21082C2.29173 4.91534 2.06303 4.66571 1.76827 4.65043C1.62596 4.64534 1.48875 4.69119 1.38202 4.78798C1.27529 4.88477 1.21431 5.01723 1.20923 5.15988C1.20414 5.30252 1.24988 5.44007 1.34644 5.54705C1.44301 5.65404 1.58022 5.71517 1.72253 5.72027Z" fill="#30C4AE"/>
<path d="M11.6658 7.04991C10.7004 6.86142 9.71462 6.95821 8.82035 7.32501C8.80002 7.3352 8.77462 7.3403 8.75429 7.35049C8.72381 7.36068 8.6984 7.37596 8.66791 7.38615C8.6171 7.41162 8.56121 7.43709 8.5104 7.45747C8.49516 7.46256 8.48499 7.47275 8.46975 7.47785C8.30716 7.55936 8.14964 7.65106 7.99721 7.74785L7.96672 7.76823C6.80823 8.52221 5.96477 9.74488 5.73612 11.2121C5.54304 12.4653 5.8225 13.7338 6.52877 14.7884C7.23504 15.8429 8.30208 16.5816 9.5317 16.872L9.65365 16.9026V16.8924C9.74511 16.9128 9.83657 16.9281 9.92803 16.9433C10.1872 16.9841 10.4514 17.0045 10.7105 17.0045C11.7674 17.0045 12.7887 16.6733 13.6576 16.0365C15.8882 14.4012 16.3759 11.2528 14.7449 9.01128C14.0031 7.99239 12.9056 7.29445 11.6658 7.04991ZM14.6992 12.6131L14.6789 12.7404H14.689C14.5417 13.5402 14.1555 14.2738 13.5661 14.8597C12.7988 15.629 11.7775 16.0518 10.6953 16.0518C9.613 16.0518 8.5917 15.6239 7.82445 14.8546C7.6771 14.7069 7.54499 14.5489 7.42304 14.3808L7.34683 14.2789L7.33667 14.2891C6.87428 13.6167 6.62023 12.8066 6.62531 11.9864C6.62531 10.5243 7.40272 9.23543 8.56629 8.52221L8.57137 8.51712C8.60186 8.49674 8.63743 8.48145 8.66791 8.46108C8.68824 8.45089 8.70856 8.4356 8.72889 8.42542C8.75937 8.41013 8.78986 8.39485 8.81527 8.37957C8.84067 8.36428 8.86608 8.35409 8.89148 8.33881C8.92197 8.32353 8.94737 8.31334 8.97786 8.29805C9.00835 8.28277 9.03375 8.27258 9.06424 8.2573C9.08965 8.24711 9.11505 8.23183 9.14554 8.22164C9.1811 8.20635 9.21667 8.19107 9.25224 8.18088C9.27257 8.17069 9.29289 8.1656 9.31321 8.15541C9.74511 7.99748 10.2075 7.91597 10.6902 7.91597H10.6953C11.7775 7.91597 12.7988 8.3439 13.5661 9.11317C14.3333 9.88243 14.7551 10.9064 14.7551 11.9915C14.7449 12.2004 14.7297 12.4042 14.6992 12.6131Z" fill="#30C4AE"/>
<path d="M18.0689 18.1508L17.8198 18.1406C17.8097 18.1406 17.8046 18.1406 17.7944 18.1406C17.6521 18.1406 17.52 18.2017 17.4183 18.3036L17.0423 18.6857C16.9355 18.7927 16.8847 18.9404 16.8898 19.0932L17.0677 21.9105L14.613 22.9701C14.3436 23.0873 14.2166 23.4031 14.3334 23.6731C14.4198 23.8769 14.618 23.9992 14.8264 23.9992C14.8976 23.9992 14.9687 23.9839 15.0348 23.9533L17.8402 22.746C18.0485 22.6594 18.1756 22.4454 18.1603 22.2212L17.9723 19.2613L18.013 19.2155H18.0231C18.3128 19.2257 18.5669 18.9964 18.5771 18.701C18.5923 18.4106 18.3585 18.1609 18.0689 18.1508Z" fill="#30C4AE"/>
<path d="M21.2132 14.4369L19.3332 12.7353V11.2274L21.2132 9.52581C21.3809 9.37298 21.4368 9.13354 21.3504 8.92467L20.3901 6.5965C20.3037 6.38762 20.0954 6.25517 19.8718 6.26536L17.3414 6.39272L16.2794 5.32798L16.4065 2.79094C16.4166 2.56678 16.2845 2.35791 16.0762 2.2713L13.7541 1.30845C13.6474 1.2626 13.5356 1.2575 13.4289 1.28298C13.3172 1.30335 13.2105 1.35939 13.1342 1.45109L11.4422 3.33095H9.95347L8.25638 1.446C8.12427 1.29826 7.92102 1.23713 7.73302 1.28298C7.70254 1.28807 7.66697 1.29826 7.63648 1.31354L5.31442 2.2764C5.10609 2.363 4.97398 2.57187 4.98415 2.79603L5.11117 5.33307L4.04922 6.39781L1.51883 6.27045C1.29526 6.26026 1.08694 6.39272 1.00056 6.60159L0.0402306 8.92467C-0.0461482 9.13354 0.00974399 9.37298 0.17742 9.52581L2.05743 11.2274V12.7353L0.17742 14.4369C0.00974399 14.5897 -0.0461482 14.8291 0.0402306 15.038L1.00056 17.3713C1.08694 17.5802 1.29526 17.7126 1.51883 17.7024L4.04922 17.5751L5.11117 18.6398L4.98415 21.1768C4.97398 21.401 5.10609 21.6099 5.31442 21.6965L7.63648 22.6593C7.70254 22.6848 7.77367 22.7001 7.83973 22.7001C7.88038 22.7001 7.92102 22.695 7.96167 22.6848C8.07346 22.6644 8.17508 22.6084 8.2513 22.5218L9.94839 20.6368H11.4524L13.1495 22.5218C13.2511 22.6339 13.3985 22.7001 13.5458 22.7001C13.6119 22.7001 13.683 22.6848 13.7491 22.6593L16.0711 21.6965C16.2794 21.6099 16.4115 21.401 16.4014 21.1768L16.2744 18.6398L17.3363 17.5751L19.8667 17.7024C20.0954 17.7126 20.2986 17.5802 20.385 17.3713L21.3453 15.0431C21.4368 14.8291 21.3809 14.5897 21.2132 14.4369ZM19.5466 16.6071L17.1585 16.4848C17.006 16.4797 16.8587 16.5358 16.752 16.6428L15.3547 18.0437C15.248 18.1507 15.1921 18.2985 15.1972 18.4513L15.3191 20.8457L13.6932 21.5233L12.0875 19.7402C11.9859 19.6281 11.8436 19.5619 11.6912 19.5619H9.70957C9.55714 19.5619 9.41487 19.6281 9.31325 19.7402L9.16081 19.9134L9.15065 19.9032L7.69746 21.5182L6.08166 20.8457L6.20361 18.4513C6.21377 18.2985 6.1528 18.1507 6.0461 18.0437L4.68436 16.6784L4.6742 16.6886L4.63355 16.6479C4.52685 16.5409 4.37949 16.4848 4.22706 16.4899L1.83894 16.6122L1.16315 14.982L2.94154 13.3721C3.05333 13.2702 3.11938 13.1276 3.11938 12.9748V10.9879C3.11938 10.8351 3.05333 10.6924 2.94154 10.5906L1.16315 8.98071L1.83894 7.35048L4.22706 7.47274C4.37949 7.48293 4.52685 7.4218 4.63355 7.31482L6.03085 5.91384C6.13756 5.80686 6.19345 5.65912 6.18837 5.50628L6.17821 5.28722H6.19853L6.08675 3.10679L7.69746 2.44451L9.298 4.22248C9.39963 4.33456 9.5419 4.40079 9.69433 4.40079H11.676C11.7166 4.40079 11.7522 4.39569 11.7928 4.3855C11.9046 4.36512 12.0113 4.30399 12.0926 4.21738L13.6881 2.44451L15.3039 3.11698L15.1819 5.51138C15.1718 5.66421 15.2327 5.81195 15.3394 5.91893L16.7367 7.31991C16.8434 7.42689 16.9908 7.48293 17.1432 7.47784L19.5313 7.35557L20.2071 8.9858L18.4287 10.5956C18.317 10.6975 18.2509 10.8402 18.2509 10.993V12.9289H18.2712V12.9748C18.2712 13.1276 18.3373 13.2702 18.4491 13.3721L20.2275 14.982L19.5466 16.6071Z" fill="#30C4AE"/>
</svg>
