<svg width="23" height="24" viewBox="0 0 23 24" fill="none" xmlns="http://www.w3.org/2000/svg">
<g clip-path="url(#clip0)">
<path d="M20.7261 18.34C20.502 18.3299 20.3135 18.5082 20.3033 18.7323C20.2931 18.9565 20.4714 19.145 20.6955 19.1552C20.9197 19.1654 21.1082 18.987 21.1184 18.7629C21.1235 18.5387 20.9503 18.3502 20.7261 18.34Z" fill="#8C9C9A"/>
<path d="M4.34644 5.80258L4.59607 5.81786C4.60626 5.81786 4.61135 5.81786 4.62154 5.81786C4.76419 5.81786 4.89664 5.76182 4.99853 5.65994L5.38062 5.27785C5.4876 5.17087 5.54364 5.02313 5.53855 4.87029L5.3959 2.04796L7.86671 1.02907C7.99917 0.973032 8.10106 0.871143 8.1571 0.738687C8.21313 0.606231 8.21313 0.463586 8.1571 0.33113C8.04502 0.0611241 7.72916 -0.0713319 7.45916 0.0407462L4.63173 1.21247C4.42286 1.29908 4.2904 1.50795 4.30059 1.73211L4.45343 4.69199L4.41267 4.73784H4.40248C4.107 4.72255 3.85737 4.95181 3.84209 5.24219C3.82681 5.53767 4.05096 5.7873 4.34644 5.80258Z" fill="#8C9C9A"/>
<path d="M2.71629 5.7211C2.72648 5.7211 2.73667 5.7211 2.74177 5.7211C2.87422 5.7211 3.00158 5.67525 3.09838 5.58355C3.20536 5.48675 3.26649 5.3543 3.27159 5.21165C3.28687 4.91617 3.05762 4.66654 2.76214 4.65126C2.6195 4.64617 2.48195 4.69202 2.37496 4.78881C2.26798 4.88561 2.20685 5.01806 2.20175 5.16071C2.19666 5.30335 2.24251 5.4409 2.3393 5.54789C2.4361 5.65487 2.57365 5.716 2.71629 5.7211Z" fill="#8C9C9A"/>
<path d="M12.6835 7.05075C11.7158 6.86226 10.7277 6.95905 9.83126 7.32585C9.81089 7.33604 9.78542 7.34114 9.76505 7.35132C9.73448 7.36151 9.70902 7.3768 9.67846 7.38699C9.62752 7.41246 9.5715 7.43793 9.52056 7.45831C9.50528 7.4634 9.4951 7.47359 9.47982 7.47869C9.31683 7.5602 9.15893 7.6519 9.00613 7.74869L8.97557 7.76907C7.81428 8.52305 6.96878 9.74572 6.73958 11.2129C6.54603 12.4662 6.82617 13.7347 7.53415 14.7892C8.24213 15.8438 9.31174 16.5825 10.5443 16.8729L10.6666 16.9034V16.8932C10.7583 16.9136 10.8499 16.9289 10.9416 16.9442C11.2014 16.9849 11.4662 17.0053 11.726 17.0053C12.7854 17.0053 13.8092 16.6742 14.6802 16.0374C16.9161 14.402 17.4051 11.2537 15.7701 9.01212C15.0265 7.99322 13.9263 7.29529 12.6835 7.05075ZM15.7243 12.6139L15.7039 12.7413H15.7141C15.5664 13.5411 15.1793 14.2747 14.5885 14.8605C13.8194 15.6298 12.7956 16.0526 11.7107 16.0526C10.6258 16.0526 9.60206 15.6247 8.83296 14.8555C8.68525 14.7077 8.55282 14.5498 8.43058 14.3817L8.35418 14.2798L8.34399 14.29C7.8805 13.6175 7.62583 12.8075 7.63092 11.9873C7.63092 10.5252 8.41021 9.23627 9.57659 8.52305L9.58168 8.51795C9.61224 8.49758 9.6479 8.48229 9.67846 8.46192C9.69883 8.45173 9.7192 8.43644 9.73958 8.42625C9.77014 8.41097 9.8007 8.39569 9.82617 8.3804C9.85163 8.36512 9.8771 8.35493 9.90257 8.33965C9.93313 8.32436 9.95859 8.31418 9.98915 8.29889C10.0197 8.28361 10.0452 8.27342 10.0757 8.25814C10.1012 8.24795 10.1267 8.23266 10.1572 8.22248C10.1929 8.20719 10.2285 8.19191 10.2642 8.18172C10.2846 8.17153 10.3049 8.16644 10.3253 8.15625C10.7583 7.99832 11.2217 7.91681 11.7056 7.91681H11.7107C12.7956 7.91681 13.8194 8.34474 14.5885 9.114C15.3576 9.88327 15.7803 10.9073 15.7803 11.9924C15.7701 12.2012 15.7549 12.405 15.7243 12.6139Z" fill="#8C9C9A"/>
<path d="M19.1021 18.1516L18.8525 18.1414C18.8423 18.1414 18.8372 18.1414 18.827 18.1414C18.6844 18.1414 18.5519 18.2025 18.45 18.3044L18.073 18.6865C17.966 18.7935 17.9151 18.9412 17.9202 19.0941L18.0985 21.9113L15.6379 22.9709C15.3679 23.0881 15.2405 23.404 15.3577 23.674C15.4443 23.8777 15.643 24 15.8518 24C15.9232 24 15.9945 23.9847 16.0607 23.9542L18.8729 22.7468C19.0817 22.6602 19.2091 22.4462 19.1938 22.222L19.0053 19.2622L19.0461 19.2163H19.0563C19.3467 19.2265 19.6014 18.9973 19.6116 18.7018C19.6268 18.4114 19.3925 18.1618 19.1021 18.1516Z" fill="#8C9C9A"/>
<path d="M22.254 14.4377L20.3695 12.7362V11.2282L22.254 9.52664C22.4221 9.37381 22.4782 9.13437 22.3916 8.9255L21.4289 6.59733C21.3423 6.38845 21.1335 6.256 20.9094 6.26619L18.3729 6.39355L17.3084 5.32881L17.4357 2.79177C17.4459 2.56761 17.3135 2.35874 17.1046 2.27213L14.777 1.30928C14.67 1.26343 14.5579 1.25833 14.451 1.28381C14.3389 1.30418 14.232 1.36022 14.1556 1.45192L12.4595 3.33178H10.9671L9.26593 1.44683C9.1335 1.29909 8.92977 1.23796 8.74131 1.28381C8.71075 1.2889 8.6751 1.29909 8.64454 1.31437L6.31686 2.27723C6.10803 2.36383 5.97561 2.5727 5.98579 2.79686L6.11313 5.3339L5.04861 6.39864L2.51211 6.27128C2.288 6.26109 2.07917 6.39355 1.99259 6.60242L1.02994 8.9255C0.943349 9.13437 0.999376 9.37381 1.16746 9.52664L3.05201 11.2282V12.7362L1.16746 14.4377C0.999376 14.5905 0.943349 14.83 1.02994 15.0388L1.99259 17.3721C2.07917 17.581 2.288 17.7134 2.51211 17.7032L5.04861 17.5759L6.11313 18.6406L5.98579 21.1777C5.97561 21.4018 6.10803 21.6107 6.31686 21.6973L8.64454 22.6602C8.71075 22.6856 8.78206 22.7009 8.84827 22.7009C8.88902 22.7009 8.92977 22.6958 8.97051 22.6856C9.08257 22.6653 9.18443 22.6092 9.26083 22.5226L10.962 20.6377H12.4697L14.1709 22.5226C14.2727 22.6347 14.4204 22.7009 14.5681 22.7009C14.6343 22.7009 14.7057 22.6856 14.7719 22.6602L17.0995 21.6973C17.3084 21.6107 17.4408 21.4018 17.4306 21.1777L17.3033 18.6406L18.3678 17.5759L20.9043 17.7032C21.1335 17.7134 21.3372 17.581 21.4238 17.3721L22.3865 15.0439C22.4782 14.83 22.4221 14.5905 22.254 14.4377ZM20.5834 16.6079L18.1895 16.4857C18.0367 16.4806 17.889 16.5366 17.7821 16.6436L16.3814 18.0446C16.2744 18.1516 16.2184 18.2993 16.2235 18.4521L16.3457 20.8465L14.7158 21.5241L13.1063 19.741C13.0045 19.629 12.8619 19.5627 12.7091 19.5627H10.7226C10.5698 19.5627 10.4272 19.629 10.3254 19.741L10.1726 19.9142L10.1624 19.9041L8.70566 21.519L7.08596 20.8465L7.2082 18.4521C7.21839 18.2993 7.15727 18.1516 7.05031 18.0446L5.68528 16.6793L5.6751 16.6895L5.63435 16.6487C5.52739 16.5417 5.37968 16.4857 5.22688 16.4908L2.83299 16.613L2.15557 14.9828L3.93826 13.373C4.05031 13.2711 4.11652 13.1284 4.11652 12.9756V10.9888C4.11652 10.8359 4.05031 10.6933 3.93826 10.5914L2.15557 8.98153L2.83299 7.35131L5.22688 7.47357C5.37968 7.48376 5.52739 7.42263 5.63435 7.31565L7.03503 5.91467C7.14199 5.80769 7.19802 5.65995 7.19292 5.50711L7.18274 5.28805H7.20311L7.09106 3.10762L8.70566 2.44534L10.3101 4.22331C10.4119 4.33539 10.5546 4.40161 10.7074 4.40161H12.6938C12.7345 4.40161 12.7702 4.39652 12.8109 4.38633C12.923 4.36595 13.0299 4.30482 13.1114 4.21821L14.7107 2.44534L16.3304 3.11781L16.2082 5.51221C16.198 5.66504 16.2591 5.81278 16.3661 5.91976L17.7668 7.32074C17.8737 7.42772 18.0214 7.48376 18.1742 7.47867L20.5681 7.3564L21.2456 8.98663L19.4629 10.5965C19.3508 10.6984 19.2846 10.841 19.2846 10.9938V12.9297H19.305V12.9756C19.305 13.1284 19.3712 13.2711 19.4832 13.373L21.2659 14.9828L20.5834 16.6079Z" fill="#8C9C9A"/>
</g>
<defs>
<clipPath id="clip0">
<rect width="21.4431" height="24" fill="white" transform="translate(0.989258)"/>
</clipPath>
</defs>
</svg>
