<svg width="24" height="24" viewBox="0 0 24 24" fill="none" xmlns="http://www.w3.org/2000/svg">
<path d="M1.80001 10.3C1.70001 10.5 1.60001 10.8 1.60001 11.1C1.40001 12.4 2.40001 13.6 3.70001 13.8C4.00001 13.8 4.20001 13.8 4.50001 13.8L5.80001 16.8C5.50001 17 5.40001 17.3 5.30001 17.7C5.20001 18.5 5.80001 19.2 6.60001 19.3C7.20001 19.4 7.80001 19.1 8.10001 18.5L12 19C12.2 20 13.1 20.7 14.1 20.5C15.1 20.3 15.8 19.4 15.6 18.4C15.6 18.1 15.4 17.8 15.2 17.6L17.3 14.7C18.2 15 19.2 14.6 19.6 13.7L19.8 13.2V12.7C19.8 12.4 19.6 12 19.4 11.8C19.3 11.7 19.2 11.6 19.1 11.5C18.7 11.2 18.2 11.1 17.7 11.2L16.6 8.69999C17.8 7.89999 18.1 6.29999 17.3 5.19999C17.3 5.09999 17.2 5.09999 17.2 4.99999L17.1 4.89999L16.8 4.59999L16.4 4.39999C15.1 3.79999 13.6 4.29999 13 5.59999C12.9 5.69999 12.9 5.79999 12.9 5.89999L9.80001 5.49999C9.80001 5.29999 9.70001 4.99999 9.50001 4.79999C9.40001 4.69999 9.30001 4.59999 9.20001 4.49999C8.40001 3.99999 7.50001 4.09999 7.00001 4.69999C6.70001 5.19999 6.60001 5.89999 7.00001 6.49999L5.00001 9.19999C3.80001 8.59999 2.40001 9.09999 1.80001 10.3ZM14.7 18.7C14.6 19.2 14.2 19.5 13.8 19.4C13.3 19.3 13 18.9 13.1 18.5C13.2 18 13.6 17.7 14 17.8C14.4 17.9 14.7 18.3 14.7 18.7ZM17.5 12.2C17.9 11.9 18.4 12 18.7 12.3C18.8 12.5 18.9 12.7 18.9 12.9C18.9 13.1 18.8 13.3 18.6 13.5C18.2 13.8 17.7 13.7 17.4 13.4C17 13.1 17.1 12.5 17.5 12.2ZM14.2 5.29999C14.9 4.79999 15.9 4.89999 16.4 5.49999C16.9 6.19999 16.8 7.19999 16.2 7.69999C15.6 8.19999 14.8 8.19999 14.3 7.69999C14.2 7.59999 14.1 7.49999 14 7.39999C13.7 7.09999 13.6 6.69999 13.7 6.19999C13.7 5.89999 13.9 5.49999 14.2 5.29999ZM7.80001 6.99999C7.90001 6.99999 8.00001 6.99999 8.00001 7.09999C8.60001 7.19999 9.20001 6.89999 9.50001 6.29999L12.7 6.69999C12.8 8.09999 14 9.09999 15.4 8.99999C15.5 8.99999 15.6 8.99999 15.8 8.89999L16.9 11.4C16.1 12 16 13.2 16.6 14L14.5 16.9C13.6 16.5 12.5 17 12.2 17.9L8.30001 17.4C8.20001 17.1 8.00001 16.8 7.70001 16.6C7.50001 16.4 7.30001 16.4 7.00001 16.3C6.90001 16.3 6.80001 16.3 6.70001 16.3L5.40001 13.3C6.00001 12.9 6.30001 12.3 6.40001 11.6C6.50001 11 6.30001 10.3 5.90001 9.79999H5.80001L7.80001 6.99999ZM5.10001 10.5C5.60001 11.1 5.50001 12 4.90001 12.5C4.40001 12.9 3.70001 12.9 3.20001 12.5C3.00001 12.4 3.00001 12.4 2.90001 12.3C2.40001 11.7 2.50001 10.8 3.10001 10.3C3.70001 9.69999 4.60001 9.79999 5.10001 10.5Z" fill="#087464"/>
</svg>
