<svg width="24" height="24" viewBox="0 0 24 24" fill="none" xmlns="http://www.w3.org/2000/svg">
<path d="M2.80001 10.3C2.70001 10.5 2.60001 10.8 2.60001 11.1C2.40001 12.4 3.40001 13.6 4.70001 13.8C5.00001 13.8 5.20001 13.8 5.50001 13.8L6.80001 16.8C6.50001 17 6.40001 17.3 6.30001 17.7C6.20001 18.5 6.80001 19.2 7.60001 19.3C8.20001 19.4 8.80001 19.1 9.10001 18.5L13 19C13.2 20 14.1 20.7 15.1 20.5C16.1 20.3 16.8 19.4 16.6 18.4C16.6 18.1 16.4 17.8 16.2 17.6L18.3 14.7C19.2 15 20.2 14.6 20.6 13.7L20.8 13.2V12.7C20.8 12.4 20.6 12 20.4 11.8C20.3 11.7 20.2 11.6 20.1 11.5C19.7 11.2 19.2 11.1 18.7 11.2L17.6 8.69998C18.8 7.89998 19.1 6.29998 18.3 5.19998C18.3 5.09998 18.2 5.09998 18.2 4.99998L18.1 4.89998L17.8 4.59998L17.4 4.39998C16.1 3.79998 14.6 4.29998 14 5.59998C13.9 5.69998 13.9 5.79998 13.9 5.89998L10.8 5.49998C10.8 5.29998 10.7 4.99998 10.5 4.79998C10.4 4.69998 10.3 4.59998 10.2 4.49998C9.40001 3.99998 8.50001 4.09998 8.00001 4.69998C7.70001 5.19998 7.60001 5.89998 8.00001 6.49998L6.00001 9.19998C4.80001 8.59998 3.40001 9.09998 2.80001 10.3ZM15.7 18.7C15.6 19.2 15.2 19.5 14.8 19.4C14.3 19.3 14 18.9 14.1 18.5C14.2 18 14.6 17.7 15 17.8C15.4 17.9 15.7 18.3 15.7 18.7ZM18.5 12.2C18.9 11.9 19.4 12 19.7 12.3C19.8 12.5 19.9 12.7 19.9 12.9C19.9 13.1 19.8 13.3 19.6 13.5C19.2 13.8 18.7 13.7 18.4 13.4C18 13.1 18.1 12.5 18.5 12.2ZM15.2 5.29998C15.9 4.79998 16.9 4.89998 17.4 5.49998C17.9 6.19998 17.8 7.19998 17.2 7.69998C16.6 8.19998 15.8 8.19998 15.3 7.69998C15.2 7.59998 15.1 7.49998 15 7.39998C14.7 7.09998 14.6 6.69998 14.7 6.19998C14.7 5.89998 14.9 5.49998 15.2 5.29998ZM8.80001 6.99998C8.90001 6.99998 9.00001 6.99998 9.00001 7.09998C9.60001 7.19998 10.2 6.89998 10.5 6.29998L13.7 6.69998C13.8 8.09998 15 9.09998 16.4 8.99998C16.5 8.99998 16.6 8.99998 16.8 8.89998L17.9 11.4C17.1 12 17 13.2 17.6 14L15.5 16.9C14.6 16.5 13.5 17 13.2 17.9L9.30001 17.4C9.20001 17.1 9.00001 16.8 8.70001 16.6C8.50001 16.4 8.30001 16.4 8.00001 16.3C7.90001 16.3 7.80001 16.3 7.70001 16.3L6.40001 13.3C7.00001 12.9 7.30001 12.3 7.40001 11.6C7.50001 11 7.30001 10.3 6.90001 9.79998H6.80001L8.80001 6.99998ZM6.10001 10.5C6.60001 11.1 6.50001 12 5.90001 12.5C5.40001 12.9 4.70001 12.9 4.20001 12.5C4.00001 12.4 4.00001 12.4 3.90001 12.3C3.40001 11.7 3.50001 10.8 4.10001 10.3C4.70001 9.69998 5.60001 9.79998 6.10001 10.5Z" fill="#30C4AE"/>
</svg>
