<svg width="24" height="24" viewBox="0 0 24 24" fill="none" xmlns="http://www.w3.org/2000/svg">
<path d="M2.79977 10.3C2.69977 10.5 2.59977 10.8 2.59977 11.1C2.39977 12.4 3.39977 13.6 4.69977 13.8C4.99977 13.8 5.19977 13.8 5.49977 13.8L6.79977 16.8C6.49977 17 6.39977 17.3 6.29977 17.7C6.19977 18.5 6.79977 19.2 7.59977 19.3C8.19977 19.4 8.79977 19.1 9.09977 18.5L12.9998 19C13.1998 20 14.0998 20.7 15.0998 20.5C16.0998 20.3 16.7998 19.4 16.5998 18.4C16.5998 18.1 16.3998 17.8 16.1998 17.6L18.2998 14.7C19.1998 15 20.1998 14.6 20.5998 13.7L20.7998 13.2V12.7C20.7998 12.4 20.5998 12 20.3998 11.8C20.2998 11.7 20.1998 11.6 20.0998 11.5C19.6998 11.2 19.1998 11.1 18.6998 11.2L17.5998 8.70001C18.7998 7.90001 19.0998 6.30001 18.2998 5.20001C18.2998 5.10001 18.1998 5.10001 18.1998 5.00001L18.0998 4.90001L17.7998 4.60001L17.3998 4.40001C16.0998 3.80001 14.5998 4.30001 13.9998 5.60001C13.8998 5.70001 13.8998 5.80001 13.8998 5.90001L10.7998 5.50001C10.7998 5.30001 10.6998 5.00001 10.4998 4.80001C10.3998 4.70001 10.2998 4.60001 10.1998 4.50001C9.39977 4.00001 8.49977 4.10001 7.99977 4.70001C7.69977 5.20001 7.59977 5.90001 7.99977 6.50001L5.99977 9.20001C4.79977 8.60001 3.39977 9.10001 2.79977 10.3ZM15.6998 18.7C15.5998 19.2 15.1998 19.5 14.7998 19.4C14.2998 19.3 13.9998 18.9 14.0998 18.5C14.1998 18 14.5998 17.7 14.9998 17.8C15.3998 17.9 15.6998 18.3 15.6998 18.7ZM18.4998 12.2C18.8998 11.9 19.3998 12 19.6998 12.3C19.7998 12.5 19.8998 12.7 19.8998 12.9C19.8998 13.1 19.7998 13.3 19.5998 13.5C19.1998 13.8 18.6998 13.7 18.3998 13.4C17.9998 13.1 18.0998 12.5 18.4998 12.2ZM15.1998 5.30001C15.8998 4.80001 16.8998 4.90001 17.3998 5.50001C17.8998 6.20001 17.7998 7.20001 17.1998 7.70001C16.5998 8.20001 15.7998 8.20001 15.2998 7.70001C15.1998 7.60001 15.0998 7.50001 14.9998 7.40001C14.6998 7.10001 14.5998 6.70001 14.6998 6.20001C14.6998 5.90001 14.8998 5.50001 15.1998 5.30001ZM8.79977 7.00001C8.89977 7.00001 8.99977 7.00001 8.99977 7.10001C9.59977 7.20001 10.1998 6.90001 10.4998 6.30001L13.6998 6.70001C13.7998 8.10001 14.9998 9.10001 16.3998 9.00001C16.4998 9.00001 16.5998 9.00001 16.7998 8.90001L17.8998 11.4C17.0998 12 16.9998 13.2 17.5998 14L15.4998 16.9C14.5998 16.5 13.4998 17 13.1998 17.9L9.29977 17.4C9.19977 17.1 8.99977 16.8 8.69977 16.6C8.49977 16.4 8.29977 16.4 7.99977 16.3C7.89977 16.3 7.79977 16.3 7.69977 16.3L6.39977 13.3C6.99977 12.9 7.29977 12.3 7.39977 11.6C7.49977 11 7.29977 10.3 6.89977 9.80001H6.79977L8.79977 7.00001ZM6.09977 10.5C6.59977 11.1 6.49977 12 5.89977 12.5C5.39977 12.9 4.69977 12.9 4.19977 12.5C3.99977 12.4 3.99977 12.4 3.89977 12.3C3.39977 11.7 3.49977 10.8 4.09977 10.3C4.69977 9.70001 5.59977 9.80001 6.09977 10.5Z" fill="#8C9C9A"/>
</svg>
