<svg width="24" height="22" viewBox="0 0 24 22" fill="none" xmlns="http://www.w3.org/2000/svg">
<g clip-path="url(#clip0)">
<path d="M0.262108 8.39356C0.13096 8.65585 -0.000187278 9.0493 -0.000187278 9.44274C-0.262482 11.1477 1.04899 12.7214 2.75391 12.9837C3.14735 12.9837 3.40965 12.9837 3.80309 12.9837L4.19653 12.8526L5.90145 16.6559L5.50801 16.9181C5.11457 17.1804 4.98342 17.5739 4.85227 18.0985C4.72112 19.1477 5.50801 20.0657 6.55719 20.1968C7.34408 20.328 8.13096 19.9345 8.5244 19.1477L8.65555 18.8854L13.6392 19.41V19.8034C13.9015 21.1149 15.0818 22.0329 16.3933 21.7706C17.7047 21.5083 18.6228 20.328 18.3605 19.0165C18.3605 18.6231 18.0982 18.2296 17.8359 17.9673L17.5736 17.705L20.3277 14.0329L20.7211 14.1641C21.9015 14.5575 23.2129 14.0329 23.7375 12.8526C23.7375 12.8526 23.8687 12.5903 23.8687 12.1968C23.8687 11.8034 23.8687 11.5411 23.8687 11.5411C23.8687 11.1477 23.6064 10.6231 23.3441 10.3608C23.2129 10.2296 23.0818 10.0985 22.9506 9.96733C22.426 9.57389 21.7703 9.44274 21.1146 9.57389H20.8523L19.6719 6.2952L19.9342 6.16405C21.508 5.11487 21.9015 3.01651 20.8523 1.57389C20.8523 1.44274 20.7211 1.44274 20.7211 1.31159L20.59 1.18044L20.1965 0.787001L19.6719 0.524706C17.967 -0.262179 15.9998 0.393559 15.2129 2.09848C15.0818 2.22962 15.0818 2.36077 15.0818 2.49192L14.5572 2.62307L10.6228 2.09848V1.83618C10.4916 1.57389 10.3605 1.31159 10.2293 1.0493C10.0982 0.918149 9.96703 0.787001 9.83588 0.655854C9.04899 0.000116065 7.73752 0.262411 7.21293 1.0493C6.68834 1.70503 6.68834 2.62307 7.08178 3.2788L7.34408 3.5411L4.85227 6.95094L4.45883 6.81979C2.88506 6.16405 1.04899 6.81979 0.262108 8.39356ZM17.8359 19.5411C17.7047 20.4591 16.9178 21.246 15.8687 21.1149C14.9506 20.9837 14.1637 20.1968 14.2949 19.1477C14.426 18.2296 15.2129 17.4427 16.2621 17.5739C17.1801 17.705 17.967 18.4919 17.8359 19.5411ZM20.4588 10.3608C21.2457 9.70503 22.2949 9.83618 22.9506 10.6231C23.2129 11.0165 23.3441 11.41 23.3441 11.9345C23.3441 12.4591 23.0818 12.8526 22.6883 13.1149C21.9015 13.7706 20.8523 13.6395 20.1965 12.8526C19.5408 12.1968 19.6719 11.0165 20.4588 10.3608ZM16.2621 1.31159C17.4424 0.393559 19.1474 0.524706 20.0654 1.70503C20.9834 2.88536 20.8523 4.59028 19.6719 5.50831C18.7539 6.2952 17.3113 6.2952 16.3933 5.63946C16.2621 5.50831 15.9998 5.37717 15.8687 5.11487C15.4752 4.59028 15.2129 3.80339 15.3441 3.14766C15.3441 2.36077 15.7375 1.70503 16.2621 1.31159ZM8.13096 4.06569C8.26211 4.06569 8.39326 4.06569 8.39326 4.19684C9.18014 4.32798 9.96703 3.93454 10.3605 3.14766L10.6228 2.75421L14.5572 3.2788V3.67225C14.6883 5.50831 16.2621 6.95094 18.0982 6.68864C18.2293 6.68864 18.3605 6.68864 18.6228 6.55749H19.0162L20.3277 9.70503L20.0654 9.83618C19.0162 10.6231 18.8851 12.1968 19.6719 13.246L19.9342 13.5083L17.1801 17.1804L16.9178 17.0493C15.7375 16.5247 14.2949 17.1804 13.9015 18.3608L13.7703 18.6231L8.7867 18.0985V17.705C8.65555 17.3116 8.39326 16.9181 7.99981 16.6559C7.73752 16.3936 7.47522 16.3936 7.08178 16.2624C6.95063 16.2624 6.81949 16.2624 6.68834 16.2624L6.2949 16.3936L4.72112 12.5903L4.98342 12.328C5.7703 11.8034 6.16375 11.0165 6.2949 10.0985C6.42604 9.31159 6.16375 8.39356 5.63916 7.73782L5.50801 7.60667L5.37686 7.34438L7.86867 3.93454L8.13096 4.06569ZM5.11457 8.13126C6.0326 9.18044 5.7703 10.7542 4.72112 11.6722C3.80309 12.328 2.62276 12.4591 1.70473 11.8034C1.57358 11.6722 1.31129 11.41 1.18014 11.2788C0.262108 10.2296 0.524403 8.65585 1.57358 7.73782C2.75391 6.95094 4.32768 7.08208 5.11457 8.13126Z" fill="#8C9C9A"/>
<path d="M11.6719 5.11475V6.29507V7.4754C11.803 7.4754 11.9342 7.4754 12.1965 7.4754C12.4588 7.4754 12.7211 7.4754 12.9834 7.60655C13.2456 7.60655 13.3768 7.7377 13.5079 7.86884C13.6391 7.99999 13.7702 8.13114 13.9014 8.26229C14.0325 8.39343 14.0325 8.52458 14.1637 8.65573L15.2129 8.26229C15.0817 7.86884 14.8194 7.4754 14.426 7.08196C14.0325 6.68852 13.5079 6.55737 12.9834 6.42622V5.11475H11.6719Z" fill="#8C9C9A"/>
<path d="M12.8524 16.131V14.9507V13.7704C12.7212 13.7704 12.5901 13.7704 12.3278 13.7704C11.6721 13.7704 11.2786 13.6392 10.8852 13.3769C10.4917 13.2458 10.2294 12.9835 9.96715 12.7212L8.91797 13.1146C9.04912 13.5081 9.44256 14.0327 9.96715 14.295C10.4917 14.6884 11.0163 14.8196 11.6721 14.9507V16.131H12.8524Z" fill="#8C9C9A"/>
<path d="M13.6392 13.5082C13.6392 13.5082 13.508 13.5082 13.6392 13.5082L13.508 14.8197C13.6392 14.8197 13.7703 14.6886 13.9015 14.6886C14.1638 14.5574 14.4261 14.4263 14.6884 14.164C14.9507 13.9017 15.0818 13.6394 15.213 13.3771C15.3441 13.1148 15.3441 12.8525 15.3441 12.4591C15.3441 12.0656 15.213 11.8033 15.0818 11.541C14.9507 11.2787 14.6884 11.0164 14.4261 10.8853C14.1638 10.7541 13.7703 10.4918 13.508 10.3607C13.1146 10.2295 12.7212 10.0984 12.3277 9.96725C11.672 9.83611 11.1474 9.57381 10.8851 9.44266C10.4917 9.18037 10.3605 8.91807 10.3605 8.65578C10.3605 8.52463 10.3605 8.39348 10.4917 8.26234C10.4917 8.13119 10.6228 8.00004 10.7539 7.86889C10.7539 7.86889 10.8851 7.86889 10.8851 7.73774V6.42627C10.4917 6.55742 10.0982 6.81971 9.83591 7.08201C9.44247 7.47545 9.18018 8.00004 9.18018 8.65578C9.18018 9.04922 9.18018 9.31152 9.31132 9.57381C9.44247 9.83611 9.57362 10.0984 9.83591 10.2295C10.0982 10.3607 10.4917 10.623 10.7539 10.7541C11.1474 10.8853 11.5408 11.0164 11.9343 11.1476C12.3277 11.2787 12.59 11.4099 12.8523 11.4099C13.1146 11.541 13.3769 11.541 13.508 11.6722C13.6392 11.8033 13.7703 11.9345 13.9015 12.0656C14.0326 12.1968 14.0326 12.3279 14.0326 12.5902C14.0326 12.7214 14.0326 12.9836 13.9015 13.1148C13.9015 13.2459 13.7703 13.3771 13.6392 13.5082Z" fill="#8C9C9A"/>
</g>
<defs>
<clipPath id="clip0">
<rect width="24" height="21.6393" fill="white"/>
</clipPath>
</defs>
</svg>
