<svg width="24" height="24" viewBox="0 0 24 24" fill="none" xmlns="http://www.w3.org/2000/svg">
<path d="M0.284632 9.76349C0.158436 10.0159 0.0322393 10.3945 0.0322393 10.7731C-0.220154 12.4136 1.04181 13.928 2.68237 14.1804C3.06095 14.1804 3.31335 14.1804 3.69194 14.1804L5.33249 17.9663C4.9539 18.2187 4.82771 18.5972 4.70151 19.102C4.57531 20.1116 5.33249 20.995 6.34206 21.1212C7.09924 21.2474 7.85642 20.8688 8.23501 20.1116L13.1567 20.7426C13.4091 22.0046 14.5448 22.8879 15.8068 22.6355C17.0688 22.3831 17.9521 21.2474 17.6997 19.9854C17.6997 19.6068 17.4474 19.2282 17.195 18.9758L19.8451 15.3161C20.9809 15.6947 22.2428 15.1899 22.7476 14.0542L23 13.4232V12.7922C23 12.4136 22.7476 11.9088 22.4952 11.6564C22.369 11.5302 22.2428 11.404 22.1166 11.2778C21.6118 10.8993 20.9809 10.7731 20.3499 10.8993L18.9617 7.74435C20.4761 6.73478 20.8547 4.71563 19.8451 3.32747C19.8451 3.20127 19.7189 3.20127 19.7189 3.07508L19.5927 2.94888L19.2141 2.57029L18.7093 2.3179C17.0688 1.56072 15.1758 2.1917 14.4186 3.83226C14.2924 3.95845 14.2924 4.08465 14.2924 4.21085L10.3804 3.70606C10.3804 3.45367 10.2542 3.07508 10.0018 2.82268C9.87557 2.69649 9.74937 2.57029 9.62317 2.44409C8.6136 1.81311 7.47783 1.93931 6.84685 2.69649C6.46826 3.32747 6.34206 4.21085 6.84685 4.96802L4.32292 8.37533C2.80856 7.61815 1.04181 8.24913 0.284632 9.76349ZM16.564 20.364C16.4378 20.995 15.933 21.3736 15.4282 21.2474C14.7972 21.1212 14.4186 20.6164 14.5448 20.1116C14.671 19.4806 15.1758 19.102 15.6806 19.2282C16.1854 19.3544 16.564 19.8592 16.564 20.364ZM20.0975 12.1612C20.6023 11.7826 21.2332 11.9088 21.6118 12.2874C21.738 12.5398 21.8642 12.7922 21.8642 13.0446C21.8642 13.297 21.738 13.5494 21.4856 13.8018C20.9809 14.1804 20.3499 14.0542 19.9713 13.6756C19.4665 13.297 19.5927 12.5398 20.0975 12.1612ZM15.933 3.45367C16.8164 2.82268 18.0783 2.94888 18.7093 3.70606C19.3403 4.58943 19.2141 5.8514 18.4569 6.48238C17.6997 7.11336 16.6902 7.11336 16.0592 6.48238C15.933 6.35619 15.8068 6.22999 15.6806 6.10379C15.302 5.7252 15.1758 5.22042 15.302 4.58943C15.302 4.21085 15.5544 3.70606 15.933 3.45367ZM7.85642 5.59901C7.98262 5.59901 8.10882 5.59901 8.10882 5.7252C8.86599 5.8514 9.62317 5.47281 10.0018 4.71563L14.04 5.22042C14.1662 6.98717 15.6806 8.24913 17.4474 8.12294C17.5736 8.12294 17.6997 8.12294 17.9521 7.99674L19.3403 11.1517C18.3307 11.9088 18.2045 13.4232 18.9617 14.4328L16.3116 18.0925C15.1758 17.5877 13.7877 18.2187 13.4091 19.3544L8.4874 18.7234C8.36121 18.3449 8.10882 17.9663 7.73023 17.7139C7.47783 17.4615 7.22544 17.4615 6.84685 17.3353C6.72065 17.3353 6.59446 17.3353 6.46826 17.3353L4.82771 13.5494C5.58489 13.0446 5.96347 12.2874 6.08967 11.404C6.21587 10.6469 5.96347 9.76349 5.45869 9.13251H5.33249L7.85642 5.59901ZM4.44912 10.0159C5.0801 10.7731 4.9539 11.9088 4.19672 12.5398C3.56574 13.0446 2.68237 13.0446 2.05138 12.5398C1.79899 12.4136 1.79899 12.4136 1.67279 12.2874C1.04181 11.5302 1.16801 10.3945 1.92519 9.76349C2.68237 9.00631 3.81813 9.13251 4.44912 10.0159Z" fill="#495352"/>
</svg>
