<svg width="14" height="16" viewBox="0 0 14 16" fill="none" xmlns="http://www.w3.org/2000/svg">
<path d="M6.00006 0H8.00006V6.75127H6.00006V0Z" fill="#087464"/>
<path fill-rule="evenodd" clip-rule="evenodd" d="M9.49995 2.37219C12.1313 3.34284 14 5.80104 14 8.68018C14 12.4088 10.866 15.4315 7 15.4315C3.13401 15.4315 0 12.4088 0 8.68018C0 5.80108 1.86861 3.3429 4.49995 2.37223V4.56238C2.98787 5.39488 2 6.9552 2 8.68018C2 11.2367 4.16976 13.4315 7 13.4315C9.83024 13.4315 12 11.2367 12 8.68018C12 6.95516 11.0121 5.39481 9.49995 4.56232V2.37219Z" fill="#087464"/>
</svg>
