<svg width="31" height="24" viewBox="0 0 31 24" fill="none" xmlns="http://www.w3.org/2000/svg">
<path d="M8.95145 8.55071C8.95145 9.3785 8.28226 10.0494 7.46534 10.0494C6.64841 10.0494 5.97922 9.38721 5.97922 8.56814V7.2611C5.97922 6.92999 5.70981 6.66858 5.38825 6.66858C5.058 6.66858 4.79728 6.9387 4.79728 7.2611V8.55071C4.79728 8.55071 4.79728 8.55071 4.79728 8.55942C4.79728 8.56814 4.79728 8.56814 4.79728 8.57685V8.64656C4.84073 9.90131 5.73588 10.9469 6.92651 11.1909V14.8681C5.64897 15.1382 4.69299 16.3232 4.79728 17.7C4.89288 19.0157 5.96184 20.0788 7.27414 20.1659C8.83847 20.2792 10.1421 19.0331 10.1421 17.4908C10.1421 16.2361 9.27301 15.1817 8.10845 14.8855V11.1561C9.24694 10.8685 10.0986 9.84903 10.1334 8.62913V7.25239C10.1334 6.92127 9.86398 6.65987 9.54242 6.65987C9.21217 6.65987 8.95145 6.92999 8.95145 7.25239V8.55071ZM8.95145 17.4908C8.95145 18.3099 8.28226 18.9809 7.46534 18.9809C6.64841 18.9809 5.97922 18.3099 5.97922 17.4908C5.97922 16.6718 6.64841 16.0008 7.46534 16.0008C8.28226 16.0008 8.95145 16.663 8.95145 17.4908Z" fill="#067362"/>
<path d="M14.0095 13.3084H25.0119C25.3422 13.3084 25.6029 13.0383 25.6029 12.7159C25.6029 12.3848 25.3335 12.1234 25.0119 12.1234H14.0095C13.6792 12.1234 13.4185 12.3935 13.4185 12.7159C13.4098 13.047 13.6792 13.3084 14.0095 13.3084Z" fill="#067362"/>
<path d="M18.4417 10.102H25.0119C25.3422 10.102 25.6029 9.83185 25.6029 9.50944C25.6029 9.17833 25.3335 8.91692 25.0119 8.91692H18.4417C18.1115 8.91692 17.8507 9.18704 17.8507 9.50944C17.8421 9.83185 18.1115 10.102 18.4417 10.102Z" fill="#067362"/>
<path d="M16.3392 8.90818H14.0791C13.7488 8.90818 13.488 9.17831 13.488 9.50071C13.488 9.83183 13.7575 10.0932 14.0791 10.0932H16.3392C16.6695 10.0932 16.9303 9.82312 16.9303 9.50071C16.9303 9.17831 16.6695 8.90818 16.3392 8.90818Z" fill="#067362"/>
<path d="M20.8234 1.81524H19.3022C18.9719 1.81524 18.7111 2.08536 18.7111 2.40776C18.7111 2.73888 18.9806 3.00029 19.3022 3.00029H20.8234C21.1537 3.00029 21.4145 2.73017 21.4145 2.40776C21.4145 2.07665 21.145 1.81524 20.8234 1.81524Z" fill="#067362"/>
<path d="M14.0095 15.7919H25.0119C25.3422 15.7919 25.6029 15.5218 25.6029 15.1994C25.6029 14.8683 25.3335 14.6068 25.0119 14.6068H14.0095C13.6792 14.6068 13.4185 14.877 13.4185 15.1994C13.4098 15.5218 13.6792 15.7919 14.0095 15.7919Z" fill="#067362"/>
<path d="M14.0095 18.2925H25.0119C25.3422 18.2925 25.6029 18.0224 25.6029 17.7C25.6029 17.3689 25.3335 17.1075 25.0119 17.1075H14.0095C13.6792 17.1075 13.4185 17.3776 13.4185 17.7C13.4098 18.0224 13.6792 18.2925 14.0095 18.2925Z" fill="#067362"/>
<path d="M25.7941 1.87624H23.0652C22.7784 1.87624 22.5438 2.1115 22.5438 2.39905C22.5438 2.6866 22.7784 2.92186 23.0652 2.92186H25.7941C27.567 2.92186 29.0184 4.37703 29.0184 6.1546V19.7216C29.0184 21.4992 27.567 22.9544 25.7941 22.9544H4.26715C2.49424 22.9544 1.04289 21.4992 1.04289 19.7216V6.1546C1.04289 4.37703 2.49424 2.92186 4.26715 2.92186H6.90044L8.64728 1.17044C8.8124 1.00488 9.07312 1.00488 9.22956 1.17044L10.9764 2.92186H17.2163C17.5031 2.92186 17.7378 2.6866 17.7378 2.39905C17.7378 2.1115 17.5031 1.87624 17.2163 1.87624H11.4022L10.003 0.455923C9.74231 0.194515 9.40337 0.0289576 9.03836 0.00281688C8.61252 -0.0233239 8.21274 0.133521 7.91726 0.429782L6.4746 1.87624H4.26715C1.92065 1.87624 0.00869073 3.79322 0 6.1546V19.7216C0 22.0743 1.91196 23.9913 4.26715 24H25.7941C28.1406 24 30.0526 22.083 30.0612 19.7216V6.1546C30.0612 3.80193 28.1493 1.88495 25.7941 1.87624Z" fill="#067362"/>
</svg>
