<svg width="41" height="42" viewBox="0 0 41 42" fill="none" xmlns="http://www.w3.org/2000/svg">
<g opacity="0.5" clip-path="url(#clip0)">
<path d="M36.3931 17.6492C36.4441 17.3083 36.3861 16.9679 36.2341 16.6661C36.4145 16.57 36.5668 16.4303 36.6984 16.266C37.238 15.6143 37.2292 14.6799 36.7373 14.043C36.9516 13.8668 37.119 13.6547 37.2394 13.4067C37.4388 12.9718 37.4691 12.4959 37.3022 12.0457C37.1878 11.7284 37.0001 11.4744 36.7578 11.2757C36.9026 11.1171 37.0267 10.9337 37.0982 10.7279C37.4144 9.86987 36.9998 8.90327 36.1546 8.58778L24.2465 3.42911C24.1808 3.40089 24.0906 3.39373 24.0286 3.4302C24.0098 3.43791 23.991 3.44561 23.9853 3.45896C23.9477 3.47438 23.8538 3.51291 23.7974 3.53603C23.5775 3.61516 23.446 3.6691 23.4252 3.86523C23.4289 4.04029 23.7856 4.44577 23.8645 4.47963L35.7462 9.62702C36.0092 9.73989 36.1349 10.0304 36.0483 10.3087C36.005 10.4479 35.9091 10.5644 35.7719 10.6317C35.6347 10.699 35.4938 10.7016 35.3567 10.6585C35.3435 10.6529 35.3304 10.6473 35.3116 10.655L34.9039 10.5904C34.6372 10.5232 34.3685 10.6445 34.2612 10.8981C34.1427 11.1785 34.2646 11.5147 34.5407 11.6332C34.5538 11.6389 34.567 11.6445 34.567 11.6445L35.8988 12.0584C36.22 12.1805 36.4076 12.545 36.2984 12.8767C36.2382 13.0559 36.1179 13.1935 35.9562 13.2818C35.7815 13.3645 35.6086 13.3692 35.4377 13.2958C35.4246 13.2902 35.4246 13.2902 35.4114 13.2846L33.8242 12.7768C33.5424 12.6716 33.2305 12.8216 33.1251 13.1076C33.0686 13.2411 33.0779 13.4028 33.1304 13.5358C33.1961 13.6744 33.2919 13.7786 33.4421 13.8273L35.5666 14.5341C35.8821 14.6696 36.0435 15.0227 35.9211 15.3488C35.8063 15.6938 35.4323 15.8803 35.098 15.7526L32.6918 14.9406C32.4101 14.8354 32.1037 14.9721 31.9984 15.2581C31.893 15.544 32.0205 15.8669 32.3154 15.9777L34.8925 16.8631C35.1818 16.9873 35.3338 17.2891 35.249 17.5997C35.1586 17.9237 34.8166 18.1081 34.4973 18.0184L34.4841 18.0127L28.8524 16.7468L26.7243 15.9753C26.6322 15.9358 26.5251 15.9687 26.4518 16.0319C26.3785 16.095 26.3333 16.2018 26.3577 16.2911C26.4026 16.5155 26.4344 16.7342 26.4475 16.9606C26.4605 17.0766 26.5375 17.1885 26.654 17.207L27.3697 17.388L27.1627 17.8039L26.2288 18.0655L25.7894 17.7822L25.3199 17.423C25.1922 17.3209 25.0833 17.211 24.9932 17.0935C24.9031 16.9759 24.7193 16.5658 24.5654 16.2316C24.2427 15.5253 24.132 15.2727 23.9573 15.245C23.8334 15.0972 23.7076 14.9171 23.6025 14.7615C23.2928 14.2816 23.0583 13.7708 22.8914 13.2103C22.8839 13.1913 22.8764 13.1723 22.8689 13.1533C22.3079 12.0922 20.5281 10.0192 20.453 9.93961C20.4323 9.91497 20.3985 9.88469 20.3591 9.86776L17.0835 8.31981L17.2173 7.74631L18.5505 2.82961L18.701 2.43682C18.7293 2.37007 18.7312 2.29203 18.7012 2.21606L18.7126 1.9686C18.7107 1.93625 18.7089 1.90391 18.7014 1.88492L18.559 1.30328C18.5515 1.28429 18.544 1.26529 18.5365 1.2463C18.4858 1.14569 18.4295 1.05843 18.3732 0.971168C18.1085 0.605194 17.716 0.357853 17.2633 0.289706C16.927 0.240007 16.5963 0.287338 16.29 0.423993C16.1962 0.241765 16.0647 0.0749496 15.9033 -0.0574589C15.5521 -0.365906 15.107 -0.525441 14.641 -0.488851C14.3028 -0.460514 13.9758 -0.348495 13.7127 -0.130223C13.5531 -0.340668 13.3372 -0.527995 13.093 -0.648571C12.6704 -0.861505 12.2008 -0.889601 11.761 -0.731344C11.4528 -0.627032 11.1878 -0.441105 10.9716 -0.186909C10.8158 -0.332667 10.6355 -0.457367 10.4383 -0.542019C9.60431 -0.884207 8.63461 -0.464474 8.2978 0.368871L2.87575 12.3475C2.84753 12.4143 2.8456 12.4923 2.87561 12.5683C2.88312 12.5873 2.89062 12.6063 2.89812 12.6253C2.91313 12.6633 2.95064 12.7582 2.96001 12.8096C3.0369 13.0319 3.08377 13.1782 3.26412 13.1925C3.48206 13.1914 3.85805 12.8165 3.88627 12.7497L9.29703 0.797774C9.40992 0.530774 9.71059 0.407469 9.97919 0.506988C10.1163 0.550073 10.2252 0.659907 10.2777 0.792861C10.3434 0.931459 10.3452 1.07418 10.3019 1.21333L9.90478 2.33625C9.80504 2.60889 9.93073 2.89944 10.188 3.02565C10.3195 3.08209 10.4679 3.09847 10.6126 3.05017C10.7573 3.00187 10.8607 2.90429 10.9228 2.75744C10.9284 2.74409 10.9284 2.74409 10.9341 2.73074L11.6887 0.688735C11.8111 0.362691 12.1794 0.189567 12.5062 0.29831C12.6828 0.358325 12.818 0.479447 12.8855 0.650388C12.9531 0.821329 12.9511 1.00975 12.8833 1.16995C12.8777 1.1833 12.872 1.19665 12.8664 1.21L12.2582 3.45681C12.1584 3.72945 12.286 4.05234 12.5677 4.1575C12.8438 4.27602 13.1689 4.13165 13.2875 3.8513C13.2931 3.83795 13.2931 3.83795 13.2988 3.8246L14.1253 1.0248C14.2739 0.710042 14.631 0.563618 14.939 0.680067C15.2733 0.807804 15.4422 1.17997 15.3142 1.51936C15.3086 1.53271 15.3086 1.53271 15.3029 1.54606L14.578 4.10557C14.4783 4.37821 14.6115 4.68775 14.8744 4.80062C15.1505 4.91913 15.47 4.78812 15.5942 4.49442C15.5998 4.48107 15.5998 4.48107 15.6055 4.46772L16.4038 1.73466C16.5223 1.45431 16.8474 1.30995 17.1348 1.40176C17.3696 1.471 17.5367 1.70044 17.544 1.9402C17.5196 1.96125 17.5027 2.0013 17.4989 2.047L15.6987 8.65599L15.2845 10.0397C15.2581 10.1388 15.2825 10.2281 15.3444 10.302C15.4064 10.376 15.5041 10.4021 15.5999 10.3959C15.8216 10.3491 16.0452 10.3347 16.2556 10.3146C16.3834 10.3064 16.4811 10.2221 16.5131 10.1097L16.709 9.38933L17.1109 9.57763L17.3395 10.5433L17.0443 10.9844L16.6739 11.4563C16.5723 11.5862 16.4633 11.6971 16.3336 11.7834C16.2171 11.8754 15.8036 12.0449 15.4729 12.2026C14.7663 12.5145 14.5163 12.628 14.4749 12.7995C14.3151 12.9202 14.1553 13.0409 13.9824 13.1559C13.4938 13.4667 12.9807 13.6881 12.432 13.8469C12.4132 13.8546 12.3944 13.8623 12.3757 13.87C11.3176 14.4253 9.21978 16.1905 9.12767 16.2614C9.10324 16.2824 9.07315 16.3168 9.05622 16.3569L7.42528 19.6631L2.0453 18.4264L1.48552 18.2808L1.47238 18.2751C1.45923 18.2695 1.42729 18.2716 1.09853 18.2409C1.06659 18.2429 1.03465 18.245 1.00271 18.247L0.427715 18.3946C0.408923 18.4023 0.390132 18.41 0.371339 18.4177C0.271733 18.4696 0.190919 18.5137 0.0988164 18.5846C-0.263952 18.8548 -0.510318 19.2538 -0.580119 19.7128C-0.631058 20.0537 -0.586177 20.3884 -0.452978 20.6979C-0.633399 20.794 -0.798814 20.928 -0.930429 21.0924C-1.23689 21.4498 -1.39687 21.9016 -1.36334 22.3734C-1.33725 22.7158 -1.22849 23.0464 -1.01448 23.3118C-1.22312 23.4746 -1.40926 23.6944 -1.52965 23.9424C-1.89084 24.6864 -1.69224 25.5761 -1.09888 26.0831C-1.25679 26.2362 -1.36775 26.4251 -1.45242 26.6254C-1.79488 27.4721 -1.39907 28.4464 -0.565121 28.7886L11.2301 34.2143C11.2826 34.2368 11.3409 34.2461 11.3916 34.2363C11.4236 34.2342 11.4611 34.2188 11.4856 34.1978C11.6547 34.1284 11.7807 33.9774 11.8278 33.7926C11.8748 33.6077 11.8318 33.4157 11.721 33.2736C11.6872 33.2433 11.6534 33.213 11.614 33.1961L-0.154924 27.7817C-0.417879 27.6688 -0.537929 27.3649 -0.438185 27.0923C-0.394886 26.9531 -0.285851 26.8422 -0.154304 26.7883C-0.0171137 26.721 0.123797 26.7184 0.260919 26.7615C0.274067 26.7671 0.287214 26.7727 0.287214 26.7727L0.696721 26.8696C0.957817 26.9502 1.24535 26.8212 1.35259 26.5676C1.40904 26.4341 1.42604 26.2836 1.37917 26.1373C1.33229 25.991 1.23654 25.8868 1.09191 25.8248C1.07876 25.8191 1.07876 25.8191 1.06561 25.8135L-0.262376 25.3539C-0.530975 25.2544 -0.699899 24.9926 -0.677183 24.7184C-0.658252 24.4899 -0.541644 24.2876 -0.355579 24.1782C-0.169514 24.0688 0.0409198 24.0487 0.238136 24.1334L0.251282 24.139L1.81593 24.7002C2.09204 24.8187 2.41715 24.6744 2.53569 24.394C2.65422 24.1137 2.52667 23.7908 2.23742 23.6666C2.23742 23.6666 2.23742 23.6666 2.22427 23.661L0.114919 22.8818C-0.200626 22.7463 -0.343186 22.3854 -0.220864 22.0594C-0.166277 21.8935 -0.032804 21.7616 0.12318 21.6866C0.279163 21.6116 0.452012 21.6069 0.615429 21.6613L3.00089 22.559C3.28263 22.6642 3.58896 22.5275 3.70749 22.2471C3.82603 21.9668 3.69847 21.6439 3.40922 21.5198L0.852848 20.5486C0.563598 20.4245 0.417252 20.1093 0.515137 19.8043C0.56408 19.6518 0.665613 19.5219 0.808449 19.4413C0.951284 19.3606 1.11099 19.3503 1.26125 19.399L1.2744 19.4047L6.88161 20.802L9.00597 21.6192C9.098 21.6587 9.19946 21.6392 9.27278 21.576C9.34609 21.5128 9.39124 21.406 9.36687 21.3167C9.32192 21.0924 9.30892 20.866 9.29026 20.6529C9.28283 20.5236 9.20022 20.425 9.0894 20.3932L8.35305 20.1876L8.54869 19.7983L9.52204 19.5537L9.95584 19.8503L10.4197 20.2229C10.5474 20.325 10.6563 20.4348 10.7407 20.5657C10.8308 20.6833 10.9959 21.1011 11.1497 21.4353C11.4536 22.1493 11.5643 22.4019 11.7334 22.4429C11.8517 22.6041 11.9699 22.7653 12.0825 22.9398C12.3866 23.4331 12.6023 23.9515 12.756 24.5065C12.7635 24.5255 12.771 24.5445 12.7785 24.5635C13.3058 25.5942 13.8838 26.6152 14.5164 27.5807C14.5182 27.613 14.5201 27.6454 14.5408 27.67C14.5839 27.7516 14.6572 27.7989 14.7417 27.8194L15.2414 27.9234L18.4568 29.5402L17.0538 34.9159C17.0368 34.9559 17.0405 35.0206 17.0555 35.0586L17.063 35.0776L17.0197 35.2167C16.9859 35.2968 16.9652 35.3826 16.9576 35.474C16.9519 35.4873 16.9519 35.4873 16.9594 35.5063L16.9519 35.5977L16.9293 35.6511C16.9067 35.7045 16.9104 35.7692 16.9329 35.8262C16.9273 35.8395 16.9348 35.8585 16.9423 35.8775L17.0847 36.4591C17.0922 36.4781 17.0997 36.4971 17.1072 36.5161C17.1579 36.6167 17.2011 36.6984 17.2705 36.7913C17.4582 37.0453 17.693 37.225 17.9691 37.3435C18.1005 37.3999 18.2377 37.443 18.3861 37.4594C18.7223 37.5091 19.053 37.4617 19.3594 37.3251C19.4532 37.5073 19.5846 37.6741 19.7461 37.8065C20.3808 38.3629 21.2919 38.3754 21.9367 37.8793C22.0962 38.0897 22.3122 38.2771 22.5563 38.3976C22.9658 38.6049 23.4486 38.6387 23.8883 38.4804C24.1965 38.3761 24.4615 38.1902 24.6777 37.936C24.8336 38.0817 25.0139 38.2064 25.2111 38.2911C26.045 38.6333 27.0147 38.2136 27.3515 37.3802L32.7792 25.3882C32.8075 25.3214 32.815 25.23 32.7794 25.1674C32.7719 25.1484 32.7587 25.1428 32.7512 25.1238C32.7362 25.0858 32.6987 24.9908 32.6893 24.9395C32.6124 24.7172 32.5656 24.5709 32.3852 24.5566C32.1673 24.5577 31.7913 24.9326 31.7631 24.9993L26.3523 36.9513C26.2394 37.2183 25.9387 37.3416 25.6701 37.2421C25.3884 37.1369 25.242 36.8217 25.3474 36.5358C25.3531 36.5224 25.3587 36.5091 25.3587 36.5091L25.4567 36.0937C25.5376 35.8287 25.4119 35.5382 25.1621 35.431C24.8917 35.2991 24.5591 35.4245 24.4274 35.6992C24.4217 35.7125 24.4217 35.7125 24.4161 35.7259L23.9549 37.0737C23.8326 37.3997 23.4643 37.5729 23.1374 37.4641C22.9609 37.4041 22.8257 37.283 22.7582 37.112C22.6906 36.9411 22.6926 36.7527 22.7604 36.5925L22.766 36.5791L23.3287 34.991C23.4473 34.7107 23.3066 34.3821 23.0305 34.2636C22.899 34.2072 22.7449 34.2042 22.6077 34.2715C22.4706 34.3388 22.3672 34.4363 22.3051 34.5832L21.5241 36.7243C21.3886 37.0447 21.0315 37.1911 20.7103 37.069C20.376 36.9413 20.2071 36.5691 20.3351 36.2297L21.2347 33.8083C21.3401 33.5223 21.22 33.2184 20.9439 33.0999C20.6678 32.9813 20.3483 33.1124 20.2242 33.4061L19.2512 36.0011C19.127 36.2948 18.8151 36.4448 18.5145 36.3473C18.3643 36.2986 18.2366 36.1965 18.1578 36.0522C18.0789 35.908 18.0696 35.7463 18.1186 35.5938L18.1242 35.5804L18.9925 32.0572L19.8191 29.2574C19.836 29.2174 19.8323 29.1527 19.8173 29.1147L20.3348 27.7438C20.3743 27.6503 20.3556 27.5476 20.2936 27.4737C20.2317 27.3998 20.1265 27.3547 20.0382 27.3799C19.8164 27.4266 19.5929 27.4411 19.3824 27.4612C19.2547 27.4694 19.1569 27.5536 19.1249 27.6661L18.8933 28.5446L18.728 28.4579L18.5409 27.2104L19.3289 25.9713C19.4717 25.8907 19.8588 25.7098 20.1652 25.5732C20.8718 25.2613 21.1217 25.1478 21.1632 24.9763C21.3229 24.8556 21.4827 24.7349 21.6556 24.6199C22.1443 24.3091 22.6573 24.0877 23.206 23.9289C23.2248 23.9212 23.2436 23.9135 23.2624 23.9058C24.2829 23.3659 25.294 22.7747 26.2507 22.1285C26.2827 22.1265 26.3146 22.1244 26.339 22.1033C26.4198 22.0592 26.4669 21.9847 26.4876 21.899L26.5931 21.3922L28.2071 18.126L33.5062 19.5173C33.617 19.5491 33.7298 19.5028 33.7956 19.4207C33.8313 19.3729 33.8539 19.3195 33.8577 19.2738L34.3067 19.2773C34.3255 19.2696 34.3518 19.2809 34.3706 19.2731C34.3837 19.2788 34.3837 19.2788 34.4025 19.2711L34.6787 19.2792C34.7106 19.2772 34.7426 19.2751 34.7614 19.2674L35.342 19.1065C35.3608 19.0988 35.3796 19.0911 35.3984 19.0834C35.498 19.0315 35.5845 18.974 35.6578 18.9108C36.1089 18.5051 36.3421 18.1005 36.3931 17.6492ZM20.0249 24.472C19.5026 24.5317 19.0084 24.7454 18.5986 25.09C18.5929 25.1034 18.5742 25.1111 18.5685 25.1244L17.2318 26.6327C17.1773 26.6881 17.1565 26.7739 17.1678 26.8576L17.2387 27.5347L15.3906 26.6152C14.8688 25.7919 14.3771 24.9342 13.9362 24.0667C13.6287 22.9568 13.0507 21.9358 12.2471 21.1177C12.2023 20.6726 12.0504 20.2604 11.8045 19.8867C11.8045 19.8867 11.8045 19.8867 11.8102 19.8733C11.8365 19.7743 11.7915 19.6603 11.7239 19.5997L10.1353 18.2869C10.0752 18.2454 10.0095 18.2171 9.92679 18.229L9.41761 18.2943L10.3713 16.3693C11.1871 15.8362 12.0366 15.3333 12.8954 14.8818C13.9928 14.5642 15.004 13.9729 15.8161 13.1543C16.2558 13.1065 16.6635 12.9503 17.0338 12.6991L17.047 12.7048C17.1446 12.7309 17.2574 12.6847 17.3176 12.6159L18.0715 11.6777L18.6487 11.0106C18.7032 10.9551 18.7183 10.8827 18.7202 10.8047L18.6774 10.2815L20.3846 11.0932C20.9252 11.9089 21.4357 12.7589 21.8955 13.6187C22.2217 14.7209 22.8373 15.7264 23.6465 16.5312C23.7101 16.9686 23.862 17.3808 24.1136 17.7411C24.1136 17.7411 24.1136 17.7411 24.1079 17.7545C24.0947 17.8592 24.1322 17.9542 24.213 18.0204L25.8316 19.2988C25.8917 19.3404 25.9575 19.3686 26.0402 19.3567L26.4723 19.2899L25.4847 21.295C24.669 21.8281 23.8195 22.331 22.9606 22.7825C21.8482 23.0622 20.8371 23.6534 20.0249 24.472Z" fill="#8C9C9A"/>
<path d="M14.0856 33.7446C13.8545 33.8504 13.6853 34.0301 13.5968 34.2761C13.514 34.5087 13.5158 34.7618 13.619 34.9953C13.7146 35.2099 13.878 35.3747 14.1015 35.4706C14.1147 35.4763 14.1278 35.4819 14.141 35.4875C14.3701 35.5701 14.62 35.567 14.8511 35.4612C15.0823 35.3554 15.2515 35.1756 15.3399 34.9297C15.4227 34.6971 15.421 34.444 15.3178 34.2104C15.1039 33.7243 14.5536 33.5196 14.0856 33.7446Z" fill="#8C9C9A"/>
<path d="M20.6654 3.71512C20.902 3.81671 21.165 3.8192 21.415 3.70567C21.8773 3.49402 22.0824 2.93537 21.8817 2.45487C21.6753 1.98773 21.1249 1.78303 20.6495 1.98904C20.1872 2.2007 19.9821 2.75934 20.1828 3.23984C20.2917 3.46006 20.4682 3.63046 20.6654 3.71512Z" fill="#8C9C9A"/>
<path d="M1.76343 16.398C1.77658 16.4037 1.78973 16.4093 1.80288 16.4149C2.03203 16.4975 2.28191 16.4944 2.51305 16.3886C2.97535 16.1769 3.18046 15.6183 2.97973 15.1378C2.77335 14.6706 2.22301 14.4659 1.74756 14.672C1.51642 14.7778 1.34722 14.9575 1.25878 15.2035C1.17597 15.4361 1.1777 15.6892 1.28089 15.9227C1.37658 16.1373 1.55307 16.3077 1.76343 16.398Z" fill="#8C9C9A"/>
<path d="M32.9886 21.0608C32.5263 21.2724 32.3211 21.8311 32.5219 22.3116C32.6176 22.5262 32.7809 22.6909 33.0044 22.7869C33.0176 22.7925 33.0307 22.7982 33.0439 22.8038C33.273 22.8864 33.5229 22.8832 33.754 22.7774C34.2163 22.5658 34.4214 22.0071 34.2207 21.5266C34.0068 21.0405 33.4565 20.8358 32.9886 21.0608Z" fill="#8C9C9A"/>
<path d="M21.4748 17.1589C21.2085 16.54 20.7786 15.977 20.2171 15.5784C20.003 15.4235 19.7645 15.2896 19.5015 15.1768C17.5686 14.3475 15.3451 15.2704 14.5207 17.2194C14.3174 17.6999 14.2118 18.2066 14.2076 18.6938C14.1959 19.3827 14.3757 20.0592 14.7041 20.6417C15.1038 21.3494 15.7141 21.9266 16.503 22.2651C18.4359 23.0943 20.6725 22.1771 21.5026 20.2148C21.9318 19.2003 21.9007 18.0987 21.4748 17.1589ZM16.9096 21.304C15.5027 20.7004 14.8444 19.0616 15.4542 17.6199C15.5728 17.3396 15.7308 17.0762 15.9358 16.8487C16.0261 16.7454 16.1107 16.6556 16.2085 16.5713C16.624 16.2134 17.1559 15.9842 17.6971 15.9167C18.1556 15.8611 18.6272 15.9215 19.0874 16.1189C19.8632 16.4517 20.4208 17.1168 20.6438 17.8749C20.8256 18.4733 20.8138 19.1622 20.5428 19.803C19.9592 21.256 18.3165 21.9076 16.9096 21.304Z" fill="#8C9C9A"/>
</g>
<defs>
<clipPath id="clip0">
<rect width="41" height="42" fill="white"/>
</clipPath>
</defs>
</svg>
