<svg width="100" height="100" viewBox="0 0 100 100" fill="none" xmlns="http://www.w3.org/2000/svg">
<g clip-path="url(#clip0)">
<path d="M74.375 89.9375L76.0625 92.3125C77.125 91.6875 78.125 91 79.125 90.3125L77.25 88.0625C76.3125 88.6875 75.3125 89.3125 74.375 89.9375Z" fill="#067362"/>
<path d="M81.9377 88.125C82.8752 87.375 83.8127 86.5625 84.6877 85.75L82.5002 83.75C81.6877 84.5 80.8127 85.25 79.9377 86L81.9377 88.125Z" fill="#067362"/>
<path d="M91.6875 77.625C92.375 76.6875 93 75.625 93.625 74.625L90.9375 73.25C90.375 74.1875 89.75 75.125 89.125 76.0625L91.6875 77.625Z" fill="#067362"/>
<path d="M61.625 95.4375L62.5 98.125C63.6875 97.8125 64.875 97.4375 66 97L65 94.375C63.875 94.75 62.75 95.125 61.625 95.4375Z" fill="#067362"/>
<path d="M96.5002 44.8125L99.5002 44.4375C99.3127 43.3125 99.1252 42.125 98.8752 41L95.8752 41.5625C96.1252 42.625 96.3127 43.75 96.5002 44.8125Z" fill="#067362"/>
<path d="M97.875 65.0625C98.25 63.9375 98.5 62.8125 98.8125 61.6875L95.8125 61.0625C95.5625 62.125 95.25 63.1875 94.9375 64.25L97.875 65.0625Z" fill="#067362"/>
<path d="M96.9375 50.1875C96.9375 50.5625 96.9375 50.9375 96.9375 51.375H100C100 51 100 50.5625 100 50.1875C100 49.4375 99.9375 48.625 99.875 47.875L96.8125 48.0625C96.875 48.75 96.9375 49.4375 96.9375 50.1875Z" fill="#067362"/>
<path d="M95.25 71.5C95.75 70.4375 96.25 69.375 96.6875 68.3125L93.8125 67.3125C93.4375 68.3125 92.9375 69.3125 92.4375 70.3125L95.25 71.5Z" fill="#067362"/>
<path d="M87.1873 83.1875C87.9998 82.3125 88.8123 81.375 89.4998 80.5L87.0623 78.8125C86.3748 79.6875 85.6248 80.5625 84.8748 81.375L87.1873 83.1875Z" fill="#067362"/>
<path d="M99.4375 58.25C99.625 57.125 99.75 55.9375 99.8125 54.8125L96.75 54.625C96.6875 55.6875 96.5625 56.8125 96.375 57.875L99.4375 58.25Z" fill="#067362"/>
<path d="M69.5 95.6875C70.625 95.1875 71.75 94.6875 72.8125 94.125L71.3125 91.625C70.3125 92.125 69.25 92.625 68.1875 93.125L69.5 95.6875Z" fill="#067362"/>
<path d="M22.5 12.25L20.625 10C19.625 10.6875 18.6875 11.4375 17.75 12.25L19.75 14.375C20.625 13.625 21.5625 12.9375 22.5 12.25Z" fill="#067362"/>
<path d="M15.0625 14.625C14.1875 15.4375 13.375 16.3125 12.5625 17.1875L14.875 19C15.625 18.1875 16.4375 17.375 17.25 16.5625L15.0625 14.625Z" fill="#067362"/>
<path d="M6.25 25.875C5.6875 26.875 5.125 27.9375 4.625 29L7.4375 30.125C7.9375 29.125 8.4375 28.125 9 27.1875L6.25 25.875Z" fill="#067362"/>
<path d="M34.6875 5.75L33.5625 3.125C32.4375 3.5625 31.25 4 30.125 4.5L31.4375 7.0625C32.5 6.625 33.625 6.1875 34.6875 5.75Z" fill="#067362"/>
<path d="M1.125 38.875C0.875 40 0.6875 41.1875 0.5 42.3125L3.5 42.6875C3.625 41.625 3.875 40.5 4.125 39.4375L1.125 38.875Z" fill="#067362"/>
<path d="M3.31274 53.625C3.25024 53.25 3.25024 52.875 3.18774 52.5L0.187744 52.75C0.187744 53.125 0.250244 53.5625 0.312744 53.9375C0.375244 54.6875 0.500244 55.4375 0.625244 56.1875L3.62524 55.75C3.43774 55 3.37524 54.3125 3.31274 53.625Z" fill="#067362"/>
<path d="M3.1875 32.1875C2.75 33.25 2.375 34.375 2.0625 35.5L4.9375 36.25C5.25 35.1875 5.625 34.1875 6 33.125L3.1875 32.1875Z" fill="#067362"/>
<path d="M10.25 19.9375C9.5 20.875 8.8125 21.8125 8.125 22.8125L10.6875 24.3125C11.3125 23.375 12 22.5 12.6875 21.625L10.25 19.9375Z" fill="#067362"/>
<path d="M0.125 45.75C0.0625 46.875 0 48.0625 0 49.25H3.0625C3.0625 48.1875 3.0625 47.0625 3.1875 46L0.125 45.75Z" fill="#067362"/>
<path d="M41.375 3.8125L40.6875 1.0625C39.5 1.3125 38.25 1.625 37.125 2L38 4.6875C39.125 4.375 40.25 4.0625 41.375 3.8125Z" fill="#067362"/>
<path d="M26.875 6.125C25.8125 6.6875 24.75 7.3125 23.6875 7.9375L25.375 10.3125C26.375 9.6875 27.375 9.125 28.375 8.5625L26.875 6.125Z" fill="#067362"/>
<path d="M54.9376 96.625C33.2501 98.75 12.4376 85.25 5.43762 64.5625C5.18762 63.75 4.25012 63.25 3.43762 63.5625C2.62512 63.8125 2.18762 64.75 2.43762 65.5625C9.87512 87.6875 32.1251 102.063 55.3126 99.8125H55.3751C56.2501 99.6875 56.8126 98.9375 56.7501 98.0625C56.6251 97.1875 55.8126 96.5 54.9376 96.625Z" fill="#067362"/>
<path d="M46.5002 3.25002C67.8751 1.87502 87.5626 15.125 94.3751 35.4375C94.6251 36.1875 95.3751 36.625 96.1251 36.5C96.2501 36.5 96.3126 36.4375 96.4376 36.4375C97.2501 36.1875 97.6876 35.25 97.4376 34.4375C90.1251 12.75 69.1251 -1.37498 46.3126 0.062516C45.4377 0.125016 44.8127 0.875016 44.8752 1.75002C44.8752 2.62502 45.6252 3.31252 46.5002 3.25002Z" fill="#067362"/>
</g>
<path d="M76.8125 28.5206C76.0984 31.4604 75.3446 34.4002 74.6702 37.3763C72.0916 48.5911 69.5526 59.7697 66.9739 70.9845C66.4185 73.4162 64.435 74.0695 62.253 72.6177C58.1669 69.8957 54.041 67.2099 49.9945 64.4516C48.9631 63.762 48.2886 63.7983 47.3365 64.5605C45.353 66.1574 43.2504 67.6817 41.1478 69.2061C38.8865 70.8756 36.9823 70.3675 36.1095 67.8269C34.6416 63.5079 33.1738 59.189 31.7456 54.8337C31.5076 54.0715 31.0712 53.636 30.2381 53.3456C26.4693 52.1116 22.7005 50.7688 18.9317 49.4985C17.6622 49.0629 16.9085 48.3008 16.8688 47.1031C16.8291 45.7965 17.6622 45.0343 18.9317 44.5625C36.8236 38.2474 54.7154 31.9322 72.6073 25.6171C74.5909 24.9275 75.662 25.3267 76.7728 27.214C76.8125 27.7221 76.8125 28.1214 76.8125 28.5206ZM64.554 71.4563C67.9261 56.6847 71.2188 42.1671 74.5909 27.2866C55.8262 33.9284 37.498 40.3887 19.1301 46.849C19.1301 46.9942 19.1697 47.1031 19.1697 47.2483C19.6061 47.4297 20.0028 47.6112 20.4392 47.7564C24.2874 49.063 28.1355 50.4058 31.9836 51.6761C32.8564 51.9665 33.3325 52.402 33.6102 53.2367C34.9987 57.4468 36.4269 61.6569 37.855 65.867C38.0931 66.5929 38.3708 67.2825 38.7278 68.1536C41.2668 66.2663 43.6074 64.5242 45.9877 62.7821C47.9713 61.3303 49.1614 61.294 51.2243 62.6732C54.279 64.7056 57.3338 66.7381 60.3488 68.7705C61.7373 69.6053 63.0068 70.4401 64.554 71.4563Z" fill="#067362"/>
<path d="M64.5939 36.2875C64.1178 36.8682 63.8004 37.3763 63.364 37.7755C58.0084 42.3486 52.7321 47.1031 47.1781 51.4947C44.044 53.9627 41.8621 56.5758 41.9414 60.4956C41.9414 61.5118 41.5447 62.3466 40.2355 62.4191C38.9264 62.4917 38.49 61.6933 38.1726 60.7133C37.3792 58.1365 36.5857 55.5959 35.7923 53.019C35.1972 51.0591 35.7526 49.7888 37.6965 48.7C45.6309 44.1996 53.5652 39.7354 61.5392 35.2713C62.0946 34.9809 62.9277 34.9446 63.6021 35.0535C63.9988 35.1624 64.2368 35.7794 64.5939 36.2875ZM39.7991 57.8824C40.2752 56.0314 40.5132 54.2167 42.2191 52.8375C45.0358 50.551 47.7731 48.1556 50.5105 45.8328C52.256 44.3448 53.9619 42.8567 55.7471 41.3324C55.5487 41.2961 55.4297 41.2235 55.3901 41.2598C49.7964 44.381 44.2424 47.5386 38.6883 50.6962C38.2916 50.914 37.8552 51.6035 37.9743 51.9665C38.49 53.9627 39.1644 55.9225 39.7991 57.8824Z" fill="#067362"/>
<path d="M61.46 66.7743C61.8963 64.9596 62.2931 63.399 62.6501 61.8747C63.2055 59.6244 63.7212 57.3742 64.237 55.124C64.3957 54.3618 64.7924 53.89 65.6652 54.0715C66.4983 54.253 66.6966 54.7974 66.4983 55.5595C65.6255 59.1889 64.8321 62.8183 63.8799 66.4477C63.7609 66.9195 63.0865 67.4276 62.5311 67.6454C62.3724 67.718 61.7773 67.0647 61.46 66.7743Z" fill="#067362"/>
<path d="M67.966 49.8614C67.6883 50.9502 67.5297 51.785 66.4982 51.785C66.1015 51.785 65.4667 51.0954 65.3874 50.6599C65.308 49.934 65.4667 48.9904 66.6172 49.0267C67.0536 49.0629 67.5297 49.5711 67.966 49.8614Z" fill="#067362"/>
<defs>
<clipPath id="clip0">
<rect width="100" height="100" fill="white"/>
</clipPath>
</defs>
</svg>
