<svg width="15" height="14" viewBox="0 0 15 14" fill="none" xmlns="http://www.w3.org/2000/svg">
<path d="M15 0.883803C14.8213 1.69086 14.6327 2.49791 14.4639 3.31493C13.8187 6.39368 13.1834 9.46248 12.5381 12.5412C12.3991 13.2088 11.9028 13.3881 11.3568 12.9896C10.3343 12.2423 9.30192 11.505 8.28936 10.7478C8.03126 10.5585 7.8625 10.5684 7.62426 10.7777C7.12791 11.2161 6.60178 11.6345 6.07565 12.053C5.50981 12.5113 5.03332 12.3719 4.81492 11.6744C4.44762 10.4887 4.08033 9.30306 3.72296 8.10743C3.66339 7.89819 3.5542 7.77863 3.34573 7.69892C2.40267 7.36016 1.4596 6.9915 0.516542 6.64277C0.198879 6.52321 0.0102667 6.31398 0.000339713 5.98518C-0.00958726 5.62649 0.198879 5.41725 0.516542 5.28772C4.99361 3.55405 9.47068 1.82038 13.9477 0.0867134C14.4441 -0.102595 14.7121 0.00700443 14.9901 0.525113C15 0.664603 15 0.774203 15 0.883803ZM11.9326 12.6708C12.7764 8.61557 13.6003 4.63012 14.4441 0.54504C9.74863 2.36838 5.16237 4.14191 0.566177 5.91543C0.566177 5.95529 0.576104 5.98518 0.576104 6.02503C0.685301 6.07485 0.784571 6.12467 0.893767 6.16452C1.85668 6.52321 2.8196 6.89187 3.78252 7.24059C4.00091 7.3203 4.12004 7.43986 4.18952 7.66903C4.53697 8.82481 4.89434 9.98059 5.25171 11.1364C5.31127 11.3356 5.38076 11.5249 5.4701 11.7641C6.10543 11.246 6.69112 10.7677 7.28674 10.2895C7.78309 9.89091 8.0809 9.88095 8.5971 10.2596C9.36148 10.8175 10.1259 11.3755 10.8803 11.9335C11.2277 12.1626 11.5454 12.3918 11.9326 12.6708Z" fill="#8C9C9A"/>
<path d="M11.9425 3.01601C11.8233 3.17542 11.7439 3.31491 11.6347 3.42451C10.2946 4.67993 8.9743 5.98516 7.58453 7.19076C6.8003 7.86829 6.25431 8.58567 6.27417 9.66174C6.27417 9.94072 6.1749 10.1699 5.84731 10.1898C5.51972 10.2097 5.41052 9.99054 5.3311 9.72152C5.13256 9.0141 4.93402 8.31665 4.73548 7.60923C4.58658 7.0712 4.72556 6.72247 5.21198 6.42356C7.19737 5.18807 9.18277 3.96255 11.1781 2.73702C11.3171 2.65731 11.5255 2.64735 11.6943 2.67724C11.7936 2.70713 11.8531 2.87651 11.9425 3.01601ZM5.73811 8.94436C5.85723 8.43621 5.91679 7.93803 6.34365 7.55942C7.04847 6.93171 7.73343 6.27411 8.41839 5.63644C8.85518 5.22793 9.28204 4.81942 9.72875 4.40095C9.67912 4.39098 9.64934 4.37106 9.63941 4.38102C8.23971 5.23789 6.84993 6.10473 5.46015 6.97156C5.36088 7.03134 5.25169 7.22065 5.28147 7.32029C5.41052 7.86829 5.57928 8.40632 5.73811 8.94436Z" fill="#8C9C9A"/>
<path d="M11.1582 11.3854C11.2674 10.8873 11.3667 10.4588 11.456 10.0404C11.595 9.42261 11.724 8.80486 11.8531 8.18712C11.8928 7.97788 11.9921 7.84836 12.2105 7.89817C12.4189 7.94799 12.4686 8.09745 12.4189 8.30668C12.2005 9.30304 12.002 10.2994 11.7637 11.2958C11.734 11.4253 11.5652 11.5648 11.4262 11.6246C11.3865 11.6445 11.2376 11.4652 11.1582 11.3854Z" fill="#8C9C9A"/>
<path d="M12.7863 6.74238C12.7168 7.04129 12.6771 7.27045 12.419 7.27045C12.3197 7.27045 12.1609 7.08114 12.141 6.96158C12.1212 6.76231 12.1609 6.50325 12.4488 6.51322C12.558 6.52318 12.6771 6.66267 12.7863 6.74238Z" fill="#8C9C9A"/>
</svg>
