<svg width="26" height="22" viewBox="0 0 26 22" fill="none" xmlns="http://www.w3.org/2000/svg">
<path d="M18.9042 0L18.9001 2.32521L18.8959 4.67029C19.1712 4.63055 19.4649 4.61067 19.7952 4.61067C20.3274 4.61067 20.8045 4.67029 21.1713 4.78953C21.5381 4.90877 21.8865 5.08764 22.143 5.28637C22.4179 5.50498 22.6377 5.74347 22.8024 6.00182C22.9671 6.26018 23.1134 6.53841 23.223 6.83651L25.2797 6.08132C24.9693 5.18701 24.4569 4.41194 23.7607 3.73623C23.0646 3.06053 22.1478 2.62331 21.0654 2.4047L21.0697 0.0198737H18.9042L18.9042 0Z" fill="#30C4AE"/>
<path d="M21.0304 22L21.0388 17.2899C20.7451 17.3496 20.4514 17.3694 20.1395 17.3694C19.02 17.3694 18.0845 17.1508 17.3879 16.6937C16.673 16.2366 16.1785 15.7001 15.886 15.084L13.866 15.8392C14.2314 16.7534 14.8355 17.5483 15.6968 18.2638C16.5581 18.9593 17.6216 19.4164 18.9059 19.6152L18.9016 22H21.0304Z" fill="#30C4AE"/>
<path d="M22.5264 16.6939C22.4712 16.7337 22.4345 16.7535 22.3794 16.7933L22.3747 19.3967C22.6134 19.3172 22.8521 19.2377 23.0542 19.1185C23.642 18.8204 24.1565 18.4627 24.561 18.0254C24.9655 17.5882 25.2784 17.0914 25.4812 16.5349C25.6841 15.9785 25.7952 15.4021 25.7963 14.7861C25.7977 14.0309 25.6521 13.375 25.3777 12.8384C25.0851 12.3019 24.7005 11.8448 24.2057 11.4473C23.711 11.0498 23.1059 10.7318 22.4274 10.4536C21.7489 10.1754 20.997 9.91702 20.1899 9.67854C18.9427 9.30094 18.0258 8.92334 17.4575 8.56562C16.871 8.18802 16.5966 7.67131 16.5977 7.03536C16.5983 6.73725 16.6538 6.45902 16.7645 6.16092C16.8751 5.88269 17.059 5.62433 17.3164 5.38585C17.3899 5.32623 17.4634 5.26661 17.5553 5.20699L17.5599 2.62342C16.7887 2.88178 16.1273 3.25937 15.6125 3.79596C14.8036 4.63065 14.3796 5.68395 14.3407 6.93599C14.321 7.69118 14.43 8.32714 14.6676 8.84385C14.9052 9.36056 15.2348 9.81766 15.6929 10.1953C16.151 10.5729 16.6826 10.8908 17.3244 11.1492C17.9663 11.4274 18.6815 11.6659 19.4702 11.9243C20.1488 12.1429 20.7357 12.3416 21.2309 12.5205C21.726 12.6993 22.1661 12.9179 22.496 13.1365C22.8443 13.3552 23.1008 13.6135 23.2655 13.8719C23.4301 14.1501 23.5213 14.4879 23.5206 14.8655C23.5199 15.263 23.4275 15.6009 23.2618 15.9188C23.0778 16.2169 22.8387 16.4753 22.5264 16.6939Z" fill="#30C4AE"/>
<rect x="5.56836" y="13.3263" width="6.49634" height="2.05017" fill="#30C4AE"/>
<rect x="2.78418" y="13.3263" width="1.8561" height="2.05017" fill="#30C4AE"/>
<rect x="2.78418" y="9.22595" width="6.49634" height="2.05017" fill="#30C4AE"/>
<rect y="9.22595" width="1.8561" height="2.05017" fill="#30C4AE"/>
<rect x="4.64014" y="5.12537" width="7.42438" height="2.05017" fill="#30C4AE"/>
</svg>
