<svg width="25" height="21" viewBox="0 0 25 21" fill="none" xmlns="http://www.w3.org/2000/svg">
<path d="M5.31646 3.33352L5.52734 3.42941C5.56944 3.4489 5.61387 3.45787 5.65714 3.45787C5.77563 3.45787 5.88828 3.39043 5.9409 3.27622C6.01301 3.11992 5.94441 2.93477 5.78772 2.86266L5.57216 2.76443C5.41586 2.69349 5.23032 2.76327 5.15977 2.92074C5.08922 3.07821 5.15938 3.26297 5.31646 3.33352Z" fill="#495352"/>
<path d="M1.7073 2.55778L0.832228 2.14812C0.64591 2.0608 0.42646 2.07835 0.255733 2.19411C0.0850064 2.31027 -0.0120505 2.50828 0.00120222 2.71409L0.788962 15.3085C0.802214 15.5202 0.928895 15.708 1.12106 15.7996L10.014 20.0425C10.0261 20.0538 10.0367 20.0658 10.0499 20.0764C10.4307 20.3683 10.8501 20.5921 11.2961 20.7417C11.6336 20.8552 11.9844 20.9253 12.338 20.9491C12.3516 20.9503 12.3645 20.9507 12.3781 20.9507H12.3785H12.3789C12.3921 20.9507 12.4058 20.9503 12.4186 20.9491C12.7722 20.9249 13.123 20.8552 13.4602 20.7417C13.9069 20.5921 14.3263 20.3683 14.7067 20.0764C14.7199 20.0662 14.7305 20.0538 14.7426 20.0425L23.6363 15.7992C23.8281 15.708 23.9548 15.5198 23.9684 15.3081L24.7562 2.7137C24.769 2.50789 24.6724 2.30988 24.5017 2.19372C24.3309 2.07796 24.1115 2.06042 23.9252 2.14773L23.0501 2.55739V1.96297C23.0501 1.95361 23.0477 1.94504 23.0474 1.93568C23.047 1.92555 23.0485 1.9158 23.0474 1.90567C23.0462 1.89514 23.0427 1.8854 23.0411 1.87488C23.038 1.85539 23.0345 1.83668 23.0298 1.81758C23.0247 1.79848 23.0189 1.77977 23.0123 1.76145C23.006 1.7443 22.999 1.72793 22.9912 1.71155C22.9823 1.69284 22.9725 1.67531 22.962 1.65777C22.953 1.64334 22.9441 1.6297 22.9339 1.61645C22.9211 1.5993 22.9078 1.58293 22.8934 1.56733C22.8829 1.55603 22.872 1.54512 22.8603 1.53459C22.8439 1.51939 22.8271 1.50536 22.8092 1.4925C22.7971 1.48353 22.7846 1.47534 22.7722 1.46755C22.7527 1.45546 22.7328 1.44455 22.7121 1.43481C22.6989 1.42857 22.6856 1.42311 22.672 1.41766C22.6502 1.40947 22.6279 1.40245 22.6049 1.397C22.5905 1.39349 22.5757 1.39037 22.5609 1.38803C22.5379 1.38413 22.5153 1.38218 22.4915 1.38102C22.4826 1.38063 22.4744 1.37829 22.4654 1.37829C22.4564 1.37829 22.4479 1.38063 22.4389 1.38102C22.4284 1.3814 22.4186 1.37985 22.4081 1.38102C22.1123 1.41025 21.8262 1.44845 21.5439 1.49288V0.58546C21.5439 0.569868 21.5404 0.555447 21.5393 0.540245C21.5377 0.519587 21.5369 0.499317 21.533 0.479438C21.5295 0.460338 21.5237 0.442409 21.5182 0.424089C21.5128 0.405769 21.5081 0.387059 21.5011 0.369519C21.4941 0.351589 21.4847 0.334828 21.4757 0.318067C21.4672 0.301696 21.4594 0.284935 21.4492 0.269344C21.4391 0.253362 21.4266 0.23894 21.4149 0.224128C21.4032 0.209316 21.3923 0.194504 21.3795 0.181251C21.3666 0.167998 21.3526 0.156695 21.3385 0.144612C21.3241 0.132139 21.3101 0.119275 21.2945 0.107971C21.2797 0.0974469 21.2637 0.0892617 21.2477 0.0802966C21.2309 0.0705519 21.2142 0.0604165 21.1963 0.052231C21.1795 0.0448251 21.1616 0.0397592 21.144 0.0335226C21.1253 0.027286 21.107 0.0202691 21.0875 0.0159814C21.0692 0.0116938 21.0501 0.0101346 21.031 0.00779592C21.0146 0.00584698 20.999 0.00155872 20.9827 0.000779146C20.9772 0.000389359 20.9702 0.00116893 20.9643 0.000779146C20.9624 0.000779146 20.9604 0.000389573 20.9585 0.000389573C20.9562 0.000389573 20.9538 0.00117021 20.9515 0.00117021C20.1318 -0.0183191 17.9158 0.691873 15.1998 2.67589C14.2276 3.38608 13.0637 4.75891 12.3769 6.03429C11.689 4.75735 10.5254 3.38413 9.55644 2.67589C6.84352 0.693822 4.62408 -0.00974383 3.80747 0.00117021C3.80396 0.00117021 3.80085 0 3.79734 0C3.795 0 3.79266 0.000779146 3.79032 0.000779146C3.78525 0.000779146 3.77824 0.000389573 3.77317 0.000389573C3.75641 0.00116915 3.74082 0.00545741 3.72445 0.00740635C3.70535 0.00974507 3.68625 0.0113042 3.66793 0.0155918C3.64844 0.0198795 3.63012 0.0268949 3.61141 0.0331315C3.59387 0.0389783 3.57594 0.0440457 3.55918 0.0518414C3.54125 0.060027 3.52449 0.0701624 3.50773 0.0799071C3.49213 0.0888722 3.47615 0.0970573 3.46134 0.107582C3.44575 0.118885 3.43133 0.131748 3.41691 0.144221C3.40287 0.156304 3.38884 0.167609 3.37637 0.180861C3.3635 0.194504 3.3522 0.209316 3.3409 0.224128C3.3292 0.23894 3.31712 0.252973 3.30699 0.268954C3.29685 0.284545 3.28906 0.301306 3.28048 0.317677C3.27152 0.334438 3.26255 0.351199 3.25514 0.369129C3.24813 0.387059 3.24345 0.405769 3.23799 0.424089C3.23293 0.442409 3.22669 0.459949 3.22357 0.478659C3.21967 0.498538 3.21889 0.519197 3.21733 0.539856C3.21617 0.555058 3.21266 0.569479 3.21266 0.584681V1.4921C2.93045 1.44767 2.64435 1.40947 2.3485 1.38024C2.33875 1.37946 2.3294 1.38102 2.32004 1.38063C2.3103 1.38024 2.30134 1.3779 2.29159 1.3779C2.28029 1.3779 2.26976 1.38063 2.25846 1.3814C2.24053 1.38257 2.22299 1.38413 2.20545 1.38686C2.18323 1.38998 2.16179 1.39466 2.14074 1.40051C2.12593 1.4044 2.11112 1.40908 2.0967 1.41415C2.07526 1.42194 2.05421 1.43052 2.03394 1.44065C2.02069 1.44728 2.00744 1.4543 1.99457 1.46209C1.97547 1.47339 1.95715 1.48548 1.93961 1.49912C1.92675 1.50887 1.91467 1.519 1.90258 1.52952C1.88738 1.54317 1.87296 1.55759 1.85932 1.57279C1.84723 1.58604 1.83632 1.59969 1.82541 1.61372C1.8141 1.62892 1.80319 1.64451 1.79344 1.66088C1.7837 1.67686 1.77473 1.69324 1.76655 1.71039C1.75836 1.72754 1.75096 1.74469 1.74472 1.76262C1.73809 1.78055 1.73225 1.79887 1.72757 1.81797C1.72289 1.83668 1.71899 1.85578 1.71626 1.87488C1.71471 1.8854 1.7112 1.89514 1.71003 1.90567C1.70886 1.9158 1.71042 1.92555 1.71003 1.93568C1.70964 1.94504 1.7073 1.95361 1.7073 1.96297V2.55778ZM22.8228 14.8922L14.7928 18.7234L14.8057 17.5361C14.808 17.3206 14.635 17.1444 14.4202 17.1421C14.4186 17.1421 14.4171 17.1421 14.4159 17.1421C14.2023 17.1421 14.0285 17.3136 14.0261 17.5276L14.009 19.1245C13.991 19.1401 13.9723 19.1549 13.9571 19.1725C13.6894 19.372 13.3986 19.5291 13.0887 19.6328C12.8583 19.7104 12.6194 19.7571 12.3789 19.777C12.1384 19.7571 11.8995 19.7104 11.6687 19.6328C11.3592 19.5291 11.0688 19.3724 10.8006 19.1725C10.785 19.1549 10.7663 19.1401 10.7484 19.1245L10.6529 10.212C10.6506 9.99804 10.4767 9.82653 10.2631 9.82653C10.262 9.82653 10.2604 9.82653 10.2588 9.82653C10.0437 9.82887 9.871 10.0051 9.87334 10.2206L9.96416 18.7234L1.93416 14.8922L1.22942 3.62541L1.75329 3.87059C1.80397 3.89436 1.85659 3.90762 1.90921 3.91619C2.01211 4.00584 2.14464 4.06197 2.29198 4.06197C2.29237 4.06197 2.29315 4.06197 2.29354 4.06197L9.84566 7.59851L9.86242 9.15922C9.86476 9.37321 10.0386 9.54471 10.2522 9.54471C10.2534 9.54471 10.2549 9.54471 10.2565 9.54471C10.4717 9.54238 10.6443 9.36619 10.642 9.15064L10.6299 8.00116C10.7554 8.05417 10.8938 8.10562 11.0637 8.16214C11.4512 8.29155 12.0741 8.34027 12.3485 8.3621L12.3489 8.35547C12.3617 8.35664 12.3734 8.36249 12.3863 8.36249C12.3964 8.36249 12.4073 8.3621 12.4175 8.36132C12.6837 8.34027 13.3062 8.29155 13.6936 8.16214C13.8636 8.10562 14.002 8.05378 14.1275 8.00116L14.037 16.4704C14.0347 16.686 14.2078 16.8622 14.4225 16.8645C14.4241 16.8645 14.4253 16.8645 14.4268 16.8645C14.6404 16.8645 14.8143 16.693 14.8166 16.479L14.9117 7.59812L22.4638 4.06158C22.4642 4.06158 22.465 4.06158 22.4654 4.06158C22.6127 4.06158 22.7457 4.00545 22.8482 3.91541C22.9008 3.90684 22.953 3.89397 23.0037 3.8702L23.5276 3.62502L22.8228 14.8922ZM15.8901 3.62073C17.8905 2.15942 19.5221 1.49016 20.3746 1.26369V2.19333C20.3746 2.19411 20.375 2.19528 20.375 2.19606C20.375 2.19762 20.3754 2.19957 20.3754 2.20113C20.3758 2.22802 20.3793 2.25375 20.3832 2.27986C19.4387 2.61235 18.6135 2.98226 17.7864 3.45429C17.3023 3.73065 16.8022 4.04365 16.3001 4.38433C16.1579 4.48099 16.1205 4.67511 16.2171 4.81738C16.2775 4.90625 16.3754 4.95419 16.4755 4.95419C16.5356 4.95419 16.5968 4.93665 16.6502 4.9004C17.139 4.56869 17.6254 4.26427 18.0955 3.9961C18.9714 3.49639 19.8449 3.1144 20.8774 2.76983C20.9039 2.77372 20.9304 2.77801 20.9581 2.77801H20.9585C20.9994 2.77801 21.0392 2.77372 21.0778 2.76554C21.0782 2.76554 21.0789 2.76554 21.0793 2.76554C21.3432 2.7098 21.6094 2.66458 21.8796 2.62522V3.47417L14.4315 6.96238C14.4249 6.96549 14.4214 6.97134 14.4151 6.97446C14.4085 6.97797 14.4015 6.97797 14.3953 6.98147C14.1524 7.12804 13.9864 7.22119 13.7303 7.32137C14.246 6.74877 15.024 6.07132 15.9579 5.38803C16.0967 5.28629 16.1271 5.09101 16.0253 4.95224C15.9244 4.81426 15.7291 4.78269 15.5896 4.88481C14.9706 5.33735 13.9439 6.14148 13.2275 6.95185C13.7431 5.84135 14.9024 4.34262 15.8901 3.62073ZM11.5642 7.03371C10.5297 5.8281 8.54183 4.37302 6.93123 3.45429C6.82053 3.39193 6.711 3.33073 6.60147 3.27109C6.44906 3.18885 6.26079 3.24615 6.17855 3.39699C6.09669 3.54862 6.15321 3.73767 6.30445 3.81991C6.41047 3.87682 6.51649 3.93607 6.62251 3.99649C8.08733 4.83219 9.95324 6.18319 10.9651 7.29681C10.7433 7.2056 10.5839 7.11634 10.3614 6.98186C10.3551 6.97797 10.3477 6.97797 10.3411 6.97446C10.3348 6.97134 10.3309 6.96549 10.3247 6.96238L2.87666 3.47417V2.62522C3.14678 2.66458 3.41301 2.7098 3.67689 2.76554C3.67728 2.76554 3.67806 2.76554 3.67845 2.76554C3.71704 2.77372 3.7568 2.77801 3.79773 2.77801H3.79812C3.818 2.77801 3.83671 2.77411 3.85581 2.77217C4.10839 2.85636 4.35278 2.94172 4.58666 3.03176C4.6233 3.0458 4.66072 3.05242 4.69813 3.05242C4.82326 3.05242 4.94175 2.97641 4.98931 2.85207C5.05089 2.69148 4.9706 2.51101 4.80961 2.44942C4.66656 2.39485 4.52039 2.34184 4.37227 2.28961C4.37695 2.26076 4.38085 2.23153 4.38124 2.20152C4.38124 2.19996 4.38163 2.19801 4.38163 2.19645C4.38163 2.19567 4.38202 2.1945 4.38202 2.19372V1.26642C5.23448 1.49288 6.8634 2.15747 8.86652 3.62073C9.87451 4.35743 11.0665 5.91307 11.5642 7.03371Z" fill="#495352"/>
<path d="M2.52874 7.61609C2.35645 7.62272 2.22236 7.76733 2.22821 7.93922L2.24458 8.37617C2.25121 8.54456 2.38919 8.67631 2.55602 8.67631C2.56031 8.67631 2.56421 8.67631 2.56811 8.67631C2.74 8.66929 2.87448 8.52468 2.86824 8.35279L2.85187 7.91661C2.84524 7.74394 2.68192 7.61843 2.52874 7.61609Z" fill="#495352"/>
<path d="M3.79455 5.74081L2.54528 5.17211C2.44394 5.12612 2.32583 5.13742 2.23501 5.20213C2.14419 5.26683 2.09508 5.37519 2.10599 5.48628C2.10638 5.49174 2.15628 6.0121 2.19097 6.93668C2.19759 7.10507 2.33558 7.23682 2.50241 7.23682C2.5067 7.23682 2.51059 7.23682 2.51449 7.23682C2.68639 7.23019 2.82086 7.08519 2.81463 6.91329C2.79982 6.51961 2.78227 6.19959 2.76707 5.9587L3.5369 6.30912C3.69282 6.38045 3.87836 6.31107 3.95008 6.15438C4.02063 5.99768 3.95125 5.81253 3.79455 5.74081Z" fill="#495352"/>
<path d="M19.3853 15.1546L19.1397 15.282C18.9865 15.3612 18.9269 15.5494 19.0064 15.7022C19.0618 15.809 19.1705 15.8706 19.2836 15.8706C19.3319 15.8706 19.3806 15.8597 19.4266 15.8355L19.6722 15.7089C19.825 15.6297 19.8846 15.4411 19.8059 15.2883C19.7271 15.1363 19.5396 15.0758 19.3853 15.1546Z" fill="#495352"/>
<path d="M21.8361 13.6488C21.6681 13.634 21.5184 13.7735 21.5102 13.9458L21.5047 14.0581L20.1763 14.746C20.0232 14.8252 19.9635 15.0134 20.043 15.1662C20.0984 15.273 20.2071 15.3346 20.3202 15.3346C20.3685 15.3346 20.4172 15.3237 20.4632 15.2995L21.951 14.5293C22.0504 14.4779 22.1144 14.3773 22.1194 14.2662L22.1327 13.9746C22.1409 13.8024 22.008 13.6566 21.8361 13.6488Z" fill="#495352"/>
<path d="M21.8923 12.3586C21.7333 12.3484 21.5746 12.4837 21.5672 12.6564L21.5477 13.0941C21.5395 13.266 21.6732 13.4114 21.8455 13.4192C21.8502 13.4196 21.8545 13.4196 21.8595 13.4196C22.0252 13.4196 22.1632 13.289 22.1706 13.1214L22.1901 12.6836C22.1975 12.5118 22.0646 12.3664 21.8923 12.3586Z" fill="#495352"/>
</svg>
