<svg width="24" height="19" viewBox="0 0 24 19" fill="none" xmlns="http://www.w3.org/2000/svg">
<path d="M11.9789 3.78521C11.377 3.78521 10.7886 3.9732 10.2881 4.3254C9.78769 4.67761 9.39762 5.17821 9.16729 5.76391C8.93695 6.3496 8.87668 6.99409 8.99411 7.61586C9.11153 8.23763 9.40137 8.80876 9.82698 9.25703C10.2526 9.7053 10.7948 10.0106 11.3852 10.1343C11.9755 10.2579 12.5874 10.1945 13.1435 9.95186C13.6996 9.70926 14.1749 9.29842 14.5093 8.77131C14.8437 8.2442 15.0222 7.62448 15.0222 6.99053C15.021 6.14079 14.7001 5.32618 14.1296 4.72532C13.5591 4.12446 12.7857 3.78639 11.9789 3.78521ZM11.9789 8.92884C11.6149 8.92884 11.2591 8.81516 10.9565 8.60217C10.6538 8.38919 10.418 8.08647 10.2787 7.73229C10.1394 7.37811 10.1029 6.98838 10.1739 6.61238C10.245 6.23639 10.4202 5.89102 10.6776 5.61994C10.935 5.34886 11.2629 5.16426 11.6199 5.08947C11.9769 5.01468 12.3469 5.05306 12.6832 5.19977C13.0194 5.34647 13.3068 5.59491 13.5091 5.91366C13.7113 6.23242 13.8192 6.60717 13.8192 6.99053C13.817 7.50347 13.6222 7.99466 13.2775 8.35695C12.9327 8.71924 12.4659 8.92322 11.9789 8.92439V8.92884ZM24 7.62181V6.35035H20.2223C19.6655 4.50728 18.5665 2.89856 17.0842 1.75694C15.6018 0.615322 13.8131 0 11.9768 0C10.1405 0 8.35174 0.615322 6.86942 1.75694C5.3871 2.89856 4.28805 4.50728 3.73127 6.35035H0V7.61737H3.44847C3.40626 7.88855 3.37249 8.15974 3.35139 8.43537H0V9.70238H3.34717C3.36607 10.0107 3.39988 10.3179 3.44847 10.6226H0V11.8896H3.73127C4.28805 13.7327 5.3871 15.3414 6.86942 16.4831C8.35174 17.6247 10.1405 18.24 11.9768 18.24C13.8131 18.24 15.6018 17.6247 17.0842 16.4831C18.5665 15.3414 19.6655 13.7327 20.2223 11.8896H23.9958V10.6226H20.5051C20.5537 10.3179 20.5875 10.0107 20.6064 9.70238H23.9831V8.43537H20.6064C20.6064 8.15974 20.5557 7.88411 20.5093 7.61737L24 7.62181ZM8.09989 15.8107C8.17871 14.7842 8.62155 13.8265 9.34031 13.1282C10.0591 12.4299 11.0011 12.0422 11.9789 12.0422C12.9567 12.0422 13.8987 12.4299 14.6175 13.1282C15.3362 13.8265 15.7791 14.7842 15.8579 15.8107C14.6921 16.569 13.349 16.9706 11.9789 16.9706C10.6088 16.9706 9.26565 16.569 8.09989 15.8107ZM16.9638 14.9527C16.7096 13.7642 16.0791 12.7022 15.1758 11.9413C14.2725 11.1804 13.1503 10.7659 11.9937 10.7659C10.837 10.7659 9.71481 11.1804 8.81154 11.9413C7.90827 12.7022 7.27772 13.7642 7.02357 14.9527C5.89853 13.8926 5.10561 12.4977 4.7497 10.9526C4.3938 9.40744 4.49169 7.78491 5.03043 6.29967C5.56916 4.81442 6.52334 3.53645 7.76673 2.63485C9.01012 1.73325 10.4841 1.25052 11.9937 1.25052C13.5032 1.25052 14.9772 1.73325 16.2206 2.63485C17.464 3.53645 18.4182 4.81442 18.9569 6.29967C19.4956 7.78491 19.5935 9.40744 19.2376 10.9526C18.8817 12.4977 18.0888 13.8926 16.9638 14.9527Z" fill="#495352"/>
</svg>
