<svg width="32" height="32" viewBox="0 0 32 32" fill="none" xmlns="http://www.w3.org/2000/svg">
<path opacity="0.2" d="M16.089 0C7.24004 0 0 7.32849 0 16.4653C0 23.5083 4.29039 29.5043 10.2791 31.8837C11.5304 32.3596 12.8712 31.3126 12.8712 29.885C12.8712 29.0284 12.3349 28.1718 11.5304 27.8863C6.8825 26.078 3.57533 21.6999 3.57533 16.4653C3.57533 9.70787 9.11708 4.18771 15.9996 4.18771C22.8821 4.18771 28.4238 9.70787 28.4238 16.4653C28.4238 21.6999 25.1167 26.1732 20.4687 27.8863C19.6643 28.1718 19.128 28.9332 19.128 29.885C19.128 31.3126 20.4687 32.3596 21.7201 31.8837C27.7088 29.5043 31.9992 23.5083 31.9992 16.4653C32.0886 7.42366 24.9379 0 16.089 0Z" fill="white"/>
</svg>
