<svg width="22" height="32" viewBox="0 0 22 32" fill="none" xmlns="http://www.w3.org/2000/svg">
<path d="M20.9268 17.2834C20.2114 16.2567 19.1382 15.4011 17.8862 14.8877C18.6016 14.3743 19.3171 13.6898 19.8537 12.8342C20.3902 11.9786 20.5691 11.123 20.5691 10.0963C20.5691 9.24064 20.3902 8.2139 20.0325 7.52941C19.6748 6.6738 19.3171 5.98931 18.6016 5.30481C18.065 4.62032 17.1707 4.10695 16.2764 3.76471C15.3821 3.42246 14.3089 3.25134 13.0569 3.25134L12.878 3.25134L12.878 -1.00108e-07L9.8374 -7.64713e-08L9.8374 3.42246L6.43903 3.42246L6.43903 -5.00539e-08L3.39838 -2.64174e-08L3.39838 3.42246L2.66046e-08 3.42246L5.32092e-08 6.84492L12.878 6.84492C14.1301 6.84492 15.0244 7.18717 15.561 7.87166C16.0976 8.55615 16.4553 9.41176 16.4553 10.2674C16.4553 11.2941 16.0976 11.9786 15.3821 12.6631C14.6667 13.3476 13.7724 13.6898 12.3415 13.6898L6.43903 13.6898L6.43903 10.2674L2.86179 10.2674L2.86179 13.6898L2.86179 25.3262L0.178866 25.3262L0.178866 28.7487L3.57724 28.7487L3.57724 32L6.61789 32L6.61789 28.7487L7.33334 28.7487L9.8374 28.7487L9.8374 32L12.878 32L12.878 28.7487L13.2358 28.7487C14.4878 28.7487 15.7398 28.5775 16.813 28.2353C17.8862 27.893 18.7805 27.3797 19.4959 26.6952C20.2114 26.0107 20.9268 25.1551 21.2846 24.2995C21.6423 23.2727 22 22.246 22 21.2193C22 19.508 21.6423 18.3102 20.9268 17.2834ZM16.9919 24.1283C16.0976 24.984 14.8455 25.3262 13.4146 25.3262L6.79675 25.3262L6.79675 16.9412L13.2358 16.9412C14.8455 16.9412 16.0976 17.2834 16.9919 18.139C17.8862 18.8235 18.2439 19.8503 18.2439 21.2193C18.2439 22.4171 17.8862 23.4438 16.9919 24.1283Z" fill="#8C9C9A"/>
</svg>
