<svg width="53" height="19" viewBox="0 0 53 19" fill="none" xmlns="http://www.w3.org/2000/svg">
<path d="M33.2727 3.21802C33.5366 3.292 33.813 3.292 34.0769 3.34748C34.5104 3.42762 34.9313 3.53859 35.346 3.68038C35.4528 3.71737 35.4905 3.76669 35.4716 3.87766C35.3397 4.66059 35.2077 5.44352 35.0821 6.22029C35.057 6.35592 35.0004 6.33742 34.9062 6.29427C34.0455 5.89355 33.1345 5.72094 32.1858 5.77026C31.7272 5.79492 31.2874 5.86889 30.9104 6.14631C30.433 6.49771 30.4016 6.99706 30.8225 7.4101C30.9356 7.52107 31.0612 7.61354 31.1994 7.69985C31.5701 7.94028 31.9722 8.13755 32.368 8.32866C32.8392 8.56292 33.2978 8.81568 33.7125 9.13625C34.8873 10.0363 35.258 11.2015 34.8936 12.6009C34.5732 13.8339 33.7376 14.6414 32.5942 15.1716C31.834 15.523 31.0235 15.6956 30.1942 15.7511C28.856 15.8436 27.5367 15.6956 26.2613 15.2826C25.8655 15.1531 25.8718 15.1531 25.9346 14.7524C26.054 14.0311 26.1734 13.3037 26.2864 12.5824C26.3116 12.4283 26.3556 12.4159 26.4938 12.4776C27.1409 12.7797 27.8006 13.0509 28.5105 13.1557C29.1953 13.2544 29.8738 13.3098 30.5586 13.1372C30.8665 13.0571 31.1492 12.9338 31.3816 12.7119C31.7523 12.342 31.7774 11.8364 31.4319 11.4419C31.2309 11.2138 30.9795 11.0473 30.7157 10.8994C30.2759 10.659 29.8236 10.437 29.3775 10.1966C28.9377 9.96234 28.5293 9.67876 28.1649 9.33353C27.1723 8.40264 26.9524 7.23749 27.455 5.93671C27.8445 4.93801 28.611 4.27837 29.5722 3.82217C30.2759 3.48311 31.0298 3.31666 31.8026 3.23651C31.8465 3.23035 31.9031 3.24884 31.9408 3.19952C32.3931 3.21802 32.8329 3.21802 33.2727 3.21802Z" fill="#5B5B5B"/>
<path d="M10.115 5.09212C10.0836 5.0428 10.0522 4.99348 9.99564 4.96265C8.99671 4.40165 7.92867 3.98861 6.81665 3.70503C6.78523 3.69886 6.75382 3.69886 6.71613 3.69886C6.71613 3.66804 6.71613 3.63722 6.71613 3.60023C6.74126 3.45227 6.84178 3.43378 6.97999 3.43378C8.59462 3.43994 10.2092 3.43378 11.8239 3.43378C11.9056 3.43378 11.9872 3.43378 12.0689 3.43994C12.8354 3.4831 13.2563 3.84682 13.4071 4.58044C13.7589 6.32508 14.1045 8.06973 14.4563 9.81437C14.4626 9.85753 14.4689 9.90068 14.4689 9.94384C14.362 9.97466 14.3558 9.88835 14.3244 9.8267C14.1422 9.4075 13.9474 8.98829 13.7024 8.5999C13.3568 8.03274 12.9673 7.50256 12.5087 7.02171C11.8804 6.34974 11.1642 5.76408 10.3663 5.27706C10.2784 5.22158 10.203 5.15376 10.115 5.09212Z" fill="#5B5B5B"/>
<path d="M10.1151 5.09213C10.1716 5.01815 10.2156 5.09213 10.2533 5.11063C10.8438 5.46202 11.403 5.86273 11.9182 6.3251C12.7726 7.0957 13.4888 7.96494 14.0165 8.97597C14.1799 9.29038 14.3181 9.62328 14.4689 9.94385C14.5757 10.4617 14.6888 10.9795 14.7956 11.4974C14.8082 11.5529 14.8207 11.6084 14.8333 11.6762C14.9024 11.6268 14.9087 11.559 14.9275 11.4974C15.9202 8.8835 16.9065 6.26345 17.8929 3.64956C17.9557 3.48311 18.0374 3.43379 18.2133 3.43996C19.1997 3.44612 20.1923 3.44612 21.1787 3.44612C21.3672 3.44612 21.3672 3.44612 21.2981 3.61874C19.6646 7.56423 18.0311 11.5036 16.3976 15.449C16.3474 15.5662 16.2908 15.6093 16.1589 15.6093C15.1411 15.6032 14.1233 15.6032 13.1119 15.6093C12.9988 15.6093 12.9359 15.5847 12.9045 15.4614C11.981 12.0152 11.0449 8.57526 10.1151 5.13528C10.1213 5.11679 10.1213 5.10446 10.1151 5.09213Z" fill="#5B5B5B"/>
<path d="M22.2655 15.6093C21.7881 15.6093 21.3106 15.6031 20.8331 15.6093C20.6949 15.6093 20.6698 15.5723 20.6949 15.4429C21.1724 12.5639 21.6436 9.69108 22.121 6.8121C22.297 5.73942 22.4792 4.66674 22.6488 3.5879C22.6676 3.45844 22.7242 3.43378 22.8373 3.43378C23.7859 3.43994 24.7409 3.43994 25.6896 3.43378C25.8592 3.43378 25.878 3.48926 25.8529 3.63105C25.6456 4.85785 25.4445 6.08465 25.2435 7.31762C24.9168 9.2842 24.5964 11.2508 24.2697 13.2235C24.144 13.9756 24.0184 14.7216 23.9053 15.4737C23.8865 15.5908 23.8362 15.6216 23.7231 15.6155C23.2331 15.6093 22.7493 15.6093 22.2655 15.6093Z" fill="#5B5B5B"/>
<path d="M46.2651 15.4367C46.152 14.9189 46.0452 14.401 45.9321 13.8893C45.2033 10.4617 44.4745 7.03404 43.752 3.60023C43.7269 3.4831 43.6829 3.43378 43.551 3.43378C42.7531 3.43994 41.9552 3.43994 41.1636 3.43994C40.372 3.43994 39.8317 3.77901 39.5301 4.51262C39.0464 5.68394 38.5375 6.84909 38.0411 8.02041C36.9857 10.4987 35.9302 12.9708 34.8747 15.449C34.8056 15.6155 34.8056 15.6155 34.9815 15.6155C35.993 15.6155 37.0045 15.6155 38.016 15.6155C38.1354 15.6155 38.1919 15.5723 38.2296 15.4675C38.3993 14.9867 38.5877 14.5058 38.7574 14.0188C38.8139 13.8462 38.8956 13.7784 39.0903 13.7784C39.6935 13.7969 40.2966 13.7845 40.906 13.7845C41.5343 13.7845 42.1562 13.7907 42.7845 13.7845C42.9164 13.7845 42.9793 13.8215 43.0044 13.9571C43.0986 14.4627 43.2117 14.962 43.3122 15.4614C43.3374 15.5785 43.3814 15.6155 43.507 15.6155C44.3866 15.6093 45.2661 15.6093 46.1457 15.6155C46.2839 15.6155 46.2965 15.5662 46.2651 15.4367ZM42.2568 11.3001C41.4714 11.2939 40.6861 11.3001 39.9008 11.3001C39.8066 11.3001 39.75 11.2939 39.794 11.1768C40.3343 9.73423 40.8683 8.29783 41.4086 6.85526C41.4149 6.83676 41.4212 6.8121 41.4714 6.80594C41.6411 7.6012 41.8044 8.3903 41.9678 9.1794C42.106 9.83287 42.2379 10.4863 42.3824 11.1398C42.4138 11.2631 42.3887 11.3001 42.2568 11.3001Z" fill="#5B5B5B"/>
</svg>
