<svg width="32" height="28" viewBox="0 0 32 28" fill="none" xmlns="http://www.w3.org/2000/svg">
<g clip-path="url(#clip0)">
<path d="M0.339289 10.8606C0.169592 11.2 -0.000104722 11.7091 -0.000104722 12.2182C-0.339499 14.4243 1.35747 16.4606 3.56353 16.8C4.07262 16.8 4.41202 16.8 4.92111 16.8L5.4302 16.6303L7.63626 21.5515L7.12717 21.8909C6.61808 22.2303 6.44838 22.7394 6.27868 23.4182C6.10899 24.7758 7.12717 25.9637 8.48474 26.1334C9.50293 26.3031 10.5211 25.794 11.0302 24.7758L11.1999 24.4364L17.6484 25.1152V25.6243C17.9878 27.3212 19.515 28.5091 21.212 28.1697C22.909 27.8303 24.0969 26.3031 23.7575 24.6061C23.7575 24.097 23.4181 23.5879 23.0787 23.2485L22.7393 22.9091L26.3029 18.1576L26.812 18.3273C28.3393 18.8364 30.0363 18.1576 30.715 16.6303C30.715 16.6303 30.8847 16.2909 30.8847 15.7819C30.8847 15.2728 30.8847 14.9334 30.8847 14.9334C30.8847 14.4243 30.5453 13.7455 30.206 13.4061C30.0363 13.2364 29.8666 13.0667 29.6969 12.897C29.0181 12.3879 28.1696 12.2182 27.3211 12.3879H26.9817L25.4544 8.14549L25.7938 7.97579C27.8302 6.61822 28.3393 3.90306 26.9817 2.0364C26.9817 1.8667 26.812 1.8667 26.812 1.697L26.6423 1.52731L26.1332 1.01822L25.4544 0.678822C23.2484 -0.33936 20.7029 0.509125 19.6847 2.71519C19.515 2.88488 19.515 3.05458 19.515 3.22428L18.8363 3.39397L13.7454 2.71519V2.37579C13.5757 2.0364 13.406 1.697 13.2363 1.35761C13.0666 1.18791 12.8969 1.01822 12.7272 0.848519C11.709 3.40044e-05 10.012 0.339428 9.33323 1.35761C8.65444 2.20609 8.65444 3.39397 9.16353 4.24246L9.50293 4.58185L6.27868 8.99397L5.76959 8.82428C3.73323 7.97579 1.35747 8.82428 0.339289 10.8606ZM23.0787 25.2849C22.909 26.4728 21.8908 27.4909 20.5332 27.3212C19.3454 27.1516 18.3272 26.1334 18.4969 24.7758C18.6666 23.5879 19.6847 22.5697 21.0423 22.7394C22.2302 22.9091 23.2484 23.9273 23.0787 25.2849ZM26.4726 13.4061C27.4908 12.5576 28.8484 12.7273 29.6969 13.7455C30.0363 14.2546 30.206 14.7637 30.206 15.4425C30.206 16.1212 29.8666 16.6303 29.3575 16.9697C28.3393 17.8182 26.9817 17.6485 26.1332 16.6303C25.2847 15.7819 25.4544 14.2546 26.4726 13.4061ZM21.0423 1.697C22.5696 0.509125 24.7757 0.678822 25.9635 2.20609C27.1514 3.73337 26.9817 5.93943 25.4544 7.12731C24.2666 8.14549 22.3999 8.14549 21.212 7.297C21.0423 7.12731 20.7029 6.95761 20.5332 6.61822C20.0241 5.93943 19.6847 4.92125 19.8544 4.07276C19.8544 3.05458 20.3635 2.20609 21.0423 1.697ZM10.5211 5.26064C10.6908 5.26064 10.8605 5.26064 10.8605 5.43034C11.8787 5.60003 12.8969 5.09094 13.406 4.07276L13.7454 3.56367L18.8363 4.24246V4.75155C19.006 7.12731 21.0423 8.99397 23.4181 8.65458C23.5878 8.65458 23.7575 8.65458 24.0969 8.48488H24.606L26.3029 12.5576L25.9635 12.7273C24.606 13.7455 24.4363 15.7819 25.4544 17.1394L25.7938 17.4788L22.2302 22.2303L21.8908 22.0606C20.3635 21.3819 18.4969 22.2303 17.9878 23.7576L17.8181 24.097L11.3696 23.4182V22.9091C11.1999 22.4 10.8605 21.8909 10.3514 21.5515C10.012 21.2122 9.67262 21.2122 9.16353 21.0425C8.99384 21.0425 8.82414 21.0425 8.65444 21.0425L8.14535 21.2122L6.10899 16.2909L6.44838 15.9515C7.46656 15.2728 7.97565 14.2546 8.14535 13.0667C8.31505 12.0485 7.97565 10.8606 7.29687 10.0122L7.12717 9.84246L6.95747 9.50306L10.1817 5.09094L10.5211 5.26064ZM6.61808 10.5212C7.80596 11.8788 7.46656 13.9152 6.10899 15.1031C4.92111 15.9515 3.39383 16.1212 2.20596 15.2728C2.03626 15.1031 1.69686 14.7637 1.52717 14.594C0.339289 13.2364 0.678683 11.2 2.03626 10.0122C3.56353 8.99397 5.5999 9.16367 6.61808 10.5212Z" fill="#495352"/>
<path d="M15.1025 6.61816V8.14544V9.67271C15.2722 9.67271 15.4419 9.67271 15.7813 9.67271C16.1207 9.67271 16.4601 9.67271 16.7995 9.84241C17.1389 9.84241 17.3086 10.0121 17.4783 10.1818C17.648 10.3515 17.8177 10.5212 17.9874 10.6909C18.1571 10.8606 18.1571 11.0303 18.3268 11.2L19.6844 10.6909C19.5147 10.1818 19.1753 9.67271 18.6662 9.16362C18.1571 8.65453 17.4783 8.48483 16.7995 8.31513V6.61816H15.1025Z" fill="#495352"/>
<path d="M16.63 20.8727V19.3454V17.8181C16.4603 17.8181 16.2906 17.8181 15.9512 17.8181C15.1027 17.8181 14.5936 17.6485 14.0845 17.3091C13.5754 17.1394 13.236 16.8 12.8966 16.4606L11.5391 16.9697C11.7088 17.4788 12.2178 18.1575 12.8966 18.4969C13.5754 19.006 14.2542 19.1757 15.1027 19.3454V20.8727H16.63Z" fill="#495352"/>
<path d="M17.6481 17.4788C17.6481 17.4788 17.4784 17.4788 17.6481 17.4788L17.4784 19.1758C17.6481 19.1758 17.8178 19.0061 17.9875 19.0061C18.3269 18.8364 18.6663 18.6667 19.0057 18.3273C19.3451 17.9879 19.5148 17.6485 19.6845 17.3091C19.8542 16.9697 19.8542 16.6303 19.8542 16.1212C19.8542 15.6122 19.6845 15.2728 19.5148 14.9334C19.3451 14.594 19.0057 14.2546 18.6663 14.0849C18.3269 13.9152 17.8178 13.5758 17.4784 13.4061C16.9693 13.2364 16.4602 13.0667 15.9511 12.897C15.1027 12.7273 14.4239 12.3879 14.0845 12.2182C13.5754 11.8788 13.4057 11.5394 13.4057 11.2C13.4057 11.0303 13.4057 10.8606 13.5754 10.6909C13.5754 10.5212 13.7451 10.3515 13.9148 10.1819C13.9148 10.1819 14.0845 10.1819 14.0845 10.0122V8.31519C13.5754 8.48488 13.0663 8.82428 12.7269 9.16367C12.2178 9.67276 11.8784 10.3515 11.8784 11.2C11.8784 11.7091 11.8784 12.0485 12.0481 12.3879C12.2178 12.7273 12.3875 13.0667 12.7269 13.2364C13.0663 13.4061 13.5754 13.7455 13.9148 13.9152C14.4239 14.0849 14.933 14.2546 15.4421 14.4243C15.9511 14.594 16.2905 14.7637 16.6299 14.7637C16.9693 14.9334 17.3087 14.9334 17.4784 15.1031C17.6481 15.2728 17.8178 15.4425 17.9875 15.6122C18.1572 15.7819 18.1572 15.9515 18.1572 16.2909C18.1572 16.4606 18.1572 16.8 17.9875 16.9697C17.9875 17.1394 17.8178 17.3091 17.6481 17.4788Z" fill="#495352"/>
</g>
<defs>
<clipPath id="clip0">
<rect width="31.0545" height="28" fill="white"/>
</clipPath>
</defs>
</svg>
