<svg width="18" height="18" viewBox="0 0 18 18" fill="none" xmlns="http://www.w3.org/2000/svg">
<path d="M4.1847 2.70876C4.55604 3.0801 5.13908 3.11618 5.59955 2.8637C6.02446 2.63072 6.47651 2.44137 6.94978 2.30195C7.45274 2.15379 7.83885 1.71668 7.83885 1.19235C7.83885 0.557365 7.28243 0.0594566 6.66712 0.216292C5.83278 0.428954 5.04542 0.758946 4.32348 1.18768C3.77665 1.51242 3.73499 2.25905 4.1847 2.70876Z" fill="#8C9C9A"/>
<path d="M1.19249 7.83885C1.71677 7.83885 2.15388 7.45285 2.30204 6.94994C2.44148 6.4766 2.63079 6.02448 2.86377 5.59952C3.1162 5.13906 3.08011 4.55606 2.7088 4.18475C2.25909 3.73503 1.51243 3.77672 1.1877 4.32357C0.758986 5.0455 0.429002 5.83274 0.216334 6.66699C0.0594611 7.28237 0.557429 7.83885 1.19249 7.83885Z" fill="#8C9C9A"/>
<path d="M16.5773 4.32338C16.2526 3.7766 15.506 3.73496 15.0564 4.18462C14.685 4.55598 14.649 5.13909 14.9015 5.5996C15.1345 6.02457 15.3238 6.47672 15.4631 6.95006C15.6112 7.45304 16.0484 7.83914 16.5727 7.83914C17.2077 7.83914 17.7056 7.28274 17.5488 6.66742C17.3361 5.83289 17.0061 5.04541 16.5773 4.32338Z" fill="#8C9C9A"/>
<path d="M10.2242 1.22616C10.2242 0.761309 10.6403 0.404062 11.0898 0.52258C11.8398 0.720335 12.5598 1.01879 13.2309 1.40999C13.6332 1.6445 13.6749 2.19234 13.3456 2.52155C13.0879 2.77914 12.6855 2.81318 12.3675 2.63527C11.8822 2.36374 11.3663 2.14922 10.8334 1.9973C10.4838 1.89767 10.2242 1.58963 10.2242 1.22616ZM11.0979 0.216324C10.4825 0.0594636 9.92603 0.557429 9.92603 1.19249C9.92603 1.71677 10.312 2.15388 10.8149 2.30202C11.2884 2.44147 11.7406 2.6308 12.1656 2.86379C12.6261 3.1162 13.2091 3.08011 13.5804 2.7088C14.0301 2.25909 13.9884 1.51244 13.4416 1.18772C12.7196 0.758989 11.9322 0.428994 11.0979 0.216324Z" fill="#8C9C9A"/>
<path d="M16.5727 9.92603C16.0484 9.92603 15.6112 10.3121 15.4631 10.8151C15.3237 11.2885 15.1343 11.7407 14.9013 12.1657C14.6488 12.6261 14.6849 13.2091 15.0562 13.5804C15.5059 14.0301 16.2526 13.9884 16.5773 13.4416C17.0061 12.7195 17.3361 11.9321 17.5487 11.0978C17.7056 10.4824 17.2077 9.92603 16.5727 9.92603Z" fill="#8C9C9A"/>
<path d="M13.5805 15.0561C13.2092 14.6847 12.6261 14.6487 12.1656 14.9012C11.7407 15.1342 11.2885 15.3235 10.8151 15.4629C10.3121 15.611 9.92603 16.0481 9.92603 16.5725C9.92603 17.2074 10.4824 17.7053 11.0977 17.5485C11.9322 17.3358 12.7196 17.0058 13.4417 16.577C13.9885 16.2523 14.0302 15.5057 13.5805 15.0561Z" fill="#8C9C9A"/>
<path d="M2.7088 13.5804C3.08011 13.2091 3.11619 12.6261 2.86373 12.1657C2.63071 11.7407 2.44134 11.2885 2.30191 10.8151C2.15377 10.3121 1.71666 9.92603 1.19233 9.92603C0.557356 9.92603 0.0594564 10.4824 0.216285 11.0977C0.428954 11.9321 0.758963 12.7195 1.18772 13.4416C1.51244 13.9884 2.25909 14.0301 2.7088 13.5804Z" fill="#8C9C9A"/>
<path d="M7.83862 15.6609C7.83865 15.6609 7.83865 15.6609 7.83863 15.6609C6.79473 15.5009 5.82844 15.1037 4.99454 14.5276C4.89898 14.4616 4.76942 14.4711 4.68729 14.5532L4.18456 15.0559C3.73482 15.5057 3.77651 16.2524 4.32339 16.5771C5.06756 17.019 5.88112 17.356 6.74402 17.5678C7.3196 17.709 7.8386 17.2446 7.8386 16.6519V15.6609C7.8386 15.6609 7.83861 15.6609 7.83862 15.6609Z" fill="#8C9C9A"/>
</svg>
