<svg width="15" height="13" viewBox="0 0 15 13" fill="none" xmlns="http://www.w3.org/2000/svg">
<path d="M14.2627 2.22171V1.07761C14.2624 0.791913 14.1504 0.518012 13.9514 0.315993C13.7523 0.113973 13.4824 0.000332733 13.201 0H3.6522C3.28276 0.00041982 2.92856 0.149549 2.66731 0.414676C2.40606 0.679802 2.25908 1.03928 2.25862 1.41425C2.25862 1.43935 2.25928 1.46429 2.2606 1.48908H2.25862V6.20294C1.73822 6.39794 1.27173 6.71725 0.898579 7.13386C0.525428 7.55048 0.256591 8.05216 0.114792 8.59648C-0.0270064 9.14081 -0.037597 9.71179 0.0839155 10.2612C0.205428 10.8105 0.455471 11.3221 0.812908 11.7527C1.17034 12.1832 1.62467 12.5201 2.13747 12.7349C2.65027 12.9496 3.20647 13.0359 3.75906 12.9864C4.31165 12.9369 4.84437 12.7531 5.3122 12.4506C5.78003 12.148 6.16921 11.7356 6.44684 11.2481H13.9383C14.2198 11.2478 14.4896 11.1342 14.6887 10.9321C14.8877 10.7301 14.9997 10.4562 15 10.1705V3.24792C14.9997 3.01973 14.9282 2.7975 14.7958 2.61312C14.6633 2.42875 14.4767 2.29172 14.2627 2.22171ZM3.6522 0.658511H13.2009C13.3104 0.658645 13.4153 0.702841 13.4927 0.781402C13.5701 0.859964 13.6137 0.966478 13.6138 1.07758V2.17016H3.6522C3.55362 2.17142 3.45577 2.1528 3.36433 2.11538C3.2729 2.07796 3.18969 2.02249 3.11954 1.95218C3.04939 1.88187 2.99369 1.79812 2.95567 1.7058C2.91766 1.61347 2.89808 1.5144 2.89808 1.41434C2.89808 1.31427 2.91766 1.2152 2.95567 1.12287C2.99369 1.03055 3.04939 0.946801 3.11954 0.876491C3.18969 0.806181 3.2729 0.750708 3.36433 0.71329C3.45577 0.675871 3.55362 0.657251 3.6522 0.658511ZM3.45625 12.3414C2.90115 12.3414 2.35851 12.1744 1.89696 11.8614C1.43541 11.5483 1.07568 11.1034 0.863248 10.5829C0.65082 10.0624 0.595239 9.48964 0.703534 8.93706C0.811829 8.38448 1.07914 7.8769 1.47165 7.47851C1.86417 7.08012 2.36427 6.80882 2.9087 6.6989C3.45314 6.58898 4.01746 6.6454 4.53031 6.861C5.04316 7.07661 5.48149 7.44173 5.78989 7.91018C6.09829 8.37864 6.2629 8.92939 6.2629 9.4928C6.26206 10.248 5.9661 10.9721 5.43993 11.5062C4.91376 12.0402 4.20036 12.3406 3.45625 12.3414ZM14.3512 7.4137H13.3922C13.2053 7.41247 13.0265 7.33627 12.8948 7.20173C12.7631 7.06718 12.6892 6.88521 12.6892 6.69555C12.6892 6.50588 12.7631 6.32391 12.8948 6.18937C13.0265 6.05482 13.2053 5.97862 13.3922 5.97739H14.3512V7.4137ZM14.3512 5.31885H13.3922C13.0335 5.32055 12.6902 5.46634 12.4372 5.72434C12.1841 5.98233 12.0421 6.33153 12.0421 6.69555C12.0421 7.05956 12.1841 7.40876 12.4372 7.66675C12.6902 7.92475 13.0335 8.07054 13.3922 8.07224H14.3512V10.1706C14.3511 10.2817 14.3075 10.3882 14.2301 10.4668C14.1527 10.5453 14.0478 10.5895 13.9383 10.5897H6.73849C6.92384 10.0179 6.96111 9.40733 6.84671 8.81671C6.73231 8.22609 6.47008 7.67528 6.08527 7.21728C5.70045 6.75928 5.20599 6.40949 4.64945 6.20156C4.0929 5.99363 3.493 5.93455 2.90746 6.03002V2.60899C3.13001 2.75276 3.38839 2.82902 3.6522 2.82879H13.9383C14.0477 2.82893 14.1527 2.87313 14.2301 2.95169C14.3075 3.03025 14.351 3.13676 14.3512 3.24786L14.3512 5.31885Z" fill="#495352"/>
</svg>
