<svg width="34" height="31" viewBox="0 0 34 31" fill="none" xmlns="http://www.w3.org/2000/svg">
<path d="M34 15.8843C34 18.3181 34 20.752 34 23.1859C33.7385 23.6983 33.3462 23.6983 32.9538 23.6983C32.9538 23.8264 32.9538 23.9545 32.9538 24.0826C32.9538 25.4917 32.9538 26.7727 32.9538 28.1818C32.9538 29.8471 31.9077 31 30.0769 31C21.0538 31 11.9 31 2.87692 31C2.61538 31 2.35385 31 2.09231 30.8719C0.784615 30.4876 0 29.4628 0 28.1818C0 21.0082 0 13.9628 0 6.78922C0 5.12393 1.04615 3.97104 2.87692 3.97104C5.62308 3.97104 8.23846 3.97104 10.9846 3.97104C11.2462 3.97104 11.5077 3.97104 11.6385 3.97104C17 2.69005 22.2308 1.40905 27.5923 0.256162C28.7692 -3.62545e-05 29.5538 0.384261 29.8154 1.53715C29.9462 2.17765 30.0769 2.81815 30.2077 3.45864C30.3385 3.84294 30.3385 4.09914 30.8615 4.22724C32.0385 4.48344 32.8231 5.50823 32.8231 6.78922C32.8231 9.6074 32.8231 12.2975 32.8231 15.1157C32.8231 15.2438 32.8231 15.3719 32.8231 15.5C33.3462 15.3719 33.7385 15.3719 34 15.8843ZM1.04615 8.58261C1.04615 8.71071 1.04615 8.83881 1.04615 8.96691C1.04615 15.3719 1.04615 21.7768 1.04615 28.1818C1.04615 28.3099 1.04615 28.438 1.04615 28.5661C1.17692 29.0785 1.43846 29.5909 1.96154 29.8471C2.22308 29.9752 2.61538 29.9752 3.00769 29.9752C12.0308 29.9752 21.0538 29.9752 29.9462 29.9752C30.0769 29.9752 30.0769 29.9752 30.2077 29.9752C31.2538 29.9752 31.7769 29.3347 31.7769 28.3099C31.7769 26.9008 31.7769 25.3636 31.7769 23.9545C31.7769 23.8264 31.7769 23.8264 31.7769 23.6983C31.6462 23.6983 31.5154 23.6983 31.3846 23.6983C29.0308 23.6983 21.4462 23.6983 19.0923 23.6983C18.3077 23.6983 18.0462 23.4421 18.0462 22.6735C18.0462 20.6239 18.0462 18.4462 18.0462 16.3967C18.0462 15.6281 18.3077 15.3719 19.0923 15.3719C21.4462 15.3719 29.0308 15.3719 31.3846 15.3719C31.5154 15.3719 31.6462 15.3719 31.7769 15.3719C31.7769 13.7066 31.7769 12.1694 31.7769 10.5041C31.7769 9.9917 31.5154 9.4793 30.9923 9.3512C30.7308 9.22311 30.3385 9.09501 29.9462 9.09501C21.0538 9.09501 12.2923 9.09501 3.4 9.09501C2.61538 9.09501 1.83077 9.09501 1.04615 8.58261ZM29.8154 6.02063C29.8154 5.89253 29.8154 5.89253 29.8154 5.76443C29.4231 4.35534 29.1615 3.07434 28.7692 1.66525C28.6385 1.15286 28.3769 1.02476 27.8538 1.15286C21.7077 2.56195 15.4308 3.97104 9.28462 5.50823C8.63077 5.63633 7.97692 5.76443 7.45385 6.02063C7.45385 6.02063 7.45385 6.02063 7.45385 6.14873C7.58462 6.14873 7.71538 6.14873 7.84615 6.14873C14.2538 6.14873 20.7923 6.14873 27.2 6.14873C27.3308 6.14873 27.4615 6.14873 27.7231 6.14873C27.9846 6.14873 28.1154 6.40492 28.1154 6.66112C28.1154 6.91732 27.9846 7.17352 27.5923 7.17352C27.4615 7.17352 27.3308 7.17352 27.2 7.17352C19.0923 7.17352 10.9846 7.17352 2.87692 7.17352C2.74615 7.17352 2.61538 7.17352 2.48462 7.17352C2.22308 7.17352 2.09231 7.04542 2.09231 6.78922C2.09231 6.66112 2.22308 6.40492 2.35385 6.27682C2.35385 6.27682 2.48462 6.14873 2.61538 6.14873C3.92308 5.63633 5.23077 5.38013 6.53846 5.12393C6.66923 5.12393 6.66923 5.12393 6.8 4.99583C5.49231 4.99583 4.18462 4.99583 2.87692 4.99583C2.74615 4.99583 2.61538 4.99583 2.48462 4.99583C1.83077 5.12393 1.43846 5.38013 1.17692 5.89253C0.915385 6.53302 1.04615 7.04542 1.43846 7.55782C1.83077 8.07021 2.35385 8.19831 2.87692 8.19831C11.6385 8.19831 20.4 8.19831 29.2923 8.19831C30.2077 8.19831 31.1231 8.19831 31.9077 8.71071C31.9077 7.81401 31.2538 7.17352 30.3385 7.17352C30.0769 7.17352 29.9462 7.17352 29.6846 7.17352C29.4231 7.17352 29.2923 6.91732 29.2923 6.66112C29.2923 6.53302 29.4231 6.27682 29.5538 6.14873C29.5538 6.02063 29.6846 6.02063 29.8154 6.02063ZM32.8231 22.5454C32.8231 20.4958 32.8231 18.4462 32.8231 16.3967C29.9462 16.3967 21.9692 16.3967 19.0923 16.3967C19.0923 18.4462 19.0923 20.4958 19.0923 22.5454C21.9692 22.5454 30.0769 22.5454 32.8231 22.5454ZM31.7769 6.53302C31.9077 5.89253 31.2538 5.12393 30.7308 5.12393C30.8615 5.50823 30.8615 5.76443 30.9923 6.02063L31.1231 6.14873C31.2538 6.27682 31.5154 6.40492 31.7769 6.53302Z" fill="#8C9C9A"/>
<path d="M23.1462 21.0082C22.2308 21.0082 21.5769 20.3677 21.5769 19.471C21.5769 18.5743 22.2308 17.9338 23.0154 17.9338C23.2769 17.9338 23.5385 18.0619 23.6692 18.3181C23.6692 18.5743 23.5385 18.8305 23.2769 18.9586C22.8846 19.0867 22.6231 19.2148 22.6231 19.471C22.6231 19.7272 22.7539 19.8553 23.1462 19.9834C23.4077 19.9834 23.6692 19.8553 23.8 19.3429C23.9308 19.0867 24.0615 18.8305 24.3231 18.9586C24.5846 18.9586 24.8462 19.2148 24.8462 19.471C24.7154 20.3677 23.9308 21.0082 23.1462 21.0082Z" fill="#8C9C9A"/>
</svg>
