<svg width="38" height="82" viewBox="0 0 38 82" fill="none" xmlns="http://www.w3.org/2000/svg">
<path d="M9.22852 72.2466C9.22852 73.228 9.05762 74.0898 8.71582 74.832C8.37891 75.5742 7.89551 76.1455 7.26562 76.5459C6.63574 76.9463 5.9082 77.1465 5.08301 77.1465C3.83789 77.1465 2.83203 76.7021 2.06543 75.8135C1.29883 74.9199 0.915527 73.7163 0.915527 72.2026V71.104C0.915527 70.1323 1.08643 69.2729 1.42822 68.5259C1.7749 67.7739 2.26318 67.1978 2.89307 66.7974C3.52295 66.3921 4.24805 66.1895 5.06836 66.1895C5.88867 66.1895 6.61133 66.3872 7.23633 66.7827C7.86621 67.1782 8.35205 67.7373 8.69385 68.46C9.03564 69.1826 9.21387 70.02 9.22852 70.9722V72.2466ZM8.32764 71.0894C8.32764 69.8052 8.03711 68.7993 7.45605 68.0718C6.875 67.3442 6.0791 66.9805 5.06836 66.9805C4.07715 66.9805 3.28613 67.3467 2.69531 68.0791C2.10938 68.8066 1.81641 69.8247 1.81641 71.1333V72.2466C1.81641 73.5112 2.10938 74.5146 2.69531 75.2568C3.28125 75.9941 4.07715 76.3628 5.08301 76.3628C6.10352 76.3628 6.89941 75.999 7.4707 75.2715C8.04199 74.5391 8.32764 73.521 8.32764 72.2173V71.0894ZM14.6873 69.6025C15.6932 69.6025 16.5086 69.9321 17.1336 70.5913C17.7586 71.2456 18.0711 72.1147 18.0711 73.1987V73.3892C18.0711 74.1069 17.9271 74.7539 17.639 75.3301C17.3558 75.9014 16.9456 76.3481 16.4085 76.6704C15.8763 76.9878 15.2635 77.1465 14.5701 77.1465C13.5252 77.1465 12.678 76.7998 12.0286 76.1064C11.3841 75.4082 11.0618 74.478 11.0618 73.3159V72.6128C11.0618 70.9722 11.3743 69.6611 11.9993 68.6797C12.6243 67.6982 13.513 67.1123 14.6653 66.9219C15.3929 66.8047 15.9031 66.646 16.1961 66.4458C16.4939 66.2456 16.6429 65.9722 16.6429 65.6255H17.3973C17.3973 66.0356 17.3118 66.375 17.1409 66.6436C16.97 66.9121 16.7137 67.1294 16.3719 67.2954C16.0301 67.4565 15.5076 67.5933 14.8045 67.7056C13.9988 67.8325 13.3494 68.1768 12.8562 68.7383C12.368 69.2949 12.0506 70.042 11.9041 70.9795C12.2166 70.5693 12.6072 70.2373 13.076 69.9834C13.5496 69.7295 14.0867 69.6025 14.6873 69.6025ZM11.9407 73.2061V73.3892C11.9407 74.2827 12.1824 75.0103 12.6658 75.5718C13.1492 76.1284 13.784 76.4067 14.5701 76.4067C15.3611 76.4067 15.9959 76.126 16.4744 75.5645C16.9529 74.998 17.1922 74.2559 17.1922 73.3379V73.1475C17.1922 72.3223 16.948 71.6484 16.4598 71.126C15.9764 70.6035 15.3416 70.3423 14.5555 70.3423C13.7693 70.3423 13.137 70.6084 12.6585 71.1406C12.18 71.668 11.9407 72.3564 11.9407 73.2061ZM19.4723 72.9204C19.4723 72.1587 19.6187 71.4727 19.9117 70.8623C20.2096 70.252 20.6271 69.7783 21.1642 69.4414C21.7062 69.0996 22.3189 68.9287 23.0025 68.9287C24.0572 68.9287 24.9117 69.2998 25.566 70.042C26.2203 70.7793 26.5475 71.7583 26.5475 72.979V73.1621C26.5475 73.9287 26.3985 74.6196 26.1007 75.2349C25.8077 75.8452 25.3927 76.3164 24.8556 76.6484C24.3185 76.9805 23.7057 77.1465 23.0172 77.1465C21.9674 77.1465 21.1129 76.7778 20.4537 76.0405C19.7994 75.2983 19.4723 74.3169 19.4723 73.0962V72.9204ZM20.3512 73.1621C20.3512 74.1094 20.5953 74.8882 21.0836 75.4985C21.5768 76.104 22.2213 76.4067 23.0172 76.4067C23.8082 76.4067 24.4479 76.104 24.9361 75.4985C25.4293 74.8882 25.6759 74.085 25.6759 73.0889V72.9204C25.6759 72.3149 25.5636 71.7607 25.339 71.2578C25.1144 70.7549 24.7994 70.3667 24.3941 70.0933C23.9889 69.8149 23.525 69.6758 23.0025 69.6758C22.2213 69.6758 21.5841 69.9834 21.0909 70.5986C20.5978 71.209 20.3512 72.0098 20.3512 73.001V73.1621ZM33.7714 69.0752H34.6503V77H33.7714V70.4888L29.494 77H28.6225V69.0752H29.494V75.5938L33.7714 69.0752Z" fill="#30C4AE"/>
<path d="M37.74 34.18V23H33.39V21.6C33.3874 20.6788 33.0196 19.7962 32.3672 19.1457C31.7149 18.4953 30.8313 18.13 29.91 18.13H4.52004C3.59882 18.13 2.71518 18.4953 2.06284 19.1457C1.4105 19.7962 1.04269 20.6788 1.04004 21.6V26.32C1.04004 27.243 1.40668 28.1281 2.05931 28.7807C2.71193 29.4334 3.59709 29.8 4.52004 29.8H29.96C30.8718 29.7843 31.7411 29.4125 32.3822 28.764C33.0232 28.1155 33.3849 27.2418 33.39 26.33V24.94H35.76V32.27H16.28V36.27C15.6319 36.3181 15.026 36.6099 14.5844 37.0867C14.1428 37.5636 13.8983 38.1901 13.9 38.84V47.39C13.8961 47.7305 13.9596 48.0684 14.0868 48.3842C14.2141 48.7001 14.4026 48.9876 14.6415 49.2302C14.8804 49.4728 15.165 49.6658 15.4788 49.7979C15.7927 49.93 16.1295 49.9987 16.47 50H18.01C18.3484 50 18.6834 49.9332 18.9959 49.8034C19.3083 49.6736 19.5921 49.4834 19.8308 49.2437C20.0696 49.004 20.2587 48.7195 20.3873 48.4066C20.5159 48.0936 20.5814 47.7583 20.58 47.42V43C20.6235 42.851 20.6317 42.6939 20.6039 42.5411C20.5761 42.3884 20.5132 42.2442 20.42 42.12C20.3269 41.9958 20.2061 41.895 20.0673 41.8256C19.9284 41.7562 19.7753 41.72 19.62 41.72C19.4648 41.72 19.3117 41.7562 19.1728 41.8256C19.034 41.895 18.9132 41.9958 18.82 42.12C18.7269 42.2442 18.6639 42.3884 18.6362 42.5411C18.6084 42.6939 18.6166 42.851 18.66 43V47.39C18.6601 47.5607 18.593 47.7245 18.4732 47.8461C18.3535 47.9677 18.1907 48.0374 18.02 48.04H16.47C16.2976 48.04 16.1323 47.9715 16.0104 47.8496C15.8885 47.7277 15.82 47.5624 15.82 47.39V38.88C15.82 38.7076 15.8885 38.5423 16.0104 38.4204C16.1323 38.2985 16.2976 38.23 16.47 38.23H18.01C18.1799 38.2351 18.3412 38.3056 18.4604 38.4266C18.5796 38.5477 18.6475 38.7101 18.65 38.88V39.19C18.7106 39.3977 18.8369 39.5802 19.01 39.71C19.1831 39.8398 19.3937 39.91 19.61 39.91C19.8264 39.91 20.0369 39.8398 20.21 39.71C20.3831 39.5802 20.5095 39.3977 20.57 39.19V38.88C20.572 38.2317 20.3289 37.6066 19.8893 37.1299C19.4498 36.6533 18.8464 36.3605 18.2 36.31V34.18H37.74ZM31.52 26.33C31.52 26.7437 31.3557 27.1405 31.0631 27.4331C30.7706 27.7256 30.3738 27.89 29.96 27.89H4.52004C4.1063 27.89 3.70951 27.7256 3.41695 27.4331C3.1244 27.1405 2.96004 26.7437 2.96004 26.33V21.61C2.96003 21.4056 3.00046 21.2032 3.07898 21.0145C3.15749 20.8258 3.27256 20.6545 3.41755 20.5104C3.56255 20.3664 3.7346 20.2524 3.92381 20.1751C4.11302 20.0978 4.31565 20.0587 4.52004 20.06H29.96C30.372 20.06 30.7673 20.223 31.0596 20.5134C31.3519 20.8038 31.5174 21.198 31.52 21.61V26.33Z" fill="#067362"/>
<path d="M32.9901 50H22.1101C21.9024 49.9394 21.72 49.8131 21.5901 49.64C21.4603 49.4669 21.3901 49.2564 21.3901 49.04C21.3901 48.8237 21.4603 48.6131 21.5901 48.44C21.72 48.2669 21.9024 48.1406 22.1101 48.08H32.9901C33.7407 48.08 34.4605 47.7819 34.9912 47.2511C35.522 46.7204 35.8201 46.0006 35.8201 45.25V37.25C35.8807 37.0423 36.007 36.8599 36.1801 36.73C36.3532 36.6002 36.5638 36.53 36.7801 36.53C36.9965 36.53 37.207 36.6002 37.3801 36.73C37.5532 36.8599 37.6796 37.0423 37.7401 37.25V45.25C37.7375 46.509 37.2362 47.7156 36.346 48.6059C35.4557 49.4961 34.2491 49.9974 32.9901 50Z" fill="#067362"/>
<path d="M37.74 4.76V19.1C37.6794 19.3077 37.5531 19.4902 37.38 19.62C37.2069 19.7498 36.9964 19.82 36.78 19.82C36.5636 19.82 36.3531 19.7498 36.18 19.62C36.0069 19.4902 35.8806 19.3077 35.82 19.1V10H10.39C10.241 10.0435 10.0839 10.0516 9.93112 10.0239C9.77837 9.9961 9.6342 9.93315 9.51 9.84C9.3858 9.74685 9.285 9.62607 9.21557 9.48721C9.14615 9.34836 9.11 9.19524 9.11 9.04C9.11 8.88476 9.14615 8.73164 9.21557 8.59279C9.285 8.45393 9.3858 8.33315 9.51 8.24C9.6342 8.14685 9.77837 8.0839 9.93112 8.05613C10.0839 8.02836 10.241 8.03653 10.39 8.08H35.81V4.76C35.81 4.01117 35.5132 3.29286 34.9846 2.76242C34.4561 2.23197 33.7388 1.93265 32.99 1.93H5.79C5.03944 1.93 4.31962 2.22816 3.78889 2.75889C3.25816 3.28962 2.96 4.00944 2.96 4.76V8.08H6.55C6.75772 8.14058 6.94018 8.2669 7.07 8.44C7.19982 8.6131 7.27 8.82363 7.27 9.04C7.27 9.25637 7.19982 9.4669 7.07 9.64C6.94018 9.8131 6.75772 9.93942 6.55 10H2.96V16.65C3.00347 16.799 3.01164 16.9561 2.98387 17.1089C2.9561 17.2616 2.89315 17.4058 2.8 17.53C2.70685 17.6542 2.58607 17.755 2.44721 17.8244C2.30836 17.8939 2.15525 17.93 2 17.93C1.84476 17.93 1.69164 17.8939 1.55279 17.8244C1.41393 17.755 1.29315 17.6542 1.2 17.53C1.10685 17.4058 1.0439 17.2616 1.01613 17.1089C0.988359 16.9561 0.996531 16.799 1.04 16.65V4.76C1.03869 4.13538 1.16058 3.51663 1.3987 2.93918C1.63682 2.36173 1.98649 1.83691 2.4277 1.39478C2.86891 0.952638 3.39299 0.601861 3.96994 0.362527C4.54689 0.123192 5.16538 -1.38419e-06 5.79 0L32.99 0C33.6146 -1.38419e-06 34.2331 0.123192 34.8101 0.362527C35.387 0.601861 35.9111 0.952638 36.3523 1.39478C36.7935 1.83691 37.1432 2.36173 37.3813 2.93918C37.6194 3.51663 37.7413 4.13538 37.74 4.76Z" fill="#067362"/>
<path d="M12.21 50H5.79004C4.53107 49.9974 3.32443 49.4961 2.4342 48.6059C1.54397 47.7156 1.04268 46.509 1.04004 45.25V31.25C1.10062 31.0423 1.22694 30.8599 1.40004 30.73C1.57314 30.6002 1.78367 30.53 2.00004 30.53C2.21641 30.53 2.42694 30.6002 2.60004 30.73C2.77314 30.8599 2.89945 31.0423 2.96004 31.25V45.25C2.96004 46.0006 3.2582 46.7204 3.78893 47.2511C4.31965 47.7819 5.03948 48.08 5.79004 48.08H12.21C12.4178 48.1406 12.6002 48.2669 12.73 48.44C12.8599 48.6131 12.93 48.8237 12.93 49.04C12.93 49.2564 12.8599 49.4669 12.73 49.64C12.6002 49.8131 12.4178 49.9394 12.21 50Z" fill="#067362"/>
<path d="M27.85 7.62005C27.3433 7.624 26.8468 7.47748 26.4234 7.19904C26 6.9206 25.6688 6.52277 25.4716 6.05594C25.2745 5.58911 25.2204 5.07428 25.3161 4.57666C25.4118 4.07903 25.653 3.62101 26.0092 3.26059C26.3654 2.90017 26.8206 2.65358 27.3171 2.55204C27.8135 2.4505 28.329 2.49859 28.7981 2.69022C29.2672 2.88184 29.6689 3.20838 29.9523 3.62847C30.2357 4.04856 30.388 4.54331 30.39 5.05005C30.3927 5.72728 30.1269 6.37797 29.6508 6.85966C29.1748 7.34134 28.5272 7.61476 27.85 7.62005ZM27.85 4.42005C27.7234 4.42005 27.5997 4.45758 27.4944 4.5279C27.3892 4.59823 27.3072 4.69818 27.2587 4.81513C27.2103 4.93207 27.1976 5.06076 27.2223 5.1849C27.247 5.30905 27.3079 5.42309 27.3975 5.51259C27.487 5.6021 27.601 5.66305 27.7251 5.68775C27.8493 5.71244 27.978 5.69977 28.0949 5.65133C28.2119 5.60289 28.3118 5.52086 28.3821 5.41561C28.4525 5.31036 28.49 5.18663 28.49 5.06005C28.49 4.89031 28.4226 4.72752 28.3025 4.6075C28.1825 4.48747 28.0197 4.42005 27.85 4.42005Z" fill="#067362"/>
<path d="M21.69 7.62H13.31C12.631 7.62 11.9799 7.35029 11.4998 6.87019C11.0197 6.3901 10.75 5.73895 10.75 5.06C10.75 4.38105 11.0197 3.7299 11.4998 3.24981C11.9799 2.76971 12.631 2.5 13.31 2.5H21.69C22.369 2.5 23.0201 2.76971 23.5002 3.24981C23.9803 3.7299 24.25 4.38105 24.25 5.06C24.25 5.73895 23.9803 6.3901 23.5002 6.87019C23.0201 7.35029 22.369 7.62 21.69 7.62ZM13.31 4.42C13.1403 4.42 12.9775 4.48743 12.8575 4.60745C12.7374 4.72747 12.67 4.89026 12.67 5.06C12.67 5.22974 12.7374 5.39253 12.8575 5.51255C12.9775 5.63257 13.1403 5.7 13.31 5.7H21.69C21.774 5.7 21.8573 5.68345 21.9349 5.65128C22.0126 5.61912 22.0831 5.57198 22.1425 5.51255C22.202 5.45312 22.2491 5.38257 22.2813 5.30492C22.3134 5.22727 22.33 5.14405 22.33 5.06C22.33 4.97595 22.3134 4.89273 22.2813 4.81508C22.2491 4.73743 22.202 4.66688 22.1425 4.60745C22.0831 4.54802 22.0126 4.50088 21.9349 4.46872C21.8573 4.43655 21.774 4.42 21.69 4.42H13.31Z" fill="#067362"/>
</svg>
