<svg width="104" height="65" viewBox="0 0 104 65" fill="none" xmlns="http://www.w3.org/2000/svg">
<path d="M14.2365 31.016C14.2365 27.5067 15.7858 23.4747 18.8845 18.92L28.9645 3.8H35.0125L25.6605 18.136C25.8472 18.0613 26.0898 18.024 26.3885 18.024C26.6872 17.9867 26.8925 17.968 27.0045 17.968C28.7965 17.968 30.4765 18.304 32.0445 18.976C33.6125 19.6107 34.9565 20.5067 36.0765 21.664C37.2338 22.8213 38.1298 24.184 38.7645 25.752C39.4365 27.2827 39.7725 28.9253 39.7725 30.68C39.7725 32.4347 39.4552 34.096 38.8205 35.664C38.1858 37.1947 37.2898 38.5387 36.1325 39.696C35.0125 40.816 33.6685 41.712 32.1005 42.384C30.5325 43.056 28.8338 43.392 27.0045 43.392C25.1752 43.392 23.4765 43.0747 21.9085 42.44C20.3778 41.8053 19.0338 40.9467 17.8765 39.864C16.7565 38.744 15.8605 37.4373 15.1885 35.944C14.5538 34.4133 14.2365 32.7707 14.2365 31.016ZM27.0045 38.072C28.0125 38.072 28.9458 37.8853 29.8045 37.512C30.7005 37.1013 31.4658 36.56 32.1005 35.888C32.7725 35.216 33.2765 34.432 33.6125 33.536C33.9858 32.64 34.1725 31.688 34.1725 30.68C34.1725 29.672 33.9858 28.72 33.6125 27.824C33.2765 26.928 32.7725 26.144 32.1005 25.472C31.4658 24.8 30.7005 24.2773 29.8045 23.904C28.9458 23.4933 28.0125 23.288 27.0045 23.288C25.9965 23.288 25.0632 23.4933 24.2045 23.904C23.3458 24.2773 22.5992 24.8 21.9645 25.472C21.3672 26.144 20.8818 26.928 20.5085 27.824C20.1725 28.72 20.0045 29.672 20.0045 30.68C20.0045 31.688 20.1725 32.64 20.5085 33.536C20.8818 34.432 21.3672 35.216 21.9645 35.888C22.5992 36.56 23.3458 37.1013 24.2045 37.512C25.0632 37.8853 25.9965 38.072 27.0045 38.072ZM42.1644 36.224L46.7564 33.872C47.503 35.104 48.511 36.0933 49.7804 36.84C51.087 37.5867 52.6177 37.9973 54.3724 38.072C56.7617 38.1093 58.591 37.4933 59.8604 36.224C61.167 34.9547 61.895 33.368 62.0444 31.464C62.231 29.2613 61.6524 27.4693 60.3084 26.088C59.0017 24.7067 57.191 23.9413 54.8764 23.792C53.4577 23.7173 52.2817 23.8293 51.3484 24.128C50.4524 24.4267 49.8924 24.6133 49.6684 24.688L44.7404 23.68L48.6604 3.8H66.3004V9.12H52.5804L50.6764 19.48C51.2737 19.2933 51.983 19.1253 52.8044 18.976C53.6257 18.7893 54.4657 18.7147 55.3244 18.752C57.3777 18.7893 59.1884 19.1627 60.7564 19.872C62.3617 20.544 63.687 21.4587 64.7324 22.616C65.7777 23.736 66.543 25.08 67.0284 26.648C67.5137 28.1787 67.6817 29.84 67.5324 31.632C67.383 33.4613 66.9537 35.1227 66.2444 36.616C65.535 38.072 64.6017 39.3227 63.4444 40.368C62.3244 41.376 60.999 42.16 59.4684 42.72C57.975 43.2427 56.3324 43.4667 54.5404 43.392C53.271 43.3547 52.0017 43.168 50.7324 42.832C49.5004 42.496 48.343 42.0293 47.2604 41.432C46.1777 40.7973 45.1884 40.0507 44.2924 39.192C43.4337 38.3333 42.7244 37.344 42.1644 36.224ZM88.5514 17.8H92.4034L76.6354 43H72.7834L88.5514 17.8ZM83.9434 38.104C83.9434 37.384 84.0754 36.712 84.3394 36.088C84.6274 35.464 84.9994 34.924 85.4554 34.468C85.9354 33.988 86.4874 33.616 87.1114 33.352C87.7354 33.064 88.4074 32.92 89.1274 32.92C89.8474 32.92 90.5194 33.064 91.1434 33.352C91.7674 33.616 92.3074 33.988 92.7634 34.468C93.2434 34.924 93.6154 35.464 93.8794 36.088C94.1674 36.712 94.3114 37.384 94.3114 38.104C94.3114 38.824 94.1674 39.496 93.8794 40.12C93.6154 40.744 93.2434 41.296 92.7634 41.776C92.3074 42.232 91.7674 42.592 91.1434 42.856C90.5194 43.12 89.8474 43.252 89.1274 43.252C88.4074 43.252 87.7354 43.12 87.1114 42.856C86.4874 42.592 85.9354 42.232 85.4554 41.776C84.9994 41.296 84.6274 40.744 84.3394 40.12C84.0754 39.496 83.9434 38.824 83.9434 38.104ZM75.9874 17.584C76.7074 17.584 77.3794 17.716 78.0034 17.98C78.6274 18.244 79.1674 18.616 79.6234 19.096C80.1034 19.552 80.4754 20.092 80.7394 20.716C81.0034 21.34 81.1354 22.012 81.1354 22.732C81.1354 23.452 81.0034 24.124 80.7394 24.748C80.4754 25.372 80.1034 25.924 79.6234 26.404C79.1674 26.86 78.6274 27.232 78.0034 27.52C77.3794 27.784 76.7074 27.916 75.9874 27.916C75.2674 27.916 74.5954 27.784 73.9714 27.52C73.3474 27.232 72.7954 26.86 72.3154 26.404C71.8594 25.924 71.4874 25.372 71.1994 24.748C70.9354 24.124 70.8034 23.452 70.8034 22.732C70.8034 22.012 70.9354 21.34 71.1994 20.716C71.4874 20.092 71.8594 19.552 72.3154 19.096C72.7954 18.616 73.3474 18.244 73.9714 17.98C74.5954 17.716 75.2674 17.584 75.9874 17.584ZM89.1274 40.444C89.7754 40.444 90.3274 40.216 90.7834 39.76C91.2394 39.304 91.4674 38.752 91.4674 38.104C91.4674 37.456 91.2394 36.904 90.7834 36.448C90.3274 35.968 89.7754 35.728 89.1274 35.728C88.4794 35.728 87.9154 35.968 87.4354 36.448C86.9794 36.904 86.7514 37.456 86.7514 38.104C86.7514 38.752 86.9794 39.304 87.4354 39.76C87.9154 40.216 88.4794 40.444 89.1274 40.444ZM75.9874 25.108C76.6354 25.108 77.1874 24.88 77.6434 24.424C78.0994 23.944 78.3274 23.38 78.3274 22.732C78.3274 22.084 78.0994 21.532 77.6434 21.076C77.1874 20.62 76.6354 20.392 75.9874 20.392C75.3394 20.392 74.7754 20.62 74.2954 21.076C73.8394 21.532 73.6114 22.084 73.6114 22.732C73.6114 23.38 73.8394 23.944 74.2954 24.424C74.7754 24.88 75.3394 25.108 75.9874 25.108Z" fill="#5E968D"/>
<path d="M9.61387 11.4922H10.3707L10.3658 13.7236H9.76523V12H4.40391V13.7236H3.80332V11.4922H4.27695C4.63828 11.1146 4.92962 10.5645 5.15098 9.8418C5.37559 9.11589 5.51068 8.32161 5.55625 7.45898L5.6832 4.89062H9.61387V11.4922ZM4.9752 11.4922H9.01328V5.40332H6.25938L6.16172 7.43945C6.1194 8.28581 5.99408 9.06543 5.78574 9.77832C5.58066 10.4912 5.31048 11.0625 4.9752 11.4922ZM16.9281 8.83105C16.9281 9.48535 16.8142 10.0599 16.5863 10.5547C16.3617 11.0495 16.0395 11.4303 15.6195 11.6973C15.1996 11.9642 14.7146 12.0977 14.1645 12.0977C13.3344 12.0977 12.6638 11.8014 12.1527 11.209C11.6417 10.6133 11.3861 9.81087 11.3861 8.80176V8.06934C11.3861 7.42155 11.5001 6.84863 11.7279 6.35059C11.959 5.84928 12.2846 5.46517 12.7045 5.19824C13.1244 4.92806 13.6078 4.79297 14.1547 4.79297C14.7016 4.79297 15.1833 4.9248 15.6 5.18848C16.0199 5.45215 16.3438 5.82487 16.5717 6.30664C16.7995 6.78841 16.9184 7.34668 16.9281 7.98145V8.83105ZM16.3275 8.05957C16.3275 7.20345 16.1339 6.53288 15.7465 6.04785C15.3591 5.56283 14.8285 5.32031 14.1547 5.32031C13.4939 5.32031 12.9665 5.56445 12.5727 6.05273C12.182 6.53776 11.9867 7.21647 11.9867 8.08887V8.83105C11.9867 9.67415 12.182 10.3431 12.5727 10.8379C12.9633 11.3294 13.4939 11.5752 14.1645 11.5752C14.8448 11.5752 15.3754 11.3327 15.7563 10.8477C16.1371 10.3594 16.3275 9.68066 16.3275 8.81152V8.05957Z" fill="#8C9C9A"/>
<path d="M17.7119 54.2197H15.041V59H14.4551V53.7168H17.7119V54.2197ZM25.2197 56.2803C25.2197 55.7725 25.3174 55.3151 25.5127 54.9082C25.7113 54.5013 25.9896 54.1855 26.3477 53.9609C26.709 53.7331 27.1175 53.6191 27.5732 53.6191C28.2764 53.6191 28.846 53.8665 29.2822 54.3613C29.7184 54.8529 29.9365 55.5055 29.9365 56.3193V56.4414C29.9365 56.9525 29.8372 57.4131 29.6387 57.8232C29.4434 58.2301 29.1667 58.5443 28.8086 58.7656C28.4505 58.987 28.042 59.0977 27.583 59.0977C26.8831 59.0977 26.3135 58.8519 25.874 58.3604C25.4378 57.8656 25.2197 57.2113 25.2197 56.3975V56.2803ZM25.8057 56.4414C25.8057 57.0729 25.9684 57.5921 26.2939 57.999C26.6227 58.4027 27.0524 58.6045 27.583 58.6045C28.1104 58.6045 28.5368 58.4027 28.8623 57.999C29.1911 57.5921 29.3555 57.0566 29.3555 56.3926V56.2803C29.3555 55.8766 29.2806 55.5072 29.1309 55.1719C28.9811 54.8366 28.7712 54.5778 28.501 54.3955C28.2308 54.21 27.9215 54.1172 27.5732 54.1172C27.0524 54.1172 26.6276 54.3223 26.2988 54.7324C25.9701 55.1393 25.8057 55.6732 25.8057 56.334V56.4414ZM37.6738 58.5068L37.9326 58.1699C38.3428 57.6133 38.5788 56.7995 38.6406 55.7285L38.7334 53.7168H41.8535V58.5068H42.4004V60.5527H41.8193V59H37.8496V60.5527H37.2881L37.293 58.5068H37.6738ZM38.3477 58.5068H41.2676V54.2637H39.29L39.2266 55.6357C39.168 56.8955 38.875 57.8525 38.3477 58.5068ZM50.2061 56.2803C50.2061 55.7725 50.3037 55.3151 50.499 54.9082C50.6976 54.5013 50.9759 54.1855 51.334 53.9609C51.6953 53.7331 52.1038 53.6191 52.5596 53.6191C53.2627 53.6191 53.8324 53.8665 54.2686 54.3613C54.7048 54.8529 54.9229 55.5055 54.9229 56.3193V56.4414C54.9229 56.9525 54.8236 57.4131 54.625 57.8232C54.4297 58.2301 54.153 58.5443 53.7949 58.7656C53.4368 58.987 53.0283 59.0977 52.5693 59.0977C51.8695 59.0977 51.2998 58.8519 50.8604 58.3604C50.4242 57.8656 50.2061 57.2113 50.2061 56.3975V56.2803ZM50.792 56.4414C50.792 57.0729 50.9548 57.5921 51.2803 57.999C51.609 58.4027 52.0387 58.6045 52.5693 58.6045C53.0967 58.6045 53.5231 58.4027 53.8486 57.999C54.1774 57.5921 54.3418 57.0566 54.3418 56.3926V56.2803C54.3418 55.8766 54.2669 55.5072 54.1172 55.1719C53.9674 54.8366 53.7575 54.5778 53.4873 54.3955C53.2171 54.21 52.9079 54.1172 52.5596 54.1172C52.0387 54.1172 51.6139 54.3223 51.2852 54.7324C50.9564 55.1393 50.792 55.6732 50.792 56.334V56.4414ZM63.1973 59V53.7168H65.1357C65.8063 53.7168 66.3206 53.8372 66.6787 54.0781C67.0368 54.3158 67.2158 54.6657 67.2158 55.1279C67.2158 55.3916 67.1361 55.6276 66.9766 55.8359C66.8171 56.041 66.5843 56.1908 66.2783 56.2852C66.6234 56.3503 66.9001 56.4984 67.1084 56.7295C67.32 56.9606 67.4258 57.2292 67.4258 57.5352C67.4258 58.0007 67.2533 58.362 66.9082 58.6191C66.5664 58.873 66.0814 59 65.4531 59H63.1973ZM63.7783 56.5684V58.5117H65.4727C65.9121 58.5117 66.2507 58.4271 66.4883 58.2578C66.7259 58.0885 66.8447 57.8444 66.8447 57.5254C66.8447 57.2324 66.7259 56.9997 66.4883 56.8271C66.2507 56.6546 65.9121 56.5684 65.4727 56.5684H63.7783ZM63.7783 56.0801H65.2578C66.1758 56.0671 66.6348 55.7546 66.6348 55.1426C66.6348 54.8203 66.5078 54.5859 66.2539 54.4395C66.0033 54.2897 65.6305 54.2148 65.1357 54.2148H63.7783V56.0801ZM76.374 55.6357H77.8975C78.2881 55.6357 78.6299 55.7074 78.9229 55.8506C79.2191 55.9906 79.4421 56.1859 79.5918 56.4365C79.7448 56.6872 79.8213 56.9785 79.8213 57.3105C79.8213 57.8216 79.6455 58.2318 79.2939 58.541C78.9456 58.847 78.4736 59 77.8779 59H75.793V53.7168H76.374V55.6357ZM76.374 56.1338V58.5068H77.8877C78.3076 58.5068 78.6364 58.401 78.874 58.1895C79.1149 57.9779 79.2354 57.6882 79.2354 57.3203C79.2354 56.9688 79.1182 56.6855 78.8838 56.4707C78.6527 56.2526 78.3353 56.1403 77.9316 56.1338H76.374ZM81.6133 59H81.0273V53.7168H81.6133V59ZM91.8994 55.8604L93.3252 53.7168H94.0186L92.2266 56.3096L94.0967 59H93.4082L91.9043 56.7637L90.4004 59H89.7119L91.5771 56.3096L89.7852 53.7168H90.4736L91.8994 55.8604Z" fill="#5E968D"/>
</svg>
