<svg width="10" height="18" viewBox="0 0 10 18" fill="none" xmlns="http://www.w3.org/2000/svg">
<path d="M4.21558 0V1.8H4.2002V3.61538C4.43096 3.58462 4.67712 3.56923 4.95404 3.56923C5.4002 3.56923 5.8002 3.61538 6.10789 3.70769C6.41558 3.8 6.70789 3.93846 6.92327 4.09231C7.15404 4.26154 7.33866 4.44615 7.47712 4.64615C7.61558 4.84615 7.73866 5.06154 7.83096 5.29231L9.55404 4.70769C9.2925 4.01538 8.86173 3.41538 8.27712 2.89231C7.6925 2.36923 6.92327 2.03077 6.01558 1.86154V0.0153847H4.21558V0Z" fill="#067362"/>
<path d="M6.01539 17.0306V15.2306V13.3845C5.76923 13.4306 5.52308 13.446 5.26154 13.446C4.32308 13.446 3.53846 13.2768 2.95385 12.9229C2.35385 12.5691 1.93846 12.1537 1.69231 11.6768L0 12.2614C0.307692 12.9691 0.815385 13.5845 1.53846 14.1383C2.26154 14.6768 3.15385 15.0306 4.23077 15.1845V17.0306H6.01539Z" fill="#067362"/>
<path d="M7.26187 12.9231C7.21572 12.9538 7.18495 12.9692 7.13879 13V15.0154C7.33879 14.9538 7.53879 14.8923 7.70802 14.8C8.20033 14.5692 8.6311 14.2923 8.96956 13.9538C9.30802 13.6154 9.56956 13.2308 9.73879 12.8C9.90802 12.3692 10.0003 11.9231 10.0003 11.4461C10.0003 10.8615 9.87725 10.3538 9.64648 9.93845C9.40033 9.52307 9.07725 9.16922 8.66187 8.86153C8.24648 8.55384 7.73879 8.30768 7.16956 8.0923C6.60033 7.87692 5.96956 7.67692 5.29264 7.4923C4.24649 7.19999 3.47726 6.90768 3.00033 6.63076C2.50803 6.33845 2.27726 5.93845 2.27726 5.44615C2.27726 5.21538 2.32341 4.99999 2.41572 4.76922C2.50803 4.55384 2.66187 4.35384 2.87726 4.16922C2.93879 4.12307 3.00033 4.07692 3.07726 4.03076V2.03076C2.4311 2.23076 1.87726 2.52307 1.44649 2.93845C0.769565 3.58461 0.415718 4.39999 0.384949 5.36922C0.369565 5.95384 0.461872 6.44615 0.661872 6.84615C0.861872 7.24615 1.1388 7.59999 1.52341 7.8923C1.90803 8.18461 2.35418 8.43076 2.89264 8.63076C3.4311 8.84615 4.0311 9.03076 4.69264 9.23076C5.26187 9.39999 5.75418 9.55384 6.16956 9.6923C6.58495 9.83076 6.95418 9.99999 7.2311 10.1692C7.52341 10.3385 7.73879 10.5385 7.87725 10.7385C8.01572 10.9538 8.09264 11.2154 8.09264 11.5077C8.09264 11.8154 8.01572 12.0769 7.87725 12.3231C7.72341 12.5538 7.52341 12.7538 7.26187 12.9231Z" fill="#067362"/>
</svg>
