<svg width="13" height="22" fill="none" xmlns="http://www.w3.org/2000/svg"><path d="M3.985 3v1.691h-.014v1.706a5.39 5.39 0 01.713-.044c.421 0 .8.044 1.09.13a2.7 2.7 0 01.771.362c.219.159.393.332.524.52s.247.39.335.607l1.629-.55c-.248-.65-.655-1.213-1.208-1.705-.552-.491-1.28-.81-2.138-.968V3.014H3.985V3zm1.702 16v-3.426a3.844 3.844 0 01-.713.058c-.887 0-1.629-.159-2.181-.491-.568-.332-.96-.723-1.193-1.17l-1.6.548c.29.665.77 1.243 1.455 1.764.683.506 1.527.838 2.545.983V19h1.687z" fill="#30C4AE"/><path d="M6.865 15.141c-.043.03-.072.043-.116.072v1.894a2.96 2.96 0 00.538-.203c.466-.216.873-.477 1.193-.794.32-.318.567-.68.727-1.085a3.41 3.41 0 00.248-1.271c0-.55-.117-1.027-.335-1.417a3.416 3.416 0 00-.93-1.012c-.394-.289-.874-.52-1.412-.722a19.816 19.816 0 00-1.774-.564c-.99-.275-1.717-.55-2.168-.81-.465-.274-.683-.65-.683-1.112 0-.217.043-.42.13-.636a1.56 1.56 0 01.626-.694V4.908c-.61.188-1.134.463-1.542.853-.64.607-.974 1.373-1.003 2.283-.015.55.072 1.012.262 1.388.189.376.45.708.814.983.364.274.786.506 1.295.694.509.202 1.076.375 1.701.563.539.16 1.004.304 1.397.434s.742.289 1.003.448c.277.159.48.347.611.535.131.202.204.448.204.722 0 .29-.073.535-.204.767a1.965 1.965 0 01-.582.563z" fill="#30C4AE"/></svg>