<svg width="10" height="17" fill="none" xmlns="http://www.w3.org/2000/svg"><path d="M7.47 11.704c0-.539-.19-.993-.572-1.362-.375-.37-1.01-.703-1.907-1.002-1.248-.381-2.159-.876-2.733-1.486-.569-.615-.853-1.394-.853-2.337 0-.961.279-1.75.835-2.365.563-.615 1.333-.981 2.312-1.098V.129h1.31v1.933c.984.135 1.748.548 2.293 1.24.551.691.826 1.637.826 2.839H7.364c0-.827-.196-1.483-.589-1.97-.392-.485-.922-.729-1.59-.729-.698 0-1.23.182-1.6.545-.37.358-.554.859-.554 1.503 0 .598.194 1.075.58 1.433.393.351 1.035.674 1.925.967.897.287 1.594.606 2.092.958.504.345.873.75 1.107 1.212.24.463.36 1.005.36 1.627 0 .99-.298 1.787-.896 2.39-.592.604-1.424.961-2.496 1.072v1.68h-1.3v-1.68c-1.09-.1-1.946-.486-2.567-1.16-.615-.68-.923-1.6-.923-2.76H2.54c0 .815.214 1.442.642 1.881.427.44 1.034.66 1.819.66.768 0 1.371-.185 1.81-.554.44-.37.66-.873.66-1.512z" fill="#495352"/></svg>