<svg width="100" height="66" fill="none" xmlns="http://www.w3.org/2000/svg"><g filter="url(#filter0_d)" fill="#5E968D"><path d="M10.436 40v-5.32a261.75 261.75 0 003.752-4.088c1.12-1.27 2.408-2.725 3.864-4.368a280.062 280.062 0 004.536-5.376c1.642-2.016 2.8-3.808 3.472-5.376.672-1.568 1.008-2.95 1.008-4.144 0-1.419-.374-2.576-1.12-3.472-.747-.896-1.886-1.4-3.416-1.512-1.68-.112-3.006.317-3.976 1.288-.934.933-1.662 2.147-2.184 3.64L10.94 9.256a18.067 18.067 0 011.68-3.528 11.079 11.079 0 012.464-2.8c1.008-.821 2.184-1.437 3.528-1.848C19.956.632 21.505.445 23.26.52c1.568.075 2.95.41 4.144 1.008 1.232.56 2.258 1.307 3.08 2.24.821.896 1.437 1.96 1.848 3.192.448 1.195.672 2.464.672 3.808 0 2.09-.467 4.256-1.4 6.496-.896 2.203-2.259 4.405-4.088 6.608-.747.896-1.55 1.83-2.408 2.8a171.07 171.07 0 01-2.52 2.8c-.822.933-1.643 1.848-2.464 2.744a81.756 81.756 0 01-2.24 2.464H34.18V40H10.436zM38.3 33.224l4.592-2.352a8.534 8.534 0 003.024 2.968c1.307.747 2.837 1.157 4.592 1.232 2.39.037 4.219-.579 5.488-1.848 1.307-1.27 2.035-2.856 2.184-4.76.187-2.203-.392-3.995-1.736-5.376-1.307-1.381-3.117-2.147-5.432-2.296-1.419-.075-2.595.037-3.528.336l-1.68.56-4.928-1.008L44.797.8h17.64v5.32h-13.72l-1.904 10.36a18.035 18.035 0 012.128-.504 9.465 9.465 0 012.52-.224c2.053.037 3.864.41 5.432 1.12 1.605.672 2.93 1.587 3.976 2.744 1.045 1.12 1.81 2.464 2.296 4.032.485 1.53.653 3.192.504 4.984-.15 1.83-.579 3.49-1.288 4.984a12.194 12.194 0 01-2.8 3.752c-1.12 1.008-2.445 1.792-3.976 2.352-1.493.523-3.136.747-4.928.672a16.764 16.764 0 01-3.808-.56 15.722 15.722 0 01-3.472-1.4 15.878 15.878 0 01-2.968-2.24 11.328 11.328 0 01-2.128-2.968zM84.688 14.8h3.852L72.772 40H68.92l15.768-25.2zM80.08 35.104c0-.72.132-1.392.396-2.016a5.563 5.563 0 011.116-1.62 5.17 5.17 0 011.656-1.116 4.752 4.752 0 012.016-.432c.72 0 1.392.144 2.016.432a4.773 4.773 0 011.62 1.116c.48.456.852.996 1.116 1.62.288.624.432 1.296.432 2.016s-.144 1.392-.432 2.016a5.17 5.17 0 01-1.116 1.656 5.12 5.12 0 01-3.636 1.476 5.12 5.12 0 01-2.016-.396 5.485 5.485 0 01-1.656-1.08 6.088 6.088 0 01-1.116-1.656 5.12 5.12 0 01-.396-2.016zm-7.956-20.52c.72 0 1.392.132 2.016.396a4.773 4.773 0 011.62 1.116c.48.456.852.996 1.116 1.62a5.12 5.12 0 01.396 2.016 5.12 5.12 0 01-1.512 3.672 5.563 5.563 0 01-1.62 1.116 5.12 5.12 0 01-2.016.396 5.12 5.12 0 01-2.016-.396 6.088 6.088 0 01-1.656-1.116 6.088 6.088 0 01-1.116-1.656 5.12 5.12 0 01-.396-2.016c0-.72.132-1.392.396-2.016a5.563 5.563 0 011.116-1.62 5.12 5.12 0 013.672-1.512zm13.14 22.86c.648 0 1.2-.228 1.656-.684a2.256 2.256 0 00.684-1.656c0-.648-.228-1.2-.684-1.656a2.2 2.2 0 00-1.656-.72c-.648 0-1.212.24-1.692.72a2.256 2.256 0 00-.684 1.656c0 .648.228 1.2.684 1.656.48.456 1.044.684 1.692.684zm-13.14-15.336c.648 0 1.2-.228 1.656-.684.456-.48.684-1.044.684-1.692 0-.648-.228-1.2-.684-1.656a2.256 2.256 0 00-1.656-.684c-.648 0-1.212.228-1.692.684a2.256 2.256 0 00-.684 1.656c0 .648.228 1.212.684 1.692.48.456 1.044.684 1.692.684zM13.712 51.22H11.04V56h-.586v-5.283h3.257v.503zm7.508 2.06c0-.508.097-.965.293-1.372.198-.407.477-.723.835-.947a2.25 2.25 0 011.225-.342c.703 0 1.273.248 1.71.742.435.492.653 1.145.653 1.958v.122c0 .511-.099.972-.297 1.382a2.192 2.192 0 01-.83.943 2.282 2.282 0 01-1.226.332c-.7 0-1.27-.246-1.709-.738-.436-.494-.654-1.149-.654-1.962v-.118zm.586.161c0 .632.162 1.151.488 1.558.329.404.758.605 1.289.605.527 0 .954-.201 1.28-.605.328-.407.492-.942.492-1.606v-.113c0-.403-.074-.773-.224-1.108a1.788 1.788 0 00-.63-.776 1.6 1.6 0 00-.928-.279c-.52 0-.945.205-1.274.615-.329.407-.493.941-.493 1.602v.107zm11.868 2.066l.259-.337c.41-.557.646-1.37.708-2.442l.092-2.011h3.12v4.79h.547v2.046h-.58V56h-3.97v1.553h-.562l.005-2.046h.38zm.674 0h2.92v-4.243H35.29l-.063 1.372c-.059 1.26-.352 2.216-.88 2.87zm11.858-2.227c0-.508.098-.965.293-1.372.199-.407.477-.723.835-.947a2.25 2.25 0 011.226-.342c.703 0 1.272.248 1.709.742.436.492.654 1.145.654 1.958v.122c0 .511-.1.972-.298 1.382a2.192 2.192 0 01-.83.943 2.282 2.282 0 01-1.226.332c-.7 0-1.27-.246-1.709-.738-.436-.494-.654-1.149-.654-1.962v-.118zm.586.161c0 .632.163 1.151.488 1.558.329.404.759.605 1.29.605.527 0 .953-.201 1.279-.605.328-.407.493-.942.493-1.606v-.113c0-.403-.075-.773-.225-1.108a1.788 1.788 0 00-.63-.776 1.6 1.6 0 00-.927-.279 1.56 1.56 0 00-1.275.615c-.329.407-.493.941-.493 1.602v.107zM59.197 56v-5.283h1.939c.67 0 1.185.12 1.543.361.358.238.537.588.537 1.05 0 .264-.08.5-.24.708-.159.205-.392.355-.698.45.345.064.622.212.83.444.212.23.318.5.318.805 0 .466-.173.827-.518 1.084-.342.254-.827.381-1.455.381h-2.256zm.581-2.432v1.944h1.695c.44 0 .778-.085 1.015-.254.238-.17.357-.414.357-.733a.82.82 0 00-.357-.698c-.237-.172-.576-.259-1.015-.259h-1.695zm0-.488h1.48c.918-.013 1.377-.325 1.377-.937 0-.323-.127-.557-.381-.703-.25-.15-.623-.225-1.118-.225h-1.358v1.865zm12.596-.444h1.523a2.3 2.3 0 011.026.215c.296.14.52.335.669.586.153.25.23.541.23.873 0 .512-.177.922-.528 1.231-.348.306-.82.459-1.416.459h-2.085v-5.283h.581v1.919zm0 .498v2.373h1.514c.42 0 .748-.106.986-.317.24-.212.361-.502.361-.87 0-.351-.117-.635-.351-.85-.231-.217-.549-.33-.952-.336h-1.558zM77.614 56h-.587v-5.283h.586V56zm10.285-3.14l1.426-2.143h.694l-1.792 2.593 1.87 2.69h-.689l-1.504-2.236L86.4 56h-.688l1.865-2.69-1.792-2.593h.689l1.425 2.143z"/></g><defs><filter id="filter0_d" x="6.436" y=".504" width="88.012" height="65.049" filterUnits="userSpaceOnUse" color-interpolation-filters="sRGB"><feFlood flood-opacity="0" result="BackgroundImageFix"/><feColorMatrix in="SourceAlpha" values="0 0 0 0 0 0 0 0 0 0 0 0 0 0 0 0 0 0 127 0"/><feOffset dy="4"/><feGaussianBlur stdDeviation="2"/><feColorMatrix values="0 0 0 0 0 0 0 0 0 0 0 0 0 0 0 0 0 0 0.25 0"/><feBlend in2="BackgroundImageFix" result="effect1_dropShadow"/><feBlend in="SourceGraphic" in2="effect1_dropShadow" result="shape"/></filter></defs></svg>