<svg width="25" height="22" fill="none" xmlns="http://www.w3.org/2000/svg"><path d="M7.407 18.767H9.26V13.42h4.63v-2.071H9.26V6.194H7.407v5.155h-4.63v2.071h4.63v5.347zM17.699 0l.012 2.325h-.02l.013 2.345c.286-.04.591-.06.935-.06.553 0 1.05.06 1.433.18.382.119.746.298 1.014.496.287.219.518.457.69.716.174.258.328.536.444.835l2.134-.756c-.329-.894-.867-1.669-1.596-2.345-.73-.675-1.686-1.113-2.813-1.331L19.932.02H17.7V0z" fill="#495352"/><path d="M20.046 22l-.011-2.325-.012-2.385c-.305.06-.61.08-.935.08-1.165 0-2.14-.22-2.867-.676-.672-.422-1.404-1.21-1.404-1.21h-2.778c.386.915 1.533 2.064 2.433 2.78.901.695 2.01 1.152 3.348 1.351L17.832 22h2.214z" fill="#495352"/><path d="M21.565 16.694c-.057.04-.095.06-.152.099l.013 2.603c.248-.08.496-.159.705-.278.61-.298 1.142-.656 1.56-1.093.417-.437.74-.934.947-1.49a4.88 4.88 0 00.315-1.75c-.004-.755-.16-1.41-.45-1.947a4.658 4.658 0 00-1.228-1.391c-.517-.397-1.15-.715-1.857-.994a25.205 25.205 0 00-2.333-.775c-1.3-.377-2.256-.755-2.85-1.113-.613-.377-.902-.894-.905-1.53a2.368 2.368 0 01.167-.874 2.12 2.12 0 01.569-.776 2.59 2.59 0 01.247-.178L16.3 2.623c-.8.258-1.486.636-2.018 1.173-.835.834-1.269 1.888-1.3 3.14-.016.755.102 1.39.353 1.908.25.516.597.973 1.076 1.35a6.476 6.476 0 001.704.955c.67.278 1.415.517 2.237.775.708.219 1.32.417 1.836.596s.976.398 1.32.616c.364.219.633.477.806.736.173.278.27.616.272.993.002.398-.091.736-.262 1.053a2.62 2.62 0 01-.76.776zM0 11.355h1.852v2.064H0z" fill="#495352"/></svg>