<svg width="17" height="20" fill="none" xmlns="http://www.w3.org/2000/svg"><path d="M13.187 10.492a.697.697 0 01-.707-.68.706.706 0 01.667-.72c.133-.013.253.067.266.2.027.12-.053.227-.2.267-.186.04-.28.133-.266.253.013.12.08.2.2.213.146.014.213-.053.266-.266.04-.134.134-.2.254-.187.133.013.213.12.2.253.013.36-.307.667-.68.667z" fill="#495352"/><path d="M9 16.319c-.133-.12-.346-.12-.466.013l-1.68 1.8v-7.12c0-.173-.12-.333-.293-.347a.34.34 0 00-.374.334v7.133l-1.68-1.8a.322.322 0 00-.466-.013.322.322 0 00-.014.466l2.16 2.32c.187.2.494.2.68 0l2.16-2.32a.335.335 0 00-.026-.466z" fill="#495352" stroke="#495352" stroke-width=".3"/><circle cx="6.5" cy="8.5" r=".5" transform="rotate(-180 6.5 8.5)" fill="#495352"/><path d="M15.533 7.919V4c0-.587-.32-1.054-.866-1.174-.227-.053-.28-.16-.32-.346-.054-.28-.134-.56-.2-.84-.12-.52-.454-.734-.974-.6-2.346.56-4.693 1.133-7.04 1.693-.093.027-.2.027-.306.027h-3.56C1.493 2.772 1 3.265 1 4.039v9.653c0 .627.32 1.067.893 1.227.12.026.24.04.36.04H4.84v-.467H2.307a1.3 1.3 0 01-.454-.08c-.226-.093-.346-.307-.373-.56V4.879c.333.253.693.24 1.04.24h11.707c.16 0 .32.026.466.093a.56.56 0 01.36.533c.014.72 0 1.44 0 2.187h-3.28c-.36 0-.466.107-.466.467v2.826c0 .374.093.467.453.467h3.28c0 .053.013.08.013.107v1.96c0 .44-.28.72-.72.733h-6.08v.467h6.014c.773 0 1.253-.494 1.253-1.267v-2.013c.2.013.373-.014.467-.214V8.16c-.08-.214-.254-.254-.454-.24zm-1.613-3.28H2.28c-.253 0-.48-.054-.653-.267a.655.655 0 01-.107-.707.656.656 0 01.547-.426c.053-.014.093-.014.146-.014.587 0 1.16 0 1.747.014-.027.013-.067.026-.093.04-.56.133-1.12.266-1.68.413-.04.013-.107.013-.12.04-.054.08-.12.16-.12.24 0 .107.08.173.186.187.054.013.12 0 .174 0H13.2c.133-.014.2-.094.213-.227 0-.12-.066-.2-.186-.227-.067-.013-.134-.013-.2-.013H4.293v-.027c.28-.066.547-.133.827-.2 2.733-.653 5.453-1.32 8.187-1.973.253-.067.333-.013.4.24.146.613.306 1.24.453 1.867.013.026.013.053.013.093-.053.013-.106.013-.12.04-.053.067-.133.147-.133.227-.013.106.067.186.187.2.093.013.173 0 .266.013.4.013.694.307.694.707-.36-.267-.76-.24-1.147-.24zm1.133-.72c-.12-.054-.226-.107-.333-.147-.027-.013-.053-.027-.067-.053-.04-.134-.066-.28-.106-.427.266.013.533.373.506.627zm.467 7.28h-3.733v-2.8h3.733v2.8z" fill="#495352" stroke="#495352" stroke-width=".3"/></svg>