<svg width="24" height="24" fill="none" xmlns="http://www.w3.org/2000/svg"><g clip-path="url(#clip0)"><path d="M16.78 21.36a4.834 4.834 0 001.848-6.582l-6.54-11.643a3.449 3.449 0 00-4.702-1.32 3.449 3.449 0 00-1.32 4.703l6.54 11.642a2.093 2.093 0 002.822.792 2.093 2.093 0 00.791-2.821L9.905 4.89a.678.678 0 00-.94-.264.678.678 0 00-.265.94l.012.02 6.314 11.241a.678.678 0 01-.264.94.678.678 0 01-.94-.263L7.282 5.862a2.063 2.063 0 01.791-2.822 2.063 2.063 0 012.822.792l6.54 11.642a3.42 3.42 0 01-1.32 4.703 3.42 3.42 0 01-4.702-1.32L5.098 7.617a.678.678 0 00-.94-.265.678.678 0 00-.264.94l.011.02 6.315 11.242c1.285 2.288 4.232 3.115 6.56 1.807z" fill="#8C9C9A"/></g><defs><clipPath id="clip0"><path fill="#fff" transform="rotate(150.674 8.014 12.247)" d="M0 0h9.67v21.642H0z"/></clipPath></defs></svg>