<svg width="29" height="26" fill="none" xmlns="http://www.w3.org/2000/svg"><path d="M14.277 1L27.13 21.954c.818 1.333-.14 3.046-1.704 3.046H3.519c-1.551 0-2.512-1.69-1.718-3.024L11.6 5.528" stroke="#495352" stroke-width="2" stroke-linecap="round"/><path d="M15.164 18.508H13.29l-.266-7.883h2.407l-.266 7.883zm-.937 1.234c.38 0 .684.112.914.336.234.224.351.51.351.86 0 .343-.117.627-.351.851-.23.224-.534.336-.914.336-.375 0-.68-.112-.915-.336a1.14 1.14 0 01-.343-.852c0-.343.114-.627.344-.851.234-.23.539-.344.914-.344z" fill="#495352"/></svg>