<svg width="29" height="22" fill="none" xmlns="http://www.w3.org/2000/svg"><path d="M28.317 11.797c-.482-.638-1.124-1.275-2.086-1.594.481-.478.962-.797 1.283-1.435.321-.478.482-1.116.482-1.754 0-.637-.16-1.275-.321-1.753-.16-.638-.482-1.116-.963-1.435-.481-.478-.962-.797-1.444-.956-.642-.32-1.283-.32-2.086-.32h-.16V0h-1.925v2.232H19.01V0h-1.765v2.232H15v2.391h8.343c.802 0 1.444.16 1.765.638.32.478.481.956.481 1.594 0 .638-.16 1.275-.642 1.754-.481.478-1.123.637-1.925.637h-3.85V7.014h-2.407v10.362H15v2.392h2.246V22h1.925v-2.232h2.086V22h1.925v-2.232h.16c.803 0 1.605-.16 2.247-.319.642-.319 1.284-.637 1.765-1.116.481-.478.963-.956 1.123-1.594.32-.638.481-1.435.481-2.072.16-1.276-.16-2.073-.641-2.87zM25.75 16.58c-.482.478-1.284.797-2.407.797H19.01v-5.74h4.332c.962 0 1.765.32 2.407.798.48.478.802 1.116.802 2.072a2.07 2.07 0 01-.802 2.073zM6 13h7v2H6zm-3 0h2v2H3zm0-4h7v2H3zM0 9h2v2H0zm5-4h8v2H5z" fill="#495352"/></svg>