<svg width="22" height="27" fill="none" xmlns="http://www.w3.org/2000/svg"><path d="M17.582 17.18h-1.98v7h1.98v-7z" fill="#495352"/><path d="M16.541 26.9l1.4-1.415 3.5-3.535-1.404-1.419-3.5 3.536-3.496-3.531-1.4 1.414 3.495 3.53 1.405 1.42zm-3.224-15.103c-.482-.638-1.123-1.275-2.086-1.594.481-.478.963-.797 1.283-1.435.321-.478.482-1.116.482-1.753 0-.638-.16-1.276-.321-1.754-.16-.638-.482-1.116-.963-1.435-.481-.478-.963-.797-1.444-.956-.642-.32-1.283-.32-2.086-.32h-.16V0H6.097v2.232H4.01V0H2.246v2.232H0v2.391h8.343c.802 0 1.444.16 1.765.638.32.478.481.956.481 1.594 0 .638-.16 1.275-.642 1.754-.481.478-1.123.637-1.925.637h-3.85V7.015H1.764v10.362H0v2.391h2.246V22h1.925v-2.232h2.087V22h1.925v-2.232h.16c.803 0 1.605-.16 2.247-.319.642-.319 1.284-.637 1.765-1.116.481-.478.963-.956 1.123-1.594.32-.637.481-1.435.481-2.072.16-1.276-.16-2.073-.641-2.87zm-2.568 4.783c-.48.478-1.283.797-2.406.797H4.01v-5.74h4.332c.963 0 1.765.32 2.406.798.482.478.803 1.116.803 2.072.16.797-.16 1.595-.803 2.073zM17.58 15H15.6v-2h1.98z" fill="#495352"/></svg>