<svg width="92" height="92" fill="none" xmlns="http://www.w3.org/2000/svg"><g filter="url(#filter0_dd)"><path d="M17 27c0-5.523 4.477-10 10-10h38c5.523 0 10 4.477 10 10v38c0 5.523-4.477 10-10 10H27c-5.523 0-10-4.477-10-10V27z" fill="#171717"/><path d="M17 27c0-5.523 4.477-10 10-10h38c5.523 0 10 4.477 10 10v38c0 5.523-4.477 10-10 10H27c-5.523 0-10-4.477-10-10V27z" fill="url(#paint0_linear)"/></g><path d="M39.14 44.94a1.5 1.5 0 000 2.12l9.545 9.547a1.5 1.5 0 102.122-2.122L42.32 46l8.486-8.485a1.5 1.5 0 10-2.122-2.122L39.14 44.94zm2.845-.44H40.2v3h1.785v-3z" fill="#067362"/><defs><linearGradient id="paint0_linear" x1="21.554" y1="19.425" x2="56.304" y2="80.522" gradientUnits="userSpaceOnUse"><stop stop-color="#171717"/><stop offset="1" stop-color="#1C1C1D"/></linearGradient><filter id="filter0_dd" x="0" y="0" width="92" height="92" filterUnits="userSpaceOnUse" color-interpolation-filters="sRGB"><feFlood flood-opacity="0" result="BackgroundImageFix"/><feColorMatrix in="SourceAlpha" values="0 0 0 0 0 0 0 0 0 0 0 0 0 0 0 0 0 0 127 0"/><feOffset dx="7" dy="7"/><feGaussianBlur stdDeviation="5"/><feColorMatrix values="0 0 0 0 0 0 0 0 0 0 0 0 0 0 0 0 0 0 0.3 0"/><feBlend in2="BackgroundImageFix" result="effect1_dropShadow"/><feColorMatrix in="SourceAlpha" values="0 0 0 0 0 0 0 0 0 0 0 0 0 0 0 0 0 0 127 0"/><feOffset dx="-7" dy="-7"/><feGaussianBlur stdDeviation="5"/><feColorMatrix values="0 0 0 0 0.166667 0 0 0 0 0.166667 0 0 0 0 0.166667 0 0 0 0.3 0"/><feBlend in2="effect1_dropShadow" result="effect2_dropShadow"/><feBlend in="SourceGraphic" in2="effect2_dropShadow" result="shape"/></filter></defs></svg>