<svg width="22" height="22" fill="none" xmlns="http://www.w3.org/2000/svg"><g clip-path="url(#clip0)" fill="#495352"><path d="M9.979 0v2.325h-.02V4.67c.296-.04.613-.06.969-.06.573 0 1.087.06 1.483.18.395.119.771.298 1.048.496.296.219.534.457.712.716.178.258.336.536.455.835l2.214-.756c-.336-.894-.89-1.67-1.641-2.345-.751-.675-1.74-1.113-2.907-1.331V.02H9.98V0zm2.313 22v-4.71a5.14 5.14 0 01-.969.08c-1.206 0-2.214-.22-2.966-.676-.771-.457-1.305-.994-1.621-1.61l-2.176.755c.396.914 1.048 1.71 1.978 2.425.93.695 2.076 1.152 3.46 1.351V22h2.294z"/><path d="M13.894 16.694c-.06.04-.099.06-.158.1v2.603c.257-.08.514-.16.731-.278.633-.299 1.187-.656 1.622-1.093a4.36 4.36 0 00.989-1.491 4.744 4.744 0 00.336-1.749c0-.755-.159-1.411-.455-1.947a4.679 4.679 0 00-1.266-1.392c-.534-.397-1.186-.715-1.918-.993a26.689 26.689 0 00-2.412-.775c-1.345-.378-2.334-.756-2.947-1.113-.632-.378-.929-.895-.929-1.53 0-.299.06-.577.178-.875.119-.278.316-.537.593-.775.08-.06.158-.12.257-.179V2.623c-.83.259-1.542.636-2.096 1.173-.87.835-1.325 1.888-1.364 3.14-.02.755.099 1.391.356 1.908.257.517.613.974 1.107 1.351a6.736 6.736 0 001.76.954c.692.278 1.463.517 2.314.775.731.219 1.364.418 1.898.597a6.809 6.809 0 011.364.616c.376.218.653.476.83.735.179.278.278.616.278.994 0 .397-.1.735-.277 1.053a2.687 2.687 0 01-.791.775z"/></g><defs><clipPath id="clip0"><path fill="#fff" d="M0 0h22v22H0z"/></clipPath></defs></svg>