<svg width="21" height="28" fill="none" xmlns="http://www.w3.org/2000/svg"><path d="M16.955 17.882h-1.98v7.288h1.98v-7.288z" fill="#30C4AE"/><path d="M15.914 28l1.4-1.472 3.5-3.68-1.405-1.477-3.5 3.68-3.495-3.675-1.4 1.472 3.495 3.675L15.914 28zM5.304 0l.012 2.345h-.02l.013 2.364c.306-.04.632-.06 1-.06.591 0 1.122.06 1.531.18.41.12.798.301 1.085.502.307.22.553.46.739.721.185.26.35.541.474.842l2.281-.762c-.351-.902-.927-1.683-1.706-2.365-.78-.68-1.803-1.122-3.008-1.342L7.692.02H5.304V0zm2.509 22.184l-.014-2.345-.013-2.405c-.326.06-.653.08-1 .08-1.245 0-1.892 0-2.703-.339-.769-.322-.99-.52-.99-.52H.123c.495.52.766 1.04 1.729 1.761.963.702 2.15 1.162 3.58 1.363l.013 2.405h2.368z" fill="#30C4AE"/><path d="M9.437 16.834c-.06.04-.101.06-.162.1l.014 2.625c.265-.08.53-.16.754-.28.651-.301 1.22-.662 1.667-1.103.447-.44.791-.942 1.013-1.503.221-.56.34-1.142.337-1.763-.004-.762-.171-1.423-.48-1.964a4.796 4.796 0 00-1.315-1.403c-.553-.4-1.228-.721-1.985-1.002a28.112 28.112 0 00-2.494-.781c-1.39-.381-2.413-.762-3.048-1.123-.655-.38-.964-.901-.968-1.543a2.27 2.27 0 01.179-.881c.12-.281.324-.542.608-.782.081-.06.163-.12.264-.18l-.014-2.605c-.856.26-1.589.64-2.157 1.182C.756 4.67.293 5.732.26 6.994c-.017.762.109 1.403.377 1.924.268.52.638.982 1.15 1.363.513.38 1.107.701 1.823.961.716.281 1.513.521 2.392.782.756.22 1.41.42 1.963.601.552.18 1.043.401 1.412.621.389.22.676.481.861.742.185.28.29.621.291 1.002.003.4-.098.741-.28 1.062-.202.3-.466.561-.812.782zm7.516-1.221h-1.98v-2.082h1.98zm-14.85.001H.123v-2.082h1.98v2.082z" fill="#30C4AE"/></svg>