<svg width="10" height="16" viewBox="0 0 10 16" fill="none" xmlns="http://www.w3.org/2000/svg">
<path d="M9.51179 8.48039C9.16799 8.02199 8.70959 7.56359 8.02199 7.33439C8.36579 6.99059 8.70959 6.76139 8.93879 6.30299C9.16799 5.95919 9.28259 5.50079 9.28259 5.04239C9.28259 4.58399 9.16799 4.1256 9.05339 3.7818C8.93879 3.3234 8.70959 2.9796 8.36579 2.7504C8.02199 2.4066 7.67819 2.1774 7.33439 2.0628C6.87599 1.8336 6.41759 1.8336 5.84459 1.8336H5.72999V0H4.3548V1.6044H2.865V0H1.6044V1.6044H0V3.3234H5.95919C6.53219 3.3234 6.99059 3.438 7.21979 3.7818C7.44899 4.1256 7.56359 4.4694 7.56359 4.92779C7.56359 5.38619 7.44899 5.84459 7.10519 6.18839C6.76139 6.53219 6.30299 6.64679 5.72999 6.64679H2.9796V5.04239H1.2606V6.76139V12.4914H0V14.2104H1.6044V15.8148H2.9796V14.2104H3.3234H4.46939V15.8148H5.84459V14.2104H5.95919C6.53219 14.2104 7.10519 14.0958 7.56359 13.9812C8.02199 13.752 8.48039 13.5228 8.82419 13.179C9.16799 12.8352 9.51179 12.4914 9.62639 12.033C9.85559 11.5746 9.97019 11.0016 9.97019 10.5432C10.0848 9.62639 9.85559 9.05339 9.51179 8.48039ZM7.67819 11.9184C7.33439 12.2622 6.76139 12.4914 5.95919 12.4914H2.865V8.36579H5.95919C6.64679 8.36579 7.21979 8.59499 7.67819 8.93879C8.02199 9.28259 8.25119 9.74099 8.25119 10.4286C8.36579 11.0016 8.13659 11.5746 7.67819 11.9184Z" fill="#067362"/>
</svg>
