<svg width="11" height="16" fill="none" xmlns="http://www.w3.org/2000/svg"><path d="M9.685 8.58c-.35-.464-.817-.928-1.517-1.16.35-.348.7-.58.933-1.043.234-.348.35-.812.35-1.276 0-.463-.116-.927-.233-1.275-.117-.464-.35-.812-.7-1.043-.35-.348-.7-.58-1.05-.696-.467-.232-.934-.232-1.517-.232h-.117V0h-1.4v1.623H2.917V0H1.634v1.623H0v1.74h6.068c.583 0 1.05.115 1.283.463.233.348.35.696.35 1.16 0 .463-.117.927-.467 1.275-.35.348-.816.464-1.4.464h-2.8V5.1h-1.75v7.537H0v1.739h1.634V16h1.4v-1.623H4.55V16h1.4v-1.623h.117c.583 0 1.166-.116 1.633-.232.467-.232.934-.464 1.284-.812.35-.348.7-.695.816-1.16.234-.463.35-1.043.35-1.506.117-.928-.116-1.508-.466-2.087zm-1.867 3.478c-.35.348-.934.58-1.75.58h-3.15V8.464h3.15c.7 0 1.283.232 1.75.58.35.347.583.811.583 1.507.117.58-.116 1.16-.583 1.507z" fill="#067362"/></svg>