<svg width="21" height="28" fill="none" xmlns="http://www.w3.org/2000/svg"><path d="M16.955 17.882h-1.98v7.288h1.98v-7.288z" fill="#30C4AE"/><path d="M15.914 28l1.4-1.472 3.5-3.68-1.405-1.477-3.5 3.68-3.495-3.675-1.4 1.472 3.495 3.675L15.914 28zm1.039-12.387h-1.98v-2.082h1.98zm-3.637-3.816c-.48-.638-1.123-1.275-2.085-1.594.481-.478.962-.797 1.283-1.435.321-.478.482-1.116.482-1.754 0-.637-.16-1.275-.321-1.753-.16-.638-.482-1.116-.963-1.435-.481-.478-.963-.797-1.444-.956-.642-.32-1.283-.32-2.086-.32h-.16V0H6.097v2.232H4.01V0H2.246v2.232H0v2.391h8.343c.802 0 1.444.16 1.765.638.32.478.481.956.481 1.594 0 .638-.16 1.275-.642 1.754-.481.478-1.123.637-1.925.637h-3.85V7.014H1.764v10.362H0v2.392h2.246V22h1.925v-2.232h2.086V22h1.925v-2.232h.16c.803 0 1.605-.16 2.247-.319.642-.319 1.284-.637 1.765-1.116.481-.478.963-.956 1.123-1.594.32-.638.481-1.435.481-2.072.16-1.276-.16-2.073-.642-2.87zM10.75 16.58c-.48.478-1.283.797-2.406.797H4.01v-5.74h4.332c.963 0 1.765.32 2.406.798.482.478.803 1.116.803 2.072a2.07 2.07 0 01-.803 2.073z" fill="#30C4AE"/></svg>