<svg width="15" height="21" fill="none" xmlns="http://www.w3.org/2000/svg"><path d="M1 8.155V18c0 1.105.808 2 1.804 2h9.392c.996 0 1.804-.895 1.804-2V3c0-1.105-.808-2-1.804-2H1.224" stroke="#30C4AE" stroke-linecap="round"/><path d="M4.552 12.483a1 1 0 11-2 0 1 1 0 012 0zm0-3.931a1 1 0 11-2 0 1 1 0 012 0zm0 7.862a1 1 0 11-2 0 1 1 0 012 0zm3.931-3.931a1 1 0 11-2 0 1 1 0 012 0zm0-3.931a1 1 0 11-2 0 1 1 0 012 0zm0 7.862a1 1 0 11-2 0 1 1 0 012 0zm3.931-3.931a1 1 0 11-2 0 1 1 0 012 0zm0-3.931a1 1 0 11-2 0 1 1 0 012 0zm0 7.862a1 1 0 11-2 0 1 1 0 012 0z" fill="#30C4AE"/></svg>