<svg width="29" height="25" fill="none" xmlns="http://www.w3.org/2000/svg"><g opacity=".5"><mask id="a" fill="#fff"><path d="M26.929 8.31c-.294-.985-.953-1.544-1.938-1.71-.973-.166-1.957-.332-2.931-.487-.132-.02-.213-.083-.264-.218-.304-.797-.619-1.595-.933-2.393C20.478 2.54 19.707 2 18.693 2h-7.385c-1.005 0-1.786.539-2.16 1.492-.315.787-.62 1.564-.914 2.352-.07.186-.172.248-.355.28-1.024.165-2.049.331-3.073.528C3.76 6.838 3.01 7.77 3 8.848v11.594c0 1.035.73 1.937 1.745 2.186.06.01.111.04.172.062h20.166c.06-.021.132-.042.193-.063.892-.258 1.46-.839 1.673-1.771.01-.042.03-.083.051-.135V8.558a2.297 2.297 0 00-.071-.249zm-11.94 11.303c-3.306 0-5.984-2.746-5.984-6.123 0-3.378 2.678-6.123 5.985-6.123 3.327 0 6.015 2.735 6.015 6.123-.01 3.398-2.678 6.123-6.015 6.123z"/></mask><path d="M26.929 8.31l-.958.286.009.03.01.028.939-.345zM24.991 6.6l-.167.986h.001l.166-.986zm-2.931-.487l.158-.987h-.003l-.155.987zm-.264-.218l.936-.352-.001-.004-.935.357zm-.933-2.393l.93-.366-.002-.005-.928.371zm-11.716-.01l.929.37.002-.004-.93-.366zm-.913 2.352l.935.356.002-.006-.937-.35zm-.355.28l.16.987.008-.002-.168-.986zm-3.073.528l.175.984.013-.002-.188-.982zM3 8.848l-1-.01v.01h1zm1.745 13.78l-.238.97.035.01.035.005.168-.985zm.172.062l-.322.946.157.054h.165v-1zm20.166 0v1h.165l.157-.054-.322-.946zm.193-.063l-.28-.96-.021.006-.022.008.323.947zm1.673-1.771l-.971-.238-.002.008-.002.007.975.223zM27 20.72l.931.365.069-.176v-.189h-1zm0-12.163h1v-.12l-.029-.118-.971.238zm-5.995 4.932l1 .003v-.003h-1zm6.882-5.467c-.192-.643-.522-1.201-1.01-1.628-.488-.426-1.079-.673-1.72-.781l-.332 1.972c.344.058.574.174.736.315.16.14.308.353.41.695l1.916-.573zM25.16 5.614a277.3 277.3 0 00-2.941-.488L21.902 7.1c.969.154 1.949.32 2.922.485l.335-1.972zm-2.944-.489c.056.009.183.04.313.145.13.105.185.222.204.273l-1.872.705c.07.186.192.4.408.576.216.175.45.247.637.277l.31-1.976zm.516.414c-.307-.804-.623-1.607-.938-2.403l-1.86.733c.314.799.627 1.591.929 2.383l1.869-.713zm-.94-2.408C21.261 1.805 20.134 1 18.692 1v2c.587 0 1.002.273 1.243.874l1.857-.743zM18.692 1h-7.384v2h7.384V1zm-7.384 0c-1.426 0-2.57.8-3.091 2.126l1.86.732c.23-.58.648-.858 1.23-.858V1zm-3.09 2.121c-.316.791-.623 1.576-.92 2.373l1.873.7c.29-.778.592-1.548.905-2.331L8.218 3.12zM7.3 5.488a.6.6 0 01.199-.247c.127-.095.237-.108.212-.103l.336 1.971c.158-.027.41-.086.651-.267.254-.19.391-.434.47-.642L7.3 5.488zm.42-.352c-1.023.166-2.062.334-3.103.534l.377 1.964c1.008-.194 2.018-.357 3.045-.523l-.32-1.975zm-3.09.531C3.083 5.943 2.014 7.31 2 8.84l2 .019c.006-.626.438-1.125.981-1.222l-.351-1.97zM2 8.848v11.594h2V8.847H2zm0 11.594c0 1.514 1.062 2.803 2.507 3.157l.476-1.943C4.398 21.513 4 21 4 20.442H2zm2.577 3.171a.694.694 0 01-.125-.033l-.007-.003.012.005.029.013c.024.01.063.026.109.041l.644-1.893c.016.005.026.01.021.008l-.013-.006-.03-.013a1.385 1.385 0 00-.304-.09l-.336 1.971zm.34.077h20.166v-2H4.917v2zm20.488-.054a3.58 3.58 0 01.074-.023l.119-.039-.645-1.893a4.651 4.651 0 00-.193.062l.645 1.893zm.15-.048c.586-.17 1.114-.462 1.536-.904.422-.443.693-.99.833-1.605l-1.95-.446c-.072.318-.192.526-.33.671-.14.146-.341.274-.647.363l.557 1.92zm2.366-2.494a.636.636 0 01-.017.058l-.005.012v.002l.002-.007.003-.008a3.108 3.108 0 00.027-.066l-1.862-.729-.007.018-.019.045a1.452 1.452 0 00-.065.2l1.943.475zM28 20.72V8.558h-2v12.163h2zm-.029-12.4c-.018-.076-.05-.212-.103-.356l-1.878.69c.008.021.017.05.039.14l1.942-.475zM14.99 18.612c-2.733 0-4.985-2.276-4.985-5.123h-2c0 3.907 3.104 7.123 6.985 7.123v-2zm-4.985-5.123c0-2.848 2.252-5.123 4.985-5.123v-2c-3.881 0-6.985 3.215-6.985 7.123h2zm4.985-5.123c2.758 0 5.015 2.27 5.015 5.123h2c0-3.924-3.12-7.123-7.015-7.123v2zm5.015 5.12c-.008 2.867-2.25 5.126-5.015 5.126v2c3.909 0 7.003-3.192 7.015-7.12l-2-.006z" fill="#8C9C9A" mask="url(#a)"/><path d="M14.959 11.19a2.221 2.221 0 00-1.552.683c-.416.425-.629.943-.66 1.544-.02.31-.152.466-.395.456-.223-.01-.355-.176-.355-.466.01-1.554 1.339-2.943 2.87-2.963.295-.01.467.103.498.32.04.229-.132.415-.406.426z" fill="#8C9C9A"/></g></svg>