<svg width="17" height="16" fill="none" xmlns="http://www.w3.org/2000/svg"><path d="M4.829 1a.404.404 0 00-.357.26.388.388 0 00.107.424.4.4 0 00.287.103h10.212c.078 0 .124.048.124.116V12.22a.118.118 0 01-.124.123h-1.72a.402.402 0 00-.282.115.39.39 0 00-.117.278v1.253l-1.782-1.548a.402.402 0 00-.262-.098H1.929c-.078 0-.131-.054-.131-.123V4.148a.388.388 0 00-.245-.368.404.404 0 00-.524.216c-.02.048-.03.1-.029.152v8.072c0 .498.427.91.929.91h8.836l2.331 2.02a.401.401 0 00.66-.295v-1.726h1.322A.924.924 0 0016 12.22V1.903A.918.918 0 0015.078 1H4.829zm.029 3.734a.404.404 0 00-.357.26.388.388 0 00.106.424.4.4 0 00.288.102h7.254a.404.404 0 00.373-.241.388.388 0 00-.219-.516.404.404 0 00-.154-.029H4.858zm0 2.064a.404.404 0 00-.357.26.388.388 0 00.106.424.4.4 0 00.288.102h7.254a.404.404 0 00.373-.242.388.388 0 00-.219-.516.404.404 0 00-.154-.028H4.858zm0 2.063a.404.404 0 00-.357.26.388.388 0 00.106.424.4.4 0 00.288.102h7.254a.404.404 0 00.373-.241.388.388 0 00-.219-.517.404.404 0 00-.154-.028H4.858z" fill="#495352" stroke="#495352" stroke-width=".3"/></svg>