<svg width="31" height="30" fill="none" xmlns="http://www.w3.org/2000/svg"><path d="M7.179 13.069a1.235 1.235 0 00-1.73.247c-.433.556-.31 1.298.247 1.73l9.98 7.477L30.66 5.777c.463-.494.401-1.266-.093-1.73-.494-.463-1.267-.401-1.73.093l-13.47 15.046-8.188-6.117z" fill="#4C5251"/><path d="M29.145 11.463c.587 2.132.649 4.326.186 6.52-.371 1.73-1.02 3.336-1.978 4.788-.093-.03-.154-.062-.247-.093-.958-.216-1.916.433-2.132 1.39-.093.371-.03.742.093 1.082a13.853 13.853 0 01-12.05 3.244C5.633 26.849.876 19.558 2.42 12.174c.587-2.812 2.008-5.345 4.11-7.23.154.062.277.124.432.154 1.174.248 2.317-.525 2.564-1.668a2.041 2.041 0 000-.865 14.217 14.217 0 018.96-1.112 13.617 13.617 0 015.592 2.564l.68-.896a15.05 15.05 0 00-6.056-2.78C15.49-.37 12.06.061 9.062 1.514A2.418 2.418 0 007.89.804a2.154 2.154 0 00-2.565 1.7c-.123.617.031 1.204.34 1.698-2.193 2.04-3.707 4.728-4.356 7.725-1.668 8.002 3.46 15.91 11.493 17.58 4.696.988 9.516-.34 13.007-3.523.155.093.34.155.526.216.957.217 1.915-.432 2.131-1.39.093-.463 0-.927-.247-1.328a14.815 14.815 0 002.225-5.284 14.69 14.69 0 00-.216-7.044l-1.082.309zM6.405 2.719c.124-.556.68-.926 1.237-.803a1.035 1.035 0 01.68 1.545c-.032.03-.063.093-.093.124a1.098 1.098 0 01-.495.34c-.154.061-.34.061-.525.03a1.03 1.03 0 01-.71-.525 1.37 1.37 0 01-.093-.71zm20.732 22.215a.65.65 0 01-.402.154h-.154a.691.691 0 01-.525-.587v-.185a.639.639 0 01.308-.433c.062-.062.124-.062.217-.092h.247c.34.061.587.432.494.772 0 .062-.03.123-.092.185 0 .093-.062.124-.093.186z" fill="#4C5251"/></svg>