<svg width="19" height="19" fill="none" xmlns="http://www.w3.org/2000/svg"><path d="M6.856 8.43a.823.823 0 00-1.143 0 .823.823 0 000 1.142L7.67 11.53a.837.837 0 00.571.241.837.837 0 00.572-.242l3.737-3.736a.823.823 0 000-1.143.823.823 0 00-1.144 0L8.22 9.814 6.856 8.429z" fill="#087464"/><path fill-rule="evenodd" clip-rule="evenodd" d="M9.094 1.49a7.603 7.603 0 106.935 4.482.745.745 0 011.359-.613 9.094 9.094 0 01-8.294 12.83 9.094 9.094 0 114.688-16.89.746.746 0 01-.77 1.278A7.565 7.565 0 009.094 1.49z" fill="#087464"/><circle cx="15.356" cy="3.429" r=".895" fill="#087464"/></svg>