<svg width="80" height="80" fill="none" xmlns="http://www.w3.org/2000/svg"><g clip-path="url(#clip0)" fill="#067362"><path d="M55.2 30.05c0-.55-.45-1.05-1.05-1.05H51.3v-3.35C51.3 7 22.2 7 22.2 25.65V29h-2.85c-.55 0-1.05.45-1.05 1.05v27.5c0 3.45 2.85 6.3 6.3 6.3h13.9c2.65 2.8 6.35 5.35 11.35 8.25 14.65-8.45 17.8-14.05 17.8-30.9-4.7 0-8.7-1-12.45-3.05v-8.1zM24.3 25.7c0-15.95 25-15.95 25 0v3.35h-3.1V25.7c0-11.85-18.8-11.85-18.8 0v3.35h-3.1V25.7zm19.85 0v3.35H29.5V25.7c0-9.15 14.65-9.15 14.65 0zm-23.7 12H26v2.4h-5.55v-2.4zm0 4.45H26v2.4h-5.55v-2.4zm0 4.45H26V49h-5.55v-2.4zm0 4.45H26v2.4h-5.55v-2.4zM24.7 61.8c-2.35 0-4.25-1.9-4.25-4.25V55.5H27c.55 0 1.05-.45 1.05-1.05v-17.8c0-.55-.45-1.05-1.05-1.05h-6.55v-4.55h32.7v5.85c-1.1-.75-2.2-1.55-3.3-2.5-5.35 4.6-10.8 6.85-17.8 6.85 0 9.65 1.05 15.65 4.7 20.6H24.7v-.05zm40.5-18.1c-.15 13.5-3.6 18.7-15.35 25.6-11.75-6.9-15.2-12.1-15.35-25.6 7.2-.45 13.25-4.45 15.35-6 2.1 1.55 8.15 5.55 15.35 6zm-5.7 28.25l1.35 1.9c.85-.5 1.65-1.05 2.45-1.6l-1.5-1.8c-.75.5-1.55 1-2.3 1.5zm6.05-1.45c.75-.6 1.5-1.25 2.2-1.9L66 67c-.65.6-1.35 1.2-2.05 1.8l1.6 1.7zm7.8-8.4c.55-.75 1.05-1.6 1.55-2.4l-2.15-1.1c-.45.75-.95 1.5-1.45 2.25l2.05 1.25zM49.3 76.35l.7 2.15c.95-.25 1.9-.55 2.8-.9l-.8-2.1c-.9.3-1.8.6-2.7.85zm27.9-40.5l2.4-.3c-.15-.9-.3-1.85-.5-2.75l-2.4.45c.2.85.35 1.75.5 2.6zm1.1 16.2c.3-.9.5-1.8.75-2.7l-2.4-.5c-.2.85-.45 1.7-.7 2.55l2.35.65zm-.75-11.9v.95H80v-.95c0-.6-.05-1.25-.1-1.85l-2.45.15c.05.55.1 1.1.1 1.7zM76.2 57.2c.4-.85.8-1.7 1.15-2.55l-2.3-.8c-.3.8-.7 1.6-1.1 2.4l2.25.95zm-6.45 9.35c.65-.7 1.3-1.45 1.85-2.15l-1.95-1.35c-.55.7-1.15 1.4-1.75 2.05l1.85 1.45zm9.8-19.95c.15-.9.25-1.85.3-2.75l-2.45-.15c-.05.85-.15 1.75-.3 2.6l2.45.3zM55.6 76.55c.9-.4 1.8-.8 2.65-1.25l-1.2-2c-.8.4-1.65.8-2.5 1.2l1.05 2.05zM18 9.8L16.5 8c-.8.55-1.55 1.15-2.3 1.8l1.6 1.7c.7-.6 1.45-1.15 2.2-1.7zm-5.95 1.9c-.7.65-1.35 1.35-2 2.05l1.85 1.45c.6-.65 1.25-1.3 1.9-1.95l-1.75-1.55zM5 20.7c-.45.8-.9 1.65-1.3 2.5l2.25.9c.4-.8.8-1.6 1.25-2.35L5 20.7zM27.75 4.6l-.9-2.1c-.9.35-1.85.7-2.75 1.1l1.05 2.05c.85-.35 1.75-.7 2.6-1.05zM.9 31.1c-.2.9-.35 1.85-.5 2.75l2.4.3c.1-.85.3-1.75.5-2.6L.9 31.1zm1.75 11.8c-.05-.3-.05-.6-.1-.9l-2.4.2c0 .3.05.65.1.95.05.6.15 1.2.25 1.8l2.4-.35c-.15-.6-.2-1.15-.25-1.7zm-.1-17.15c-.35.85-.65 1.75-.9 2.65l2.3.6c.25-.85.55-1.65.85-2.5l-2.25-.75zm5.65-9.8c-.6.75-1.15 1.5-1.7 2.3l2.05 1.2c.5-.75 1.05-1.45 1.6-2.15L8.2 15.95zM.1 36.6c-.05.9-.1 1.85-.1 2.8h2.45c0-.85 0-1.75.1-2.6L.1 36.6zm33-33.55l-.55-2.2c-.95.2-1.95.45-2.85.75l.7 2.15c.9-.25 1.8-.5 2.7-.7zM21.5 4.9c-.85.45-1.7.95-2.55 1.45l1.35 1.9c.8-.5 1.6-.95 2.4-1.4L21.5 4.9z"/><path d="M43.95 77.3c-17.35 1.7-34-9.1-39.6-25.65-.2-.65-.95-1.05-1.6-.8-.65.2-1 .95-.8 1.6 5.95 17.7 23.75 29.2 42.3 27.4h.05c.7-.1 1.15-.7 1.1-1.4-.1-.7-.75-1.25-1.45-1.15zM37.2 2.6c17.1-1.1 32.85 9.5 38.3 25.75.2.6.8.95 1.4.85.1 0 .15-.05.25-.05.65-.2 1-.95.8-1.6C72.1 10.2 55.3-1.1 37.05.05c-.7.05-1.2.65-1.15 1.35 0 .7.6 1.25 1.3 1.2zm16.901 55.863c.56 0 1.012-.469 1.012-1.046 0-.578-.453-1.046-1.012-1.046-.559 0-1.012.468-1.012 1.046 0 .577.453 1.046 1.012 1.046zm-3.475-2.058c-.54 0-1.012.472-1.012 1.046 0 .573.439 1.045 1.012 1.045.54 0 1.012-.472 1.012-1.045 0-.574-.438-1.046-1.012-1.046zm3.441-1.383c.56 0 1.012-.468 1.012-1.046 0-.578-.453-1.046-1.012-1.046-.559 0-1.012.468-1.012 1.046 0 .578.453 1.046 1.012 1.046zm-3.474 0c.559 0 1.012-.468 1.012-1.046 0-.578-.453-1.046-1.012-1.046-.56 0-1.012.468-1.012 1.046 0 .578.453 1.046 1.012 1.046zm3.508-3.34c.56 0 1.012-.468 1.012-1.046 0-.578-.453-1.046-1.012-1.046-.559 0-1.012.468-1.012 1.046 0 .578.453 1.046 1.012 1.046zm-3.475-2.092c-.54 0-1.012.473-1.012 1.046 0 .574.439 1.046 1.012 1.046.54 0 1.012-.472 1.012-1.046 0-.573-.438-1.046-1.012-1.046zm0 13.697c-.54 0-1.012.472-1.012 1.045 0 .574.439 1.046 1.012 1.046.54 0 1.012-.472 1.012-1.046 0-.573-.438-1.045-1.012-1.045zm3.441-1.383c.54 0 1.012-.473 1.012-1.046 0-.574-.438-1.046-1.012-1.046-.573 0-1.012.472-1.012 1.046 0 .573.473 1.046 1.012 1.046zm-3.474 0c.54 0 1.012-.473 1.012-1.046 0-.574-.439-1.046-1.012-1.046-.574 0-1.012.472-1.012 1.046 0 .573.472 1.046 1.012 1.046zm3.474-13.663c.56 0 1.012-.468 1.012-1.046 0-.577-.453-1.046-1.012-1.046-.559 0-1.012.469-1.012 1.046 0 .578.453 1.046 1.012 1.046zm3.61 10.222c.559 0 1.012-.469 1.012-1.046 0-.578-.453-1.046-1.012-1.046-.559 0-1.012.468-1.012 1.046 0 .577.453 1.046 1.012 1.046zm-.034-3.441c.56 0 1.012-.468 1.012-1.046 0-.578-.453-1.046-1.012-1.046-.559 0-1.012.468-1.012 1.046 0 .578.453 1.046 1.012 1.046zm.034-3.34c.559 0 1.012-.468 1.012-1.046 0-.578-.453-1.046-1.012-1.046-.559 0-1.012.468-1.012 1.046 0 .578.453 1.046 1.012 1.046zm0-3.306c.559 0 1.012-.468 1.012-1.046 0-.578-.453-1.046-1.012-1.046-.559 0-1.012.468-1.012 1.046 0 .578.453 1.046 1.012 1.046zm3.643 0c.56 0 1.013-.468 1.013-1.046 0-.578-.453-1.046-1.012-1.046-.56 0-1.012.468-1.012 1.046 0 .578.453 1.046 1.012 1.046zm0 3.34c.56 0 1.013-.468 1.013-1.046 0-.578-.453-1.046-1.012-1.046-.56 0-1.012.468-1.012 1.046 0 .578.453 1.046 1.012 1.046zm0 3.238c.56 0 1.013-.468 1.013-1.046 0-.577-.453-1.045-1.012-1.045-.56 0-1.012.468-1.012 1.045 0 .578.453 1.046 1.012 1.046zm-10.727-6.713c.559 0 1.012-.468 1.012-1.046 0-.577-.453-1.046-1.012-1.046-.56 0-1.012.469-1.012 1.046 0 .578.453 1.046 1.012 1.046zm.033-5.431c-.54 0-1.012.472-1.012 1.045 0 .574.439 1.046 1.012 1.046.54 0 1.012-.472 1.012-1.046 0-.573-.438-1.045-1.012-1.045z"/><path d="M50.593 61.904c.54 0 1.012-.473 1.012-1.046 0-.574-.439-1.046-1.012-1.046-.574 0-1.012.472-1.012 1.046 0 .573.472 1.046 1.012 1.046z"/></g><defs><clipPath id="clip0"><path fill="#fff" d="M0 0h80v80H0z"/></clipPath></defs></svg>