<svg width="61" height="82" fill="none" xmlns="http://www.w3.org/2000/svg"><path d="M9.236 76.238h1.135l-.007 3.347h-.901V77H1.42v2.585h-.9v-3.347h.71c.542-.566.98-1.391 1.312-2.475.336-1.09.539-2.28.607-3.575l.19-3.852h5.897v9.902zm-6.958 0h6.057v-9.133h-4.13l-.147 3.054c-.064 1.27-.252 2.44-.564 3.508-.308 1.07-.713 1.927-1.216 2.571zm9.436-3.318c0-.761.146-1.447.44-2.058a3.386 3.386 0 011.252-1.42 3.374 3.374 0 011.838-.513c1.055 0 1.91.37 2.563 1.113.655.737.982 1.716.982 2.937v.183c0 .767-.15 1.458-.447 2.073a3.29 3.29 0 01-1.245 1.413c-.537.333-1.15.499-1.838.499-1.05 0-1.905-.37-2.564-1.107-.654-.742-.981-1.723-.981-2.944v-.176zm.879.242c0 .947.244 1.726.732 2.337.493.605 1.138.908 1.934.908.79 0 1.43-.303 1.918-.908.494-.61.74-1.414.74-2.41v-.169a4.02 4.02 0 00-.337-1.662c-.224-.503-.54-.891-.944-1.165a2.398 2.398 0 00-1.392-.417c-.781 0-1.418.307-1.912.923-.493.61-.74 1.41-.74 2.402v.161zm13.149-3.332h-4.007V77h-.878v-7.925h4.885v.755zm.961 3.09c0-.761.147-1.447.44-2.058a3.385 3.385 0 011.252-1.42 3.374 3.374 0 011.839-.513c1.054 0 1.909.37 2.563 1.113.655.737.982 1.716.982 2.937v.183c0 .767-.15 1.458-.447 2.073a3.289 3.289 0 01-1.245 1.413c-.537.333-1.15.499-1.839.499-1.05 0-1.904-.37-2.563-1.107-.654-.742-.982-1.723-.982-2.944v-.176zm.88.242c0 .947.244 1.726.732 2.337.493.605 1.137.908 1.933.908.791 0 1.431-.303 1.92-.908.492-.61.74-1.414.74-2.41v-.169c0-.605-.113-1.16-.338-1.662-.224-.503-.54-.891-.945-1.165a2.398 2.398 0 00-1.391-.417c-.782 0-1.419.307-1.912.923-.493.61-.74 1.41-.74 2.402v.161zM35.89 77v-7.925h2.908c1.006 0 1.777.18 2.314.542.538.357.806.882.806 1.575 0 .395-.12.75-.359 1.062-.239.307-.588.532-1.047.674.517.097.932.32 1.245.666.317.347.476.75.476 1.209 0 .698-.259 1.24-.776 1.626-.513.38-1.24.571-2.183.571H35.89zm.872-3.647v2.915h2.541c.66 0 1.167-.127 1.524-.381.356-.254.535-.62.535-1.099 0-.44-.179-.788-.535-1.047-.357-.26-.864-.388-1.524-.388h-2.541zm0-.733h2.22c1.376-.02 2.065-.488 2.065-1.406 0-.483-.19-.835-.572-1.055-.376-.224-.935-.337-1.677-.337h-2.036v2.798zm7.143.3c0-.761.147-1.447.44-2.058a3.386 3.386 0 011.252-1.42 3.374 3.374 0 011.838-.513c1.055 0 1.91.37 2.564 1.113.654.737.981 1.716.981 2.937v.183c0 .767-.148 1.458-.446 2.073a3.29 3.29 0 01-1.245 1.413c-.538.333-1.15.499-1.839.499-1.05 0-1.904-.37-2.563-1.107-.655-.742-.982-1.723-.982-2.944v-.176zm.88.242c0 .947.243 1.726.732 2.337.493.605 1.137.908 1.933.908.791 0 1.43-.303 1.92-.908.492-.61.739-1.414.739-2.41v-.169a4.02 4.02 0 00-.337-1.662c-.225-.503-.54-.891-.945-1.165a2.398 2.398 0 00-1.392-.417c-.78 0-1.418.307-1.911.923-.493.61-.74 1.41-.74 2.402v.161zm14.584-.044c0 1.236-.273 2.217-.82 2.945-.547.722-1.28 1.084-2.198 1.084-1.084 0-1.914-.381-2.49-1.143v4.043h-.871V69.075h.813l.044 1.12c.57-.844 1.398-1.266 2.482-1.266.948 0 1.69.359 2.227 1.076.542.718.813 1.714.813 2.989v.124zm-.879-.154c0-1.01-.208-1.809-.623-2.395-.415-.586-.993-.879-1.735-.879-.538 0-.999.13-1.385.389-.385.258-.68.634-.886 1.128v3.8c.21.455.51.802.901 1.04.39.24.852.36 1.384.36.738 0 1.311-.293 1.721-.88.416-.59.623-1.445.623-2.563z" fill="#30C4AE"/><path d="M47.666 27.38a.842.842 0 00-1.19 0l-.986.987-.842-.842v-3.41a8.027 8.027 0 00-8.027-8.026h-.042l-1.582-1.582a8.907 8.907 0 00-5.987-2.62l-1.377-1.377.986-.986a.841.841 0 000-1.19L20.88.595a.842.842 0 10-1.19 1.19l7.143 7.143L14.93 20.833 7.785 13.69a.842.842 0 00-1.19 1.19l7.737 7.739a.841.841 0 001.19 0l.818-.817 1.37 1.37v3.86a2.523 2.523 0 003.367 2.38v.987a2.524 2.524 0 003.367 2.38v.987a2.524 2.524 0 003.367 2.38v.987a2.523 2.523 0 004.406 1.684h1.138l.842.842-.817.817a.842.842 0 000 1.19l7.738 7.738a.842.842 0 101.19-1.19l-7.142-7.143L47.07 29.166l7.143 7.143a.842.842 0 101.19-1.19l-7.738-7.739zM30.338 37.975a.843.843 0 01-.842-.842V30.4h-1.684v3.367a.842.842 0 01-1.683 0v-6.734h-1.684V30.4a.842.842 0 01-1.684 0v-5.893h-1.683v2.526a.841.841 0 11-1.684 0v-4.21a.842.842 0 00-.246-.595l-1.617-1.616 8.911-8.91 1.617 1.615a.842.842 0 00.595.247 7.239 7.239 0 015.153 2.134l.39.391H26.13a.842.842 0 00-.842.842 6.366 6.366 0 004.68 6.128l1.212.33v13.745a.843.843 0 01-.841.842zm3.962-.595a.842.842 0 00-.595-.247h-.842V23.848l1.683.46v.198a4.214 4.214 0 004.21 4.21.842.842 0 000-1.684 2.528 2.528 0 01-2.526-2.526v-.841a.842.842 0 00-.62-.813l-5.2-1.418a4.682 4.682 0 01-3.363-3.662h9.574a6.342 6.342 0 016.344 6.343v3.759a.84.84 0 00.246.595l1.089 1.088-8.911 8.91-1.09-1.087z" fill="#067362"/><path d="M38.14 41.555a.841.841 0 101.19-1.19.841.841 0 00-1.19 1.19zm-23.812-23.83a.842.842 0 101.19-1.189.842.842 0 00-1.19 1.19zm-1.771 5.225a.82.82 0 00-1.639 0v25.385c0 .224.086.44.24.598a.808.808 0 00.58.247h23.745a.845.845 0 100-1.69H14.557a2 2 0 01-2-2V22.95zm38.477 4.075a.844.844 0 001.687 0V.82a.808.808 0 00-.247-.58.857.857 0 00-.596-.24H24.851a.82.82 0 100 1.64h24.182a2 2 0 012 2v23.385z" fill="#067362"/><path d="M43.705 4.098a4.098 4.098 0 100 8.197 4.098 4.098 0 000-8.197zm0 6.558a2.459 2.459 0 110-4.918 2.459 2.459 0 010 4.918zm3.279 3.278h-2.46a.82.82 0 000 1.64h2.46a.82.82 0 000-1.64zm0 3.279h-.82a.82.82 0 000 1.64h.82a.82.82 0 000-1.64zm-31.967 26.23a.82.82 0 101.639 0 .82.82 0 00-1.64 0zm10.655-4.918h-9.836a.82.82 0 000 1.639h9.836a.82.82 0 100-1.64zm-4.098-3.279h-5.738a.82.82 0 000 1.64h5.738a.82.82 0 000-1.64zm-2.459-3.279h-3.279a.82.82 0 000 1.64h3.279a.82.82 0 000-1.64zm-.82 11.476a.82.82 0 101.64 0 .82.82 0 00-1.64 0z" fill="#067362"/></svg>