<svg width="24" height="24" fill="none" xmlns="http://www.w3.org/2000/svg"><path d="M12.985 1.867l-2.79 2.626a.793.793 0 000 1.148.793.793 0 001.149 0l2.954-2.79c1.969-1.804 4.923-1.804 6.728.165 1.805 1.969 1.805 4.923-.165 6.728l-2.953 2.79a.793.793 0 000 1.148.793.793 0 001.148 0l2.954-2.79c2.626-2.461 2.626-6.563.164-9.189-2.461-2.297-6.563-2.297-9.189.164zm-.329 15.917l-2.953 2.79c-1.97 1.805-4.923 1.805-6.728-.164-1.805-1.97-1.805-4.923.164-6.728l2.953-2.79a.793.793 0 000-1.148c-.328-.493-.82-.493-1.148-.165L1.99 12.37c-2.625 2.461-2.625 6.564-.164 9.19 2.461 2.625 6.564 2.625 9.19.163l2.953-2.79a.793.793 0 000-1.148c-.328-.328-.985-.328-1.313 0z" fill="#42BDAA"/><path d="M6.75 16.8a.793.793 0 001.148 0l9.19-8.861a.793.793 0 000-1.15.793.793 0 00-1.15 0l-9.025 8.862c-.492.328-.492.82-.164 1.149z" fill="#42BDAA"/></svg>