<svg width="16" height="18" fill="none" xmlns="http://www.w3.org/2000/svg"><path fill-rule="evenodd" clip-rule="evenodd" d="M1.732 1.185a.547.547 0 100 1.094.547.547 0 000-1.094zM0 1.732A1.732 1.732 0 112.325 3.36v2.908H4.01v1.185H2.325c-.655 0-1.185-.53-1.185-1.185V3.36A1.733 1.733 0 010 1.732zm12.536 0a1.732 1.732 0 112.324 1.629v2.907c0 .655-.53 1.185-1.185 1.185H11.99V6.268h1.686V3.361a1.733 1.733 0 01-1.14-1.629zm1.732-.547a.547.547 0 100 1.094.547.547 0 000-1.094zm-7.67-.022V5.15H5.413V1.163h1.185zm3.704 0v1.14H9.117v-1.14h1.185zm-1.186 4.07a1.733 1.733 0 101.185-.001v-1.79H9.116v1.79zm.594 1.08a.547.547 0 100 1.094.547.547 0 000-1.093zm-3.112-.022v1.14H5.413V6.29h1.185zm-.307 3.441a.547.547 0 100 1.094.547.547 0 000-1.094zm-1.732.547a1.732 1.732 0 112.326 1.628v1.791H5.7v-1.79a1.733 1.733 0 01-1.141-1.629zm-3.42.593c0-.655.532-1.185 1.186-1.185h1.687v1.185H2.325v2.907a1.733 1.733 0 11-1.185 0v-2.907zm10.85-1.185h1.686c.654 0 1.185.53 1.185 1.185v2.907a1.733 1.733 0 11-1.185 0v-2.907h-1.687V9.687zm-1.687 1.162H9.117V9.71h1.185v1.14zm-1.185 5.128V11.99h1.185v3.988H9.117zM1.732 14.86a.547.547 0 100 1.094.547.547 0 000-1.094zm12.535 0a.547.547 0 100 1.094.547.547 0 000-1.094zm-7.384-.022v1.14H5.698v-1.14h1.185z" fill="#727161"/></svg>