<svg width="25" height="21" fill="none" xmlns="http://www.w3.org/2000/svg"><path d="M5.316 3.333l.211.096a.312.312 0 10.26-.567l-.215-.098a.311.311 0 10-.256.57z" fill="#495352"/><path d="M1.707 2.558l-.875-.41a.586.586 0 00-.83.566L.788 15.31c.013.211.14.399.332.49l8.893 4.244c.012.01.023.023.036.033.38.292.8.516 1.246.666a4.146 4.146 0 001.082.209c.014 0 .028 0 .04-.002a4.159 4.159 0 001.042-.207 4.29 4.29 0 001.247-.666c.013-.01.023-.022.036-.034l8.893-4.243a.585.585 0 00.332-.49l.788-12.595a.585.585 0 00-.83-.566l-.876.41v-.595c0-.01-.002-.018-.003-.027 0-.01.002-.02 0-.03 0-.01-.004-.02-.006-.031a.691.691 0 00-.029-.114.582.582 0 00-.52-.38c-.01 0-.018-.003-.027-.003-.009 0-.017.003-.026.003h-.03c-.297.03-.583.067-.865.112V.585c0-.015-.004-.03-.005-.045-.001-.02-.002-.04-.006-.06-.004-.02-.01-.038-.015-.056-.005-.018-.01-.037-.017-.054a.497.497 0 00-.025-.052c-.009-.016-.017-.033-.027-.049-.01-.016-.022-.03-.034-.045-.012-.015-.023-.03-.035-.043-.013-.013-.027-.024-.041-.036-.015-.013-.029-.026-.044-.037L21.247.08c-.017-.01-.034-.02-.052-.028-.017-.007-.034-.012-.052-.018-.019-.007-.037-.014-.056-.018a.558.558 0 00-.057-.008c-.016-.002-.032-.006-.048-.007h-.032c-.82-.02-3.035.69-5.751 2.675-.972.71-2.136 2.083-2.823 3.358-.688-1.277-1.852-2.65-2.82-3.358C6.843.694 4.623-.01 3.806 0h-.033c-.017.001-.032.005-.049.007-.019.003-.038.004-.056.009a.374.374 0 00-.057.017c-.017.006-.035.011-.052.019a.416.416 0 00-.051.028c-.016.009-.032.017-.047.028-.015.01-.03.024-.044.036a.534.534 0 00-.076.08c-.012.015-.024.029-.034.045-.01.016-.018.032-.027.049l-.025.051c-.007.018-.012.037-.017.055-.005.018-.011.036-.014.055-.004.02-.005.04-.007.06 0 .016-.004.03-.004.046v.907a15.044 15.044 0 00-.865-.112H2.32l-.028-.002c-.012 0-.022.003-.034.003a.595.595 0 00-.355.149.568.568 0 00-.158.233.507.507 0 00-.029.112l-.006.03v.03c0 .01-.003.019-.003.028v.595zm21.116 12.334l-8.03 3.831.013-1.187a.39.39 0 00-.386-.394h-.004a.39.39 0 00-.39.386l-.017 1.597c-.018.015-.037.03-.052.047a2.997 2.997 0 01-1.578.605c-.24-.02-.48-.067-.71-.144-.31-.104-.6-.26-.868-.46-.016-.018-.035-.033-.053-.048l-.095-8.913a.39.39 0 00-.39-.385h-.004a.39.39 0 00-.386.394l.091 8.502-8.03-3.83L1.23 3.624l.524.246a.6.6 0 00.156.045.58.58 0 00.383.146h.002l7.552 3.537.016 1.56a.39.39 0 00.39.386h.005a.39.39 0 00.385-.394L10.63 8c.125.053.264.105.434.161.387.13 1.01.178 1.284.2v-.007c.014.002.025.007.038.007h.032c.266-.022.888-.07 1.276-.2.17-.056.308-.108.433-.16l-.09 8.468a.39.39 0 00.385.395h.005a.39.39 0 00.39-.386l.095-8.88 7.552-3.537h.001c.148 0 .28-.057.383-.147a.58.58 0 00.156-.045l.524-.245-.705 11.267zM15.89 3.621c2-1.462 3.632-2.13 4.485-2.357V2.2c0 .027.004.053.008.079-.944.332-1.77.702-2.597 1.174-.484.277-.984.59-1.486.93a.312.312 0 00.35.516 22.09 22.09 0 011.446-.904c.875-.5 1.749-.882 2.781-1.226.027.004.053.008.081.008a.596.596 0 00.12-.012h.001c.264-.056.53-.101.8-.14v.848l-7.448 3.488c-.006.003-.01.01-.016.012-.006.004-.013.004-.02.007-.243.147-.409.24-.665.34.516-.572 1.294-1.25 2.228-1.933a.312.312 0 00-.368-.503c-.62.452-1.646 1.256-2.363 2.067.516-1.11 1.675-2.61 2.663-3.331zm-4.326 3.413c-1.034-1.206-3.022-2.661-4.633-3.58l-.33-.183a.312.312 0 00-.297.549c.106.057.212.116.319.176 1.464.836 3.33 2.187 4.342 3.3a4.068 4.068 0 01-.604-.314c-.006-.004-.013-.004-.02-.008-.006-.003-.01-.009-.016-.012L2.877 3.474v-.849c.27.04.536.085.8.14h.001a.574.574 0 00.12.013c.02 0 .039-.004.058-.006.252.084.497.17.73.26a.31.31 0 00.403-.18.312.312 0 00-.18-.403 24.047 24.047 0 00-.437-.16.597.597 0 00.01-.087v-.936c.852.227 2.481.891 4.485 2.355 1.008.736 2.2 2.292 2.697 3.413z" fill="#495352"/><path d="M2.529 7.616a.313.313 0 00-.3.323l.016.437a.31.31 0 00.311.3h.012a.313.313 0 00.3-.323l-.016-.436c-.007-.173-.17-.299-.323-.3zM3.795 5.74l-1.25-.568a.312.312 0 00-.439.314c0 .006.05.526.085 1.45.007.169.145.3.311.3h.012a.313.313 0 00.3-.323 37.552 37.552 0 00-.047-.954l.77.35a.313.313 0 00.258-.568zm15.59 9.415l-.245.127a.311.311 0 10.287.553l.245-.126a.313.313 0 00-.287-.554zm2.451-1.506c-.168-.015-.318.125-.326.297l-.005.112-1.329.688a.311.311 0 10.287.554l1.488-.77a.312.312 0 00.168-.264l.014-.291a.311.311 0 00-.297-.326zm.056-1.29a.317.317 0 00-.325.297l-.02.438a.311.311 0 00.299.325h.014a.31.31 0 00.31-.298l.02-.437a.312.312 0 00-.298-.325z" fill="#495352"/></svg>