<svg width="52" height="53" fill="none" xmlns="http://www.w3.org/2000/svg"><g opacity=".5" clip-path="url(#clip0)" fill="#8C9C9A"><path d="M9.554 37.57c-1.606 1.616-4.09 1.55-5.583-.143-1.222-1.39-1.38-4.141 1.034-5.649-.06-.091-.12-.183-.194-.272-.714-.91-1.402-1.839-2.128-2.732-.597-.74-.421-1.324.218-1.769.977-.692 1.898-1.447 2.853-2.18.115-.092.22-.168.36-.28-.982-.936-1.453-2.048-1.274-3.374.133-.998.62-1.81 1.405-2.425a3.49 3.49 0 012.047-.76c.74-.04 1.454.113 2.091.498a3.885 3.885 0 011.503 1.574c2.384-1.764 4.73-3.492 7.114-5.256-1.013-.946-1.459-2.076-1.268-3.419.145-1.014.65-1.814 1.465-2.42.934-.685 1.968-.878 3.098-.607 1.115.274 1.894.969 2.479 1.974a226.79 226.79 0 001.716-1.315c.502-.392 1.004-.784 1.509-1.162.724-.547 1.205-.47 1.753.236 1.039 1.349 2.107 2.693 3.134 4.058.569.746.303 1.402-.62 1.649-.236.07-.467.168-.666.29-.646.402-.936 1.092-.8 1.869.123.706.704 1.275 1.43 1.412.774.157 1.483-.14 1.9-.764a6.45 6.45 0 00.246-.436c.343-.553.984-.65 1.444-.19.265.26.495.57.736.862l2.716 3.504c.435.566.387 1.127-.167 1.557a297.057 297.057 0 01-4.244 3.263c-.672.509-1.42.245-1.608-.581-.293-1.347-1.611-1.861-2.57-1.405-.704.325-1.075.884-1.089 1.643-.01.787.366 1.348 1.084 1.69.416.204.703.504.62.955-.055.271-.219.59-.45.776-1.4 1.114-2.745 2.292-4.246 3.249-1.633 1.038-3.08 2.305-4.64 3.418-.663.478-1.404.257-1.587-.54-.158-.657-.465-1.157-1.102-1.455-.84-.379-1.89-.023-2.347.797a1.808 1.808 0 00.59 2.386c.115.068.215.138.327.192.687.332.822 1.11.23 1.575a207.553 207.553 0 01-4.489 3.45c-.4.303-.818.258-1.204-.112a6.009 6.009 0 01-.626-.736 175.454 175.454 0 00-2.2-2.894zm7.884-19.225c.129.152.205.256.282.359.848 1.09 1.694 2.167 2.528 3.26.415.54.18 1.205-.467 1.433-.194.063-.41.085-.596.19-.307.17-.664.304-.866.572-.48.606-.577 1.306-.188 2.025.345.64.913.963 1.626.942.787-.02 1.377-.412 1.67-1.16.31-.825 1.274-.919 1.76-.231.657.92 1.378 1.785 2.075 2.683.282.359.567.732.851 1.104.929-.713 1.792-1.385 2.671-2.046-1.623-1.932-1.254-4.178.356-5.517.74-.622 1.671-.9 2.655-.793 1.238.136 2.206.74 2.886 1.787l2.657-2.043c-.695-.885-1.36-1.76-2.036-2.618-2.246 1.799-4.503.936-5.565-.38-.617-.766-.89-1.664-.783-2.643.123-1.229.733-2.178 1.773-2.837-.697-.899-1.378-1.785-2.071-2.655-1.238.955-2.45 1.892-3.664 2.814-.349.264-.713.443-1.157.243-.428-.188-.548-.546-.565-.98-.043-.661-.368-1.187-.962-1.492-.985-.529-2.14-.111-2.565.893-.44 1.007.072 2.097 1.146 2.465.403.134.73.325.796.794.081.466-.175.758-.51 1.019l-2.284 1.747a18.71 18.71 0 00-1.453 1.065zM15.92 37.172c-1.618-1.73-1.307-4.227.395-5.539 1.754-1.35 4.22-.887 5.456 1.01.889-.692 1.78-1.37 2.657-2.044-.68-.887-1.357-1.745-2.035-2.618-.877.762-1.86 1.165-3.01 1.028-1.15-.136-2.072-.646-2.735-1.595-.53-.78-.754-1.644-.623-2.57.163-1.162.764-2.08 1.807-2.726-.679-.872-1.355-1.73-2.036-2.617-.13.095-.23.185-.349.264-1.108.86-2.232 1.709-3.34 2.569-.35.264-.715.429-1.157.243-.442-.186-.509-.567-.58-.977-.064-.367-.178-.77-.405-1.065-.473-.617-1.37-.811-2.07-.545-.7.266-1.201.993-1.192 1.718.01.814.51 1.498 1.3 1.755.404.134.715.328.792.766.08.466-.14.795-.503 1.061-1.108.86-2.233 1.709-3.34 2.57-.116.092-.22.168-.361.28.451.577.884 1.128 1.302 1.681.511.669 1.05 1.332 1.522 2.022.335.495.107 1.117-.453 1.344-.123.05-.282.063-.41.085-.707.137-1.207.543-1.442 1.21-.237.651-.112 1.284.346 1.816.843.975 2.431.774 3.023-.36.033-.065.054-.112.087-.176.402-.884 1.157-1 1.756-.244.882 1.114 1.754 2.258 2.638 3.386.093.115.189.244.284.373a61.31 61.31 0 012.676-2.105z"/><path d="M25.125 10.837c-.666-1.05-1.634-1.654-2.886-1.787a3.483 3.483 0 00-2.655.792c-1.607 1.354-1.977 3.6-.355 5.518-.878.675-1.74 1.347-2.672 2.046-.284-.373-.566-.732-.85-1.105-.698-.898-1.42-1.763-2.077-2.683-.483-.673-1.432-.582-1.759.23-.29.764-.883 1.142-1.67 1.162-.713.02-1.278-.29-1.626-.942-.389-.719-.291-1.42.188-2.026.205-.253.559-.402.866-.571.175-.088.39-.111.596-.19.633-.226.868-.892.467-1.434a292.062 292.062 0 00-2.528-3.26 6.299 6.299 0 00-.282-.358A91.84 91.84 0 019.327 5.12l2.285-1.747c.335-.261.577-.55.51-1.019-.081-.466-.393-.66-.797-.794C10.252 1.193 9.757.115 10.18-.904a1.815 1.815 0 012.565-.893c.583.322.92.83.962 1.493.032.43.138.79.566.979.444.2.808.02 1.157-.243 1.212-.936 2.423-1.873 3.664-2.814.68.887 1.373 1.757 2.071 2.655-1.04.66-1.65 1.608-1.773 2.837a3.63 3.63 0 00.783 2.644c1.046 1.304 3.305 2.18 5.565.38.679.872 1.355 1.73 2.036 2.617a97.403 97.403 0 01-2.65 2.086z"/></g><defs><clipPath id="clip0"><path fill="#fff" d="M0 0h52v53H0z"/></clipPath></defs></svg>