<svg width="16" height="15" fill="none" xmlns="http://www.w3.org/2000/svg"><path d="M16 10.622v3.542c0 .07-.01.136-.025.196a.76.76 0 01-.74.61H.76a.758.758 0 01-.75-.675C0 14.249 0 14.209 0 14.159v-3.542c0-.418.343-.756.756-.756a.758.758 0 01.755.756v2.836h12.983v-2.836c0-.418.342-.756.755-.756.207 0 .398.086.534.222a.798.798 0 01.217.539z" fill="#067362"/><path d="M12.358 7.076l-3.713 3.712c-.005.01-.015.015-.02.02a.875.875 0 01-.489.247c-.015 0-.03.005-.045.005-.03.005-.06.005-.09.005l-.086-.005c-.016 0-.03-.005-.046-.005a.86.86 0 01-.488-.246l-.02-.02-3.713-3.713a.88.88 0 01-.257-.625.88.88 0 011.506-.625l2.232 2.232V3.882c0-.484.398-.882.881-.882.242 0 .464.1.625.257a.87.87 0 01.257.625v4.176l2.232-2.232a.888.888 0 011.249 0 .902.902 0 01-.015 1.25z" fill="#067362"/><circle cx="8" cy="1" r="1" fill="#067362"/></svg>