<svg width="24" height="21" fill="none" xmlns="http://www.w3.org/2000/svg"><path d="M5.154 3.232l.204.092a.302.302 0 00.252-.55l-.209-.094a.302.302 0 10-.247.551z" fill="#087464"/><path d="M1.655 2.48l-.848-.398a.568.568 0 00-.806.55L.765 14.84a.566.566 0 00.322.476l8.62 4.113.035.033c.37.283.776.5 1.208.645a4.022 4.022 0 001.05.203c.013 0 .026 0 .039-.002a4.033 4.033 0 001.01-.2 4.184 4.184 0 001.208-.646c.013-.01.023-.022.035-.033l8.621-4.113a.567.567 0 00.322-.476L24 2.63a.567.567 0 00-.806-.548l-.848.397v-.576c0-.01-.002-.017-.003-.027 0-.01.002-.019 0-.029 0-.01-.004-.02-.006-.03a.65.65 0 00-.028-.11.52.52 0 00-.076-.14.598.598 0 00-.156-.144.58.58 0 00-.205-.077.562.562 0 00-.067-.007c-.01 0-.017-.003-.026-.003l-.025.003h-.03a14.39 14.39 0 00-.838.108v-.88c0-.015-.004-.029-.005-.043-.001-.02-.002-.04-.006-.06-.003-.018-.009-.035-.014-.053a.468.468 0 00-.017-.053c-.006-.017-.015-.033-.024-.05-.008-.016-.016-.032-.026-.047-.01-.015-.022-.03-.033-.044-.012-.014-.022-.028-.035-.041-.012-.013-.026-.024-.04-.036a.487.487 0 00-.042-.035c-.014-.01-.03-.018-.045-.027-.017-.01-.033-.02-.05-.027-.016-.008-.034-.012-.05-.019l-.056-.017c-.017-.004-.036-.005-.054-.007-.016-.002-.031-.006-.047-.007h-.03c-.795-.019-2.943.67-5.576 2.593-.943.689-2.07 2.02-2.737 3.256-.667-1.238-1.794-2.57-2.734-3.256C6.634.673 4.483-.009 3.691.001L3.681 0h-.023c-.016.001-.032.005-.047.007a.454.454 0 00-.055.008c-.02.004-.037.011-.055.017-.017.006-.034.01-.05.018-.018.008-.034.018-.05.027-.016.01-.031.017-.046.027-.015.011-.029.024-.043.036-.013.012-.027.022-.039.035L3.24.217c-.012.015-.023.028-.033.044-.01.015-.018.031-.026.047a.385.385 0 00-.024.05c-.007.017-.012.035-.017.053-.005.018-.011.035-.014.053-.004.02-.005.04-.006.06-.001.014-.005.028-.005.043v.88c-.273-.044-.55-.08-.837-.109H2.25l-.028-.002-.032.003a.574.574 0 00-.345.144.55.55 0 00-.153.226.491.491 0 00-.027.109l-.006.03v.028c0 .01-.003.018-.003.027v.577zm20.47 11.957L14.34 18.15l.013-1.15a.378.378 0 00-.374-.382h-.004a.378.378 0 00-.378.373l-.017 1.549c-.017.015-.035.029-.05.046a2.901 2.901 0 01-1.53.586 2.908 2.908 0 01-.688-.14c-.3-.1-.582-.252-.842-.446-.015-.017-.033-.031-.05-.046l-.093-8.64a.378.378 0 00-.378-.374h-.004a.378.378 0 00-.374.382l.088 8.243-7.784-3.714-.683-10.922.508.237c.049.023.1.036.15.044.1.087.229.142.372.142h.001l7.321 3.428.017 1.513c.002.207.17.374.378.374h.004a.378.378 0 00.373-.382l-.011-1.115c.121.052.256.102.42.156.376.126.98.173 1.246.194V8.1c.013.001.024.007.036.007l.03-.001c.259-.02.862-.068 1.238-.194.165-.054.299-.105.42-.156l-.087 8.21a.378.378 0 00.373.383h.005a.378.378 0 00.377-.374l.093-8.61 7.32-3.428h.002a.56.56 0 00.371-.141.562.562 0 00.151-.044l.508-.238-.683 10.923zM15.404 3.51c1.94-1.417 3.52-2.065 4.347-2.285v.904l.001.005c0 .026.004.05.008.076-.916.322-1.716.681-2.518 1.139-.469.268-.954.571-1.44.901a.303.303 0 00.339.5c.474-.321.945-.616 1.401-.876a14.586 14.586 0 012.697-1.189c.026.004.051.008.078.008a.55.55 0 00.116-.012h.002c.255-.054.513-.098.775-.136v.823l-7.22 3.381c-.006.003-.01.01-.016.012-.006.004-.013.004-.02.007a3.817 3.817 0 01-.644.33c.5-.556 1.254-1.212 2.16-1.875a.302.302 0 00-.357-.488c-.6.44-1.596 1.219-2.29 2.004.5-1.076 1.623-2.53 2.581-3.229zM11.21 6.819c-1.002-1.17-2.93-2.58-4.49-3.47L6.4 3.17a.303.303 0 00-.288.532c.102.055.205.113.308.171 1.42.81 3.229 2.12 4.21 3.2a3.95 3.95 0 01-.586-.306c-.006-.003-.013-.003-.02-.007l-.015-.012-7.22-3.381v-.823c.262.038.52.082.775.136h.002a.555.555 0 00.116.012c.02 0 .037-.004.056-.006.245.082.482.165.708.252a.3.3 0 00.39-.174.302.302 0 00-.174-.39 14.91 14.91 0 00-.423-.155.58.58 0 00.008-.086V2.13l.001-.002v-.9c.826.22 2.405.864 4.347 2.283.977.714 2.133 2.222 2.615 3.309z" fill="#087464"/><path d="M2.451 7.383a.303.303 0 00-.291.313l.016.424c.006.163.14.29.302.29h.011a.303.303 0 00.291-.313l-.015-.423c-.007-.167-.165-.289-.314-.29zm1.228-1.818l-1.211-.551a.303.303 0 00-.426.304c0 .006.048.51.082 1.406.007.164.14.291.302.291h.012a.303.303 0 00.29-.313 36.445 36.445 0 00-.045-.926l.746.34a.303.303 0 00.25-.55zm15.113 9.126l-.238.123a.302.302 0 10.279.537l.238-.123a.303.303 0 00-.279-.537zm2.376-1.46a.3.3 0 00-.316.288l-.005.11-1.288.666a.302.302 0 10.278.537l1.442-.747a.303.303 0 00.163-.255l.013-.283a.302.302 0 00-.287-.316zm.055-1.251a.308.308 0 00-.316.29l-.018.424a.302.302 0 00.288.315h.014c.16 0 .294-.127.302-.289l.018-.424a.302.302 0 00-.288-.316z" fill="#087464"/></svg>