<svg width="26" height="24" fill="none" xmlns="http://www.w3.org/2000/svg"><g clip-path="url(#clip0)"><path d="M.284 9.31A2.78 2.78 0 000 10.472c-.284 1.89 1.137 3.636 2.984 3.927H4.12l.427-.145 1.847 4.218-.427.29c-.426.292-.568.728-.71 1.31-.142 1.163.71 2.182 1.847 2.327.852.146 1.705-.29 2.131-1.164l.142-.29 5.4.581v.437c.283 1.454 1.562 2.472 2.983 2.181 1.42-.29 2.415-1.6 2.13-3.054 0-.436-.283-.873-.567-1.164l-.285-.29 2.984-4.073.426.145a2.617 2.617 0 003.268-1.454s.142-.291.142-.728V12.8c0-.436-.284-1.018-.568-1.309l-.426-.436c-.569-.437-1.28-.582-1.99-.437h-.284l-1.278-3.636.284-.146c1.705-1.163 2.13-3.49.994-5.09 0-.146-.142-.146-.142-.291l-.142-.146-.426-.436-.568-.291c-1.847-.873-3.979-.146-4.831 1.745-.142.146-.142.291-.142.437l-.568.145-4.263-.582v-.29l-.426-.873-.426-.437C9.803 0 8.383.291 7.814 1.164c-.568.727-.568 1.745-.142 2.472l.284.291L5.257 7.71l-.426-.145c-1.705-.728-3.694 0-4.547 1.745zm19.039 12.363c-.143 1.018-.995 1.89-2.132 1.745-.994-.145-1.847-1.018-1.704-2.182.142-1.018.994-1.89 2.13-1.745.995.145 1.848 1.018 1.706 2.182zm2.841-10.182c.853-.727 1.99-.582 2.7.29.284.437.426.874.426 1.455 0 .582-.284 1.019-.71 1.31-.853.727-1.99.581-2.7-.291-.71-.728-.568-2.037.284-2.764zM17.618 1.455c1.278-1.019 3.125-.873 4.12.436.994 1.309.852 3.2-.426 4.218-.995.873-2.558.873-3.552.146-.142-.146-.427-.291-.569-.582-.426-.582-.71-1.455-.568-2.182 0-.873.426-1.6.995-2.036zm-8.81 3.054c.143 0 .285 0 .285.146.853.145 1.705-.291 2.131-1.164l.284-.436 4.263.581v.437c.142 2.036 1.847 3.636 3.836 3.345.142 0 .284 0 .568-.145h.426l1.421 3.49-.284.146c-1.137.873-1.279 2.618-.426 3.782l.284.29-2.984 4.074-.284-.146c-1.279-.582-2.841.146-3.268 1.455l-.142.29-5.399-.581v-.437a2.258 2.258 0 00-.852-1.163c-.284-.291-.568-.291-.995-.437h-.426l-.426.146-1.705-4.218.284-.291c.853-.582 1.279-1.455 1.42-2.473.143-.873-.141-1.89-.71-2.618l-.142-.146-.142-.29 2.7-3.782.284.145zM5.542 9.02c.995 1.163.71 2.908-.426 3.926-.995.728-2.273.873-3.268.146l-.568-.582c-.995-1.164-.71-2.909.426-3.927 1.279-.873 2.984-.727 3.836.436z" fill="#42BDAA"/><path d="M12.929 7.418c-2.558 0-4.547 2.037-4.547 4.655 0 2.618 1.99 4.654 4.547 4.654 2.557 0 4.546-2.036 4.546-4.654.142-2.618-1.989-4.655-4.546-4.655zm0 7.71c-1.563 0-2.984-1.455-2.984-3.055 0-1.746 1.42-3.2 2.984-3.2 1.705 0 2.983 1.309 2.983 3.054.143 1.746-1.278 3.2-2.983 3.2z" fill="#42BDAA"/><path d="M12.93 10.618c-.711 0-1.28.582-1.28 1.31a1.29 1.29 0 001.28 1.308c.71 0 1.278-.582 1.278-1.309.142-.582-.427-1.309-1.279-1.309z" fill="#30C4AE"/><path d="M11.65 8.582L9.377 2.618m2.273 5.964L9.377 2.618m-2.131 17.6l3.552-5.09" stroke="#42BDAA" stroke-width=".75" stroke-miterlimit="10"/></g><defs><clipPath id="clip0"><path fill="#fff" d="M0 0h26v24H0z"/></clipPath></defs></svg>