<svg width="83" height="83" fill="none" xmlns="http://www.w3.org/2000/svg"><g clip-path="url(#clip0)" fill="#067362"><path d="M61.731 74.648l1.401 1.971c.882-.518 1.712-1.09 2.542-1.66l-1.556-1.867c-.778.519-1.608 1.037-2.387 1.556zm6.278-1.504a41.396 41.396 0 002.282-1.972l-1.816-1.66c-.674.623-1.4 1.245-2.126 1.868l1.66 1.764zm8.092-8.715c.57-.778 1.09-1.66 1.608-2.49l-2.23-1.141a58.935 58.935 0 01-1.505 2.334l2.127 1.297zM51.149 79.213l.726 2.23c.986-.259 1.971-.57 2.905-.933l-.83-2.179c-.934.311-1.867.623-2.801.882zm28.946-42.019l2.49-.31c-.155-.935-.31-1.92-.518-2.854l-2.49.467c.207.882.363 1.816.518 2.697zm1.142 16.808c.31-.934.518-1.868.778-2.801l-2.49-.52a49.837 49.837 0 01-.727 2.647l2.439.674zm-.779-12.346v.985H83v-.985c0-.623-.052-1.297-.104-1.92l-2.541.156c.051.57.103 1.141.103 1.764zm-1.4 17.689c.415-.882.83-1.764 1.193-2.646l-2.386-.83c-.311.83-.726 1.66-1.141 2.49l2.334.986zm-6.692 9.701a36.725 36.725 0 001.919-2.231l-2.023-1.4a35.639 35.639 0 01-1.816 2.126l1.92 1.505zm10.167-20.698c.156-.934.26-1.92.311-2.853l-2.541-.156a23.88 23.88 0 01-.312 2.697l2.542.312zM57.685 79.42c.934-.414 1.868-.83 2.75-1.296l-1.245-2.075c-.83.415-1.712.83-2.594 1.245l1.09 2.127zm-39.01-69.252L17.119 8.3a27.03 27.03 0 00-2.387 1.867l1.66 1.764c.727-.622 1.505-1.193 2.283-1.763zm-6.173 1.971c-.727.674-1.4 1.4-2.075 2.127l1.92 1.504c.622-.675 1.296-1.349 1.97-2.023l-1.815-1.608zm-7.314 9.337c-.467.83-.934 1.712-1.35 2.594l2.335.934c.415-.83.83-1.66 1.297-2.438l-2.282-1.09zM28.79 4.772l-.933-2.178c-.934.363-1.92.726-2.853 1.141l1.09 2.127c.881-.363 1.815-.726 2.697-1.09zM.934 32.266C.726 33.2.57 34.186.415 35.12l2.49.312c.104-.882.311-1.816.519-2.698l-2.49-.467zM2.75 44.509c-.052-.312-.052-.623-.104-.934l-2.49.207c0 .312.052.675.104.986.051.623.155 1.245.259 1.868l2.49-.364c-.156-.622-.208-1.193-.26-1.763zm-.104-17.793a24.476 24.476 0 00-.934 2.749l2.386.622c.26-.881.57-1.711.882-2.593l-2.334-.778zm5.861-10.168a40.46 40.46 0 00-1.763 2.386L8.87 20.18c.518-.778 1.089-1.504 1.66-2.23l-2.024-1.4zM.104 37.972C.052 38.906 0 39.892 0 40.877h2.542c0-.882 0-1.815.104-2.697l-2.542-.208zM34.342 3.164L33.77.882c-.986.207-2.023.467-2.957.778l.726 2.23a56.577 56.577 0 012.802-.726zm-12.036 1.92c-.882.467-1.764.985-2.645 1.504l1.4 1.971c.83-.518 1.66-.985 2.49-1.452l-1.245-2.023zm23.292 75.115c-18 1.763-35.275-9.442-41.085-26.612-.207-.675-.986-1.09-1.66-.83-.674.207-1.037.985-.83 1.66C8.196 72.78 26.663 84.712 45.91 82.844h.052c.727-.103 1.193-.726 1.142-1.452-.104-.727-.779-1.297-1.505-1.193zM38.595 2.697c17.741-1.14 34.082 9.857 39.736 26.716.208.623.83.986 1.453.882.103 0 .155-.052.26-.052.674-.207 1.037-.985.83-1.66-6.07-18-23.5-29.724-42.435-28.531-.726.052-1.245.674-1.193 1.4 0 .727.623 1.297 1.349 1.245z"/></g><defs><clipPath id="clip0"><path fill="#fff" d="M0 0h83v83H0z"/></clipPath></defs></svg>