<svg width="83" height="83" viewBox="0 0 83 83" fill="none" xmlns="http://www.w3.org/2000/svg">
<g clip-path="url(#clip0)">
<path d="M61.7314 74.6482L63.1321 76.6194C64.0139 76.1007 64.8439 75.53 65.6739 74.9594L64.1177 73.0919C63.3396 73.6107 62.5096 74.1294 61.7314 74.6482Z" fill="#067362"/>
<path d="M68.0086 73.1438C68.7868 72.5213 69.5649 71.8469 70.2911 71.1725L68.4755 69.5125C67.8011 70.135 67.0749 70.7575 66.3486 71.38L68.0086 73.1438Z" fill="#067362"/>
<path d="M76.101 64.4288C76.6716 63.6507 77.1904 62.7688 77.7091 61.9388L75.4785 60.7975C75.0116 61.5757 74.4929 62.3538 73.9741 63.1319L76.101 64.4288Z" fill="#067362"/>
<path d="M51.1489 79.2132L51.8752 81.4438C52.8608 81.1844 53.8464 80.8732 54.7802 80.51L53.9502 78.3313C53.0164 78.6425 52.0827 78.9538 51.1489 79.2132Z" fill="#067362"/>
<path d="M80.0954 37.1944L82.5854 36.8832C82.4298 35.9494 82.2742 34.9638 82.0667 34.03L79.5767 34.4969C79.7842 35.3788 79.9398 36.3125 80.0954 37.1944Z" fill="#067362"/>
<path d="M81.2365 54.0019C81.5477 53.0681 81.7552 52.1344 82.0146 51.2006L79.5246 50.6819C79.3171 51.5638 79.0577 52.4456 78.7983 53.3275L81.2365 54.0019Z" fill="#067362"/>
<path d="M80.4582 41.6556C80.4582 41.9669 80.4582 42.2781 80.4582 42.6413H83.0001C83.0001 42.33 83.0001 41.9669 83.0001 41.6556C83.0001 41.0331 82.9482 40.3588 82.8964 39.7363L80.3545 39.8919C80.4064 40.4625 80.4582 41.0331 80.4582 41.6556Z" fill="#067362"/>
<path d="M79.058 59.345C79.473 58.4631 79.888 57.5813 80.2511 56.6994L77.8649 55.8694C77.5536 56.6994 77.1386 57.5294 76.7236 58.3594L79.058 59.345Z" fill="#067362"/>
<path d="M72.3657 69.0457C73.04 68.3194 73.7144 67.5413 74.285 66.8151L72.2619 65.4144C71.6913 66.1407 71.0688 66.8669 70.4463 67.5413L72.3657 69.0457Z" fill="#067362"/>
<path d="M82.5331 48.3476C82.6887 47.4138 82.7925 46.4282 82.8443 45.4944L80.3025 45.3388C80.2506 46.2207 80.1468 47.1544 79.9912 48.0363L82.5331 48.3476Z" fill="#067362"/>
<path d="M57.6851 79.4206C58.6188 79.0056 59.5526 78.5906 60.4345 78.1238L59.1895 76.0488C58.3595 76.4638 57.4776 76.8788 56.5957 77.2938L57.6851 79.4206Z" fill="#067362"/>
<path d="M18.6749 10.1675L17.1187 8.30005C16.2887 8.87067 15.5105 9.49317 14.7324 10.1675L16.3924 11.9313C17.1187 11.3088 17.8968 10.7382 18.6749 10.1675Z" fill="#067362"/>
<path d="M12.5018 12.1388C11.7755 12.8132 11.1011 13.5394 10.4268 14.2657L12.3461 15.77C12.9686 15.0957 13.643 14.4213 14.3174 13.7469L12.5018 12.1388Z" fill="#067362"/>
<path d="M5.18762 21.4763C4.72074 22.3063 4.25387 23.1881 3.83887 24.07L6.17324 25.0038C6.58824 24.1738 7.00324 23.3438 7.47012 22.5656L5.18762 21.4763Z" fill="#067362"/>
<path d="M28.7908 4.7725L27.857 2.59375C26.9233 2.95687 25.9377 3.32 25.0039 3.735L26.0933 5.86188C26.9752 5.49875 27.9089 5.13562 28.7908 4.7725Z" fill="#067362"/>
<path d="M0.933789 32.2663C0.726289 33.2 0.570664 34.1857 0.415039 35.1194L2.90504 35.4307C3.00879 34.5488 3.21629 33.615 3.42379 32.7332L0.933789 32.2663Z" fill="#067362"/>
<path d="M2.74951 44.5088C2.69764 44.1975 2.69764 43.8863 2.64576 43.575L0.155762 43.7825C0.155762 44.0938 0.207637 44.4569 0.259512 44.7681C0.311387 45.3906 0.415137 46.0131 0.518887 46.6356L3.00889 46.2725C2.85326 45.65 2.80139 45.0794 2.74951 44.5088Z" fill="#067362"/>
<path d="M2.64566 26.7156C2.28254 27.5975 1.97129 28.5313 1.71191 29.465L4.09816 30.0875C4.35754 29.2056 4.66879 28.3756 4.98004 27.4938L2.64566 26.7156Z" fill="#067362"/>
<path d="M8.5074 16.5482C7.8849 17.3263 7.31428 18.1044 6.74365 18.9344L8.87053 20.1794C9.38928 19.4013 9.9599 18.675 10.5305 17.9488L8.5074 16.5482Z" fill="#067362"/>
<path d="M0.10375 37.9725C0.051875 38.9063 0 39.8919 0 40.8775H2.54188C2.54188 39.9957 2.54188 39.0619 2.64563 38.18L0.10375 37.9725Z" fill="#067362"/>
<path d="M34.3415 3.1644L33.7708 0.881897C32.7852 1.0894 31.7477 1.34877 30.814 1.66002L31.5402 3.89065C32.474 3.63127 33.4077 3.3719 34.3415 3.1644Z" fill="#067362"/>
<path d="M22.3063 5.08374C21.4244 5.55062 20.5425 6.06936 19.6606 6.58811L21.0613 8.55936C21.8913 8.04061 22.7213 7.57374 23.5513 7.10686L22.3063 5.08374Z" fill="#067362"/>
<path d="M45.5981 80.1988C27.5975 81.9625 10.3231 70.7575 4.5131 53.5869C4.3056 52.9125 3.52747 52.4975 2.8531 52.7569C2.17872 52.9644 1.8156 53.7425 2.0231 54.4169C8.19622 72.7807 26.6637 84.7119 45.9094 82.8444H45.9612C46.6875 82.7407 47.1544 82.1182 47.1025 81.3919C46.9987 80.6657 46.3244 80.095 45.5981 80.1988Z" fill="#067362"/>
<path d="M38.595 2.69751C56.3362 1.55626 72.6769 12.5538 78.3312 29.4131C78.5387 30.0356 79.1612 30.3988 79.7837 30.295C79.8875 30.295 79.9394 30.2431 80.0431 30.2431C80.7175 30.0356 81.0806 29.2575 80.8731 28.5831C74.8037 10.5825 57.3737 -1.14124 38.4394 0.0518892C37.7131 0.103764 37.1944 0.726264 37.2462 1.45251C37.2462 2.17876 37.8687 2.74939 38.595 2.69751Z" fill="#067362"/>
<g clip-path="url(#clip1)">
<path d="M41.5176 58C35.3501 58 29.1913 58 23.0238 58C21.0646 58 19.615 56.9204 19.1494 55.0787C19.0527 54.6886 19 54.2803 19 53.8721C19 47.2403 19 40.5993 19.0088 33.9675C19.0088 32.7609 18.9912 31.5452 19.0966 30.3477C19.2284 28.8054 20.1246 27.7893 21.5039 27.2722C21.9959 27.0907 22.5582 27.0181 23.0941 27.0091C35.3588 27 47.6324 27 59.8971 27C61.9002 27 63.3235 28.007 63.8243 29.8578C63.9824 30.4565 63.9912 31.1097 63.9912 31.7357C64 37.6327 63.9912 43.5297 63.9912 49.4176C63.9912 50.9327 64.0176 52.4387 63.9912 53.9537C63.9649 55.614 63.2796 56.9113 61.786 57.6008C61.2237 57.8639 60.5472 57.9728 59.9235 57.9818C53.7911 58.009 47.6587 58 41.5176 58ZM41.4473 56.0313C47.6236 56.0313 53.7999 56.0131 59.985 56.0404C61.3467 56.0494 62.1287 55.1604 62.1199 53.8267C62.1023 50.7422 62.1199 47.6576 62.1287 44.5821C62.1287 40.1276 62.1199 35.664 62.1374 31.2095C62.1462 29.8487 61.3292 28.9505 59.985 28.9505C47.6587 28.9687 35.3325 28.9596 23.0062 28.9687C22.7602 28.9687 22.5055 28.9778 22.2683 29.0413C21.4073 29.2771 20.9065 29.9757 20.8977 31.0009C20.8801 32.6611 20.8889 34.3213 20.8889 35.9816C20.8889 41.942 20.8801 47.9116 20.8801 53.8721C20.8801 54.1715 20.9328 54.4799 21.0207 54.7521C21.3194 55.6412 21.9344 56.0222 23.0062 56.0222C29.1562 56.0313 35.3061 56.0313 41.4473 56.0313Z" fill="#067362"/>
<path d="M62.9634 54.1171C63.429 54.0808 63.7365 53.9265 63.9035 53.5364C64.088 53.11 64.0265 52.7018 63.6663 52.4478C63.0073 51.9851 62.3045 51.5768 61.6104 51.1686C60.0993 50.2704 52.5261 45.4893 51.0061 44.6093C50.3648 44.2373 49.7322 44.4914 49.5477 45.1627C49.4335 45.58 49.6268 46.0246 50.0837 46.2877C52.2186 47.5487 60.4068 52.6927 62.5505 53.9447C62.6911 54.0263 62.858 54.0717 62.9634 54.1171Z" fill="#067362"/>
<path d="M19.9053 53.3006C19.9228 54.0808 20.6521 54.5435 21.2846 54.1897C22.4004 53.5728 29.1214 49.7987 30.2196 49.1546C31.2651 48.5376 37.0373 45.4349 38.0827 44.8089C38.4342 44.6003 38.7241 44.31 38.6802 43.8382C38.645 43.4027 38.4166 43.0671 38.0125 42.9854C37.7489 42.931 37.415 42.9763 37.1866 43.1034C35.0517 44.3372 22.5761 51.1868 20.4588 52.4478C20.1425 52.6383 19.9141 52.9377 19.9053 53.3006Z" fill="#067362"/>
<path d="M31.4844 40.8443C32.1007 40.8443 32.6002 40.3284 32.6002 39.6921C32.6002 39.0558 32.1007 38.5399 31.4844 38.5399C30.8682 38.5399 30.3687 39.0558 30.3687 39.6921C30.3687 40.3284 30.8682 40.8443 31.4844 40.8443Z" fill="#067362"/>
<path d="M29.7446 38.6317C30.0873 38.1871 29.9818 37.5249 29.5162 37.2164C26.9157 35.4836 22.1538 32.3083 20.8711 31.4646C20.2298 31.0382 19.5796 31.2468 19.3512 31.9454C19.2194 32.3627 19.3864 32.7619 19.852 33.0794C21.2401 34.0139 25.6066 36.917 28.4971 38.8403C28.91 39.1125 29.4459 39.0218 29.7446 38.6317Z" fill="#067362"/>
<path d="M63.7537 31.9353C63.5341 31.2549 62.8664 31.0372 62.2338 31.4545C60.2482 32.77 52.8332 37.6418 50.8564 38.9663C47.7463 41.0439 44.6362 43.1215 41.5085 45.2172C39.1188 43.6204 36.7379 42.0328 34.357 40.4451C33.9441 40.173 33.3993 40.2728 33.1006 40.6719C32.7668 41.1165 32.8722 41.7697 33.3378 42.0781C35.8066 43.7293 38.2754 45.3805 40.7441 47.0407C41.2976 47.4126 41.7633 47.3854 42.308 47.0225C46.5427 44.1557 56.2244 37.7869 60.4679 34.9473C61.3816 34.3304 62.3041 33.7226 63.2178 33.1057C63.7098 32.77 63.8855 32.3617 63.7537 31.9353Z" fill="#067362"/>
</g>
</g>
<defs>
<clipPath id="clip0">
<rect width="83" height="83" fill="white"/>
</clipPath>
<clipPath id="clip1">
<rect width="45" height="31" fill="white" transform="translate(19 27)"/>
</clipPath>
</defs>
</svg>
