<svg width="226" height="28" fill="none" xmlns="http://www.w3.org/2000/svg"><path d="M88.77 1.807c-.765 0-1.392.625-1.392 1.39v20.01c0 .763.627 1.389 1.393 1.389s1.392-.626 1.392-1.39V3.196c0-.764-.626-1.39-1.392-1.39zm-62.8-.07H5.363c-.766 0-1.393.625-1.393 1.39 0 .764.627 1.39 1.393 1.39H25.97c.765 0 1.392-.626 1.392-1.39 0-.765-.627-1.39-1.392-1.39zm-6.962 10.075H5.362c-.766 0-1.393.625-1.393 1.39 0 .763.627 1.389 1.393 1.389h13.646c.766 0 1.393-.626 1.393-1.39 0-.764-.627-1.39-1.393-1.39zm6.962 10.143H5.363c-.766 0-1.393.626-1.393 1.39 0 .764.627 1.39 1.393 1.39H25.97c.765 0 1.392-.626 1.392-1.39 0-.764-.627-1.39-1.392-1.39zM148.23 1.737c-.766 0-1.393.625-1.393 1.39v20.148c0 .765.627 1.39 1.393 1.39s1.392-.625 1.392-1.39V3.128c0-.765-.626-1.39-1.392-1.39zm27.223 0c-.766 0-1.393.625-1.393 1.39v20.148c0 .765.627 1.39 1.393 1.39s1.393-.625 1.393-1.39V3.128c0-.765-.627-1.39-1.393-1.39z" fill="#fff"/><path d="M166.68 10.77l-4.247 4.307c-.209.209-.627.209-.836 0L149.413 2.362a1.347 1.347 0 00-1.949 0c-.557.556-.557 1.46 0 1.946l12.184 12.715a3.441 3.441 0 002.367.972 3.44 3.44 0 002.367-.973l4.247-4.307c.557-.556.557-1.46 0-1.946-.487-.556-1.392-.556-1.949 0zM46.718 1.807c-.766 0-1.393.625-1.393 1.39v20.01c0 .763.627 1.389 1.393 1.389s1.393-.626 1.393-1.39V3.266c0-.834-.627-1.46-1.393-1.46zm21.305 0c-.766 0-1.393.625-1.393 1.39v20.01c0 .763.627 1.389 1.393 1.389s1.392-.626 1.392-1.39V3.266c0-.834-.626-1.46-1.392-1.46z" fill="#fff"/><path d="M47.901 2.362a1.413 1.413 0 00-1.95-.07 1.406 1.406 0 00-.069 1.946l13.02 13.201c.278.278.627.417 1.044.417.348 0 .697-.139.975-.417.557-.556.557-1.39.07-1.945L47.9 2.362zm71.644 19.594c-4.804 0-8.703-3.891-8.703-8.685 0-4.794 3.899-8.685 8.703-8.685.766 0 1.392-.626 1.392-1.39 0-.764-.626-1.39-1.392-1.39-6.336 0-11.488 5.142-11.488 11.534 0 6.323 5.152 11.534 11.488 11.534.766 0 1.392-.626 1.392-1.39 0-.764-.626-1.529-1.392-1.529z" fill="#fff"/><path d="M125.602 11.812h-6.058c-.766 0-1.392.625-1.392 1.39 0 .763.626 1.389 1.392 1.389h6.058c.348 0 .557.278.557.556v6.044c0 .764.626 1.39 1.392 1.39.766 0 1.393-.626 1.393-1.39v-6.044c0-1.807-1.532-3.335-3.342-3.335zM207.271 1.25c-6.893 0-12.532 5.35-12.532 12.02 0 5.142 3.342 9.519 8.007 11.256.974.347 2.019-.417 2.019-1.46 0-.624-.418-1.25-1.045-1.458-3.62-1.32-6.196-4.516-6.196-8.338 0-4.933 4.316-8.962 9.677-8.962 5.362 0 9.678 4.03 9.678 8.962 0 3.822-2.576 7.087-6.196 8.338a1.502 1.502 0 00-1.045 1.459c0 1.042 1.045 1.806 2.019 1.459 4.665-1.737 8.007-6.114 8.007-11.256.07-6.6-5.5-12.02-12.393-12.02z" fill="#fff"/></svg>