<svg width="150" height="19" fill="none" xmlns="http://www.w3.org/2000/svg"><path d="M58.906 1.201a.927.927 0 00-.924.925v13.308c0 .509.416.925.924.925a.927.927 0 00.925-.925V2.126a.927.927 0 00-.925-.925zm-41.673-.046H3.558a.927.927 0 00-.924.924c0 .509.416.925.924.925h13.675a.927.927 0 00.924-.925.927.927 0 00-.924-.924zm-4.62 6.701H3.558a.927.927 0 00-.924.924c0 .508.416.924.924.924h9.055a.927.927 0 00.924-.924.927.927 0 00-.924-.924zm4.62 6.747H3.558a.927.927 0 00-.924.924c0 .508.416.924.924.924h13.675a.927.927 0 00.924-.924.927.927 0 00-.924-.924zM98.362 1.155a.927.927 0 00-.924.924v13.402c0 .508.416.924.924.924a.927.927 0 00.924-.924V2.079a.927.927 0 00-.924-.924zm18.064 0a.927.927 0 00-.924.924v13.402c0 .508.416.924.924.924a.927.927 0 00.925-.924V2.079a.927.927 0 00-.925-.924z" fill="#fff"/><path d="M110.605 7.163l-2.818 2.865a.422.422 0 01-.555 0L99.147 1.57a.893.893 0 00-1.293 0c-.37.37-.37.97 0 1.294l8.085 8.457a2.28 2.28 0 001.571.647c.554 0 1.155-.231 1.57-.647l2.819-2.865c.369-.37.369-.97 0-1.294-.324-.37-.924-.37-1.294 0zM31.001 1.201a.927.927 0 00-.924.925v13.308c0 .509.416.925.924.925a.927.927 0 00.924-.925V2.172c0-.555-.416-.97-.924-.97zm14.138 0a.927.927 0 00-.925.925v13.308c0 .509.416.925.925.925a.927.927 0 00.924-.925V2.172c0-.555-.416-.97-.925-.97z" fill="#fff"/><path d="M31.786 1.571a.936.936 0 00-1.293-.046.937.937 0 00-.046 1.294l8.639 8.78a.94.94 0 00.693.277.912.912 0 00.647-.277c.37-.37.37-.924.046-1.294l-8.686-8.734zm47.541 13.032a5.778 5.778 0 01-5.775-5.777 5.778 5.778 0 015.775-5.776.927.927 0 00.924-.924.927.927 0 00-.924-.925c-4.204 0-7.623 3.42-7.623 7.671 0 4.206 3.419 7.671 7.623 7.671a.927.927 0 00.924-.924c0-.508-.416-1.016-.924-1.016z" fill="#fff"/><path d="M83.347 7.856h-4.02a.927.927 0 00-.924.924c0 .508.416.924.924.924h4.02c.23 0 .37.185.37.37v4.02c0 .509.415.925.923.925a.927.927 0 00.924-.925v-4.02c0-1.202-1.016-2.218-2.217-2.218zM137.54.832c-4.574 0-8.316 3.558-8.316 7.994 0 3.42 2.218 6.331 5.313 7.486.647.231 1.34-.277 1.34-.97a1.04 1.04 0 00-.693-.97c-2.403-.879-4.112-3.004-4.112-5.546 0-3.28 2.864-5.961 6.422-5.961 3.557 0 6.422 2.68 6.422 5.961 0 2.542-1.71 4.714-4.112 5.545a.999.999 0 00-.693.97c0 .694.693 1.202 1.34.971 3.095-1.155 5.313-4.066 5.313-7.486.046-4.39-3.65-7.994-8.224-7.994z" fill="#fff"/></svg>