<svg width="13" height="13" fill="none" xmlns="http://www.w3.org/2000/svg"><g clip-path="url(#clip0)" fill="#8C9C9A"><path d="M8.73.05c-.095-.048-.19-.048-.332 0a.57.57 0 00-.237.235l-.285.757a6.332 6.332 0 00-3.511 0C1.945 1.75 0 4.067 0 6.904a6.144 6.144 0 006.168 6.145c3.369 0 6.12-2.742 6.12-6.145 0-.71-.095-1.277-.284-1.844l.759-.284c.237-.094.332-.33.237-.52C12.24 2.318 10.675.758 8.73.05zM7.639 1.797l-1.376 3.64-1.186-3.734c.806-.142 1.708-.095 2.562.094zm3.795 5.106c0 2.93-2.372 5.294-5.266 5.294A5.296 5.296 0 01.854 6.904C.807 4.682 2.23 2.744 4.27 1.987c1.66 5.2 1.518 4.87 1.566 4.917a.478.478 0 00.522.236l4.887-1.75c.094.38.19.9.19 1.514zm-4.507-.851L8.825.995a6.653 6.653 0 013.226 3.214L6.927 6.053z"/><path d="M3.321 6.902a.424.424 0 00-.427-.426.424.424 0 00-.427.426c0 2.032 1.66 3.64 3.654 3.64a.424.424 0 100-.851c-1.566.047-2.8-1.23-2.8-2.79z"/></g><defs><clipPath id="clip0"><path fill="#fff" d="M0 0h13v13H0z"/></clipPath></defs></svg>