<svg width="32" height="28" fill="none" xmlns="http://www.w3.org/2000/svg"><g clip-path="url(#clip0)" fill="#495352"><path d="M.34 10.86c-.17.34-.34.85-.34 1.358-.34 2.206 1.357 4.243 3.564 4.582H4.92l.51-.17 2.205 4.922-.509.339c-.509.34-.679.848-.848 1.527-.17 1.358.848 2.546 2.206 2.715 1.018.17 2.036-.34 2.545-1.357l.17-.34 6.448.68v.508c.34 1.697 1.867 2.885 3.564 2.546 1.697-.34 2.885-1.867 2.546-3.564 0-.509-.34-1.018-.68-1.358l-.339-.339 3.564-4.751.509.17c1.527.508 3.224-.17 3.903-1.698 0 0 .17-.34.17-.848v-.849c0-.509-.34-1.188-.679-1.527l-.51-.509c-.678-.51-1.526-.679-2.375-.51h-.34l-1.527-4.242.34-.17c2.036-1.357 2.545-4.072 1.188-5.939 0-.17-.17-.17-.17-.339l-.17-.17-.509-.509-.679-.34c-2.206-1.017-4.751-.169-5.77 2.037-.169.17-.169.34-.169.51l-.679.169-5.09-.679v-.34l-.51-1.017-.509-.51C11.71 0 10.012.34 9.333 1.358c-.679.848-.679 2.036-.17 2.884l.34.34-3.224 4.412-.51-.17a4.239 4.239 0 00-5.43 2.037zm22.739 14.425c-.17 1.188-1.188 2.206-2.546 2.036-1.188-.17-2.206-1.188-2.036-2.545.17-1.188 1.188-2.206 2.545-2.037 1.188.17 2.206 1.188 2.037 2.546zm3.394-11.879c1.018-.848 2.375-.679 3.224.34.34.508.509 1.018.509 1.696 0 .68-.34 1.188-.848 1.528-1.019.848-2.376.678-3.225-.34-.848-.848-.679-2.375.34-3.224zm-5.43-11.709c1.527-1.188 3.733-1.018 4.92.51 1.188 1.526 1.019 3.732-.509 4.92-1.187 1.018-3.054 1.018-4.242.17-.17-.17-.51-.34-.679-.679-.509-.679-.848-1.697-.679-2.545 0-1.018.51-1.867 1.188-2.376zM10.52 5.261c.17 0 .34 0 .34.17 1.018.169 2.036-.34 2.545-1.358l.34-.51 5.09.68v.509c.17 2.375 2.206 4.242 4.582 3.903.17 0 .34 0 .679-.17h.509l1.697 4.073-.34.17c-1.357 1.018-1.527 3.054-.509 4.411l.34.34-3.564 4.751-.34-.17c-1.527-.678-3.393.17-3.902 1.698l-.17.339-6.448-.679v-.509a2.639 2.639 0 00-1.019-1.357c-.339-.34-.678-.34-1.187-.51h-.51l-.509.17-2.036-4.921.34-.34c1.018-.678 1.527-1.697 1.696-2.884.17-1.018-.17-2.206-.848-3.055l-.17-.17-.17-.339 3.225-4.412.34.17zm-3.903 5.26c1.188 1.358.849 3.394-.509 4.582-1.188.848-2.715 1.018-3.903.17l-.679-.68c-1.188-1.357-.848-3.393.51-4.58 1.527-1.02 3.563-.85 4.581.508z"/><path d="M15.102 6.618v3.055h.68c.339 0 .678 0 1.017.17.34 0 .51.17.68.339l.508.509c.17.17.17.34.34.509l1.357-.51c-.17-.508-.509-1.017-1.018-1.526-.509-.51-1.188-.68-1.867-.849V6.618h-1.697zm1.528 14.255v-3.055h-.679c-.848 0-1.357-.17-1.867-.509-.509-.17-.848-.509-1.187-.848l-1.358.509c.17.509.679 1.188 1.358 1.527.678.51 1.357.679 2.206.849v1.527h1.527z"/><path d="M17.648 17.479s-.17 0 0 0l-.17 1.697c.17 0 .34-.17.51-.17.339-.17.678-.34 1.018-.679.34-.34.509-.679.678-1.018.17-.34.17-.679.17-1.188 0-.509-.17-.848-.34-1.188a2.033 2.033 0 00-.848-.848c-.34-.17-.848-.51-1.188-.679l-1.527-.509c-.848-.17-1.527-.51-1.867-.679-.509-.34-.678-.679-.678-1.018 0-.17 0-.34.17-.51 0-.169.17-.338.339-.508 0 0 .17 0 .17-.17V8.315c-.51.17-1.019.51-1.358.849a2.81 2.81 0 00-.849 2.036c0 .51 0 .849.17 1.188.17.34.34.679.679.848.34.17.848.51 1.188.68l1.527.508c.51.17.849.34 1.188.34.34.17.679.17.848.339l.51.51c.17.169.17.338.17.678 0 .17 0 .509-.17.679 0 .17-.17.34-.34.509z"/></g><defs><clipPath id="clip0"><path fill="#fff" d="M0 0h31.055v28H0z"/></clipPath></defs></svg>