<svg width="31" height="28" fill="none" xmlns="http://www.w3.org/2000/svg"><g clip-path="url(#clip0)"><path d="M.335 10.708C.167 11.046 0 11.553 0 12.06c-.335 2.196 1.34 4.224 3.519 4.562h1.34l.503-.17 2.179 4.9-.503.339c-.503.338-.67.844-.838 1.52-.167 1.352.838 2.535 2.179 2.704 1.005.169 2.01-.338 2.513-1.352l.168-.338 6.368.676v.507c.335 1.69 1.843 2.872 3.52 2.534 1.675-.338 2.848-1.858 2.513-3.548 0-.507-.335-1.014-.67-1.352l-.336-.338 3.52-4.73.502.168c1.508.507 3.184-.169 3.854-1.69 0 0 .168-.337.168-.844v-.845c0-.507-.335-1.183-.67-1.52l-.503-.507c-.67-.507-1.508-.676-2.346-.507h-.335l-1.508-4.224.335-.17c2.01-1.351 2.513-4.054 1.173-5.913 0-.169-.168-.169-.168-.338l-.168-.169-.502-.507-.67-.338c-2.179-1.014-4.4-.675-5.53 1.014-.414.617-.598 1.046-.598 1.215l-.408.475-5.027-.676V2.26l-.503-1.014-.503-.507c-1.005-.845-2.681-.507-3.351.507-.67.845-.67 2.028-.168 2.872l.335.338L6.2 8.85l-.503-.169c-2.01-.844-4.357 0-5.362 2.028zM22.79 25.07c-.167 1.183-1.173 2.196-2.513 2.027-1.173-.169-2.179-1.182-2.011-2.534.167-1.183 1.173-2.197 2.514-2.028 1.172.17 2.178 1.183 2.01 2.535zm3.352-11.828c1.005-.844 2.346-.675 3.184.338a2.87 2.87 0 01.503 1.69c0 .676-.335 1.183-.838 1.52-1.006.846-2.346.677-3.184-.337-.838-.845-.67-2.366.335-3.21zM20.779 1.585c1.509-1.183 3.687-1.014 4.86.507 1.173 1.52 1.006 3.717-.502 4.9-1.174 1.014-3.017 1.014-4.19.169-.168-.17-.503-.338-.67-.676-.503-.676-.838-1.69-.67-2.534 0-1.014.502-1.86 1.172-2.366zM10.39 5.132c.168 0 .336 0 .336.17 1.005.168 2.01-.339 2.514-1.352l.335-.507 5.027.675v.507c.168 2.366 2.178 4.224 4.525 3.886.167 0 .335 0 .67-.168h.503l1.675 4.055-.335.169c-1.34 1.013-1.508 3.04-.502 4.393l.335.338-3.52 4.73-.335-.168c-1.508-.676-3.351.169-3.854 1.69l-.168.337-6.367-.676v-.507a2.625 2.625 0 00-1.006-1.351c-.335-.338-.67-.338-1.173-.507h-.503l-.502.169-2.011-4.9.335-.338c1.005-.676 1.508-1.69 1.676-2.872.167-1.014-.168-2.197-.838-3.042l-.168-.169-.167-.338 3.184-4.393.335.17zM6.536 10.37c1.173 1.352.838 3.38-.502 4.562-1.173.845-2.682 1.014-3.855.169l-.67-.676c-1.173-1.352-.838-3.38.503-4.562 1.508-1.014 3.519-.845 4.524.507z" fill="#495352"/><path d="M8.1 12.833L15.62 14m0 0l5.208-7m-5.207 7l4.05 8.167" stroke="#495352"/></g><defs><clipPath id="clip0"><path fill="#fff" d="M0 0h30.8v28H0z"/></clipPath></defs></svg>