<svg width="93" height="19" fill="none" xmlns="http://www.w3.org/2000/svg"><path d="M39.11 8.842l.13-.128c.691-.806 1.901-1.018 2.852-.509.648.34.95.933.994 1.654.043 1.06 0 2.163 0 3.224 0 .127-.043.17-.173.17h-.821c-.13 0-.173-.043-.173-.17v-2.757c0-.255-.043-.467-.13-.721a1.005 1.005 0 00-.734-.636c-.864-.212-1.556.339-1.6 1.23v2.757c0 .254 0 .254-.258.254h-.692c-.216 0-.216 0-.216-.212V10.24c0-.212-.043-.424-.086-.636-.13-.382-.433-.594-.822-.679-.777-.084-1.426.297-1.512 1.103-.043.297 0 .636 0 .933v1.95c0 .298 0 .298-.303.298h-.648c-.216 0-.216 0-.216-.212V8.29c0-.297 0-.297.303-.297h.605c.216 0 .216 0 .216.212 0 .085 0 .212.043.34.303-.297.648-.552 1.08-.637.433-.084.822-.042 1.254.085.345.255.648.51.907.849zm14.132-.892c.605.043 1.21.128 1.728.383a.897.897 0 01.216.127c.044.042.087.085.044.127-.13.255-.26.467-.39.721-.043.127-.129.042-.215 0a3.445 3.445 0 00-1.124-.34 1.988 1.988 0 00-.864.043c-.13.043-.216.085-.303.127-.173.128-.216.255-.216.467 0 .212.173.297.303.34.259.084.518.126.778.169.302.042.605.085.907.17.173.042.302.084.475.17 1.037.508.994 1.738.39 2.332-.26.254-.52.381-.865.509-1.08.296-2.118.212-3.155-.34-.043-.042-.13-.085-.173-.127-.086-.042-.086-.127-.043-.212.13-.212.26-.382.346-.594.086-.127.13-.127.26-.042.388.254.864.382 1.339.424.302.042.562 0 .864-.042.13-.043.303-.085.39-.17.302-.255.302-.636-.087-.806-.26-.127-.519-.127-.778-.17-.303-.042-.648-.084-.95-.17-.13-.041-.303-.084-.433-.169-1.21-.551-1.037-1.993-.216-2.544.302-.212.648-.297.994-.382h.778zm4.062 2.63v-.763c0-.212.086-.509-.043-.636-.13-.127-.433-.043-.605-.043h-.216c-.13 0-.173-.042-.173-.17v-.72c0-.127.043-.17.173-.17h.691c.216 0 .216 0 .216-.212V6.763c0-.254 0-.254.303-.254h.605c.259 0 .259 0 .259.297v1.06c0 .255 0 .255.26.255h1.425c.216 0 .216 0 .216.212v.593c0 .128-.043.212-.216.212H58.73c-.13 0-.216.043-.173.17v2.121c0 .127 0 .296.043.424.087.296.26.466.562.466.346.043.648-.042.95-.17.217-.084.217-.127.303.128.087.17.13.382.217.594.043.127 0 .212-.087.254l-.648.254a2.398 2.398 0 01-.95.043c-.865-.085-1.34-.552-1.47-1.4-.173-.509-.13-1.018-.173-1.442zm18.323-1.102a3.298 3.298 0 00-.778-.382c-1.296-.382-2.376.466-2.16 1.909.173 1.017 1.08 1.569 2.117 1.272.26-.043.476-.17.648-.297.13-.085.217-.043.26.085.13.212.216.381.346.594.086.127.043.17-.044.254-.302.212-.605.34-.907.424a3.58 3.58 0 01-1.642 0c-1.254-.297-2.032-1.357-2.032-2.672.044-1.654 1.21-2.714 2.896-2.714.605 0 1.167.127 1.642.509.173.127.173.127.087.297-.13.254-.303.466-.433.72zm-6.741-.848a.335.335 0 00.173-.17c.561-.594 1.34-.552 1.858-.424.13.042.13.085.086.212l-.259.763c-.043.085-.087.127-.216.085-.303-.085-.562-.127-.864-.042a1.045 1.045 0 00-.735.593c-.087.212-.13.467-.13.721v2.757c0 .085-.043.127-.13.127h-.864c-.086 0-.13-.042-.13-.127V8.163c0-.127.044-.17.174-.17h.82c.13 0 .174.043.174.17 0 .212 0 .34.043.466zm16.119 0c.043-.043.087-.085.087-.128.518-.636 1.296-.594 1.901-.466.13.042.13.085.087.212l-.26.763c-.043.127-.086.127-.216.085-.26-.085-.519-.085-.821-.042-.389.084-.648.296-.778.678-.086.212-.086.424-.086.636v2.757c0 .127-.043.17-.173.17h-.821c-.13 0-.173-.043-.173-.17V8.248c0-.127.043-.17.173-.17h.864c.087 0 .13.043.13.127v.382c.043 0 .043.042.086.042zM93 6.297C93 6 93 6 92.698 6h-.52c-.345 0-.345 0-.345.34v2.331a.618.618 0 01-.173-.127c-.259-.212-.518-.382-.864-.467a2.634 2.634 0 00-2.939 1.272 3.122 3.122 0 00-.302 1.867c.173 1.06.778 1.823 1.858 2.12.864.255 1.642.127 2.334-.509 0 0 .043-.042.086 0v.297c0 .127.043.212.173.17h.778c.216 0 .216 0 .216-.212V6.296zm-1.167 4.877c-.216.764-.864 1.272-1.642 1.188-.821-.043-1.383-.637-1.47-1.4v-.212c0-.763.346-1.357.951-1.612 1.038-.424 2.118.212 2.248 1.315 0 .255 0 .51-.087.721zM49.612 8.46v-.212c0-.085-.044-.17-.173-.17h-.865c-.086 0-.13.043-.13.127v.382c-.129 0-.172-.085-.215-.127-.26-.212-.519-.382-.865-.467-1.166-.297-2.463.255-2.981 1.357-.433.849-.39 1.74 0 2.588.172.381.432.678.734.932.908.68 2.42.764 3.198-.084.043-.043.043-.043.13 0v.339c0 .127.043.17.173.17h.734c.216 0 .216 0 .26-.212V8.46zm-1.124 2.46c-.13 1.018-.95 1.611-1.988 1.4-.562-.128-.907-.467-1.124-.976a1.988 1.988 0 01-.043-1.23c.216-.679.778-1.103 1.513-1.103 1.123 0 1.772.89 1.642 1.909zM82.24 8.46v-.212c0-.085-.044-.127-.13-.127h-.865c-.086 0-.13.042-.13.17 0 .126 0 .254-.042.423l-.173-.17c-.26-.211-.519-.381-.865-.466-1.21-.297-2.463.297-2.982 1.4-.302.593-.345 1.23-.216 1.866.216.975.778 1.696 1.772 1.993.865.255 1.729.17 2.377-.509 0 0 .043-.042.087 0v.34c0 .084.043.17.172.17h.821c.13 0 .173-.043.173-.17V8.46zm-1.167 2.799c-.217.72-.865 1.145-1.6 1.103-.734-.043-1.34-.51-1.512-1.23-.087-.34-.043-.679.043-1.018.216-.721.821-1.103 1.6-1.103.69 0 1.296.467 1.469 1.145.043.17.086.34.086.51 0 .211-.043.423-.087.593zm-18.237-.127h3.37c.303 0 .303 0 .303-.297s0-.552-.087-.848C66.163 8.799 65.3 8.036 64.09 7.95c-1.297-.085-2.377.72-2.68 1.993a3.916 3.916 0 00-.043 1.23c.13 1.145.95 1.993 2.075 2.206.518.084 1.037.084 1.512-.043a3.083 3.083 0 001.08-.466c.216-.128.216-.128.087-.34-.087-.127-.216-.297-.303-.424-.172-.254-.172-.212-.345-.085-.519.297-1.037.467-1.643.382-.605-.085-.993-.382-1.21-.933-.086-.34-.086-.34.217-.34zm1.08-2.163c.778 0 1.296.466 1.34 1.23h-2.68a1.32 1.32 0 011.34-1.23z" fill="#5B5B5B"/><g clip-path="url(#clip0)" fill="#5B5B5B"><path d="M17.99 3.306c3.097-2.17 7.67-1.57 10.282 1.323 2.655 2.956 2.655 7.545 0 10.377-2.74 2.914-7.29 3.493-10.283 1.302 3.856-3.535 4.257-8.93 0-13.002zm-1.244 0c-3.098-2.17-7.67-1.571-10.283 1.322-2.655 2.977-2.634 7.545.02 10.397 2.74 2.915 7.292 3.494 10.284 1.303-3.877-3.556-4.278-8.95-.021-13.022z"/><path d="M17.357 15.936C13.31 12.794 13.31 6.82 17.315 3.76c3.624 2.232 4.572 8.723.042 12.175z"/></g><defs><clipPath id="clip0"><path fill="#fff" transform="translate(4.482 2.235)" d="M0 0h25.771v15.647H0z"/></clipPath></defs></svg>