<svg width="110" height="66" viewBox="0 0 110 66" fill="none" xmlns="http://www.w3.org/2000/svg">
<path d="M107.233 35.6471C105.731 33.5294 103.477 31.7647 100.848 30.7059C102.35 29.6471 103.852 28.2353 104.979 26.4706C106.106 24.7059 106.482 22.9412 106.482 20.8235C106.482 19.0588 106.106 16.9412 105.355 15.5294C104.604 13.7647 103.852 12.3529 102.35 10.9412C101.223 9.52941 99.3452 8.47059 97.4671 7.7647C95.5891 7.05882 93.3354 6.70588 90.7061 6.70588L90.3305 6.70588L90.3305 -2.10226e-07L83.9451 -1.6059e-07L83.9451 7.05882L76.8086 7.05882L76.8086 -1.05113e-07L70.4232 -5.54765e-08L70.4232 7.05882L63.2866 7.05882L63.2866 14.1176L90.3305 14.1176C92.9598 14.1176 94.8378 14.8235 95.9647 16.2353C97.0915 17.6471 97.8427 19.4118 97.8427 21.1765C97.8427 23.2941 97.0915 24.7059 95.5891 26.1176C94.0866 27.5294 92.2086 28.2353 89.2037 28.2353L76.8086 28.2353L76.8086 21.1765L69.2964 21.1765L69.2964 28.2353L69.2964 52.2353L63.6622 52.2353L63.6622 59.2941L70.7988 59.2941L70.7988 66L77.1842 66L77.1842 59.2941L78.6866 59.2941L83.9451 59.2941L83.9451 66L90.3305 66L90.3305 59.2941L91.0817 59.2941C93.711 59.2941 96.3403 58.9412 98.5939 58.2353C100.848 57.5294 102.726 56.4706 104.228 55.0588C105.731 53.6471 107.233 51.8823 107.984 50.1176C108.735 48 109.487 45.8823 109.487 43.7647C109.487 40.2353 108.735 37.7647 107.233 35.6471ZM98.9695 49.7647C97.0915 51.5294 94.4622 52.2353 91.4573 52.2353L77.5598 52.2353L77.5598 34.9412L91.0817 34.9412C94.4622 34.9412 97.0915 35.6471 98.9695 37.4118C100.848 38.8235 101.599 40.9412 101.599 43.7647C101.599 46.2353 100.848 48.3529 98.9695 49.7647Z" fill="#727161"/>
<path d="M20.27 29.0775L20.27 25.2314" stroke="#727161" stroke-width="4"/>
<path d="M32.7695 36.7696L32.7695 40.6157" stroke="#727161" stroke-width="4"/>
<path d="M32.7695 11.7699L32.7695 7.92383" stroke="#727161" stroke-width="4"/>
<path d="M21.2314 57.9232L21.2314 54.0771" stroke="#727161" stroke-width="4"/>
<path d="M20.27 21.3851L20.27 7.92383" stroke="#727161" stroke-width="4"/>
<path d="M32.7695 44.4616L32.7695 57.9229" stroke="#727161" stroke-width="4"/>
<path d="M5.84619 12.731L5.84619 25.1537C5.84619 26.2582 6.74162 27.1537 7.84619 27.1537L13.5384 27.1537" stroke="#727161" stroke-width="4"/>
<circle cx="5.84608" cy="9.84608" r="3.84608" stroke="#727161" stroke-width="4"/>
<path d="M48.1519 52.4424L48.1519 40.6928C48.1519 39.5882 47.2564 38.6928 46.1519 38.6928L40.4597 38.6928" stroke="#727161" stroke-width="4"/>
<circle cx="48.152" cy="56.0001" r="3.84608" transform="rotate(180 48.152 56.0001)" stroke="#727161" stroke-width="4"/>
<path d="M5.84717 52.4424L5.84717 40.6928C5.84717 39.5882 6.7426 38.6928 7.84717 38.6928L13.5393 38.6928" stroke="#727161" stroke-width="4"/>
<circle r="3.84608" transform="matrix(1 -8.74228e-08 -8.74228e-08 -1 5.84706 56.0001)" stroke="#727161" stroke-width="4"/>
<path d="M21.2368 41.6733L21.2368 50.2311" stroke="#727161" stroke-width="4"/>
<ellipse cx="21.231" cy="38.6928" rx="3.8457" ry="3.84608" stroke="#727161" stroke-width="4"/>
<path d="M32.7661 23.5L32.7661 15.6161" stroke="#727161" stroke-width="4"/>
<ellipse rx="3.8457" ry="3.84608" transform="matrix(-1 1.74863e-06 -1.74828e-08 -1 32.77 27.1544)" stroke="#727161" stroke-width="4"/>
<path d="M48.1538 12.7305L48.1538 25.1541C48.1538 26.2587 47.2584 27.1541 46.1538 27.1541L40.4616 27.1541" stroke="#727161" stroke-width="4"/>
<circle r="3.84608" transform="matrix(-1 -1.74846e-07 -1.74846e-07 1 48.1539 9.84706)" stroke="#727161" stroke-width="4"/>
</svg>
