<svg width="19" height="24" fill="none" xmlns="http://www.w3.org/2000/svg"><g clip-path="url(#clip0)" fill="#495352"><path d="M3.555 16.626H1.079V24h2.476v-7.374zm5.148-4.191H6.227V24h2.476V12.435zm5.149 1.649h-2.476V24h2.476v-9.916zM19 7.26h-2.477V24H19V7.26zM1.311 8.785L.001 9.89l.985 1.02 1.31-1.104-.985-1.02zm16.144-4.548h1.471V.023L14.391 0v1.374h2.06l-6.105 5.634-3.457-2.932L2.255 7.97 3.236 9l3.653-3.069 3.506 2.977 7.06-6.526v1.855z"/></g><defs><clipPath id="clip0"><path fill="#fff" d="M0 0h19v24H0z"/></clipPath></defs></svg>