<svg width="16" height="17" fill="none" xmlns="http://www.w3.org/2000/svg"><path d="M9.711 7.462V6.385m-3.5 3.23v1.077m0-8.076V1.539m3.231 14V14.46m.269-9.152v-3.77m-3.5 10.232v3.769M13.75 2.885v2.038a2 2 0 01-2 2h-.154" stroke="#727161"/><circle r="1.077" transform="matrix(-1 0 0 1 13.75 2.077)" stroke="#727161"/><path d="M1.904 14.004v-1.85a2 2 0 012-2h.154" stroke="#727161"/><circle r="1.077" transform="matrix(1 0 0 -1 1.904 15)" stroke="#727161"/><path d="M13.75 14.004v-1.85a2 2 0 00-2-2h-.155" stroke="#727161"/><circle cx="13.749" cy="15" r="1.077" transform="rotate(-180 13.75 15)" stroke="#727161"/><path d="M9.44 10.988v2.397" stroke="#727161"/><circle transform="matrix(-1 0 0 1 9.442 10.154)" stroke="#727161" r="1.077"/><path d="M6.212 5.9V3.693" stroke="#727161"/><circle transform="matrix(1 0 0 -1 6.211 6.923)" stroke="#727161" r="1.077"/><path d="M1.904 2.885v2.038a2 2 0 002 2h.154" stroke="#727161"/><circle cx="1.904" cy="2.077" r="1.077" stroke="#727161"/></svg>