<svg width="40" height="42" fill="none" xmlns="http://www.w3.org/2000/svg"><path d="M14.572 18.143v-2.857m9.285 8.572v2.857m0-21.429V2.43m-8.571 37.141v-2.857m-.714-24.285v-10m9.285 27.143v10M3.857 6v8.714a2 2 0 002 2H9.57" stroke="#727161" stroke-width="2"/><circle cx="3.857" cy="3.857" r="2.857" stroke="#727161" stroke-width="2"/><path d="M35.284 35.5v-8.214a2 2 0 00-2-2H29.57" stroke="#727161" stroke-width="2"/><circle cx="35.285" cy="38.143" r="2.857" transform="rotate(180 35.285 38.143)" stroke="#727161" stroke-width="2"/><path d="M3.858 35.5v-8.214a2 2 0 012-2h3.714" stroke="#727161" stroke-width="2"/><circle r="2.857" transform="matrix(1 0 0 -1 3.858 38.143)" stroke="#727161" stroke-width="2"/><path d="M15.29 27.5v6.357" stroke="#727161" stroke-width="2"/><circle cx="15.286" cy="25.286" stroke="#727161" stroke-width="2" r="2.857"/><path d="M23.855 14V8.143" stroke="#727161" stroke-width="2"/><circle transform="rotate(180 11.929 8.357)" stroke="#727161" stroke-width="2" r="2.857"/><path d="M35.286 6v8.715a2 2 0 01-2 2H29.57" stroke="#727161" stroke-width="2"/><circle r="2.857" transform="matrix(-1 0 0 1 35.286 3.858)" stroke="#727161" stroke-width="2"/></svg>