<svg width="41" height="40" fill="none" xmlns="http://www.w3.org/2000/svg"><path d="M2.402 3.293c.891-.445 1.337-1.336.891-2.227C2.848.175 1.957-.271 1.066.175.175.62-.271 1.51.175 2.402c.445.891 1.782 1.337 2.227.891zm37.87-2.227c-.445-.891-1.336-1.337-2.227-.891-.891.445-1.337 1.336-.891 2.227.445.891 1.336 1.337 2.227.891.891-.445 1.337-1.336.891-2.227zM2.402 39.825c.891-.445 1.337-1.336.891-2.227-.445-.891-1.336-1.337-2.227-.891-.891.445-1.337 1.336-.891 2.227.445.891 1.782 1.337 2.227.891zm36.088-3.118c-.89.445-1.336 1.336-.89 2.227.445.891 1.336 1.337 2.227.891.891-.445 1.337-1.336.891-2.227-.445-.891-1.782-1.337-2.227-.891zM2.403 20.223c0 4.455 1.782 8.91 4.455 12.029l-1.336 1.336c-.446.446-.446 1.337 0 1.782.445.446.89.446 1.782 0l1.336-1.336c3.119 2.673 7.574 4.455 12.03 4.455 4.454 0 8.91-1.782 12.028-4.455l1.336 1.336c.446.446.891.446 1.782 0 .446-.445.446-1.336 0-1.782l-1.336-1.336c2.673-3.119 4.455-7.574 4.455-12.029s-1.782-8.91-4.455-12.029l1.336-1.336c.446-.446.446-1.337 0-1.782-.445-.446-1.336-.446-1.782 0l-1.336 1.336c-3.119-2.673-7.574-4.455-12.029-4.455-1.336 0-2.673 0-4.01.446-.445 0-.89.89-.89 1.336 0 .446.89.891 1.336.891 1.337-.445 2.228-.445 3.564-.445 4.01 0 7.574 1.336 10.247 4.01l-2.228 2.227c-2.227-1.782-4.9-3.119-8.019-3.119-3.118 0-5.792.891-8.019 3.119l-2.228-2.228c.891-.445 1.337-1.336 2.228-1.782.445-.445.891-.89.445-1.782-.445-.445-.89-.89-1.782-.445-.89.445-1.782 1.336-2.673 1.782L7.304 4.63c-.446-.445-1.337-.445-1.782 0-.446.446-.446 1.337 0 1.782L6.858 7.75c-.89.89-1.336 1.782-2.227 3.118-1.337 2.673-2.228 5.792-2.228 9.356zM20.67 35.816c-4.01 0-7.574-1.337-10.247-4.01l2.228-2.227c2.227 1.782 4.9 2.673 8.02 2.673 3.118 0 5.79-.891 8.018-3.119l2.228 2.228c-2.673 3.118-6.237 4.455-10.247 4.455zm1.337-15.593l2.227-2.227c.446.89.446 1.336.446 2.227 0 .891-.446 1.782-.446 2.228l-2.227-2.228zm.89 4.01c-.89.445-1.336.445-2.227.445-.89 0-1.782 0-2.227-.445l2.227-2.228 2.228 2.228zM20.67 18.44l-2.227-2.227c.89-.446 1.336-.446 2.227-.446.891 0 1.782.445 2.228.891L20.67 18.44zm-1.782 1.782l-2.227 2.228c-.446-.891-.892-1.337-.892-2.228 0-.89.446-1.782.446-2.227l2.673 2.227zM16.66 25.57c1.336.891 2.673 1.337 4.01 1.337 1.336 0 3.118-.446 4.009-1.337l2.227 2.228c-1.782 1.336-4.01 2.227-6.237 2.227-2.227 0-4.455-.89-6.237-2.227l2.228-2.228zM32.698 9.531c2.227 2.673 4.01 6.237 4.01 10.247s-1.337 7.573-4.01 10.246l-2.228-2.227c1.782-2.228 3.119-4.9 3.119-8.02 0-3.118-.891-5.791-2.673-8.019l1.782-2.227zm-1.782 10.692c0 2.228-.891 4.455-2.228 6.237l-2.227-2.227c.89-1.337 1.336-2.673 1.336-4.01 0-1.336-.445-2.673-1.336-4.01l2.227-2.227c1.337 1.336 2.228 3.564 2.228 6.237zM20.669 9.531c2.228 0 4.9.89 6.683 2.227l-2.228 2.228c-1.336-.891-2.673-1.337-4.01-1.337-1.336 0-2.672.446-4.009 1.337l-2.228-2.228c.891-1.336 3.12-2.227 5.792-2.227zm-8.019 4.01l2.227 2.227c-.89 1.337-1.336 2.673-1.336 4.01 0 1.336.445 3.118 1.336 4.01l-2.227 2.227a10.943 10.943 0 01-2.228-6.683c-.445-1.782.446-4.01 2.228-5.792zM8.64 9.53l2.228 2.227c-1.782 2.228-3.119 4.901-3.119 8.02 0 3.118 1.337 5.791 3.119 8.019L8.64 30.024c-2.227-2.673-4.01-6.682-4.01-10.246S5.968 12.65 8.64 9.53z" fill="#6352CC"/></svg>