<svg width="81" height="53" fill="none" xmlns="http://www.w3.org/2000/svg"><path d="M14.572 29.143v-2.857m9.285 8.571v2.858m0-21.429V13.43m-8.571 37.141v-2.857m-.714-24.284v-10m9.285 27.142v10M3.857 17v8.714a2 2 0 002 2h3.714" stroke="#727161" stroke-width="2"/><circle cx="3.857" cy="14.857" r="2.857" stroke="#727161" stroke-width="2"/><path d="M35.284 46.5v-8.214a2 2 0 00-2-2H29.57" stroke="#727161" stroke-width="2"/><circle cx="35.284" cy="49.143" r="2.857" transform="rotate(180 35.284 49.143)" stroke="#727161" stroke-width="2"/><path d="M3.858 46.5v-8.214a2 2 0 012-2h3.714" stroke="#727161" stroke-width="2"/><circle r="2.857" transform="matrix(1 0 0 -1 3.858 49.143)" stroke="#727161" stroke-width="2"/><path d="M15.29 38.5v6.357" stroke="#727161" stroke-width="2"/><circle cx="15.286" cy="36.286" stroke="#727161" stroke-width="2" r="2.857"/><path d="M23.855 25v-5.857" stroke="#727161" stroke-width="2"/><circle transform="rotate(180 11.929 13.857)" stroke="#727161" stroke-width="2" r="2.857"/><path d="M35.286 17v8.715a2 2 0 01-2 2H29.57" stroke="#727161" stroke-width="2"/><circle r="2.857" transform="matrix(-1 0 0 1 35.286 14.858)" stroke="#727161" stroke-width="2"/><path d="M76.317 12.727l1.17-.732-.877-1.316-1.171.731.878 1.317zm2.488 5.851l1.317-.439c-.146-.585-.293-1.024-.44-1.609l-1.316.439c.146.585.293 1.024.439 1.609zm.732 3.072l1.317-.146c0-.585-.147-1.17-.293-1.61l-1.317.293c.146.439.146.878.293 1.463zM75.585 9.362c-.292-.439-.731-.878-1.17-1.316L73.39 9.07c.293.438.732.731 1.025 1.17l1.17-.878zm3.074 21.65l1.317.439c.146-.585.292-1.024.439-1.61l-1.317-.292c-.147.439-.293.878-.44 1.463zM81 23.113l-1.317.146v1.609H81v-1.755zm-1.61 4.827l1.317.146c.147-.585.147-1.17.147-1.609l-1.317-.146c0 .585 0 1.024-.147 1.609zm-1.756 5.998l1.17.585c.293-.439.44-1.024.586-1.61l-1.317-.438c0 .439-.292.878-.439 1.463zm1.463-18.871c-.292-.439-.438-1.024-.731-1.463l-1.17.585c.292.44.438.878.73 1.463l1.171-.585zm-3.219 22.528a1.31 1.31 0 00-1.317 1.316c0 .732.585 1.317 1.317 1.317s1.317-.585 1.317-1.317a1.31 1.31 0 00-1.317-1.316zM40.17 8.046a1.31 1.31 0 00-1.316 1.316c0 .732.585 1.317 1.317 1.317.731 0 1.317-.585 1.317-1.317 0-.731-.586-1.316-1.317-1.316zm3.66-1.61C51.731.586 62.414.44 70.462 5.851l-2.341.147c-.44 0-.732.438-.732.877 0 .44.44.732.878.732l4.39-.293c.147 0 .293 0 .293-.146.147 0 .147-.146.147-.146.146-.147.146-.44.146-.586l-1.17-4.095c-.147-.44-.586-.586-.879-.586-.439.147-.585.586-.585.878l.585 2.048c-8.488-5.851-20.049-5.705-28.39.585-.293.293-.44.732-.147 1.024.293.293.879.439 1.171.146zm27.95 34.816c-7.902 5.851-18.585 5.997-26.634.585l2.342-.146c.439 0 .731-.44.731-.878 0-.439-.438-.732-.878-.732l-4.39.293c-.146 0-.293 0-.293.146-.146 0-.146.147-.146.147-.146.146-.146.438-.146.585l1.17 4.096c.147.439.586.585.879.585.439-.146.585-.585.585-.878l-.585-2.048c8.487 5.852 20.048 5.705 28.39-.585.292-.292.439-.731.146-1.024-.292-.293-.731-.439-1.17-.146zm-4.046-15.48c-.622-.878-1.556-1.609-2.646-2.048.623-.438 1.246-1.023 1.713-1.755.467-.731.622-1.462.622-2.34 0-.731-.155-1.609-.467-2.194-.311-.731-.622-1.316-1.245-1.901-.467-.585-1.245-1.024-2.023-1.316-.779-.293-1.713-.44-2.802-.44h-.156V11h-2.646v2.925h-2.957V11H52.48v2.925h-2.958v2.925H60.73c1.09 0 1.868.293 2.335.878.467.585.778 1.316.778 2.047 0 .878-.311 1.463-.934 2.048-.622.585-1.4.878-2.646.878h-5.136v-2.926h-3.113v12.871h-2.335v2.925h2.957v2.779h2.646v-2.779h2.803v2.779h2.645v-2.779h.312c1.09 0 2.179-.146 3.112-.439.934-.292 1.713-.73 2.335-1.316.623-.585 1.245-1.316 1.557-2.048.311-.877.622-1.755.622-2.632 0-1.463-.31-2.486-.934-3.364zm-3.424 5.85c-.778.731-1.868 1.024-3.113 1.024h-5.759v-7.167h5.603c1.401 0 2.49.293 3.27 1.024.777.585 1.089 1.463 1.089 2.633 0 1.024-.312 1.901-1.09 2.486z" fill="#727161"/></svg>