<svg width="20" height="18" fill="none" xmlns="http://www.w3.org/2000/svg"><path d="M1.223 7.175a1.86 1.86 0 00-.198.79c-.197 1.284.79 2.469 2.074 2.666h.79l.297-.098 1.284 2.864-.297.197c-.296.198-.395.494-.494.889-.098.79.494 1.481 1.284 1.58.593.099 1.186-.197 1.482-.79l.099-.197 3.753.395v.296c.197.988 1.086 1.679 2.073 1.481.988-.197 1.68-1.086 1.482-2.074 0-.296-.197-.592-.395-.79l-.198-.197 2.074-2.766.297.1a1.834 1.834 0 002.271-.989s.099-.197.099-.493v-.494c0-.296-.198-.691-.395-.889l-.296-.296a1.714 1.714 0 00-1.383-.297h-.197l-.89-2.469.198-.098c1.185-.79 1.482-2.37.692-3.457 0-.099-.1-.099-.1-.198l-.098-.098-.296-.297-.395-.197c-1.284-.593-2.766-.099-3.358 1.185-.1.099-.1.197-.1.296l-.394.099-2.963-.395v-.198l-.296-.592-.297-.296c-.592-.494-1.58-.297-1.975.296-.395.494-.395 1.185-.099 1.679l.198.197-1.877 2.568-.296-.099a2.467 2.467 0 00-3.16 1.186zm13.234 8.394c-.099.692-.691 1.284-1.482 1.185-.69-.098-1.283-.69-1.185-1.48.1-.692.692-1.285 1.482-1.186.691.099 1.284.691 1.185 1.481zm1.975-6.913c.593-.494 1.383-.395 1.877.197.197.297.296.593.296.988s-.198.692-.494.889c-.592.494-1.383.395-1.876-.197-.494-.494-.395-1.383.197-1.877zm-3.16-6.815c.889-.691 2.173-.592 2.864.297.691.889.593 2.172-.296 2.864-.692.592-1.778.592-2.47.099-.098-.1-.296-.198-.394-.396-.297-.395-.494-.987-.396-1.481 0-.593.297-1.086.692-1.383zM7.149 3.915c.098 0 .197 0 .197.1.593.098 1.185-.198 1.481-.791l.198-.296 2.963.395v.296c.099 1.383 1.284 2.47 2.667 2.272.098 0 .197 0 .395-.1h.296l.987 2.371-.197.099c-.79.593-.889 1.778-.296 2.568l.197.197-2.074 2.766-.197-.1c-.89-.394-1.976.1-2.272.989l-.099.197-3.753-.395v-.296a1.536 1.536 0 00-.592-.79c-.198-.198-.395-.198-.692-.297h-.296l-.296.099-1.185-2.864.197-.198c.593-.395.89-.987.988-1.679.099-.592-.099-1.283-.494-1.777l-.099-.099-.099-.198 1.877-2.567.198.098zM4.877 6.977c.691.79.494 1.975-.296 2.667-.692.493-1.58.592-2.272.098l-.395-.395c-.691-.79-.494-1.975.296-2.666.89-.593 2.074-.494 2.667.296z" fill="#495352" stroke="#495352" stroke-width=".3"/><path d="M8.255 9.288H7.05v3.615h1.205V9.288zm2.41-1.205H9.46v4.82h1.205v-4.82zm2.409-1.205h-1.205v6.025h1.205V6.878z" fill="#495352"/></svg>