<svg width="32" height="32" fill="none" xmlns="http://www.w3.org/2000/svg"><path d="M23.437 14.355h-.685c-.684-3.168-2.583-5.14-5.633-5.82v-1.52c0-.323 0-.743-.28-1.001-.28-.26-.684-.291-.995-.26-.56.033-.903.421-.903.97v1.811c-3.05.712-4.948 2.652-5.602 5.82H7.628c-.591 0-.934.388-.965.97v.323c0 .582.374.938.903.938h1.742c.25 1.52.903 2.813 1.899 3.847a6.664 6.664 0 003.703 1.973v1.778c0 .582.342.938.902.97H16c.747 0 1.09-.323 1.09-1.1v-1.648c2.894-.485 5.134-2.813 5.601-5.852h1.743c.56 0 .933-.388.933-.97v-.324c0-.582-.373-.97-.933-.97-.311.065-.654.065-.996.065zm-2.8 1.229c0 2.619-2.086 4.72-4.607 4.72-1.245 0-2.396-.517-3.267-1.422-.872-.906-1.338-2.134-1.338-3.428 0-2.619 2.085-4.72 4.636-4.72h.032c1.213 0 2.365.517 3.236 1.422.84.906 1.307 2.102 1.307 3.428z" fill="#8C9C9A"/><path d="M16.062 13.838c-.436 0-.84.161-1.152.485a1.619 1.619 0 00-.467 1.164c0 .452.156.873.467 1.164.311.29.685.485 1.12.485.872 0 1.588-.744 1.588-1.65 0-.905-.685-1.648-1.556-1.648z" fill="#8C9C9A"/><path d="M29.474 8.47a2.55 2.55 0 00.716-1.228c.25-1.228-.498-2.425-1.712-2.683-.622-.13-1.213.032-1.711.355-.311.227-.591.55-.747.938-.062.162-.124.29-.156.453-.248 1.228.53 2.424 1.68 2.683.281.065.592.065.872 0 .436.938.778 1.94 1.027 2.942l-.124.033c.436 1.616.56 3.233.436 4.882-.063.485-.125 1.002-.218 1.487-.405 1.972-1.152 3.783-2.241 5.367h-.062c-.965-.226-1.93.453-2.148 1.455-.093.388-.03.776.094 1.131a13.73 13.73 0 01-5.758 3.234l-.03-.065c-2.117.582-4.264.679-6.411.226-1.805-.42-3.486-1.164-4.917-2.198.03-.065.03-.097.03-.162a1.9 1.9 0 00-1.4-2.23c-.373-.098-.747-.033-1.089.096h-.031c-2.739-3.233-4.077-7.824-3.143-12.447.591-2.943 2.023-5.594 4.139-7.566.155.065.28.13.436.162 1.182.258 2.334-.55 2.582-1.746a2.218 2.218 0 000-.906 13.836 13.836 0 019.025-1.163 13.486 13.486 0 015.633 2.683l.685-.938c-1.805-1.422-3.86-2.424-6.1-2.91-3.236-.743-6.69-.29-9.71 1.23A2.422 2.422 0 007.94.84c-1.182-.26-2.334.517-2.583 1.778-.124.646.031 1.26.342 1.778-2.21 2.134-3.734 4.947-4.388 8.083a15.933 15.933 0 003.486 13.547 1.463 1.463 0 00-.187.517c-.186 1.002.436 2.005 1.4 2.231.467.097.934 0 1.339-.259a14.63 14.63 0 005.321 2.328c.063 0 .094.033.156.033.031 0 .062 0 .062.032 4.73 1.035 9.585-.356 13.102-3.686.155.097.342.162.529.226.965.227 1.93-.452 2.147-1.455.094-.485 0-.97-.249-1.39a15.835 15.835 0 002.241-5.528c.156-.712.218-1.39.28-2.102.28-2.91-.218-5.852-1.463-8.503zm-.404-1.486c-.125.582-.654.97-1.245.84a.912.912 0 01-.311-.13c-.031-.032-.093-.064-.125-.096a1.15 1.15 0 01-.342-.517c-.062-.162-.062-.356-.031-.55.062-.323.249-.582.529-.744a.922.922 0 01.716-.097c.56.13.933.712.809 1.294zM6.445 2.845c.125-.582.685-.97 1.245-.84.56.129.934.678.81 1.293a.99.99 0 01-.125.323c-.031.032-.062.097-.094.13a1.106 1.106 0 01-.497.355c-.156.065-.343.065-.53.032a1.041 1.041 0 01-.715-.55 1.492 1.492 0 01-.094-.743zM6.26 27.611c-.063 0-.125-.032-.187-.097a.666.666 0 01-.156-.13c-.093-.096-.124-.226-.155-.355.218.194.404.388.622.582H6.26zm21.286-1.908c0 .065-.031.13-.093.195a.732.732 0 01-.125.161c-.124.097-.249.162-.405.162h-.155a.714.714 0 01-.53-.614v-.195a.668.668 0 01.312-.452c.062-.065.125-.065.218-.097h.249c.373.13.591.485.529.84z" fill="#8C9C9A"/></svg>