<svg width="28" height="22" fill="none" xmlns="http://www.w3.org/2000/svg"><path d="M20.37 0l-.005 2.268-.004 2.288a7.43 7.43 0 01.969-.058c.573 0 1.087.058 1.483.174.395.117.77.291 1.047.485.296.213.533.446.71.698.178.252.335.523.453.814l2.217-.736c-.335-.873-.887-1.629-1.637-2.288-.75-.66-1.738-1.086-2.904-1.3L22.703.02H20.37V0zm2.29 21.462l.01-4.595a5.307 5.307 0 01-.97.077c-1.205 0-2.213-.213-2.964-.659-.77-.446-1.303-.97-1.619-1.57l-2.176.737c.394.891 1.045 1.667 1.973 2.365.928.678 2.074 1.124 3.458 1.318l-.005 2.327h2.294z" fill="#495352"/><path d="M24.273 16.285c-.06.04-.1.059-.159.097l-.005 2.54c.258-.077.515-.155.732-.271.634-.291 1.188-.64 1.624-1.067.436-.426.773-.91.992-1.454a4.533 4.533 0 00.34-1.706c0-.736-.156-1.376-.452-1.9a4.59 4.59 0 00-1.263-1.357c-.533-.388-1.185-.698-1.916-.97a27.113 27.113 0 00-2.41-.755c-1.345-.369-2.333-.737-2.945-1.086-.632-.368-.928-.872-.927-1.493a2.2 2.2 0 01.18-.853c.12-.271.318-.523.595-.756.08-.058.158-.116.257-.174l.005-2.52c-.83.251-1.543.62-2.098 1.143-.872.814-1.329 1.842-1.37 3.063-.022.737.096 1.357.352 1.861.256.505.61.95 1.105 1.319a6.774 6.774 0 001.758.93c.691.272 1.462.504 2.312.757.73.213 1.363.407 1.897.581a6.875 6.875 0 011.363.601c.375.213.652.465.83.717.177.272.275.601.274.97 0 .387-.1.717-.279 1.027a2.66 2.66 0 01-.792.756zM6 13h7v2H6zm-3 0h2v2H3zm0-4h7v2H3zM0 9h2v2H0zm5-4h8v2H5z" fill="#495352"/></svg>