<svg width="54" height="58" fill="none" xmlns="http://www.w3.org/2000/svg"><path d="M20.27 25.077v-3.846m12.5 11.539v3.846m0-28.846V3.924M21.231 53.923v-3.846m-.961-32.692V3.924m12.5 36.538v13.461M5.846 8.73v12.424a2 2 0 002 2h5.692" stroke="#727161" stroke-width="4"/><circle cx="5.846" cy="5.846" r="3.846" stroke="#727161" stroke-width="4"/><path d="M48.152 48.442v-11.75a2 2 0 00-2-2H40.46" stroke="#727161" stroke-width="4"/><circle cx="48.152" cy="52" r="3.846" transform="rotate(180 48.152 52)" stroke="#727161" stroke-width="4"/><path d="M5.847 48.442v-11.75a2 2 0 012-2h5.692" stroke="#727161" stroke-width="4"/><circle r="3.846" transform="matrix(1 0 0 -1 5.847 52)" stroke="#727161" stroke-width="4"/><path d="M21.237 37.673v8.558" stroke="#727161" stroke-width="4"/><circle cx="21.231" cy="34.693" stroke="#727161" stroke-width="4" r="3.846"/><path d="M32.766 19.5v-7.884" stroke="#727161" stroke-width="4"/><circle transform="rotate(180 16.385 11.577)" stroke="#727161" stroke-width="4" r="3.846"/><path d="M48.154 8.73v12.424a2 2 0 01-2 2H40.46" stroke="#727161" stroke-width="4"/><circle r="3.846" transform="matrix(-1 0 0 1 48.154 5.847)" stroke="#727161" stroke-width="4"/></svg>