<svg width="29" height="30" fill="none" xmlns="http://www.w3.org/2000/svg"><path d="M27.818 20.55a.837.837 0 100-1.673.837.837 0 000 1.673zm0-2.614a.836.836 0 100-1.673.836.836 0 000 1.673zm0-2.509a.836.836 0 100-1.673.836.836 0 000 1.673zm0-2.615a.836.836 0 100-1.673.836.836 0 000 1.673zm0 11.294a.825.825 0 00-.837.836c0 .418.314.837.837.837.522 0 .836-.314.836-.837a.825.825 0 00-.836-.836zm-2.826-3.556a.837.837 0 100-1.673.837.837 0 000 1.673zm0-2.614a.837.837 0 100-1.673.837.837 0 000 1.673zm0 6.17a.825.825 0 00-.837.836c0 .418.314.837.837.837a.825.825 0 00.836-.837.825.825 0 00-.836-.836zm0-1.046a.837.837 0 100-1.673.837.837 0 000 1.673zm-2.824-2.51a.837.837 0 100-1.673.837.837 0 000 1.673zm0 3.556a.825.825 0 00-.837.836c0 .418.314.837.837.837a.825.825 0 00.837-.837.825.825 0 00-.837-.836zm0-1.046a.837.837 0 100-1.673.837.837 0 000 1.673zm-2.616 1.046a.825.825 0 00-.837.836c0 .418.314.837.837.837.523 0 .837-.314.837-.837-.105-.523-.419-.836-.837-.836zm-2.928 0a.825.825 0 00-.836.836c0 .418.313.837.836.837a.825.825 0 00.837-.837.825.825 0 00-.837-.836zm2.823-1.046a.837.837 0 100-1.673.837.837 0 000 1.673zm8.371 0a.837.837 0 100-1.673.837.837 0 000 1.673zM6.786 12.394a3.035 3.035 0 01-3.033 3.032 3.035 3.035 0 01-3.032-3.032A3.035 3.035 0 013.753 9.36a3.035 3.035 0 013.033 3.033zm-4.392 0c0 .732.627 1.36 1.36 1.36.731 0 1.359-.628 1.359-1.36 0-.732-.628-1.36-1.36-1.36-.732 0-1.36.628-1.36 1.36z" fill="#495352"/><path d="M13.275 24.733v5.228h-1.673V25.57L2.92 19.82v-5.961h1.778v5.02l8.577 5.855zm-1.15-11.607a3.035 3.035 0 013.033 3.033 3.035 3.035 0 01-3.033 3.032 3.035 3.035 0 01-3.032-3.032 3.035 3.035 0 013.032-3.033zm0 4.392c.732 0 1.36-.627 1.36-1.36 0-.731-.628-1.359-1.36-1.359-.732 0-1.359.628-1.359 1.36 0 .732.627 1.36 1.36 1.36z" fill="#495352"/><path d="M24.365 6.747h3.87V8.42h-2.929l-5.753 8.575h-6.067v-1.673h5.125l5.754-8.575zM.302 2.54V.865H11.81v4.417h-1.674V2.54H.302z" fill="#495352"/><path d="M7.733 7.479a3.035 3.035 0 013.032-3.033 3.035 3.035 0 013.033 3.033 3.035 3.035 0 01-3.033 3.032c-1.673.105-3.032-1.254-3.032-3.032zm4.287 0c0-.732-.627-1.36-1.36-1.36-.731 0-1.359.628-1.359 1.36 0 .732.628 1.36 1.36 1.36.732 0 1.359-.524 1.359-1.36z" fill="#495352"/></svg>