<svg width="79" height="57" fill="none" xmlns="http://www.w3.org/2000/svg"><path d="M18.854 26.352c.373.616.878 1.13 1.512 1.54.654.392 1.419.607 2.296.644.598.019 1.13-.056 1.596-.224a3.602 3.602 0 001.232-.7 3.545 3.545 0 001.176-2.38c.093-1.101-.168-2.007-.784-2.716-.616-.728-1.503-1.13-2.66-1.204-.635-.037-1.13-.019-1.484.056-.354.075-.588.13-.7.168l-1.484-1.708 4.984-5.768H17.93V11.4h10.164v2.66l-4.844 5.152h.056c1.027 0 1.932.15 2.716.448.803.299 1.466.719 1.988 1.26a4.934 4.934 0 011.148 1.932c.243.747.327 1.568.252 2.464a6.757 6.757 0 01-.672 2.492 6.262 6.262 0 01-1.456 1.876 6.645 6.645 0 01-2.072 1.176 6.683 6.683 0 01-2.464.336 8.386 8.386 0 01-1.904-.28 8.314 8.314 0 01-1.792-.7 7.94 7.94 0 01-1.484-1.12 5.358 5.358 0 01-1.092-1.484l2.38-1.26zm14.108-1.344c0-1.755.775-3.77 2.324-6.048l5.04-7.56h3.024l-4.676 7.168a.995.995 0 01.364-.056 2.97 2.97 0 01.308-.028c.896 0 1.736.168 2.52.504a5.79 5.79 0 012.016 1.344 6.084 6.084 0 011.344 2.044c.336.765.504 1.587.504 2.464a6.58 6.58 0 01-.476 2.492 6.156 6.156 0 01-1.344 2.016 6.356 6.356 0 01-2.016 1.344 6.4 6.4 0 01-2.548.504 6.728 6.728 0 01-2.548-.476 6.65 6.65 0 01-2.016-1.288 6.539 6.539 0 01-1.344-1.96 6.37 6.37 0 01-.476-2.464zm6.384 3.528c.504 0 .971-.093 1.4-.28a3.65 3.65 0 001.148-.812c.336-.336.588-.728.756-1.176a3.67 3.67 0 00.28-1.428c0-.504-.093-.98-.28-1.428a3.265 3.265 0 00-.756-1.176 3.306 3.306 0 00-1.148-.784 3.203 3.203 0 00-1.4-.308c-.504 0-.97.103-1.4.308a3.39 3.39 0 00-1.12.784 4.163 4.163 0 00-.728 1.176 4.033 4.033 0 00-.252 1.428c0 .504.084.98.252 1.428.187.448.43.84.728 1.176.318.336.691.607 1.12.812.43.187.896.28 1.4.28zm9.48-.924l2.296-1.176c.374.616.878 1.11 1.512 1.484.654.373 1.419.579 2.296.616 1.195.019 2.11-.29 2.744-.924.654-.635 1.018-1.428 1.092-2.38.094-1.101-.196-1.997-.868-2.688-.653-.69-1.558-1.073-2.716-1.148-.709-.037-1.297.019-1.764.168l-.84.28-2.464-.504 1.96-9.94h8.82v2.66h-6.86l-.952 5.18a9.042 9.042 0 011.064-.252c.411-.093.831-.13 1.26-.112 1.027.019 1.932.205 2.716.56.803.336 1.466.793 1.988 1.372a5.13 5.13 0 011.148 2.016c.243.765.327 1.596.252 2.492a7.084 7.084 0 01-.644 2.492 6.096 6.096 0 01-1.4 1.876 6.034 6.034 0 01-1.988 1.176c-.746.261-1.568.373-2.464.336a8.386 8.386 0 01-1.904-.28 7.86 7.86 0 01-1.736-.7 7.94 7.94 0 01-1.484-1.12 5.664 5.664 0 01-1.064-1.484zM21.979 43.408l.31-.404c.492-.668.775-1.645.85-2.93l.111-2.414h3.744v5.748h.656v2.455h-.697V44H22.19v1.863h-.673l.006-2.455h.457zm.808 0h3.504v-5.092h-2.373l-.076 1.647c-.07 1.512-.422 2.66-1.055 3.445zM36.873 44h-.703v-2.906h-3.416V44h-.703v-6.34h.703v2.842h3.416V37.66h.703V44zm7.336.117c-.54 0-1.027-.133-1.465-.398a2.727 2.727 0 01-1.014-1.108 3.48 3.48 0 01-.363-1.6v-.251c0-.61.117-1.158.352-1.647a2.82 2.82 0 01.99-1.148 2.424 2.424 0 011.371-.422c.77 0 1.379.264 1.828.791.453.523.68 1.24.68 2.15v.393h-4.523v.135c0 .718.205 1.318.615 1.798.414.477.933.715 1.558.715.375 0 .705-.068.99-.205.29-.136.551-.355.786-.656l.44.334c-.517.746-1.264 1.12-2.245 1.12zm-.129-5.976c-.527 0-.973.193-1.336.58-.36.386-.578.906-.656 1.558h3.803v-.076c-.02-.61-.194-1.105-.522-1.488s-.758-.574-1.289-.574zm11.04-.48h.702V44h-.703v-5.209L51.697 44H51v-6.34h.697v5.215l3.422-5.215zm-.036-2.286c0 .45-.154.813-.463 1.09-.305.277-.715.416-1.23.416-.508 0-.918-.137-1.23-.41-.31-.278-.464-.643-.464-1.096h.598c0 .324.096.572.287.744.195.172.465.258.809.258.343 0 .611-.09.802-.27.196-.18.293-.423.293-.732h.598z" fill="#067362"/><rect x="73.5" y="43.5" width="5" height="2" rx="1" transform="rotate(-180 73.5 43.5)" stroke="#067362"/><rect x="73.5" y="35.5" width="5" height="2" rx="1" transform="rotate(-180 73.5 35.5)" stroke="#067362"/><rect x="73.5" y="39.5" width="5" height="2" rx="1" transform="rotate(-180 73.5 39.5)" stroke="#067362"/><path d="M1 26v27a3 3 0 003 3h71a3 3 0 003-3V4a3 3 0 00-3-3H4a3 3 0 00-3 3v8.75" stroke="#067362" stroke-linecap="round"/></svg>