<svg width="50" height="32" fill="none" xmlns="http://www.w3.org/2000/svg"><g clip-path="url(#clip0)" fill="#495352"><path d="M14.452 8.11c.42 0 .76-.335.76-.748a.755.755 0 00-.76-.75c-.42 0-.76.336-.76.75 0 .413.34.749.76.749zm0 2.89c.42 0 .76-.336.76-.75a.755.755 0 00-.76-.748c-.42 0-.76.335-.76.749 0 .413.34.749.76.749zm-4.021 0c.42 0 .761-.336.761-.75a.755.755 0 00-.76-.748.755.755 0 00-.762.749c0 .413.341.749.761.749zm4.021 2.781c.42 0 .76-.335.76-.749a.755.755 0 00-.76-.749c-.42 0-.76.336-.76.75 0 .413.34.748.76.748zm-4.021 0c.42 0 .761-.335.761-.749a.755.755 0 00-.76-.749.756.756 0 00-.762.75c0 .413.341.748.761.748zm-4.021 0c.42 0 .761-.335.761-.749a.755.755 0 00-.76-.749.756.756 0 00-.762.75c0 .413.341.748.761.748zm8.042 2.889c.42 0 .76-.335.76-.748a.755.755 0 00-.76-.75c-.42 0-.76.336-.76.75 0 .413.34.749.76.749zm-4.021 0c.42 0 .761-.335.761-.748a.755.755 0 00-.76-.75.756.756 0 00-.762.75c0 .413.341.749.761.749zm-4.021 0c.42 0 .761-.335.761-.748a.755.755 0 00-.76-.75.756.756 0 00-.762.75c0 .413.341.749.761.749zm-4.021 0c.42 0 .76-.335.76-.748a.755.755 0 00-.76-.75c-.42 0-.76.336-.76.75 0 .413.34.749.76.749zm12.063 2.675c.42 0 .76-.335.76-.749a.755.755 0 00-.76-.749c-.42 0-.76.336-.76.75 0 .413.34.748.76.748zm-2.064-4.28c.42 0 .76-.335.76-.749a.755.755 0 00-.76-.749.756.756 0 00-.761.75c0 .413.34.748.76.748zm0 2.783c.42 0 .76-.336.76-.75a.755.755 0 00-.76-.748.755.755 0 00-.761.748c0 .414.34.75.76.75zm-4.023-2.783c.42 0 .761-.335.761-.749a.755.755 0 00-.76-.749.756.756 0 00-.761.75c0 .413.34.748.76.748zm0 2.783c.42 0 .761-.336.761-.75a.755.755 0 00-.76-.748.755.755 0 00-.761.748c0 .414.34.75.76.75zm-4.019 0c.42 0 .76-.336.76-.75a.755.755 0 00-.76-.748c-.42 0-.76.335-.76.748 0 .414.34.75.76.75zm-4.023 0c.42 0 .76-.336.76-.75a.755.755 0 00-.76-.748c-.42 0-.76.335-.76.748 0 .414.34.75.76.75zm10.108 1.497c.42 0 .761-.335.761-.749a.755.755 0 00-.76-.749.756.756 0 00-.762.75c0 .413.341.748.761.748zm-4.021 0c.42 0 .761-.335.761-.749a.755.755 0 00-.76-.749.756.756 0 00-.762.75c0 .413.341.748.761.748zm-4.021 0c.42 0 .76-.335.76-.749a.755.755 0 00-.76-.749c-.42 0-.76.336-.76.75 0 .413.34.748.76.748zm27.931 6.42H-1.742v1.712h33.583c-.543-.535-1.087-1.07-1.521-1.712zm-2.065-4.6H-2.067v1.712h30.974a29.33 29.33 0 00-.652-1.712zm-1.086-4.815H16.192v1.711h11.194c-.109-.535-.217-1.07-.217-1.712zm.543-4.602h-11.52v1.712h11.194a48.12 48.12 0 01.326-1.712zM29.45 7.04H16.193v1.713h12.39c.217-.642.543-1.177.869-1.712z"/></g><path d="M38.704.113V6.6c.495 0 .824-.162 1.318-.162.824 0 1.483.162 2.142.324.66.162 1.154.325 1.483.649.33.324.824.649.989.973.33.325.494.811.659 1.136l3.13-.974c-.494-1.297-1.318-2.27-2.307-3.244C44.965 4.33 43.647 3.681 42 3.52V.113h-3.295zm-4.943 25.304c1.319.973 2.966 1.622 4.943 1.784v3.244H42v-6.488c-.494 0-.824.162-1.318.162-1.647 0-3.13-.324-4.283-.973-1.154-.65-1.813-1.298-2.307-2.271l-3.13.973c.659 1.46 1.482 2.595 2.8 3.569z" fill="#8C9C9A"/><path d="M36.235 7.412l.33-.324V3.682c-1.154.324-2.143.81-2.966 1.622-1.154 1.135-1.813 2.595-1.977 4.38 0 .972.164 1.946.494 2.594.33.65.824 1.298 1.483 1.785a8.777 8.777 0 002.47 1.297c.99.325 2.143.649 3.296 1.136.988.324 1.977.649 2.636.81.824.325 1.483.487 1.977.812.494.324.989.649 1.153.973.33.324.33.81.33 1.46 0 .649-.165.973-.33 1.46a3.82 3.82 0 01-1.153 1.135l-.165.162v3.569c.33-.162.66-.162.989-.325.824-.324 1.648-.973 2.306-1.46.66-.648 1.154-1.297 1.483-2.108.33-.811.495-1.622.495-2.433 0-1.136-.165-1.947-.66-2.758-.494-.81-.988-1.46-1.812-1.946-.823-.487-1.647-.973-2.636-1.46-.988-.324-2.142-.811-3.46-1.135-1.977-.487-3.295-.974-4.119-1.623-.823-.486-1.318-1.297-1.318-2.108 0-.487.165-.811.33-1.136.165-.162.494-.648.824-.973z" fill="#8C9C9A"/><defs><clipPath id="clip0"><path fill="#fff" transform="translate(.1 .113)" d="M0 0h45.498v31.849H0z"/></clipPath></defs></svg>