<svg width="80" height="50" fill="none" xmlns="http://www.w3.org/2000/svg"><path fill="#4D82C1" d="M0 25.5h7.5v23.333H0z"/><path fill="#4D82C1" d="M3.333 17h.833v31.667h-.833zm24.834.167h7.5V40.5h-7.5z"/><path fill="#4D82C1" d="M31.5 18h.833v31.667H31.5z"/><path fill="#4D82C1" stroke="#4D82C1" d="M15.167 21.833h6.5v22.333h-6.5z"/><path fill="#4D82C1" d="M18 18h.833v5H18zm0 26.667h.833v5H18zm57.317-31.94l1.17-.732-.877-1.316-1.171.731.878 1.317zm2.488 5.851l1.317-.439c-.146-.585-.293-1.024-.44-1.609l-1.316.439c.146.585.293 1.024.439 1.609zm.732 3.072l1.317-.146c0-.585-.147-1.17-.293-1.61l-1.317.293c.146.439.146.878.293 1.463zM74.585 9.362c-.292-.439-.731-.878-1.17-1.316L72.39 9.07c.293.438.732.731 1.025 1.17l1.17-.878zm3.074 21.65l1.317.439c.146-.585.292-1.024.439-1.61l-1.318-.292c-.146.439-.292.878-.438 1.463zM80 23.113l-1.317.146v1.609H80v-1.755zm-1.61 4.827l1.317.146c.147-.585.147-1.17.147-1.609l-1.317-.146c0 .585 0 1.024-.147 1.609zm-1.756 5.998l1.17.585c.294-.439.44-1.024.586-1.61l-1.317-.438c0 .439-.292.878-.439 1.463zm1.464-18.871c-.293-.439-.44-1.024-.732-1.463l-1.17.585c.292.44.438.878.73 1.463l1.172-.585zm-3.22 22.528a1.31 1.31 0 00-1.317 1.316c0 .732.585 1.317 1.317 1.317s1.317-.585 1.317-1.317a1.31 1.31 0 00-1.317-1.316zM39.17 8.046a1.31 1.31 0 00-1.316 1.316c0 .732.585 1.317 1.317 1.317.731 0 1.317-.585 1.317-1.317 0-.731-.586-1.316-1.317-1.316zm3.66-1.61C50.731.586 61.414.44 69.462 5.851l-2.341.147c-.44 0-.732.438-.732.877 0 .44.44.732.878.732l4.39-.293c.147 0 .293 0 .293-.146.147 0 .147-.146.147-.146.146-.147.146-.44.146-.586l-1.17-4.095c-.147-.44-.586-.586-.879-.586-.439.147-.585.586-.585.878l.585 2.048c-8.488-5.851-20.049-5.705-28.39.585-.293.293-.44.732-.146 1.024.292.293.878.439 1.17.146zm27.95 34.816c-7.902 5.851-18.585 5.997-26.634.585l2.342-.146c.439 0 .731-.44.731-.878 0-.439-.438-.732-.877-.732l-4.39.293c-.147 0-.294 0-.294.146-.146 0-.146.147-.146.147-.146.146-.146.438-.146.585l1.17 4.096c.147.439.586.585.879.585.439-.146.585-.585.585-.878l-.585-2.048c8.487 5.852 20.048 5.705 28.39-.585.293-.292.439-.731.146-1.024-.292-.293-.731-.439-1.17-.146zm-15.365-30.72v5.852c.439 0 .731-.147 1.17-.147.732 0 1.317.147 1.903.293.585.146 1.024.293 1.317.585.292.293.732.585.878.878.293.292.439.731.585 1.024l2.78-.878c-.438-1.17-1.17-2.048-2.048-2.925-1.024-.878-2.195-1.463-3.659-1.61V10.68h-2.926v-.147zm-4.391 22.82c1.171.878 2.635 1.463 4.39 1.61v2.925h2.928v-5.851c-.44 0-.732.146-1.171.146-1.464 0-2.78-.292-3.805-.877-1.024-.586-1.61-1.17-2.049-2.048l-2.78 1.17c.585 1.17 1.317 2.048 2.487 2.925z"/><path d="M53.22 17.261l.292-.292v-3.072c-1.024.293-1.902.731-2.634 1.463-1.024 1.024-1.61 2.34-1.756 3.95 0 .877.146 1.755.439 2.34.293.585.732 1.17 1.317 1.609a7.757 7.757 0 002.195 1.17c.878.293 1.903.585 2.927 1.024.878.293 1.756.585 2.342.732.731.292 1.316.439 1.756.731.439.293.878.585 1.024.878.293.292.293.731.293 1.316 0 .44-.147.878-.293 1.317a3.418 3.418 0 01-1.024 1.024l-.147.146v3.218c.293-.146.586-.146.878-.292.732-.293 1.464-.878 2.049-1.317.585-.585 1.024-1.17 1.317-1.901a5.867 5.867 0 00.44-2.195c0-1.024-.147-1.755-.586-2.486-.44-.732-.878-1.317-1.61-1.756-.732-.439-1.463-.878-2.341-1.316-.879-.293-1.903-.732-3.074-1.024-1.756-.44-2.926-.878-3.658-1.463-.732-.44-1.17-1.17-1.17-1.902 0-.439.146-.731.292-1.024.146-.292.439-.585.731-.878z" fill="#4D82C1"/></svg>