<svg width="111" height="69" viewBox="0 0 111 69" fill="none" xmlns="http://www.w3.org/2000/svg">
<path d="M83.6372 0V7.02828V14.0566C84.708 14.0566 85.4219 13.7051 86.4927 13.7051C88.2774 13.7051 89.7052 14.0566 91.133 14.408C92.5607 14.7594 93.6315 15.1108 94.3454 15.8136C95.0593 16.5165 96.1301 17.2193 96.4871 17.9221C97.2009 18.6249 97.5579 19.6792 97.9148 20.382L104.697 18.2735C103.626 15.4622 101.841 13.3537 99.6995 11.2452C97.2009 9.13676 94.3454 7.73111 90.776 7.37969V0H83.6372Z" fill="#087464"/>
<path d="M72.9278 54.8205C75.7834 56.929 79.3528 58.3347 83.6361 58.6861V65.7144H90.7749V58.6861V51.6578C89.7041 51.6578 88.9902 52.0092 87.9193 52.0092C84.3499 52.0092 81.1375 51.3064 78.6389 49.9008C76.1403 48.4951 74.7125 47.0894 73.6417 44.981L66.8599 47.0894C68.2876 50.2522 70.0723 52.7121 72.9278 54.8205Z" fill="#087464"/>
<path d="M78.2863 15.8135C78.6433 15.4621 78.6433 15.4621 79.0002 15.1106V7.73096C76.5016 8.43378 74.36 9.48803 72.5753 11.2451C70.0767 13.705 68.6489 16.8677 68.292 20.7333C68.292 22.8417 68.6489 24.9502 69.3628 26.3559C70.0767 27.7615 71.1475 29.1672 72.5753 30.2214C74.003 31.2757 75.7877 32.3299 77.9294 33.0327C80.071 33.7356 82.5696 34.4384 85.0682 35.4926C87.2098 36.1955 89.3515 36.8983 90.7792 37.2497C92.5639 37.9525 93.9917 38.304 95.0625 39.0068C96.1333 39.7096 97.2042 40.4124 97.5611 41.1153C98.275 41.8181 98.275 42.8723 98.275 44.278C98.275 45.6836 97.9181 46.3865 97.5611 47.4407C96.8472 48.4949 96.1333 49.1978 95.0625 49.9006L94.7056 50.252V57.9831C95.4195 57.6317 96.1333 57.6317 96.8472 57.2803C98.6319 56.5775 100.417 55.1718 101.844 54.1176C103.272 52.7119 104.343 51.3063 105.057 49.5492C105.771 47.7921 106.128 46.0351 106.128 44.278C106.128 41.8181 105.771 40.061 104.7 38.304C103.629 36.5469 102.558 35.1412 100.774 34.087C98.9889 33.0327 97.2042 31.9785 95.0625 30.9243C92.9209 30.2214 90.4223 29.1672 87.5668 28.4644C83.2835 27.4101 80.428 26.3559 78.6433 24.9502C76.8586 23.896 75.7877 22.1389 75.7877 20.3819C75.7877 19.3276 76.1447 18.6248 76.5016 17.922C76.8586 17.5705 77.5724 16.5163 78.2863 15.8135Z" fill="#087464"/>
<path d="M35.5716 4L28.4287 4L28.4287 29L35.5716 29L35.5716 4Z" fill="#087464"/>
<path fill-rule="evenodd" clip-rule="evenodd" d="M23.0715 12.7844C13.6737 16.3788 7 25.4815 7 36.1429C7 49.95 18.1929 61.1429 32 61.1429C45.8071 61.1429 57 49.95 57 36.1429C57 25.4815 50.3264 16.3789 40.9287 12.7845V19.3673C46.9214 22.5635 51 28.8769 51 36.1429C51 46.6363 42.4934 55.1429 32 55.1429C21.5066 55.1429 13 46.6363 13 36.1429C13 28.8768 17.0787 22.5634 23.0715 19.3672L23.0715 12.7844Z" fill="#087464"/>
</svg>
