<svg width="39" height="45" fill="none" xmlns="http://www.w3.org/2000/svg"><g opacity=".5" clip-path="url(#clip0)" fill="#30C4AE"><path d="M32.943 35.382a8.045 8.045 0 00-1.87-1.808c-.49-.31-.98-.618-1.514-.839-.223-.088-.446-.22-.713-.264a4.41 4.41 0 00-.712-.221c-.223-.044-.49-.132-.713-.132-.267-.044-.49-.089-.757-.089a5.653 5.653 0 00-1.915.177c-.623.132-1.202.397-1.737.706-.534.309-1.024.75-1.425 1.19-.623.75-1.024 1.722-1.069 2.692l-.044.75c0 .309.222.618.579.618a.648.648 0 00.311-.088c.045 0 .09-.045.09-.089.267-.22.578-.441.89-.661a8.997 8.997 0 012.271-1.103c.312-.089.49-.442.401-.75-.089-.31-.445-.486-.757-.397-.89.264-1.692.661-2.494 1.147.134-.53.356-1.015.713-1.456.311-.397.712-.706 1.113-.971.445-.265.89-.441 1.38-.573a4.413 4.413 0 011.515-.133c.222 0 .445.044.623.088.223.044.401.089.624.133.222.044.4.132.623.176.178.089.401.133.58.22.489.221.934.486 1.38.75.4.266.801.619 1.158 1.016-1.07.705-1.96 1.544-2.762 2.514l-.178.265c-.579.706-1.336 1.235-2.182 1.412-.089 0-.133.044-.223.044h-.178c-.49.044-1.024 0-1.47-.133a4.42 4.42 0 01-.712-.22 4.68 4.68 0 01-.98-.574c-.267-.176-.668-.132-.846.133-.178.264-.133.662.134.838.4.309.801.53 1.202.706.268.132.58.22.891.309.49.132.98.176 1.47.176h.4c.09 0 .179 0 .268-.044.089 0 .178-.044.267-.044 1.113-.22 2.137-.883 2.85-1.853l.178-.265a9.896 9.896 0 012.984-2.603c.134-.088.267-.22.312-.397.178-.044.178-.22.044-.353zm-10.51-5.912c0 .045-.044.133-.044.177-.134.485-.357.927-.624 1.368-.134.22-.267.397-.445.573-.223.265-.49.486-.846.706-.268.177-.357.574-.134.838.178.265.579.353.846.133a5.53 5.53 0 001.069-.927c.223-.22.4-.485.579-.75.267-.397.49-.882.668-1.323.045-.133.09-.22.09-.353.044-.088.044-.177.044-.265 0-.088.044-.176.044-.265.134-1.103-.178-2.294-.846-3.264l-.178-.265c-.757-1.103-1.247-2.338-1.514-3.618a.643.643 0 00-.267-.397c-.134-.088-.312-.088-.49-.044-.847.265-1.648.662-2.316 1.191a15.9 15.9 0 00-1.292 1.147c-.178.177-.356.353-.49.574-.133.176-.311.397-.445.617a7.381 7.381 0 01-.4.618c-.134.22-.223.441-.313.662-.267.573-.4 1.191-.445 1.853-.044.617 0 1.235.134 1.853.133.617.356 1.191.712 1.72a4.9 4.9 0 002.227 1.897l.713.265c.311.133.668-.044.801-.353.045-.132.045-.22.045-.353 0-.044 0-.088-.045-.132a9.84 9.84 0 01-.356-1.059c-.223-.794-.312-1.632-.312-2.47 0-.31-.267-.618-.579-.618-.312 0-.623.265-.623.573 0 .927.089 1.81.311 2.692a2.884 2.884 0 01-1.157-1.147 5.267 5.267 0 01-.58-1.368c-.133-.485-.133-.97-.088-1.5A5.362 5.362 0 0116.243 27c.089-.177.178-.397.267-.573.09-.177.223-.354.312-.53.133-.176.223-.353.356-.53.134-.176.267-.308.4-.485.357-.353.758-.706 1.159-1.014.4-.31.846-.574 1.336-.75.312 1.19.846 2.338 1.514 3.397l.178.264c.535.75.757 1.633.624 2.471.044.044.044.132.044.22zm-9.441 11.383c.312-.088.58-.177.89-.309a5.644 5.644 0 001.203-.706c.267-.176.312-.573.134-.838s-.58-.309-.846-.132a4.68 4.68 0 01-.98.573c-.223.088-.445.177-.713.22-.49.133-.98.177-1.47.133h-.177c-.09 0-.134-.044-.223-.044-.846-.176-1.603-.662-2.182-1.412l-.178-.264a9.963 9.963 0 00-2.762-2.515c.357-.397.758-.75 1.158-1.015.446-.309.891-.53 1.38-.75.18-.088.402-.176.58-.22.223-.089.4-.133.623-.177.223-.044.401-.088.624-.132.222-.044.445-.044.623-.089a4.32 4.32 0 011.514.133c.49.132.936.309 1.381.573.445.265.802.574 1.113.97.357.398.624.927.713 1.457a9.851 9.851 0 00-2.494-1.147c-.312-.088-.668.088-.757.397-.09.309.089.662.4.75a8.997 8.997 0 012.272 1.103c.312.22.623.44.89.662l.045.044a.35.35 0 00.357.088c.311 0 .579-.309.579-.618l-.045-.75c-.045-.97-.445-1.94-1.069-2.69-.4-.486-.89-.883-1.425-1.192-.534-.309-1.113-.574-1.737-.706-.623-.176-1.247-.22-1.915-.176-.267 0-.49.044-.757.088-.223.044-.49.088-.712.132a4.41 4.41 0 00-.713.22c-.223.089-.445.177-.713.265a16.61 16.61 0 00-1.514.839 7.242 7.242 0 00-1.87 1.808.608.608 0 00-.09.486.562.562 0 00.313.397 9.897 9.897 0 012.983 2.603l.178.264a5.196 5.196 0 002.85 1.853c.09 0 .179.044.268.044.089 0 .178.045.267.045h.4a30.113 30.113 0 001.604-.265z"/><path d="M18.648 26.78a.842.842 0 00-.846.838c0 .44.4.838.846.838.445 0 .846-.397.846-.838a.842.842 0 00-.846-.839zm0 12.573a.842.842 0 00-.846.838c0 .441.356.838.846.838s.846-.397.846-.838a.842.842 0 00-.846-.838zm0-2.868a.841.841 0 00-.846.839c0 .485.4.838.846.838.445 0 .846-.397.846-.838a.842.842 0 00-.846-.839zm-9.976-5.25l1.96.133c.4-.794.89-1.544 1.514-2.206a6.99 6.99 0 001.024-.22l-.4-1.81c-.223.044-.446.089-.624.133a17.534 17.534 0 002.538-4.368h1.247l1.648-1.853h-2.182c.49-1.588.846-3.441.935-5.515h6.457a13.437 13.437 0 01-1.157 4.456l.846 2.338c1.38-2.25 2.226-4.896 2.226-7.72C24.66 6.573 18.024 0 9.83 0A14.861 14.861 0 00-2.417 6.441l-1.069 1.853C-4.466 10.191-5 12.397-5 14.691c0 4.986 2.538 9.397 6.368 12.044l1.604.97c2.004 1.06 4.275 1.633 6.68 1.677-.401.574-.757 1.191-.98 1.853zm4.72-10.103H6.268a19.35 19.35 0 01-1.024-5.514h9.218a21.302 21.302 0 01-1.068 5.514zm-8.15-7.367c.09-2.118.49-3.927 1.025-5.515h7.126a19.352 19.352 0 011.024 5.515H5.243zm15.81-5.515c.98 1.632 1.56 3.53 1.693 5.515h-6.457c-.09-2.074-.401-3.927-.936-5.515h5.7zm-1.29-1.809h-5.078c-.801-1.897-1.737-3.353-2.538-4.367 3.028.529 5.7 2.117 7.615 4.367zm-7.126 0H6.98a17.71 17.71 0 012.805-4.235c.713.706 1.87 2.118 2.85 4.235zM7.514 2.074A17.532 17.532 0 004.976 6.44H-.101a12.936 12.936 0 017.615-4.367zM-1.393 8.25h5.7a21.919 21.919 0 00-.935 5.515h-6.457A12.499 12.499 0 01-1.393 8.25zm0 12.882c-.98-1.632-1.558-3.53-1.692-5.514h6.457c.09 2.073.401 3.926.936 5.514h-5.7zm1.292 1.81h5.077c.801 1.896 1.737 3.352 2.538 4.367A12.936 12.936 0 01-.1 22.94zm7.125 0h5.656a17.713 17.713 0 01-2.806 4.235c-.712-.75-1.87-2.162-2.85-4.236zm11.134 20.205c-1.692 0-3.25-.485-4.542-1.368l-2.316.574C13.126 43.985 15.53 45 18.158 45c2.583 0 4.988-.97 6.77-2.559l-2.717-.309c-1.203.618-2.583 1.015-4.053 1.015z"/></g><defs><clipPath id="clip0"><path fill="#fff" d="M0 0h38.077v45H0z"/></clipPath></defs></svg>