<svg width="35" height="37" fill="none" xmlns="http://www.w3.org/2000/svg"><g opacity=".5" clip-path="url(#clip0)" fill="#30C4AE"><path d="M21.25 23.428v12.334H19.4v-8.635a.618.618 0 00-.616-.62H15.1a.618.618 0 00-.617.62v8.635h-1.85v-4.318a.618.618 0 00-.617-.619H8.35a.618.618 0 00-.616.62v4.317H4.667V37H28v-1.238h-1.85V23.428a.618.618 0 00-.616-.619H21.85c-.325 0-.6.277-.6.62zM8.967 35.762v-3.699h2.45v3.699h-2.45zm6.75 0v-8.016h2.45v8.016h-2.45zm6.766-11.715h2.45v11.715h-2.45V24.047z"/><path d="M-4.55 34.524H6.5v-1.239H-4.55a1.235 1.235 0 01-1.233-1.238V30.19c0-.342.276-.62.617-.62H13.25v-1.238H-2.7V1.857c0-.342.275-.619.616-.619H21.25c.34 0 .617.277.617.62v19.73H23.1V1.857A1.853 1.853 0 0021.25 0H-2.083c-1.023 0-1.85.83-1.85 1.857v26.508h-1.233c-1.023 0-1.85.83-1.85 1.857v1.858a2.474 2.474 0 002.466 2.444z"/><path d="M14.5 11.714H8.35a.618.618 0 00-.616.62v6.158c0 .342.276.62.616.62a6.653 6.653 0 004.317-1.581l1.379 1.385a.627.627 0 00.438.179h2.45v-1.238h-2.19l-1.201-1.206a6.836 6.836 0 001.574-4.334.625.625 0 00-.617-.603zm-1.833 4.073l-1.428-1.433-.877.88 1.428 1.433a5.67 5.67 0 01-2.823 1.19v-4.904h4.884a5.656 5.656 0 01-1.184 2.835z"/><path d="M5.9 3.08c-3.732 0-6.75 3.03-6.75 6.777a6.79 6.79 0 003.067 5.686v2.346H3.45v-1.71a6.695 6.695 0 002.45.472c.34 0 .617-.277.617-.62v-5.555h5.533c.34 0 .616-.277.616-.619 0-.847-.162-1.678-.47-2.46h4.77V6.159h-5.403c-1.25-1.907-3.391-3.08-5.663-3.08zM3.434 14.825v-3.73H2.2v2.9C.01 12.04-.266 8.7 1.568 6.402l3.7 3.715v5.262a5.307 5.307 0 01-1.834-.554zm7.95-5.572h-5.24l-3.7-3.714a5.494 5.494 0 017.561.635H7.117v1.238h3.732c.276.57.47 1.19.535 1.841zm8.033 8.636h-1.233v1.238h1.233V17.89zm0-11.731h-1.233v1.239h1.233V6.158zM1.6 21.587H.367v1.239H1.6v-1.239zm18.433 0h-17.2v1.239h17.2v-1.239zm-1.866 2.46H-.866v1.239h19.033v-1.239zM3.45 19.111H2.217v1.238H3.45v-1.238z"/></g><defs><clipPath id="clip0"><path fill="#fff" d="M0 0h35v37H0z"/></clipPath></defs></svg>