<svg width="38" height="39" fill="none" xmlns="http://www.w3.org/2000/svg"><g opacity=".5" clip-path="url(#clip0)" fill="#067362"><path d="M.748 23.002a1.853 1.853 0 00-1.844 1.852v9.842c0 1.018.83 1.851 1.844 1.851a1.853 1.853 0 001.845-1.851v-.617h-1.23v.617c0 .34-.276.617-.615.617a.618.618 0 01-.614-.617v-9.842c0-.34.276-.618.614-.618.339 0 .615.278.615.617v7.992h1.23v-7.991c-.015-1.019-.845-1.852-1.845-1.852zm6.118 0a1.853 1.853 0 00-1.845 1.852v9.842c0 1.018.83 1.851 1.845 1.851a1.853 1.853 0 001.845-1.851v-.617H7.48v.617c0 .34-.277.617-.615.617a.618.618 0 01-.615-.617v-9.842c0-.34.277-.618.615-.618.338 0 .615.278.615.617v7.992h1.23v-7.991c0-1.019-.83-1.852-1.845-1.852zm6.134 0a1.853 1.853 0 00-1.845 1.852v9.842c0 1.018.83 1.851 1.845 1.851a1.853 1.853 0 001.845-1.851v-.617h-1.23v.617c0 .34-.277.617-.615.617a.618.618 0 01-.615-.617v-9.842c0-.34.277-.618.615-.618.338 0 .615.278.615.617v7.992h1.23v-7.991c0-1.019-.83-1.852-1.845-1.852z"/><path d="M30.31 23.156l-.77-.293v-1.08a2.455 2.455 0 002.445-2.453c0-1.342-1.107-2.453-2.444-2.453H-3.556A2.455 2.455 0 00-6 19.33c0 1.343 1.107 2.453 2.444 2.453V35.93A3.063 3.063 0 00-.496 39h26.962a3.063 3.063 0 003.06-3.07v-7.405a2.656 2.656 0 002.443-2.653v-.232a2.57 2.57 0 00-1.66-2.484zm-1.984-.787l-1.506-.586h1.506v.586zm2.444-3.054c0 .679-.553 1.234-1.23 1.234H23.7l-6.241-2.453H29.54c.676-.015 1.23.54 1.23 1.219zM13 20.549c-.676 0-1.23-.555-1.23-1.234 0-.679.554-1.234 1.23-1.234.676 0 1.23.555 1.23 1.234 0 .679-.554 1.234-1.23 1.234zm-17.77-1.234c0-.679.553-1.234 1.23-1.234h14.434c-.215.37-.338.787-.338 1.234 0 .447.123.864.338 1.234h-14.45a1.223 1.223 0 01-1.214-1.234zm31.251 18.45H-.48a1.853 1.853 0 01-1.845-1.85V21.768h14.588l5.273 2.16a1.89 1.89 0 00-.246.925v9.843c0 1.018.83 1.851 1.845 1.851a1.853 1.853 0 001.844-1.851v-9.364l2.444 1.002v8.362c0 1.018.83 1.851 1.845 1.851a1.853 1.853 0 001.845-1.851v-.617h-1.23v.617c0 .34-.277.617-.615.617a.618.618 0 01-.615-.617v-7.853l1.23.494v5.508h1.23V27.83l1.23.493v7.59c-.016 1.019-.846 1.852-1.86 1.852zm-6.748-12.942v9.858a.618.618 0 01-.615.617.618.618 0 01-.615-.617v-9.843c0-.17.077-.324.2-.448l1.03.433zm11.037 1.049a1.43 1.43 0 01-1.43 1.434 1.29 1.29 0 01-.537-.108L14.414 21.32a2.45 2.45 0 001.046-2.005c0-.262-.047-.51-.123-.756l14.542 5.739c.553.216.907.74.907 1.342v.232h-.016z"/></g><defs><clipPath id="clip0"><path fill="#fff" d="M0 0h38v39H0z"/></clipPath></defs></svg>