<svg width="16" height="15" fill="none" xmlns="http://www.w3.org/2000/svg"><path fill-rule="evenodd" clip-rule="evenodd" d="M10.134 5.683H14.4c.425 0 .831-.164 1.131-.455.3-.291.469-.686.47-1.097V.517a.51.51 0 00-.157-.366.542.542 0 00-.754 0 .51.51 0 00-.156.366v3.614a.51.51 0 01-.157.366.543.543 0 01-.377.151h-4.266a.542.542 0 00-.378.152.51.51 0 000 .731c.1.097.236.152.378.152zM.469 11.959c.3.29.707.454 1.131.455h3.616l-.32 1.552H3.2a.542.542 0 00-.377.151.51.51 0 000 .732A.54.54 0 003.2 15h9.6a.542.542 0 00.377-.151.51.51 0 000-.732.542.542 0 00-.377-.151h-1.695l-.32-1.552H14.4c.424 0 .83-.164 1.13-.455.3-.291.47-.686.47-1.097V7.235a.51.51 0 00-.156-.366.542.542 0 00-.755 0 .51.51 0 00-.156.366v3.627a.51.51 0 01-.156.366.543.543 0 01-.377.151H1.6a.543.543 0 01-.377-.151.51.51 0 01-.156-.366V2.586a.51.51 0 01.156-.365.543.543 0 01.377-.152H8a.542.542 0 00.377-.152.51.51 0 000-.731A.542.542 0 008 1.035H1.6c-.424 0-.83.164-1.13.454-.3.291-.47.686-.47 1.097v8.276c0 .411.17.806.47 1.097zm5.515 2.007l.32-1.552h3.392l.32 1.552H5.984zm5.215-9.828a.542.542 0 01-.377-.152.51.51 0 01-.156-.365V2.069a.51.51 0 01.156-.366.542.542 0 01.754 0 .51.51 0 01.156.366V3.62a.51.51 0 01-.156.365.542.542 0 01-.377.152zm1.757-.152a.542.542 0 00.754 0 .51.51 0 00.156-.365V1.034A.51.51 0 0013.71.67a.542.542 0 00-.755 0 .51.51 0 00-.156.365v2.587a.51.51 0 00.157.365zM4.8 7.758H2.667a.542.542 0 01-.377-.151.51.51 0 010-.732.542.542 0 01.377-.151H4.8c.142 0 .277.054.378.151a.51.51 0 010 .732.542.542 0 01-.378.151zM2.29 9.676c.1.097.236.151.377.151h4.267a.542.542 0 00.377-.151.51.51 0 000-.732.542.542 0 00-.377-.151H2.667a.542.542 0 00-.377.151.51.51 0 000 .732z" fill="#8C9C9A"/></svg>