<svg width="33" height="45" fill="none" xmlns="http://www.w3.org/2000/svg"><g opacity=".5" clip-path="url(#clip0)" fill="#067362"><path d="M19.527 31.059c.265.088.485.176.661.309.176.132.353.264.44.44.133.177.221.354.265.53l1.366-.485a3.776 3.776 0 00-1.013-1.456c-.485-.441-1.102-.706-1.807-.838v-1.5h-1.41v2.912c.177-.044.397-.044.617-.044.308.044.661.088.881.132zm-2.555 7.456c-.485-.265-.837-.618-1.013-1.015l-1.366.485c.264.574.66 1.06 1.233 1.5.573.441 1.322.706 2.16.839v1.5h1.453v-2.956c-.176.044-.396.044-.617.044a3.39 3.39 0 01-1.85-.397z"/><path d="M21.598 35.206c-.352-.265-.749-.441-1.19-.618a11.96 11.96 0 00-1.498-.485c-.837-.22-1.454-.485-1.85-.706a1.062 1.062 0 01-.573-.97c0-.177.044-.354.132-.53.088-.176.22-.353.353-.485.044-.044.088-.089.176-.133v-1.632c-.529.176-.97.397-1.322.75-.528.53-.837 1.191-.837 1.941 0 .485.044.883.22 1.191.177.31.397.618.706.839.308.22.66.44 1.101.617.44.177.925.309 1.454.486.44.132.837.264 1.19.352.352.133.616.265.837.398.22.132.396.308.528.485.133.176.177.397.177.617 0 .221-.045.442-.177.662-.132.177-.264.353-.484.486-.044 0-.044.044-.088.044v1.632c.176-.044.308-.088.484-.176.397-.177.75-.398 1.014-.706.264-.265.484-.574.616-.927.133-.353.22-.706.22-1.103 0-.485-.087-.882-.308-1.235a7.949 7.949 0 00-.88-.794z"/><path d="M21.07 25.015a14.584 14.584 0 004.273-10.324C25.343 6.574 18.778 0 10.672 0 5.649 0 1.199 2.559-1.445 6.441l-1.057 1.853C-3.472 10.191-4 12.397-4 14.691c0 4.986 2.511 9.397 6.3 12.044l1.587.97c1.982 1.06 4.23 1.633 6.608 1.677a10.103 10.103 0 00-1.63 5.515C8.821 40.456 13.36 45 18.91 45 24.462 45 29 40.456 29 34.897c0-4.853-3.392-8.868-7.93-9.882zm.704-3.883h-5.64a22.13 22.13 0 00.926-5.514h6.389c-.133 1.985-.75 3.838-1.675 5.514zm-6.564-5.514a19.841 19.841 0 01-1.014 5.514h-7.05a19.536 19.536 0 01-1.012-5.514h9.076zm-9.076-1.853A19.841 19.841 0 017.147 8.25h7.05a19.535 19.535 0 011.013 5.515H6.134zm9.34 9.176h5.023a12.768 12.768 0 01-7.534 4.368c.793-1.015 1.718-2.47 2.511-4.368zm6.3-14.691c.97 1.632 1.542 3.53 1.675 5.515H17.06c-.088-2.074-.396-3.927-.925-5.515h5.64zm-1.277-1.809h-5.023c-.793-1.897-1.718-3.353-2.511-4.367a12.763 12.763 0 017.534 4.367zm-7.05 0H7.852a17.723 17.723 0 012.775-4.235c.705.706 1.851 2.118 2.82 4.235zM8.381 2.074A17.576 17.576 0 005.869 6.44H.846a12.768 12.768 0 017.535-4.367zM-.431 8.25h5.64a22.133 22.133 0 00-.926 5.515h-6.388A12.596 12.596 0 01-.431 8.25zm0 12.882c-.97-1.632-1.542-3.53-1.674-5.514h6.388c.088 2.073.397 3.926.925 5.514h-5.64zm1.277 1.81H5.87c.793 1.896 1.718 3.352 2.512 4.367A12.768 12.768 0 01.846 22.94zm7.05 0h5.595a17.723 17.723 0 01-2.775 4.235c-.705-.75-1.85-2.162-2.82-4.236zM18.91 43.146c-4.537 0-8.238-3.706-8.238-8.25 0-2.162.837-4.147 2.29-5.691a14.109 14.109 0 006.213-2.559c4.45.132 8.019 3.794 8.019 8.25-.044 4.544-3.745 8.25-8.284 8.25z"/></g><defs><clipPath id="clip0"><path fill="#fff" d="M0 0h33v45H0z"/></clipPath></defs></svg>