<svg width="19" height="16" fill="none" xmlns="http://www.w3.org/2000/svg"><path d="M4.438 2.804l.158.072a.234.234 0 00.195-.425l-.162-.073a.233.233 0 10-.191.426z" fill="#8C9C9A"/><path d="M1.735 2.223l-.656-.307a.439.439 0 00-.622.424l.59 9.434c.01.158.105.3.249.368l6.66 3.178.028.025c.285.219.6.386.933.498a3.105 3.105 0 00.81.157h.001l.03-.001c.265-.018.528-.07.78-.155.335-.113.649-.28.934-.499l.027-.025 6.661-3.178a.438.438 0 00.249-.368l.59-9.434a.438.438 0 00-.622-.424l-.656.307v-.445l-.002-.02v-.023c0-.008-.004-.015-.005-.023a.562.562 0 00-.021-.085.442.442 0 00-.338-.28.436.436 0 00-.052-.005l-.02-.002-.02.002h-.023c-.221.022-.436.05-.647.084v-.68c0-.012-.003-.022-.004-.034a.228.228 0 00-.004-.045l-.011-.042c-.004-.014-.008-.028-.013-.04a.214.214 0 00-.02-.04c-.006-.012-.011-.024-.019-.036l-.026-.034-.026-.032-.03-.027c-.012-.01-.022-.02-.034-.028-.011-.008-.023-.014-.035-.02a.282.282 0 00-.078-.035l-.042-.014-.042-.006-.037-.005h-.023c-.614-.014-2.274.518-4.308 2.004-.728.532-1.6 1.56-2.114 2.515-.516-.956-1.387-1.985-2.113-2.515C5.582.827 3.92.3 3.308.308h-.026c-.012 0-.024.004-.036.005-.015.002-.029.003-.043.006-.014.003-.028.009-.042.013-.013.005-.026.008-.039.014l-.039.021C3.072.374 3.06.38 3.05.388l-.034.028-.03.027c-.01.01-.018.021-.027.032L2.933.51c-.008.012-.013.024-.02.036a.429.429 0 00-.019.039l-.013.041c-.003.014-.008.027-.01.041a.34.34 0 00-.005.046c-.001.011-.004.022-.004.033v.68a11.273 11.273 0 00-.647-.084h-.021l-.021-.001-.025.002a.445.445 0 00-.267.111.424.424 0 00-.131.216.426.426 0 00-.008.043l-.005.023v.022l-.002.02v.446zm15.816 9.24l-6.015 2.869.01-.89a.292.292 0 00-.289-.295h-.003c-.16 0-.29.129-.292.289l-.013 1.196c-.013.012-.027.023-.039.036a2.247 2.247 0 01-1.182.453 2.251 2.251 0 01-1.182-.453c-.012-.013-.026-.024-.04-.036l-.07-6.675a.292.292 0 00-.293-.29H8.14a.292.292 0 00-.289.296l.068 6.369-6.014-2.87-.528-8.439.392.184a.438.438 0 00.117.034.434.434 0 00.287.109h.001l5.657 2.649.012 1.169c.002.16.132.289.292.289h.003a.292.292 0 00.29-.295l-.01-.861c.094.04.198.078.325.12.29.097.757.134.962.15v-.005c.01 0 .019.005.029.005h.023c.2-.016.666-.053.956-.15.127-.042.23-.081.325-.12l-.068 6.343a.292.292 0 00.289.295h.003c.16 0 .29-.128.292-.288l.071-6.652 5.657-2.65h.001c.11 0 .21-.041.287-.109a.433.433 0 00.116-.034l.393-.183-.528 8.44zM12.358 3.02c1.498-1.095 2.72-1.596 3.36-1.766v.702c0 .02.003.04.005.06a11.49 11.49 0 00-1.945.879 17.04 17.04 0 00-1.113.696.234.234 0 00.262.387c.367-.248.73-.476 1.083-.677.656-.375 1.31-.66 2.084-.919.02.003.04.006.06.006a.43.43 0 00.09-.01c.199-.04.398-.075.6-.104v.636l-5.578 2.612-.013.01c-.005.002-.01.002-.015.005-.181.11-.306.18-.498.254.387-.429.97-.936 1.669-1.448a.234.234 0 00-.276-.377c-.464.34-1.233.942-1.77 1.549.387-.832 1.255-1.955 1.995-2.495zm-3.24 2.556c-.775-.903-2.264-1.993-3.47-2.681a19.431 19.431 0 00-.247-.137.234.234 0 00-.223.41c.08.043.159.088.238.133 1.098.626 2.495 1.638 3.253 2.472a3.05 3.05 0 01-.452-.236c-.005-.003-.01-.003-.015-.005l-.013-.01L2.611 2.91v-.636c.202.03.401.063.6.105.03.006.059.01.09.01.015 0 .029-.004.043-.005.19.063.372.127.548.194a.232.232 0 00.301-.134.233.233 0 00-.134-.302l-.328-.12a.446.446 0 00.007-.066v-.7c.639.17 1.859.667 3.36 1.763.754.552 1.647 1.718 2.02 2.557z" fill="#8C9C9A"/><path d="M2.35 6.012a.234.234 0 00-.225.242l.012.327a.234.234 0 00.234.225h.009a.234.234 0 00.225-.242l-.013-.327c-.005-.13-.127-.223-.242-.225zm.948-1.405l-.936-.426a.234.234 0 00-.329.236c0 .004.038.394.064 1.086a.234.234 0 00.233.225h.01a.234.234 0 00.224-.242 28.094 28.094 0 00-.035-.715l.576.262a.234.234 0 00.193-.426zm11.678 7.052l-.184.095a.233.233 0 10.215.415l.184-.095a.234.234 0 00-.215-.415zm1.836-1.129a.233.233 0 00-.244.223l-.004.084-.995.516a.233.233 0 10.214.414l1.115-.577a.234.234 0 00.126-.197l.01-.218a.233.233 0 00-.222-.244zm.042-.966a.238.238 0 00-.243.223l-.015.328a.233.233 0 10.466.02l.015-.327a.234.234 0 00-.223-.244z" fill="#8C9C9A"/></svg>