<svg width="28" height="28" fill="none" xmlns="http://www.w3.org/2000/svg"><g clip-path="url(#clip0)" fill="#494E54"><path d="M24.527 7.632l-4.205-4.194c-3.291 3.282-6.556 6.564-9.847 9.82a319.126 319.126 0 004.205 4.193 1753.14 1753.14 0 009.847-9.82zm2.976-5.548A45.785 45.785 0 0025.91.494c-.731-.702-1.959-.676-2.69.027l-.758.755c-.235.235-.47.443-.679.651A655.866 655.866 0 0126.041 6.2c.522-.52 1.07-1.042 1.54-1.615.628-.73.55-1.823-.078-2.5zM8.802 14.925a1.994 1.994 0 00-.392 1.198.924.924 0 01-.052.26l-1.41 4.454c-.026.052-.026.104-.052.183.078-.026.13-.026.182-.053.444-.13.888-.312 1.359-.416 1.306-.365 2.533-.938 3.891-1.12.314-.052.601-.26.915-.391-1.463-1.459-2.874-2.891-4.31-4.324-.026.078-.079.13-.13.209z"/></g><defs><clipPath id="clip0"><path fill="#fff" d="M0 0h28v28H0z"/></clipPath></defs></svg>