<svg width="52" height="53" fill="none" xmlns="http://www.w3.org/2000/svg"><g opacity=".5" clip-path="url(#clip0)" fill="#30C4AE"><path d="M31.162 28.829l.116-.115a.636.636 0 00-.064.166l-.052-.051zM20.529 3.932a1.716 1.716 0 00-1.868.565l-4.42-1.42A2.122 2.122 0 0012.194.883c-1.185-.042-2.175.868-2.217 2.027a1.99 1.99 0 00.223 1.02L7.05 6.746a2.164 2.164 0 00-2.914.607l-.39 1.062a2.167 2.167 0 00.544 1.614c.39.427.934.69 1.519.703l.655 3.09a2.96 2.96 0 00-1.575 3.903c.028.068.056.137.098.206.041.042.07.11.111.18l.767.855a3.008 3.008 0 004.433-.938l3.512 1.13c0 .277.056.566.196.814.07.138.153.263.25.373a1.753 1.753 0 002.454.138 1.7 1.7 0 00.432-1.972l2.928-2.607c1.268.924 3.052.662 3.986-.593.195-.248.335-.538.433-.841.487-1.476-.335-3.076-1.827-3.559a2.888 2.888 0 00-.906-.138l-.822-3.779c.348-.207.6-.538.725-.91a1.745 1.745 0 00-1.13-2.151zm-9.382-1.214a.986.986 0 011.24-.62.971.971 0 01.628 1.227c-.167.51-.725.786-1.24.634-.502-.18-.795-.73-.628-1.241zM5 9.062a1.025 1.025 0 01-.07-.786.988.988 0 01.502-.58c.502-.261 1.129-.068 1.38.428A1 1 0 016.38 9.49 1.028 1.028 0 015 9.062zm4.293 6.703c.223.428.265.938.112 1.393a1.784 1.784 0 01-.907 1.048 1.857 1.857 0 01-2.495-.772c-.474-.897-.125-2 .78-2.469a1.861 1.861 0 012.51.8zm13.954-2.924a1.668 1.668 0 01-.739 2.262 1.684 1.684 0 01-2.272-.731 1.65 1.65 0 01.739-2.248 1.695 1.695 0 012.02.372c.098.097.182.207.252.345zm-2.663-1.82a2.878 2.878 0 00-1.561 1.71 2.812 2.812 0 00.167 2.151l.084.138-2.941 2.634a1.663 1.663 0 00-.28-.11c-.668-.22-1.421 0-1.867.538l-3.555-1.145c.195-1.627-.976-3.103-2.62-3.31a4.255 4.255 0 00-.419-.027l-.669-3.104a2.144 2.144 0 00.906-2.91v-.013L10.938 4.8a2.145 2.145 0 002.927-.62L18.27 5.6c.014.4.168.787.446 1.09.195.22.46.386.753.469.098.027.195.055.307.069l.808 3.793z"/><path d="M34.608.952a1.716 1.716 0 00-1.868.566L28.32.11a2.122 2.122 0 00-2.048-2.193c-1.185-.041-2.175.869-2.217 2.028-.014.358.056.703.223 1.02l-3.15 2.814a2.164 2.164 0 00-2.914.607l-.39 1.061a2.168 2.168 0 00.544 1.614c.39.428.934.69 1.52.704l.654 3.089a2.96 2.96 0 00-1.575 3.903c.028.069.056.138.098.207.041.041.07.11.111.18l.767.854a3.008 3.008 0 004.433-.938l3.513 1.131c0 .276.055.566.195.814.07.138.153.262.25.372a1.753 1.753 0 002.454.138 1.7 1.7 0 00.432-1.972l2.928-2.607a2.867 2.867 0 003.986-.593c.196-.248.335-.537.433-.84.487-1.477-.335-3.076-1.827-3.56a2.889 2.889 0 00-.906-.137l-.822-3.78c.348-.206.6-.537.725-.91a1.731 1.731 0 00-1.13-2.165zM25.24-.26a.986.986 0 011.24-.621.971.971 0 01.628 1.227c-.167.51-.725.787-1.24.635A.986.986 0 0125.24-.26zm-6.147 6.344a1.024 1.024 0 01-.07-.786.988.988 0 01.502-.58 1.021 1.021 0 011.38.428 1 1 0 01-.432 1.365 1.037 1.037 0 01-1.38-.427zm4.28 6.703c.222.427.264.938.11 1.393a1.784 1.784 0 01-.905 1.048 1.856 1.856 0 01-2.496-.772 1.82 1.82 0 01.78-2.47 1.861 1.861 0 012.51.8zM37.34 9.862a1.668 1.668 0 01-.739 2.262 1.684 1.684 0 01-2.272-.731 1.65 1.65 0 01.739-2.248 1.695 1.695 0 012.02.372c.099.097.182.207.252.345zm-2.663-1.82a2.877 2.877 0 00-1.56 1.71 2.811 2.811 0 00.166 2.151l.084.138-2.941 2.634a1.673 1.673 0 00-.28-.11c-.668-.22-1.421 0-1.867.538l-3.555-1.145c.195-1.627-.976-3.103-2.62-3.31a4.255 4.255 0 00-.419-.028l-.669-3.103a2.144 2.144 0 00.906-2.91v-.014l3.109-2.772c.976.62 2.286.345 2.927-.62l4.405 1.42c.014.4.168.786.446 1.09.196.22.46.386.753.469.098.027.195.055.307.069l.808 3.792zm-8.879 10.936a.689.689 0 00-.74.22l-1.741-.565a.855.855 0 00-.809-.868.857.857 0 00-.878.8.98.98 0 00.083.4l-1.24 1.103a.846.846 0 00-1.143.234l-.154.414a.81.81 0 00.084.441c.028.07.07.125.125.18a.818.818 0 00.6.276l.265 1.213a1.15 1.15 0 00-.614 1.531l.042.083a.297.297 0 01.042.069l.307.33c.515.387 1.254.29 1.645-.22.027-.041.07-.096.097-.138l1.38.441c0 .11.028.221.07.318a.927.927 0 00.098.152c.25.275.683.303.961.055a.653.653 0 00.168-.773l1.143-1.02a1.121 1.121 0 001.56-.235c.07-.096.126-.207.168-.33a1.1 1.1 0 00-.71-1.394 1.052 1.052 0 00-.363-.055l-.32-1.49a.598.598 0 00.278-.358c.153-.317-.042-.703-.404-.814zm-3.68-.469a.381.381 0 01.488-.248c.209.069.32.276.25.483a.381.381 0 01-.487.248.38.38 0 01-.251-.483zm-2.412 2.483a.402.402 0 01.167-.538c.195-.097.446-.028.544.166a.4.4 0 01-.167.537.398.398 0 01-.544-.165zm1.687 2.634a.755.755 0 01.042.552.689.689 0 01-.349.413.732.732 0 01-.976-.303.717.717 0 01.307-.965.748.748 0 01.878.151c.028.042.056.097.098.152zm5.478-1.145a.648.648 0 01-.293.883.662.662 0 01-.892-.29.648.648 0 01.293-.882.662.662 0 01.794.138c.042.055.07.096.098.151zm-1.045-.717a1.097 1.097 0 00-.614.676c-.097.276-.07.58.07.841l.028.056-1.157 1.034a.964.964 0 00-.112-.041.707.707 0 00-.739.206l-1.393-.441a1.158 1.158 0 00-1.032-1.296c-.056 0-.111-.014-.167-.014l-.265-1.228a.855.855 0 00.362-1.144l1.227-1.09a.824.824 0 001.143-.248l1.729.552c0 .151.07.303.167.427a.83.83 0 00.293.193c.041.014.083.014.125.028l.335 1.49zm-7.653 2.731a2.89 2.89 0 00-.906-.138l-.823-3.779c.349-.207.6-.538.725-.91a1.694 1.694 0 00-1.115-2.138 1.716 1.716 0 00-1.868.566l-4.419-1.421-.279 1.145 4.322 1.393c.013.4.167.786.446 1.09.195.22.46.385.752.468.098.028.196.055.307.07l.822 3.778a2.877 2.877 0 00-1.56 1.71 2.812 2.812 0 00.166 2.152l.084.138-2.941 2.634a1.673 1.673 0 00-.279-.11 1.742 1.742 0 00-1.868.537l-3.555-1.144c.196-1.628-.975-3.103-2.62-3.31-.14-.014-.279-.028-.418-.028l-.67-3.103a2.144 2.144 0 00.907-2.91v-.014l2.788-2.496-.781-.842-2.802 2.497a2.164 2.164 0 00-2.913.607l-.39 1.062a2.167 2.167 0 00.543 1.613c.39.428.934.69 1.52.704l.655 3.089a2.96 2.96 0 00-1.576 3.903c.028.07.056.138.098.207.042.041.07.11.111.18l.767.854a3.008 3.008 0 004.433-.937l3.513 1.13c0 .276.056.566.195.814a1.8 1.8 0 00.25.373 1.753 1.753 0 002.454.137 1.7 1.7 0 00.432-1.972l2.928-2.606c1.268.924 3.053.662 3.987-.593a2.68 2.68 0 00.432-.842 2.855 2.855 0 00-1.854-3.558zM1.919 23.088c-.502.262-1.13.07-1.38-.427a1.025 1.025 0 01-.07-.787.988.988 0 01.502-.579c.502-.262 1.13-.069 1.38.428.279.496.084 1.103-.432 1.365zm3.01 7.668a1.784 1.784 0 01-.905 1.049 1.856 1.856 0 01-2.495-.773c-.474-.896-.126-2 .78-2.468a1.861 1.861 0 012.51.8c.236.427.264.924.11 1.392zm13.118-2.068a1.704 1.704 0 01-2.286-.731 1.65 1.65 0 01.739-2.248 1.695 1.695 0 012.272.73c.446.814.112 1.821-.725 2.249z"/></g><defs><clipPath id="clip0"><path fill="#fff" d="M0 0h52v53H0z"/></clipPath></defs></svg>