<svg width="48" height="27" fill="none" xmlns="http://www.w3.org/2000/svg"><g opacity=".5" clip-path="url(#clip0)" fill="#087464"><path d="M-16.423 1.912c.262 2.134 1.297 3.304 3.215 3.814 3.132.812 6.236 1.707 9.354 2.56.303.083.662.097.883.276.096.069.18.151.248.248.414.44.152 1.184-.441 1.266a.522.522 0 01-.207 0c-1.684-.371-3.34-.88-5.009-1.335-1.696-.468-3.393-.909-5.118-1.377-.097 1.928.897 3.263 2.842 3.8 2.042.579 4.111 1.102 6.153 1.666.607.165 1.38.344 1.035 1.157-.124.289-.98.495-1.421.4-1.931-.442-3.835-1.02-5.753-1.543-.414 1.542.58 3.125 2.36 3.69 1.393.44 2.841.716 4.22 1.198.111.041.208.11.304.193.442.413.235 1.184-.358 1.294a.908.908 0 01-.331.014c-1.215-.207-2.387-.593-3.588-.895-.124 1.83.897 3.249 2.718 3.786 1.449.427 2.925.73 4.36 1.198a.75.75 0 01.248.137.766.766 0 01-.234 1.336c-.138.041-.276.069-.4.041a46.27 46.27 0 01-4.87-1.321c-2.098-.689-3.422-2.603-3.601-4.82-.042-.523-.345-1.156-.732-1.514-1.186-1.129-1.876-2.423-1.973-4.075-.027-.482-.358-1.033-.717-1.377-1.186-1.115-1.89-2.41-2-4.062-.028-.51-.387-1.115-.773-1.487-1.462-1.363-2.152-2.919-1.96-4.888.125-1.211.704-1.445 1.808-1.143 4.87 1.364 9.74 2.672 14.61 3.993.553.152 1.16.207 1.656.468a.885.885 0 01.18.138c.455.427.303 1.198-.304 1.377a.462.462 0 01-.234.014c-1.477-.303-2.911-.744-4.374-1.143-3.573-.964-7.16-1.955-10.761-2.933-.276-.069-.58-.082-1.035-.151zm45.211 10.891c-2.028.564-3.931 1.129-5.863 1.583-.442.11-1.297-.069-1.435-.372-.372-.798.386-1.019.994-1.184 2.055-.564 4.11-1.088 6.166-1.652 1.946-.537 2.953-1.859 2.87-3.855-3.132.853-6.236 1.707-9.34 2.56-.262.07-.538.235-.773.194a3.47 3.47 0 01-.358-.097c-.58-.179-.745-.95-.262-1.322.055-.041.11-.069.165-.096a363.129 363.129 0 0110.25-2.85c1.905-.496 2.967-1.666 3.23-3.814-.442.069-.8.11-1.16.206-4.828 1.308-9.657 2.63-14.5 3.91-.441.125-.952.11-1.407.015-.138-.028-.345-.606-.235-.785.18-.29.525-.579.856-.675C21.573 3.564 25.16 2.6 28.76 1.623c1.835-.496 3.67-1.005 5.505-1.515.938-.262 1.517-.096 1.67 1.033.261 2.024-.428 3.62-1.863 5.011-.414.4-.76 1.047-.8 1.611-.139 1.611-.842 2.85-1.987 3.938-.359.344-.704.895-.732 1.363-.096 1.707-.8 3.043-2.069 4.158-.345.303-.607.854-.635 1.308-.179 2.534-1.517 4.351-3.96 5.095-1.476.454-2.98.895-4.483 1.198-.138.027-.29 0-.456-.056-.551-.179-.69-.908-.262-1.28a.614.614 0 01.29-.165c1.435-.468 2.911-.771 4.36-1.198 1.738-.51 2.663-1.707 2.856-3.8-1.283.33-2.47.702-3.698.909a.968.968 0 01-.345-.014c-.593-.11-.814-.868-.372-1.295.096-.082.193-.151.303-.192 1.38-.482 2.829-.758 4.222-1.198 1.67-.523 2.58-1.886 2.483-3.731z"/><path d="M8.935 27.012c-6.54-.042-11.81-5.343-11.727-11.8.083-6.554 5.422-11.744 12.003-11.69 6.36.056 11.644 5.44 11.603 11.841-.055 6.486-5.353 11.69-11.879 11.649zm0-1.625c5.63.014 10.237-4.489 10.265-10.037.027-5.521-4.595-10.189-10.127-10.216-5.546-.028-10.21 4.543-10.265 10.078-.055 5.535 4.553 10.148 10.127 10.175z"/><path d="M9.652 11.701c.235.07.442.152.608.262.165.11.317.248.427.385.11.152.207.303.276.468l1.256-.468c-.207-.51-.538-.936-.98-1.308-.441-.371-1.007-.605-1.697-.702l-.041-1.363-1.325.041.042 1.322h-.014l.041 1.35c.166-.028.345-.056.552-.056.331-.013.621.014.855.07zM6.493 19.48c.552.386 1.214.62 2 .703l.042 1.363 1.324-.041-.041-1.322-.041-1.35c-.18.042-.36.056-.552.07-.69.013-1.27-.097-1.711-.345-.455-.248-.773-.537-.952-.895l-1.242.468c.235.523.635.964 1.173 1.35z"/><path d="M6.341 14.868c.29.207.621.372 1.021.523.4.138.842.276 1.339.4.427.11.786.206 1.103.302.318.097.58.207.8.33.221.125.387.262.497.414.11.151.166.344.18.564 0 .22-.042.427-.138.606-.097.18-.249.33-.428.468-.028.014-.055.042-.083.055l.042 1.487c.151-.055.29-.096.413-.165.36-.179.663-.4.911-.647a2.64 2.64 0 00.552-.867c.124-.317.18-.648.165-1.006-.013-.44-.11-.798-.303-1.1-.18-.304-.442-.552-.759-.772a5.264 5.264 0 00-1.117-.537 15.376 15.376 0 00-1.394-.4c-.773-.192-1.352-.385-1.71-.591-.36-.207-.553-.496-.566-.854 0-.165.027-.33.096-.496a1.28 1.28 0 01.331-.454c.042-.041.083-.069.138-.11l-.041-1.473c-.483.151-.87.385-1.187.702-.482.482-.73 1.088-.73 1.817 0 .427.082.785.234 1.074.124.276.345.524.634.73z"/></g><defs><clipPath id="clip0"><path fill="#fff" d="M0 0h48v27H0z"/></clipPath></defs></svg>