<svg width="52" height="53" fill="none" xmlns="http://www.w3.org/2000/svg"><g clip-path="url(#clip0)"><g clip-path="url(#clip1)" opacity=".5"><path d="M53.3 1.42a.618.618 0 00-.853-.189C50.063 2.734 37.879 12.13 37.682 12.38l-.076-.031a7.165 7.165 0 01-1.156-.932l.766-.802a.621.621 0 00.161-.312.609.609 0 00.067-.73A38.725 38.725 0 0034.03 4.75l-.027.026c-.346-.473-1.422-1.464-4.593-3.818a1.358 1.358 0 00-.909-.293 1.29 1.29 0 00-.684.276 3.151 3.151 0 01-.656-.923l3.1-2.838a.617.617 0 00-.831-.91L26.193-.756a.94.94 0 00-.3.469.92.92 0 00.053.583c.212.524.52 1.003.91 1.413l-1.1.863a.626.626 0 00-.233.417.595.595 0 00-.11.064 5.111 5.111 0 01-1.625.828 67.422 67.422 0 01-5.004 1.611l-.064.019c-.701.16-1.372.43-1.988.803a6.153 6.153 0 00-1.68 1.913l-.054-.005c-1.27-.421-2.807.03-3.909 1.149-.912.905-1.413 2.07-1.906 3.285a13.45 13.45 0 01-2.084 3.27 5.288 5.288 0 01-2.332 1.209.625.625 0 00-.23.111.603.603 0 00-.407-.082 4.644 4.644 0 00-2.192.999l-.191-.261a.602.602 0 00-.53-.222.62.62 0 00-.637-.017c-1.107.64-2.221 1.307-3.302 1.977a.614.614 0 00.268 1.136.595.595 0 00.38-.09 89.317 89.317 0 013.02-1.791A39.295 39.295 0 017.58 31.742a.907.907 0 01.042.165 1.187 1.187 0 01-.087.09c-.869.818-11.746 6.843-12.849 7.3a.62.62 0 00-.184 1.016.62.62 0 00.659.122c1.242-.514 12.247-6.623 13.224-7.546a1.282 1.282 0 00.4-1.509c-.122-.424-.26-.809-.397-1.214a.629.629 0 00.488-.17c.45-.427 1.03-.69 1.648-.747a.546.546 0 00.126-.026 2.415 2.415 0 002.047.707 1.947 1.947 0 001.077-.576 3.576 3.576 0 003.008.662 2.58 2.58 0 00.81-.34 2.702 2.702 0 001.926 1.126 2.71 2.71 0 002.246-.907 2.474 2.474 0 002.204.44 2.892 2.892 0 001.936-2.303 4.355 4.355 0 003.072-1.097c.433-.377.724-.89.826-1.454a.612.612 0 00.407-.463l.003-.033c.374-.22.687-.527.912-.896a2.65 2.65 0 00.353-1.576.597.597 0 00.12-.261l.003-.041a3.538 3.538 0 001.305-1.167 2.265 2.265 0 00.214-1.96 2.67 2.67 0 001.193-1.726 2.655 2.655 0 00-.429-2.051 8.228 8.228 0 01.959-2.17l.104-.139a.598.598 0 00.256-.311c.116-.13.235-.255.355-.381.442.432.934.81 1.465 1.129.175.094.366.153.564.175.127.012.255.003.38-.027a1.24 1.24 0 00.673-.43c.065-.082 12.118-9.402 14.47-10.878a.622.622 0 00.191-.855zm-24.815.578l.125-.096.075.048c3.534 2.635 4.364 3.558 4.398 3.594a37.012 37.012 0 013.121 4.362l-1.37 1.388-.106.106a25.308 25.308 0 00-3.199-4.514 25.865 25.865 0 00-4.348-3.866l1.304-1.022zM17.42 7.348a5.674 5.674 0 011.634-.654l.068-.018a75.526 75.526 0 005.09-1.65 6.065 6.065 0 002.02-1.055c.027-.027.047-.062.07-.089a24.462 24.462 0 014.32 3.806 24.143 24.143 0 013.261 4.693l-.042.05a7.988 7.988 0 00-.94 1.98 8.545 8.545 0 00-1.279-.603c-2.573-1.023-5.353-1.958-8.192-1.94-.257.002-.514.012-.772.022-.93.03-1.812.062-2.57-.259a.616.616 0 00-.769.257 4.595 4.595 0 00-1.862 1.636 4.185 4.185 0 00-.415 2.07c-.013.14.003.281.003.413a5.07 5.07 0 01-.277 2.186 1.58 1.58 0 01-.903.81.773.773 0 01-.63-.032c-.395-.218-.572-.812-.704-1.353a88.685 88.685 0 01-.63-2.69 4.99 4.99 0 01-.163-1.862 5.267 5.267 0 01.852-1.819l1.395-2.179a5.55 5.55 0 011.435-1.72zM8.012 29.12a40.474 40.474 0 00-5.327-9.989 3.337 3.337 0 011.308-.707A30.056 30.056 0 018.8 28.53a3.97 3.97 0 00-.788.59zm1.95-1.021c.005-.053-.027-.11-.043-.165.016.055.036.106.056.162l-.013.003zm2.521.642a1.206 1.206 0 01-1.009-.422c-.438-.453-.687-1.753-.33-2.658.26-.654.72-.7.85-.712a.628.628 0 01.463.182c.27.253.436.599.461.968a.53.53 0 00.091.269 4.383 4.383 0 00.016 1.708.881.881 0 00-.01.102.617.617 0 01-.53.547l-.002.016zm4.022.089c-.816.186-1.861-.07-2.242-.795a.81.81 0 00.01-.098 3.125 3.125 0 01-.007-1.451.603.603 0 00-.06-.419 4.75 4.75 0 01.776-1.636 1.417 1.417 0 011.375-.54 1.495 1.495 0 01.85 1.168.6.6 0 00.106.233 20.032 20.032 0 00-.127 3.026.652.652 0 00-.035.12c-.03.105-.276.29-.644.376l-.002.016zm3.13.772a1.48 1.48 0 01-1.234-1.067.441.441 0 00.012-.127 19.823 19.823 0 01.156-3.39.483.483 0 00.016-.172 1.98 1.98 0 011.599-.81 1.473 1.473 0 011.357 1.177.098.098 0 00-.003.033 26.326 26.326 0 00-.292 3.164.618.618 0 00-.11.196 1.468 1.468 0 01-1.499.98l-.001.016zm3.98-.431a1.241 1.241 0 01-1.184-.319 24.5 24.5 0 01.289-3.345l.003-.033c.042-.15.326-.26.55-.215.355.117.658.354.857.67.421.539.618 1.22.55 1.9a1.646 1.646 0 01-1.063 1.325l-.002.017zm8.241-8.755a3.259 3.259 0 01-1.396 1.026l-.028-.003a67.324 67.324 0 01-4.99-1.04.628.628 0 00-.76.456.623.623 0 00.457.756c1.684.418 3.4.772 5.108 1.063.023.283-.042.566-.187.81a1.445 1.445 0 01-1.07.642l-.061-.005a74.77 74.77 0 01-3.273-.711.627.627 0 00-.753.462.622.622 0 00.462.751c1.058.25 2.135.475 3.208.705a1.33 1.33 0 01-.429.692 3.082 3.082 0 01-2.271.777 4.198 4.198 0 00-.728-1.624 2.73 2.73 0 00-1.598-1.128 1.87 1.87 0 00-1.11.118 2.756 2.756 0 00-2.216-1.338 3.144 3.144 0 00-2.255.87 2.314 2.314 0 00-1.246-.994 2.638 2.638 0 00-2.694.92 4.112 4.112 0 00-.527.808 1.567 1.567 0 00-.22-.219 1.852 1.852 0 00-1.367-.483 2.183 2.183 0 00-1.914 1.478 4.438 4.438 0 00-.105 2.607 31.413 31.413 0 00-4.555-9.555 6.704 6.704 0 002.424-1.263c.067-.03.13-.068.189-.111.15-.1.259-.252.304-.427a14.739 14.739 0 002.08-3.364c.457-1.136.898-2.134 1.638-2.88a2.847 2.847 0 012.378-.9l-.8 1.254a6.27 6.27 0 00-1.041 2.302c-.089.78-.03 1.57.174 2.33.198.906.41 1.826.638 2.727.142.57.412 1.637 1.303 2.13.23.132.487.212.752.235a2.18 2.18 0 00.863-.104 2.845 2.845 0 001.648-1.466A6.162 6.162 0 0018.28 16c.013-.135-.003-.273-.003-.414a3.093 3.093 0 01.261-1.476c.269-.488.8-.82 1.47-1.205.877.22 1.785.29 2.686.21.245-.01.494-.016.739-.019 2.648-.015 5.302.896 7.75 1.841.703.28 1.364.566 1.71 1.069a1.467 1.467 0 01.168 1.321 1.46 1.46 0 01-.431.593.594.594 0 00-.186-.05 61.712 61.712 0 01-6.406-.925.629.629 0 00-.728.483.61.61 0 00.484.726c1.924.381 3.885.671 5.838.874a.64.64 0 00.198.278.882.882 0 01.028 1.093l-.002.017z" fill="#30C4AE"/></g></g><defs><clipPath id="clip0"><path fill="#fff" d="M0 0h52v53H0z"/></clipPath><clipPath id="clip1"><path fill="#fff" transform="translate(-13 -11)" d="M0 0h61v59H0z"/></clipPath></defs></svg>