<svg width="44" height="36" fill="none" xmlns="http://www.w3.org/2000/svg"><g opacity=".5" clip-path="url(#clip0)" fill="#067362"><path d="M23.667 13.654v-.076a.485.485 0 10-.968 0v.054c-.732.043-1.474.196-1.85.555a.798.798 0 00-.248.566c0 .729.732.935 1.43 1.142.162.043.388.098.646.163.495.12 1.539.381 2.001.599-.172.065-.538.152-1.312.152-1.259.022-1.937-.261-2.012-.38a.494.494 0 00-.484-.501c-.248-.011-.484.206-.495.478 0 .262.097.5.29.708.442.446 1.313.609 2.034.652v.077a.485.485 0 10.968 0v-.055c.775-.022 2.098-.163 2.098-1.207 0-.697-.915-1.002-2.873-1.48-.247-.066-.451-.109-.613-.163a9.827 9.827 0 01-.538-.164c.302-.098.85-.206 1.582-.174 1.15.044 1.441.283 1.463.24v.26a.485.485 0 10.968 0v-.271c.01-.675-.7-1.067-2.087-1.175zm-10.543 4.33c-4.292 0-7.649 1.708-7.649 3.895v8.683c0 2.176 3.357 3.895 7.65 3.895 4.292 0 7.648-1.708 7.648-3.895v-8.683c0-2.187-3.367-3.895-7.649-3.895zm6.67 12.578c0 1.37-2.743 2.905-6.67 2.905s-6.68-1.534-6.68-2.905v-.98c1.301 1.187 3.775 1.97 6.68 1.97s5.38-.783 6.67-1.97v.98zm0-2.894c0 1.37-2.743 2.905-6.67 2.905s-6.68-1.534-6.68-2.905v-.98c1.301 1.186 3.775 1.97 6.68 1.97s5.38-.784 6.67-1.97v.98zm0-2.905c0 1.37-2.743 2.905-6.67 2.905s-6.68-1.534-6.68-2.905v-.969c1.301 1.186 3.775 1.97 6.68 1.97s5.38-.784 6.67-1.97v.969zm-6.67.021c-3.937 0-6.68-1.534-6.68-2.905 0-1.37 2.743-2.905 6.68-2.905 3.938 0 6.67 1.534 6.67 2.905 0 1.371-2.743 2.905-6.67 2.905z"/><path d="M23.334 11.782c-4.293 0-7.65 1.708-7.65 3.895v1.535c2.055.337 3.744 1.088 4.81 2.089.87.174 1.828.272 2.84.272 2.904 0 5.379-.784 6.67-1.97v.969c0 1.37-2.744 2.905-6.67 2.905-.57 0-1.12-.033-1.636-.098.022.163.043.337.043.5v.49a15.12 15.12 0 001.593.087c2.904 0 5.379-.784 6.67-1.97v.969c0 1.37-2.744 2.905-6.67 2.905-.56 0-1.087-.033-1.593-.087v.99a15.12 15.12 0 001.593.087c2.904 0 5.379-.783 6.67-1.97v.969c0 1.371-2.744 2.905-6.67 2.905-.56 0-1.087-.033-1.593-.087v.98a15.12 15.12 0 001.593.086c2.904 0 5.379-.783 6.67-1.969v.968c0 1.371-2.744 2.905-6.67 2.905-.56 0-1.087-.032-1.593-.087v.49c0 .163-.01.337-.043.5a15.79 15.79 0 001.636.088c4.292 0 7.649-1.709 7.649-3.896V15.656c0-2.166-3.357-3.874-7.65-3.874zm0 6.8c-3.938 0-6.681-1.534-6.681-2.905 0-1.37 2.743-2.905 6.68-2.905 3.938 0 6.67 1.534 6.67 2.905 0 1.371-2.732 2.905-6.67 2.905zm-9.887 1.273v-.065a.485.485 0 10-.968 0v.055c-.731.043-1.485.195-1.85.554a.781.781 0 00-.248.566c0 .73.732.936 1.431 1.143.161.043.387.098.646.163.494.12 1.538.38 2 .598-.172.066-.537.163-1.312.163h-.01c-1.324 0-1.926-.282-2.002-.38 0-.272-.215-.5-.484-.5-.301 0-.484.217-.495.489 0 .26.097.5.29.707.442.446 1.303.61 2.034.664v.076a.485.485 0 10.968 0v-.055c.775-.021 2.098-.163 2.098-1.207 0-.697-.914-1.001-2.872-1.49-.237-.066-.452-.11-.603-.153a9.934 9.934 0 01-.538-.163c.302-.098.85-.196 1.582-.174 1.15.043 1.43.272 1.463.239v.261a.485.485 0 10.968 0v-.272c0-.707-.71-1.11-2.098-1.219zm-7.573-9.052c.193 0 .462 0 .764-.01.731-.012 2.356-.034 2.936.119-.16.065-.42.141-.828.228-1.614.327-2.894.24-3.163-.021a.438.438 0 00-.624 0 .45.45 0 000 .63c.377.381 1.108.49 1.84.49.635 0 1.27-.087 1.721-.152l.42.316a.46.46 0 00.258.086.44.44 0 00.387-.642c.678-.206.99-.445 1.054-.794.044-.206 0-.522-.43-.805-.452-.315-1.57-.359-3.604-.326-.29 0-.548.01-.742 0-.248 0-.646-.011-.915-.044a5 5 0 011.087-.337c1.291-.261 1.732 0 1.84.076l.129.098a.429.429 0 00.613-.087.44.44 0 00-.086-.62l-.118-.087c-.485-.392-1.334-.479-2.464-.272l-.226-.24a.448.448 0 00-.624-.021.436.436 0 00-.097.5c-.495.174-1 .435-1.15.827a.62.62 0 00.118.631c.387.424.968.446 1.904.457z"/><path d="M-1.215 21.51c.193.195.484.271.764.271.183 0 .365-.032.516-.087l5.132-1.806c.817-1.175 2.27-1.839 2.27-1.839l-7.725 2.71c-.14.043-.28.032-.28.043l-5.217-5.103.774-.207 3.766 3.678c.193.196.484.272.764.272.183 0 .365-.033.516-.087l15.115-5.31c.355-.598.904-1.142 1.614-1.61L-.258 18.419c-.14.044-.28.033-.28.044l-5.217-5.103.774-.207 3.766 3.678c.183.174.452.272.764.272.172 0 .355-.033.516-.087L10.06 13.5l8.392-2.948.85.772c.365-.109.753-.196 1.162-.272l-.958-.87.549-.196c.376-.13.613-.36.667-.631a.615.615 0 00-.194-.577L15.924 4.6c-.205-.185-.495-.217-.71-.217-.173 0-.345.021-.506.065l-20.99 5.701c-.365.109-.612.326-.688.599a.683.683 0 00.183.641l.99.969-.495.13c-.366.098-.613.316-.689.599a.656.656 0 00.183.63l.99.97-.473.14c-.366.099-.613.316-.689.6a.658.658 0 00.183.641l.99.968-.495.131c-.366.098-.613.316-.689.598a.656.656 0 00.183.632l1 .979-.483.13c-.366.098-.613.316-.689.599a.658.658 0 00.183.642l5.573 5.45c.193.197.484.273.764.273.183 0 .365-.033.516-.087l4.432-1.556v-1.045l-4.755 1.665c-.14.054-.28.033-.28.043l-5.217-5.113.774-.207 3.755 3.678c.194.195.484.271.764.271.183 0 .366-.032.516-.087l4.433-1.555v-.599c0-.152.021-.315.043-.468l-4.788 1.687c-.14.043-.28.032-.28.043l-5.217-5.103.774-.206 3.766 3.677zm.957-5.42a.602.602 0 01-.193.034c-.065 0-.108-.011-.097 0l-.409-.392.097-.033c.613-.207 1.355-.185 1.753-.01l-1.15.402zm19.57-7.082l.171.152-1.441.511a.387.387 0 00-.118-.032c-.011 0-.011 0-.022.01.022-.086.269-.315.818-.5.193-.065.387-.109.591-.141zm-4.358-3.602a.967.967 0 01.248-.032c.054 0 .086 0 .086-.011l.15.13c-.01 0-.021.011-.043.011a4.44 4.44 0 01-1.334.142l.893-.24zm-2.237.599c.032.032.053.076.086.109.408.37 1.118.424 1.517.424.44 0 .893-.065 1.312-.185.194-.055.366-.12.538-.196l2.345 2.133c-.021.01-.053.01-.075.01-.785.262-1.302.686-1.399 1.165a.734.734 0 00.076.522l-3.314 1.164c.301-.38.506-.772.592-1.164.14-.696-.097-1.371-.656-1.893-.764-.707-2.13-1.164-3.863-1.317l2.84-.772zM.71 10.759c.247-.968 1.72-1.958 3.754-2.513a16.022 16.022 0 014.131-.555c2.055 0 3.733.414 4.486 1.12.323.295.441.61.366.97-.15.74-1.216 1.914-3.711 2.795a12.704 12.704 0 01-4.153.697c-1.947 0-3.604-.479-4.432-1.273-.398-.392-.549-.805-.441-1.24zm-3.949-.413l3.67-1.001c-.334.37-.57.762-.667 1.175-.194.784.064 1.556.72 2.198.926.892 2.55 1.425 4.508 1.523L1.883 15.33c-.032-.054-.054-.109-.107-.152-.55-.533-1.862-.675-2.916-.326-.183.065-.344.13-.495.217l-2.958-2.905c.021-.01.054-.01.075-.022.764-.217 1.27-.62 1.388-1.11a.867.867 0 00-.108-.685zm-1.022.272c.13.065.215.12.28.196 0 .065-.204.315-.775.479a2.88 2.88 0 01-.624.098l-.365-.36 1.484-.413z"/></g><defs><clipPath id="clip0"><path fill="#fff" transform="translate(.12 .722)" d="M0 0h43.863v34.722H0z"/></clipPath></defs></svg>