<svg width="40" height="40" fill="none" xmlns="http://www.w3.org/2000/svg"><g opacity=".5" clip-path="url(#clip0)" fill="#30C4AE"><path d="M31.942 5.363h-2.447V3.771a.798.798 0 00-.796-.796.798.798 0 00-.796.796v1.592h-3.98V3.771a.798.798 0 00-.797-.796.798.798 0 00-.796.796v1.592h-3.98V3.771a.798.798 0 00-.796-.796.798.798 0 00-.796.796v1.592h-3.98V3.771a.798.798 0 00-.796-.796.798.798 0 00-.796.796v1.592h-3.98V3.771a.798.798 0 00-.796-.796.798.798 0 00-.796.796v1.592H3.146c-2.15 0-3.9 1.751-3.9 3.9v21.553c0 2.15 1.75 3.9 3.9 3.9h28.796c2.15 0 3.901-1.75 3.901-3.9V9.264c0-2.15-1.731-3.9-3.9-3.9zM28.7 8.547c.437 0 .796.358.796.796a.798.798 0 01-.796.796.798.798 0 01-.796-.796c0-.438.358-.796.796-.796zm-5.573 0c.438 0 .796.358.796.796a.798.798 0 01-.796.796.798.798 0 01-.796-.796c0-.438.359-.796.796-.796zm-5.572 0c.438 0 .796.358.796.796a.798.798 0 01-.796.796.798.798 0 01-.796-.796c0-.438.358-.796.796-.796zm-5.572 0c.438 0 .796.358.796.796a.798.798 0 01-.796.796.798.798 0 01-.796-.796c0-.438.358-.796.796-.796zm-5.572 0c.437 0 .796.358.796.796a.798.798 0 01-.796.796.798.798 0 01-.796-.796c0-.438.358-.796.796-.796zM3.146 6.955h2.468v.14a2.39 2.39 0 00-1.592 2.248 2.395 2.395 0 002.388 2.388 2.395 2.395 0 002.388-2.388 2.37 2.37 0 00-1.592-2.249v-.139h3.98v.14a2.389 2.389 0 00-1.592 2.248 2.395 2.395 0 002.388 2.388 2.395 2.395 0 002.388-2.388 2.37 2.37 0 00-1.592-2.249v-.139h3.98v.14a2.39 2.39 0 00-1.592 2.248 2.395 2.395 0 002.388 2.388 2.395 2.395 0 002.388-2.388 2.37 2.37 0 00-1.592-2.249v-.139h3.98v.14a2.39 2.39 0 00-1.592 2.248 2.395 2.395 0 002.388 2.388 2.395 2.395 0 002.389-2.388 2.37 2.37 0 00-1.593-2.249v-.139h3.98v.14a2.389 2.389 0 00-1.591 2.248 2.395 2.395 0 002.388 2.388 2.395 2.395 0 002.388-2.388 2.37 2.37 0 00-1.592-2.249v-.139h2.467a2.31 2.31 0 012.309 2.309v3.263H.837V9.264a2.31 2.31 0 012.309-2.309zm28.796 26.17H3.146a2.31 2.31 0 01-2.309-2.309V14.12h33.414v15.9H23.903a.798.798 0 00-.796.796c0 .438.358.796.796.796h10.209a2.288 2.288 0 01-2.17 1.513z"/><path d="M6.41 15.712H3.224a.798.798 0 00-.796.796v3.184c0 .438.358.796.796.796h3.184a.798.798 0 00.796-.796v-3.184a.798.798 0 00-.796-.796zm-.797 3.184H4.021v-1.592h1.592v1.592zm7.164-3.184H9.593a.798.798 0 00-.796.796v3.184c0 .438.359.796.796.796h3.184a.798.798 0 00.797-.796v-3.184a.798.798 0 00-.796-.796zm-.795 3.184h-1.593v-1.592h1.593v1.592zm7.164-3.184h-3.184a.798.798 0 00-.796.796v3.184c0 .438.358.796.796.796h3.184a.798.798 0 00.796-.796v-3.184a.798.798 0 00-.796-.796zm-.796 3.184h-1.592v-1.592h1.592v1.592zm3.98 1.592h3.184a.798.798 0 00.796-.796v-3.184a.798.798 0 00-.796-.796H22.33a.798.798 0 00-.796.796v3.184c0 .438.358.796.796.796zm.796-3.184h1.592v1.592h-1.592v-1.592zm5.573 3.184h3.184a.798.798 0 00.796-.796v-3.184a.798.798 0 00-.796-.796h-3.184a.798.798 0 00-.796.796v3.184c0 .438.358.796.796.796zm.796-3.184h1.592v1.592h-1.592v-1.592zM6.41 21.284H3.224a.798.798 0 00-.796.796v3.184c0 .438.358.796.796.796h3.184a.798.798 0 00.796-.796V22.08a.798.798 0 00-.796-.796zm-.797 3.184H4.021v-1.592h1.592v1.592zm7.164-3.184H9.593a.798.798 0 00-.796.796v3.184c0 .438.359.796.796.796h3.184a.798.798 0 00.797-.796V22.08a.798.798 0 00-.796-.796zm-.795 3.184h-1.593v-1.592h1.593v1.592zm7.164-3.184h-3.184a.798.798 0 00-.796.796v3.184c0 .438.358.796.796.796h3.184a.798.798 0 00.796-.796V22.08a.798.798 0 00-.796-.796zm-.796 3.184h-1.592v-1.592h1.592v1.592zm7.96.796V22.08a.798.798 0 00-.796-.796H22.33a.798.798 0 00-.796.796v3.184c0 .438.358.796.796.796h3.184a.798.798 0 00.796-.796zm-1.592-.796h-1.592v-1.592h1.592v1.592zm3.981 1.592h3.184a.798.798 0 00.796-.796V22.08a.798.798 0 00-.796-.796h-3.184a.798.798 0 00-.796.796v3.184c0 .438.358.796.796.796zm.796-3.184h1.592v1.592h-1.592v-1.592zM6.41 26.856H3.224a.798.798 0 00-.796.796v3.184c0 .438.358.796.796.796h3.184a.798.798 0 00.796-.796v-3.184a.798.798 0 00-.796-.796zm-.797 3.184H4.021v-1.592h1.592v1.592zm7.164-3.184H9.593a.798.798 0 00-.796.796v3.184c0 .438.359.796.796.796h3.184a.798.798 0 00.797-.796v-3.184a.798.798 0 00-.796-.796zm-.795 3.184h-1.593v-1.592h1.593v1.592zm7.164-3.184h-3.184a.798.798 0 00-.796.796v3.184c0 .438.358.796.796.796h3.184a.798.798 0 00.796-.796v-3.184a.798.798 0 00-.796-.796zm-.796 3.184h-1.592v-1.592h1.592v1.592zM2.43 3.771a2.395 2.395 0 002.388-2.388A2.395 2.395 0 002.43-1.005 2.395 2.395 0 00.042 1.383 2.395 2.395 0 002.43 3.77zm0-3.164c.438 0 .796.358.796.796a.798.798 0 01-.796.796.798.798 0 01-.796-.796c0-.458.358-.796.796-.796zM26.709 2.18a2.794 2.794 0 002.786-2.787 2.794 2.794 0 00-2.787-2.786 2.794 2.794 0 00-2.786 2.786A2.794 2.794 0 0026.71 2.18zm0-3.961c.656 0 1.194.537 1.194 1.194 0 .657-.538 1.194-1.194 1.194a1.198 1.198 0 01-1.195-1.194c0-.677.538-1.194 1.195-1.194zM16.758.607a.796.796 0 100-1.592.796.796 0 000 1.592zm15.9 2.368a.796.796 0 100-1.592.796.796 0 000 1.592z"/></g><defs><clipPath id="clip0"><path fill="#fff" d="M0 0h39.245v40H0z"/></clipPath></defs></svg>