<svg width="40" height="40" fill="none" xmlns="http://www.w3.org/2000/svg"><g opacity=".5" clip-path="url(#clip0)" fill="#30C4AE"><path d="M31.504 13.673h-1.365c-1.38-6.168-5.189-9.958-11.33-11.29v-.555c0-.777-.016-1.586.016-2.363.016-.65-.016-1.443-.555-1.967-.54-.523-1.365-.539-2.016-.507-1.11.063-1.809.793-1.84 1.871v3.521C8.257 3.746 4.448 7.536 3.115 13.658l-3.475.015c-1.158 0-1.888.73-1.92 1.903v.635c.016 1.094.746 1.823 1.84 1.84.509.015 1.016.015 1.54 0h2.031c.508 2.933 1.793 5.439 3.84 7.484 2.047 2.046 4.555 3.33 7.443 3.822v3.488c0 1.127.714 1.84 1.84 1.872h.382c1.523 0 2.157-.65 2.173-2.14v-3.22c5.824-.951 10.33-5.44 11.314-11.307 1.159.016 2.317.016 3.491 0 1.143-.016 1.873-.73 1.889-1.887v-.634c-.016-1.142-.746-1.871-1.905-1.871-.698.015-1.396.015-2.094.015zm-5.602 2.38c-.032 5.042-4.205 9.117-9.283 9.117-2.507-.015-4.84-.983-6.585-2.743-1.746-1.76-2.698-4.123-2.682-6.644.016-5.06 4.205-9.15 9.315-9.15h.032a9.167 9.167 0 016.521 2.759c1.746 1.776 2.698 4.139 2.682 6.66z"/><path d="M16.683 12.69c-.873 0-1.714.318-2.317.92a3.19 3.19 0 00-.936 2.268c0 .856.317 1.68.92 2.284a3.194 3.194 0 002.27.935h.015a3.206 3.206 0 003.205-3.203c0-1.745-1.412-3.188-3.157-3.203z"/></g><defs><clipPath id="clip0"><path fill="#fff" d="M0 0h39.245v40H0z"/></clipPath></defs></svg>