<svg width="28" height="24" fill="none" xmlns="http://www.w3.org/2000/svg"><path d="M25.602 6.962L16.353 10h-.552L6.414 6.962c-.552-.132-.552-.66 0-.924L15.663 3h.552l9.249 3.038c.69.264.69.792.138.924zm-9.741 5.065L9.89 10h-.556l-2.916.946c-.556.135-.556.81 0 .946L15.722 15h.556l9.305-3.108c.556-.135.556-.81 0-.946L22.944 10h-.555l-5.972 2.027h-.556zm0 5.405L9.89 15h-.556l-2.916 1.135c-.556.162-.556.973 0 1.135L15.722 21h.556l9.305-3.73c.556-.162.556-.973 0-1.135L22.944 15h-.555l-5.972 2.432h-.556z" fill="#495352"/></svg>