<svg width="52" height="53" fill="none" xmlns="http://www.w3.org/2000/svg"><g opacity=".5" clip-path="url(#clip0)" fill="#30C4AE"><path d="M26.767 33.068a.572.572 0 00.574-.57.572.572 0 00-.574-.57.572.572 0 00-.573.57c0 .315.257.57.573.57zm0-2.278a.572.572 0 00.574-.57.572.572 0 00-.574-.57.572.572 0 00-.573.57c0 .314.257.57.573.57z"/><path d="M33.697 19.88a5.086 5.086 0 00-2.28-2.264l-.633-.321v-2.147l1.221-.614a3.976 3.976 0 002.222-3.578V7.933c0-2.118-1.677-3.856-3.781-3.987l-1.369-1.358a5.184 5.184 0 00-3.663-1.505h-2.648c-2.251 0-4.076 1.811-4.076 4.046 0 1.227.56 2.38 1.53 3.155l.971.774c-.206 1.665-.206 2.804-.206 2.877v.57h1.148v.394c0 1.007.515 1.957 1.354 2.512a3.03 3.03 0 001.692.51h.161c.089 0 .162-.014.25-.028v2.073l-1.074.22c-.25.043-.485.19-.647.38l-.692.803a11.17 11.17 0 00-1.736 2.73l-3.31 3.316v-2.147c0-2.278-.986-4.44-2.707-5.93a7.992 7.992 0 00-5.238-1.957h-.103v-.584a3.497 3.497 0 003.002-2.176 6.354 6.354 0 00.456-2.337V7.962a2.92 2.92 0 00-.236-1.139 4.368 4.368 0 001.383-3.198c0-.672-.265-1.3-.75-1.782a2.525 2.525 0 00-1.795-.745H7.508c-1.47 0-2.84.57-3.928 1.636-.971.964-1.56 2.497-1.56 4.074 0 2.045 1.207 3.272 1.737 3.71.073.774.397 1.504.97 2.06l.162.16v2.629a6.412 6.412 0 00-3.604 1.197 6.443 6.443 0 00-2.722 5.244v4.965a6.26 6.26 0 002.295 4.834v4.864h1.148v-4.119a6.342 6.342 0 002.869.687h8.621v3.417h1.148V33.04h1.545a5.21 5.21 0 003.663-1.505l.545-.54v5.477h1.147v-9.683c0-1.169.206-2.308.589-3.389l2.163 3.87c-.074.074-.147.132-.236.205l-.22.175v8.836h1.147v-8.28a11.986 11.986 0 003.87-5.915l1.162-4.017.074-.014.78.38c.764.38 1.382.992 1.765 1.752.28.54.412 1.14.412 1.753v12.472h1.147V22.143c.045-.788-.147-1.562-.5-2.263zm-23.26-3.345c.352.015.69.044 1.044.117l-1.59 3.812-.352-2.132.897-1.797zm1.956-6.25c0 .657-.118 1.3-.368 1.913a2.35 2.35 0 01-2.192 1.475 2.3 2.3 0 01-1.31-.395l-.985-.657-.633.95.986.657c.324.219.691.365 1.06.467v.687H6.066v-3.097l-.5-.496a2.18 2.18 0 01-.648-1.548c0-.322.265-.57.574-.57h.574V7.962c0-.95.78-1.709 1.72-1.709h2.87c.956 0 1.721.775 1.721 1.71v2.321h.015zm-3.81 7.375H7.566l-.574-1.14h2.163l-.574 1.14zm.485 4.805l-.736 1.782L7.2 21.85l.515-3.037h.75l.604 3.65zM4.095 9.233a3.676 3.676 0 01-.897-2.425c0-1.285.456-2.497 1.265-3.3a4.335 4.335 0 013.075-1.27h4.634c.368 0 .721.145.986.408s.412.613.412.979c0 .847-.338 1.65-.912 2.249A2.833 2.833 0 0010.7 5.1H7.832a2.862 2.862 0 00-2.869 2.848v.671a1.657 1.657 0 00-.868.614zm.986 7.288h.618l.912 1.796-.28 1.694-1.647-3.476c.132 0 .264-.014.397-.014zm5.002 15.408H4.904c-2.854 0-5.179-2.308-5.179-5.141v-4.966c0-1.709.839-3.33 2.237-4.323.47-.336.985-.584 1.53-.745l4.281 9.026v1.577H4.33V23.94H3.183v3.417c0 .628.515 1.14 1.147 1.14h5.753v3.432zm4.12-.482c-.31.306-.721.482-1.163.482h-1.795v-3.432h1.722c.941 0 1.721.774 1.721 1.767 0 .453-.176.861-.485 1.183zm-.662-7.507v3.417H8.936v-1.606l3.648-8.807c.75.278 1.457.701 2.075 1.227a6.733 6.733 0 012.324 5.068v3.3l-.309.307a1.732 1.732 0 01-1.22.497h-.766v-3.418h-1.147v.015zm6.9 2.862v2.6l-1.354 1.344a3.987 3.987 0 01-2.84 1.168h-.956a2.833 2.833 0 00.56-1.709c0-.642-.221-1.241-.589-1.723h.22c.751 0 1.501-.307 2.031-.832l3.193-3.17a10.41 10.41 0 00-.265 2.322zm3.443-6.323l-.368 3.008-.78-1.387c.324-.614.692-1.198 1.133-1.738v.117h.015zm1.147-1.213l1.266-.248-.471.92h-.795v-.672zm.177 7.215l-.721-1.285.486-4.104h.75l.824 3.666a10.85 10.85 0 01-1.34 1.723zm2.59-4.498a10.3 10.3 0 01-.427 1.183l-.574-2.585.927-1.855 1.06-.204-.987 3.46zm.853-8.792c.162.672.5 1.3.986 1.84v2.161l-2.87.57v-2.03l1.84-.365-.221-1.125-2.634.526c-.117.03-.25.03-.367.03h-.162a1.96 1.96 0 01-1.06-.322 1.865 1.865 0 01-.838-1.563V11.38h-1.133c.03-.804.147-2.352.485-4.163.368-.146 1.089-.394 1.795-.394a3.76 3.76 0 012.487.935c.265.233.397.482.397.774v.57h1.148c.632 0 1.147.51 1.147 1.139 0 .759-.824 1.197-.838 1.197l-.324.16v.351c0 .395.059.818.162 1.242zm1.118-.263c-.059-.234-.088-.453-.118-.672.427-.307 1.133-.979 1.133-2.015a2.29 2.29 0 00-2.295-2.279h-.074c-.117-.394-.353-.745-.706-1.066a4.874 4.874 0 00-3.237-1.227c-1.265 0-2.5.6-2.56.628l-.25.132-.059.277c-.073.365-.132.716-.191 1.066l-.441-.35a2.88 2.88 0 01-1.09-2.264c0-1.592 1.31-2.892 2.914-2.892h2.648c1.074 0 2.09.41 2.84 1.169l1.692 1.68h.235c1.59 0 2.87 1.285 2.87 2.847v3.009a2.85 2.85 0 01-1.59 2.556l-1.147.57a3.216 3.216 0 01-.574-1.17z"/><path d="M29.636 26.218H28.49v9.143h-.015V36.5h1.177v-1.14h-.015v-9.142z"/></g><defs><clipPath id="clip0"><path fill="#fff" d="M0 0h52v53H0z"/></clipPath></defs></svg>