<svg width="41" height="42" fill="none" xmlns="http://www.w3.org/2000/svg"><g opacity=".5" clip-path="url(#clip0)" fill="#30C4AE"><path d="M36.393 17.65a1.64 1.64 0 00-.16-.984c.181-.096.334-.236.465-.4.54-.652.53-1.586.04-2.223.213-.176.38-.388.501-.636.2-.435.23-.911.063-1.361a1.747 1.747 0 00-.544-.77c.144-.159.268-.342.34-.548.316-.858-.098-1.825-.944-2.14L24.246 3.429c-.066-.028-.156-.035-.218.001-.018.008-.037.016-.043.029l-.188.077c-.22.08-.351.133-.372.33.004.174.36.58.44.614l11.881 5.147a.552.552 0 01.302.682.545.545 0 01-.692.35c-.013-.006-.026-.012-.045-.004l-.407-.065a.54.54 0 00-.643.308.563.563 0 00.306.747l1.331.413a.667.667 0 01.4.819.714.714 0 01-.342.405.604.604 0 01-.519.014l-.026-.011-1.587-.508a.545.545 0 00-.7.33.582.582 0 00.006.429.515.515 0 00.312.291l2.124.707a.64.64 0 01.355.815.635.635 0 01-.823.404l-2.406-.812a.532.532 0 00-.694.317.554.554 0 00.317.72l2.577.885a.613.613 0 01-.395 1.155l-.013-.005-5.632-1.266-2.128-.772c-.092-.04-.2-.006-.272.057-.074.063-.119.17-.095.26.045.223.077.442.09.669.013.116.09.228.207.246l.715.181-.206.416-.934.262-.44-.284-.47-.359a1.917 1.917 0 01-.326-.33c-.09-.117-.274-.527-.428-.861-.323-.707-.433-.96-.608-.987a6.067 6.067 0 01-.355-.483 5.97 5.97 0 01-.71-1.552l-.023-.057c-.561-1.06-2.341-3.134-2.416-3.213a.267.267 0 00-.094-.072L17.083 8.32l.134-.574L18.55 2.83l.15-.393a.29.29 0 000-.22l.012-.248a.321.321 0 00-.01-.084l-.143-.582-.023-.057c-.05-.1-.107-.188-.163-.275a1.671 1.671 0 00-1.11-.681 1.74 1.74 0 00-.973.134 1.53 1.53 0 00-.387-.481 1.7 1.7 0 00-1.262-.432c-.338.028-.665.14-.929.359a1.789 1.789 0 00-.62-.519 1.668 1.668 0 00-1.331-.082c-.308.104-.573.29-.79.544a1.87 1.87 0 00-.533-.355 1.653 1.653 0 00-2.14.91l-5.422 11.98a.29.29 0 000 .22l.022.057c.015.038.052.133.062.185.077.222.124.368.304.383.218-.002.594-.377.622-.443L9.296.798A.535.535 0 019.98.507a.484.484 0 01.299.286.564.564 0 01.024.42l-.397 1.123c-.1.273.025.563.283.69.131.056.28.072.424.024a.496.496 0 00.31-.293l.012-.026.755-2.042a.66.66 0 01.817-.39c.177.06.312.18.38.351a.69.69 0 01-.003.52l-.017.04-.608 2.247c-.1.272.028.595.31.7a.556.556 0 00.72-.306l.01-.026.827-2.8A.653.653 0 0114.94.68a.65.65 0 01.375.84l-.011.026-.725 2.56c-.1.272.033.582.296.695a.547.547 0 00.72-.307l.011-.026.799-2.733a.603.603 0 01.73-.333.59.59 0 01.41.538.16.16 0 00-.045.107l-1.8 6.609-.415 1.384a.28.28 0 00.06.262c.062.074.16.1.256.094.221-.047.445-.061.655-.081a.282.282 0 00.258-.205l.196-.72.402.188.228.965-.295.441-.37.472a1.46 1.46 0 01-.34.327c-.117.092-.53.262-.861.42-.707.312-.957.425-.998.597-.16.12-.32.24-.493.356a5.913 5.913 0 01-1.55.69l-.057.024c-1.058.555-3.155 2.32-3.248 2.391a.274.274 0 00-.071.096l-1.631 3.306-5.38-1.237-.56-.145-.013-.006c-.013-.005-.045-.003-.374-.034l-.096.006-.575.148-.056.023a1.724 1.724 0 00-.951 1.295 1.8 1.8 0 00.127.985c-.18.096-.346.23-.478.394-.306.358-.466.81-.433 1.281.027.343.135.673.35.939a1.83 1.83 0 00-.516.63 1.802 1.802 0 00.43 2.141 1.62 1.62 0 00-.353.542c-.342.847.054 1.821.888 2.164l11.795 5.425c.052.023.11.032.161.022a.173.173 0 00.094-.038.59.59 0 00.343-.405.604.604 0 00-.107-.52.413.413 0 00-.107-.077l-11.77-5.414a.542.542 0 01-.282-.69.493.493 0 01.283-.304.544.544 0 01.442-.015l.41.097a.541.541 0 00.655-.302.616.616 0 00.027-.43.49.49 0 00-.287-.313l-.027-.011-1.328-.46a.63.63 0 01-.414-.636.682.682 0 01.321-.54.644.644 0 01.594-.045l.013.006 1.565.561a.556.556 0 00.72-.306.554.554 0 00-.299-.727l-.013-.006-2.11-.78a.64.64 0 01-.335-.822.656.656 0 01.344-.372.65.65 0 01.492-.026l2.386.898a.553.553 0 00.706-.312.554.554 0 00-.298-.727l-2.556-.971a.601.601 0 01-.338-.745.636.636 0 01.293-.363.556.556 0 01.453-.042l.013.006 5.607 1.397 2.125.817c.092.04.193.02.267-.043.073-.063.118-.17.094-.26-.045-.224-.058-.45-.077-.663a.28.28 0 00-.2-.26l-.737-.205.195-.39.974-.244.434.296.463.373c.128.102.237.212.322.343.09.117.255.535.409.87.303.713.414.966.583 1.007.118.161.237.322.35.497.303.493.52 1.011.673 1.566l.022.058a32.692 32.692 0 001.738 3.017c.002.032.004.064.024.089a.297.297 0 00.201.15l.5.103 3.215 1.617-1.402 5.376a.219.219 0 00.001.143l.008.019-.043.139a.833.833 0 00-.063.257c-.005.013-.005.013.002.032l-.007.092-.023.053a.235.235 0 00.004.175c-.006.014.002.032.01.051l.141.582.023.057a1.67 1.67 0 00.862.827c.131.057.268.1.417.116.336.05.667.003.973-.134.094.182.225.35.387.481a1.719 1.719 0 002.19.073c.16.21.376.398.62.519.41.207.892.24 1.332.082.308-.104.573-.29.79-.544.155.146.336.27.533.355a1.652 1.652 0 002.14-.91l5.428-11.993c.028-.067.036-.158 0-.22-.007-.02-.02-.025-.028-.044-.015-.038-.053-.133-.062-.184-.077-.223-.124-.37-.304-.383-.218 0-.594.376-.622.442l-5.41 11.952a.535.535 0 01-.683.291.55.55 0 01-.323-.706l.011-.027.098-.415a.547.547 0 00-.294-.663.555.555 0 00-.735.268l-.011.027-.461 1.348a.66.66 0 01-.818.39.603.603 0 01-.38-.352.69.69 0 01.003-.52l.006-.013.563-1.588a.563.563 0 00-.299-.727.505.505 0 00-.422.008.596.596 0 00-.303.311l-.781 2.141a.632.632 0 01-.814.345.65.65 0 01-.375-.84l.9-2.42a.547.547 0 00-.291-.71.547.547 0 00-.72.307l-.973 2.595a.595.595 0 01-.737.346.622.622 0 01-.357-.295.575.575 0 01-.039-.458l.006-.014.868-3.523.827-2.8a.219.219 0 00-.002-.142l.517-1.371a.26.26 0 00-.04-.27c-.063-.074-.168-.12-.256-.094-.222.047-.445.061-.656.081a.282.282 0 00-.257.205l-.232.879-.165-.087-.187-1.248.788-1.239c.142-.08.53-.261.836-.398.707-.312.957-.425.998-.597.16-.12.32-.241.492-.356a5.912 5.912 0 011.55-.691l.057-.023a32.528 32.528 0 002.988-1.777c.032-.003.064-.005.089-.026a.305.305 0 00.148-.204l.106-.507 1.614-3.266 5.299 1.391a.277.277 0 00.29-.096.3.3 0 00.061-.147l.45.003c.018-.007.045.004.063-.004.014.006.014.006.032-.002l.276.008a.307.307 0 00.083-.012l.58-.16.057-.024c.1-.051.186-.109.26-.172.45-.406.684-.81.735-1.262zm-16.368 6.822a2.689 2.689 0 00-1.427.618c-.005.013-.024.021-.03.034l-1.337 1.509a.27.27 0 00-.064.225l.071.677-1.848-.92a31.186 31.186 0 01-1.454-2.548 6.796 6.796 0 00-1.69-2.95 2.714 2.714 0 00-.442-1.23l.006-.014a.29.29 0 00-.086-.273l-1.589-1.313a.282.282 0 00-.208-.058l-.51.065.954-1.925a31.039 31.039 0 012.524-1.487 6.767 6.767 0 002.92-1.728c.44-.047.848-.204 1.219-.455l.013.006c.097.026.21-.02.27-.09l.754-.937.577-.667c.055-.056.07-.128.072-.206l-.043-.524 1.707.812a31.374 31.374 0 011.511 2.526 6.893 6.893 0 001.751 2.912 2.8 2.8 0 00.467 1.21l-.005.014c-.014.104.024.2.105.265l1.617 1.28c.06.041.126.07.209.058l.432-.067-.988 2.005a31.056 31.056 0 01-2.524 1.487 6.315 6.315 0 00-2.935 1.69z"/><path d="M14.086 33.745a.907.907 0 00-.49.531.963.963 0 00.023.72.91.91 0 00.522.491.93.93 0 001.199-.557.964.964 0 00-.022-.72.908.908 0 00-1.232-.465zm6.58-30.03a.91.91 0 00.75-.01c.462-.211.667-.77.466-1.25a.934.934 0 00-1.232-.466c-.462.212-.668.77-.467 1.25a.99.99 0 00.483.476zM1.763 16.398l.04.017a.93.93 0 00.71-.026c.462-.212.667-.77.466-1.251a.934.934 0 00-1.232-.466.907.907 0 00-.488.531.936.936 0 00.505 1.194zm31.226 4.662c-.463.212-.668.771-.467 1.252a.91.91 0 00.482.475l.04.017a.93.93 0 00.71-.027c.462-.211.667-.77.467-1.25a.908.908 0 00-1.232-.466zm-11.514-3.901a3.764 3.764 0 00-1.258-1.58 3.714 3.714 0 00-.716-.402c-1.933-.83-4.156.093-4.98 2.042-.204.48-.31.988-.314 1.475a3.85 3.85 0 00.497 1.948 3.76 3.76 0 001.799 1.623c1.933.83 4.17-.088 5-2.05a3.798 3.798 0 00-.028-3.056zm-4.566 4.145c-1.407-.604-2.065-2.242-1.455-3.684a2.74 2.74 0 01.482-.771c.09-.104.174-.193.272-.278a2.846 2.846 0 011.489-.654c.458-.056.93.005 1.39.202a2.768 2.768 0 011.557 1.756c.181.598.17 1.287-.101 1.928a2.74 2.74 0 01-3.634 1.501z"/></g><defs><clipPath id="clip0"><path fill="#fff" d="M0 0h41v42H0z"/></clipPath></defs></svg>