<svg width="24" height="21" fill="none" xmlns="http://www.w3.org/2000/svg"><path d="M4.827 8.263a1.63 1.63 0 01-1.632 1.624c-.897 0-1.631-.718-1.631-1.605V6.866a.646.646 0 00-.649-.642.646.646 0 00-.649.642v1.501a2.922 2.922 0 002.338 2.756v3.984C1.2 15.4.152 16.683.266 18.175c.105 1.425 1.279 2.577 2.72 2.671 1.717.123 3.148-1.227 3.148-2.898 0-1.359-.954-2.501-2.233-2.822v-4.04c1.25-.312 2.185-1.416 2.223-2.738V6.857a.646.646 0 00-.649-.642.646.646 0 00-.648.642v1.406zm0 9.685c0 .888-.735 1.615-1.632 1.615a1.628 1.628 0 01-1.631-1.615c0-.887.734-1.614 1.631-1.614s1.632.718 1.632 1.614zm5.553-4.53h12.077a.646.646 0 00.649-.642.646.646 0 00-.649-.642H10.38a.646.646 0 00-.649.642.634.634 0 00.65.642zm4.865-3.474h7.212a.646.646 0 00.649-.642.646.646 0 00-.649-.642h-7.212a.646.646 0 00-.65.642.64.64 0 00.65.642zM12.937 8.65h-2.481a.646.646 0 00-.65.642c0 .36.296.642.65.642h2.48a.646.646 0 00.65-.642.646.646 0 00-.65-.641zm-2.557 7.458h12.077a.646.646 0 00.649-.642.646.646 0 00-.649-.642H10.38a.646.646 0 00-.649.642.64.64 0 00.65.642zm0 2.709h12.077a.646.646 0 00.649-.642.646.646 0 00-.649-.642H10.38a.646.646 0 00-.649.642.64.64 0 00.65.642z" fill="#30C4AE"/></svg>