<svg width="33" height="26" fill="none" xmlns="http://www.w3.org/2000/svg"><path d="M9.827 9.263a1.63 1.63 0 01-1.632 1.624c-.897 0-1.631-.718-1.631-1.605V7.866a.646.646 0 00-.649-.642.646.646 0 00-.649.642v1.501a2.922 2.922 0 002.338 2.756v3.984c-1.403.293-2.452 1.576-2.338 3.068.105 1.425 1.279 2.577 2.72 2.671 1.717.123 3.148-1.227 3.148-2.898 0-1.359-.954-2.501-2.233-2.822v-4.04c1.25-.312 2.185-1.416 2.223-2.738V7.857a.646.646 0 00-.649-.642.646.646 0 00-.648.642v1.406zm0 9.685c0 .888-.735 1.615-1.632 1.615a1.628 1.628 0 01-1.631-1.615c0-.887.734-1.614 1.631-1.614s1.632.718 1.632 1.614zm5.552-4.53h12.078a.646.646 0 00.649-.642.646.646 0 00-.649-.642H15.379a.646.646 0 00-.649.642.634.634 0 00.649.642zm4.866-3.474h7.212a.646.646 0 00.649-.642.646.646 0 00-.649-.642h-7.212a.646.646 0 00-.65.642.64.64 0 00.65.642zM17.937 9.65h-2.482a.646.646 0 00-.648.642c0 .36.295.642.649.642h2.48a.646.646 0 00.65-.642.646.646 0 00-.65-.641zm-2.558 7.458h12.078a.646.646 0 00.649-.642.646.646 0 00-.649-.642H15.379a.646.646 0 00-.649.642.64.64 0 00.649.642zm0 2.709h12.078a.646.646 0 00.649-.642.646.646 0 00-.649-.642H15.379a.646.646 0 00-.649.642.64.64 0 00.649.642z" fill="#8C9C9A"/></svg>