<svg width="26" height="21" fill="none" xmlns="http://www.w3.org/2000/svg"><path d="M17.334 8.654H7.818a.512.512 0 000 1.023h9.516a.512.512 0 00.512-.511.502.502 0 00-.512-.512zm-3.833 3.63H7.818a.512.512 0 000 1.022h5.683a.512.512 0 00.511-.511.507.507 0 00-.511-.511zm1.819 1.03h1.954a.512.512 0 000-1.023H15.32a.512.512 0 000 1.023zm-7.33 6.12h1.315a.512.512 0 000-1.023H7.99a.512.512 0 000 1.023zm9.344-14.217H7.818a.512.512 0 000 1.022h9.516a.512.512 0 00.512-.51.507.507 0 00-.512-.512z" fill="#8C9C9A"/><path d="M3.69 19.381h2.36a.452.452 0 00.452-.45.452.452 0 00-.451-.452H3.69a2.798 2.798 0 01-2.789-2.79V3.985a2.798 2.798 0 012.789-2.79h18.618a2.798 2.798 0 012.789 2.79V15.69a2.798 2.798 0 01-2.789 2.789h-2.277L18.52 19.99a.35.35 0 01-.504 0l-1.51-1.511H11.11a.452.452 0 00-.451.451c0 .248.202.451.45.451h5.03l1.21 1.226c.225.225.518.368.834.39a1.25 1.25 0 00.97-.368l1.247-1.248h1.91A3.702 3.702 0 0026 15.69V3.984A3.702 3.702 0 0022.31.292H3.69A3.702 3.702 0 000 3.984V15.69a3.702 3.702 0 003.69 3.691z" fill="#8C9C9A"/></svg>