<svg width="33" height="33" viewBox="0 0 33 33" fill="none" xmlns="http://www.w3.org/2000/svg">
<path d="M32.2923 16.8696C32.112 16.6957 31.9317 16.5218 31.7514 16.3479C31.0301 15.8261 30.1284 15.6522 29.2268 15.8261H28.8661L27.0628 11.6522L26.3415 12L28.1448 16.174L27.7842 16.3479C26.3415 17.3914 26.1612 19.4783 27.2432 20.8696L27.6038 21.2174L23.8169 26.087L23.4563 25.9131C21.8333 25.2174 19.8497 26.087 19.3087 27.6522L19.1284 28L12.276 27.3044V26.7827C12.0956 26.2609 11.735 25.7392 11.194 25.3913C10.653 25.2174 10.2924 25.0435 9.75137 24.8696C9.57104 24.8696 9.39071 24.8696 9.21038 24.8696L8.84973 25.0435L6.50547 19.8261L6.86612 19.4783C7.94809 18.7827 8.48907 17.7392 8.6694 16.5218C8.84973 15.4783 8.48907 14.2609 7.76776 13.3914H7.58743L7.40711 13.0435L7.25648 12.743L7.04645 12.743L6.68579 12.5218L6.14481 12.3479C3.98088 11.3044 1.45629 12.3479 0.374319 14.4348C0.193991 14.7827 0.013663 15.3044 0.013663 15.6522C-0.166665 18.087 1.45629 20.174 3.80055 20.3479C4.34153 20.3479 4.70219 20.3479 5.24317 20.3479L5.78415 20.174L8.12842 25.3913L7.58743 25.7392C7.22678 26.087 6.86612 26.6087 6.86612 27.1305C6.68579 28.5218 7.76776 29.7392 9.21038 29.9131C10.2924 30.087 11.3743 29.5653 11.9153 28.5218L12.0956 28.174L18.9481 28.8696V29.3913C19.3087 31.1305 20.9317 32.3479 22.735 32C24.5383 31.6522 25.8005 30.087 25.4399 28.3479C25.4399 27.8261 25.0792 27.3044 24.7186 26.9566L24.3579 26.6087L28.1448 21.7392L28.5055 21.9131C30.1284 22.4348 31.9317 21.7392 32.653 20.174C32.653 20.174 32.8333 19.8261 32.8333 19.3044C32.8333 18.7827 32.8333 18.4348 32.8333 18.4348C32.8333 17.9131 32.653 17.3914 32.2923 16.8696ZM2.35793 18.7827C2.1776 18.6087 1.81694 18.4348 1.63661 18.2609C0.374319 16.8696 0.734974 14.7827 2.1776 13.5653C3.62022 12.3479 5.78415 12.6957 7.04645 14.087C8.30874 15.4783 7.94809 17.5653 6.50547 18.7827C5.24317 19.6522 3.62022 19.6522 2.35793 18.7827ZM24.5383 29.0435C24.3579 30.2609 23.276 31.3044 21.8333 31.1305C20.571 30.9566 19.4891 29.9131 19.6694 28.5218C19.8497 27.3044 20.9317 26.2609 22.3743 26.4348C23.6366 26.7827 24.7186 27.8261 24.5383 29.0435ZM31.2104 20.6957C30.1284 21.5653 28.6858 21.3914 27.7842 20.3479C26.8825 19.3044 27.0628 17.9131 28.1448 17.0435C29.2268 16.174 30.6694 16.3479 31.571 17.3914C31.9317 17.9131 32.112 18.4348 32.112 19.1305C31.9317 19.8261 31.7514 20.3479 31.2104 20.6957Z" fill="#8C9C9A"/>
<path d="M11.7154 11.4351H9.23926V22.9999H11.7154V11.4351Z" fill="#8C9C9A"/>
<path d="M18.8638 13.084H16.3877V23H18.8638V13.084Z" fill="#8C9C9A"/>
<path d="M26.0123 6.25955H23.5361V23H26.0123V6.25955Z" fill="#8C9C9A"/>
<path d="M5.3235 8.78529L4.0127 9.88953L4.9978 10.9099L6.30861 9.80565L5.3235 8.78529Z" fill="#8C9C9A"/>
<path d="M21.4676 4.23664H22.9385V0.0229008L18.4031 0V1.37405H20.4624L14.3579 7.00763L10.9011 4.07634L6.26758 7.96946L7.24822 9L10.9011 5.9313L14.4069 8.9084L21.4676 2.38168V4.23664Z" fill="#8C9C9A"/>
</svg>
