<svg width="99" height="83" fill="none" xmlns="http://www.w3.org/2000/svg"><path d="M8.357 67.336h.9V78h-.9v-9.126L2.285 78h-.908V67.336h.908v9.119l6.072-9.12zm9.86 2.74V78h-.878v-7.17h-3.245l-.14 2.966c-.058 1.098-.168 1.938-.329 2.52-.16.576-.4 1-.717 1.274-.318.273-.74.41-1.268.41h-.337v-.776l.271-.015c.503-.01.865-.254 1.085-.732.22-.479.363-1.333.432-2.564l.16-3.838h4.967zm8.653 0V78h-.88v-7.17h-3.244l-.139 2.966c-.059 1.098-.168 1.938-.33 2.52-.16.576-.4 1-.717 1.274-.318.273-.74.41-1.267.41h-.337v-.776l.27-.015c.504-.01.865-.254 1.085-.732.22-.479.363-1.333.432-2.564l.16-3.838h4.967zm3.525 3.61h2.263c.024-.723.19-1.372.498-1.948a3.325 3.325 0 011.253-1.34 3.41 3.41 0 011.772-.47c1.05 0 1.902.372 2.556 1.114.66.742.989 1.724.989 2.944v.176c0 .762-.149 1.45-.447 2.066-.298.615-.715 1.088-1.252 1.42-.537.333-1.148.499-1.831.499-1.011 0-1.841-.342-2.49-1.026-.65-.688-1-1.584-1.048-2.688h-2.263V78h-.872v-7.925h.872v3.611zm3.127.476c0 .947.245 1.726.733 2.337.493.605 1.14.908 1.94.908.787 0 1.424-.303 1.912-.908.493-.61.74-1.414.74-2.41v-.169c0-.937-.247-1.711-.74-2.321-.493-.616-1.135-.923-1.926-.923-.786 0-1.426.307-1.919.923-.493.61-.74 1.41-.74 2.402v.161zm11.238 3.245c.61 0 1.12-.171 1.53-.513.416-.347.64-.793.675-1.34h.842a2.5 2.5 0 01-.454 1.325c-.279.396-.65.706-1.114.93a3.321 3.321 0 01-1.479.338c-1.04 0-1.865-.362-2.476-1.085-.605-.722-.908-1.694-.908-2.915v-.263c0-.781.137-1.472.41-2.073.274-.6.664-1.064 1.172-1.392.513-.327 1.111-.49 1.795-.49.869 0 1.584.258 2.146.776.566.518.869 1.199.908 2.044h-.842c-.04-.62-.264-1.121-.674-1.502-.406-.38-.918-.571-1.538-.571-.791 0-1.407.285-1.846.857-.435.571-.652 1.372-.652 2.402v.256c0 1.011.217 1.8.652 2.366.44.567 1.057.85 1.853.85zm10.696-6.585H52.57V78h-.88v-7.178h-2.775v-.747h6.54v.747zm8.014 3.296c0 1.236-.273 2.217-.82 2.945-.547.722-1.28 1.084-2.197 1.084-1.084 0-1.914-.381-2.49-1.143v4.043h-.872V70.075h.813l.044 1.12c.571-.844 1.399-1.266 2.483-1.266.947 0 1.69.359 2.227 1.076.541.718.813 1.714.813 2.989v.124zm-.878-.154c0-1.01-.208-1.809-.623-2.395-.415-.586-.994-.879-1.736-.879-.537 0-.998.13-1.384.389-.386.258-.681.634-.886 1.128v3.8c.21.455.51.802.9 1.04.391.24.853.36 1.385.36.737 0 1.31-.293 1.721-.88.415-.59.623-1.445.623-2.563zM70.622 78c-.089-.249-.145-.618-.17-1.106-.307.4-.7.71-1.178.93a3.609 3.609 0 01-1.51.323c-.761 0-1.379-.213-1.852-.638-.469-.424-.703-.962-.703-1.611 0-.772.32-1.382.96-1.831.644-.45 1.54-.674 2.687-.674h1.59v-.9c0-.567-.176-1.012-.528-1.334-.347-.327-.854-.49-1.523-.49-.61 0-1.116.156-1.516.468-.4.313-.601.689-.601 1.128l-.879-.007c0-.63.293-1.174.879-1.633.586-.464 1.306-.696 2.16-.696.884 0 1.58.222 2.088.666.513.44.776 1.055.791 1.846v3.75c0 .766.08 1.34.242 1.721V78h-.938zm-2.755-.63c.586 0 1.109-.142 1.568-.425.463-.283.8-.661 1.01-1.135v-1.743h-1.567c-.874.01-1.558.17-2.05.483-.494.308-.74.733-.74 1.275 0 .444.163.813.49 1.106.332.293.762.44 1.29.44zm6.052-7.295h.88v7.185h4.27v-7.185h.878v7.185h.806l-.066 3.091h-.806V78H73.92v-7.925zm13.89 0h.878V78h-.879v-6.511L83.531 78h-.872v-7.925h.872v6.519l4.277-6.519zm8.637 0h.879V78h-.88v-6.511L92.17 78h-.872v-7.925h.871v6.519l4.278-6.519z" fill="#30C4AE"/><path d="M71.808 51.514H50.532a1.064 1.064 0 01-1.064-1.062c0-.586.477-1.063 1.064-1.063h20.213V18.562a1.064 1.064 0 012.127 0v31.89c0 .28-.114.553-.312.751a1.072 1.072 0 01-.752.311zm-26.595 0a1.064 1.064 0 01-1.064-1.062 1.064 1.064 0 012.127 0c0 .585-.477 1.063-1.063 1.063zm-5.32 0H29.256c-.28 0-.554-.113-.752-.31a1.069 1.069 0 01-.312-.752V7.932c0-.28.114-.554.312-.752.198-.197.472-.311.752-.311h42.553c.268 0 .525.1.723.283l.006.005.024.023.023.025.003.003.003.003a1.065 1.065 0 01-.782 1.784H30.32v40.394h9.575c.586 0 1.063.477 1.063 1.063 0 .585-.477 1.063-1.063 1.063zM71.809 14.31a1.064 1.064 0 01-1.063-1.063 1.064 1.064 0 012.127 0c0 .587-.477 1.063-1.064 1.063z" fill="#067362"/><path d="M70.603 9.001H32.812a1.064 1.064 0 110-2.126h37.791a2.261 2.261 0 001.609-.67c.425-.43.66-.997.66-1.597-.005-1.299-1.002-2.316-2.269-2.316H65.72a1.064 1.064 0 110-2.126h4.888a4.359 4.359 0 013.12 1.31c.4.408.714.883.933 1.413.225.547.34 1.125.34 1.719a4.39 4.39 0 01-1.277 3.093 4.369 4.369 0 01-3.12 1.3zM34.675 5.622A1.064 1.064 0 0133.61 4.56a2.937 2.937 0 00-1.3-2.452 1.061 1.061 0 01.6-1.942h22.172a1.064 1.064 0 011.062 1.117 1.062 1.062 0 01-1.062 1.009H35.205a5.03 5.03 0 01.534 2.267c0 .586-.478 1.063-1.064 1.063zM60.4 2.292a1.064 1.064 0 110-2.124 1.064 1.064 0 010 2.124z" fill="#067362"/><path d="M29.255 29.192h-3.191c-.28 0-.554-.114-.752-.312a1.07 1.07 0 01-.312-.75V5.806c-.001-1.56.558-3.014 1.575-4.092A5.356 5.356 0 0128.346.46 5.468 5.468 0 0130.56 0h.01a6.062 6.062 0 01.522.023l1.899.146c.185.014.363.077.517.182a5.084 5.084 0 012.23 4.208 1.064 1.064 0 01-2.128 0 2.958 2.958 0 00-1.09-2.294l-1.617-.124a3.52 3.52 0 00-.333-.015 3.307 3.307 0 00-2.447 1.044c-.642.682-.995 1.619-.996 2.636v21.26h2.129a1.065 1.065 0 011.063 1.063c0 .587-.477 1.063-1.064 1.063z" fill="#067362"/><path d="M32.813 9.001c-.376 0-.715-.19-.91-.51a1.055 1.055 0 01-.125-.803c.067-.277.238-.51.48-.657.835-.506 1.353-1.453 1.352-2.472a1.064 1.064 0 012.128 0 5.117 5.117 0 01-.644 2.483 4.923 4.923 0 01-1.73 1.804 1.06 1.06 0 01-.551.155z" fill="#067362"/><path d="M32.813 9.001c-.376 0-.715-.19-.91-.51a1.055 1.055 0 01-.125-.803c.067-.277.238-.51.48-.657.835-.506 1.353-1.453 1.352-2.472a1.064 1.064 0 012.128 0 5.117 5.117 0 01-.644 2.483 4.923 4.923 0 01-1.73 1.804 1.06 1.06 0 01-.551.155zm-3.558 20.191a1.064 1.064 0 01-1.064-1.063V7.932a1.065 1.065 0 012.128 0v20.197c0 .587-.478 1.063-1.064 1.063zm16.238 9.567a8.753 8.753 0 01-6.216-2.573 8.767 8.767 0 01-2.575-6.21 8.762 8.762 0 012.575-6.211 8.779 8.779 0 016.216-2.573 8.773 8.773 0 016.216 2.572 8.747 8.747 0 012.574 6.211 8.752 8.752 0 01-2.575 6.211 8.77 8.77 0 01-6.215 2.573zm0-15.441a6.632 6.632 0 00-4.712 1.95 6.624 6.624 0 00-1.951 4.707 6.624 6.624 0 001.95 4.708 6.632 6.632 0 004.713 1.95 6.63 6.63 0 004.711-1.95 6.62 6.62 0 001.951-4.708 6.62 6.62 0 00-1.95-4.708 6.63 6.63 0 00-4.712-1.95z" fill="#067362"/><path d="M55.597 38.759a8.753 8.753 0 01-6.216-2.573 8.774 8.774 0 01-1.883-2.791 8.724 8.724 0 01-.692-3.42 8.767 8.767 0 012.574-6.211 8.778 8.778 0 016.217-2.572 8.773 8.773 0 016.216 2.572 8.752 8.752 0 012.574 6.211 8.76 8.76 0 01-2.575 6.211 8.77 8.77 0 01-6.215 2.573zm0-15.441a6.632 6.632 0 00-4.712 1.95 6.62 6.62 0 00-1.951 4.707c0 1.777.694 3.448 1.95 4.708a6.63 6.63 0 004.713 1.95 6.63 6.63 0 004.711-1.95 6.622 6.622 0 001.951-4.708 6.62 6.62 0 00-1.95-4.708 6.63 6.63 0 00-4.712-1.95z" fill="#067362"/><path d="M50.248 29.85a8.755 8.755 0 01-6.216-2.572 8.749 8.749 0 01-2.575-6.212 8.753 8.753 0 012.574-6.211 8.768 8.768 0 016.217-2.572 8.773 8.773 0 016.216 2.572 8.768 8.768 0 012.574 6.211 8.764 8.764 0 01-2.575 6.211 8.76 8.76 0 01-6.215 2.573zm0-15.441a6.631 6.631 0 00-4.712 1.95 6.615 6.615 0 00-1.95 4.707c0 1.778.692 3.45 1.95 4.708a6.625 6.625 0 004.712 1.95 6.623 6.623 0 004.71-1.95 6.62 6.62 0 001.953-4.708 6.618 6.618 0 00-1.953-4.707 6.627 6.627 0 00-4.71-1.95zm.284 28.601H33.51a1.065 1.065 0 01-1.064-1.062c0-.586.477-1.063 1.064-1.063h17.02c.587 0 1.065.477 1.065 1.063 0 .585-.478 1.063-1.064 1.063zm12.766 4.253H33.51a1.065 1.065 0 01-1.064-1.063c0-.586.477-1.063 1.064-1.063h29.787c.586 0 1.064.477 1.064 1.063 0 .585-.478 1.063-1.064 1.063zM34.574 11.121h-2.127v2.126h2.127v-2.126zm3.192 0h-2.128v2.126h2.128v-2.126zm3.191 0H38.83v2.126h2.127v-2.126z" fill="#067362"/></svg>