<svg width="17" height="21" fill="none" xmlns="http://www.w3.org/2000/svg"><path d="M5.012 16.256a6.723 6.723 0 01-3.385-5.826c0-3.363 2.484-6.155 5.715-6.66l-.594.593a.823.823 0 000 1.143.838.838 0 00.572.242.838.838 0 00.571-.242L9.958 3.44a.823.823 0 000-1.143L7.89.231a.823.823 0 00-1.143 0 .823.823 0 000 1.143l.726.725C3.275 2.54 0 6.1 0 10.43c0 2.99 1.605 5.76 4.199 7.254.131.066.263.11.395.11.286 0 .55-.154.704-.417a.799.799 0 00-.286-1.121zM16.75 10.43c0-2.967-1.605-5.737-4.177-7.254a.83.83 0 00-1.12.308.83.83 0 00.307 1.121 6.729 6.729 0 013.363 5.825c0 3.364-2.483 6.155-5.715 6.66l.594-.593a.823.823 0 000-1.143.823.823 0 00-1.143 0l-2.067 2.067a.823.823 0 000 1.143L8.86 20.63a.837.837 0 00.571.242.838.838 0 00.572-.242.823.823 0 000-1.143l-.748-.747c4.199-.44 7.496-4.001 7.496-8.31z" fill="#30C4AE"/><path d="M6.11 9.77a.823.823 0 00-1.142 0 .823.823 0 000 1.144l1.956 1.956a.837.837 0 00.572.242.837.837 0 00.571-.242l3.737-3.737a.823.823 0 000-1.143.823.823 0 00-1.143 0l-3.187 3.166L6.11 9.77z" fill="#30C4AE"/></svg>