<svg width="18" height="18" fill="none" xmlns="http://www.w3.org/2000/svg"><g clip-path="url(#clip0)" fill="#8C9C9A"><path d="M6.075 3.825c.3 0 .525.075.825.15.15.075.375.225.6.45.15.15.3.375.45.675.075.225.15.525.15.825 0 .3-.075.525-.15.825-.075.225-.225.45-.45.675-.15.15-.375.3-.675.45-.225.075-.525.15-.825.15-.3 0-.525-.075-.825-.15-.15-.225-.375-.375-.6-.525l-.45-.675a2.696 2.696 0 01-.15-.825c0-.3.075-.6.15-.825.075-.225.225-.45.45-.675.225-.225.45-.3.675-.375.225-.075.525-.15.825-.15zm-1.2 2.025c0 .375.075.6.375.825.225.225.525.3.825.3.3 0 .6-.075.825-.3.225-.225.3-.525.3-.825 0-.375-.075-.6-.3-.825-.3-.225-.525-.3-.825-.3-.375 0-.6.075-.825.3-.225.225-.375.525-.375.825zm6.525-.225a2.158 2.158 0 011.875-.75L6.9 12.6a2.158 2.158 0 01-1.875.75L11.4 5.625zm-1.125 6.45c0-.3.075-.6.15-.825.075-.225.225-.45.45-.675.15-.15.375-.3.675-.45.225-.075.525-.15.825-.15.3 0 .525.075.825.15.225.075.45.225.675.45.15.15.3.375.45.675.075.225.15.525.15.825 0 .3-.075.6-.15.825-.075.225-.225.45-.45.675-.15.15-.375.3-.675.45-.3.15-.525.15-.825.15-.3 0-.525-.075-.825-.15-.3-.075-.45-.225-.675-.45-.15-.15-.3-.375-.45-.675-.15-.225-.15-.525-.15-.825zM12.3 13.2c.3 0 .6-.075.825-.3.225-.225.3-.525.3-.825 0-.375-.075-.6-.3-.825-.225-.225-.525-.3-.825-.3-.3 0-.6.075-.825.3-.225.225-.375.525-.375.825 0 .375.15.6.375.825.225.225.525.3.825.3zm-7.65 3l-.3.45c-.225-.15-.375-.3-.6-.375l.3-.375c.225.075.375.15.6.3zm-1.425-.375c-.15-.15-.3-.3-.525-.45L3.075 15c.15.15.3.3.45.375l-.3.45zM1.5 13.95c-.15-.15-.225-.375-.375-.525l.45-.225c.075.15.225.375.3.525l-.375.225zm5.4 3.225l-.15.525a5.167 5.167 0 01-.6-.225l.225-.45c.15 0 .3.075.525.15zM.6 8.1l-.525-.075c0-.225.075-.45.15-.6L.75 7.5c-.075.15-.075.375-.15.6zm-.225 3.6c-.075-.225-.15-.375-.15-.6l.525-.075c.075.225.075.375.15.6l-.525.075zM.525 9v.225H0V8.55h.525V9zm.3 3.9c-.075-.225-.15-.375-.225-.6l.525-.15c.075.15.15.375.225.525l-.525.225zm1.5 2.1l-.45-.45.45-.3c.15.15.225.3.375.45l-.375.3zm-2.25-4.5c0-.225-.075-.45-.075-.6h.525c0 .225 0 .375.075.6H.075zm5.4 6.75a2.246 2.246 0 01-.6-.3l.3-.45c.15.075.375.15.6.3l-.3.45zM13.95 2.175l.3-.375c.15.15.375.3.525.375l-.375.375c-.15-.075-.3-.225-.45-.375zm1.35.45l.45.45-.45.3-.45-.45.45-.3zm1.575 2.025c.075.15.225.375.3.6l-.525.225c-.075-.225-.15-.375-.225-.6l.45-.225zm-5.1-3.6L12 .6c.225.075.45.15.6.225l-.225.45a5.167 5.167 0 01-.6-.225zm6 5.925c.075.225.075.375.15.6l-.525.075c0-.225-.075-.375-.075-.6l.45-.075zm-.375 2.7V9.45l.525.075v.225c0 .15 0 .3-.075.375l-.525-.075c.075-.15.075-.3.075-.375zm0-3.9c.075.225.15.375.225.6l-.525.15A3.656 3.656 0 0016.875 6l.525-.225zM16.125 3.6c.15.15.225.375.375.525l-.45.3c-.075-.15-.225-.3-.375-.525l.45-.3zM18 8.25v.6h-.525v-.6H18zM10.575.675l.15-.525c.225.075.45.075.675.15l-.15.525c-.3-.075-.525-.075-.675-.15zm2.625.45c.225.075.375.225.6.3l-.3.45c-.15-.075-.375-.225-.525-.3l.225-.45z"/><path d="M8.1 17.4c3.9.375 7.65-2.025 8.925-5.775.075-.15.225-.225.375-.15.15.075.225.225.15.375-1.35 3.975-5.325 6.6-9.525 6.15-.15 0-.225-.15-.225-.3 0-.225.15-.3.3-.3zM9.6.6A8.581 8.581 0 00.975 6.375c0 .15-.15.225-.3.225H.6a.573.573 0 01-.15-.375C1.8 2.325 5.55-.225 9.675 0c.15 0 .3.15.3.3C9.9.45 9.75.6 9.6.6z"/></g><defs><clipPath id="clip0"><path fill="#fff" d="M0 0h18v18H0z"/></clipPath></defs></svg>