<svg width="17" height="18" fill="none" xmlns="http://www.w3.org/2000/svg"><path d="M14.61 1.455h-1.417V0h-.974v1.455H4.693V0h-.886v1.455H2.391C1.062 1.455 0 2.545 0 3.909v11.637C0 16.909 1.063 18 2.39 18h12.308c1.328 0 2.39-1.09 2.39-2.454V3.909C17 2.545 15.938 1.455 14.61 1.455zm1.416 14.09c0 .819-.62 1.455-1.417 1.455H2.391c-.797 0-1.417-.636-1.417-1.454V6.273h15.14v9.273h-.088zm0-10.181H.974V3.909c0-.818.62-1.454 1.417-1.454h1.416v1h.974v-1h7.526v1h.974v-1h1.417c.797 0 1.417.636 1.417 1.454v1.455h-.089z" fill="#42BDAA"/><path d="M7.526 8.273h1.86v1.909h-1.86v-1.91zm4.781 0h1.86v1.909h-1.86v-1.91zM4.693 13.09h-1.86V15h1.86v-1.91zm4.692 0H7.526V15h1.86v-1.91zm4.782 0h-1.86V15h1.86v-1.91z" fill="#42BDAA"/></svg>