<svg width="20" height="24" fill="none" xmlns="http://www.w3.org/2000/svg"><path d="M1.202 0A1.21 1.21 0 000 1.197v21.6C0 23.45.546 24 1.202 24h10.81a.625.625 0 00.612-.601.625.625 0 00-.611-.602H1.203v-21.6h10.81c.313.016.616-.257.626-.57a.623.623 0 00-.57-.627H1.201zm2.703 2.698c-.667 0-1.202.556-1.202 1.203v16.198c0 .642.53 1.203 1.202 1.203h3.602a.625.625 0 00.61-.601.625.625 0 00-.61-.602H3.905V3.901h8.108c.313.015.616-.258.626-.571a.623.623 0 00-.57-.627c-2.719-.005-5.446-.005-8.164-.005zM13.786 8.1a.63.63 0 00-.677.602V11.4H6.805a.625.625 0 00-.611.601c0 .318.293.606.61.601h6.305V15.3c.005.223.147.44.349.536.207.096.46.06.636-.086L18 12.45c.263-.222.263-.687 0-.909l-3.905-3.3a.578.578 0 00-.308-.14zm2.91 3.9l-2.385 2.006V9.984L16.697 12zm-6.79 8.1a.625.625 0 00-.611.6c0 .319.293.607.611.602h2.102c.313.015.616-.258.626-.571a.623.623 0 00-.57-.627c-.708-.005-1.44-.005-2.158-.005z" fill="#8C9C9A"/></svg>