<svg width="145" height="18" fill="none" xmlns="http://www.w3.org/2000/svg"><path d="M56.955 1.161a.896.896 0 00-.894.894v12.863c0 .491.402.893.894.893a.896.896 0 00.894-.893V2.055a.896.896 0 00-.894-.894zm-40.292-.044H3.44a.896.896 0 00-.893.893c0 .491.402.893.893.893h13.223a.896.896 0 00.893-.893.896.896 0 00-.893-.893zm-4.467 6.476H3.44a.896.896 0 00-.893.893c0 .492.402.894.893.894h8.756a.896.896 0 00.893-.894.896.896 0 00-.893-.893zm4.467 6.521H3.44a.896.896 0 00-.893.893c0 .492.402.894.893.894h13.223a.896.896 0 00.893-.894.896.896 0 00-.893-.893zM95.104 1.117a.896.896 0 00-.894.893v12.953c0 .491.402.893.894.893a.896.896 0 00.893-.893V2.01a.896.896 0 00-.893-.893zm17.466 0a.896.896 0 00-.894.893v12.953c0 .491.402.893.894.893a.896.896 0 00.893-.893V2.01a.896.896 0 00-.893-.893z" fill="#fff"/><path d="M106.941 6.923l-2.725 2.77a.408.408 0 01-.536 0l-7.817-8.174a.864.864 0 00-1.251 0c-.357.357-.357.938 0 1.25l7.817 8.174c.402.402.983.625 1.519.625.536 0 1.117-.223 1.519-.625l2.725-2.77c.357-.357.357-.937 0-1.25-.313-.357-.894-.357-1.251 0zM29.974 1.161a.896.896 0 00-.893.894v12.863c0 .491.402.893.893.893a.896.896 0 00.894-.893V2.1c0-.536-.402-.938-.894-.938zm13.669 0a.896.896 0 00-.893.894v12.863c0 .491.402.893.893.893a.896.896 0 00.894-.893V2.1c0-.536-.402-.938-.894-.938z" fill="#fff"/><path d="M30.733 1.519a.905.905 0 00-1.25-.045.905.905 0 00-.045 1.25l8.353 8.487a.909.909 0 00.67.268c.224 0 .447-.09.626-.268a.905.905 0 00.044-1.25l-8.398-8.442zM76.7 14.114a5.586 5.586 0 01-5.585-5.583A5.586 5.586 0 0176.7 2.948a.896.896 0 00.894-.893.896.896 0 00-.894-.894c-4.065 0-7.37 3.305-7.37 7.415 0 4.064 3.305 7.414 7.37 7.414a.896.896 0 00.894-.893c0-.492-.402-.983-.894-.983z" fill="#fff"/><path d="M80.585 7.593H76.7a.896.896 0 00-.893.893c0 .492.402.894.893.894h3.886c.224 0 .358.178.358.357v3.886c0 .491.402.893.893.893a.896.896 0 00.894-.893V9.737c0-1.161-.983-2.144-2.145-2.144zM132.984.804c-4.423 0-8.041 3.44-8.041 7.727 0 3.305 2.144 6.12 5.137 7.236.626.223 1.296-.268 1.296-.938 0-.402-.268-.804-.67-.938-2.323-.849-3.976-2.903-3.976-5.36 0-3.171 2.769-5.762 6.209-5.762 3.44 0 6.209 2.59 6.209 5.762 0 2.457-1.653 4.556-3.975 5.36a.966.966 0 00-.67.938c0 .67.67 1.161 1.295.938 2.993-1.117 5.137-3.93 5.137-7.236.045-4.243-3.529-7.727-7.951-7.727z" fill="#fff"/></svg>