<svg width="19" height="24" fill="none" xmlns="http://www.w3.org/2000/svg"><path d="M1.2 0C.543 0 0 .546 0 1.197v21.6C0 23.45.544 24 1.2 24h10.784a.624.624 0 00.61-.601.624.624 0 00-.61-.602H1.199v-21.6h10.785a.617.617 0 00.624-.57A.622.622 0 0012.04 0H1.2zm2.695 2.698a1.21 1.21 0 00-1.199 1.203v16.198c0 .642.53 1.203 1.2 1.203h3.593a.624.624 0 00.61-.601.624.624 0 00-.61-.602H3.895V3.901h8.089a.618.618 0 00.624-.571.622.622 0 00-.569-.627c-2.711-.005-5.432-.005-8.144-.005zM13.753 8.1a.629.629 0 00-.675.602V11.4h-6.29a.624.624 0 00-.61.601c0 .318.293.606.61.601h6.29V15.3c.005.223.146.44.347.536.207.096.459.06.635-.086l3.896-3.3c.262-.222.262-.687 0-.909l-3.896-3.3a.576.576 0 00-.307-.14zm2.903 3.9l-2.379 2.006V9.984L16.656 12zm-6.774 8.1a.624.624 0 00-.61.6c0 .319.293.607.61.602h2.097a.62.62 0 00.625-.571.623.623 0 00-.57-.627c-.706-.005-1.436-.005-2.152-.005z" fill="#067362"/></svg>