<svg width="23" height="19" viewBox="0 0 23 19" fill="none" xmlns="http://www.w3.org/2000/svg">
<g opacity="0.5">
<path d="M11.4497 2.31418C12.7442 1.32659 14.2046 0.823242 15.8243 0.823242C19.3826 0.823242 22.4117 3.53752 22.8134 7.06736C23.2343 10.782 20.8111 14.1334 17.1507 14.847C15.0591 15.2548 13.1524 14.7833 11.4497 13.4899C11.3796 13.3433 11.5071 13.2796 11.5836 13.2032C11.9663 12.8336 12.3489 12.4577 12.6677 12.0244C13.484 10.8967 13.9495 9.64784 14.0069 8.25247C14.0962 5.99057 13.2799 4.11733 11.59 2.62002C11.488 2.54356 11.3732 2.4671 11.4497 2.31418Z" fill="#C0C0C0"/>
<path d="M11.4052 13.5026C9.9959 14.6112 8.38254 15.0955 6.60975 14.9744C3.53607 14.7642 1.01081 12.6552 0.232823 9.69241C-0.889517 5.41073 2.17779 1.15454 6.597 0.855073C8.37616 0.734014 9.98315 1.21825 11.3988 2.30779C11.4817 2.51168 11.3159 2.60725 11.2011 2.70282C10.6145 3.21255 10.1489 3.81147 9.75996 4.48048C9.30082 5.27693 9.01385 6.13709 8.9182 7.05459C8.66312 9.48215 9.44111 11.521 11.2585 13.1649C11.3606 13.2541 11.4626 13.3369 11.4052 13.5026Z" fill="#888888"/>
<path d="M11.4053 13.5024C11.0482 13.1329 10.6465 12.8016 10.3212 12.4001C9.43485 11.3042 8.92469 10.0618 8.76527 8.65368C8.6186 7.35388 8.84179 6.1178 9.37746 4.93269C9.7792 4.04705 10.3467 3.27609 11.0865 2.63257C11.2013 2.53062 11.316 2.43505 11.3989 2.30762C11.4181 2.30762 11.4372 2.31399 11.4563 2.31399C11.9155 2.73451 12.3746 3.15503 12.7445 3.66476C13.5862 4.82438 14.0773 6.11143 14.141 7.5514C14.2303 9.51384 13.6117 11.2214 12.3045 12.6869C12.043 12.98 11.7369 13.2221 11.4563 13.4961C11.4308 13.4961 11.4181 13.5024 11.4053 13.5024Z" fill="#A4A2A2"/>
<path d="M1.17685 17.5295C1.17685 17.2873 1.17685 17.0452 1.17685 16.8095C1.17685 16.7394 1.14497 16.6183 1.25975 16.6183C1.36816 16.612 1.52758 16.5291 1.5786 16.6948C1.62324 16.8286 1.67425 16.7585 1.72527 16.7203C2.05687 16.4781 2.37572 16.5164 2.66268 16.7904C2.74558 16.8668 2.78384 16.8477 2.85399 16.7776C3.11544 16.5355 3.42153 16.4781 3.74038 16.6311C4.05285 16.7776 4.1485 17.0516 4.13575 17.3829C4.123 17.6824 4.12937 17.9882 4.13575 18.294C4.14213 18.4533 4.0656 18.4852 3.92531 18.4852C3.77864 18.4852 3.72125 18.447 3.72763 18.294C3.74038 17.9946 3.734 17.6887 3.72763 17.3829C3.72125 17.1089 3.58733 16.9688 3.3195 16.9688C3.04529 16.9688 2.87312 17.1217 2.86674 17.3829C2.86036 17.6887 2.85399 17.9882 2.86674 18.294C2.87312 18.4852 2.77109 18.4788 2.63717 18.4852C2.48412 18.4916 2.43949 18.4342 2.44586 18.2877C2.45862 17.9946 2.45224 17.7015 2.44586 17.4084C2.43949 17.1089 2.29919 16.956 2.03774 16.9496C1.7444 16.9433 1.58498 17.1026 1.5786 17.4148C1.57222 17.6887 1.5786 17.9691 1.58498 18.2431C1.59135 18.3896 1.58498 18.4916 1.38092 18.4916C1.17048 18.4916 1.15135 18.396 1.15772 18.2303C1.18323 17.9946 1.17685 17.7588 1.17685 17.5295Z" fill="#888888"/>
<path d="M7.70641 18.5487C7.44495 18.5423 7.23451 18.4977 7.03045 18.3831C6.96668 18.3448 6.82639 18.3385 6.90929 18.2047C6.96668 18.1155 6.99857 17.988 7.17074 18.0581C7.39394 18.1537 7.62351 18.2174 7.87221 18.1473C7.96786 18.1218 8.06989 18.09 8.07627 17.9689C8.08265 17.8542 7.97424 17.8287 7.89134 17.8096C7.73829 17.7714 7.57887 17.7523 7.41944 17.714C7.10697 17.644 6.92842 17.4464 6.92204 17.1725C6.91567 16.9049 7.09422 16.6882 7.38756 16.5927C7.70641 16.4907 8.00612 16.5672 8.29308 16.6946C8.35685 16.7265 8.5099 16.7201 8.43337 16.8539C8.37598 16.9558 8.3441 17.1279 8.14641 17.045C8.03163 17.0004 7.91047 16.9749 7.78931 16.9431C7.6809 16.9176 7.57887 16.9367 7.47684 16.9813C7.40669 17.0132 7.36205 17.0641 7.36205 17.147C7.36205 17.2298 7.41307 17.2808 7.49597 17.2935C7.66177 17.3254 7.82757 17.3509 7.99337 17.3827C8.36323 17.4464 8.5099 17.5994 8.51628 17.9052C8.51628 18.2301 8.33772 18.4404 7.99337 18.5041C7.88496 18.536 7.77655 18.5423 7.70641 18.5487Z" fill="#888888"/>
<path d="M9.8427 18.5871C9.40269 18.5935 9.16674 18.3641 9.16036 17.95C9.15399 17.7652 9.16036 17.5741 9.16036 17.3893C9.15399 17.2109 9.23689 16.9879 8.90529 17.007C8.77775 17.0134 8.83514 16.8668 8.82876 16.7904C8.82239 16.7139 8.80963 16.5992 8.92442 16.612C9.17312 16.6438 9.1795 16.4973 9.16036 16.3252C9.14123 16.1468 9.16674 16.0513 9.39631 16.0513C9.61313 16.0513 9.63226 16.1596 9.60675 16.3125C9.56211 16.5801 9.69603 16.6183 9.9256 16.612C10.0404 16.6056 10.2062 16.5164 10.2636 16.7075C10.3337 16.9178 10.2572 17.0134 10.0276 17.0197C9.60675 17.0261 9.60675 17.0261 9.60675 17.4466C9.60675 17.5741 9.60675 17.6951 9.60675 17.8226C9.61313 18.1029 9.7853 18.2367 10.0468 18.1157C10.3018 17.9946 10.27 18.1921 10.3337 18.3068C10.4358 18.4852 10.2827 18.4916 10.1807 18.5234C10.0595 18.5553 9.93835 18.5935 9.8427 18.5871Z" fill="#888888"/>
<path d="M14.1218 17.6251C14.1154 17.16 14.2621 16.8605 14.6128 16.6885C14.9827 16.5037 15.3589 16.5356 15.716 16.7267C15.8946 16.8223 15.716 16.9179 15.6905 17.0135C15.6522 17.1473 15.5821 17.1281 15.4737 17.0644C15.2122 16.9115 14.938 16.9434 14.7531 17.109C14.5682 17.2811 14.5108 17.5678 14.6128 17.8226C14.7467 18.154 15.0847 18.275 15.4354 18.0775C15.614 17.9756 15.6459 18.0584 15.7224 18.1858C15.818 18.3451 15.7479 18.3961 15.614 18.4534C14.887 18.7656 14.1218 18.2941 14.1218 17.6251Z" fill="#888888"/>
<path d="M18.4771 17.5294C18.4771 17.2873 18.4771 17.0515 18.4771 16.8094C18.4771 16.7393 18.4388 16.6246 18.5536 16.6119C18.662 16.5992 18.8214 16.5418 18.8661 16.6565C18.9235 16.8158 18.9745 16.7457 19.0446 16.6947C19.1467 16.6246 19.2614 16.5609 19.389 16.5546C19.4974 16.5418 19.6696 16.5291 19.6696 16.6565C19.6696 16.7712 19.6759 16.9878 19.4081 16.9496C19.0446 16.8986 18.8916 17.0707 18.8916 17.4466C18.8916 17.7333 18.8852 18.0136 18.8916 18.3004C18.898 18.4788 18.7895 18.4724 18.6684 18.4724C18.5408 18.4788 18.4707 18.4469 18.4707 18.3004C18.4835 18.0455 18.4771 17.7906 18.4771 17.5294Z" fill="#888888"/>
<path d="M12.8337 17.523C12.8337 17.2745 12.8337 17.026 12.8337 16.7775C12.8337 16.7138 12.8082 16.6182 12.9166 16.6118C13.0186 16.6055 13.178 16.5481 13.2035 16.6501C13.2609 16.8795 13.3566 16.7202 13.4203 16.6819C13.5543 16.6118 13.6882 16.5226 13.8412 16.5545C13.9114 16.5672 14.058 16.5545 14.0134 16.6947C13.9815 16.7966 14.0134 16.9559 13.8221 16.9623C13.2992 16.975 13.2227 17.0579 13.229 17.5676C13.229 17.797 13.2354 18.0327 13.2482 18.2621C13.2545 18.415 13.2163 18.4851 13.0441 18.4851C12.8847 18.4851 12.8209 18.4405 12.8337 18.2748C12.8464 18.0263 12.8337 17.7778 12.8337 17.523Z" fill="#888888"/>
<path d="M21.7486 16.0383C21.7486 15.8726 21.6721 15.8535 21.5381 15.8535C21.3978 15.8535 21.3468 15.8981 21.3532 16.0383C21.3596 16.274 21.3532 16.5162 21.3532 16.8029C21.0535 16.599 20.792 16.4843 20.4796 16.5799C20.097 16.6946 19.8865 16.9749 19.8227 17.3445C19.7462 17.7522 19.8738 18.109 20.2117 18.3575C20.5115 18.5805 20.8303 18.5933 21.1619 18.4276C21.2384 18.3894 21.2831 18.3129 21.3915 18.4467C21.4935 18.5742 21.7486 18.4595 21.7486 18.3002C21.7422 17.5483 21.7422 16.7901 21.7486 16.0383ZM20.792 18.1728C20.4732 18.1664 20.2245 17.8924 20.2245 17.5547C20.2309 17.217 20.4923 16.943 20.8048 16.9494C21.1236 16.9558 21.366 17.2234 21.366 17.5738C21.366 17.9179 21.1173 18.1791 20.792 18.1728Z" fill="#888888"/>
<path d="M17.9544 18.2623C17.9608 18.0202 17.9544 17.7844 17.9544 17.5423C17.9544 17.3129 17.9544 17.0772 17.9544 16.8478C17.9544 16.6184 17.8014 16.4846 17.6611 16.6248C17.4251 16.8542 17.3103 16.6057 17.1445 16.5802C17.0106 16.5611 16.8831 16.542 16.7492 16.5675C16.3474 16.663 16.1242 16.9243 16.0413 17.3129C15.9457 17.7271 16.0732 18.0775 16.3921 18.3387C16.6981 18.5936 17.0425 18.6064 17.3869 18.4152C17.457 18.377 17.5144 18.2941 17.5845 18.4471C17.6228 18.5235 17.7822 18.4853 17.8843 18.4662C17.9927 18.4471 17.9544 18.3387 17.9544 18.2623ZM17.0234 18.1731C16.7109 18.1795 16.4431 17.8991 16.4367 17.5678C16.4303 17.2428 16.6981 16.9498 17.0106 16.9498C17.3231 16.9434 17.5909 17.2237 17.5973 17.555C17.5973 17.8864 17.3358 18.1667 17.0234 18.1731Z" fill="#888888"/>
<path d="M6.4566 16.8157C6.4566 16.7456 6.49486 16.6309 6.38007 16.6182C6.27167 16.6054 6.10587 16.5481 6.0676 16.6628C6.01021 16.8284 5.9592 16.7392 5.88905 16.6946C5.68499 16.5608 5.46817 16.5099 5.22585 16.5672C4.84323 16.6628 4.62004 16.924 4.53077 17.2999C4.42873 17.7141 4.56265 18.0645 4.87512 18.3321C5.16846 18.5806 5.50006 18.5997 5.85079 18.4277C5.92731 18.3895 5.97833 18.3449 6.08673 18.4341C6.25891 18.5806 6.4566 18.4532 6.4566 18.2174C6.4566 17.9944 6.4566 17.7714 6.4566 17.5484C6.46297 17.3127 6.46297 17.0642 6.4566 16.8157ZM5.49368 18.1728C5.18121 18.1665 4.91338 17.8734 4.92613 17.5484C4.93251 17.2171 5.20672 16.9368 5.51919 16.9495C5.83166 16.9559 6.09311 17.249 6.08673 17.5739C6.08036 17.9052 5.81253 18.1792 5.49368 18.1728Z" fill="#888888"/>
<path d="M11.807 16.6058C11.4307 16.5166 11.0736 16.574 10.8122 16.8925C10.5188 17.243 10.4933 17.638 10.6719 18.0458C10.8377 18.4153 11.1565 18.5746 11.5519 18.581C11.756 18.5874 11.9281 18.4982 12.1131 18.4217C12.2916 18.3516 12.3108 18.2752 12.2087 18.1095C12.1195 17.9693 12.0557 18.0203 11.96 18.0713C11.5838 18.2497 11.2905 18.2051 11.131 17.9439C11.0418 17.8037 11.0226 17.6954 11.2522 17.7017C11.571 17.7081 11.8963 17.7081 12.2151 17.7017C12.298 17.7017 12.3937 17.7272 12.4192 17.5934C12.4829 17.2111 12.1832 16.695 11.807 16.6058ZM11.807 17.4023C11.7113 17.3959 11.6093 17.4023 11.5136 17.4023C11.4307 17.4023 11.3542 17.4086 11.2713 17.4023C11.1948 17.3959 11.0928 17.4469 11.0545 17.3577C11.0226 17.2748 11.08 17.1856 11.131 17.1156C11.3096 16.8862 11.7751 16.918 11.9218 17.1665C12.0047 17.294 12.0429 17.4214 11.807 17.4023Z" fill="#888888"/>
</g>
</svg>
