<svg width="65" height="82" fill="none" xmlns="http://www.w3.org/2000/svg"><path d="M2.542 66.336l3.933 9.412 3.947-9.412h1.201V77h-.9v-4.644l.073-4.76L6.826 77H6.13l-3.955-9.368.074 4.695V77h-.901V66.336h1.194zm14.848 10.81a3.458 3.458 0 01-1.831-.498 3.407 3.407 0 01-1.267-1.384c-.303-.596-.454-1.262-.454-2v-.314c0-.762.146-1.448.44-2.058.297-.61.71-1.09 1.237-1.436a3.03 3.03 0 011.714-.527c.962 0 1.723.33 2.285.989.566.654.85 1.55.85 2.688v.49h-5.655v.169c0 .898.257 1.648.77 2.248.517.596 1.166.894 1.948.894.468 0 .88-.086 1.237-.257.362-.17.689-.444.982-.82l.55.418c-.645.932-1.58 1.398-2.806 1.398zm-.161-7.47c-.66 0-1.216.242-1.67.725-.45.483-.723 1.133-.82 1.948h4.753v-.095c-.024-.762-.242-1.382-.652-1.86-.41-.479-.947-.718-1.611-.718zm4.69 3.288c0-1.23.273-2.21.82-2.937.552-.732 1.299-1.098 2.241-1.098 1.07 0 1.885.422 2.446 1.267V65.75h.872V77h-.82l-.037-1.055c-.561.801-1.387 1.202-2.476 1.202-.913 0-1.65-.367-2.212-1.1-.556-.736-.834-1.73-.834-2.98v-.103zm.886.154c0 1.01.202 1.81.608 2.395.405.581.976.872 1.714.872 1.079 0 1.845-.476 2.3-1.428v-3.721c-.455-1.03-1.216-1.546-2.286-1.546-.737 0-1.31.291-1.721.872-.41.576-.615 1.428-.615 2.556zM31.787 77h-.88v-7.925h.88V77zm-1.033-10.217a.58.58 0 01.16-.418.567.567 0 01.44-.175c.186 0 .332.058.44.175a.567.567 0 01.168.418.58.58 0 01-.608.586.58.58 0 01-.44-.169.58.58 0 01-.16-.417zM39.377 77c-.088-.249-.144-.618-.169-1.106-.307.4-.7.71-1.179.93a3.61 3.61 0 01-1.509.323c-.762 0-1.38-.213-1.853-.638-.469-.424-.703-.962-.703-1.611 0-.772.32-1.382.96-1.831.644-.45 1.54-.674 2.688-.674H39.2v-.9c0-.567-.176-1.012-.528-1.334-.346-.327-.854-.49-1.523-.49-.61 0-1.116.156-1.516.468-.4.313-.6.689-.6 1.128l-.88-.007c0-.63.293-1.174.88-1.633.585-.464 1.306-.696 2.16-.696.884 0 1.58.222 2.087.666.513.44.777 1.055.791 1.846v3.75c0 .766.081 1.34.242 1.721V77h-.937zm-2.754-.63c.586 0 1.108-.142 1.567-.425.464-.283.8-.661 1.01-1.135v-1.743h-1.567c-.873.01-1.557.17-2.05.483-.493.308-.74.733-.74 1.275 0 .444.163.813.49 1.106.333.293.762.44 1.29.44zm8.718-3.706h-3.508v-.74h3.508v.74zm4.375-.96l-1.502 1.48V77h-.9V66.336h.9v5.75l5.464-5.75h1.135l-4.468 4.746L55.159 77h-1.1l-4.342-5.295zM57.752 77h-.878v-7.925h.878V77zM56.72 66.783a.58.58 0 01.161-.418.566.566 0 01.44-.175c.185 0 .331.058.439.175a.567.567 0 01.168.418.58.58 0 01-.608.586.58.58 0 01-.439-.169.58.58 0 01-.161-.417zm4.983.263v2.03h1.64v.717h-1.64v5.28c0 .44.078.767.234.982.161.215.427.322.798.322.147 0 .384-.024.71-.073l.037.718c-.23.083-.542.124-.937.124-.6 0-1.038-.173-1.311-.52-.274-.351-.41-.866-.41-1.545v-5.288h-1.458v-.718h1.458v-2.029h.879z" fill="#30C4AE"/><path d="M33.015 50H33a24.881 24.881 0 01-14.04-4.312 25.137 25.137 0 01-5.322-4.871 24.96 24.96 0 01-3.73-6.224 1.042 1.042 0 011.922-.8 22.865 22.865 0 0021.167 14.124h.016c.265 0 .516.099.71.278l.008.008.001.001.002.002.006.004c0 .002.002.003.002.003l.005.005.015.014c0 .003.004.005.006.008h.001c.026.028.05.056.072.085.014.017.025.033.037.05l.001.002.003.003a.183.183 0 00.003.007l-.003.004.005-.003.008.013.003.007.004.006.003.004.005.008a1.048 1.048 0 01.147.528v.008a1.036 1.036 0 01-.305.732l-.006.006-.004.003a1.03 1.03 0 01-.723.297h-.004zm4.67-.458a1.043 1.043 0 01.003-2.084 1.043 1.043 0 01-.003 2.084zm4.495-1.364a1.04 1.04 0 01-.962-1.44c.105-.257.306-.457.562-.564A22.862 22.862 0 0055.917 25v-.054a1.042 1.042 0 011.038-1.044h.003c.573 0 1.04.466 1.042 1.038V25a24.876 24.876 0 01-4.316 14.045 25.088 25.088 0 01-11.105 9.054 1.05 1.05 0 01-.399.08zM9.502 30.743a1.045 1.045 0 01-.866-1.621 1.032 1.032 0 01.868-.463 1.042 1.042 0 01-.002 2.084zm-.46-4.673A1.043 1.043 0 018 25.03V25a24.877 24.877 0 014.307-14.033 25.116 25.116 0 014.868-5.322 24.962 24.962 0 016.219-3.732 1.04 1.04 0 011.361.561c.221.53-.03 1.14-.56 1.361A22.867 22.867 0 0010.083 25v.027c0 .278-.107.54-.304.736a1.031 1.031 0 01-.736.307zm47.449-4.756c-.494 0-.923-.352-1.02-.838l-.001-.001c-.054-.273 0-.55.155-.781a1.037 1.037 0 01.868-.464 1.043 1.043 0 01-.002 2.083zm-1.37-4.491c-.422 0-.8-.251-.962-.64a22.87 22.87 0 00-21.156-14.1h-.046A1.044 1.044 0 0132.22.306c.196-.197.457-.305.734-.306H33a24.882 24.882 0 0114.027 4.303 25.097 25.097 0 019.054 11.077 1.043 1.043 0 01-.96 1.443zM28.285 2.547a1.044 1.044 0 01-.866-1.62 1.038 1.038 0 01.867-.463c.495 0 .924.352 1.021.838a1.043 1.043 0 01-1.022 1.245z" fill="#067362"/><path d="M33.011 44.792a1.044 1.044 0 01-.737-1.778 1.03 1.03 0 01.736-.306c9.76-.005 17.7-7.949 17.698-17.708v-.039a1.036 1.036 0 011.04-1.044h.002c.573 0 1.04.466 1.042 1.04V25a19.669 19.669 0 01-3.378 11.063 19.813 19.813 0 01-2.416 2.928 19.817 19.817 0 01-6.286 4.242 19.685 19.685 0 01-7.7 1.559zm-4.852-.632a1.03 1.03 0 01-.902-.52 1.041 1.041 0 11.902.52zm-4.524-1.87a1.04 1.04 0 01-.52-.14l-.017-.01a19.9 19.9 0 01-7.161-7.107A19.726 19.726 0 0113.209 25c0-1.761.232-3.51.69-5.196a19.673 19.673 0 011.946-4.681c.186-.32.532-.52.904-.52a1.043 1.043 0 01.901 1.563A17.701 17.701 0 0015.292 25c0 6.305 3.397 12.185 8.864 15.346a1.043 1.043 0 01.382 1.423c-.186.32-.532.52-.904.52zm27.47-21.14c-.47 0-.882-.317-1.005-.77a1.038 1.038 0 01.735-1.278 1.044 1.044 0 011.277.734 1.045 1.045 0 01-1.007 1.314zm-1.882-4.517a1.05 1.05 0 01-.902-.518c-3.165-5.442-9.035-8.823-15.32-8.823a17.71 17.71 0 00-8.877 2.381 1.039 1.039 0 01-1.564-.896 1.042 1.042 0 01.518-.905 19.623 19.623 0 014.7-1.967A19.82 19.82 0 0133 5.208a19.674 19.674 0 0110.019 2.72 19.895 19.895 0 017.105 7.14 1.043 1.043 0 01-.9 1.565zm-29.498-3.832v-.005.005a1.038 1.038 0 01-1.042-1.04c0-.279.108-.541.305-.738.197-.197.458-.305.737-.305.277 0 .539.107.736.304.197.196.305.457.305.735a1.038 1.038 0 01-1.04 1.044zm18.613 21.574a1.04 1.04 0 01-1.041-1.042V15.537a1.042 1.042 0 011.764-.75l9.245 8.898a1.042 1.042 0 010 1.5l-9.245 8.899c-.198.19-.458.291-.723.291zm1.042-16.39v12.9l6.701-6.45-6.7-6.45zm-5.447 16.39h-3.524a1.042 1.042 0 01-1.042-1.042v-17.62c0-.576.466-1.042 1.042-1.042h3.524c.575 0 1.042.466 1.042 1.041v17.621c0 .576-.467 1.042-1.042 1.042zm-2.482-2.083h1.44V16.754h-1.44v15.538z" fill="#067362"/><path d="M26.438 34.375h-3.524a1.042 1.042 0 01-1.042-1.042v-17.62c0-.576.466-1.042 1.042-1.042h3.524c.575 0 1.042.466 1.042 1.041v17.621c0 .576-.467 1.042-1.042 1.042zm-2.483-2.083h1.441V16.754h-1.44v15.538z" fill="#067362"/></svg>