<svg width="52" height="53" fill="none" xmlns="http://www.w3.org/2000/svg"><g clip-path="url(#clip0)"><g clip-path="url(#clip1)" opacity=".5"><path d="M53.3 1.42a.618.618 0 00-.853-.189C50.063 2.733 37.88 12.13 37.682 12.38l-.076-.031a7.164 7.164 0 01-1.156-.932l.766-.802a.623.623 0 00.161-.312.61.61 0 00.068-.73A38.726 38.726 0 0034.03 4.75l-.027.026c-.346-.473-1.422-1.464-4.593-3.818a1.358 1.358 0 00-.909-.293 1.29 1.29 0 00-.684.276 3.15 3.15 0 01-.656-.923l3.1-2.838a.617.617 0 00-.831-.91L26.193-.756a.94.94 0 00-.3.469.92.92 0 00.053.583c.212.524.52 1.003.91 1.413l-1.1.863a.626.626 0 00-.233.417.593.593 0 00-.11.064 5.11 5.11 0 01-1.625.828 67.404 67.404 0 01-5.003 1.61l-.064.02c-.702.16-1.373.43-1.988.803a6.154 6.154 0 00-1.681 1.913l-.053-.005c-1.27-.421-2.808.03-3.91 1.149-.911.904-1.413 2.07-1.906 3.285a13.45 13.45 0 01-2.084 3.27 5.289 5.289 0 01-2.332 1.209.624.624 0 00-.23.111.603.603 0 00-.406-.082 4.644 4.644 0 00-2.193.999l-.191-.262a.6.6 0 00-.53-.221.62.62 0 00-.637-.017 122.614 122.614 0 00-3.302 1.977.615.615 0 00-.203.85.621.621 0 00.852.196 89.497 89.497 0 013.02-1.791A39.297 39.297 0 017.579 31.74c.019.054.033.11.043.166a1.183 1.183 0 01-.087.09c-.87.818-11.747 6.843-12.85 7.3a.619.619 0 00-.183 1.016.62.62 0 00.658.122c1.242-.515 12.247-6.623 13.224-7.546a1.281 1.281 0 00.4-1.509c-.122-.424-.26-.809-.397-1.214a.629.629 0 00.488-.17c.45-.427 1.03-.69 1.648-.747a.543.543 0 00.126-.026 2.412 2.412 0 002.048.707 1.947 1.947 0 001.076-.576 3.575 3.575 0 003.008.662 2.57 2.57 0 00.81-.34 2.704 2.704 0 001.926 1.126 2.71 2.71 0 002.246-.907 2.475 2.475 0 002.204.44 2.891 2.891 0 001.937-2.304 4.355 4.355 0 003.071-1.096c.433-.377.724-.89.826-1.454a.612.612 0 00.408-.463l.003-.033a2.63 2.63 0 00.911-.896c.28-.476.402-1.027.353-1.576a.598.598 0 00.12-.262l.003-.04a3.538 3.538 0 001.305-1.167 2.265 2.265 0 00.215-1.96 2.671 2.671 0 001.192-1.726 2.655 2.655 0 00-.429-2.052 8.232 8.232 0 01.959-2.168l.104-.14a.598.598 0 00.257-.311c.115-.13.234-.256.354-.381.442.432.934.81 1.465 1.129.175.094.366.153.564.175.127.012.255.003.38-.027a1.24 1.24 0 00.673-.43c.065-.082 12.118-9.402 14.47-10.878a.622.622 0 00.192-.855zm-24.814.578l.125-.096.074.048c3.534 2.635 4.364 3.558 4.398 3.594a37 37 0 013.121 4.362l-1.37 1.388-.106.106a25.306 25.306 0 00-3.198-4.514 25.865 25.865 0 00-4.348-3.866l1.304-1.022zM17.42 7.348a5.685 5.685 0 011.634-.654l.068-.019a75.49 75.49 0 005.09-1.648 6.065 6.065 0 002.02-1.056c.027-.027.047-.062.07-.089a24.459 24.459 0 014.32 3.806 24.149 24.149 0 013.262 4.693l-.042.05a7.98 7.98 0 00-.941 1.98 8.547 8.547 0 00-1.279-.603c-2.572-1.023-5.352-1.958-8.192-1.94-.256.002-.514.012-.772.021-.93.032-1.812.063-2.57-.258a.616.616 0 00-.768.257 4.596 4.596 0 00-1.863 1.636 4.187 4.187 0 00-.415 2.07c-.013.14.003.281.003.413a5.072 5.072 0 01-.276 2.186 1.58 1.58 0 01-.904.81.774.774 0 01-.63-.032c-.394-.218-.571-.813-.704-1.354a88.756 88.756 0 01-.63-2.689 4.991 4.991 0 01-.162-1.862 5.27 5.27 0 01.851-1.82l1.395-2.178a5.55 5.55 0 011.435-1.72zM8.012 29.12a40.472 40.472 0 00-5.327-9.989 3.337 3.337 0 011.308-.707A30.056 30.056 0 018.8 28.53a3.945 3.945 0 00-.788.59zm1.95-1.021c.005-.054-.027-.11-.043-.165.016.055.036.106.056.162l-.013.003zm2.521.642a1.207 1.207 0 01-1.008-.422c-.44-.453-.688-1.753-.33-2.658.259-.654.719-.7.848-.712a.627.627 0 01.464.182c.271.253.436.599.461.968a.528.528 0 00.091.268 4.383 4.383 0 00.016 1.709.86.86 0 00-.009.102.618.618 0 01-.531.547l-.002.016zm4.023.089c-.817.186-1.862-.07-2.242-.795a.831.831 0 00.009-.098 3.122 3.122 0 01-.007-1.451.604.604 0 00-.06-.419 4.75 4.75 0 01.776-1.636 1.417 1.417 0 011.376-.54 1.494 1.494 0 01.848 1.168.599.599 0 00.107.233 20.032 20.032 0 00-.126 3.025.66.66 0 00-.036.121c-.03.105-.276.29-.644.376l-.001.016zm3.13.772a1.48 1.48 0 01-1.235-1.067.441.441 0 00.012-.127 19.833 19.833 0 01.156-3.39.486.486 0 00.016-.173 1.979 1.979 0 011.6-.809 1.473 1.473 0 011.357 1.177.098.098 0 00-.004.033 26.343 26.343 0 00-.292 3.164.62.62 0 00-.11.196 1.468 1.468 0 01-1.498.98l-.002.016zm3.98-.431a1.24 1.24 0 01-1.185-.319c.02-1.12.117-2.238.289-3.346l.003-.032c.043-.15.326-.26.55-.215.355.117.658.354.858.67.42.539.617 1.22.549 1.9a1.647 1.647 0 01-1.063 1.325l-.002.017zm8.24-8.755a3.26 3.26 0 01-1.395 1.026l-.029-.003a67.377 67.377 0 01-4.99-1.04.628.628 0 00-.76.455.622.622 0 00.457.757c1.684.417 3.4.772 5.108 1.063.023.283-.042.566-.186.81a1.443 1.443 0 01-1.07.642l-.062-.005a74.8 74.8 0 01-3.273-.711.626.626 0 00-.678.933.623.623 0 00.388.28c1.058.25 2.134.475 3.207.705-.067.27-.217.512-.429.692a3.085 3.085 0 01-2.271.777 4.2 4.2 0 00-.728-1.624 2.73 2.73 0 00-1.598-1.128 1.87 1.87 0 00-1.109.118 2.757 2.757 0 00-2.216-1.338 3.144 3.144 0 00-2.256.87 2.313 2.313 0 00-1.246-.994 2.638 2.638 0 00-2.694.92 4.117 4.117 0 00-.527.808 1.56 1.56 0 00-.22-.219 1.851 1.851 0 00-1.367-.484 2.184 2.184 0 00-1.914 1.48 4.438 4.438 0 00-.104 2.605 31.415 31.415 0 00-4.555-9.554 6.702 6.702 0 002.424-1.263 1.08 1.08 0 00.188-.111c.15-.1.26-.252.305-.427a14.739 14.739 0 002.08-3.364c.457-1.137.897-2.134 1.637-2.88a2.847 2.847 0 012.378-.9l-.8 1.254a6.276 6.276 0 00-1.04 2.302 6.25 6.25 0 00.173 2.33c.198.906.411 1.826.638 2.727.142.57.412 1.636 1.303 2.13.23.132.488.212.753.235a2.18 2.18 0 00.863-.104 2.843 2.843 0 001.647-1.466 6.162 6.162 0 00.393-2.72c.012-.136-.004-.273-.004-.414a3.093 3.093 0 01.261-1.476c.269-.488.8-.82 1.47-1.205a8.1 8.1 0 002.686.21c.245-.01.494-.016.739-.019 2.648-.015 5.302.896 7.75 1.841.703.279 1.364.566 1.71 1.069a1.465 1.465 0 01.169 1.32 1.46 1.46 0 01-.432.594.594.594 0 00-.186-.05 61.708 61.708 0 01-6.405-.925.628.628 0 00-.729.483.611.611 0 00.484.726c1.924.381 3.886.671 5.839.874.04.109.108.205.198.278a.883.883 0 01.027 1.093l-.002.017z" fill="#8C9C9A"/></g></g><defs><clipPath id="clip0"><path fill="#fff" d="M0 0h52v53H0z"/></clipPath><clipPath id="clip1"><path fill="#fff" transform="translate(-13 -11)" d="M0 0h61v59H0z"/></clipPath></defs></svg>