<svg width="18" height="18" fill="none" xmlns="http://www.w3.org/2000/svg"><g clip-path="url(#clip0)" fill="#30C4AE"><path d="M12.088.068c-.132-.065-.263-.065-.46 0a.79.79 0 00-.329.327l-.394 1.048c-1.577-.459-3.219-.459-4.861 0C2.694 2.424 0 5.632 0 9.559c0 4.713 3.81 8.509 8.54 8.509 4.664 0 8.475-3.796 8.475-8.51 0-.98-.132-1.766-.395-2.552l1.052-.393c.328-.13.46-.458.328-.72C16.949 3.21 14.781 1.05 12.088.068zM10.577 2.49L8.672 7.53 7.029 2.359c1.117-.196 2.365-.131 3.548.13zm5.255 7.069c0 4.058-3.285 7.33-7.292 7.33-4.073 0-7.358-3.272-7.358-7.33-.065-3.076 1.906-5.76 4.73-6.807 2.3 7.2 2.103 6.741 2.168 6.807a.66.66 0 00.723.327l6.766-2.422a8.61 8.61 0 01.263 2.095zM9.592 8.38l2.627-7.004a9.212 9.212 0 014.467 4.451L9.591 8.381z"/><path d="M4.598 9.556a.588.588 0 00-.59-.589.588.588 0 00-.592.59c0 2.814 2.3 5.04 5.058 5.04a.588.588 0 00.592-.59.588.588 0 00-.592-.589c-2.167.066-3.876-1.702-3.876-3.862z"/></g><defs><clipPath id="clip0"><path fill="#fff" d="M0 0h18v18H0z"/></clipPath></defs></svg>