<svg width="19" height="17" fill="none" xmlns="http://www.w3.org/2000/svg"><path d="M8.974 8.738l8.837 7.592a.752.752 0 00.95 0 .522.522 0 000-.816L9.923 7.922a.752.752 0 00-.95 0c-.265.216-.265.588 0 .816z" fill="#067362"/><path d="M17.81.171L8.975 7.763a.522.522 0 000 .816.752.752 0 00.95 0L18.76.987a.522.522 0 000-.816c-.251-.228-.684-.228-.95 0zM.199 8.738l8.836 7.592a.752.752 0 00.95 0 .522.522 0 000-.816L1.148 7.922a.752.752 0 00-.949 0c-.265.216-.265.588 0 .816z" fill="#067362"/><path d="M9.035.17L.199 7.764a.522.522 0 000 .815.752.752 0 00.95 0L9.983.987a.522.522 0 000-.816c-.251-.228-.684-.228-.949 0z" fill="#067362"/><path d="M8.974 8.738l8.837 7.592a.752.752 0 00.95 0 .522.522 0 000-.816L9.923 7.922a.752.752 0 00-.95 0c-.265.216-.265.588 0 .816z" stroke="#067362"/><path d="M17.81.171L8.975 7.763a.522.522 0 000 .816.752.752 0 00.95 0L18.76.987a.522.522 0 000-.816c-.251-.228-.684-.228-.95 0zM.199 8.738l8.836 7.592a.752.752 0 00.95 0 .522.522 0 000-.816L1.148 7.922a.752.752 0 00-.949 0c-.265.216-.265.588 0 .816z" stroke="#067362"/><path d="M9.035.17L.199 7.764a.522.522 0 000 .815.752.752 0 00.95 0L9.983.987a.522.522 0 000-.816c-.251-.228-.684-.228-.949 0z" stroke="#067362"/></svg>