<svg width="45" height="11" fill="none" xmlns="http://www.w3.org/2000/svg"><g clip-path="url(#clip0)" fill="#5B5B5B"><path d="M4.011 10.996c-1.251 0-2.495-.006-3.747.006-.243 0-.264-.06-.264-.24C.007 7.183.007 3.605.007.032.077-.01.153.008.222.008h3.866c.695 0 1.32.143 1.8.628.244.251.404.533.508.844.486 1.454.952 2.92 1.439 4.375.042.132.035.335.243.335.195-.006.195-.21.237-.341.486-1.454.959-2.915 1.439-4.375.201-.604.611-1.071 1.3-1.323.333-.12.695-.131 1.042-.137 1.259-.006 2.524 0 3.782 0 .369 0 .39.018.396.335v10.27c0 .137.021.287-.139.383h-4.004c-.167-.096-.139-.246-.139-.39V5.257c0-.095.007-.191-.014-.287-.007-.036-.02-.084-.076-.09-.056-.006-.077.036-.104.066-.042.066-.056.132-.084.204-.646 1.807-1.3 3.608-1.94 5.41-.062.167-.11.341-.312.43H6.68c-.174-.083-.243-.233-.3-.388-.41-1.161-.833-2.316-1.244-3.471-.243-.695-.5-1.383-.743-2.077a.471.471 0 00-.063-.132c-.07-.072-.125-.072-.16.018-.035.102-.02.204-.02.311v5.357c0 .137.02.287-.14.389zm13.849-.002V.371c0-.335 0-.335.396-.341 1.084 0 2.169.006 3.253-.006.278-.006.362.06.362.305a564.028 564.028 0 000 5.961c0 .09-.056.221.132.245.16.024.243-.048.292-.167.014-.036.042-.072.055-.108.383-.718.758-1.436 1.14-2.154.508-.964 1.023-1.928 1.53-2.897A2.125 2.125 0 0126.146.19c.264-.107.536-.167.834-.167 1.064.006 2.135 0 3.198 0 .369 0 .369 0 .369.311v10.647h-4.005c-.166-.102-.139-.251-.139-.389V5.255c0-.096.008-.192-.006-.288-.007-.06-.007-.137-.105-.15-.076-.005-.111.049-.146.096-.076.108-.125.234-.187.348-.779 1.484-1.544 2.968-2.315 4.458a2.767 2.767 0 01-.438.635c-.362.395-.835.586-1.398.622-1.32.018-2.634.018-3.948.018zm14.46 0V5.326c0-.31 0-.317.368-.317h11.7c.355 0 .376.024.216.305-.793 1.371-2.072 2.125-3.852 2.173-1.362.036-2.725.012-4.087.006-.265 0-.348.06-.348.293.014 1.071.007 2.137.007 3.208H32.32zM45 4.291c-.056.204-.215.251-.445.245-.779-.017-1.557-.012-2.329-.012-.111-.065-.139-.161-.139-.275.007-1.22-.007-2.442 0-3.668 0-.132.035-.228.195-.27 1.508.539 2.384 1.514 2.676 2.89.007.03.028.055.049.085C45 3.62 45 3.956 45 4.29zm-7.786.179c-2.545-.233-4.853-2.016-5.381-4.153-.035-.143-.097-.287.188-.287 1.73.006 3.462.006 5.193.006.111.066.139.167.139.275v3.884c0 .108-.028.21-.14.276z"/><path d="M37.214 4.47V.037h2.725c.111.066.139.167.139.275V4.25c0 .108-.028.21-.139.275-.91-.005-1.822.048-2.725-.053z"/><path d="M39.939 4.519V.036c.8-.024 1.592-.03 2.336.275-.056.174-.056.347-.056.52v3.693c-.758-.005-1.522-.005-2.28-.005z"/></g><defs><clipPath id="clip0"><path fill="#fff" d="M0 0h45v11H0z"/></clipPath></defs></svg>