<svg width="18" height="18" fill="none" xmlns="http://www.w3.org/2000/svg"><g clip-path="url(#clip0)" fill="#495352"><path d="M13.691.033c-.27-.116-.588.033-.7.314l-1.033 2.777a.575.575 0 00.302.727c.27.116.588-.033.7-.314L13.993.76a.569.569 0 00-.302-.727zm1.097 6.198l2.64-1.157a.568.568 0 00.286-.727.531.531 0 00-.7-.297l-2.64 1.14a.568.568 0 00-.286.727c.112.281.43.43.7.314zM17.682 9.9l-2.624-1.173-.047-.016a.536.536 0 00-.652.314c-.112.28 0 .611.286.727l2.608 1.174.047.016a.536.536 0 00.652-.314.547.547 0 00-.27-.727zm-3.817 2.166c.16.397-.159.826-.556.76-2.163-.28-4.15-.33-5.963-.165l-.27.033c.143.38.318.76.493 1.124.143.298.27.53.413.76.111.182.207.331.493.744.509.76.207 1.819-.604 2.347-.048.034-.112.066-.175.1-.859.446-1.877.198-2.274-.628-.032-.067-.048-.116-.08-.182-.159-.48-.206-.645-.286-.843a6.538 6.538 0 00-.35-.794 13.412 13.412 0 00-1.033-1.801c-.032-.067-.064-.116-.08-.182-.54.149-1.097.314-1.637.496-.27.099-.557-.05-.668-.314l-1.24-3.075c-.112-.264 0-.595.254-.71a17.285 17.285 0 001.51-.843.683.683 0 011.002.314l.127.264L4.007 12.1a24.356 24.356 0 013.26-.529c1.621-.149 3.386-.116 5.279.066L9.254 3.471a28.19 28.19 0 01-3.657 3.95c-.255.232-.525.463-.795.678a.522.522 0 01-.827-.231.587.587 0 01.175-.645c.254-.215.509-.43.747-.645A27.06 27.06 0 008.952 2.05a.525.525 0 01.922.115l3.991 9.901zm-10.924.298l-.938-2.314a35.58 35.58 0 01-.795.446l.859 2.132c.302-.1.588-.182.874-.264zm4.119 2.81a9.685 9.685 0 01-.461-.843c-.239-.48-.446-.976-.636-1.488-.43.066-.875.149-1.304.248l.063.083c.35.545.652 1.09.923 1.669.159.33.286.595.381.893.08.23.143.396.302.892 0 .017.016.033.016.05.112.231.477.314.843.132.032-.017.048-.033.08-.05.333-.215.429-.562.302-.777-.287-.446-.382-.611-.51-.81z"/></g><defs><clipPath id="clip0"><path fill="#fff" transform="matrix(-1 0 0 1 18 0)" d="M0 0h18v18H0z"/></clipPath></defs></svg>