<svg width="32" height="24" fill="none" xmlns="http://www.w3.org/2000/svg"><path d="M9.951 8.55a1.489 1.489 0 11-2.98.018V7.261a.593.593 0 00-1.184 0v1.386a2.69 2.69 0 002.135 2.544v3.677c-1.281.27-2.24 1.455-2.135 2.832a2.682 2.682 0 005.358-.21 2.697 2.697 0 00-2.039-2.604v-3.73a2.692 2.692 0 002.03-2.527V7.252a.593.593 0 00-1.185 0v1.299zm0 8.94c0 .82-.67 1.49-1.49 1.49-.818 0-1.49-.67-1.49-1.49a1.49 1.49 0 112.98 0zm5.071-4.182H26.05a.593.593 0 000-1.185H15.02a.593.593 0 00-.592.593.582.582 0 00.593.592zm4.443-3.206h6.586a.593.593 0 000-1.185h-6.586a.593.593 0 00-.593.592.588.588 0 00.593.593zm-2.108-1.194H15.09a.593.593 0 000 1.185h2.266a.593.593 0 000-1.185zm4.495-7.093h-1.525a.593.593 0 000 1.185h1.525a.593.593 0 000-1.185zm-6.83 13.977H26.05a.593.593 0 000-1.185H15.02a.593.593 0 00-.592.592.587.587 0 00.593.593zm0 2.501H26.05a.593.593 0 000-1.185H15.02a.593.593 0 00-.592.592.588.588 0 00.593.593z" fill="#8C9C9A"/><path d="M26.835 1.876h-2.736a.524.524 0 00-.523.523c0 .288.236.523.523.523h2.736a3.242 3.242 0 013.232 3.233v13.567a3.242 3.242 0 01-3.232 3.232H5.255a3.242 3.242 0 01-3.231-3.232V6.155a3.242 3.242 0 013.232-3.233h2.64l1.75-1.752a.405.405 0 01.584 0l1.751 1.752h6.255a.524.524 0 00.523-.523.524.524 0 00-.523-.523h-5.828L11.006.456a1.525 1.525 0 00-.967-.453A1.45 1.45 0 008.915.43L7.469 1.876H5.256C2.904 1.876.987 3.793.978 6.155v13.567c0 2.352 1.917 4.27 4.278 4.278h21.579c2.352 0 4.268-1.917 4.277-4.278V6.155c0-2.353-1.916-4.27-4.277-4.279z" fill="#8C9C9A"/></svg>