<svg width="23" height="23" fill="none" xmlns="http://www.w3.org/2000/svg"><g clip-path="url(#clip0)" fill="#495352"><path d="M17.494.042c-.346-.148-.752.043-.894.402l-1.321 3.548a.735.735 0 00.386.93c.345.147.752-.043.894-.402l1.32-3.548a.727.727 0 00-.385-.93zm1.402 7.92l3.372-1.478c.346-.148.508-.57.366-.93a.679.679 0 00-.894-.38l-3.373 1.458c-.345.148-.508.57-.365.929.142.36.548.55.894.401zm3.698 4.689l-3.353-1.5-.06-.02a.685.685 0 00-.834.4c-.142.36 0 .782.366.93l3.332 1.5.061.02a.685.685 0 00.833-.4.7.7 0 00-.345-.93zm-4.877 2.767c.203.507-.203 1.056-.711.971-2.763-.359-5.303-.422-7.62-.21l-.345.041c.183.486.407.972.63 1.437.183.38.346.675.528.971.143.232.264.422.63.95.65.972.264 2.324-.772 3-.06.042-.142.084-.223.126-1.097.57-2.398.254-2.906-.802-.04-.085-.06-.148-.101-.233-.204-.612-.265-.823-.366-1.077-.122-.316-.244-.633-.447-1.013a17.135 17.135 0 00-1.32-2.303c-.041-.084-.082-.147-.102-.232-.691.19-1.402.401-2.093.634-.346.127-.711-.064-.853-.402L.06 13.348c-.143-.338 0-.76.325-.908.65-.317 1.28-.676 1.93-1.077a.872.872 0 011.28.401l.163.338 1.36 3.358a31.126 31.126 0 014.166-.676c2.072-.19 4.328-.148 6.746.085L11.825 4.435a36.026 36.026 0 01-4.673 5.048c-.325.296-.67.591-1.016.866a.667.667 0 01-1.057-.296.75.75 0 01.224-.823c.325-.275.65-.55.955-.824a34.575 34.575 0 005.18-5.787.67.67 0 011.18.148l5.1 12.65zm-13.958.38l-1.2-2.957c-.324.19-.67.38-1.015.57l1.097 2.725c.386-.127.752-.232 1.118-.338zm5.262 3.59a12.39 12.39 0 01-.59-1.077 19.626 19.626 0 01-.812-1.9c-.549.084-1.117.19-1.666.316l.081.106c.447.697.833 1.394 1.179 2.133.203.422.365.76.487 1.14.102.296.183.507.386 1.141 0 .021.02.042.02.063.143.296.61.402 1.078.17.04-.022.06-.043.101-.064.427-.274.549-.718.386-.993-.366-.57-.487-.781-.65-1.034z"/></g><defs><clipPath id="clip0"><path fill="#fff" transform="matrix(-1 0 0 1 23 0)" d="M0 0h23v23H0z"/></clipPath></defs></svg>