<svg width="20" height="24" fill="none" xmlns="http://www.w3.org/2000/svg"><g clip-path="url(#clip0)" fill="#495352"><path d="M18.408 16.082a4.341 4.341 0 01-.91-2.647V9.484c0-4.007-3.106-7.392-6.98-7.68V.556A.554.554 0 009.962 0a.554.554 0 00-.556.556v1.243A7.468 7.468 0 004.728 3.89a7.478 7.478 0 00-2.303 5.421v4.123a4.33 4.33 0 01-.91 2.647 10.689 10.689 0 00-1.358 2.29 2.025 2.025 0 00.166 1.924c.384.587 1.03.94 1.733.94h4.632a3.316 3.316 0 003.264 2.759c1.636 0 3-1.198 3.263-2.759h4.632c.702 0 1.35-.348 1.733-.94.379-.576.44-1.298.167-1.925a10.021 10.021 0 00-1.339-2.288zm-8.441 6.811a2.206 2.206 0 01-2.132-1.652H12.1a2.211 2.211 0 01-2.132 1.652zm8.704-3.203a.97.97 0 01-.809.44H2.072a.957.957 0 01-.809-.44.925.925 0 01-.08-.88A9.682 9.682 0 012.4 16.76a5.444 5.444 0 001.141-3.33V9.312c0-1.758.697-3.4 1.965-4.623a6.364 6.364 0 014.698-1.794c3.415.121 6.188 3.077 6.188 6.589v3.95c0 .835.197 1.653.561 2.4h-4.98a.554.554 0 00-.556.557c0 .308.247.556.555.556h5.688c.238.323.455.656.652 1.005h-3.41a.554.554 0 00-.555.556c0 .308.247.556.555.556h3.915a.942.942 0 01-.146.626zM16.034 2.95c.07.092.157.157.258.193a.556.556 0 00.632-.854 5.24 5.24 0 00-2.28-1.763 5.503 5.503 0 00-1.465-.36.555.555 0 00-.606.496.555.555 0 00.495.606 4.203 4.203 0 012.966 1.683z"/></g><defs><clipPath id="clip0"><path fill="#fff" d="M0 0h19.928v24H0z"/></clipPath></defs></svg>