<svg width="21" height="24" fill="none" xmlns="http://www.w3.org/2000/svg"><path d="M19.363 16.082a4.348 4.348 0 01-.907-2.647V9.484c0-4.007-3.099-7.392-6.964-7.68V.556a.554.554 0 10-1.109 0v1.243A7.442 7.442 0 005.717 3.89a7.486 7.486 0 00-2.298 5.421v4.123c0 .955-.323 1.895-.907 2.647a10.695 10.695 0 00-1.356 2.29 2.03 2.03 0 00.166 1.924 2.06 2.06 0 001.729.94h4.621a3.31 3.31 0 003.255 2.759 3.311 3.311 0 003.256-2.759h4.621c.7 0 1.346-.348 1.729-.94a2.03 2.03 0 00.166-1.925 10.027 10.027 0 00-1.336-2.288zm-8.42 6.811a2.201 2.201 0 01-2.127-1.652h4.253a2.207 2.207 0 01-2.126 1.652zm8.682-3.203a.966.966 0 01-.806.44H3.066a.954.954 0 01-.806-.44.927.927 0 01-.08-.88 9.687 9.687 0 011.214-2.05 5.452 5.452 0 001.138-3.33V9.312c0-1.758.696-3.4 1.96-4.623a6.341 6.341 0 014.687-1.794c3.407.121 6.174 3.077 6.174 6.589v3.95a5.5 5.5 0 00.559 2.4h-4.969a.553.553 0 00-.554.557c0 .308.247.556.554.556h5.675c.236.323.453.656.65 1.005h-3.402a.553.553 0 00-.554.556c0 .308.247.556.554.556h3.906a.943.943 0 01-.147.626zM16.996 2.95a.56.56 0 00.257.193c.166.06.358.04.514-.076a.557.557 0 00.116-.778A5.23 5.23 0 0015.61.525a5.478 5.478 0 00-1.462-.358.554.554 0 00-.111 1.101 4.185 4.185 0 012.959 1.683z" fill="#067362"/></svg>