<svg width="52" height="53" fill="none" xmlns="http://www.w3.org/2000/svg"><g opacity=".5" clip-path="url(#clip0)"><path d="M35.824 9.145H23.366V7.996h.293c.48 0 .857-.375.857-.856V4.906a3.174 3.174 0 00-3.177-3.174H10.01a3.174 3.174 0 00-3.177 3.174V7.14c0 .48.376.856.857.856h.293v1.149H-4.475a3.504 3.504 0 00-3.511 3.508v7.287c0 1.398.397 2.756 1.15 3.946V37.52a3.504 3.504 0 003.51 3.508h38.021a3.504 3.504 0 003.511-3.508V23.886a7.359 7.359 0 001.15-3.946v-7.287a3.535 3.535 0 00-3.532-3.508zm-6.751 18.5c0 .793-.649 1.42-1.422 1.42a1.436 1.436 0 01-1.421-1.42v-3.133h2.843v3.132zm-25.668 0v-3.133H6.27v3.132c0 .794-.648 1.42-1.422 1.42-.773 0-1.442-.626-1.442-1.42zm13.69 3.716v.856c0 .48-.375.856-.856.856a.847.847 0 01-.857-.856v-.856h1.714zm-3.991-1.712v-2.276h6.27v2.276h-6.27zm-18.248-3.863a7.382 7.382 0 004.578 1.587H1.69v.292a3.13 3.13 0 003.135 3.132 3.13 3.13 0 003.136-3.132v-.292h3.428v3.132c0 .48.376.856.857.856h1.42v.856c0 1.42 1.15 2.568 2.572 2.568a2.568 2.568 0 002.57-2.568v-.856h1.422c.48 0 .857-.376.857-.856v-3.132h3.428v.292a3.13 3.13 0 003.135 3.132 3.13 3.13 0 003.135-3.132v-.292h1.13a7.382 7.382 0 004.577-1.587v10.127H-5.144V25.786zm37.06-.125h-1.13v-1.149h.293c.48 0 .857-.376.857-.856a.847.847 0 00-.857-.856h-6.835a.847.847 0 00-.857.856c0 .48.376.856.857.856h.293v1.149H8.004v-1.149h.292c.48 0 .857-.376.857-.856a.847.847 0 00-.857-.856H1.461a.847.847 0 00-.857.856c0 .48.377.856.857.856h.293v1.149H-.504c-3.156 0-5.727-2.569-5.727-5.721v-2.255h43.852v2.255c0 3.152-2.55 5.72-5.706 5.72zm2.758 13.676h-38a1.794 1.794 0 01-1.797-1.712h41.616c-.063.94-.857 1.712-1.819 1.712zm2.947-23.928v.563H-6.272v-.563H37.62zM11.975 6.284v-2.84h7.42v2.84h-7.42zm9.113 0v-2.84h.25c.816 0 1.464.648 1.464 1.462v1.378h-1.714zM9.676 9.144V7.997h11.976v1.149H9.676zm.585-5.7v2.84H8.547V4.906c0-.814.648-1.461 1.463-1.461h.25zm27.36 9.209v1.043H-6.272v-1.043c0-1.003.815-1.796 1.797-1.796h40.299c1.003-.021 1.797.793 1.797 1.796z" fill="#8C9C9A"/></g><defs><clipPath id="clip0"><path fill="#fff" d="M0 0h52v53H0z"/></clipPath></defs></svg>