<svg width="32" height="44" fill="none" xmlns="http://www.w3.org/2000/svg"><path fill-rule="evenodd" clip-rule="evenodd" d="M24.355 11.79c0 .65-.53 1.181-1.182 1.181H8.995c-.652 0-1.182-.53-1.182-1.181V9.137c0-.651.53-1.182 1.182-1.182h14.178c.653 0 1.182.53 1.182 1.182v2.653zm-1.182-6.2H8.995A3.55 3.55 0 005.45 9.137v2.653a3.55 3.55 0 003.545 3.545h14.178a3.55 3.55 0 003.546-3.545V9.137a3.55 3.55 0 00-3.546-3.546zM10.62 20.061a1.897 1.897 0 10-3.795.001 1.897 1.897 0 003.795 0zm7.435 0a1.897 1.897 0 10-3.794.002 1.897 1.897 0 003.794-.001zm5.54-1.896a1.896 1.896 0 00-1.897 1.896v.001a1.896 1.896 0 003.793 0v-.001c0-1.047-.85-1.896-1.897-1.896zM27.487 0H4.513A4.518 4.518 0 000 4.512v26.456a4.518 4.518 0 004.513 4.512v-2.363a2.152 2.152 0 01-2.15-2.149V4.512c0-1.184.965-2.149 2.15-2.149h22.975a2.15 2.15 0 012.149 2.149v26.456a2.15 2.15 0 01-2.149 2.149v2.363A4.517 4.517 0 0032 30.968V4.512A4.517 4.517 0 0027.488 0zM14.853 35.26l-1.707-1.706-1.67 1.671 3.377 3.378 6.103-6.103-1.67-1.67-4.433 4.43z" fill="#087464"/><path fill-rule="evenodd" clip-rule="evenodd" d="M15.87 41.437c-3.786 0-6.866-3.08-6.866-6.865s3.08-6.865 6.865-6.865a6.873 6.873 0 016.865 6.865 6.873 6.873 0 01-6.865 6.864zm0-16.093c-5.09 0-9.23 4.14-9.23 9.228s4.14 9.228 9.23 9.228c5.088 0 9.228-4.14 9.228-9.228 0-5.089-4.14-9.228-9.229-9.228z" fill="#087464"/></svg>