<svg width="83" height="83" fill="none" xmlns="http://www.w3.org/2000/svg"><g clip-path="url(#clip0)" fill="#C43930"><path d="M61.731 74.648l1.401 1.972c.882-.519 1.712-1.09 2.542-1.66l-1.556-1.868c-.778.519-1.608 1.038-2.387 1.556zm6.278-1.504a41.394 41.394 0 002.282-1.971l-1.816-1.66a77.77 77.77 0 01-2.126 1.867l1.66 1.764zm8.092-8.714c.57-.779 1.09-1.66 1.608-2.49l-2.23-1.142a58.933 58.933 0 01-1.505 2.334l2.127 1.297zM51.149 79.213l.726 2.231c.986-.26 1.971-.57 2.905-.934l-.83-2.178c-.934.31-1.867.622-2.801.881zm28.946-42.018l2.49-.312c-.155-.933-.31-1.919-.518-2.853l-2.49.467c.207.882.363 1.816.518 2.698zm1.142 16.807c.31-.934.518-1.867.778-2.801l-2.49-.519a50.066 50.066 0 01-.727 2.646l2.439.674zm-.779-12.346v.985H83v-.985c0-.623-.052-1.297-.104-1.92l-2.541.156c.051.57.103 1.141.103 1.764zm-1.4 17.689c.415-.882.83-1.764 1.193-2.645l-2.386-.83c-.311.83-.726 1.66-1.141 2.49l2.334.985zm-6.692 9.701a36.724 36.724 0 001.919-2.23l-2.023-1.401a35.637 35.637 0 01-1.816 2.126l1.92 1.505zm10.167-20.698c.156-.934.26-1.92.311-2.853l-2.541-.156a23.88 23.88 0 01-.312 2.697l2.542.312zM57.685 79.42c.934-.414 1.868-.83 2.75-1.296l-1.245-2.075c-.83.415-1.712.83-2.594 1.245l1.09 2.127zm-39.01-69.253L17.119 8.3a27.03 27.03 0 00-2.387 1.867l1.66 1.764c.727-.622 1.505-1.193 2.283-1.764zm-6.173 1.972c-.727.674-1.4 1.4-2.075 2.127l1.92 1.504c.622-.675 1.296-1.349 1.97-2.023l-1.815-1.608zm-7.314 9.337c-.467.83-.934 1.712-1.35 2.594l2.335.934c.415-.83.83-1.66 1.297-2.439l-2.282-1.089zM28.79 4.772l-.933-2.178c-.934.363-1.92.726-2.853 1.141l1.09 2.127c.881-.363 1.815-.726 2.697-1.09zM.934 32.266C.726 33.2.57 34.186.415 35.12l2.49.312c.104-.882.311-1.816.519-2.698l-2.49-.467zM2.75 44.509c-.052-.311-.052-.623-.104-.934l-2.49.208c0 .31.052.674.104.985.051.623.155 1.245.259 1.868l2.49-.363c-.156-.623-.208-1.193-.26-1.764zm-.104-17.793a24.476 24.476 0 00-.934 2.75l2.386.622c.26-.882.57-1.712.882-2.594l-2.334-.778zm5.861-10.168a40.46 40.46 0 00-1.763 2.386L8.87 20.18c.518-.778 1.089-1.504 1.66-2.23l-2.024-1.401zM.104 37.973A52.293 52.293 0 000 40.878h2.542c0-.882 0-1.816.104-2.698l-2.542-.207zM34.342 3.164L33.77.882c-.986.207-2.023.467-2.957.778l.726 2.23a56.577 56.577 0 012.802-.726zM22.306 5.083a67.57 67.57 0 00-2.645 1.505l1.4 1.971c.83-.519 1.66-.985 2.49-1.452l-1.245-2.024zM45.598 80.2c-18 1.763-35.275-9.442-41.085-26.613-.207-.674-.986-1.09-1.66-.83-.674.208-1.037.986-.83 1.66 6.173 18.364 24.64 30.295 43.886 28.428h.052c.727-.104 1.193-.727 1.142-1.453-.104-.726-.779-1.297-1.505-1.193zM38.595 2.698c17.741-1.142 34.082 9.856 39.736 26.715.208.623.83.986 1.453.882.103 0 .155-.052.26-.052.674-.207 1.037-.985.83-1.66-6.07-18-23.5-29.724-42.435-28.53-.726.05-1.245.673-1.193 1.4 0 .726.623 1.297 1.349 1.245z"/><path fill-rule="evenodd" clip-rule="evenodd" d="M49.355 30.79c0 .65-.53 1.181-1.182 1.181H33.995c-.652 0-1.182-.53-1.182-1.181v-2.653c0-.652.53-1.182 1.182-1.182h14.178c.653 0 1.182.53 1.182 1.182v2.653zm-1.182-6.198H33.995a3.55 3.55 0 00-3.545 3.545v2.653a3.55 3.55 0 003.545 3.545h14.178a3.55 3.55 0 003.545-3.545v-2.653a3.55 3.55 0 00-3.545-3.546zM35.62 39.062a1.897 1.897 0 10-3.795 0 1.897 1.897 0 003.795 0zm7.435 0a1.897 1.897 0 10-3.794 0 1.897 1.897 0 003.794 0zm5.54-1.897a1.896 1.896 0 10-.002 3.793 1.896 1.896 0 00.001-3.793zM52.487 19H29.513A4.518 4.518 0 0025 23.512v26.456a4.518 4.518 0 004.513 4.512v-2.363a2.152 2.152 0 01-2.15-2.149V23.512c0-1.184.965-2.149 2.15-2.149h22.975a2.15 2.15 0 012.148 2.149v26.456a2.15 2.15 0 01-2.148 2.149v2.363A4.517 4.517 0 0057 49.968V23.512A4.517 4.517 0 0052.488 19z"/><path fill-rule="evenodd" clip-rule="evenodd" d="M40.87 60.437c-3.786 0-6.866-3.08-6.866-6.865s3.08-6.865 6.865-6.865a6.873 6.873 0 016.865 6.865 6.873 6.873 0 01-6.865 6.864zm0-16.093c-5.09 0-9.23 4.14-9.23 9.228s4.14 9.228 9.23 9.228c5.088 0 9.227-4.14 9.227-9.228 0-5.089-4.14-9.228-9.228-9.228z"/><path fill-rule="evenodd" clip-rule="evenodd" d="M42.526 50.907l-1.583 1.612-1.583-1.612-1.382 1.407 1.583 1.612-1.583 1.612 1.382 1.407 1.583-1.612 1.583 1.612 1.382-1.407-1.583-1.612 1.583-1.612-1.382-1.407z"/></g><defs><clipPath id="clip0"><path fill="#fff" d="M0 0h83v83H0z"/></clipPath></defs></svg>