<svg width="32" height="32" fill="none" xmlns="http://www.w3.org/2000/svg"><path d="M11.507 26.982a4.349 4.349 0 00-.853-.351l.319-.631c.252.127.505.255.726.287l-.192.695zM8.54 25.325c-.252-.127-.44-.38-.693-.508l.476-.473c.158.159.442.381.599.54l-.381.441zm-2.361-2.381c-.19-.254-.347-.412-.44-.697l.633-.314c.19.254.252.444.44.697l-.633.314zm-.935-3.482l.094.285-.665.218-.094-.285-.187-.57.665-.218.187.57zm9.706 8.388a2.994 2.994 0 01-.885-.13l.192-.695c.222.032.538.034.885.13l-.192.695zm3.387-.904c5.096-1.149 8.846-5.75 8.9-11.032.032-.22.19-.378.412-.346.221.033.378.191.346.413-.054 5.597-3.996 10.577-9.503 11.757-.19.062-.348-.097-.41-.287-.094-.285.065-.442.255-.505zM13.24 5.043A11.442 11.442 0 004.72 15.95c.063.19-.096.347-.286.41l-.095.03a.764.764 0 01-.346-.412c.086-5.502 3.773-10.294 9.092-11.727a.43.43 0 01.505.255c-.033.222-.16.474-.35.537z" fill="#495352" stroke="#495352"/><path d="M15.5 6.5v10H22" stroke="#495352" stroke-width="2" stroke-linecap="round"/></svg>