<svg width="20" height="20" fill="none" xmlns="http://www.w3.org/2000/svg"><g clip-path="url(#clip0)" fill="#8C9C9A"><path d="M9.444 4.167v2.53c.14 0 .352-.07.492-.07.281 0 .563 0 .773.07.211.07.422.14.563.281.14.14.28.21.351.351.07.141.21.282.21.422l1.196-.422c-.211-.492-.492-.913-.914-1.265-.422-.351-.914-.562-1.546-.702V4.167H9.444zm1.266 11.666v-2.53c-.141 0-.352.07-.492.07-.633 0-1.195-.14-1.617-.35a1.94 1.94 0 01-.843-.844l-1.195.421c.21.492.562.914 1.054 1.266a3.838 3.838 0 001.828.702v1.265h1.265z"/><path d="M11.553 13.022s-.07 0-.07.07v1.406c.14-.07.28-.07.421-.14.352-.141.633-.352.844-.563.21-.21.421-.492.562-.773.14-.28.21-.632.21-.913 0-.422-.07-.774-.28-1.055-.14-.28-.422-.562-.703-.773-.281-.21-.633-.351-1.054-.562l-1.265-.422c-.703-.21-1.265-.421-1.546-.632-.352-.211-.563-.422-.563-.773 0-.14 0-.281.07-.492a.942.942 0 01.352-.422c.07 0 .07-.07.14-.07V5.502c-.421.14-.843.352-1.124.633-.492.421-.703.984-.703 1.686 0 .422.07.703.211.984.14.282.351.492.562.703.281.211.563.352.914.492.351.14.773.281 1.265.422.422.14.703.21 1.054.351.281.07.563.211.703.352.21.14.351.28.422.421.07.14.14.352.14.563 0 .21-.07.421-.14.562a.72.72 0 01-.422.351zM5.167 18l-.334.5c-.25-.167-.417-.333-.667-.417l.334-.416c.25.083.417.166.667.333zm-1.584-.417a3.624 3.624 0 00-.583-.5l.417-.416c.166.166.333.333.5.416l-.334.5zM1.667 15.5c-.167-.167-.25-.417-.417-.583l.5-.25c.083.166.25.416.333.583l-.416.25zm6 3.583l-.167.584c-.25-.084-.5-.167-.667-.25l.25-.5c.167 0 .334.083.584.166zM.667 9l-.584-.083c0-.25.084-.5.167-.667l.583.083C.75 8.5.75 8.75.667 9zm-.25 4c-.084-.25-.167-.417-.167-.667l.583-.083c.084.25.084.417.167.667L.417 13zm.166-3v.25H0V9.5h.583v.5zm.334 4.333c-.084-.25-.167-.416-.25-.666l.583-.167c.083.167.167.417.25.583l-.583.25zm1.666 2.334l-.5-.5.5-.334c.167.167.25.334.417.5l-.417.334zm-2.5-5c0-.25-.083-.5-.083-.667h.583c0 .25 0 .417.084.667H.083zm6 7.5a2.496 2.496 0 01-.667-.334l.334-.5c.167.084.417.167.667.334l-.334.5zM15.5 2.416L15.833 2c.167.166.417.333.584.416L16 2.833c-.167-.083-.333-.25-.5-.417zm1.5.501l.5.5-.5.333-.5-.5.5-.333zm1.75 2.25c.083.166.25.416.333.666l-.583.25c-.083-.25-.167-.417-.25-.667l.5-.25zm-5.666-4l.25-.5c.25.083.5.166.666.25l-.25.5c-.25-.084-.5-.167-.666-.25zM19.75 7.75c.083.25.083.416.167.666l-.584.084c0-.25-.083-.417-.083-.667l.5-.083zm-.417 3v-.25l.584.083v.25c0 .167 0 .333-.084.417l-.583-.084c.083-.166.083-.333.083-.416zm0-4.333c.084.25.167.416.25.666L19 7.25c-.083-.25-.167-.417-.25-.583l.583-.25zM17.916 4c.167.166.25.416.417.583l-.5.333c-.083-.166-.25-.333-.416-.583l.5-.333zM20 9.166v.667h-.584v-.667H20zM11.75.75l.167-.583c.25.083.5.083.75.166L12.5.917c-.333-.084-.583-.084-.75-.167zm2.916.5c.25.083.417.25.667.333l-.333.5c-.167-.083-.417-.25-.584-.333l.25-.5zM9 19.333c4.333.417 8.5-2.25 9.916-6.416.084-.167.25-.25.417-.167.167.083.25.25.167.417C18 17.583 13.583 20.5 8.916 20c-.166 0-.25-.167-.25-.333 0-.25.167-.334.334-.334zM10.667.667a9.535 9.535 0 00-9.584 6.416c0 .167-.166.25-.333.25H.667A.637.637 0 01.5 6.917C2 2.583 6.167-.25 10.75 0c.167 0 .333.167.333.333-.083.167-.25.334-.416.334z"/></g><defs><clipPath id="clip0"><path fill="#fff" d="M0 0h20v20H0z"/></clipPath></defs></svg>