<svg width="93" height="82" fill="none" xmlns="http://www.w3.org/2000/svg"><path d="M9.221 77h-.9v-9.895H2.284V77h-.9V66.336H9.22V77zm9.114-3.882c0 1.236-.274 2.217-.82 2.945-.547.722-1.28 1.084-2.198 1.084-1.084 0-1.914-.381-2.49-1.143v4.043h-.872V69.075h.813l.044 1.12c.572-.844 1.4-1.266 2.483-1.266.947 0 1.69.359 2.227 1.076.542.718.813 1.714.813 2.989v.124zm-.88-.154c0-1.01-.207-1.809-.622-2.395-.415-.586-.993-.879-1.735-.879-.538 0-1 .13-1.385.389-.386.258-.681.634-.886 1.128v3.8c.21.455.51.802.9 1.04.391.24.853.36 1.385.36.737 0 1.311-.293 1.721-.88.415-.59.623-1.445.623-2.563zm6.097 4.183a3.459 3.459 0 01-1.831-.499 3.407 3.407 0 01-1.267-1.384c-.303-.596-.454-1.262-.454-2v-.314c0-.762.146-1.448.44-2.058.297-.61.71-1.09 1.237-1.436a3.03 3.03 0 011.714-.527c.962 0 1.723.33 2.285.989.566.654.85 1.55.85 2.688v.49H20.87v.169c0 .898.257 1.648.77 2.248.517.596 1.166.894 1.948.894.468 0 .88-.086 1.237-.257.362-.17.689-.444.982-.82l.549.418c-.645.932-1.58 1.398-2.805 1.398zm-.161-7.471c-.66 0-1.216.242-1.67.725-.45.483-.723 1.133-.82 1.948h4.753v-.095c-.024-.762-.242-1.382-.652-1.86-.41-.479-.947-.718-1.611-.718zm9.685 1.494c0-.479-.179-.847-.535-1.106-.356-.259-.847-.388-1.472-.388-.567 0-1.052.146-1.458.44-.4.287-.6.653-.6 1.098h-.872c0-.66.28-1.204.842-1.633.567-.43 1.263-.645 2.088-.645.908 0 1.616.195 2.124.586.508.39.762.945.762 1.663 0 .38-.118.725-.352 1.032-.234.308-.576.547-1.026.718 1.016.278 1.524.908 1.524 1.89 0 .713-.276 1.277-.828 1.692-.551.415-1.284.622-2.197.622-.884 0-1.616-.222-2.197-.666-.581-.445-.872-1.026-.872-1.743h.88c0 .478.21.878.629 1.2.425.318.945.477 1.56.477.669 0 1.191-.14 1.568-.418.38-.283.57-.666.57-1.15 0-.532-.173-.915-.52-1.15-.346-.234-.876-.351-1.589-.351h-1.208v-.762h1.355c1.216-.03 1.824-.498 1.824-1.406zm6.227 5.977a3.458 3.458 0 01-1.83-.499 3.407 3.407 0 01-1.268-1.384c-.302-.596-.454-1.262-.454-2v-.314c0-.762.147-1.448.44-2.058.297-.61.71-1.09 1.237-1.436a3.03 3.03 0 011.714-.527c.962 0 1.724.33 2.285.989.567.654.85 1.55.85 2.688v.49h-5.654v.169c0 .898.256 1.648.769 2.248.517.596 1.167.894 1.948.894.469 0 .881-.086 1.238-.257.361-.17.688-.444.981-.82l.55.418c-.645.932-1.58 1.398-2.806 1.398zm-.16-7.471c-.66 0-1.217.242-1.67.725-.45.483-.723 1.133-.82 1.948h4.753v-.095c-.025-.762-.242-1.382-.652-1.86-.41-.479-.948-.718-1.612-.718zM50.27 77h-.879v-3.633h-4.27V77h-.879v-7.925h.88v3.552h4.27v-3.552h.878V77zm8.242-7.178h-2.886V77h-.879v-7.178h-2.776v-.747h6.541v.747zM65.04 77c-.088-.249-.144-.618-.168-1.106-.308.4-.701.71-1.18.93a3.61 3.61 0 01-1.508.323c-.762 0-1.38-.213-1.853-.638-.47-.424-.704-.962-.704-1.611 0-.772.32-1.382.96-1.831.644-.45 1.54-.674 2.688-.674h1.59v-.9c0-.567-.176-1.012-.528-1.334-.347-.327-.855-.49-1.523-.49-.61 0-1.116.156-1.517.468-.4.313-.6.689-.6 1.128l-.879-.007c0-.63.293-1.174.879-1.633.586-.464 1.306-.696 2.16-.696.884 0 1.58.222 2.088.666.513.44.776 1.055.79 1.846v3.75c0 .766.082 1.34.243 1.721V77h-.938zm-2.754-.63c.586 0 1.109-.142 1.568-.425.463-.283.8-.661 1.01-1.135v-1.743h-1.567c-.874.01-1.558.17-2.05.483-.494.308-.74.733-.74 1.275 0 .444.163.813.49 1.106.332.293.762.44 1.29.44zm6.052-7.295h.88v7.185h4.27v-7.185h.878v7.185h.806l-.066 3.091H74.3V77h-5.962v-7.925zm13.89 0h.878V77h-.879v-6.511L77.95 77h-.872v-7.925h.872v6.519l4.277-6.519zm8.637 0h.879V77h-.88v-6.511L86.588 77h-.871v-7.925h.871v6.519l4.278-6.519z" fill="#30C4AE"/><path d="M71.768 0H22.17A1.17 1.17 0 0021 1.17c0 .678.493 1.171 1.17 1.171h1.849v30.19a2.892 2.892 0 002.896 2.895H67.27a2.892 2.892 0 002.896-2.895V2.34h1.663A1.17 1.17 0 0073 1.171C73 .493 72.384 0 71.768 0zm-3.943 32.47a.552.552 0 01-.555.554H26.915a.552.552 0 01-.555-.555V2.28h41.526v30.19h-.061zm-11.83 12.753c.431.431.431 1.17 0 1.602-.246.246-.493.308-.8.308-.309 0-.617-.123-.802-.308l-5.668-5.669v9.119a1.17 1.17 0 11-2.341 0v-9.119l-5.73 5.73c-.246.247-.493.308-.8.308-.309 0-.617-.123-.802-.308a1.154 1.154 0 010-1.602l5.73-5.73h-2.033a1.17 1.17 0 110-2.341h9.488a1.17 1.17 0 110 2.341h-1.91l5.668 5.669zM41.701 16.512h5.73a1.17 1.17 0 001.17-1.17c0-1.664-.615-3.328-1.724-4.56A6.917 6.917 0 0041.7 8.441a1.17 1.17 0 00-1.17 1.17v5.73c.061.616.554 1.17 1.17 1.17zm3.45-4.19c.494.555.802 1.17.986 1.91h-3.265v-3.327c.863.247 1.663.74 2.28 1.417zm-6.715 14.54c4.56 0 8.318-3.758 8.318-8.317a1.17 1.17 0 00-1.171-1.17h-6.038v-6.039a1.17 1.17 0 00-1.17-1.17c-4.56 0-8.318 3.758-8.318 8.317 0 4.56 3.758 8.38 8.379 8.38zm-1.17-14.232v5.915c0 .616.492 1.17 1.17 1.17h5.915c-.555 2.773-2.958 4.868-5.915 4.868a6.048 6.048 0 01-6.038-6.038c0-2.896 2.095-5.36 4.867-5.915zm14.108-3.019c0-.616.493-1.17 1.171-1.17h9.611a1.17 1.17 0 011.171 1.17c0 .678-.493 1.171-1.17 1.171h-9.674c-.616 0-1.109-.555-1.109-1.17zm0 8.005c0-.616.493-1.17 1.171-1.17h9.611c.617 0 1.171.492 1.171 1.17 0 .678-.493 1.17-1.17 1.17h-9.674c-.616 0-1.109-.492-1.109-1.17zm0 4.071c0-.616.493-1.17 1.171-1.17h9.611a1.17 1.17 0 110 2.341h-9.673c-.616 0-1.109-.555-1.109-1.17zm0 4.067a1.17 1.17 0 011.171-1.171h6.839a1.17 1.17 0 110 2.341h-6.9c-.617-.061-1.11-.554-1.11-1.17z" fill="#067362"/></svg>