<svg width="54" height="39" viewBox="0 0 54 39" fill="none" xmlns="http://www.w3.org/2000/svg">
<path d="M0.583316 27.1757C0.485615 27.6107 0.632166 28.0456 0.925269 28.3356L2.73274 30.0753L4.24711 31.5252L11.135 38.146C11.477 38.4843 12.0144 38.6292 12.5517 38.5809C12.8937 38.5809 13.2356 38.4843 13.5287 38.3876L51.9253 23.0679C52.5603 22.8263 52.658 21.9081 52.0718 21.5698L49.9712 20.4582L47.8707 21.1831L49.7759 22.3913L12.9425 36.6962C12.6983 36.7928 12.4052 36.7928 12.4052 36.7928L2.83044 27.6107L4.24711 27.1274L11.1839 33.7482C11.5258 34.0865 12.0632 34.2315 12.6006 34.1831C12.9425 34.1831 13.2845 34.0865 13.5287 33.9898L52.5115 18.3802C53.1465 18.1385 53.2442 17.2203 52.658 16.882L50.5575 15.7705L48.4569 16.4954L50.3621 17.7036L12.8937 32.2501C12.6494 32.3467 12.3563 32.3467 12.3563 32.3467L2.78159 23.1646L4.19826 22.6813L11.135 29.3021C11.477 29.6404 12.0144 29.7854 12.5517 29.7371C12.8937 29.7371 13.2356 29.6404 13.5287 29.5437L51.2902 14.369C51.9741 14.1274 52.1207 13.1608 51.5833 12.7259L50.9483 12.2426L49.0919 10.5995L50.1178 10.1646C50.8017 9.8746 51.2414 9.43966 51.3391 8.90806C51.4368 8.52145 51.2902 8.0865 50.9971 7.84487L42.4971 0.354162C42.1063 0.0158723 41.569 -0.0324552 41.1781 0.0158719C40.885 0.0158719 40.5431 0.112527 40.25 0.209181L1.75573 12.7742C1.07182 13.0159 0.632167 13.4025 0.485615 13.9341C0.387914 14.369 0.534466 14.804 0.82757 15.1423L2.63504 16.882L1.75573 17.172C1.07182 17.4136 0.632167 17.8003 0.485615 18.3318C0.387914 18.7668 0.534466 19.2017 0.82757 19.4917L2.63504 21.2315L1.75573 21.5214C1.07182 21.7148 0.632167 22.1497 0.485615 22.6813C0.387914 23.1162 0.485616 23.5512 0.82757 23.8895L2.63504 25.6292L1.75573 25.9192C1.16952 26.2092 0.681017 26.6441 0.583316 27.1757ZM48.6523 8.42479L48.9454 8.71475L46.3075 9.77795C46.2098 9.72962 46.1121 9.72962 46.1121 9.72962C46.1121 9.72962 46.0632 9.72962 46.0632 9.77795C46.1121 9.63297 46.5517 9.1497 47.5776 8.76308C47.9195 8.6181 48.3103 8.52145 48.6523 8.42479ZM40.6896 1.99728C40.8362 1.94896 40.9827 1.90063 41.1293 1.90063C41.227 1.90063 41.2758 1.90063 41.2758 1.90063L41.569 2.14227C41.5201 2.14227 41.5201 2.14227 41.4712 2.19059C40.6896 2.48056 39.7615 2.57721 39.0287 2.57721L40.6896 1.99728ZM36.5862 3.35044C36.635 3.39877 36.6839 3.49542 36.7327 3.54375C37.4655 4.22033 38.7845 4.26866 39.5172 4.22033C40.2988 4.172 41.1781 4.02702 41.9109 3.73706C42.2529 3.59208 42.5948 3.4471 42.8879 3.30212L47.1868 7.11996C47.1379 7.11996 47.0891 7.11996 47.0402 7.16829C45.5747 7.74821 44.6465 8.56977 44.5 9.48799C44.4511 9.82628 44.5 10.1646 44.6465 10.4545L38.5891 12.9192C39.1264 12.1943 39.5172 11.4211 39.6638 10.6962C39.908 9.39133 39.4684 8.13483 38.4425 7.16829C37.0258 5.91178 34.5345 5.13855 31.3592 5.04189L36.5862 3.35044ZM14.6034 13.3542C15.0431 11.5177 17.7299 9.53631 21.4914 8.32814C23.9339 7.5549 26.523 7.07163 29.0632 6.92665C32.8247 6.73334 35.9023 7.40992 37.2701 8.66643C37.8563 9.19803 38.0517 9.77795 37.954 10.4545C37.6609 11.856 35.7557 14.1757 31.1638 16.0121C28.7701 16.9787 26.1322 17.5586 23.5431 17.7036C19.977 17.8486 16.9483 17.1237 15.4339 15.6739C14.7011 14.949 14.408 14.1274 14.6034 13.3542ZM7.37355 12.8709L14.1149 10.6962C13.5287 11.4211 13.0891 12.1943 12.8937 12.9675C12.5517 14.4657 12.9914 15.9155 14.2126 17.0753C15.9224 18.6701 18.9023 19.54 22.4684 19.54L16.8017 21.8597C16.7529 21.7631 16.704 21.6664 16.6063 21.5698C15.5804 20.6032 13.1868 20.4582 11.2816 21.1831C10.9396 21.3281 10.6465 21.4731 10.4023 21.6181L4.88217 16.3988C4.93102 16.3988 4.97987 16.3988 5.02872 16.3504C6.44539 15.8672 7.37355 15.0939 7.56895 14.1274C7.66665 13.7408 7.56895 13.2575 7.37355 12.8709ZM12.3563 23.5512L11.5747 22.8263C11.6235 22.7779 11.6724 22.7779 11.7701 22.7296C12.8937 22.2947 14.2615 22.2463 14.9942 22.5363L12.8448 23.4545C12.7471 23.5029 12.6006 23.5029 12.5029 23.5512C12.4052 23.5512 12.3075 23.5029 12.3563 23.5512ZM5.46837 13.4991C5.71263 13.5958 5.85918 13.6924 6.00573 13.8374C6.00573 13.9824 5.61492 14.4174 4.58906 14.804C4.24711 14.9006 3.8563 14.9973 3.4655 15.0456L2.78159 14.369L5.46837 13.4991ZM4.19826 18.3318L11.135 24.9527C11.477 25.2426 11.9655 25.4359 12.5517 25.3876C12.8937 25.3876 13.1868 25.291 13.4799 25.1943L31.75 17.7519L47.0891 11.4694L48.8477 13.0642L42.3506 15.8188V15.8672L12.8937 27.8523C12.6494 27.9489 12.3563 27.9489 12.3563 27.9489L2.78159 18.7668L4.19826 18.3318Z" fill="#8C9C9A"/>
<path d="M24.7155 13.016C25.0086 13.016 25.3994 12.9677 25.839 12.9677C26.9137 12.9193 29.3074 12.7744 30.1379 12.9677C29.8936 13.0643 29.5028 13.2093 28.9166 13.3543C26.5718 13.9342 24.6666 13.8859 24.2758 13.5476C24.0316 13.306 23.5919 13.306 23.3476 13.5959C23.1034 13.8859 23.1034 14.2725 23.3476 14.5625C23.885 15.0941 24.9597 15.239 26.0344 15.1907C26.9626 15.1424 27.8907 14.9974 28.5747 14.8524L29.2097 15.2874C29.3074 15.384 29.454 15.384 29.6005 15.384C29.7959 15.384 29.9913 15.2874 30.1379 15.0941C30.2844 14.9007 30.2844 14.6108 30.1867 14.4175C31.1637 14.0792 31.6522 13.6926 31.7499 13.161C31.7988 12.8227 31.7499 12.3877 31.1149 11.9528C30.431 11.5179 28.8189 11.5179 25.839 11.7112C25.3994 11.7595 25.0086 11.7595 24.7643 11.7595C24.3735 11.7595 23.8361 11.8078 23.4453 11.7595C23.7873 11.5662 24.3247 11.3729 25.0574 11.1796C26.9626 10.6963 27.5976 11.0346 27.7442 11.1796L27.9396 11.3245C28.2327 11.5179 28.6235 11.4695 28.8189 11.1312C29.0143 10.8413 28.9655 10.4063 28.6724 10.213L28.5258 10.068C27.793 9.48811 26.5718 9.43978 24.9109 9.8264L24.5689 9.48811C24.3247 9.24648 23.9338 9.24648 23.6407 9.48811C23.4453 9.68142 23.3965 10.0197 23.4942 10.2613C22.7614 10.5513 22.0287 10.9863 21.8333 11.5662C21.7356 11.9045 21.7844 12.2428 21.9798 12.5327C22.4683 13.0643 23.3476 13.0643 24.7155 13.016Z" fill="#8C9C9A"/>
</svg>
