<svg width="47" height="49" viewBox="0 0 47 49" fill="none" xmlns="http://www.w3.org/2000/svg">
<g clip-path="url(#clip0)">
<path d="M8.14886 22.8504C8.45067 27.718 10.5085 32.2881 14.0204 35.7494L14.5966 36.3173L15.1728 35.7494C18.6848 32.261 20.77 27.718 21.0444 22.8504L21.6754 22.9316C22.6906 23.0668 23.6783 23.4454 24.5015 24.0132C25.3794 24.6082 26.1202 25.3924 26.6416 26.2848L28.0409 25.4465C27.3824 24.3377 26.5044 23.3913 25.4069 22.6611C24.3643 21.9851 23.157 21.5254 21.8949 21.3361L18.4653 20.8493L17.9988 18.9834C19.3981 18.1181 20.4133 16.766 20.8523 15.1705H21.0718C22.8552 15.1705 24.3094 13.7373 24.3094 11.9796C24.3094 11.2224 24.035 10.5464 23.5686 9.97848L24.1448 7.84216C24.2271 7.46358 24.282 7.08499 24.282 6.7064C24.282 4.73234 23.0198 2.97461 21.1541 2.29857L15.8862 0.405629C15.1454 0.13521 14.3497 0 13.554 0C11.4139 0 9.38354 1.00055 8.09398 2.67715L7.68243 3.21799C6.09107 3.43433 4.85639 4.75938 4.85639 6.3819C4.85639 7.67991 5.32282 9.24834 5.56976 10.0055C5.13076 10.5464 4.85639 11.2224 4.85639 11.9796C4.85639 13.7373 6.31056 15.1705 8.09398 15.1705H8.31348C8.72504 16.766 9.76766 18.1451 11.167 18.9834L10.7005 20.8764L7.29831 21.3631C6.03619 21.5524 4.82895 21.9851 3.78634 22.6882C1.42674 24.2566 0 26.8526 0 29.665V41.8609H1.6188V40.2654V35.1545V29.6921C1.6188 27.4205 2.77116 25.3113 4.69177 24.0673C5.54232 23.4994 6.53006 23.1479 7.5178 22.9857L8.14886 22.8504ZM12.0724 30.5574C11.5511 29.6109 11.0846 28.6374 10.7554 27.6098L12.0998 26.9338L12.8955 28.1236L12.0724 30.5574ZM14.624 34.0458C14.1027 33.505 13.6363 32.91 13.2247 32.3151L14.4045 28.8267H14.871L16.0508 32.3151C15.5844 32.91 15.1179 33.505 14.624 34.0458ZM14.624 25.6898L15.6667 26.2036L15.0082 27.2042H14.2674L13.6089 26.2036L14.624 25.6898ZM12.2644 21.3631L12.676 19.7136C13.2796 19.9029 13.9381 20.011 14.5966 20.011C15.2551 20.011 15.9136 19.9029 16.5172 19.7136L16.9288 21.3631L14.5692 23.6887L12.2644 21.3631ZM17.1483 30.5574L16.3252 28.1236L17.1208 26.9338L18.4653 27.6098C18.1086 28.6104 17.6696 29.6109 17.1483 30.5574ZM18.136 22.4448L19.4256 22.6341C19.3707 23.7969 19.2061 24.9327 18.9317 26.0414L15.9685 24.5811L18.136 22.4448ZM21.0992 13.6021V10.4111C22.0047 10.4111 22.718 11.1413 22.718 12.0066C22.718 12.872 22.0047 13.6021 21.0992 13.6021ZM8.12142 10.8979V13.6021C7.21599 13.6021 6.50263 12.872 6.50263 12.0066C6.50263 11.1142 7.24343 10.4111 8.12142 10.4111H8.14886C8.14886 10.5734 8.12142 10.7086 8.12142 10.8979ZM8.12142 8.78863C7.70986 8.78863 7.32574 8.86976 6.96906 9.00497C6.74956 8.27483 6.50263 7.2202 6.50263 6.3819C6.50263 5.48951 7.24343 4.78642 8.12142 4.78642H8.53298L9.41097 3.62362C10.3987 2.35265 11.9352 1.56843 13.554 1.56843C14.1576 1.56843 14.7612 1.6766 15.3374 1.86589L20.6877 3.78587C21.9224 4.21854 22.7455 5.38135 22.7455 6.67936C22.7455 6.92274 22.718 7.19316 22.6632 7.40949L22.2242 9.00497C21.8675 8.86976 21.5108 8.78863 21.0992 8.78863H20.2761C16.5172 8.78863 11.8529 5.75993 11.798 5.73289L11.359 5.43543L10.92 5.73289C9.76766 6.49007 8.94454 7.57174 8.50554 8.78863H8.12142ZM9.74022 13.6021V10.8979C9.74022 9.51876 10.3438 8.24779 11.4139 7.38245C12.676 8.13962 16.188 10.0866 19.4804 10.3841V13.6291C19.4804 16.2522 17.2855 18.3885 14.624 18.3885C11.9352 18.3885 9.74022 16.2522 9.74022 13.6021ZM11.0846 22.4448L13.2522 24.5811L10.289 26.0414C10.0146 24.9327 9.84997 23.7969 9.79509 22.6341L11.0846 22.4448Z" fill="#8C9C9A"/>
<path d="M6.50259 42.4019V30.3953H4.88379V35.1276V42.4019V43.9974H23.3765L22.4436 42.4019H6.50259Z" fill="#8C9C9A"/>
<path d="M33.7478 22.9045C26.4221 22.9045 20.4956 28.7456 20.4956 35.9658C20.4956 43.186 26.4221 49.0271 33.7478 49.0271C41.0735 49.0271 47 43.186 47 35.9658C47 28.7456 41.0735 22.9045 33.7478 22.9045ZM33.7478 47.5668C27.2452 47.5668 21.9772 42.3747 21.9772 35.9658C21.9772 29.5569 27.2452 24.3378 33.7478 24.3378C40.2504 24.3378 45.5184 29.5298 45.5184 35.9388C45.5184 42.3477 40.2504 47.5668 33.7478 47.5668Z" fill="#8C9C9A"/>
<path d="M32.6229 27.2041V29.1241C32.6229 29.1241 32.6229 29.1241 32.5955 29.1241V31.0711C32.8424 31.0441 33.1168 31.017 33.4186 31.017C33.9124 31.017 34.324 31.0711 34.6807 31.1793C35.0374 31.2874 35.3117 31.4226 35.5587 31.5849C35.8056 31.7472 35.9977 31.9635 36.1623 32.1798C36.3269 32.3962 36.4367 32.6125 36.5464 32.8559L38.4122 32.2339C38.1378 31.5038 37.6713 30.8548 37.0403 30.2869C36.4092 29.719 35.5861 29.3675 34.5984 29.2052V27.2311H32.6229V27.2041Z" fill="#8C9C9A"/>
<path d="M31.2511 40.9684C30.5926 40.5898 30.1536 40.1571 29.9067 39.6433L28.0684 40.2653C28.3976 41.0224 28.9464 41.6715 29.742 42.2664C30.5103 42.8343 31.498 43.2128 32.6504 43.3751V45.3492H34.5984V43.4292V41.4822C34.3515 41.5362 34.0771 41.5633 33.7753 41.5633C32.7327 41.5092 31.9096 41.3199 31.2511 40.9684Z" fill="#8C9C9A"/>
<path d="M38.8787 39.373C38.8787 38.751 38.7415 38.2102 38.4946 37.7775C38.2476 37.3449 37.891 36.9663 37.4245 36.6418C36.9581 36.3173 36.4368 36.0468 35.8057 35.8305C35.1747 35.6142 34.5162 35.3978 33.7754 35.1815C32.6504 34.884 31.8273 34.5595 31.306 34.2621C30.7847 33.9646 30.5103 33.5319 30.5103 32.9911C30.5103 32.7477 30.5652 32.5044 30.675 32.288C30.7847 32.0446 30.9493 31.8553 31.1688 31.6661C31.2237 31.612 31.306 31.5579 31.3883 31.5308V29.3945C30.675 29.6109 30.0988 29.9354 29.6323 30.368C28.919 31.0441 28.5349 31.9094 28.48 32.9641C28.48 33.586 28.5623 34.0998 28.7818 34.5325C29.0013 34.9652 29.3031 35.3167 29.7147 35.6412C30.1262 35.9387 30.6201 36.2091 31.1963 36.4254C31.7724 36.6418 32.4309 36.8581 33.1443 37.0474C33.7479 37.2097 34.2967 37.3989 34.7357 37.5342C35.2021 37.6964 35.5862 37.8587 35.888 38.048C36.1898 38.2372 36.4368 38.4265 36.6014 38.6699C36.766 38.8863 36.8483 39.1837 36.8483 39.4812C36.8483 39.8057 36.766 40.1031 36.6014 40.3465C36.4368 40.5899 36.2173 40.8062 35.9429 40.9955C35.888 41.0226 35.8606 41.0496 35.8057 41.0766V43.213C36.0252 43.1589 36.2447 43.0778 36.4368 42.9966C36.9855 42.7533 37.4245 42.4558 37.7812 42.1042C38.1379 41.7527 38.4397 41.3471 38.6043 40.8874C38.7964 40.3736 38.8787 39.8868 38.8787 39.373Z" fill="#8C9C9A"/>
</g>
<defs>
<clipPath id="clip0">
<rect width="47" height="49" fill="white"/>
</clipPath>
</defs>
</svg>
