<svg width="38" height="46" viewBox="0 0 38 46" fill="none" xmlns="http://www.w3.org/2000/svg">
<g clip-path="url(#clip0)">
<path d="M28.1318 13.9636C28.1318 13.5451 27.7883 13.1646 27.3303 13.1646H25.1545V10.6534C25.1545 -3.53845 2.93915 -3.53845 2.93915 10.6534V13.2027H0.801586C0.381707 13.2027 0 13.5451 0 14.0017C0 20.9644 0 27.9653 0 34.928C0 37.5534 2.17573 39.7221 4.80952 39.7221H15.3446C17.3677 41.8528 20.1923 43.7932 24.0094 46C35.1934 39.5699 37.6364 35.2705 37.6364 22.4483C34.0483 22.4483 30.9947 21.6874 28.1318 20.1274V13.9636ZM4.50415 10.6534C4.50415 -1.48386 23.5895 -1.48386 23.5895 10.6534V13.2027H21.2229V10.6534C21.2229 1.63607 6.87074 1.63607 6.87074 10.6534V13.2027H4.50415V10.6534ZM19.6579 10.6534V13.2027H8.47391V10.6534C8.47391 3.69066 19.6579 3.69066 19.6579 10.6534ZM1.565 19.785H5.80195V21.6113H1.565V19.785ZM1.565 23.1712H5.80195V24.9975H1.565V23.1712ZM1.565 26.5575H5.80195V28.3838H1.565V26.5575ZM1.565 29.9438H5.80195V31.7701H1.565V29.9438ZM4.80952 38.1241C3.01549 38.1241 1.565 36.6783 1.565 34.89V33.33H6.56537C6.98525 33.33 7.36696 32.9876 7.36696 32.531C7.36696 28.0033 7.36696 23.4756 7.36696 18.9859C7.36696 18.5674 7.02342 18.1869 6.56537 18.1869H1.565V14.7246C9.88622 14.7246 18.2075 14.7246 26.5287 14.7246V19.1762C25.6889 18.6055 24.8492 17.9967 24.0094 17.2738C19.9251 20.7742 15.8027 22.4483 10.4206 22.4483C10.4206 29.7916 11.2222 34.3573 14.0087 38.1241H4.80952ZM35.7278 24.3127C35.6133 34.5856 32.9795 38.5426 24.0094 43.7932C15.0393 38.5426 12.4055 34.5856 12.291 24.3127C17.7876 23.9702 22.4062 20.9264 24.0094 19.7469C25.6126 20.9644 30.2312 24.0083 35.7278 24.3127Z" fill="#8C9C9A"/>
<path d="M17.4821 25.2258C17.8638 25.1497 18.2455 25.1116 18.6272 25.1877C19.009 25.2638 19.3525 25.378 19.696 25.5682C20.0014 25.7584 20.3068 26.0248 20.5358 26.3292C20.7648 26.6335 20.9175 27.014 21.032 27.4325C21.1083 27.8511 21.1465 28.2316 21.0702 28.612C20.9938 28.9925 20.8793 29.3349 20.6503 29.6774C20.4594 29.9818 20.1922 30.2861 19.8869 30.5144C19.5815 30.7427 19.1998 30.8949 18.8181 31.0091C18.4364 31.0852 18.0165 31.1232 17.6348 31.0471C17.2531 30.971 16.9096 30.8569 16.566 30.6666C16.2607 30.4764 15.9553 30.2101 15.7263 29.9057C15.4972 29.6013 15.3446 29.2208 15.23 28.8403C15.1155 28.4218 15.1155 28.0413 15.1919 27.6228C15.2682 27.2423 15.3827 26.8999 15.6118 26.5574C15.8026 26.2531 16.0698 25.9487 16.3752 25.7204C16.7569 25.4921 17.1004 25.3399 17.4821 25.2258ZM16.5279 28.4979C16.6424 28.9925 16.8714 29.3349 17.2913 29.5632C17.673 29.7915 18.0929 29.8296 18.5509 29.7535C19.009 29.6393 19.3525 29.411 19.5815 29.0306C19.8105 28.6501 19.8869 28.2316 19.7724 27.775C19.6579 27.2804 19.4288 26.9379 19.0471 26.7096C18.6654 26.4813 18.2455 26.4053 17.8257 26.5194C17.3676 26.6335 17.0241 26.8618 16.795 27.2423C16.4897 27.5847 16.4515 28.0033 16.5279 28.4979ZM26.1469 35.4607C26.0324 35.0421 26.0324 34.6617 26.1087 34.2431C26.1851 33.8627 26.2996 33.5202 26.5286 33.2158C26.7194 32.9115 26.9866 32.6451 27.292 32.4168C27.5974 32.1885 27.9791 32.0364 28.3608 31.9222C28.7425 31.8081 29.1242 31.8081 29.5059 31.8842C29.8876 31.9603 30.2312 32.0744 30.5747 32.2646C30.8801 32.4549 31.1854 32.7212 31.4144 33.0256C31.6435 33.33 31.7962 33.7105 31.9107 34.129C32.0252 34.5475 32.0252 34.928 31.9488 35.3465C31.8725 35.727 31.758 36.0694 31.529 36.3738C31.3381 36.6782 31.0709 36.9445 30.7655 37.1728C30.4602 37.4011 30.1166 37.5533 29.6968 37.6675C29.3151 37.7436 28.8952 37.7816 28.5135 37.7055C28.1318 37.6294 27.7882 37.5153 27.4447 37.325C27.1393 37.1348 26.834 36.8684 26.6049 36.5641C26.4141 36.2216 26.2232 35.8792 26.1469 35.4607ZM29.3914 36.3738C29.8494 36.2597 30.193 36.0314 30.422 35.6509C30.651 35.2704 30.7274 34.8519 30.6129 34.3953C30.4983 33.9007 30.2693 33.5583 29.8876 33.33C29.5059 33.1017 29.086 33.0637 28.6662 33.1397C28.2081 33.2539 27.8646 33.4822 27.6355 33.8627C27.4065 34.2431 27.3302 34.6617 27.4447 35.1563C27.5592 35.6509 27.7882 35.9933 28.2081 36.2216C28.628 36.4499 28.9715 36.488 29.3914 36.3738Z" fill="#8C9C9A"/>
<path d="M28.2633 24.6057L27.1421 23.9541L19.2207 37.4964L20.3419 38.148L28.2633 24.6057Z" fill="#8C9C9A"/>
</g>
<defs>
<clipPath id="clip0">
<rect width="37.6364" height="46" fill="white"/>
</clipPath>
</defs>
</svg>
