<svg width="41" height="46" viewBox="0 0 41 46" fill="none" xmlns="http://www.w3.org/2000/svg">
<g clip-path="url(#clip0)">
<path d="M23.5111 4.38095C23.5598 3.99153 23.5111 3.60212 23.3164 3.26138L22.1968 1.0709C21.8561 0.389418 21.1746 0 20.4444 0C19.7143 0 19.0328 0.389418 18.6921 1.0709L17.5725 3.26138C17.3778 3.60212 17.3291 3.99153 17.3778 4.38095C7.54497 5.84127 0 14.3598 0 24.582C0 25.1175 0.438095 25.5556 0.973545 25.5556C1.50899 25.5556 1.94709 25.1175 1.94709 24.582C1.94709 23.1217 3.74815 21.9048 5.84127 21.9048C7.93439 21.9048 9.73545 23.1217 9.73545 24.582C9.73545 25.1175 10.1735 25.5556 10.709 25.5556C11.2444 25.5556 11.6825 25.1175 11.6825 24.582C11.6825 23.1217 13.4836 21.9048 15.5767 21.9048C17.6698 21.9048 19.4709 23.1217 19.4709 24.582V25.7989H21.418V24.582C21.418 23.1217 23.219 21.9048 25.3122 21.9048C27.4053 21.9048 29.2063 23.1217 29.2063 24.582C29.2063 25.1175 29.6444 25.5556 30.1799 25.5556C30.7153 25.5556 31.1534 25.1175 31.1534 24.582C31.1534 23.1217 32.9545 21.9048 35.0476 21.9048C37.1407 21.9048 38.9418 23.1217 38.9418 24.582C38.9418 25.1175 39.3799 25.5556 39.9153 25.5556C40.4508 25.5556 40.8889 25.1175 40.8889 24.582C40.8889 14.3598 33.3439 5.84127 23.5111 4.38095ZM20.4444 1.94709L21.564 4.13757H19.3249L20.4444 1.94709ZM35.0476 19.9577C33.0032 19.9577 31.2508 20.7852 30.1799 22.0508C29.109 20.7852 27.3566 19.9577 25.3122 19.9577C23.2677 19.9577 21.5153 20.7852 20.4444 22.0508C19.3735 20.7852 17.6212 19.9577 15.5767 19.9577C13.5323 19.9577 11.7799 20.7852 10.709 22.0508C9.63809 20.7852 7.88571 19.9577 5.84127 19.9577C4.52698 19.9577 3.31005 20.2984 2.33651 20.8825C4.04021 12.4614 11.4878 6.08466 20.4444 6.08466C29.4011 6.08466 36.8487 12.4614 38.5524 20.8825C37.5788 20.2984 36.3619 19.9577 35.0476 19.9577Z" fill="#8C9C9A"/>
<path d="M19.4711 41.8138C19.3737 43.0794 18.3515 44.0529 17.0372 44.0529C15.6742 44.0529 14.6033 42.982 14.6033 41.6191C14.6033 41.0836 14.1652 40.6455 13.6298 40.6455C13.0943 40.6455 12.6562 41.0836 12.6562 41.6191C12.6562 44.0529 14.6033 46 17.0372 46C19.3737 46 21.2721 44.1503 21.4182 41.8624V41.8138H19.4711Z" fill="#8C9C9A"/>
</g>
<path d="M20.9291 30.0257C21.1731 30.1233 21.4171 30.2209 21.6123 30.3185C21.8075 30.465 21.9539 30.6114 22.0516 30.7578C22.1492 30.9042 22.2468 31.0994 22.3444 31.2946L23.7108 30.8066C23.5156 30.2697 23.174 29.7329 22.686 29.3425C22.198 28.9033 21.6123 28.6593 20.8315 28.5129V27H19.3674V28.4641V29.9281C19.5626 29.8793 19.7578 29.8793 19.9531 29.8793C20.3435 29.9281 20.6851 29.9281 20.9291 30.0257Z" fill="#8C9C9A"/>
<path d="M17.2201 38.4684C17.8057 38.9076 18.5377 39.2004 19.4162 39.2981V40.8109H20.8802V39.3469V37.8828C20.685 37.9316 20.4898 37.9316 20.2458 37.9316C19.465 37.9316 18.8793 37.7852 18.3913 37.4924C17.9033 37.1996 17.5617 36.8579 17.3665 36.4675L16 36.9556C16.244 37.4924 16.6344 38.0292 17.2201 38.4684Z" fill="#8C9C9A"/>
<path d="M17.22 33.393C17.5128 33.637 17.9032 33.8322 18.3425 33.9786C18.7817 34.125 19.2697 34.3202 19.8065 34.4666C20.2458 34.613 20.685 34.7106 21.0266 34.857C21.3682 34.9546 21.661 35.101 21.905 35.2474C22.149 35.3939 22.2954 35.5403 22.4419 35.7355C22.5395 35.9307 22.6371 36.1259 22.6371 36.3699C22.6371 36.6139 22.5883 36.8091 22.4419 37.0043C22.3442 37.1995 22.149 37.3459 21.9538 37.4923C21.905 37.4923 21.905 37.5411 21.8562 37.5411V39.1516C22.0026 39.1028 22.1978 39.054 22.3442 38.9564C22.7347 38.7612 23.0763 38.566 23.3691 38.2732C23.6619 37.9804 23.8571 37.6876 24.0035 37.3459C24.1499 37.0043 24.1987 36.6139 24.1987 36.2235C24.1987 35.7355 24.1011 35.345 23.9059 35.0034C23.7107 34.6618 23.4667 34.369 23.1251 34.125C22.7835 33.881 22.3931 33.6858 21.905 33.4906C21.4658 33.2954 20.929 33.149 20.3922 33.0025C19.5625 32.7585 18.9281 32.5145 18.5377 32.3193C18.1473 32.0753 17.9521 31.7825 17.9521 31.3433C17.9521 31.1481 18.0009 31.0017 18.0497 30.8064C18.1473 30.6112 18.2449 30.4648 18.4401 30.3184C18.4889 30.2696 18.5377 30.2208 18.5865 30.2208V28.6104C18.0497 28.7568 17.6104 29.0008 17.2688 29.3424C16.732 29.8792 16.4392 30.5136 16.3904 31.2945C16.3904 31.7825 16.4392 32.1729 16.6344 32.4657C16.6832 32.8561 16.8784 33.149 17.22 33.393Z" fill="#8C9C9A"/>
<defs>
<clipPath id="clip0">
<rect width="40.8889" height="46" fill="white"/>
</clipPath>
</defs>
</svg>
