<svg width="42" height="46" viewBox="0 0 42 46" fill="none" xmlns="http://www.w3.org/2000/svg">
<g clip-path="url(#clip0)">
<path d="M39.7537 21.1555L40.9427 20.9749C40.891 20.4847 40.8393 19.9687 40.7617 19.4785L39.5728 19.7623C39.6503 20.2267 39.7278 20.6911 39.7537 21.1555Z" fill="#8C9C9A"/>
<path d="M39.3145 18.3689L40.4777 18.0077C40.3743 17.5176 40.245 17.0274 40.0899 16.563L38.9526 17.0016C39.0819 17.466 39.2111 17.9045 39.3145 18.3689Z" fill="#8C9C9A"/>
<path d="M37.3243 13.1836L38.3582 12.5128C38.1256 12.1 37.8671 11.6614 37.5828 11.2744L36.6006 12.0226C36.8591 12.3838 37.0917 12.7708 37.3243 13.1836Z" fill="#8C9C9A"/>
<path d="M39.4951 26.8824L40.6583 27.063C40.7617 26.5728 40.8392 26.0568 40.8909 25.5667L39.7019 25.4893C39.6502 25.9278 39.5727 26.418 39.4951 26.8824Z" fill="#8C9C9A"/>
<path d="M36.7556 10.062C36.4713 9.67501 36.1353 9.31383 35.8251 8.95264L34.9463 9.82981C35.2565 10.1652 35.5408 10.5264 35.8251 10.8876L36.7556 10.062Z" fill="#8C9C9A"/>
<path d="M38.4871 15.6856L39.5986 15.1696C39.4177 14.7052 39.2367 14.2408 39.0299 13.8022L37.9443 14.3956C38.1511 14.8342 38.332 15.247 38.4871 15.6856Z" fill="#8C9C9A"/>
<path d="M41.0205 22.4971L39.8315 22.6003C39.8315 23.0647 39.8315 23.5548 39.8057 24.045H40.9947C41.0464 23.5032 41.0464 22.9873 41.0205 22.4971Z" fill="#8C9C9A"/>
<path d="M1.47321 26.2378L0.310059 26.5216C0.387602 27.0118 0.490993 27.502 0.620231 27.9921L1.78338 27.631C1.65414 27.1924 1.55075 26.7022 1.47321 26.2378Z" fill="#8C9C9A"/>
<path d="M2.14511 28.9985L1.00781 29.4371C1.1629 29.9015 1.31798 30.3917 1.49892 30.8303L2.61037 30.2885C2.42944 29.8757 2.27435 29.4371 2.14511 28.9985Z" fill="#8C9C9A"/>
<path d="M3.56689 34.7516C3.82537 35.1644 4.13554 35.5514 4.41987 35.9384L5.35039 35.1128C5.06606 34.7516 4.80758 34.3904 4.54911 34.0034L3.56689 34.7516Z" fill="#8C9C9A"/>
<path d="M1.29239 20.5359L0.103391 20.4585C0.0516954 20.9745 0.0258477 21.4647 0 21.9806H1.18899C1.21484 21.5163 1.24069 21.0261 1.29239 20.5359Z" fill="#8C9C9A"/>
<path d="M6.22941 36.145L5.35059 37.0222C5.68661 37.3834 6.02263 37.7188 6.35865 38.0542L7.18577 37.0996C6.8756 36.8158 6.53958 36.4804 6.22941 36.145Z" fill="#8C9C9A"/>
<path d="M3.15351 31.5781L2.09375 32.1715C2.30053 32.6101 2.53316 33.0487 2.76579 33.4873L3.7997 32.8165C3.59292 32.4295 3.36029 32.0167 3.15351 31.5781Z" fill="#8C9C9A"/>
<path d="M1.78338 17.6984L0.620231 17.4404C0.490993 17.9306 0.387602 18.4466 0.310059 18.9368L1.47321 19.0916C1.5766 18.653 1.67999 18.1628 1.78338 17.6984Z" fill="#8C9C9A"/>
<path d="M1.18899 23.4258L0 23.529C0.0258477 24.045 0.0516954 24.5351 0.103391 25.0511L1.29239 24.8447C1.24069 24.3804 1.21484 23.8902 1.18899 23.4258Z" fill="#8C9C9A"/>
<path d="M39.5471 29.179C39.2111 29.05 38.8234 29.2306 38.6942 29.566C35.6958 37.538 27.6314 42.672 19.1792 42.2077L20.8334 41.2015C21.1436 41.0209 21.2211 40.6081 21.0402 40.3243C20.8593 40.0147 20.4457 39.9373 20.1614 40.1179L16.9304 42.1045C16.7753 42.2077 16.6461 42.3624 16.6202 42.5688C16.5944 42.7494 16.6461 42.9558 16.7753 43.0848L19.2567 45.7937C19.4893 46.0517 19.9029 46.0775 20.1614 45.8453C20.2131 45.7937 20.2648 45.7163 20.3165 45.6647C20.4198 45.4326 20.394 45.1488 20.2131 44.9424L18.9207 43.5234C28.0191 44.1168 36.678 38.6216 39.909 30.0562V30.0304C40.0641 29.6692 39.8832 29.308 39.5471 29.179Z" fill="#8C9C9A"/>
<path d="M1.65429 16.0729C1.99031 16.2019 2.37803 16.0471 2.50727 15.7117C5.73823 7.94615 13.6218 3.1475 21.9447 3.71508L20.3163 4.85025C20.032 5.05664 19.9545 5.46943 20.1612 5.75322C20.368 6.03701 20.7816 6.11441 21.0659 5.90802L24.1676 3.74088C24.2452 3.68928 24.3227 3.58609 24.3744 3.50869C24.4003 3.43129 24.4261 3.35389 24.4261 3.2765C24.452 3.0959 24.3744 2.88951 24.2193 2.76051L21.6087 0.180589C21.3502 -0.077403 20.9367 -0.0516038 20.7041 0.206388C20.4456 0.464381 20.4714 0.877168 20.7299 1.10936L22.074 2.39932C13.1565 1.80594 4.75602 6.91419 1.29242 15.2215C1.16319 15.5569 1.31827 15.9439 1.65429 16.0729Z" fill="#8C9C9A"/>
<path d="M14.6299 27.5536C14.6816 27.76 14.8108 27.9148 14.9918 28.018L16.8786 29.0241L16.4909 29.7465C16.31 30.1077 16.4392 30.5205 16.7752 30.7269C17.1371 30.9075 17.5507 30.7785 17.7575 30.4431L18.171 29.6949L20.0579 30.7011C20.2388 30.8043 20.4456 30.8043 20.6524 30.7269C21.1435 30.5463 21.6088 30.3141 22.0482 30.0561L23.7024 34.184C23.8575 34.5452 24.2711 34.7258 24.6329 34.571C24.7105 34.5452 24.7622 34.4936 24.8139 34.4678C25.8219 33.539 26.6749 32.4554 27.2953 31.2429C29.7249 26.7022 29.7508 25.3864 28.5359 22.8581C28.6135 22.7033 28.7169 22.5485 28.7944 22.3679C30.6296 18.9366 31.6377 13.9316 31.7411 10.1391C31.7669 10.0359 31.7669 9.93272 31.7411 9.85532C31.7928 7.327 31.405 5.39206 30.5779 4.95347C29.5182 4.38589 27.3986 5.59845 25.7444 6.73361C25.7185 6.75941 25.6927 6.75941 25.6669 6.78521C25.0724 7.198 24.5554 7.61079 24.1677 7.92038C21.1177 10.4229 18.5329 13.3898 17.0596 16.1245C16.982 16.2793 16.8786 16.4341 16.8011 16.6147C14.0095 17.0017 12.9239 17.7757 10.4942 22.3163C9.84806 23.5031 9.40864 24.8189 9.20186 26.1604C9.15017 26.5474 9.43449 26.9086 9.84806 26.9602C9.9256 26.9602 10.0031 26.9602 10.0807 26.9602L14.4489 26.0572C14.4489 26.5474 14.5006 27.0634 14.6299 27.5536ZM20.3939 29.2821L18.8172 28.4308L21.3761 23.6321C23.0821 24.5351 24.2452 25.2575 24.8397 25.6702C23.4181 27.373 21.8672 28.6371 20.3939 29.2821ZM26.0029 30.5979C25.6152 31.3203 25.1241 32.0168 24.5813 32.6618L23.2113 29.2305C24.3745 28.3276 25.4084 27.2956 26.313 26.1346C26.3906 26.083 26.4423 26.0056 26.494 25.9282C26.8817 25.438 27.2694 24.8963 27.6054 24.3545C28.1741 25.8766 27.9415 27.0118 26.0029 30.5979ZM29.9059 6.24343C30.1127 6.52722 30.2419 7.3012 30.2936 8.41056C29.9834 8.20417 29.5699 7.97198 29.1046 7.73978C28.6393 7.50759 28.1999 7.2754 27.8639 7.1206C28.8203 6.52722 29.544 6.21763 29.9059 6.24343ZM18.3261 16.7953C20.2388 13.235 23.6766 10.0359 26.3647 8.10097H26.3906C27.1143 8.30737 27.7864 8.61696 28.4584 9.00395C29.1304 9.33933 29.7508 9.72632 30.3194 10.2165C30.2161 13.5188 29.4406 18.2143 27.5537 21.723C27.0368 22.7033 26.4423 23.6579 25.7702 24.5609C25.5376 24.4061 25.2533 24.2255 24.9173 24.0191C24.1418 23.5547 23.1596 22.9871 22.074 22.3937L23.1338 20.4072C23.3147 20.046 23.1855 19.6332 22.8495 19.4268C22.4876 19.2462 22.074 19.3752 21.8672 19.7106L20.8075 21.6972C19.7219 21.1296 18.688 20.6136 17.8867 20.2266C17.5507 20.0718 17.2405 19.917 16.982 19.8138C17.3439 18.8076 17.8092 17.7757 18.3261 16.7953ZM20.1354 22.9613L17.5765 27.76L15.9998 26.9086C15.7155 25.3348 15.9223 23.3483 16.5426 21.207C17.163 21.4908 18.4295 22.0841 20.1354 22.9613ZM11.7866 22.9613C13.6994 19.401 14.5006 18.5497 16.0774 18.1627C15.8189 18.756 15.5862 19.3752 15.3795 19.9686C15.3278 20.046 15.3019 20.1492 15.3019 20.2266C14.8367 21.6198 14.5523 23.0645 14.4489 24.5093L10.8303 25.2832C11.0629 24.5093 11.3731 23.7095 11.7866 22.9613Z" fill="#8C9C9A"/>
<path d="M16.1807 31.8362C15.8188 31.6556 15.4053 31.7846 15.1985 32.12L10.2357 41.3561C10.0548 41.7173 10.184 42.1301 10.5201 42.3364C10.8819 42.517 11.2955 42.388 11.5023 42.0527L16.465 32.8165C16.6718 32.4554 16.5426 32.0168 16.1807 31.8362Z" fill="#8C9C9A"/>
<path d="M14.5004 29.1018C14.1386 28.9212 13.725 29.0502 13.5182 29.3856L11.2953 33.5135C11.1144 33.8746 11.2436 34.2874 11.5796 34.4938C11.9415 34.6744 12.3551 34.5454 12.5618 34.21L14.7848 30.0822C14.9915 29.721 14.8365 29.2824 14.5004 29.1018Z" fill="#8C9C9A"/>
<path d="M17.473 36.8155L19.6959 32.6876C19.8768 32.3264 19.7476 31.9137 19.4116 31.7073C19.0497 31.5267 18.6361 31.6557 18.4293 31.9911L16.2064 36.1189C16.0255 36.4801 16.1547 36.8929 16.4908 37.0993C16.8526 37.3057 17.292 37.1767 17.473 36.8155Z" fill="#8C9C9A"/>
<path d="M23.5988 17.982C25.1496 18.8076 27.0882 18.2142 27.9153 16.6662C28.7425 15.1183 28.148 13.1833 26.5971 12.3578C25.0721 11.558 23.1335 12.1256 22.3064 13.6735C21.4793 15.2215 22.0479 17.1564 23.5988 17.982ZM23.5729 14.3701C24.0382 13.5187 25.0979 13.2091 25.9509 13.6477C26.8039 14.1121 27.1141 15.1699 26.6746 16.0213C26.2094 16.8726 25.1496 17.1822 24.2967 16.7436C23.4178 16.2792 23.1077 15.2215 23.5729 14.3701Z" fill="#8C9C9A"/>
</g>
<defs>
<clipPath id="clip0">
<rect width="41.0462" height="46" fill="white"/>
</clipPath>
</defs>
</svg>
