<svg width="43" height="44" viewBox="0 0 43 44" fill="none" xmlns="http://www.w3.org/2000/svg">
<path d="M32.1909 7.15345C32.466 7.23206 32.7018 7.34998 32.8984 7.5072C33.0949 7.66442 33.2521 7.82164 33.37 7.97886C33.4879 8.13609 33.6059 8.33261 33.6845 8.52914L35.1781 8.01817C34.9422 7.42859 34.5885 6.87832 34.0775 6.44596C33.5665 5.97429 32.8984 5.69916 32.1123 5.54194V3.93042H30.54V5.50263V7.07484C30.7366 7.03554 30.9724 7.03554 31.2082 7.03554C31.562 7.03554 31.9157 7.07484 32.1909 7.15345Z" fill="#8C9C9A"/>
<path d="M28.2214 16.2331C28.8503 16.7047 29.6364 17.0192 30.5404 17.1371V18.7486H32.1126V17.1764V15.5649C31.9161 15.6042 31.6803 15.6042 31.4444 15.6042C30.619 15.6042 29.9508 15.447 29.4399 15.1325C28.9289 14.8181 28.5751 14.4643 28.3393 14.032L26.8457 14.543C27.1208 15.2111 27.5925 15.7614 28.2214 16.2331Z" fill="#8C9C9A"/>
<path d="M28.1819 10.7696C28.4963 11.0054 28.8893 11.2413 29.361 11.3985C29.8327 11.595 30.3436 11.7522 30.9332 11.9095C31.4442 12.0667 31.8372 12.1846 32.2303 12.3025C32.584 12.4204 32.8985 12.5776 33.1736 12.6956C33.4095 12.8528 33.606 13.01 33.7239 13.2065C33.8418 13.4031 33.9204 13.5996 33.9204 13.8747C33.9204 14.1499 33.8418 14.3857 33.7239 14.5822C33.606 14.7787 33.4095 14.9753 33.2129 15.1325C33.1736 15.1718 33.1343 15.1718 33.095 15.2111V16.9798C33.2522 16.9405 33.4488 16.8619 33.606 16.7833C34.0383 16.5868 34.3921 16.351 34.7065 16.0365C35.021 15.7221 35.2175 15.4076 35.3747 15.0539C35.5319 14.7001 35.6106 14.3071 35.6106 13.8747C35.6106 13.3638 35.4926 12.9314 35.2961 12.5776C35.0996 12.2239 34.7851 11.9095 34.4314 11.6343C34.0776 11.3592 33.6453 11.1627 33.1343 10.9661C32.6234 10.7696 32.1124 10.6124 31.5228 10.4552C30.6188 10.2193 29.9506 9.94419 29.5182 9.70836C29.0859 9.47253 28.8893 9.11878 28.8893 8.68642C28.8893 8.4899 28.9287 8.29337 29.0073 8.09684C29.0859 7.90032 29.2038 7.74309 29.4003 7.58587C29.4396 7.54657 29.5182 7.50726 29.5575 7.46796V5.73853C29.0073 5.89575 28.4963 6.17088 28.1425 6.52463C27.553 7.07491 27.2385 7.7824 27.1992 8.64712C27.1992 9.15809 27.2778 9.59044 27.4351 9.94419C27.5923 10.2193 27.8674 10.5338 28.1819 10.7696Z" fill="#8C9C9A"/>
<path d="M43 11.7916C43 5.30622 37.6938 0 31.2084 0C24.723 0 19.4168 5.30622 19.4168 11.7916C19.4168 17.1371 23.0329 21.6965 27.9461 23.1115L25.4698 25.5878C24.723 25.1947 23.819 24.9589 22.915 24.9589C22.011 24.9589 21.1069 25.1947 20.3601 25.5878L18.4735 23.7011C19.0631 22.8757 19.4561 21.8931 19.4561 20.7925C19.4561 18.1197 17.2943 15.9186 14.5823 15.9186C11.8702 15.9186 9.70841 18.1197 9.70841 20.8318C9.70841 22.1289 10.2194 23.2687 11.0448 24.1335L5.8958 30.5402C2.63346 30.7367 0 33.4488 0 36.7898C0 40.2486 2.79068 43.0393 6.24954 43.0393H37.458V21.8144C40.7989 19.692 43 15.9973 43 11.7916ZM29.5576 23.4653C29.872 23.5046 30.1865 23.5439 30.5402 23.5439V41.6243H26.3739V34.8638C27.6316 33.8419 28.457 32.2697 28.457 30.5402C28.457 28.8894 27.7495 27.4351 26.6097 26.4132L29.5576 23.4653ZM22.915 36.0823C23.6618 36.0823 24.3693 35.925 24.9982 35.6892V41.6636H20.8318V35.6892C21.4607 35.925 22.1682 36.0823 22.915 36.0823ZM27.042 30.5402C27.042 32.8199 25.1554 34.7066 22.8757 34.7066C20.596 34.7066 18.7093 32.8199 18.7093 30.5402C18.7093 28.2605 20.596 26.3739 22.8757 26.3739C25.1554 26.3739 27.042 28.2212 27.042 30.5402ZM17.3336 30.5402C17.3336 32.2697 18.159 33.8419 19.4168 34.8638V41.6243H15.2505V25.6271C16.0759 25.5091 16.8227 25.1947 17.4516 24.723L19.181 26.4525C18.0411 27.4351 17.3336 28.8894 17.3336 30.5402ZM14.5823 17.3336C16.5082 17.3336 18.0411 18.9059 18.0411 20.7925C18.0411 22.6792 16.4689 24.2514 14.5823 24.2514C12.6956 24.2514 11.1234 22.6792 11.1234 20.7925C11.1234 18.9059 12.6563 17.3336 14.5823 17.3336ZM1.37569 36.7898C1.37569 34.117 3.53748 31.9159 6.24954 31.9159C8.96161 31.9159 11.1234 34.0777 11.1234 36.7898C11.1234 39.5018 8.96161 41.6636 6.24954 41.6636C3.53748 41.6636 1.37569 39.4625 1.37569 36.7898ZM12.4991 36.7898C12.4991 33.8026 10.3766 31.287 7.58592 30.6974L12.1453 25.0375C12.6956 25.3519 13.2852 25.5484 13.9141 25.6664V41.6636H10.1801C11.5951 40.4845 12.4991 38.7157 12.4991 36.7898ZM36.0823 41.6243H31.9159V23.5439C33.4095 23.4653 34.7852 23.1115 36.0823 22.5219V41.6243ZM31.2084 22.2075C25.4698 22.2075 20.8318 17.5302 20.8318 11.7916C20.8318 6.05302 25.4698 1.37569 31.2084 1.37569C36.947 1.37569 41.6243 6.05302 41.6243 11.7916C41.6243 17.5302 36.947 22.2075 31.2084 22.2075Z" fill="#8C9C9A"/>
<path d="M6.24939 33.2917C4.32343 33.2917 2.79053 34.864 2.79053 36.7506C2.79053 38.6373 4.36274 40.2095 6.24939 40.2095C8.13605 40.2095 9.70826 38.6373 9.70826 36.7506C9.70826 34.864 8.17535 33.2917 6.24939 33.2917ZM6.24939 38.8731C5.10954 38.8731 4.16621 37.9298 4.16621 36.7899C4.16621 35.6501 5.10954 34.7067 6.24939 34.7067C7.38925 34.7067 8.33258 35.6501 8.33258 36.7899C8.33258 37.9298 7.38925 38.8731 6.24939 38.8731Z" fill="#8C9C9A"/>
<path d="M22.9152 33.2916C24.4481 33.2916 25.7059 32.0338 25.7059 30.5009C25.7059 28.968 24.4481 27.7102 22.9152 27.7102C21.3823 27.7102 20.1245 28.968 20.1245 30.5009C20.1245 32.0731 21.3823 33.2916 22.9152 33.2916ZM22.9152 29.1252C23.662 29.1252 24.2909 29.7541 24.2909 30.5009C24.2909 31.2477 23.662 31.8766 22.9152 31.8766C22.1684 31.8766 21.5395 31.2477 21.5395 30.5009C21.5002 29.7541 22.1291 29.1252 22.9152 29.1252Z" fill="#8C9C9A"/>
<path d="M14.5822 22.9151C15.7221 22.9151 16.6654 21.9718 16.6654 20.832C16.6654 19.6921 15.7221 18.7488 14.5822 18.7488C13.4424 18.7488 12.499 19.6921 12.499 20.832C12.499 21.9718 13.4424 22.9151 14.5822 22.9151ZM14.5822 20.1245C14.9753 20.1245 15.2897 20.4389 15.2897 20.832C15.2897 21.225 14.9753 21.5395 14.5822 21.5395C14.1892 21.5395 13.8747 21.225 13.8747 20.832C13.8747 20.4389 14.1892 20.1245 14.5822 20.1245Z" fill="#8C9C9A"/>
</svg>
