<svg width="44" height="44" viewBox="0 0 44 44" fill="none" xmlns="http://www.w3.org/2000/svg">
<g clip-path="url(#clip0)">
<path d="M39.6825 10.8451L40.755 10.158C40.48 9.71832 40.205 9.27859 39.9025 8.83887L38.885 9.60839C39.16 10.0206 39.435 10.4329 39.6825 10.8451Z" fill="#8C9C9A"/>
<path d="M42.0201 16.3142L43.2301 15.9569C43.0926 15.4622 42.9276 14.94 42.7626 14.4453L41.5801 14.885C41.7176 15.3522 41.8826 15.8469 42.0201 16.3142Z" fill="#8C9C9A"/>
<path d="M28.9026 0.649059C28.4076 0.484162 27.9126 0.346748 27.4176 0.236816L27.1426 1.47354C27.6101 1.58348 28.0776 1.72089 28.5451 1.88579L28.9026 0.649059Z" fill="#8C9C9A"/>
<path d="M22.3301 0.868841C22.4951 0.868841 22.6601 0.868841 22.8526 0.868841L22.8801 -0.422852C22.7151 -0.422852 22.5226 -0.422852 22.3576 -0.422852C22.0276 -0.422852 21.6701 -0.422852 21.3401 -0.395369L21.3951 0.896324C21.6976 0.896324 22.0001 0.868841 22.3301 0.868841Z" fill="#8C9C9A"/>
<path d="M31.7626 1.803C31.2951 1.58314 30.8276 1.36328 30.3601 1.1709L29.8926 2.38014C30.3326 2.57252 30.7726 2.7649 31.2126 2.98477L31.7626 1.803Z" fill="#8C9C9A"/>
<path d="M25.9326 -0.120608C25.4376 -0.203057 24.9151 -0.285505 24.4201 -0.312988L24.3101 0.978705C24.7776 1.03367 25.2726 1.08864 25.7401 1.17108L25.9326 -0.120608Z" fill="#8C9C9A"/>
<path d="M42.57 19.2275L43.8075 19.0626C43.7525 18.5404 43.67 18.0183 43.56 17.4961L42.3225 17.7434C42.4325 18.2381 42.515 18.7328 42.57 19.2275Z" fill="#8C9C9A"/>
<path d="M42.185 12.9887C41.9925 12.494 41.745 12.0268 41.525 11.5596L40.425 12.1642C40.645 12.6039 40.865 13.0436 41.0575 13.5109L42.185 12.9887Z" fill="#8C9C9A"/>
<path d="M43.9726 20.6567L42.7351 20.7392C42.7626 21.1514 42.7626 21.5637 42.7626 21.9484V22.2233L44.0276 22.2507V21.9759C44.0001 21.5087 43.9726 21.069 43.9726 20.6567Z" fill="#8C9C9A"/>
<path d="M42.5151 25.1911L43.7526 25.3835C43.8351 24.8613 43.8901 24.3391 43.9451 23.817L42.7076 23.707C42.6251 24.2017 42.5701 24.6964 42.5151 25.1911Z" fill="#8C9C9A"/>
<path d="M42.46 25.1638L43.6975 25.3836C43.8075 24.8615 43.89 24.3393 43.945 23.8171L42.7075 23.6797C42.625 24.2019 42.5425 24.6966 42.46 25.1638Z" fill="#8C9C9A"/>
<path d="M43.3126 26.9504L42.1026 26.6206C41.9926 27.0054 41.8826 27.3901 41.7451 27.7749L41.6626 28.0222L42.8451 28.4345L42.9276 28.1596C43.0926 27.7749 43.2026 27.3626 43.3126 26.9504Z" fill="#8C9C9A"/>
<path d="M0.825 18.1004C1.28063 18.1004 1.65 17.719 1.65 17.2485C1.65 16.7779 1.28063 16.3965 0.825 16.3965C0.369365 16.3965 0 16.7779 0 17.2485C0 17.719 0.369365 18.1004 0.825 18.1004Z" fill="#8C9C9A"/>
<path d="M3.65728 18.1004C4.09728 18.1004 4.48228 17.7157 4.48228 17.2485C4.48228 16.7812 4.12478 16.3965 3.65728 16.3965C3.21728 16.3965 2.83228 16.7812 2.83228 17.2485C2.83228 17.7157 3.18978 18.1004 3.65728 18.1004Z" fill="#8C9C9A"/>
<path d="M0.852588 20.931C1.30822 20.931 1.67759 20.5495 1.67759 20.079C1.67759 19.6085 1.30822 19.2271 0.852588 19.2271C0.396953 19.2271 0.0275879 19.6085 0.0275879 20.079C0.0275879 20.5495 0.396953 20.931 0.852588 20.931Z" fill="#8C9C9A"/>
<path d="M3.68486 20.931C4.1405 20.931 4.50986 20.5495 4.50986 20.079C4.50986 19.6085 4.1405 19.2271 3.68486 19.2271C3.22923 19.2271 2.85986 19.6085 2.85986 20.079C2.85986 20.5495 3.22923 20.931 3.68486 20.931Z" fill="#8C9C9A"/>
<path d="M0.825 23.6522C1.28063 23.6522 1.65 23.2707 1.65 22.8002C1.65 22.3297 1.28063 21.9482 0.825 21.9482C0.369365 21.9482 0 22.3297 0 22.8002C0 23.2707 0.369365 23.6522 0.825 23.6522Z" fill="#8C9C9A"/>
<path d="M3.65728 23.6248C4.09728 23.6248 4.48228 23.2401 4.48228 22.7729C4.48228 22.3057 4.12478 21.9209 3.65728 21.9209C3.21728 21.9209 2.83228 22.3057 2.83228 22.7729C2.83228 23.2401 3.18978 23.6248 3.65728 23.6248Z" fill="#8C9C9A"/>
<path d="M3.68486 26.4554C4.1405 26.4554 4.50986 26.074 4.50986 25.6034C4.50986 25.1329 4.1405 24.7515 3.68486 24.7515C3.22923 24.7515 2.85986 25.1329 2.85986 25.6034C2.85986 26.074 3.22923 26.4554 3.68486 26.4554Z" fill="#8C9C9A"/>
<path d="M3.68486 8.06934C3.24486 8.06934 2.85986 8.4541 2.85986 8.9213C2.85986 9.38851 3.21736 9.77327 3.68486 9.77327C4.15236 9.77327 4.50986 9.38851 4.50986 8.9213C4.50986 8.4541 4.12486 8.06934 3.68486 8.06934Z" fill="#8C9C9A"/>
<path d="M0.825 12.4945C1.265 12.4945 1.65 12.1097 1.65 11.6425C1.65 11.1753 1.2925 10.7905 0.825 10.7905C0.3575 10.7905 0 11.1753 0 11.6425C0 12.1097 0.3575 12.4945 0.825 12.4945Z" fill="#8C9C9A"/>
<path d="M3.65728 12.4945C4.09728 12.4945 4.48228 12.1097 4.48228 11.6425C4.48228 11.1753 4.12478 10.7905 3.65728 10.7905C3.21728 10.7905 2.83228 11.1753 2.83228 11.6425C2.83228 12.1097 3.18978 12.4945 3.65728 12.4945Z" fill="#8C9C9A"/>
<path d="M0.852588 13.6211C0.412588 13.6211 0.0275879 14.0059 0.0275879 14.4731C0.0275879 14.9403 0.385088 15.325 0.852588 15.325C1.32009 15.325 1.67759 14.9403 1.67759 14.4731C1.67759 13.9784 1.29259 13.6211 0.852588 13.6211Z" fill="#8C9C9A"/>
<path d="M3.68486 13.6211C3.24486 13.6211 2.85986 14.0059 2.85986 14.4731C2.85986 14.9403 3.21736 15.325 3.68486 15.325C4.15236 15.325 4.50986 14.9403 4.50986 14.4731C4.50986 13.9784 4.12486 13.6211 3.68486 13.6211Z" fill="#8C9C9A"/>
<path d="M28.521 41.5598C28.6234 41.054 28.3081 40.5634 27.8168 40.4641C27.3255 40.3649 26.8443 40.6944 26.742 41.2003C26.6396 41.7061 26.9549 42.1967 27.4462 42.296C27.9374 42.3952 28.4187 42.0657 28.521 41.5598Z" fill="#8C9C9A"/>
<path d="M31.4768 40.5803C31.5792 40.0745 31.2639 39.5839 30.7726 39.4847C30.2813 39.3854 29.8001 39.715 29.6978 40.2208C29.5954 40.7267 29.9107 41.2172 30.402 41.3165C30.8933 41.4157 31.3745 41.0862 31.4768 40.5803Z" fill="#8C9C9A"/>
<path d="M14.0798 11.9444C17.1323 11.0375 18.9198 7.73954 18.0398 4.55153C17.8748 3.89194 17.6273 3.34229 17.3248 2.90256L17.9298 2.43535C18.0948 2.29794 18.1498 2.05059 18.0123 1.85821C16.8298 0.236727 15.0148 -0.80762 13.0623 -1C12.9523 -1 12.8423 -0.972517 12.7873 -0.917552C12.7048 -0.835103 12.6498 -0.752655 12.6498 -0.642723L12.5948 0.154279C11.4673 0.154279 10.3948 0.484072 9.40482 1.08869C7.31482 2.43535 6.13232 5.12867 6.87482 7.7945C7.75482 10.9825 10.9723 12.8513 14.0798 11.9444ZM13.3648 -0.148033C14.8498 0.07183 16.1973 0.868832 17.1598 2.02311L12.9523 5.15615L13.3648 -0.148033ZM12.5123 0.978763L12.2098 4.79888L10.1473 1.58339C10.8623 1.22611 11.6873 1.00625 12.5123 0.978763ZM9.48732 2.02311C12.3473 6.47533 12.1548 6.2005 12.1823 6.25547C12.3198 6.42036 12.5398 6.44784 12.7048 6.33791L16.6923 3.36977C16.9398 3.75453 17.1323 4.22174 17.2973 4.77139C18.0673 7.51968 16.5273 10.4054 13.8598 11.1749C11.1923 11.9444 8.38732 10.3504 7.61732 7.60212C7.06732 5.51343 7.80982 3.28732 9.48732 2.02311Z" fill="#8C9C9A"/>
<path d="M13.5299 10.4879C13.7499 10.433 13.8874 10.1581 13.8324 9.93827C13.7774 9.69092 13.5299 9.55351 13.2824 9.63596C11.6874 10.1032 10.0099 9.14127 9.54236 7.4923C9.48736 7.24495 9.23986 7.10754 8.99236 7.18999C8.77236 7.24495 8.63486 7.51978 8.68986 7.73964C9.29486 9.82834 11.4674 11.0925 13.5299 10.4879Z" fill="#8C9C9A"/>
<path d="M36.4101 33.6285C36.7126 33.8209 37.2626 34.0133 38.0326 34.1781C39.2151 34.453 40.0676 34.8103 40.5901 35.2775C41.1126 35.7172 41.3601 36.3218 41.3601 37.0364C41.3601 37.7234 41.0851 38.2731 40.5626 38.7128C40.0401 39.1526 39.2976 39.3999 38.3626 39.4823V41.1863H37.0701V39.4823C36.0526 39.3724 35.2276 39.0976 34.6226 38.5754C34.0176 38.0807 33.7151 37.4211 33.7151 36.6516H35.6951C35.6951 37.6135 36.3826 38.1082 37.7576 38.1082C38.2801 38.1082 38.6926 38.0258 38.9951 37.8334C39.2976 37.641 39.4351 37.3936 39.4351 37.0639C39.4351 36.7341 39.2976 36.4592 39.0226 36.2668C38.7476 36.0745 38.1976 35.8821 37.3726 35.6897C36.5476 35.4973 35.9151 35.2775 35.4201 35.0301C34.9526 34.7828 34.5951 34.4805 34.3751 34.1507C34.1551 33.8209 34.0451 33.4086 34.0451 32.9414C34.0451 32.2543 34.3201 31.7047 34.8701 31.2375C35.4201 30.7703 36.1626 30.5229 37.0701 30.4405V28.7915H38.3626V30.468C39.2701 30.5779 39.9851 30.8802 40.5351 31.3474C41.0851 31.8421 41.3601 32.4467 41.3601 33.1613H39.4076C39.4076 32.749 39.2426 32.4192 38.9126 32.1994C38.5826 31.952 38.1426 31.8421 37.6201 31.8421C37.0976 31.8421 36.7126 31.952 36.4101 32.1444C36.1076 32.3368 35.9701 32.6116 35.9701 32.9139C35.9426 33.1888 36.1076 33.4361 36.4101 33.6285Z" fill="#8C9C9A"/>
<path d="M32.615 32.9962C32.615 32.7763 32.6425 32.5839 32.67 32.3641H9.46003C9.29503 32.3641 9.15753 32.1992 9.15753 31.9793V26.5927C9.15753 26.4003 9.29503 26.2079 9.46003 26.2079H11.9625C12.1275 26.2079 12.265 26.3728 12.265 26.5927V31.622H15.125V22.1954C15.125 22.0031 15.2625 21.8107 15.4275 21.8107H17.93C18.095 21.8107 18.2325 21.9756 18.2325 22.1954V31.622H21.12V11.9169C21.12 11.7245 21.2575 11.5321 21.4225 11.5321H23.925C24.09 11.5321 24.2275 11.697 24.2275 11.9169V31.622H27.115V15.0224C27.115 14.83 27.2525 14.6377 27.4175 14.6377H29.92C30.085 14.6377 30.2225 14.8026 30.2225 15.0224V31.622H32.835C32.9175 31.4297 33 31.2648 33.11 31.0999V5.34847C33.11 5.15609 33.2475 4.96371 33.4125 4.96371H35.915C36.08 4.96371 36.2175 5.12861 36.2175 5.34847C36.2175 5.54085 36.2725 19.4197 36.3 27.4172H37.015H37.4C37.3725 19.5846 37.3175 6.11799 37.3175 5.32099C37.3175 4.4965 36.685 3.83691 35.915 3.83691H33.4125C32.6425 3.83691 32.01 4.4965 32.01 5.32099V30.5227H31.35V15.0224C31.35 14.1979 30.7175 13.5384 29.9475 13.5384H27.445C26.675 13.5384 26.0425 14.1979 26.0425 15.0224V30.5227H25.355V11.9169C25.355 11.0924 24.7225 10.4328 23.9525 10.4328H21.45C20.68 10.4328 20.0475 11.0924 20.0475 11.9169V30.5227H19.36V22.1954C19.36 21.371 18.7275 20.7114 17.9575 20.7114H15.4C14.63 20.7114 13.9975 21.371 13.9975 22.1954V30.5227H13.3375V26.5927C13.3375 25.7682 12.705 25.1086 11.935 25.1086H9.43253C8.66253 25.1086 8.03003 25.7682 8.03003 26.5927V31.9793C8.03003 32.8038 8.66253 33.4634 9.43253 33.4634H32.615C32.615 33.326 32.615 33.1611 32.615 32.9962Z" fill="#8C9C9A"/>
<path d="M24.1174 41.4335C14.5749 42.3954 5.41745 36.2392 2.33745 26.7577C2.22745 26.3729 1.81495 26.1805 1.45745 26.2904C1.09995 26.4279 0.907455 26.8126 1.01745 27.1974C4.28995 37.3111 14.08 43.9069 24.2824 42.8626H24.3099C24.6949 42.8076 24.9424 42.4503 24.9149 42.0656C24.8324 41.6808 24.5024 41.406 24.1174 41.4335Z" fill="#8C9C9A"/>
</g>
<defs>
<clipPath id="clip0">
<rect width="44" height="44" fill="white"/>
</clipPath>
</defs>
</svg>
