<svg width="23" height="24" fill="none" xmlns="http://www.w3.org/2000/svg"><g clip-path="url(#clip0)"><g clip-path="url(#clip1)" fill="#495352"><path d="M12.74-1v6.015c-.354-.06-.768-.06-1.24-.06-.768 0-1.358.06-1.89.24-.531.18-.945.361-1.358.662-.354.3-.65.602-.886.902a6.3 6.3 0 00-.59 1.083L4 6.82a7.015 7.015 0 012.126-3.008c.945-.842 2.185-1.444 3.72-1.684V-1h2.894zm-.767 20.932H8.96V23h3.012v-3.068zm5.315-16.06c-.709-.722-1.595-1.203-2.658-1.504v3.309c.118.06.236.12.296.24.354.301.59.602.767.963.177.36.237.721.237 1.143 0 .842-.414 1.503-1.182 1.985-.767.48-2.007 1.022-3.72 1.443-2.185.541-2.008 3.91-2.008 3.91v1.504h3.012V15.48c0-.662.413-1.263 1.004-1.443.709-.241 1.299-.421 1.89-.662a10.04 10.04 0 002.244-1.263 5.724 5.724 0 001.417-1.745c.295-.661.472-1.503.472-2.466-.118-1.624-.708-2.947-1.771-4.03z"/></g></g><defs><clipPath id="clip0"><path fill="#fff" transform="translate(.99)" d="M0 0h21.443v24H0z"/></clipPath><clipPath id="clip1"><path fill="#fff" transform="translate(4 -1)" d="M0 0h15v24H0z"/></clipPath></defs></svg>