<svg width="28" height="22" fill="none" xmlns="http://www.w3.org/2000/svg"><path d="M8 18.18h2V13h5v-2.007h-5V6H8v4.993H3V13h5v5.18zM19.115 0l.013 2.252h-.02l.012 2.272a8.114 8.114 0 011.01-.058c.598 0 1.135.058 1.548.174.413.115.805.288 1.095.481.31.212.56.443.746.693.187.25.354.52.48.809l2.304-.732c-.355-.866-.937-1.617-1.724-2.272-.788-.654-1.82-1.078-3.038-1.29L21.527.02h-2.412V0z" fill="#495352"/><path d="M21.65 21.312l-.013-2.253-.014-2.31c-.33.058-.66.077-1.01.077-1.258 0-2.31-.212-3.096-.654C16.79 15.762 16 15 16 15h-3c.417.886 1.656 2 2.629 2.692.973.674 2.171 1.117 3.616 1.31l.013 2.31h2.392z" fill="#495352"/><path d="M23.292 16.172c-.062.038-.103.058-.165.096l.015 2.522c.268-.077.535-.154.762-.27.657-.288 1.233-.635 1.684-1.058a4.18 4.18 0 001.022-1.444c.224-.54.344-1.097.34-1.694-.004-.732-.172-1.367-.485-1.887a4.712 4.712 0 00-1.327-1.348c-.559-.385-1.241-.693-2.006-.962a29.48 29.48 0 00-2.52-.751c-1.403-.366-2.436-.732-3.078-1.078-.662-.366-.974-.866-.977-1.482a2.088 2.088 0 01.18-.848c.122-.27.327-.52.614-.75.082-.058.165-.116.267-.174l-.014-2.502c-.865.25-1.605.616-2.18 1.135-.902.81-1.37 1.83-1.404 3.042-.016.732.111 1.348.382 1.848.271.501.645.944 1.162 1.31a7.254 7.254 0 001.84.924c.724.27 1.53.5 2.417.75a68.07 68.07 0 011.983.578 7.413 7.413 0 011.426.597c.393.212.683.462.87.712.187.27.292.597.295.963.002.385-.1.712-.283 1.02-.204.289-.471.54-.82.751zM0 11h2v2H0z" fill="#495352"/></svg>