<svg width="21" height="27" fill="none" xmlns="http://www.w3.org/2000/svg"><path d="M16.955 17.18h-1.98v7h1.98v-7z" fill="#495352"/><path d="M15.914 26.9l1.4-1.415 3.5-3.535-1.405-1.419-3.5 3.536-3.495-3.531-1.4 1.414 3.495 3.53 1.405 1.42zM5.303 0l.013 2.252h-.02l.013 2.272a7.954 7.954 0 011-.058c.592 0 1.123.058 1.532.174.408.115.797.288 1.084.481.307.212.554.443.739.693.185.25.35.52.474.809l2.282-.732c-.352-.866-.928-1.617-1.707-2.272-.78-.654-1.803-1.078-3.008-1.29L7.692.02H5.304V0zm2.509 21.312L7.8 19.059l-.013-2.31a5.669 5.669 0 01-1 .077c-1.245 0-1.892 0-2.703-.326-.77-.309-.99-.5-.99-.5H.123c.495.5.765 1 1.729 1.692.963.674 2.15 1.117 3.58 1.31l.013 2.31h2.367z" fill="#495352"/><path d="M9.438 16.172c-.06.038-.101.058-.162.096l.014 2.522c.265-.077.53-.154.754-.27.651-.288 1.22-.635 1.667-1.058a4.18 4.18 0 001.013-1.444c.221-.54.34-1.097.337-1.694-.005-.732-.171-1.367-.48-1.887a4.7 4.7 0 00-1.315-1.348c-.553-.385-1.229-.693-1.985-.962-.757-.27-1.595-.52-2.495-.751-1.39-.366-2.413-.732-3.047-1.078-.656-.366-.965-.866-.968-1.482a2.107 2.107 0 01.178-.848c.121-.27.324-.52.608-.75.082-.058.163-.116.265-.174l-.015-2.502c-.856.25-1.588.616-2.157 1.135C.757 4.487.293 5.507.26 6.72c-.017.732.11 1.348.378 1.848.268.501.638.944 1.15 1.31a7.154 7.154 0 001.822.924c.716.27 1.514.5 2.393.75.756.212 1.41.405 1.963.578a7.298 7.298 0 011.411.597c.39.212.677.462.862.712.185.27.29.597.291.963.002.385-.098.712-.28 1.02-.202.289-.466.54-.812.751z" fill="#495352"/></svg>