<svg width="52" height="53" fill="none" xmlns="http://www.w3.org/2000/svg"><g opacity=".5" clip-path="url(#clip0)" fill="#8C9C9A"><path d="M26.768 33.068a.572.572 0 00.573-.57.572.572 0 00-.573-.569.572.572 0 00-.574.57c0 .314.257.57.574.57zm0-2.278a.572.572 0 00.573-.57.572.572 0 00-.573-.57.572.572 0 00-.574.57c0 .314.257.57.574.57z"/><path d="M33.697 19.88a5.086 5.086 0 00-2.28-2.264l-.633-.321v-2.147l1.221-.614a3.976 3.976 0 002.222-3.578V7.933c0-2.118-1.677-3.856-3.781-3.987l-1.369-1.358a5.184 5.184 0 00-3.663-1.505h-2.648c-2.251 0-4.076 1.811-4.076 4.046 0 1.227.56 2.38 1.53 3.155l.971.774c-.206 1.665-.206 2.804-.206 2.877v.57h1.148v.394c0 1.008.515 1.957 1.354 2.512a3.03 3.03 0 001.692.511h.161c.089 0 .162-.015.25-.03v2.075l-1.074.219c-.25.044-.485.19-.647.38l-.692.803a11.17 11.17 0 00-1.736 2.73l-3.31 3.316v-2.147c0-2.278-.986-4.44-2.707-5.93a7.992 7.992 0 00-5.238-1.956h-.103v-.585a3.497 3.497 0 003.002-2.176 6.354 6.354 0 00.456-2.337V7.962a2.92 2.92 0 00-.236-1.139 4.368 4.368 0 001.383-3.198c0-.672-.265-1.3-.75-1.782a2.525 2.525 0 00-1.795-.745H7.508c-1.47 0-2.84.57-3.928 1.636-.971.964-1.56 2.497-1.56 4.075 0 2.044 1.207 3.271 1.737 3.71a3.27 3.27 0 00.97 2.059l.162.16v2.629a6.412 6.412 0 00-3.604 1.198 6.443 6.443 0 00-2.722 5.243v4.965c0 1.943.897 3.68 2.295 4.835v4.863h1.148v-4.119a6.33 6.33 0 002.869.687h8.621v3.417h1.148V33.04h1.545a5.21 5.21 0 003.663-1.505l.545-.54v5.477h1.147v-9.683c0-1.168.206-2.308.589-3.388l2.163 3.87c-.074.073-.147.131-.236.204l-.22.176v8.836h1.147v-8.282a11.986 11.986 0 003.87-5.915l1.162-4.017.074-.014.78.38c.764.38 1.382.993 1.765 1.752.28.54.412 1.14.412 1.753v12.472h1.147V22.144c.045-.789-.147-1.563-.5-2.264zm-23.26-3.345c.352.015.69.044 1.044.117l-1.59 3.812-.352-2.132.897-1.797zm1.956-6.25c0 .657-.118 1.3-.368 1.913a2.35 2.35 0 01-2.192 1.475 2.3 2.3 0 01-1.31-.395l-.985-.657-.633.95.986.657c.324.219.691.365 1.06.467v.687H6.066v-3.097l-.5-.496a2.18 2.18 0 01-.648-1.548c0-.322.265-.57.574-.57h.574V7.962c0-.949.78-1.708 1.72-1.708h2.87c.956 0 1.721.774 1.721 1.708v2.322h.015zm-3.81 7.375H7.566l-.574-1.14h2.163l-.574 1.14zm.485 4.805l-.736 1.782L7.2 21.852l.515-3.038h.75l.604 3.65zM4.095 9.233a3.676 3.676 0 01-.897-2.424c0-1.286.456-2.498 1.265-3.301a4.335 4.335 0 013.075-1.27h4.634c.368 0 .721.145.986.408s.412.614.412.979c0 .847-.338 1.65-.912 2.249A2.833 2.833 0 0010.7 5.1H7.832a2.862 2.862 0 00-2.869 2.848v.672a1.657 1.657 0 00-.868.613zm.986 7.288h.618l.912 1.796-.28 1.694-1.647-3.476c.132 0 .264-.014.397-.014zm5.002 15.408H4.904c-2.854 0-5.179-2.308-5.179-5.141v-4.966c0-1.708.839-3.33 2.237-4.323.47-.336.985-.584 1.53-.744l4.281 9.025v1.578H4.33V23.94H3.183v3.418c0 .628.515 1.139 1.147 1.139h5.753v3.432zm4.12-.482c-.31.307-.721.482-1.163.482h-1.795v-3.432h1.722c.941 0 1.721.774 1.721 1.767 0 .453-.176.862-.485 1.183zm-.662-7.507v3.418H8.936V25.75l3.648-8.807a6.94 6.94 0 012.075 1.227 6.733 6.733 0 012.324 5.068v3.3l-.309.307a1.732 1.732 0 01-1.22.497h-.766v-3.418h-1.147v.015zm6.9 2.863v2.6l-1.354 1.343a3.987 3.987 0 01-2.84 1.168h-.956a2.833 2.833 0 00.56-1.709 2.84 2.84 0 00-.589-1.723h.22c.751 0 1.501-.307 2.031-.832l3.193-3.17a10.41 10.41 0 00-.265 2.323zm3.443-6.324l-.368 3.008-.78-1.387c.324-.614.692-1.198 1.133-1.738v.117h.015zm1.147-1.212l1.266-.249-.471.92h-.795v-.671zm.177 7.214l-.721-1.285.486-4.104h.75l.824 3.666a10.856 10.856 0 01-1.34 1.723zm2.59-4.498a10.3 10.3 0 01-.427 1.183l-.574-2.585.927-1.855 1.06-.204-.987 3.461zm.853-8.792c.162.672.5 1.3.986 1.84v2.162l-2.87.57v-2.03l1.84-.366-.221-1.125-2.634.526c-.117.03-.25.03-.367.03h-.162a1.96 1.96 0 01-1.06-.322 1.865 1.865 0 01-.838-1.563V11.38h-1.133c.03-.803.147-2.351.485-4.162.368-.147 1.089-.395 1.795-.395a3.76 3.76 0 012.487.935c.265.234.397.482.397.774v.57h1.148c.632 0 1.147.51 1.147 1.139 0 .76-.824 1.197-.838 1.197l-.324.161v.35c0 .395.059.818.162 1.242zm1.118-.263c-.059-.234-.088-.453-.118-.672.427-.306 1.133-.978 1.133-2.015a2.29 2.29 0 00-2.295-2.279h-.074c-.117-.394-.353-.744-.706-1.066a4.874 4.874 0 00-3.237-1.227c-1.265 0-2.5.6-2.56.628l-.25.132-.059.277c-.073.365-.132.716-.191 1.066l-.441-.35a2.88 2.88 0 01-1.09-2.264c0-1.592 1.31-2.892 2.914-2.892h2.648c1.074 0 2.09.41 2.84 1.169l1.692 1.68h.235c1.59 0 2.87 1.285 2.87 2.847v3.009a2.85 2.85 0 01-1.59 2.556l-1.147.57a3.215 3.215 0 01-.574-1.169z"/><path d="M29.636 26.218H28.49v9.143h-.015v1.14h1.177v-1.14h-.015v-9.143z"/></g><defs><clipPath id="clip0"><path fill="#fff" d="M0 0h52v53H0z"/></clipPath></defs></svg>