<svg width="17" height="17" fill="none" xmlns="http://www.w3.org/2000/svg"><path d="M13.187 11.832a.695.695 0 01-.707-.675.703.703 0 01.667-.715c.133-.013.253.066.266.199.027.119-.053.225-.2.264-.186.04-.28.133-.266.252.013.119.08.198.2.211.146.014.213-.052.266-.264.04-.132.134-.199.254-.185.133.013.213.119.2.251.013.357-.307.662-.68.662z" fill="#495352"/><path d="M7.895 10.015a.312.312 0 00-.451.013L5.821 11.85V2.352c0-.176-.116-.338-.283-.351a.335.335 0 00-.361.337v9.525l-1.623-1.835a.302.302 0 00-.45-.013.337.337 0 00-.014.472l2.087 2.361a.43.43 0 00.657 0l2.087-2.347a.367.367 0 00-.026-.486z" fill="#495352" stroke="#495352" stroke-width=".3"/><circle cx="5.5" cy=".5" r=".5" fill="#495352"/><path d="M15.533 9.278v-3.89c0-.582-.32-1.045-.866-1.164-.227-.053-.28-.16-.32-.344-.054-.278-.134-.556-.2-.834-.12-.516-.454-.728-.974-.595-2.346.569-4.693 1.124-7.053 1.693-.053.014-.067.014-.12.027v.503c2.44-.583 4.84-1.178 7.28-1.76.253-.066.333-.013.4.238.147.609.307 1.23.453 1.852.014.027.014.053.014.093-.054.013-.107.013-.12.04-1.527.172-2.148.172-2.148.251-.014.106 2.081.159 2.201.172.093.013.173 0 .267.013.4.013.693.305.693.701-.347-.264-.733-.224-1.133-.224H6v.463h8.2c.16 0 .32.026.467.092a.56.56 0 01.36.53c.013.714 0 1.428 0 2.17h-3.28c-.36 0-.467.105-.467.463v2.804c0 .371.093.464.453.464h3.28c0 .053.014.079.014.106v1.944c0 .437-.28.715-.72.728H2.267c-.147 0-.32-.026-.454-.08-.226-.092-.346-.303-.373-.555V6.274c.333.252.693.239 1.04.239h1.333V6.05h-1.56c-.253 0-.48-.053-.653-.265a.646.646 0 01-.107-.701c.134-.252.32-.397.574-.437.053-.013.093-.013.146-.013.547 0 1.08 0 1.627.013v-.476H2.267C1.493 4.17 1 4.66 1 5.44v9.58c0 .621.32 1.058.893 1.217.12.026.24.04.36.04H14.28c.773 0 1.253-.49 1.253-1.258v-1.998c.2.014.374-.013.467-.211V9.529c-.093-.225-.267-.264-.467-.251zm-.48-3.97c-.12-.052-.226-.105-.333-.145-.027-.013-.053-.026-.067-.053-.04-.132-.066-.278-.106-.423.266.013.533.37.506.622zm.467 7.225h-3.733V9.754h3.733v2.779z" fill="#495352" stroke="#495352" stroke-width=".3"/></svg>