<svg width="53" height="81" fill="none" xmlns="http://www.w3.org/2000/svg"><path d="M9.229 71.247c0 .981-.171 1.843-.513 2.585-.337.742-.82 1.314-1.45 1.714-.63.4-1.358.6-2.183.6-1.245 0-2.251-.444-3.018-1.332-.766-.894-1.15-2.098-1.15-3.611v-1.099c0-.972.171-1.831.513-2.578.347-.752.835-1.328 1.465-1.729.63-.405 1.355-.608 2.175-.608.82 0 1.543.198 2.168.594.63.395 1.116.954 1.458 1.677.342.723.52 1.56.535 2.512v1.275zm-.901-1.158c0-1.284-.29-2.29-.872-3.017-.581-.728-1.377-1.091-2.388-1.091-.99 0-1.782.366-2.373 1.098-.586.728-.879 1.746-.879 3.054v1.114c0 1.264.293 2.268.88 3.01.585.737 1.381 1.106 2.387 1.106 1.02 0 1.816-.364 2.388-1.091.571-.733.857-1.751.857-3.055V70.09zm8.857-1.267h-2.886V76h-.879v-7.178h-2.776v-.747h6.54v.747zM24.467 76h-.878v-3.332c-.723.263-1.414.395-2.073.395-1.05 0-1.812-.23-2.285-.689-.474-.463-.72-1.184-.74-2.16v-2.139h.871v2.095c.01.757.176 1.304.498 1.64.328.333.88.499 1.656.499a6.847 6.847 0 002.073-.381v-3.853h.878V76zm5.613.147a3.459 3.459 0 01-1.831-.499 3.408 3.408 0 01-1.267-1.384c-.303-.596-.454-1.262-.454-2v-.314c0-.762.146-1.448.44-2.058.297-.61.71-1.09 1.237-1.436a3.03 3.03 0 011.714-.527c.962 0 1.723.33 2.285.989.566.654.85 1.55.85 2.688v.49h-5.655v.169c0 .898.257 1.648.77 2.248.517.596 1.166.894 1.948.894.468 0 .88-.086 1.237-.257.362-.17.689-.444.982-.82l.55.418c-.645.932-1.58 1.398-2.806 1.398zm-.161-7.471c-.66 0-1.216.242-1.67.725-.45.483-.723 1.133-.82 1.948h4.753v-.095c-.024-.762-.242-1.382-.652-1.86-.41-.479-.947-.718-1.611-.718zm10.644.146h-2.886V76h-.879v-7.178h-2.775v-.747h6.54v.747zm2.61 2.132h2.285c.586 0 1.099.107 1.538.322.444.21.779.503 1.003.879.23.376.345.813.345 1.31 0 .767-.264 1.383-.791 1.846-.523.46-1.23.689-2.124.689H42.3v-7.925h.872v2.879zm0 .747v3.56h2.27c.63 0 1.123-.16 1.48-.477.361-.317.542-.752.542-1.303 0-.528-.176-.953-.528-1.275-.346-.327-.822-.496-1.428-.505h-2.336zM51.032 76h-.88v-7.925h.88V76z" fill="#30C4AE"/><path d="M41.688 45.984h-14.4l-8.544-5.664h4.416c.576 0 .96-.384.96-.96s-.384-.96-.96-.96h-7.296l-5.568-3.648a.872.872 0 00-.96 0c-.384.096-.576.384-.576.768 0 2.304-1.632 4.224-3.84 4.704V24c0-.576-.384-.96-.96-.96S3 23.424 3 24v17.28c0 .48.288.864.768.96l23.04 5.664h14.88c.576 0 .96-.384.96-.96s-.384-.96-.96-.96zm-34.08-4.8a6.265 6.265 0 002.88-4.032l11.328 7.488-14.208-3.456zM48.216 0h-24c-.576 0-.96.384-.96.96s.384.96.96.96h24c.48 0 .864.288.864.768v42.528c0 .384-.384.768-.768.768H45.72c-.576 0-.96.384-.96.96s.384.96.96.96h2.592c1.44 0 2.688-1.248 2.688-2.688V2.688C51 1.152 49.752 0 48.216 0zM3.96 15.36c.576 0 .96-.384.96-.96V2.688c0-.384.384-.768.768-.768H19.32c.576 0 .96-.384.96-.96S19.896 0 19.32 0H5.688C4.248 0 3 1.248 3 2.688V14.4c0 .576.384.96.96.96zm0 5.76c.576 0 .96-.384.96-.96v-1.632c0-.576-.384-.96-.96-.96s-.96.384-.96.96v1.632c0 .576.384.96.96.96z" fill="#067362"/><path d="M27 4.8c-.576 0-.96.384-.96.96v14.4c0 .576.384.96.96.96h19.2c.576 0 .96-.384.96-.96s-.384-.96-.96-.96H27.96V5.76c0-.576-.384-.96-.96-.96z" fill="#067362"/><path d="M31.8 16.32v-2.88c0-.576-.384-.96-.96-.96s-.96.384-.96.96v2.88c0 .576.384.96.96.96s.96-.384.96-.96zm2.88-5.76c-.576 0-.96.384-.96.96v4.8c0 .576.384.96.96.96s.96-.384.96-.96v-4.8c0-.576-.384-.96-.96-.96zm2.88 5.76c0 .576.384.96.96.96s.96-.384.96-.96v-9.6c0-.576-.384-.96-.96-.96s-.96.384-.96.96v9.6zm4.8-7.68c-.576 0-.96.384-.96.96v6.72c0 .576.384.96.96.96s.96-.384.96-.96V9.6c0-.576-.384-.96-.96-.96zm3.84 20.64c-.192-.48-.768-.672-1.248-.48-.48.192-.672.768-.48 1.248.384.864.576 1.728.672 2.592H36.6c-.384 0-.672.192-.864.576-.192.288-.096.672.096.96l5.184 6.816c-1.344.768-2.784 1.248-4.416 1.248-4.8 0-8.64-3.84-8.64-8.64 0-4.8 3.84-8.64 8.64-8.64 2.304 0 4.512.864 6.144 2.496a.928.928 0 001.344 0 .928.928 0 000-1.344c-2.016-2.016-4.704-3.072-7.488-3.072A10.53 10.53 0 0026.04 33.6 10.53 10.53 0 0036.6 44.16c2.304 0 4.512-.768 6.24-2.112h.096l.096-.096c2.496-1.92 4.128-4.992 4.128-8.352 0-1.536-.288-2.976-.96-4.32zm-3.648 10.56l-4.032-5.28h6.624a8.177 8.177 0 01-2.592 5.28zM23.16 9.6H7.8c-.576 0-.96.384-.96.96s.384.96.96.96h15.36c.576 0 .96-.384.96-.96s-.384-.96-.96-.96zm0 7.68H7.8c-.576 0-.96.384-.96.96s.384.96.96.96h15.36c.576 0 .96-.384.96-.96s-.384-.96-.96-.96zm0 7.68H7.8c-.576 0-.96.384-.96.96s.384.96.96.96h15.36c.576 0 .96-.384.96-.96s-.384-.96-.96-.96z" fill="#067362"/><path d="M31.416 30.816c-.48-.192-1.056.096-1.248.576a8.183 8.183 0 00-.288 2.208c0 1.728.576 3.264 1.728 4.512.192.192.48.288.672.288.192 0 .48-.096.672-.288.384-.384.384-.96.096-1.344-.768-.864-1.152-1.92-1.152-3.168 0-.576.096-1.152.192-1.632s-.192-1.056-.672-1.152z" fill="#067362"/></svg>