<svg width="40" height="40" fill="none" xmlns="http://www.w3.org/2000/svg"><path fill-rule="evenodd" clip-rule="evenodd" d="M40 20C40 8.954 31.046 0 20 0S0 8.954 0 20s8.954 20 20 20 20-8.954 20-20z" fill="#087464"/><path fill-rule="evenodd" clip-rule="evenodd" d="M10.133 27.154L18.518 9.94a1.638 1.638 0 012.963 0l8.386 17.215c.413.848-.187 1.845-1.11 1.845l-6.126-.734a1.26 1.26 0 01-1.09-1.117l-.923-9.079c-.078-.762-1.159-.762-1.236 0l-.924 9.079a1.259 1.259 0 01-1.09 1.117L11.244 29c-.924 0-1.524-.997-1.111-1.846z" fill="#171717"/></svg>