<svg width="22" height="24" fill="none" xmlns="http://www.w3.org/2000/svg"><path d="M19.69 18.34a.408.408 0 00-.031.815.408.408 0 00.422-.392.412.412 0 00-.392-.423zM3.349 5.803l.249.015h.025A.526.526 0 004 5.66l.382-.382a.55.55 0 00.157-.408l-.142-2.822L6.86 1.029a.54.54 0 00.29-.29.536.536 0 00-.696-.698L3.633 1.212a.538.538 0 00-.33.52l.152 2.96-.041.046h-.01a.534.534 0 00-.056 1.065zm-1.626-.082h.025a.524.524 0 00.529-.51.535.535 0 10-.554.51zm9.943 1.329a4.973 4.973 0 00-2.845.276c-.02.01-.046.015-.066.025-.031.01-.056.026-.087.036-.05.025-.107.05-.157.071-.016.005-.026.016-.041.02a5.78 5.78 0 00-.473.27l-.03.021a5.029 5.029 0 00-1.438 7.02 4.981 4.981 0 003.003 2.084l.122.03v-.01a5.179 5.179 0 001.057.112 4.957 4.957 0 002.947-.968c2.23-1.635 2.718-4.783 1.087-7.025a4.999 4.999 0 00-3.079-1.961zm3.033 5.564l-.02.127h.01a3.999 3.999 0 01-1.123 2.12 4.03 4.03 0 01-2.87 1.192 4.035 4.035 0 01-3.273-1.671l-.076-.102-.01.01a4.041 4.041 0 01-.711-2.303c0-1.462.777-2.75 1.94-3.464l.006-.005c.03-.02.066-.036.096-.056.02-.01.04-.026.061-.036.03-.015.061-.03.087-.046.025-.015.05-.025.076-.04.03-.016.056-.026.086-.041l.086-.04c.026-.011.051-.026.082-.037a.915.915 0 01.106-.04c.02-.01.041-.016.061-.026.432-.158.895-.24 1.377-.24h.005c1.083 0 2.104.429 2.871 1.198a4.052 4.052 0 011.19 2.878c-.01.21-.026.413-.057.622zm3.371 5.538l-.25-.01h-.025a.531.531 0 00-.376.162l-.377.383a.545.545 0 00-.152.407l.178 2.817-2.455 1.06A.537.537 0 0014.827 24a.497.497 0 00.208-.046l2.805-1.207a.529.529 0 00.32-.525l-.188-2.96.041-.046h.01c.29.01.544-.219.554-.514a.53.53 0 00-.508-.55z" fill="#067362"/><path d="M21.213 14.438l-1.88-1.702v-1.508l1.88-1.701a.536.536 0 00.138-.602l-.96-2.328a.536.536 0 00-.519-.33l-2.53.127-1.062-1.065.127-2.537a.538.538 0 00-.33-.52l-2.323-.963a.512.512 0 00-.325-.025.497.497 0 00-.295.168l-1.691 1.88h-1.49L8.258 1.447a.535.535 0 00-.524-.163.353.353 0 00-.096.03l-2.322.963a.538.538 0 00-.33.52l.126 2.537L4.05 6.399 1.52 6.27a.536.536 0 00-.518.331L.04 8.925a.536.536 0 00.137.602l1.88 1.701v1.508l-1.88 1.702a.536.536 0 00-.138.6L1 17.373a.536.536 0 00.52.331l2.53-.127 1.06 1.063-.127 2.537a.538.538 0 00.33.52l2.323.962a.5.5 0 00.325.025.504.504 0 00.29-.162l1.697-1.885h1.504l1.697 1.885a.543.543 0 00.396.178.58.58 0 00.203-.04l2.322-.964a.538.538 0 00.33-.52l-.126-2.536 1.062-1.065 2.53.127a.532.532 0 00.518-.33l.96-2.33a.532.532 0 00-.132-.605zm-1.666 2.17l-2.388-.122a.546.546 0 00-.407.158l-1.397 1.4a.55.55 0 00-.158.408l.122 2.394-1.626.678-1.605-1.783a.535.535 0 00-.397-.178H9.71a.535.535 0 00-.397.178l-.152.173-.01-.01-1.453 1.615-1.616-.672.122-2.395a.53.53 0 00-.158-.407l-1.361-1.366-.01.01-.041-.04a.546.546 0 00-.407-.158l-2.388.122-.676-1.63 1.779-1.61a.537.537 0 00.178-.397v-1.987a.537.537 0 00-.178-.398l-1.779-1.61.676-1.63 2.388.123c.153.01.3-.051.407-.158L6.03 5.915a.55.55 0 00.158-.408l-.01-.219h.02l-.112-2.18 1.61-.663 1.601 1.778a.535.535 0 00.397.179h1.981a.46.46 0 00.117-.016.555.555 0 00.3-.168l1.595-1.773 1.616.673-.122 2.394c-.01.153.051.3.158.408l1.397 1.4a.546.546 0 00.407.159l2.388-.123.675 1.63-1.778 1.61a.537.537 0 00-.178.398v1.936h.02v.046c0 .152.066.295.178.397l1.779 1.61-.681 1.625z" fill="#067362"/></svg>