<svg width="23" height="24" fill="none" xmlns="http://www.w3.org/2000/svg"><g clip-path="url(#clip0)" fill="#8C9C9A"><path d="M20.726 18.34a.41.41 0 00-.423.392.409.409 0 00.392.423.409.409 0 00.423-.392.412.412 0 00-.392-.423zM4.346 5.803l.25.015h.026a.528.528 0 00.377-.158l.382-.382a.549.549 0 00.158-.408l-.143-2.822 2.47-1.019a.54.54 0 00.291-.29.515.515 0 000-.408.538.538 0 00-.698-.29L4.632 1.212a.538.538 0 00-.331.52l.152 2.96-.04.046h-.01a.535.535 0 00-.56.504.531.531 0 00.503.56zm-1.63-.082h.026c.132 0 .26-.046.356-.137a.535.535 0 10-.382.138zm9.968 1.329a4.996 4.996 0 00-2.853.276c-.02.01-.046.015-.066.025-.03.01-.056.026-.087.036-.05.025-.107.05-.157.071-.016.005-.026.016-.041.02a5.799 5.799 0 00-.474.27l-.03.021a5.02 5.02 0 00-1.442 7.02 4.994 4.994 0 003.01 2.084l.123.03v-.01a5.2 5.2 0 001.059.112c1.06 0 2.083-.33 2.954-.968a5.035 5.035 0 001.09-7.025 5.012 5.012 0 00-3.086-1.961zm3.04 5.564l-.02.127h.01a3.995 3.995 0 01-1.126 2.12 4.045 4.045 0 01-2.877 1.192 4.05 4.05 0 01-3.28-1.671l-.077-.102-.01.01a4.062 4.062 0 011.233-5.767l.005-.005c.03-.02.066-.036.096-.056.02-.01.041-.026.062-.036.03-.015.06-.03.086-.046.026-.015.051-.025.077-.04.03-.016.056-.026.086-.041.03-.015.056-.026.087-.04.025-.011.05-.026.081-.037.036-.015.072-.03.107-.04.02-.01.04-.016.061-.026.433-.158.897-.24 1.38-.24h.006a4.05 4.05 0 012.877 1.198 4.047 4.047 0 011.192 2.878c-.01.21-.025.413-.056.622zm3.378 5.538l-.25-.01h-.025a.533.533 0 00-.377.162l-.377.383a.544.544 0 00-.153.407l.178 2.817-2.46 1.06A.537.537 0 0015.852 24a.5.5 0 00.209-.046l2.812-1.207a.529.529 0 00.32-.525l-.188-2.96.041-.046h.01a.54.54 0 00.556-.514.53.53 0 00-.51-.55z"/><path d="M22.254 14.438l-1.885-1.702v-1.508l1.885-1.701a.535.535 0 00.138-.601l-.963-2.329a.538.538 0 00-.52-.33l-2.536.127-1.065-1.065.128-2.537a.538.538 0 00-.331-.52l-2.328-.963a.515.515 0 00-.326-.025.498.498 0 00-.295.168l-1.697 1.88h-1.492L9.266 1.447a.537.537 0 00-.525-.163.355.355 0 00-.096.03l-2.328.963a.538.538 0 00-.331.52l.127 2.537L5.05 6.399 2.512 6.27a.538.538 0 00-.52.331L1.03 8.925a.535.535 0 00.137.602l1.885 1.701v1.508l-1.885 1.702a.535.535 0 00-.137.6l.963 2.334a.538.538 0 00.52.331l2.536-.127 1.064 1.065-.127 2.537a.538.538 0 00.33.52l2.329.962a.502.502 0 00.326.025.505.505 0 00.29-.162l1.701-1.885h1.508l1.7 1.885c.103.112.25.178.398.178a.582.582 0 00.204-.04l2.327-.964a.538.538 0 00.332-.52l-.128-2.536 1.065-1.065 2.536.127c.23.01.433-.122.52-.33l.963-2.33a.531.531 0 00-.133-.605zm-1.67 2.17l-2.395-.122a.548.548 0 00-.407.158l-1.4 1.4a.549.549 0 00-.159.408l.123 2.394-1.63.678-1.61-1.783a.537.537 0 00-.397-.178h-1.986a.537.537 0 00-.398.178l-.152.173-.01-.01-1.457 1.615-1.62-.672.122-2.395a.53.53 0 00-.158-.407l-1.365-1.366-.01.01-.04-.04a.548.548 0 00-.408-.158l-2.394.122-.677-1.63 1.782-1.61a.537.537 0 00.179-.397v-1.987a.537.537 0 00-.179-.398l-1.782-1.61.677-1.63 2.394.123c.153.01.3-.051.407-.158l1.401-1.401a.549.549 0 00.158-.408l-.01-.219h.02l-.112-2.18 1.615-.663 1.604 1.778a.536.536 0 00.397.179h1.987c.04 0 .076-.005.117-.016a.557.557 0 00.3-.168l1.6-1.773 1.62.673-.123 2.394c-.01.153.051.3.158.408l1.4 1.4a.548.548 0 00.408.159l2.394-.123.678 1.63-1.783 1.61a.537.537 0 00-.178.398v1.936h.02v.046c0 .152.066.295.178.397l1.783 1.61-.683 1.625z"/></g><defs><clipPath id="clip0"><path fill="#fff" transform="translate(.99)" d="M0 0h21.443v24H0z"/></clipPath></defs></svg>