<svg width="22" height="24" fill="none" xmlns="http://www.w3.org/2000/svg"><path d="M19.689 18.34a.408.408 0 00-.03.814.408.408 0 00.421-.392.412.412 0 00-.391-.423zM3.349 5.802l.249.015h.025A.526.526 0 004 5.659l.381-.382a.55.55 0 00.158-.408l-.142-2.822L6.86 1.028a.54.54 0 00.29-.29.536.536 0 00-.696-.698L3.632 1.212a.538.538 0 00-.33.52l.152 2.96-.04.045h-.01a.534.534 0 00-.056 1.065zM1.723 5.72h.025a.524.524 0 00.529-.51.535.535 0 10-.554.51zm9.943 1.33a4.973 4.973 0 00-2.846.275c-.02.01-.045.015-.066.025-.03.01-.056.026-.086.036a2.15 2.15 0 01-.158.071c-.015.006-.025.016-.04.02a5.78 5.78 0 00-.473.27l-.03.021a5.029 5.029 0 00-1.438 7.02 4.982 4.982 0 003.003 2.084l.122.03v-.01a5.078 5.078 0 001.056.113 4.957 4.957 0 002.948-.968c2.23-1.636 2.718-4.784 1.087-7.026a4.998 4.998 0 00-3.08-1.961zm3.033 5.563l-.02.127h.01a3.999 3.999 0 01-1.123 2.12 4.03 4.03 0 01-2.87 1.192 4.035 4.035 0 01-3.273-1.671l-.076-.102-.01.01a4.041 4.041 0 01-.712-2.303c0-1.462.778-2.75 1.941-3.464l.005-.005c.03-.02.066-.036.097-.056.02-.01.04-.025.06-.036.031-.015.062-.03.087-.045.026-.016.051-.026.076-.041l.087-.041.086-.04c.026-.01.051-.026.082-.036a.913.913 0 01.106-.041c.02-.01.04-.015.061-.026a3.99 3.99 0 011.377-.239h.005c1.082 0 2.104.428 2.871 1.197a4.052 4.052 0 011.19 2.879 6.542 6.542 0 01-.057.621zm3.37 5.537l-.25-.01h-.025a.531.531 0 00-.376.164l-.376.382a.545.545 0 00-.152.407l.178 2.817-2.455 1.06a.537.537 0 00.213 1.03.496.496 0 00.209-.047l2.805-1.207a.529.529 0 00.32-.525l-.188-2.96.041-.046h.01c.29.01.544-.219.554-.514a.53.53 0 00-.508-.55z" fill="#30C4AE"/><path d="M21.213 14.437l-1.88-1.702v-1.508l1.88-1.701a.536.536 0 00.137-.601l-.96-2.329a.536.536 0 00-.518-.33l-2.53.127-1.063-1.065.128-2.537a.538.538 0 00-.33-.52l-2.323-.963a.512.512 0 00-.325-.025.498.498 0 00-.295.168l-1.692 1.88H9.953L8.256 1.446a.535.535 0 00-.523-.163.354.354 0 00-.097.03l-2.322.963a.538.538 0 00-.33.52l.127 2.537L4.05 6.398 1.52 6.27a.536.536 0 00-.52.332L.04 8.925a.536.536 0 00.136.6l1.88 1.702v1.508l-1.88 1.702a.536.536 0 00-.137.601L1 17.371a.536.536 0 00.519.331l2.53-.127 1.062 1.065-.127 2.537a.538.538 0 00.33.52l2.322.962a.5.5 0 00.325.025.504.504 0 00.29-.162l1.697-1.885h1.504l1.697 1.885a.543.543 0 00.397.178.578.578 0 00.203-.04l2.322-.963a.538.538 0 00.33-.52l-.127-2.537 1.062-1.065 2.53.127a.532.532 0 00.519-.33l.96-2.329a.532.532 0 00-.132-.606zm-1.666 2.17l-2.389-.122a.546.546 0 00-.406.158l-1.397 1.4a.55.55 0 00-.158.408l.122 2.395-1.626.677-1.605-1.783a.535.535 0 00-.397-.178H9.71a.535.535 0 00-.397.178l-.152.173-.01-.01-1.454 1.615-1.615-.672.122-2.395a.53.53 0 00-.158-.407l-1.362-1.366-.01.01-.04-.04a.546.546 0 00-.407-.158l-2.388.122-.676-1.63 1.779-1.61a.537.537 0 00.177-.397v-1.987a.537.537 0 00-.177-.397L1.163 8.98l.676-1.63 2.388.122a.53.53 0 00.407-.158l1.396-1.4a.55.55 0 00.157-.408l-.01-.219h.02l-.111-2.18 1.61-.662 1.601 1.777a.535.535 0 00.396.179h1.982a.46.46 0 00.117-.015.555.555 0 00.3-.169l1.595-1.772 1.616.672-.122 2.394a.53.53 0 00.157.408l1.398 1.4a.547.547 0 00.406.159l2.388-.122.676 1.63-1.778 1.61a.538.538 0 00-.178.397v1.936h.02v.046c0 .153.066.295.178.397l1.778 1.61-.68 1.625z" fill="#30C4AE"/></svg>