<svg width="34" height="32" fill="none" xmlns="http://www.w3.org/2000/svg"><g clip-path="url(#clip0)" fill="#495352"><path d="M26.667 27.148c-.267.262-.534.393-.8.655l-.134.131.8 1.05.134-.132a4.03 4.03 0 01.933-.655l.133-.131-.933-.918h-.133zm2.8-3.017c-.134.262-.4.525-.667.787l-.133.131 1.066.787.134-.131c.266-.262.4-.525.666-.918l.134-.131-1.2-.656v.131zm1.866-3.803a6.327 6.327 0 01-.4.918l-.133.131 1.333.393.134-.13c.133-.394.266-.656.4-1.05v-.131l-1.334-.393v.262zm.534-4.197v1.312l1.2.13h.266v-1.441h-1.466zm-8.934 13.246c-.4.131-.666.262-1.066.393l-.134.132.534 1.18h.133c.4-.131.667-.262 1.067-.393l.133-.132-.667-1.18zM6.8 4.59c.267-.262.533-.393.8-.656l.133-.13-.8-1.05-.133.131c-.4.263-.667.525-.933.787l-.134.131.934.918.133-.13zM4 7.738c.133-.263.4-.525.667-.787L4.8 6.82l-1.2-.787-.133.131c-.267.262-.4.525-.667.918l-.133.131 1.2.656L4 7.738zM2.267 11.54c.133-.392.266-.655.4-1.048v-.131l-1.334-.394v.131c-.133.263-.266.656-.4 1.05v.13l1.334.263zM.4 15.738h1.333v-1.443L.4 14.164v1.574zm10-13.378c.267-.13.667-.262 1.067-.393l.133-.13-.533-1.181h-.134c-.4.13-.8.262-1.2.524H9.6l.667 1.18h.133zm23.467 7.345l-.4-.394a.41.41 0 00-.534 0l-.4.394-.266.787C30 4.328 24 .132 17.2 0h-1.6v8.525c.4 0 .8-.132 1.2-.132.667 0 1.333.132 1.867.263.533.13.933.393 1.333.655.4.263.667.525.933.787.267.263.4.656.534 1.05l2.8-.918c-.4-1.05-1.067-1.968-2.134-2.886-.933-.787-2.133-1.311-3.6-1.574V1.574c5.6.524 10.534 4.196 12.534 9.442l-.934-.524c-.266-.263-.8-.131-.933.262-.133.131-.133.394-.133.525 0 .13.133.393.266.393l2.534 1.574c.133 0 .266.131.266.131h.267c.267 0 .4-.262.4-.393l1.067-2.623c.133-.263.133-.525 0-.656zm-20.4 13.245c-.934-.655-1.6-1.18-2-1.966l-2.8.918C9.2 22.95 10 24 11.2 24.787c1.2.787 2.667 1.311 4.267 1.574v4.196C10 29.902 5.2 26.361 3.067 21.246l.666.524c.267.263.8.132.934-.13.133-.263.133-.788-.134-.919l-2.4-1.705c-.133-.13-.4-.13-.533-.13-.267 0-.4.13-.4.393L0 21.77c-.133.394 0 .787.4.919h.267a.735.735 0 00.666-.394l.4-.918c2.4 6.164 8.4 10.36 15.067 10.623h1.6v-8.393c-.4 0-.8.13-1.2.13-1.467 0-2.667-.262-3.733-.786z"/><path d="M22.667 16.525c-.667-.525-1.467-.918-2.4-1.18-.934-.394-1.867-.656-3.067-.919a16.469 16.469 0 01-3.733-1.311c-.667-.525-1.067-1.05-1.067-1.836 0-.394.133-.656.267-1.05.133-.393.4-.655.8-.917 0-.132.133-.132.266-.263V6.033c-1.066.262-1.866.787-2.666 1.442-1.067.918-1.6 2.099-1.734 3.673 0 .918.134 1.704.4 2.23.267.655.8 1.18 1.334 1.573.666.393 1.333.787 2.266 1.18.8.262 1.867.656 2.934.918.933.262 1.733.525 2.4.656.666.262 1.2.525 1.733.787.4.262.8.524 1.067.918.266.393.4.787.4 1.18 0 .525-.134.918-.4 1.312a3.091 3.091 0 01-.934.918l-.133.13v3.148c.267-.13.667-.262.933-.262.8-.393 1.467-.787 2-1.311.534-.525.934-1.18 1.2-1.836.267-.656.4-1.312.4-2.099 0-.918-.133-1.705-.533-2.36a10.572 10.572 0 00-1.733-1.705z"/></g><defs><clipPath id="clip0"><path fill="#fff" d="M0 0h34v32H0z"/></clipPath></defs></svg>