<svg width="24" height="22" fill="none" xmlns="http://www.w3.org/2000/svg"><g clip-path="url(#clip0)" fill="#8C9C9A"><path d="M.262 8.394A2.47 2.47 0 000 9.443c-.262 1.705 1.049 3.278 2.754 3.54h1.05l.393-.13L5.9 16.656l-.393.262c-.393.262-.525.656-.656 1.18-.13 1.05.656 1.968 1.705 2.099.787.131 1.574-.262 1.967-1.05l.132-.262 4.983.525v.393c.263 1.312 1.443 2.23 2.754 1.968 1.312-.263 2.23-1.443 1.967-2.755 0-.393-.262-.786-.524-1.049l-.262-.262 2.754-3.672.393.131c1.18.393 2.492-.131 3.017-1.311 0 0 .13-.263.13-.656v-.656c0-.393-.262-.918-.524-1.18l-.393-.394c-.525-.393-1.18-.524-1.836-.393h-.263l-1.18-3.279.262-.131c1.574-1.05 1.967-3.147.918-4.59 0-.131-.13-.131-.13-.262l-.132-.132-.393-.393-.525-.262C17.967-.262 16 .394 15.212 2.098c-.13.132-.13.263-.13.394l-.525.131-3.934-.525v-.262l-.394-.787-.393-.393C9.049 0 7.738.262 7.213 1.049c-.525.656-.525 1.574-.131 2.23l.262.262-2.492 3.41-.393-.131A3.276 3.276 0 00.262 8.394zM17.836 19.54c-.131.918-.918 1.705-1.967 1.574-.918-.131-1.705-.918-1.574-1.967.131-.918.918-1.705 1.967-1.574.918.131 1.705.918 1.574 1.967zm2.623-9.18c.787-.656 1.836-.525 2.492.262.262.394.393.787.393 1.312 0 .524-.262.918-.656 1.18-.787.656-1.836.524-2.491-.262-.656-.656-.525-1.836.262-2.492zm-4.197-9.05c1.18-.917 2.885-.786 3.803.394.918 1.18.787 2.885-.393 3.803-.918.787-2.36.787-3.279.131-.13-.13-.393-.262-.524-.524-.394-.525-.656-1.312-.525-1.967 0-.787.394-1.443.918-1.836zM8.131 4.067c.131 0 .262 0 .262.13.787.132 1.574-.261 1.967-1.048l.263-.394 3.934.525v.393c.131 1.836 1.705 3.279 3.541 3.017.131 0 .262 0 .525-.132h.393l1.312 3.148-.263.131c-1.049.787-1.18 2.36-.393 3.41l.262.262-2.754 3.672-.262-.13c-1.18-.525-2.623.13-3.016 1.31l-.132.263-4.983-.524v-.394A2.04 2.04 0 008 16.655c-.262-.261-.525-.261-.918-.393h-.394l-.393.132L4.72 12.59l.262-.262c.787-.525 1.18-1.311 1.312-2.23.131-.786-.131-1.704-.656-2.36l-.131-.131-.131-.263 2.492-3.41.262.132zM5.115 8.13c.918 1.05.655 2.623-.394 3.541-.918.656-2.098.787-3.016.131l-.525-.524c-.918-1.05-.656-2.623.394-3.541 1.18-.787 2.754-.656 3.54.393z"/><path d="M11.672 5.115v2.36h.524c.263 0 .525 0 .787.132.263 0 .394.13.525.262l.393.393c.132.131.132.263.263.394l1.049-.394c-.131-.393-.394-.787-.787-1.18-.393-.393-.918-.525-1.443-.656V5.115h-1.311zm1.18 11.016v-2.36h-.524c-.656 0-1.05-.132-1.443-.394-.393-.131-.656-.394-.918-.656l-1.049.394c.131.393.525.918 1.05 1.18.524.393 1.048.525 1.704.656v1.18h1.18z"/><path d="M13.64 13.508s-.132 0 0 0l-.132 1.312c.131 0 .262-.131.394-.131.262-.132.524-.263.786-.525.263-.262.394-.525.525-.787s.131-.525.131-.918-.131-.656-.262-.918a1.58 1.58 0 00-.656-.656c-.262-.13-.656-.393-.918-.524l-1.18-.394c-.656-.13-1.18-.393-1.443-.524-.393-.263-.524-.525-.524-.787 0-.131 0-.263.13-.394 0-.13.132-.262.263-.393 0 0 .131 0 .131-.131V6.426a2.856 2.856 0 00-1.05.656 2.172 2.172 0 00-.655 1.574c0 .393 0 .656.131.918s.263.524.525.655c.262.132.656.394.918.525l1.18.394c.394.13.656.262.918.262.263.131.525.131.656.262l.394.394c.13.13.13.262.13.524 0 .131 0 .394-.13.525 0 .13-.132.262-.263.393z"/></g><defs><clipPath id="clip0"><path fill="#fff" d="M0 0h24v21.639H0z"/></clipPath></defs></svg>