<svg width="24" height="24" fill="none" xmlns="http://www.w3.org/2000/svg"><path d="M.285 9.763a2.378 2.378 0 00-.253 1.01c-.252 1.64 1.01 3.155 2.65 3.407h1.01l1.64 3.786c-.378.253-.504.631-.63 1.136-.127 1.01.63 1.893 1.64 2.02.757.125 1.514-.253 1.893-1.01l4.922.63c.252 1.263 1.388 2.146 2.65 1.893 1.262-.252 2.145-1.388 1.893-2.65 0-.378-.253-.757-.505-1.01l2.65-3.659c1.136.379 2.398-.126 2.903-1.262l.252-.63v-.632c0-.378-.252-.883-.505-1.136l-.378-.378c-.505-.379-1.136-.505-1.767-.379l-1.388-3.155c1.514-1.01 1.893-3.028.883-4.417 0-.126-.126-.126-.126-.252l-.126-.126-.379-.379-.505-.252c-1.64-.757-3.533-.126-4.29 1.514-.127.126-.127.253-.127.379l-3.912-.505c0-.252-.126-.63-.378-.883l-.379-.379c-1.01-.63-2.145-.505-2.776.252-.379.631-.505 1.515 0 2.272L4.323 8.375C2.809 7.618 1.042 8.25.285 9.763zm16.279 10.601c-.126.631-.631 1.01-1.136.883-.63-.126-1.01-.63-.883-1.135.126-.631.63-1.01 1.136-.884.504.126.883.631.883 1.136zm3.534-8.203c.504-.378 1.135-.252 1.514.126.126.253.252.505.252.758 0 .252-.126.504-.378.757-.505.378-1.136.252-1.515-.126-.505-.379-.378-1.136.127-1.515zm-4.165-8.707c.883-.631 2.145-.505 2.776.252.631.883.505 2.145-.252 2.776-.757.631-1.767.631-2.398 0l-.378-.378c-.379-.379-.505-.884-.379-1.515 0-.378.252-.883.631-1.135zM7.856 5.599c.127 0 .253 0 .253.126.757.126 1.514-.252 1.893-1.01l4.038.505c.126 1.767 1.64 3.03 3.407 2.903.127 0 .253 0 .505-.126l1.388 3.155c-1.01.757-1.136 2.271-.378 3.28l-2.65 3.66c-1.136-.504-2.524.127-2.903 1.262l-4.922-.63a1.963 1.963 0 00-.757-1.01c-.252-.252-.505-.252-.883-.379h-.379l-1.64-3.786c.757-.504 1.135-1.262 1.262-2.145.126-.757-.127-1.64-.631-2.271h-.127l2.524-3.534zM4.45 10.016c.631.757.505 1.893-.252 2.524a1.709 1.709 0 01-2.146 0c-.252-.126-.252-.126-.378-.253-.631-.757-.505-1.893.252-2.524.757-.757 1.893-.63 2.524.253z" fill="#495352"/></svg>