<svg width="24" height="24" fill="none" xmlns="http://www.w3.org/2000/svg"><path d="M2.8 10.3c-.1.2-.2.5-.2.8-.2 1.3.8 2.5 2.1 2.7h.8l1.3 3c-.3.2-.4.5-.5.9-.1.8.5 1.5 1.3 1.6.6.1 1.2-.2 1.5-.8l3.9.5c.2 1 1.1 1.7 2.1 1.5 1-.2 1.7-1.1 1.5-2.1 0-.3-.2-.6-.4-.8l2.1-2.9c.9.3 1.9-.1 2.3-1l.2-.5v-.5c0-.3-.2-.7-.4-.9l-.3-.3c-.4-.3-.9-.4-1.4-.3l-1.1-2.5c1.2-.8 1.5-2.4.7-3.5 0-.1-.1-.1-.1-.2l-.1-.1-.3-.3-.4-.2c-1.3-.6-2.8-.1-3.4 1.2-.1.1-.1.2-.1.3l-3.1-.4c0-.2-.1-.5-.3-.7l-.3-.3c-.8-.5-1.7-.4-2.2.2-.3.5-.4 1.2 0 1.8L6 9.2c-1.2-.6-2.6-.1-3.2 1.1zm12.9 8.4c-.1.5-.5.8-.9.7-.5-.1-.8-.5-.7-.9.1-.5.5-.8.9-.7.4.1.7.5.7.9zm2.8-6.5c.4-.3.9-.2 1.2.1.1.2.2.4.2.6 0 .2-.1.4-.3.6-.4.3-.9.2-1.2-.1-.4-.3-.3-.9.1-1.2zm-3.3-6.9c.7-.5 1.7-.4 2.2.2.5.7.4 1.7-.2 2.2-.6.5-1.4.5-1.9 0l-.3-.3c-.3-.3-.4-.7-.3-1.2 0-.3.2-.7.5-.9zM8.8 7c.1 0 .2 0 .2.1.6.1 1.2-.2 1.5-.8l3.2.4c.1 1.4 1.3 2.4 2.7 2.3.1 0 .2 0 .4-.1l1.1 2.5c-.8.6-.9 1.8-.3 2.6l-2.1 2.9c-.9-.4-2 .1-2.3 1l-3.9-.5c-.1-.3-.3-.6-.6-.8-.2-.2-.4-.2-.7-.3h-.3l-1.3-3c.6-.4.9-1 1-1.7.1-.6-.1-1.3-.5-1.8h-.1l2-2.8zm-2.7 3.5c.5.6.4 1.5-.2 2-.5.4-1.2.4-1.7 0-.2-.1-.2-.1-.3-.2-.5-.6-.4-1.5.2-2 .6-.6 1.5-.5 2 .2z" fill="#30C4AE"/></svg>