<svg width="25" height="29" viewBox="0 0 25 29" fill="none" xmlns="http://www.w3.org/2000/svg">
<g clip-path="url(#clip0)">
<path d="M18.8179 11.6423V13.4774C18.8179 13.4774 18.8179 13.4774 18.7878 13.4774V15.3426C19.0283 15.3125 19.2688 15.2824 19.5394 15.2824C19.9903 15.2824 20.3811 15.3426 20.7117 15.4329C21.0424 15.5231 21.313 15.6735 21.5534 15.8239C21.7939 16.0044 21.9743 16.1849 22.1246 16.3955C22.2749 16.6061 22.3952 16.8167 22.4853 17.0574L24.2289 16.4557C23.9583 15.7638 23.5375 15.132 22.9362 14.5905C22.335 14.049 21.5534 13.7181 20.6216 13.5376V11.6423H18.8179Z" fill="#495352"/>
<path d="M17.4953 24.8189C16.8941 24.4579 16.4732 24.0368 16.2328 23.5554L14.5193 24.1571C14.8199 24.8791 15.361 25.5108 16.0825 26.0524C16.8039 26.5939 17.7358 26.9549 18.818 27.1053V29.0005H20.6517V27.1654V25.3003C20.4112 25.3303 20.1407 25.3604 19.8701 25.3604C18.9082 25.3604 18.1266 25.1799 17.4953 24.8189Z" fill="#495352"/>
<path d="M24.71 23.2846C24.71 22.6829 24.5898 22.1715 24.3493 21.7503C24.1088 21.3291 23.7781 20.9681 23.3272 20.6673C22.9064 20.3665 22.3953 20.0957 21.8242 19.8851C21.253 19.6746 20.5917 19.464 19.9003 19.2835C18.8481 18.9826 18.0666 18.6818 17.5555 18.411C17.0745 18.1102 16.804 17.7191 16.804 17.2077C16.804 16.967 16.8641 16.7565 16.9543 16.5158C17.0445 16.3052 17.1948 16.0946 17.4353 15.9141C17.4954 15.8539 17.5555 15.8239 17.6457 15.7637V13.718C16.9844 13.9286 16.4132 14.2294 15.9923 14.6506C15.3009 15.3124 14.9402 16.1247 14.9102 17.1175C14.9102 17.7191 15.0003 18.2005 15.1807 18.6216C15.3911 19.0428 15.6617 19.3737 16.0525 19.6746C16.4433 19.9754 16.8942 20.2161 17.4353 20.4266C17.9764 20.6372 18.5776 20.8478 19.269 21.0283C19.8401 21.2088 20.3512 21.3592 20.772 21.5096C21.1929 21.6601 21.5536 21.8105 21.8542 21.991C22.1548 22.1715 22.3653 22.352 22.5156 22.5626C22.6659 22.7732 22.726 23.0439 22.726 23.3447C22.726 23.6456 22.6659 23.9163 22.5156 24.157C22.3653 24.3977 22.1548 24.6082 21.9143 24.7887C21.8843 24.8188 21.8242 24.8489 21.7941 24.8489V26.8946C22.0045 26.8344 22.1849 26.7743 22.3953 26.684C22.9064 26.4433 23.3272 26.1726 23.6579 25.8116C23.9886 25.4807 24.2591 25.0896 24.4395 24.6383C24.6198 24.2472 24.71 23.796 24.71 23.2846Z" fill="#495352"/>
<path d="M4.20853 20.2762L11.2127 11.6121V11.2511L5.68151 4.39209H1.98402L7.81583 11.4316L0 20.8779V22.8634H15.2709V20.2762H4.20853Z" fill="#495352"/>
<path d="M4.20853 2.58718H14.5194V0H0V2.01559L0.480974 2.58718H4.20853Z" fill="#495352"/>
</g>
<defs>
<clipPath id="clip0">
<rect width="24.7101" height="28.9704" fill="white"/>
</clipPath>
</defs>
</svg>
