<svg width="31" height="24" fill="none" xmlns="http://www.w3.org/2000/svg"><path d="M8.951 8.55c0 .829-.669 1.5-1.486 1.5A1.486 1.486 0 015.98 8.567V7.261a.592.592 0 00-.59-.592.593.593 0 00-.592.592v1.386a2.687 2.687 0 002.13 2.544v3.677a2.696 2.696 0 00-2.13 2.832 2.68 2.68 0 002.477 2.466 2.678 2.678 0 002.868-2.675c0-1.255-.869-2.31-2.034-2.605v-3.73a2.69 2.69 0 002.025-2.527V7.252a.592.592 0 00-.59-.592c-.33 0-.592.27-.592.592v1.299zm0 8.94c0 .82-.669 1.49-1.486 1.49a1.493 1.493 0 01-1.486-1.49c0-.818.67-1.49 1.486-1.49.817 0 1.486.663 1.486 1.49zm5.059-4.182h11.002a.592.592 0 000-1.185H14.009c-.33 0-.59.27-.59.593a.582.582 0 00.59.592zm4.432-3.206h6.57a.592.592 0 000-1.185h-6.57c-.33 0-.591.27-.591.592a.587.587 0 00.59.593zM16.34 8.908h-2.26a.592.592 0 000 1.185h2.26a.592.592 0 000-1.185zm4.483-7.093h-1.52a.592.592 0 000 1.185h1.52a.592.592 0 000-1.185zM14.01 15.792h11.002a.592.592 0 000-1.185H14.009c-.33 0-.59.27-.59.592a.587.587 0 00.59.593zm0 2.501h11.002a.592.592 0 000-1.185H14.009c-.33 0-.59.27-.59.592a.587.587 0 00.59.593z" fill="#067362"/><path d="M25.794 1.876h-2.729a.524.524 0 000 1.046h2.73a3.239 3.239 0 013.223 3.233v13.567a3.239 3.239 0 01-3.224 3.232H4.267a3.239 3.239 0 01-3.224-3.232V6.155a3.239 3.239 0 013.224-3.233H6.9L8.647 1.17a.403.403 0 01.583 0l1.746 1.752h6.24a.524.524 0 000-1.046h-5.814L10.003.456a1.52 1.52 0 00-.965-.453 1.445 1.445 0 00-1.12.427L6.474 1.876H4.267C1.921 1.876.01 3.793 0 6.155v13.567A4.286 4.286 0 004.267 24h21.527c2.347 0 4.259-1.917 4.267-4.278V6.155a4.286 4.286 0 00-4.267-4.279z" fill="#067362"/></svg>