<svg width="41" height="42" fill="none" xmlns="http://www.w3.org/2000/svg"><g opacity=".5" clip-path="url(#clip0)" fill="#8C9C9A"><path d="M36.393 17.65a1.639 1.639 0 00-.159-.984c.18-.096.333-.236.464-.4.54-.652.531-1.586.04-2.223.214-.176.381-.388.501-.636.2-.435.23-.911.063-1.361a1.746 1.746 0 00-.544-.77c.145-.159.269-.342.34-.548.316-.858-.098-1.825-.943-2.14L24.246 3.429c-.065-.028-.155-.035-.217.001-.02.008-.038.016-.044.029l-.188.077c-.22.08-.351.133-.372.33.004.174.36.58.44.614l11.881 5.147a.552.552 0 01.302.682.544.544 0 01-.692.35c-.013-.006-.026-.012-.044-.004l-.408-.065a.54.54 0 00-.643.308.563.563 0 00.306.747l1.332.413a.667.667 0 01.4.819.714.714 0 01-.343.405.604.604 0 01-.518.014l-.027-.011-1.587-.508a.545.545 0 00-.699.33.581.581 0 00.005.429.515.515 0 00.312.291l2.125.707a.64.64 0 01.354.815.635.635 0 01-.823.404l-2.406-.812a.532.532 0 00-.694.317.554.554 0 00.317.72l2.578.885a.612.612 0 01-.396 1.155l-.013-.005-5.632-1.266-2.128-.772c-.092-.04-.199-.006-.272.057-.074.063-.119.17-.094.26.045.223.076.442.09.669.012.116.09.228.206.246l.716.181-.207.416-.934.262-.44-.284-.47-.359a1.917 1.917 0 01-.326-.33c-.09-.117-.274-.527-.428-.861-.322-.707-.433-.96-.608-.987a6.067 6.067 0 01-.355-.483 5.97 5.97 0 01-.71-1.552l-.023-.057c-.561-1.06-2.34-3.134-2.416-3.213a.269.269 0 00-.094-.072L17.083 8.32l.134-.574 1.334-4.916.15-.393a.29.29 0 000-.22l.012-.248a.3.3 0 00-.012-.084l-.142-.582-.023-.057c-.05-.1-.107-.188-.163-.275a1.672 1.672 0 00-1.11-.681 1.74 1.74 0 00-.973.134 1.53 1.53 0 00-.387-.481 1.7 1.7 0 00-1.262-.432c-.338.028-.665.14-.928.359a1.789 1.789 0 00-.62-.519 1.668 1.668 0 00-1.332-.082c-.308.104-.573.29-.79.544a1.868 1.868 0 00-.533-.355c-.834-.342-1.803.078-2.14.91l-5.422 11.98a.29.29 0 000 .22l.022.057c.015.038.053.133.062.185.077.222.124.368.304.383.218-.002.594-.377.622-.443L9.297.798a.535.535 0 01.682-.291.484.484 0 01.299.286.564.564 0 01.024.42l-.397 1.123c-.1.273.026.563.283.69.131.056.28.072.425.024a.496.496 0 00.31-.293l.011-.026.755-2.042a.66.66 0 01.817-.39c.177.06.312.18.38.351a.69.69 0 01-.003.52l-.017.04-.608 2.247c-.1.272.028.595.31.7a.556.556 0 00.72-.306l.01-.026.827-2.8A.653.653 0 0114.94.68a.65.65 0 01.375.84l-.011.026-.725 2.56c-.1.272.034.582.296.695a.547.547 0 00.72-.307l.011-.026.799-2.733a.603.603 0 01.73-.333.59.59 0 01.41.538.16.16 0 00-.045.107l-1.8 6.609-.415 1.384a.28.28 0 00.06.262c.062.074.16.1.256.094.222-.047.445-.061.656-.081a.282.282 0 00.257-.205l.196-.72.402.188.229.965-.296.441-.37.472a1.46 1.46 0 01-.34.327c-.117.092-.53.262-.861.42-.707.312-.957.425-.998.597-.16.12-.32.24-.493.356a5.912 5.912 0 01-1.55.69l-.056.024c-1.058.555-3.156 2.32-3.248 2.391a.274.274 0 00-.072.096l-1.63 3.306-5.38-1.237-.56-.145-.014-.006c-.013-.005-.045-.003-.373-.034l-.096.006-.575.148-.057.023a1.724 1.724 0 00-.951 1.295 1.8 1.8 0 00.127.985c-.18.096-.346.23-.477.394-.307.358-.467.81-.433 1.281.026.343.135.673.349.939a1.83 1.83 0 00-.516.63 1.802 1.802 0 00.431 2.141 1.62 1.62 0 00-.353.542c-.343.847.053 1.821.887 2.164l11.795 5.425a.28.28 0 00.162.022.173.173 0 00.094-.038.59.59 0 00.342-.405.604.604 0 00-.107-.52.414.414 0 00-.107-.077l-11.77-5.414a.542.542 0 01-.283-.69.493.493 0 01.284-.304.544.544 0 01.441-.015l.41.097a.541.541 0 00.656-.302.616.616 0 00.026-.43.49.49 0 00-.287-.313l-.026-.011-1.328-.46a.63.63 0 01-.415-.636.682.682 0 01.321-.54.644.644 0 01.594-.045l.013.006 1.565.561a.556.556 0 00.72-.306.554.554 0 00-.299-.727l-.013-.006-2.11-.78a.64.64 0 01-.335-.822.656.656 0 01.344-.372.65.65 0 01.492-.026l2.386.898a.553.553 0 00.706-.312.554.554 0 00-.298-.727l-2.556-.971a.601.601 0 01-.338-.745.636.636 0 01.293-.363.556.556 0 01.453-.042l.013.006 5.608 1.397 2.124.817c.092.04.193.02.267-.043.073-.063.118-.17.094-.26-.045-.224-.058-.45-.077-.663a.28.28 0 00-.2-.26l-.737-.205.196-.39.973-.244.434.296.464.373c.127.102.236.212.32.343.09.117.256.535.41.87.304.713.414.966.583 1.007a9.5 9.5 0 01.35.497c.304.493.52 1.011.673 1.566l.022.058a32.67 32.67 0 001.738 3.017c.002.032.004.064.025.089a.297.297 0 00.2.15l.5.103 3.216 1.617-1.403 5.376a.218.218 0 00.002.143l.007.019-.043.139a.836.836 0 00-.062.257c-.006.013-.006.013.001.032l-.007.092-.023.053a.235.235 0 00.004.175c-.006.014.002.032.01.051l.142.582.022.057a1.67 1.67 0 00.862.827c.131.057.269.1.417.116.336.05.667.003.973-.134.094.182.226.35.387.481a1.719 1.719 0 002.19.073c.16.21.376.398.62.519.41.207.893.24 1.332.082.308-.104.573-.29.79-.544.156.146.336.27.533.355a1.652 1.652 0 002.14-.91l5.428-11.993c.028-.067.036-.158 0-.22-.007-.02-.02-.025-.028-.044a1.32 1.32 0 01-.062-.184c-.077-.223-.123-.37-.304-.383-.218 0-.594.376-.622.442l-5.41 11.952a.535.535 0 01-.683.291.55.55 0 01-.323-.706l.012-.027.098-.415a.547.547 0 00-.295-.663.555.555 0 00-.735.268l-.01.027-.462 1.348a.66.66 0 01-.818.39.603.603 0 01-.379-.352.69.69 0 01.002-.52l.006-.013.563-1.588a.563.563 0 00-.299-.727.505.505 0 00-.422.008.596.596 0 00-.303.311l-.78 2.141a.633.633 0 01-.815.345.65.65 0 01-.375-.84l.9-2.42a.547.547 0 00-.291-.71.547.547 0 00-.72.307l-.973 2.595a.595.595 0 01-.736.346.622.622 0 01-.357-.295.575.575 0 01-.04-.458l.006-.014.869-3.523.826-2.8a.219.219 0 00-.002-.142l.518-1.371a.26.26 0 00-.041-.27c-.062-.074-.168-.12-.256-.094-.222.047-.445.061-.656.081a.282.282 0 00-.257.205l-.232.879-.165-.087-.187-1.248.788-1.239c.143-.08.53-.261.836-.398.707-.312.957-.425.998-.597.16-.12.32-.241.493-.356a5.913 5.913 0 011.55-.691l.056-.023a32.526 32.526 0 002.989-1.777c.032-.003.064-.005.088-.026a.305.305 0 00.149-.204l.105-.507 1.614-3.266 5.3 1.391a.277.277 0 00.289-.096.3.3 0 00.062-.147l.449.003c.018-.007.045.004.064-.004.013.006.013.006.032-.002l.276.008a.308.308 0 00.082-.012l.581-.16.056-.024c.1-.051.186-.109.26-.172.45-.406.684-.81.735-1.262zm-16.368 6.822a2.688 2.688 0 00-1.426.618c-.006.013-.025.021-.03.034l-1.337 1.509a.27.27 0 00-.064.225l.07.677-1.847-.92a31.155 31.155 0 01-1.455-2.548 6.797 6.797 0 00-1.689-2.95 2.713 2.713 0 00-.442-1.23l.005-.014a.29.29 0 00-.086-.273l-1.589-1.313a.282.282 0 00-.208-.058l-.51.065.954-1.925a31.073 31.073 0 012.524-1.487 6.766 6.766 0 002.921-1.728c.44-.047.847-.204 1.218-.455l.013.006c.098.026.21-.02.27-.09l.755-.937.577-.667c.054-.056.07-.128.071-.206l-.043-.524 1.708.812c.54.816 1.05 1.666 1.51 2.526a6.893 6.893 0 001.752 2.912c.063.438.215.85.467 1.21l-.006.014c-.013.104.024.2.105.265l1.619 1.279c.06.041.125.07.208.058l.432-.067-.987 2.005a31.039 31.039 0 01-2.524 1.487 6.316 6.316 0 00-2.936 1.69z"/><path d="M14.086 33.745a.907.907 0 00-.49.531.963.963 0 00.023.72.91.91 0 00.522.491.93.93 0 001.199-.557.964.964 0 00-.022-.72.908.908 0 00-1.232-.465zm6.579-30.03a.91.91 0 00.75-.01c.462-.211.667-.77.467-1.25a.934.934 0 00-1.233-.466c-.462.212-.667.77-.466 1.25a.993.993 0 00.482.476zM1.763 16.398l.04.017a.93.93 0 00.71-.026c.462-.212.667-.77.467-1.251a.934.934 0 00-1.232-.466.907.907 0 00-.49.531.936.936 0 00.505 1.194zm31.226 4.662c-.463.212-.668.771-.467 1.252a.91.91 0 00.482.475l.04.017a.93.93 0 00.71-.027c.462-.211.667-.77.467-1.25a.908.908 0 00-1.232-.466zm-11.514-3.901a3.763 3.763 0 00-1.258-1.58 3.711 3.711 0 00-.715-.402c-1.933-.83-4.157.093-4.981 2.042-.204.48-.31.988-.313 1.475a3.852 3.852 0 00.496 1.948 3.76 3.76 0 001.799 1.623c1.933.83 4.17-.088 5-2.05a3.797 3.797 0 00-.028-3.056zm-4.565 4.145c-1.407-.604-2.066-2.242-1.456-3.684a2.74 2.74 0 01.482-.771c.09-.104.175-.193.273-.278a2.845 2.845 0 011.488-.654c.459-.056.93.005 1.39.202a2.768 2.768 0 011.557 1.756c.182.598.17 1.287-.101 1.928a2.74 2.74 0 01-3.633 1.501z"/></g><defs><clipPath id="clip0"><path fill="#fff" d="M0 0h41v42H0z"/></clipPath></defs></svg>