<svg width="100" height="100" fill="none" xmlns="http://www.w3.org/2000/svg"><g clip-path="url(#clip0)" fill="#067362"><path d="M74.375 89.938l1.688 2.374c1.062-.624 2.062-1.312 3.062-2l-1.875-2.25c-.938.626-1.938 1.25-2.875 1.876zm7.563-1.813a49.942 49.942 0 002.75-2.375l-2.188-2c-.812.75-1.687 1.5-2.562 2.25l2 2.125zm9.75-10.5c.687-.938 1.312-2 1.937-3l-2.688-1.375c-.562.938-1.187 1.875-1.812 2.813l2.563 1.562zM61.625 95.438l.875 2.687A32.641 32.641 0 0066 97l-1-2.625c-1.125.375-2.25.75-3.375 1.063zM96.5 44.813l3-.376c-.187-1.124-.375-2.312-.625-3.437l-3 .563c.25 1.062.438 2.187.625 3.25zm1.375 20.25c.375-1.126.625-2.25.938-3.376l-3-.624c-.25 1.062-.563 2.124-.876 3.187l2.938.813zm-.937-14.875v1.187H100v-1.188c0-.75-.063-1.562-.125-2.312l-3.063.188c.063.687.126 1.374.126 2.124zM95.25 71.5c.5-1.063 1-2.125 1.438-3.188l-2.876-1c-.374 1-.874 2-1.374 3L95.25 71.5zm-8.063 11.688A44.227 44.227 0 0089.5 80.5l-2.438-1.688a42.959 42.959 0 01-2.187 2.563l2.312 1.813zM99.438 58.25c.187-1.125.312-2.313.374-3.438l-3.062-.187a28.754 28.754 0 01-.375 3.25l3.063.375zM69.5 95.688c1.125-.5 2.25-1 3.313-1.563l-1.5-2.5c-1 .5-2.063 1-3.126 1.5l1.313 2.563zm-47-83.438L20.625 10c-1 .688-1.938 1.438-2.875 2.25l2 2.125c.875-.75 1.813-1.438 2.75-2.125zm-7.437 2.375c-.876.813-1.688 1.688-2.5 2.563L14.874 19c.75-.813 1.563-1.625 2.375-2.438l-2.188-1.937zM6.25 25.875c-.563 1-1.125 2.063-1.625 3.125l2.813 1.125c.5-1 1-2 1.562-2.938l-2.75-1.312zM34.688 5.75l-1.126-2.625C32.438 3.563 31.25 4 30.125 4.5l1.313 2.563c1.062-.438 2.187-.875 3.25-1.313zM1.125 38.875C.875 40 .687 41.188.5 42.313l3 .374c.125-1.062.375-2.187.625-3.25l-3-.562zm2.188 14.75c-.063-.375-.063-.75-.125-1.125l-3 .25c0 .375.062.813.125 1.188.062.75.187 1.5.312 2.25l3-.438c-.187-.75-.25-1.438-.312-2.125zm-.125-21.437A29.489 29.489 0 002.062 35.5l2.876.75c.312-1.063.687-2.063 1.062-3.125l-2.813-.938zm7.062-12.25a48.756 48.756 0 00-2.125 2.875l2.563 1.5c.624-.938 1.312-1.813 2-2.688l-2.438-1.688zM.125 45.75C.062 46.875 0 48.063 0 49.25h3.063c0-1.063 0-2.188.124-3.25l-3.062-.25zm41.25-41.937l-.688-2.75c-1.187.25-2.437.562-3.562.937L38 4.688c1.125-.313 2.25-.625 3.375-.875zm-14.5 2.312c-1.063.563-2.125 1.188-3.188 1.813l1.688 2.375c1-.626 2-1.188 3-1.75l-1.5-2.438zm28.063 90.5c-21.688 2.125-42.5-11.375-49.5-32.063-.25-.812-1.188-1.312-2-1-.813.25-1.25 1.188-1 2 7.437 22.126 29.687 36.501 52.875 34.25h.062c.875-.124 1.438-.874 1.375-1.75-.125-.874-.937-1.562-1.812-1.437zM46.5 3.25c21.375-1.375 41.063 11.875 47.875 32.188.25.75 1 1.187 1.75 1.062.125 0 .188-.063.313-.063.812-.25 1.25-1.187 1-2C90.125 12.75 69.125-1.374 46.313.063c-.875.062-1.5.812-1.438 1.687 0 .875.75 1.563 1.625 1.5z"/></g><path d="M76.813 28.52c-.715 2.94-1.468 5.88-2.143 8.856-2.578 11.215-5.117 22.394-7.696 33.608-.556 2.432-2.539 3.086-4.721 1.634-4.086-2.722-8.212-5.408-12.258-8.166-1.032-.69-1.706-.654-2.658.109-1.984 1.596-4.087 3.12-6.19 4.645-2.26 1.67-4.165 1.162-5.038-1.38a1273.04 1273.04 0 01-4.363-12.992c-.238-.763-.675-1.198-1.508-1.488-3.769-1.234-7.537-2.577-11.306-3.847-1.27-.436-2.023-1.198-2.063-2.396-.04-1.306.793-2.069 2.063-2.54l53.675-18.946c1.984-.69 3.055-.29 4.166 1.597.04.508.04.907.04 1.307zm-12.26 42.937c3.372-14.771 6.665-29.289 10.037-44.17A29428.877 29428.877 0 0119.13 46.85c0 .145.039.254.039.4.436.18.833.362 1.27.507 3.847 1.307 7.695 2.65 11.544 3.92.872.29 1.349.726 1.626 1.56 1.389 4.21 2.817 8.42 4.245 12.631.238.726.516 1.415.873 2.287 2.539-1.888 4.88-3.63 7.26-5.372 1.983-1.452 3.173-1.488 5.236-.109 3.055 2.033 6.11 4.065 9.125 6.097 1.388.835 2.658 1.67 4.205 2.686z" fill="#067362"/><path d="M64.594 36.288c-.476.58-.794 1.088-1.23 1.488-5.356 4.573-10.632 9.327-16.186 13.719-3.134 2.468-5.316 5.08-5.237 9 0 1.017-.396 1.852-1.706 1.924-1.309.073-1.745-.726-2.062-1.706-.794-2.577-1.587-5.117-2.38-7.694-.596-1.96-.04-3.23 1.904-4.319a4894.28 4894.28 0 0123.842-13.429c.556-.29 1.389-.326 2.063-.218.397.11.635.726.992 1.235zM39.799 57.882c.476-1.85.714-3.665 2.42-5.044 2.817-2.287 5.554-4.682 8.291-7.005 1.746-1.488 3.452-2.976 5.237-4.5-.198-.037-.317-.11-.357-.073-5.594 3.121-11.148 6.279-16.702 9.436-.396.218-.833.907-.714 1.27.516 1.997 1.19 3.956 1.825 5.916zm21.661 8.892c.436-1.814.833-3.375 1.19-4.9.556-2.25 1.071-4.5 1.587-6.75.159-.762.555-1.234 1.428-1.053.833.182 1.032.726.833 1.489-.873 3.629-1.666 7.258-2.618 10.888-.12.472-.794.98-1.349 1.197-.159.073-.754-.58-1.071-.87zm6.506-16.913c-.278 1.09-.436 1.924-1.468 1.924-.397 0-1.031-.69-1.11-1.125-.08-.726.079-1.67 1.23-1.633.436.036.912.544 1.348.834z" fill="#067362"/><defs><clipPath id="clip0"><path fill="#fff" d="M0 0h100v100H0z"/></clipPath></defs></svg>