<svg width="15" height="14" fill="none" xmlns="http://www.w3.org/2000/svg"><path d="M15 .884c-.179.807-.367 1.614-.536 2.43-.645 3.08-1.28 6.148-1.926 9.227-.139.668-.635.847-1.181.449-1.023-.748-2.055-1.485-3.068-2.242-.258-.19-.426-.18-.665.03-.496.438-1.022.856-1.548 1.275-.566.458-1.043.319-1.261-.379-.367-1.185-.735-2.37-1.092-3.567a.56.56 0 00-.377-.408C2.403 7.36 1.46 6.992.516 6.643.2 6.523.01 6.314 0 5.985c-.01-.359.199-.568.517-.697L13.947.087c.497-.19.765-.08 1.043.438.01.14.01.25.01.359zM11.933 12.67C12.776 8.616 13.6 4.63 14.444.545A6940.993 6940.993 0 01.566 5.915c0 .04.01.07.01.11.11.05.209.1.318.14.963.358 1.926.727 2.889 1.076.218.08.337.199.407.428.347 1.156.704 2.312 1.062 3.467.06.2.129.389.218.628.635-.518 1.221-.996 1.817-1.474.496-.4.794-.409 1.31-.03.764.558 1.529 1.116 2.283 1.674.348.229.665.458 1.053.737z" fill="#8C9C9A"/><path d="M11.943 3.016c-.12.16-.2.299-.308.409-1.34 1.255-2.66 2.56-4.05 3.766-.785.677-1.33 1.395-1.31 2.47 0 .28-.1.509-.428.529-.327.02-.436-.2-.516-.468-.198-.708-.397-1.405-.596-2.113-.148-.538-.01-.887.477-1.185a1196.9 1196.9 0 015.966-3.687c.14-.08.347-.09.516-.06.1.03.16.2.248.339zM5.738 8.944c.12-.508.179-1.006.606-1.385.704-.627 1.39-1.285 2.074-1.923.437-.408.864-.817 1.31-1.235-.049-.01-.079-.03-.089-.02-1.4.857-2.79 1.724-4.179 2.59-.1.06-.208.25-.179.35.13.547.298 1.085.457 1.623zm5.42 2.441c.11-.498.209-.926.298-1.345.139-.617.268-1.235.397-1.853.04-.21.14-.339.357-.289.209.05.259.2.209.409-.219.996-.417 1.992-.655 2.989-.03.13-.199.269-.338.329-.04.02-.188-.16-.268-.24zm1.628-4.643c-.07.3-.109.528-.367.528-.1 0-.258-.189-.278-.308-.02-.2.02-.459.308-.449.109.01.228.15.337.23z" fill="#8C9C9A"/></svg>