<svg width="26" height="22" fill="none" xmlns="http://www.w3.org/2000/svg"><path d="M18.904 0L18.9 2.325l-.004 2.345c.275-.04.569-.06.9-.06.531 0 1.009.06 1.375.18.367.119.716.298.972.496.275.219.495.457.66.716.164.258.31.536.42.835l2.057-.756c-.31-.894-.823-1.67-1.52-2.345-.695-.675-1.612-1.113-2.695-1.331L21.07.02h-2.166V0zm2.126 22l.009-4.71a4.46 4.46 0 01-.9.08c-1.119 0-2.055-.22-2.751-.676-.715-.457-1.21-.994-1.502-1.61l-2.02.755c.365.914.97 1.71 1.83 2.425.862.695 1.926 1.152 3.21 1.351L18.902 22h2.128z" fill="#30C4AE"/><path d="M22.526 16.694c-.055.04-.091.06-.147.1l-.004 2.603c.238-.08.477-.16.68-.278.587-.299 1.102-.656 1.506-1.094a4.41 4.41 0 00.92-1.49 5.07 5.07 0 00.315-1.749c.002-.755-.144-1.411-.418-1.948a4.562 4.562 0 00-1.172-1.39c-.495-.398-1.1-.716-1.779-.994a23.46 23.46 0 00-2.237-.775c-1.247-.378-2.164-.756-2.733-1.113-.586-.378-.86-.895-.86-1.53.001-.299.057-.577.168-.875.11-.278.294-.537.551-.775.074-.06.147-.12.24-.179l.004-2.584c-.771.259-1.433.636-1.947 1.173-.81.835-1.233 1.888-1.272 3.14-.02.755.089 1.391.327 1.908.237.517.567.974 1.025 1.351a6.1 6.1 0 001.631.954c.642.278 1.357.517 2.146.775a53.13 53.13 0 011.76.597c.496.178.936.397 1.266.615.348.22.605.478.77.736.164.278.255.616.255.994a2.221 2.221 0 01-.26 1.053 2.601 2.601 0 01-.735.775zM5.568 13.326h6.496v2.05H5.568zm-2.784 0H4.64v2.05H2.784zm0-4.1H9.28v2.05H2.784zM0 9.226h1.856v2.05H0zm4.64-4.101h7.424v2.05H4.64z" fill="#30C4AE"/></svg>