<svg width="24" height="19" fill="none" xmlns="http://www.w3.org/2000/svg"><path d="M11.979 3.785c-.602 0-1.19.188-1.69.54a3.183 3.183 0 00-1.122 1.439c-.23.586-.29 1.23-.173 1.852a3.26 3.26 0 00.833 1.641c.426.448.968.754 1.558.877a2.9 2.9 0 001.758-.182 3.083 3.083 0 001.366-1.18 3.328 3.328 0 00.513-1.781 3.299 3.299 0 00-.892-2.266 2.972 2.972 0 00-2.151-.94zm0 5.144c-.364 0-.72-.114-1.022-.327a1.92 1.92 0 01-.678-.87 2.034 2.034 0 01-.105-1.12c.071-.376.246-.721.504-.992.257-.271.585-.456.942-.53a1.754 1.754 0 011.063.11c.336.146.624.395.826.714.202.318.31.693.31 1.077a1.996 1.996 0 01-.542 1.366 1.799 1.799 0 01-1.298.567v.005zM24 7.622V6.35h-3.778a9.102 9.102 0 00-3.138-4.593A8.364 8.364 0 0011.977 0a8.363 8.363 0 00-5.108 1.757C5.387 2.899 4.29 4.507 3.731 6.35H0v1.267h3.448a10.53 10.53 0 00-.097.818H0v1.267h3.347c.02.309.053.616.101.92H0v1.268h3.731a9.114 9.114 0 003.138 4.593 8.363 8.363 0 005.108 1.757 8.364 8.364 0 005.107-1.757 9.102 9.102 0 003.138-4.593h3.774v-1.267h-3.49c.048-.305.081-.612.1-.92h3.377V8.434h-3.377c0-.275-.05-.55-.097-.818L24 7.622zM8.1 15.81a4.186 4.186 0 011.24-2.683 3.785 3.785 0 012.639-1.086c.978 0 1.92.388 2.639 1.086a4.186 4.186 0 011.24 2.683 7.107 7.107 0 01-3.88 1.16A7.107 7.107 0 018.1 15.81zm8.864-.858a5.411 5.411 0 00-1.788-3.012 4.936 4.936 0 00-3.182-1.175 4.936 4.936 0 00-3.182 1.175 5.41 5.41 0 00-1.788 3.012 7.94 7.94 0 01-2.274-4A8.246 8.246 0 015.03 6.3a7.801 7.801 0 012.737-3.665 7.194 7.194 0 014.227-1.384c1.51 0 2.983.482 4.227 1.384A7.801 7.801 0 0118.957 6.3a8.246 8.246 0 01.28 4.653 7.94 7.94 0 01-2.273 4z" fill="#495352"/></svg>