<svg width="22" height="32" fill="none" xmlns="http://www.w3.org/2000/svg"><path d="M20.927 17.283c-.716-1.026-1.789-1.882-3.04-2.395.715-.514 1.43-1.198 1.967-2.054.536-.855.715-1.711.715-2.738 0-.855-.179-1.882-.537-2.567-.357-.855-.715-1.54-1.43-2.224-.537-.685-1.431-1.198-2.326-1.54-.894-.343-1.967-.514-3.22-.514h-.178V0h-3.04v3.422h-3.4V0h-3.04v3.422H0v3.423h12.878c1.252 0 2.146.342 2.683 1.027.537.684.894 1.54.894 2.395 0 1.027-.357 1.712-1.073 2.396-.715.685-1.61 1.027-3.04 1.027H6.439v-3.423H2.862v15.059H.179v3.423h3.398V32h3.04v-3.251h3.221V32h3.041v-3.251h.358c1.252 0 2.504-.171 3.577-.514 1.073-.342 1.968-.855 2.683-1.54.715-.684 1.43-1.54 1.789-2.396.357-1.026.715-2.053.715-3.08 0-1.711-.358-2.909-1.073-3.936zm-3.935 6.845c-.894.856-2.147 1.198-3.577 1.198H6.797v-8.385h6.439c1.61 0 2.862.342 3.756 1.198.894.684 1.252 1.711 1.252 3.08 0 1.198-.358 2.225-1.252 2.91z" fill="#8C9C9A"/></svg>