<svg width="32" height="32" fill="none" xmlns="http://www.w3.org/2000/svg"><path opacity=".2" d="M16.089 0C7.24 0 0 7.328 0 16.465c0 7.043 4.29 13.04 10.28 15.419 1.25.476 2.591-.571 2.591-1.999 0-.857-.536-1.713-1.34-1.999-4.649-1.808-7.956-6.186-7.956-11.42C3.575 9.707 9.117 4.187 16 4.187c6.882 0 12.424 5.52 12.424 12.277 0 5.235-3.307 9.708-7.955 11.421-.805.286-1.341 1.047-1.341 1.999 0 1.428 1.34 2.475 2.592 1.999C27.71 29.504 32 23.508 32 16.465 32.088 7.424 24.937 0 16.088 0z" fill="#fff"/></svg>