<svg width="47" height="16" viewBox="0 0 47 16" fill="none" xmlns="http://www.w3.org/2000/svg">
<g opacity="0.5">
<path d="M31.7784 0.993699C32.0872 1.08178 32.4107 1.08178 32.7195 1.14783C33.2269 1.24325 33.7195 1.37536 34.2047 1.54418C34.3297 1.58822 34.3738 1.64693 34.3518 1.77905C34.1974 2.7112 34.043 3.64334 33.8959 4.56815C33.8665 4.72962 33.8004 4.7076 33.6901 4.65622C32.6828 4.17914 31.6167 3.97363 30.5064 4.03235C29.9697 4.06171 29.455 4.14978 29.0139 4.48007C28.4551 4.89843 28.4183 5.49295 28.911 5.98471C29.0433 6.11683 29.1904 6.22693 29.3521 6.32968C29.7859 6.61593 30.2565 6.8508 30.7197 7.07833C31.2711 7.35724 31.8078 7.65817 32.2931 8.03984C33.668 9.11144 34.1018 10.4986 33.6754 12.1648C33.3004 13.6327 32.3225 14.5942 30.9844 15.2254C30.0947 15.6438 29.1462 15.8493 28.1757 15.9154C26.6096 16.0255 25.0656 15.8493 23.5731 15.3575C23.1099 15.2034 23.1172 15.2034 23.1907 14.7263C23.3304 13.8676 23.4701 13.0015 23.6025 12.1427C23.6319 11.9593 23.6834 11.9446 23.8451 12.018C24.6024 12.3776 25.3744 12.7006 26.2052 12.8253C27.0067 12.9428 27.8007 13.0088 28.6022 12.8033C28.9624 12.7079 29.2933 12.5611 29.5653 12.2969C29.9991 11.8565 30.0285 11.2546 29.6241 10.7849C29.3889 10.5133 29.0948 10.3152 28.786 10.139C28.2713 9.85275 27.7419 9.58852 27.2199 9.30227C26.7052 9.02336 26.2273 8.68573 25.8009 8.27471C24.6392 7.16641 24.3818 5.7792 24.97 4.23052C25.4259 3.04148 26.3229 2.25613 27.4478 1.71299C28.2713 1.30931 29.1536 1.11113 30.0579 1.01572C30.1094 1.00838 30.1756 1.0304 30.2197 0.97168C30.7491 0.993699 31.2637 0.993699 31.7784 0.993699Z" fill="#A9A7A7"/>
<path d="M4.67739 3.22488C4.64063 3.16616 4.60387 3.10744 4.5377 3.07074C3.36865 2.40283 2.11873 1.91106 0.817346 1.57344C0.780584 1.5661 0.743822 1.5661 0.699707 1.5661C0.699707 1.5294 0.699707 1.4927 0.699707 1.44866C0.729117 1.27251 0.846756 1.25049 1.00851 1.25049C2.8981 1.25783 4.78768 1.25049 6.67727 1.25049C6.77285 1.25049 6.86843 1.25049 6.96401 1.25783C7.86101 1.30921 8.35363 1.74225 8.53009 2.61568C8.94183 4.69282 9.34621 6.76996 9.75795 8.84711C9.7653 8.89849 9.77266 8.94986 9.77266 9.00124C9.64767 9.03794 9.64031 8.93518 9.60355 8.86179C9.39033 8.36269 9.1624 7.86358 8.87566 7.40118C8.47127 6.72593 8.01542 6.09471 7.47869 5.52221C6.74344 4.72218 5.90526 4.02491 4.97149 3.44507C4.86856 3.37901 4.78033 3.29827 4.67739 3.22488Z" fill="#C5C5C5"/>
<path d="M4.67725 3.22497C4.74342 3.13689 4.79489 3.22497 4.839 3.24699C5.53013 3.66535 6.1845 4.14244 6.7874 4.69292C7.78734 5.61038 8.62552 6.64528 9.24313 7.849C9.43429 8.22333 9.59605 8.61967 9.77251 9.00134C9.8975 9.61787 10.0298 10.2344 10.1548 10.8509C10.1695 10.917 10.1842 10.9831 10.199 11.0638C10.2798 11.0051 10.2872 10.9243 10.3092 10.8509C11.4709 7.7389 12.6253 4.61952 13.7796 1.50747C13.8531 1.3093 13.9487 1.25058 14.1546 1.25792C15.3089 1.26526 16.4706 1.26526 17.6249 1.26526C17.8455 1.26526 17.8455 1.26526 17.7646 1.47078C15.853 6.1682 13.9414 10.8583 12.0297 15.5557C11.9709 15.6952 11.9047 15.7465 11.7503 15.7465C10.5592 15.7392 9.36812 15.7392 8.18437 15.7465C8.05203 15.7465 7.9785 15.7172 7.94174 15.5704C6.86093 11.4675 5.76541 7.37192 4.67725 3.27635C4.6846 3.25433 4.6846 3.23965 4.67725 3.22497Z" fill="#A9A7A7"/>
<path d="M18.897 15.7465C18.3382 15.7465 17.7795 15.7391 17.2207 15.7465C17.0589 15.7465 17.0295 15.7024 17.0589 15.5483C17.6177 12.1206 18.1691 8.70031 18.7279 5.27266C18.9338 3.99555 19.147 2.71843 19.3455 1.43398C19.3676 1.27985 19.4338 1.25049 19.5661 1.25049C20.6763 1.25783 21.7939 1.25783 22.9041 1.25049C23.1026 1.25049 23.1247 1.31655 23.0953 1.48536C22.8527 2.94597 22.6174 4.40657 22.3821 5.87452C21.9998 8.21589 21.6248 10.5573 21.2425 12.906C21.0954 13.8014 20.9484 14.6895 20.816 15.585C20.794 15.7244 20.7352 15.7611 20.6028 15.7538C20.0293 15.7465 19.4632 15.7465 18.897 15.7465Z" fill="#A9A7A7"/>
<path d="M46.9834 15.5409C46.851 14.9244 46.726 14.3079 46.5937 13.6987C45.7408 9.61778 44.8879 5.53689 44.0424 1.44866C44.013 1.30921 43.9615 1.25049 43.8071 1.25049C42.8733 1.25783 41.9396 1.25783 41.0132 1.25783C40.0868 1.25783 39.4544 1.66151 39.1015 2.53494C38.5354 3.92949 37.9398 5.3167 37.359 6.71125C36.1238 9.66182 34.8886 12.6051 33.6533 15.5556C33.5725 15.7538 33.5725 15.7538 33.7783 15.7538C34.9621 15.7538 36.1458 15.7538 37.3296 15.7538C37.4693 15.7538 37.5355 15.7024 37.5796 15.5776C37.7781 15.0051 37.9987 14.4326 38.1972 13.8528C38.2633 13.6473 38.3589 13.5666 38.5869 13.5666C39.2927 13.5886 39.9985 13.5739 40.7117 13.5739C41.447 13.5739 42.1749 13.5812 42.9101 13.5739C43.0645 13.5739 43.138 13.6179 43.1674 13.7794C43.2777 14.3813 43.4101 14.9758 43.5277 15.5703C43.5571 15.7098 43.6086 15.7538 43.7556 15.7538C44.785 15.7465 45.8143 15.7465 46.8437 15.7538C47.0054 15.7538 47.0201 15.6951 46.9834 15.5409ZM42.2925 10.616C41.3734 10.6086 40.4544 10.616 39.5353 10.616C39.425 10.616 39.3589 10.6086 39.4103 10.4692C40.0426 8.75169 40.6676 7.04153 41.2999 5.32404C41.3073 5.30202 41.3146 5.27266 41.3734 5.26532C41.572 6.21215 41.7631 7.15163 41.9543 8.09112C42.116 8.86913 42.2704 9.64714 42.4395 10.4252C42.4763 10.5719 42.4469 10.616 42.2925 10.616Z" fill="#A9A7A7"/>
</g>
</svg>
