<svg width="53" height="19" fill="none" xmlns="http://www.w3.org/2000/svg"><path d="M33.273 3.218c.264.074.54.074.804.13.433.08.854.19 1.269.332.107.037.145.087.126.198-.132.783-.264 1.566-.39 2.342-.025.136-.082.117-.176.074a5.665 5.665 0 00-2.72-.524c-.459.025-.899.099-1.276.376-.477.352-.508.851-.087 1.264.113.111.238.204.376.29.371.24.773.438 1.169.629.471.234.93.487 1.344.807 1.175.9 1.546 2.066 1.182 3.465-.32 1.233-1.156 2.04-2.3 2.57-.76.352-1.57.525-2.4.58a10.361 10.361 0 01-3.933-.468c-.395-.13-.39-.13-.326-.53.119-.722.238-1.45.351-2.17.026-.155.07-.167.208-.105.647.302 1.307.573 2.017.678.684.098 1.363.154 2.048-.019.307-.08.59-.203.823-.425.37-.37.395-.876.05-1.27-.201-.228-.452-.395-.716-.543-.44-.24-.892-.462-1.338-.702a5.53 5.53 0 01-1.213-.863c-.993-.931-1.213-2.097-.71-3.397.39-.999 1.156-1.659 2.117-2.115.704-.339 1.458-.505 2.23-.585.044-.007.101.012.139-.037.452.018.892.018 1.332.018zM10.115 5.092a.339.339 0 00-.12-.13 13.061 13.061 0 00-3.178-1.257c-.032-.006-.063-.006-.1-.006V3.6c.024-.148.125-.166.263-.166 1.615.006 3.23 0 4.844 0 .082 0 .163 0 .245.006.766.043 1.187.407 1.338 1.14.352 1.745.697 3.49 1.05 5.234.006.044.012.087.012.13-.107.03-.113-.056-.145-.117a9.03 9.03 0 00-.622-1.227 9.206 9.206 0 00-1.193-1.578 10.204 10.204 0 00-2.143-1.745c-.088-.055-.163-.123-.251-.185z" fill="#5B5B5B"/><path d="M10.115 5.092c.057-.074.1 0 .138.019.59.351 1.15.752 1.665 1.214.855.77 1.57 1.64 2.099 2.651.163.314.301.647.452.968.107.518.22 1.035.327 1.553.012.056.025.111.037.18.07-.05.076-.118.095-.18.992-2.614 1.979-5.234 2.965-7.847.063-.167.144-.216.32-.21.987.006 1.98.006 2.966.006.188 0 .188 0 .12.173-1.634 3.945-3.268 7.885-4.901 11.83-.05.117-.107.16-.24.16a253.669 253.669 0 00-3.046 0c-.113 0-.176-.024-.207-.148-.924-3.446-1.86-6.886-2.79-10.326.006-.018.006-.03 0-.043zm12.15 10.518c-.477 0-.954-.007-1.432 0-.138 0-.163-.038-.138-.167.477-2.88.949-5.752 1.426-8.63.176-1.074.358-2.146.528-3.225.019-.13.075-.154.188-.154.949.006 1.904.006 2.853 0 .17 0 .188.055.163.197a644.436 644.436 0 00-.61 3.687c-.326 1.966-.647 3.933-.973 5.905-.126.753-.252 1.499-.365 2.25-.018.118-.069.149-.182.143-.49-.007-.974-.007-1.457-.007zm24-.173c-.113-.518-.22-1.036-.333-1.548-.729-3.427-1.458-6.855-2.18-10.289-.025-.117-.07-.166-.201-.166-.798.006-1.596.006-2.387.006-.792 0-1.332.339-1.634 1.073-.484 1.17-.992 2.336-1.489 3.507-1.055 2.479-2.11 4.95-3.166 7.429-.07.167-.07.167.106.167h3.035c.12 0 .176-.044.214-.149.17-.48.358-.961.527-1.448.057-.173.139-.24.333-.24.603.018 1.207.005 1.816.005.628 0 1.25.007 1.879 0 .131 0 .194.037.22.173.094.506.207 1.005.307 1.504.025.117.07.155.195.155.88-.007 1.76-.007 2.639 0 .138 0 .15-.05.12-.18zM42.257 11.3c-.786-.006-1.57 0-2.356 0-.094 0-.151-.006-.107-.123.54-1.443 1.074-2.88 1.615-4.322.006-.018.012-.043.062-.05.17.796.333 1.585.497 2.374.138.654.27 1.307.414 1.96.032.124.007.161-.125.161z" fill="#5B5B5B"/></svg>