<svg width="18" height="18" fill="none" xmlns="http://www.w3.org/2000/svg"><path d="M4.185 2.709c.371.371.954.407 1.415.155a6.812 6.812 0 011.35-.562c.503-.148.889-.585.889-1.11 0-.635-.557-1.133-1.172-.976a8.887 8.887 0 00-2.344.972c-.546.324-.588 1.071-.138 1.52zm-2.993 5.13c.525 0 .962-.386 1.11-.89.14-.472.329-.925.562-1.35.252-.46.216-1.043-.155-1.414-.45-.45-1.197-.408-1.521.139a8.888 8.888 0 00-.972 2.343c-.157.615.341 1.172.976 1.172zm15.385-3.516c-.324-.546-1.071-.588-1.52-.138-.372.371-.408.954-.155 1.415.232.425.422.877.561 1.35.148.503.585.89 1.11.89.635 0 1.133-.557.976-1.173a8.888 8.888 0 00-.972-2.344zm-6.353-3.097c0-.465.416-.822.866-.703a8.61 8.61 0 012.14.887c.403.235.445.782.116 1.112-.258.257-.66.291-.979.113a7.173 7.173 0 00-1.534-.638c-.35-.1-.609-.407-.609-.77zm.874-1.01c-.616-.157-1.172.341-1.172.976 0 .525.386.962.889 1.11.473.14.926.329 1.35.562.461.252 1.044.216 1.415-.155.45-.45.408-1.197-.138-1.521a8.89 8.89 0 00-2.344-.972zm5.475 9.71c-.525 0-.962.386-1.11.89-.14.473-.329.925-.562 1.35-.252.46-.216 1.043.155 1.414.45.45 1.197.408 1.521-.138.43-.723.76-1.51.972-2.344.157-.616-.341-1.172-.976-1.172zm-2.993 5.13c-.37-.371-.954-.407-1.414-.155a6.808 6.808 0 01-1.35.562c-.504.148-.89.585-.89 1.11 0 .634.556 1.132 1.172.976a8.889 8.889 0 002.344-.972c.546-.325.588-1.071.139-1.52zM2.709 13.58c.371-.37.407-.954.155-1.414a6.812 6.812 0 01-.562-1.35c-.148-.504-.585-.89-1.11-.89-.635 0-1.133.556-.976 1.172a8.89 8.89 0 00.972 2.344c.324.546 1.071.588 1.52.138zm5.13 2.08a6.816 6.816 0 01-2.844-1.132.241.241 0 00-.308.025l-.502.503c-.45.45-.408 1.196.138 1.521a8.889 8.889 0 002.421.99c.576.142 1.095-.322 1.095-.915v-.991z" fill="#8C9C9A"/></svg>