<svg width="15" height="13" fill="none" xmlns="http://www.w3.org/2000/svg"><path d="M14.263 2.222V1.078c0-.286-.113-.56-.312-.762a1.055 1.055 0 00-.75-.316H3.652c-.37 0-.723.15-.985.415a1.427 1.427 0 00-.406 1.074h-.002v4.714c-.52.195-.987.514-1.36.93a3.523 3.523 0 00-.784 1.463 3.558 3.558 0 00-.031 1.665c.121.55.371 1.061.729 1.492.357.43.812.767 1.324.982a3.41 3.41 0 003.175-.284 3.485 3.485 0 001.135-1.203h7.491c.282 0 .552-.114.75-.316.2-.202.312-.476.312-.761V3.248c0-.228-.072-.45-.204-.635a1.065 1.065 0 00-.533-.391zM3.653.659H13.2a.41.41 0 01.292.122.423.423 0 01.12.297V2.17h-9.96a.735.735 0 01-.533-.218.757.757 0 01-.222-.538.766.766 0 01.222-.538.744.744 0 01.532-.217zM3.455 12.34a2.777 2.777 0 01-1.559-.48 2.84 2.84 0 01-1.034-1.278 2.888 2.888 0 01-.16-1.646 2.86 2.86 0 01.769-1.458c.392-.399.892-.67 1.437-.78a2.768 2.768 0 011.621.162c.513.216.951.58 1.26 1.05a2.879 2.879 0 01-.35 3.595 2.789 2.789 0 01-1.984.835zM14.35 7.413h-.959a.702.702 0 01-.497-.212.724.724 0 010-1.013.702.702 0 01.497-.212h.96v1.437zm0-2.095h-.959a1.346 1.346 0 00-.955.405 1.387 1.387 0 000 1.943c.253.258.597.404.955.405h.96v2.099a.423.423 0 01-.122.296.41.41 0 01-.292.123h-7.2a3.558 3.558 0 00-.653-3.373A3.456 3.456 0 004.65 6.202a3.408 3.408 0 00-1.742-.172V2.609c.223.144.481.22.745.22h10.286a.41.41 0 01.292.123.423.423 0 01.121.296v2.07z" fill="#495352"/></svg>