<svg width="34" height="31" fill="none" xmlns="http://www.w3.org/2000/svg"><path d="M34 15.884v7.302c-.261.512-.654.512-1.046.512v4.484c0 1.665-1.046 2.818-2.877 2.818h-27.2c-.262 0-.523 0-.785-.128C.785 30.488 0 29.462 0 28.182V6.789c0-1.665 1.046-2.818 2.877-2.818h8.762C17 2.69 22.23 1.409 27.591.256 28.77 0 29.554.384 29.815 1.537l.393 1.922c.13.384.13.64.654.768 1.177.256 1.961 1.281 1.961 2.562V15.5c.523-.128.916-.128 1.177.384zM1.046 8.583v19.983c.13.512.392 1.025.916 1.281.261.128.653.128 1.046.128h27.2c1.046 0 1.569-.64 1.569-1.665v-4.612H19.092c-.784 0-1.046-.256-1.046-1.024v-6.277c0-.769.262-1.025 1.046-1.025h12.685v-4.868c0-.512-.262-1.025-.785-1.153a2.504 2.504 0 00-1.046-.256H3.4c-.785 0-1.57 0-2.354-.512zm28.77-2.562v-.257c-.393-1.409-.654-2.69-1.047-4.099-.13-.512-.392-.64-.915-.512C21.708 2.562 15.43 3.97 9.284 5.508c-.653.128-1.307.256-1.83.513v.128h20.269c.262 0 .392.256.392.512s-.13.513-.523.513H2.485c-.262 0-.393-.129-.393-.385 0-.128.131-.384.262-.512 0 0 .13-.128.261-.128 1.308-.513 2.616-.769 3.923-1.025.131 0 .131 0 .262-.128H2.485c-.654.128-1.047.384-1.308.897-.262.64-.13 1.152.261 1.665.393.512.916.64 1.439.64h26.415c.916 0 1.831 0 2.616.513 0-.897-.654-1.537-1.57-1.537h-.653c-.262 0-.393-.257-.393-.513 0-.128.131-.384.262-.512 0-.128.13-.128.261-.128zm3.007 16.524v-6.148h-13.73v6.148h13.73zM31.777 6.533c.13-.64-.523-1.41-1.046-1.41.13.385.13.641.261.898l.131.128c.13.128.392.256.654.384z" fill="#8C9C9A"/><path d="M23.146 21.008c-.915 0-1.57-.64-1.57-1.537 0-.897.655-1.537 1.44-1.537.26 0 .523.128.653.384a.7.7 0 01-.392.64c-.392.129-.654.257-.654.513s.13.384.523.512c.262 0 .523-.128.654-.64.13-.256.261-.512.523-.384.262 0 .523.256.523.512-.13.897-.915 1.537-1.7 1.537z" fill="#8C9C9A"/></svg>