<svg width="38" height="82" fill="none" xmlns="http://www.w3.org/2000/svg"><path d="M9.229 72.247c0 .981-.171 1.843-.513 2.585-.337.742-.82 1.314-1.45 1.714-.63.4-1.358.6-2.183.6-1.245 0-2.251-.444-3.018-1.332-.766-.894-1.15-2.098-1.15-3.611v-1.099c0-.972.171-1.831.513-2.578.347-.752.835-1.328 1.465-1.729.63-.405 1.355-.608 2.175-.608.82 0 1.543.198 2.168.594.63.395 1.116.954 1.458 1.677.342.723.52 1.56.535 2.512v1.275zm-.901-1.158c0-1.284-.29-2.29-.872-3.017-.581-.728-1.377-1.091-2.388-1.091-.99 0-1.782.366-2.373 1.098-.586.728-.879 1.746-.879 3.054v1.114c0 1.264.293 2.268.88 3.01.585.737 1.381 1.106 2.387 1.106 1.02 0 1.816-.364 2.388-1.091.571-.733.857-1.751.857-3.055V71.09zm6.36-1.486c1.005 0 1.82.33 2.446.988.625.655.937 1.524.937 2.608v.19c0 .718-.144 1.365-.432 1.941a3.171 3.171 0 01-1.23 1.34c-.533.318-1.145.477-1.839.477-1.045 0-1.892-.347-2.541-1.04-.645-.699-.967-1.629-.967-2.791v-.703c0-1.64.312-2.952.937-3.933.625-.982 1.514-1.568 2.666-1.758.728-.117 1.238-.276 1.531-.476a.939.939 0 00.447-.82h.754c0 .41-.085.749-.256 1.018-.171.268-.427.485-.77.651-.34.162-.863.298-1.566.41-.806.127-1.456.472-1.949 1.033-.488.557-.805 1.304-.952 2.242a3.62 3.62 0 011.172-.997c.474-.254 1.01-.38 1.611-.38zm-2.747 3.603v.183c0 .894.241 1.621.725 2.183.483.556 1.118.835 1.904.835.791 0 1.426-.281 1.904-.843.479-.566.718-1.308.718-2.226v-.19c0-.826-.244-1.5-.732-2.022-.484-.523-1.118-.784-1.905-.784-.786 0-1.418.266-1.896.799-.479.527-.718 1.215-.718 2.065zm7.531-.286c0-.761.147-1.447.44-2.058a3.386 3.386 0 011.252-1.42 3.374 3.374 0 011.838-.513c1.055 0 1.91.37 2.564 1.113.654.737.982 1.716.982 2.937v.183c0 .767-.15 1.458-.447 2.073a3.29 3.29 0 01-1.245 1.413c-.538.333-1.15.499-1.839.499-1.05 0-1.904-.37-2.563-1.107-.655-.742-.982-1.723-.982-2.944v-.176zm.88.242c0 .947.243 1.726.732 2.337.493.605 1.137.908 1.933.908.791 0 1.43-.303 1.92-.908.492-.61.739-1.414.739-2.41v-.169a4.02 4.02 0 00-.337-1.662c-.225-.503-.54-.891-.945-1.165a2.398 2.398 0 00-1.391-.417c-.782 0-1.419.307-1.912.923-.493.61-.74 1.41-.74 2.402v.161zm13.42-4.087h.878V77h-.879v-6.511L29.494 77h-.872v-7.925h.872v6.519l4.277-6.519z" fill="#30C4AE"/><path d="M37.74 34.18V23h-4.35v-1.4a3.48 3.48 0 00-3.48-3.47H4.52a3.48 3.48 0 00-3.48 3.47v4.72a3.48 3.48 0 003.48 3.48h25.44a3.49 3.49 0 003.43-3.47v-1.39h2.37v7.33H16.28v4a2.57 2.57 0 00-2.38 2.57v8.55A2.582 2.582 0 0016.47 50h1.54a2.57 2.57 0 002.57-2.58V43a1 1 0 10-1.92 0v4.39a.65.65 0 01-.64.65h-1.55a.65.65 0 01-.65-.65v-8.51a.65.65 0 01.65-.65h1.54a.66.66 0 01.64.65v.31a1 1 0 001.92 0v-.31a2.57 2.57 0 00-2.37-2.57v-2.13h19.54zm-6.22-7.85a1.56 1.56 0 01-1.56 1.56H4.52a1.56 1.56 0 01-1.56-1.56v-4.72a1.55 1.55 0 011.56-1.55h25.44a1.56 1.56 0 011.56 1.55v4.72zM32.99 50H22.11a1 1 0 010-1.92h10.88a2.83 2.83 0 002.83-2.83v-8a1 1 0 011.92 0v8A4.76 4.76 0 0132.99 50z" fill="#067362"/><path d="M37.74 4.76V19.1a1 1 0 01-1.92 0V10H10.39a1 1 0 110-1.92h25.42V4.76a2.83 2.83 0 00-2.82-2.83H5.79a2.83 2.83 0 00-2.83 2.83v3.32h3.59a1 1 0 010 1.92H2.96v6.65a1 1 0 11-1.92 0V4.76A4.75 4.75 0 015.79 0h27.2a4.75 4.75 0 014.75 4.76zM12.21 50H5.79a4.76 4.76 0 01-4.75-4.75v-14a1 1 0 011.92 0v14a2.83 2.83 0 002.83 2.83h6.42a1 1 0 010 1.92z" fill="#067362"/><path d="M27.85 7.62a2.56 2.56 0 11-.04-5.12 2.56 2.56 0 01.04 5.12zm0-3.2a.64.64 0 100 1.28.64.64 0 000-1.28zm-6.16 3.2h-8.38a2.56 2.56 0 110-5.12h8.38a2.56 2.56 0 110 5.12zm-8.38-3.2a.64.64 0 000 1.28h8.38a.64.64 0 100-1.28h-8.38z" fill="#067362"/></svg>