<svg width="104" height="65" fill="none" xmlns="http://www.w3.org/2000/svg"><path d="M14.236 31.016c0-3.51 1.55-7.541 4.648-12.096L28.965 3.8h6.049L25.66 18.136c.186-.075.429-.112.727-.112.3-.037.504-.056.616-.056 1.793 0 3.473.336 5.04 1.008 1.569.635 2.913 1.53 4.033 2.688a12.17 12.17 0 012.688 4.088c.672 1.53 1.008 3.173 1.008 4.928s-.318 3.416-.953 4.984a12.313 12.313 0 01-2.688 4.032c-1.12 1.12-2.463 2.016-4.032 2.688-1.568.672-3.266 1.008-5.096 1.008-1.829 0-3.527-.317-5.096-.952a13.296 13.296 0 01-4.032-2.576 13.078 13.078 0 01-2.688-3.92c-.634-1.53-.952-3.173-.952-4.928zm12.768 7.056a6.947 6.947 0 002.8-.56 7.305 7.305 0 002.296-1.624 6.53 6.53 0 001.512-2.352c.374-.896.56-1.848.56-2.856 0-1.008-.186-1.96-.56-2.856a6.53 6.53 0 00-1.512-2.352 6.612 6.612 0 00-2.296-1.568 6.405 6.405 0 00-2.8-.616 6.405 6.405 0 00-2.8.616 6.748 6.748 0 00-2.24 1.568 8.326 8.326 0 00-1.455 2.352 8.066 8.066 0 00-.505 2.856c0 1.008.168 1.96.505 2.856.373.896.858 1.68 1.456 2.352a7.502 7.502 0 002.24 1.624 6.95 6.95 0 002.8.56zm15.16-1.848l4.592-2.352a8.532 8.532 0 003.024 2.968c1.307.747 2.838 1.157 4.592 1.232 2.39.037 4.219-.579 5.488-1.848 1.307-1.27 2.035-2.856 2.184-4.76.187-2.203-.392-3.995-1.736-5.376-1.306-1.381-3.117-2.147-5.432-2.296-1.418-.075-2.594.037-3.528.336l-1.68.56-4.928-1.008L48.66 3.8H66.3v5.32H52.58l-1.904 10.36a18.03 18.03 0 012.128-.504 9.465 9.465 0 012.52-.224c2.054.037 3.864.41 5.432 1.12 1.606.672 2.931 1.587 3.976 2.744 1.046 1.12 1.811 2.464 2.296 4.032.486 1.53.654 3.192.504 4.984-.149 1.83-.578 3.49-1.288 4.984a12.196 12.196 0 01-2.8 3.752c-1.12 1.008-2.445 1.792-3.976 2.352-1.493.523-3.136.747-4.928.672a16.763 16.763 0 01-3.808-.56 15.72 15.72 0 01-3.472-1.4 15.878 15.878 0 01-2.968-2.24 11.328 11.328 0 01-2.128-2.968zM88.551 17.8h3.852L76.635 43h-3.852l15.768-25.2zm-4.608 20.304c0-.72.132-1.392.396-2.016a5.563 5.563 0 011.116-1.62 5.17 5.17 0 011.656-1.116 4.752 4.752 0 012.016-.432c.72 0 1.392.144 2.016.432a4.773 4.773 0 011.62 1.116c.48.456.852.996 1.116 1.62.288.624.432 1.296.432 2.016s-.144 1.392-.432 2.016a5.17 5.17 0 01-1.116 1.656 5.12 5.12 0 01-3.636 1.476 5.12 5.12 0 01-2.016-.396 5.485 5.485 0 01-1.656-1.08 6.088 6.088 0 01-1.116-1.656 5.12 5.12 0 01-.396-2.016zm-7.956-20.52c.72 0 1.392.132 2.016.396a4.773 4.773 0 011.62 1.116c.48.456.852.996 1.116 1.62a5.12 5.12 0 01.396 2.016 5.12 5.12 0 01-1.512 3.672 5.563 5.563 0 01-1.62 1.116 5.12 5.12 0 01-2.016.396 5.12 5.12 0 01-2.016-.396 6.088 6.088 0 01-1.656-1.116 6.088 6.088 0 01-1.116-1.656 5.12 5.12 0 01-.396-2.016c0-.72.132-1.392.396-2.016a5.563 5.563 0 011.116-1.62 5.12 5.12 0 013.672-1.512zm13.14 22.86c.648 0 1.2-.228 1.656-.684a2.256 2.256 0 00.684-1.656c0-.648-.228-1.2-.684-1.656a2.2 2.2 0 00-1.656-.72c-.648 0-1.212.24-1.692.72a2.256 2.256 0 00-.684 1.656c0 .648.228 1.2.684 1.656.48.456 1.044.684 1.692.684zm-13.14-15.336c.648 0 1.2-.228 1.656-.684.456-.48.684-1.044.684-1.692 0-.648-.228-1.2-.684-1.656a2.256 2.256 0 00-1.656-.684c-.648 0-1.212.228-1.692.684a2.256 2.256 0 00-.684 1.656c0 .648.228 1.212.684 1.692.48.456 1.044.684 1.692.684z" fill="#5E968D"/><path d="M9.614 11.492h.757l-.005 2.232h-.6V12H4.403v1.724h-.6v-2.232h.473c.361-.377.653-.928.874-1.65.225-.726.36-1.52.405-2.383l.127-2.568h3.93v6.601zm-4.639 0h4.038V5.403H6.26L6.162 7.44a10.13 10.13 0 01-.376 2.34c-.205.712-.476 1.284-.81 1.713zm11.953-2.661c0 .654-.114 1.229-.342 1.724a2.574 2.574 0 01-.966 1.142c-.42.267-.905.4-1.455.4-.83 0-1.501-.296-2.012-.888-.511-.596-.767-1.398-.767-2.407v-.733c0-.647.114-1.22.342-1.718.231-.502.557-.886.976-1.153a2.62 2.62 0 011.45-.405c.548 0 1.03.132 1.446.395.42.264.744.637.972 1.119.227.481.346 1.04.356 1.674v.85zm-.6-.771c0-.857-.194-1.527-.582-2.012-.387-.485-.918-.728-1.591-.728-.661 0-1.188.244-1.582.733-.391.485-.586 1.163-.586 2.036v.742c0 .843.195 1.512.586 2.007.39.491.92.737 1.591.737.68 0 1.211-.242 1.592-.727.381-.489.572-1.167.572-2.036V8.06z" fill="#8C9C9A"/><path d="M17.712 54.22H15.04V59h-.586v-5.283h3.257v.503zm7.508 2.06c0-.508.097-.965.293-1.372.198-.407.477-.723.835-.947a2.25 2.25 0 011.225-.342c.703 0 1.273.248 1.71.742.435.492.653 1.145.653 1.958v.122c0 .511-.099.972-.297 1.382a2.192 2.192 0 01-.83.943 2.282 2.282 0 01-1.226.332c-.7 0-1.27-.246-1.709-.738-.436-.494-.654-1.149-.654-1.962v-.118zm.586.161c0 .632.162 1.151.488 1.558.329.404.758.605 1.289.605.527 0 .954-.201 1.28-.605.328-.407.492-.942.492-1.606v-.113c0-.403-.074-.773-.224-1.108a1.788 1.788 0 00-.63-.776 1.6 1.6 0 00-.928-.279c-.52 0-.945.205-1.274.615-.329.407-.493.941-.493 1.602v.107zm11.868 2.066l.259-.337c.41-.557.646-1.37.708-2.442l.092-2.011h3.12v4.79h.547v2.046h-.58V59h-3.97v1.553h-.562l.005-2.046h.38zm.674 0h2.92v-4.243H39.29l-.063 1.372c-.059 1.26-.352 2.216-.88 2.87zm11.858-2.227c0-.508.098-.965.293-1.372.199-.407.477-.723.835-.947a2.25 2.25 0 011.226-.342c.703 0 1.272.248 1.709.742.436.492.654 1.145.654 1.958v.122c0 .511-.1.972-.298 1.382a2.192 2.192 0 01-.83.943 2.282 2.282 0 01-1.226.332c-.7 0-1.27-.246-1.709-.738-.436-.494-.654-1.149-.654-1.962v-.118zm.586.161c0 .632.163 1.151.488 1.558.329.404.759.605 1.29.605.527 0 .953-.201 1.279-.605.328-.407.493-.942.493-1.606v-.113c0-.403-.075-.773-.225-1.108a1.788 1.788 0 00-.63-.776 1.6 1.6 0 00-.927-.279 1.56 1.56 0 00-1.275.615c-.329.407-.493.941-.493 1.602v.107zM63.197 59v-5.283h1.939c.67 0 1.185.12 1.543.361.358.238.537.588.537 1.05 0 .264-.08.5-.24.708-.159.205-.392.355-.698.45.345.064.622.212.83.444.212.23.318.5.318.805 0 .466-.173.827-.518 1.084-.342.254-.827.381-1.455.381h-2.256zm.581-2.432v1.944h1.695c.44 0 .778-.085 1.015-.254.238-.17.357-.414.357-.733a.82.82 0 00-.357-.698c-.237-.172-.576-.259-1.015-.259h-1.695zm0-.488h1.48c.918-.013 1.377-.325 1.377-.937 0-.323-.127-.557-.381-.703-.25-.15-.624-.225-1.118-.225h-1.358v1.865zm12.596-.444h1.523a2.3 2.3 0 011.026.215c.296.14.52.335.669.586.153.25.23.541.23.873 0 .512-.177.922-.528 1.231-.348.306-.82.459-1.416.459h-2.085v-5.283h.581v1.919zm0 .498v2.373h1.514c.42 0 .748-.106.986-.317.24-.212.361-.502.361-.87 0-.351-.117-.635-.351-.85-.231-.217-.549-.33-.952-.336h-1.558zM81.614 59h-.587v-5.283h.586V59zm10.285-3.14l1.426-2.143h.694l-1.792 2.593 1.87 2.69h-.689l-1.504-2.236L90.4 59h-.688l1.865-2.69-1.792-2.593h.689l1.425 2.143z" fill="#5E968D"/></svg>